<svg width="1440" height="191" viewBox="0 0 1440 191" fill="none" xmlns="http://www.w3.org/2000/svg">
<g clip-path="url(#clip0_1174_101)">
<rect x="1004" y="-10" width="51.1885" height="51.1885" rx="5.64839" stroke="#EEEEEE" stroke-width="0.529536"/>
<rect x="1055.19" y="-10" width="51.1885" height="51.1885" rx="5.64839" stroke="#EEEEEE" stroke-width="0.529536"/>
<rect x="1106.38" y="-10" width="51.1885" height="51.1885" rx="5.64839" stroke="#EEEEEE" stroke-width="0.529536"/>
<rect x="1157.57" y="-10" width="51.1885" height="51.1885" rx="5.64839" stroke="#EEEEEE" stroke-width="0.529536"/>
<rect x="1208.75" y="-10" width="51.1885" height="51.1885" rx="5.64839" stroke="#EEEEEE" stroke-width="0.529536"/>
<rect x="1259.94" y="-10" width="51.1885" height="51.1885" rx="5.64839" stroke="#EEEEEE" stroke-width="0.529536"/>
<rect x="1004" y="41" width="51.1885" height="51.1885" rx="5.64839" stroke="#EEEEEE" stroke-width="0.529536"/>
<rect x="1055.19" y="41" width="51.1885" height="51.1885" rx="5.64839" stroke="#EEEEEE" stroke-width="0.529536"/>
<rect x="1106.38" y="41" width="51.1885" height="51.1885" rx="5.64839" stroke="#EEEEEE" stroke-width="0.529536"/>
<rect x="1157.57" y="41" width="51.1885" height="51.1885" rx="5.64839" stroke="#EEEEEE" stroke-width="0.529536"/>
<rect x="1208.75" y="41" width="51.1885" height="51.1885" rx="5.64839" stroke="#EEEEEE" stroke-width="0.529536"/>
<rect x="1259.94" y="41" width="51.1885" height="51.1885" rx="5.64839" stroke="#EEEEEE" stroke-width="0.529536"/>
<rect x="1004" y="92" width="51.1885" height="51.1885" rx="5.64839" stroke="#EEEEEE" stroke-width="0.529536"/>
<rect x="1055.19" y="92" width="51.1885" height="51.1885" rx="5.64839" stroke="#EEEEEE" stroke-width="0.529536"/>
<rect x="1106.38" y="92" width="51.1885" height="51.1885" rx="5.64839" stroke="#EEEEEE" stroke-width="0.529536"/>
<rect x="1157.57" y="92" width="51.1885" height="51.1885" rx="5.64839" stroke="#EEEEEE" stroke-width="0.529536"/>
<rect x="1208.75" y="92" width="51.1885" height="51.1885" rx="5.64839" stroke="#EEEEEE" stroke-width="0.529536"/>
<rect x="1259.94" y="92" width="51.1885" height="51.1885" rx="5.64839" stroke="#EEEEEE" stroke-width="0.529536"/>
<rect x="1004" y="143" width="51.1885" height="51.1885" rx="5.64839" stroke="#EEEEEE" stroke-width="0.529536"/>
<rect x="1055.19" y="143" width="51.1885" height="51.1885" rx="5.64839" stroke="#EEEEEE" stroke-width="0.529536"/>
<rect x="1106.38" y="143" width="51.1885" height="51.1885" rx="5.64839" stroke="#EEEEEE" stroke-width="0.529536"/>
<rect x="1157.57" y="143" width="51.1885" height="51.1885" rx="5.64839" stroke="#EEEEEE" stroke-width="0.529536"/>
<rect x="1208.75" y="143" width="51.1885" height="51.1885" rx="5.64839" stroke="#EEEEEE" stroke-width="0.529536"/>
<rect x="1259.94" y="143" width="51.1885" height="51.1885" rx="5.64839" stroke="#EEEEEE" stroke-width="0.529536"/>
<path d="M1311.19 -7V34.3038C1311.19 37.4233 1313.72 39.9522 1316.84 39.9522H1356.73C1359.85 39.9522 1362.38 42.4811 1362.38 45.6006V85.4923C1362.38 88.6118 1364.91 91.1407 1368.03 91.1407H1407.92C1411.04 91.1407 1413.57 93.6696 1413.57 96.7891V136.681C1413.57 139.8 1416.09 142.329 1419.21 142.329H1459.11C1462.23 142.329 1464.75 144.858 1464.75 147.978V187.869C1464.75 190.989 1467.28 193.518 1470.4 193.518H1511.71M1260 -7V34.3038C1260 37.4233 1262.53 39.9522 1265.65 39.9522H1305.54C1308.66 39.9522 1311.19 42.4811 1311.19 45.6006V85.4923C1311.19 88.6118 1313.72 91.1407 1316.84 91.1407H1356.73C1359.85 91.1407 1362.38 93.6696 1362.38 96.7891V136.681C1362.38 139.8 1359.85 142.329 1356.73 142.329H1316.84C1313.72 142.329 1311.19 139.8 1311.19 136.681V96.083L1311.14 95.7494C1310.76 93.1911 1308.59 91.2808 1306 91.2311L1301.3 91.1407H1265.65C1262.53 91.1407 1260 93.6696 1260 96.7891V136.681C1260 139.8 1262.53 142.329 1265.65 142.329H1305.89L1307.23 142.419C1309.46 142.567 1311.19 144.415 1311.19 146.645V150.978M1311.19 146.565V187.869C1311.19 190.989 1313.72 193.518 1316.84 193.518H1356.73C1359.85 193.518 1362.38 196.047 1362.38 199.166V239.058C1362.38 242.177 1364.91 244.706 1368.03 244.706H1407.92C1411.04 244.706 1413.57 247.235 1413.57 250.355V290.246C1413.57 293.366 1416.09 295.895 1419.21 295.895H1459.11C1462.23 295.895 1464.75 298.424 1464.75 301.543V341.435C1464.75 344.554 1467.28 347.083 1470.4 347.083H1511.71" stroke="url(#paint0_linear_1174_101)" stroke-opacity="0.8" stroke-width="0.529536"/>
<rect y="237" width="238" height="154" transform="rotate(-90 0 237)" fill="url(#paint1_linear_1174_101)"/>
<rect x="380" y="275" width="287.009" height="153.566" transform="rotate(-180 380 275)" fill="url(#paint2_linear_1174_101)"/>
<ellipse cx="1358.51" cy="-84.3787" rx="190.986" ry="162.744" fill="url(#paint3_radial_1174_101)"/>
<g opacity="0.5" filter="url(#filter0_f_1174_101)">
<circle cx="-24.5195" cy="0.480606" r="178.48" fill="#94BCEB"/>
</g>
<g opacity="0.5" filter="url(#filter1_f_1174_101)">
<circle cx="414.48" cy="-116.519" r="178.48" fill="#94BCEB"/>
</g>
<g opacity="0.2" filter="url(#filter2_f_1174_101)">
<circle cx="1403.48" cy="62.4806" r="178.48" fill="#A49EF4"/>
</g>
<g opacity="0.2" filter="url(#filter3_f_1174_101)">
<circle cx="1133.48" cy="-47.5194" r="178.48" fill="#A49EF4"/>
</g>
<path d="M1440 131H0V231H1440V131Z" fill="url(#paint4_linear_1174_101)"/>
</g>
<defs>
<filter id="filter0_f_1174_101" x="-428.883" y="-403.883" width="808.727" height="808.727" filterUnits="userSpaceOnUse" color-interpolation-filters="sRGB">
<feFlood flood-opacity="0" result="BackgroundImageFix"/>
<feBlend mode="normal" in="SourceGraphic" in2="BackgroundImageFix" result="shape"/>
<feGaussianBlur stdDeviation="112.941" result="effect1_foregroundBlur_1174_101"/>
</filter>
<filter id="filter1_f_1174_101" x="10.1171" y="-520.883" width="808.727" height="808.727" filterUnits="userSpaceOnUse" color-interpolation-filters="sRGB">
<feFlood flood-opacity="0" result="BackgroundImageFix"/>
<feBlend mode="normal" in="SourceGraphic" in2="BackgroundImageFix" result="shape"/>
<feGaussianBlur stdDeviation="112.941" result="effect1_foregroundBlur_1174_101"/>
</filter>
<filter id="filter2_f_1174_101" x="999.117" y="-341.883" width="808.727" height="808.727" filterUnits="userSpaceOnUse" color-interpolation-filters="sRGB">
<feFlood flood-opacity="0" result="BackgroundImageFix"/>
<feBlend mode="normal" in="SourceGraphic" in2="BackgroundImageFix" result="shape"/>
<feGaussianBlur stdDeviation="112.941" result="effect1_foregroundBlur_1174_101"/>
</filter>
<filter id="filter3_f_1174_101" x="729.117" y="-451.883" width="808.727" height="808.727" filterUnits="userSpaceOnUse" color-interpolation-filters="sRGB">
<feFlood flood-opacity="0" result="BackgroundImageFix"/>
<feBlend mode="normal" in="SourceGraphic" in2="BackgroundImageFix" result="shape"/>
<feGaussianBlur stdDeviation="112.941" result="effect1_foregroundBlur_1174_101"/>
</filter>
<linearGradient id="paint0_linear_1174_101" x1="1260" y1="-7" x2="1506.06" y2="297.483" gradientUnits="userSpaceOnUse">
<stop offset="0.0819437" stop-color="#F7F7F7"/>
<stop offset="0.208333" stop-color="#12C2E9"/>
<stop offset="0.526042" stop-color="#C471ED"/>
<stop offset="0.9375" stop-color="#F64F59"/>
</linearGradient>
<linearGradient id="paint1_linear_1174_101" x1="119" y1="237" x2="119" y2="391" gradientUnits="userSpaceOnUse">
<stop stop-color="white"/>
<stop offset="1" stop-color="white" stop-opacity="0"/>
</linearGradient>
<linearGradient id="paint2_linear_1174_101" x1="523.504" y1="275" x2="523.504" y2="428.566" gradientUnits="userSpaceOnUse">
<stop stop-color="white" stop-opacity="0"/>
<stop offset="0.713542" stop-color="white" stop-opacity="0.7"/>
<stop offset="1" stop-color="white" stop-opacity="0"/>
</linearGradient>
<radialGradient id="paint3_radial_1174_101" cx="0" cy="0" r="1" gradientUnits="userSpaceOnUse" gradientTransform="translate(1358.51 -84.3787) rotate(90) scale(162.744 190.986)">
<stop stop-color="white"/>
<stop offset="1" stop-color="white" stop-opacity="0"/>
</radialGradient>
<linearGradient id="paint4_linear_1174_101" x1="720" y1="231" x2="720" y2="131" gradientUnits="userSpaceOnUse">
<stop offset="0.553944" stop-color="#F7F5FB"/>
<stop offset="1" stop-color="#F7F5FB" stop-opacity="0"/>
</linearGradient>
<clipPath id="clip0_1174_101">
<rect width="1440" height="191" fill="white"/>
</clipPath>
</defs>
</svg>
