<?xml version="1.0" encoding="UTF-8" standalone="no"?>
<!-- Created with Inkscape (http://www.inkscape.org/) -->

<svg
   version="1.1"
   id="svg2"
   width="666.66669"
   height="666.66669"
   viewBox="0 0 666.66669 666.66669"
   sodipodi:docname="3180763.ai"
   xmlns:inkscape="http://www.inkscape.org/namespaces/inkscape"
   xmlns:sodipodi="http://sodipodi.sourceforge.net/DTD/sodipodi-0.dtd"
   xmlns="http://www.w3.org/2000/svg"
   xmlns:svg="http://www.w3.org/2000/svg">
  <defs
     id="defs6">
    <clipPath
       clipPathUnits="userSpaceOnUse"
       id="clipPath16">
      <path
         d="M 0,500 H 500 V 0 H 0 Z"
         id="path14" />
    </clipPath>
    <clipPath
       clipPathUnits="userSpaceOnUse"
       id="clipPath28">
      <path
         d="M 44.807,411.192 H 399.332 V 120.776 H 44.807 Z"
         id="path26" />
    </clipPath>
    <clipPath
       clipPathUnits="userSpaceOnUse"
       id="clipPath44">
      <path
         d="M 0,500 H 500 V 0 H 0 Z"
         id="path42" />
    </clipPath>
    <clipPath
       clipPathUnits="userSpaceOnUse"
       id="clipPath56">
      <path
         d="M 59.1072,118.385 H 456.141 V 96.7291 H 59.1072 Z"
         id="path54" />
    </clipPath>
    <clipPath
       clipPathUnits="userSpaceOnUse"
       id="clipPath72">
      <path
         d="M 0,500 H 500 V 0 H 0 Z"
         id="path70" />
    </clipPath>
    <clipPath
       clipPathUnits="userSpaceOnUse"
       id="clipPath92">
      <path
         d="m 351.414,296.123 h 81.231 V 192.425 h -81.231 z"
         id="path90" />
    </clipPath>
    <clipPath
       clipPathUnits="userSpaceOnUse"
       id="clipPath120">
      <path
         d="M 300.612,220.557 H 443.319 V 112.981 H 300.612 Z"
         id="path118" />
    </clipPath>
    <clipPath
       clipPathUnits="userSpaceOnUse"
       id="clipPath152">
      <path
         d="M 0,500 H 500 V 0 H 0 Z"
         id="path150" />
    </clipPath>
    <clipPath
       clipPathUnits="userSpaceOnUse"
       id="clipPath248">
      <path
         d="M 0,500 H 500 V 0 H 0 Z"
         id="path246" />
    </clipPath>
  </defs>
  <sodipodi:namedview
     id="namedview4"
     pagecolor="#ffffff"
     bordercolor="#000000"
     borderopacity="0.25"
     inkscape:showpageshadow="2"
     inkscape:pageopacity="0.0"
     inkscape:pagecheckerboard="0"
     inkscape:deskcolor="#d1d1d1" />
  <g
     id="g8"
     inkscape:groupmode="layer"
     inkscape:label="3180763"
     transform="matrix(1.3333333,0,0,-1.3333333,0,666.66667)">
    <g
       id="g10">
      <g
         id="g12"
         clip-path="url(#clipPath16)">
        <g
           id="g18"
           transform="translate(356.3936,369.1396)">
          <path
             d="m 0,0 c 0,0 -40.262,44.112 -104.009,41.978 -63.747,-2.135 -118.099,-44.824 -163.058,-78.264 -44.959,-33.44 -57.037,-85.379 -30.867,-125.934 26.17,-40.555 67.773,-23.479 120.784,-49.804 53.011,-26.326 63.076,-41.267 122.127,-34.864 59.049,6.404 104.007,71.862 97.297,141.587 C 35.564,-35.575 0,0 0,0"
             style="fill:#aaff00;fill-opacity:1;fill-rule:nonzero;stroke:none"
             id="path20" />
        </g>
        <g
           id="g22">
          <g
             id="g24" />
          <g
             id="g36">
            <g
               clip-path="url(#clipPath28)"
               opacity="0.699997"
               id="g34">
              <g
                 transform="translate(356.3936,369.1396)"
                 id="g32">
                <path
                   d="m 0,0 c 0,0 -40.262,44.112 -104.009,41.978 -63.747,-2.135 -118.099,-44.824 -163.058,-78.264 -44.959,-33.44 -57.037,-85.379 -30.867,-125.934 26.17,-40.555 67.773,-23.479 120.784,-49.804 53.011,-26.326 63.076,-41.267 122.127,-34.864 59.049,6.404 104.007,71.862 97.297,141.587 C 35.564,-35.575 0,0 0,0"
                   style="fill:#ffffff;fill-opacity:1;fill-rule:nonzero;stroke:none"
                   id="path30" />
              </g>
            </g>
          </g>
        </g>
      </g>
    </g>
    <g
       id="g38">
      <g
         id="g40"
         clip-path="url(#clipPath44)">
        <g
           id="g46"
           transform="translate(456.1406,107.5576)">
          <path
             d="m 0,0 c 0,-5.98 -88.879,-10.828 -198.517,-10.828 -109.637,0 -198.516,4.848 -198.516,10.828 0,5.979 88.879,10.828 198.516,10.828 C -88.879,10.828 0,5.979 0,0"
             style="fill:#aaff00;fill-opacity:1;fill-rule:nonzero;stroke:none"
             id="path48" />
        </g>
        <g
           id="g50">
          <g
             id="g52" />
          <g
             id="g64">
            <g
               clip-path="url(#clipPath56)"
               opacity="0.300003"
               id="g62">
              <g
                 transform="translate(456.1406,107.5576)"
                 id="g60">
                <path
                   d="m 0,0 c 0,-5.98 -88.879,-10.828 -198.517,-10.828 -109.637,0 -198.516,4.848 -198.516,10.828 0,5.979 88.879,10.828 198.516,10.828 C -88.879,10.828 0,5.979 0,0"
                   style="fill:#ffffff;fill-opacity:1;fill-rule:nonzero;stroke:none"
                   id="path58" />
              </g>
            </g>
          </g>
        </g>
      </g>
    </g>
    <g
       id="g66">
      <g
         id="g68"
         clip-path="url(#clipPath72)">
        <g
           id="g74"
           transform="translate(374.9375,270.7979)">
          <path
             d="m 0,0 c -0.057,-0.006 0.697,3.728 0.771,3.958 0.864,2.663 4.098,7.303 7.234,7.297 2.259,-0.004 3.788,-2.06 3.566,-4.216 C 11.344,4.837 9.366,2.96 7.577,1.876 5.477,0.605 0.005,0 0,0"
             style="fill:#aaff00;fill-opacity:1;fill-rule:nonzero;stroke:none"
             id="path76" />
        </g>
        <g
           id="g78"
           transform="translate(368.8662,295.9141)">
          <path
             d="M 0,0 C 2.952,-1.06 4.419,-6.521 4.327,-9.319 4.319,-9.562 3.761,-13.33 3.709,-13.304 l -0.06,0.03 c 0.239,-0.86 0.484,-1.786 0.732,-2.802 0.443,-1.88 0.927,-4.008 1.297,-6.361 0.375,-2.349 0.718,-4.913 0.834,-7.646 0.121,-2.738 0.107,-5.625 -0.29,-8.598 -0.005,-0.033 -0.014,-0.068 -0.019,-0.102 0.387,0.834 1.545,3.128 1.654,3.294 1.537,2.341 5.88,5.962 8.904,5.128 2.177,-0.6 3.11,-2.988 2.326,-5.008 -0.8,-2.064 -3.203,-3.352 -5.215,-3.924 -2.268,-0.646 -7.325,0.117 -7.727,0.179 -0.406,-2.828 -1.051,-5.697 -1.865,-8.565 -0.463,-1.639 -0.98,-3.277 -1.519,-4.912 0.357,0.71 0.681,1.342 0.737,1.425 1.536,2.342 5.88,5.962 8.903,5.128 2.178,-0.6 3.111,-2.987 2.327,-5.008 -0.8,-2.063 -3.204,-3.351 -5.215,-3.925 -2.041,-0.58 -6.367,-0.016 -7.508,0.148 -0.214,-0.625 -0.42,-1.251 -0.637,-1.875 -1.035,-2.996 -2.082,-5.981 -3.018,-8.94 -0.331,-1.042 -0.618,-2.081 -0.91,-3.119 0.319,0.63 0.592,1.158 0.642,1.234 1.536,2.341 5.88,5.961 8.903,5.128 2.178,-0.6 3.111,-2.988 2.327,-5.008 -0.8,-2.064 -3.205,-3.352 -5.215,-3.924 -1.949,-0.555 -5.945,-0.07 -7.303,0.119 -0.266,-1.072 -0.534,-2.146 -0.744,-3.197 -0.127,-0.721 -0.299,-1.407 -0.386,-2.138 -0.101,-0.722 -0.202,-1.436 -0.302,-2.145 -0.141,-1.371 -0.296,-2.784 -0.4,-4.125 -0.08,-0.931 -0.139,-1.82 -0.2,-2.715 0.316,1.041 0.98,3.067 1.054,3.23 0.774,1.693 2.688,4.124 4.799,5.462 0.113,0.251 0.246,0.49 0.405,0.717 1.244,1.774 3.746,2.326 5.457,0.85 2.373,-2.048 1.78,-7.672 0.688,-10.251 -0.064,-0.152 -0.947,-1.724 -1.52,-2.708 0.424,0.527 0.831,1.043 1.275,1.58 0.871,1.067 1.771,2.106 2.736,3.228 0.485,0.524 0.975,1.055 1.47,1.591 0.478,0.542 1.055,1.053 1.584,1.587 1.255,1.213 2.585,2.381 3.951,3.527 -0.932,0.766 -4.205,3.529 -5.145,5.407 -0.938,1.87 -1.612,4.512 -0.63,6.496 0.96,1.944 3.349,2.869 5.263,1.668 2.658,-1.665 2.923,-7.314 2.235,-10.028 -0.043,-0.169 -0.756,-2.06 -1.168,-3.093 0.827,0.683 1.648,1.369 2.508,2.033 2.478,1.916 5.047,3.778 7.6,5.647 0.783,0.572 1.556,1.152 2.332,1.73 -0.335,0.268 -4.295,3.469 -5.349,5.573 -0.937,1.87 -1.611,4.512 -0.63,6.497 0.96,1.942 3.35,2.868 5.264,1.668 2.657,-1.666 2.922,-7.316 2.235,-10.029 -0.053,-0.205 -1.082,-2.925 -1.378,-3.605 1.709,1.272 3.399,2.556 5.015,3.888 2.232,1.836 4.32,3.76 6.205,5.775 -0.157,0.124 -4.305,3.447 -5.385,5.602 -0.937,1.869 -1.611,4.511 -0.63,6.496 0.96,1.943 3.351,2.868 5.265,1.668 2.656,-1.665 2.921,-7.314 2.234,-10.029 -0.046,-0.177 -0.828,-2.253 -1.224,-3.23 0.083,-0.052 0.069,-0.042 0.152,-0.095 1.994,2.183 3.65,4.548 5.091,6.838 0.837,1.324 1.564,2.638 2.241,3.931 -0.836,0.539 -4.63,3.048 -5.816,4.88 -1.136,1.755 -2.096,4.307 -1.34,6.387 0.742,2.037 3.016,3.22 5.05,2.237 2.823,-1.364 3.708,-6.95 3.322,-9.723 -0.021,-0.151 -0.404,-1.66 -0.699,-2.756 0.297,0.589 0.615,1.19 0.888,1.76 1.031,2.135 1.845,4.154 2.55,5.947 0.392,1.024 0.727,1.957 1.032,2.833 -0.544,0.957 -2.688,4.844 -2.894,6.977 -0.2,2.081 0.124,4.789 1.755,6.287 1.596,1.466 4.16,1.467 5.512,-0.342 1.877,-2.512 0.088,-7.876 -1.532,-10.161 -0.141,-0.197 -2.686,-3.031 -2.714,-2.982 0,0 -0.027,0.047 -0.033,0.058 -0.277,-0.849 -0.582,-1.756 -0.936,-2.741 -0.668,-1.812 -1.438,-3.854 -2.428,-6.02 -0.983,-2.167 -2.111,-4.494 -3.521,-6.838 -1.411,-2.35 -3.014,-4.751 -4.986,-7.011 -0.023,-0.026 -0.049,-0.049 -0.072,-0.074 0.783,0.481 3.015,1.755 3.198,1.834 2.572,1.105 8.193,1.728 10.255,-0.634 1.484,-1.703 0.946,-4.208 -0.823,-5.461 -1.806,-1.28 -4.521,-1.029 -6.515,-0.397 -2.248,0.713 -6.046,4.14 -6.347,4.413 -1.897,-2.135 -4.019,-4.171 -6.278,-6.115 -1.291,-1.112 -2.626,-2.193 -3.978,-3.259 0.69,0.395 1.309,0.744 1.401,0.783 2.573,1.105 8.193,1.727 10.254,-0.635 1.486,-1.702 0.947,-4.208 -0.822,-5.461 -1.806,-1.279 -4.521,-1.028 -6.515,-0.396 -2.022,0.642 -5.319,3.497 -6.18,4.265 -0.524,-0.403 -1.041,-0.812 -1.566,-1.214 -2.515,-1.927 -5.036,-3.839 -7.448,-5.79 -0.851,-0.687 -1.664,-1.395 -2.48,-2.1 0.613,0.349 1.132,0.639 1.215,0.675 2.574,1.106 8.195,1.729 10.255,-0.634 1.486,-1.703 0.947,-4.208 -0.822,-5.461 -1.806,-1.28 -4.521,-1.028 -6.515,-0.396 -1.93,0.612 -4.996,3.221 -6.025,4.128 -0.812,-0.748 -1.63,-1.495 -2.384,-2.256 -0.504,-0.532 -1.025,-1.009 -1.501,-1.57 -0.483,-0.546 -0.962,-1.087 -1.435,-1.622 -0.874,-1.066 -1.782,-2.159 -2.609,-3.22 -0.581,-0.732 -1.121,-1.442 -1.666,-2.155 0.839,0.694 2.51,2.017 2.662,2.112 2.375,1.483 7.837,2.95 10.233,0.927 1.725,-1.458 1.573,-4.016 0.015,-5.523 -1.592,-1.538 -4.314,-1.701 -6.38,-1.378 -2.275,0.356 -6.393,3.038 -6.905,3.376 -0.898,-1.183 -1.761,-2.342 -2.558,-3.449 -2.772,-3.83 -4.935,-7.126 -6.413,-9.45 -0.053,-0.083 -0.1,-0.157 -0.151,-0.237 l -1.919,0.931 c 0.1,0.15 0.196,0.296 0.303,0.455 1.548,2.32 3.804,5.599 6.686,9.406 0.907,1.205 1.901,2.474 2.934,3.768 -0.265,0.291 -1.768,1.955 -2.976,3.686 -2.204,-0.862 -6.791,-0.898 -7.383,-0.898 -0.098,-1.482 -0.178,-2.925 -0.232,-4.288 -0.198,-4.723 -0.184,-8.666 -0.135,-11.42 0.002,-0.113 0.004,-0.214 0.005,-0.322 l -2.108,1.024 c 0.021,2.737 0.104,6.438 0.383,10.815 0.093,1.506 0.221,3.113 0.369,4.763 -0.584,0.146 -5.354,1.371 -7.156,2.81 -1.634,1.305 -3.353,3.422 -3.294,5.635 0.057,2.167 1.841,4.008 4.081,3.72 3.11,-0.4 5.719,-5.417 6.23,-8.17 0.031,-0.162 0.161,-1.961 0.225,-3.097 0.064,0.673 0.119,1.328 0.193,2.021 0.138,1.37 0.316,2.733 0.502,4.201 0.115,0.706 0.231,1.419 0.348,2.138 0.101,0.716 0.298,1.46 0.445,2.198 0.378,1.703 0.843,3.411 1.35,5.122 -1.199,0.123 -5.454,0.623 -7.275,1.671 -1.813,1.043 -3.833,2.875 -4.109,5.071 -0.271,2.15 1.212,4.24 3.471,4.295 3.135,0.076 6.472,-4.488 7.395,-7.132 0.058,-0.165 0.507,-2.137 0.733,-3.224 0.313,1.026 0.62,2.051 0.97,3.079 1.01,2.964 2.125,5.935 3.224,8.903 0.337,0.909 0.662,1.819 0.991,2.728 -0.427,0.04 -5.497,0.526 -7.537,1.699 -1.812,1.042 -3.832,2.874 -4.109,5.07 -0.271,2.151 1.213,4.241 3.47,4.295 3.135,0.077 6.474,-4.488 7.397,-7.131 0.069,-0.199 0.712,-3.037 0.84,-3.767 0.722,2.003 1.426,4.007 2.037,6.009 0.849,2.763 1.528,5.52 1.99,8.239 -0.199,0.019 -5.492,0.501 -7.582,1.703 -1.812,1.043 -3.832,2.875 -4.109,5.071 -0.271,2.15 1.212,4.24 3.47,4.295 3.135,0.076 6.473,-4.488 7.396,-7.132 0.061,-0.173 0.553,-2.334 0.762,-3.368 0.098,0.003 0.081,0.003 0.179,0.005 0.459,2.92 0.535,5.805 0.475,8.51 -0.033,1.567 -0.151,3.063 -0.3,4.515 -0.995,-0.011 -5.543,-0.012 -7.543,0.862 -1.916,0.837 -4.125,2.436 -4.641,4.588 -0.505,2.108 0.739,4.349 2.978,4.651 3.108,0.421 6.926,-3.75 8.134,-6.276 0.065,-0.138 0.579,-1.608 0.937,-2.684 -0.077,0.654 -0.143,1.331 -0.229,1.957 -0.318,2.35 -0.753,4.482 -1.154,6.367 -0.238,1.07 -0.473,2.033 -0.703,2.932 -0.982,0.499 -4.915,2.557 -6.262,4.223 -1.315,1.626 -2.538,4.063 -2.005,6.212 C -4.263,-0.652 -2.126,0.763 0,0"
             style="fill:#aaff00;fill-opacity:1;fill-rule:nonzero;stroke:none"
             id="path80" />
        </g>
        <g
           id="g82"
           transform="translate(425.5508,247.5811)">
          <path
             d="M 0,0 C -2.453,0.098 -7.351,2.612 -7.354,2.614 -7.405,2.641 -4.717,5.339 -4.528,5.491 -2.339,7.236 2.918,9.321 5.53,7.586 7.412,6.337 7.554,3.778 6.179,2.103 4.775,0.391 2.09,-0.083 0,0"
             style="fill:#aaff00;fill-opacity:1;fill-rule:nonzero;stroke:none"
             id="path84" />
        </g>
        <g
           id="g86">
          <g
             id="g88" />
          <g
             id="g108">
            <g
               clip-path="url(#clipPath92)"
               opacity="0.5"
               id="g106">
              <g
                 transform="translate(374.9375,270.7979)"
                 id="g96">
                <path
                   d="m 0,0 c -0.057,-0.006 0.697,3.728 0.771,3.958 0.864,2.663 4.098,7.303 7.234,7.297 2.259,-0.004 3.788,-2.06 3.566,-4.216 C 11.344,4.837 9.366,2.96 7.577,1.876 5.477,0.605 0.005,0 0,0"
                   style="fill:#ffffff;fill-opacity:1;fill-rule:nonzero;stroke:none"
                   id="path94" />
              </g>
              <g
                 transform="translate(368.8662,295.9141)"
                 id="g100">
                <path
                   d="M 0,0 C 2.952,-1.06 4.419,-6.521 4.327,-9.319 4.319,-9.562 3.761,-13.33 3.709,-13.304 l -0.06,0.03 c 0.239,-0.86 0.484,-1.786 0.732,-2.802 0.443,-1.88 0.927,-4.008 1.297,-6.361 0.375,-2.349 0.718,-4.913 0.834,-7.646 0.121,-2.738 0.107,-5.625 -0.29,-8.598 -0.005,-0.033 -0.014,-0.068 -0.019,-0.102 0.387,0.834 1.545,3.128 1.654,3.294 1.537,2.341 5.88,5.962 8.904,5.128 2.177,-0.6 3.11,-2.988 2.326,-5.008 -0.8,-2.064 -3.203,-3.352 -5.215,-3.924 -2.268,-0.646 -7.325,0.117 -7.727,0.179 -0.406,-2.828 -1.051,-5.697 -1.865,-8.565 -0.463,-1.639 -0.98,-3.277 -1.519,-4.912 0.357,0.71 0.681,1.342 0.737,1.425 1.536,2.342 5.88,5.962 8.903,5.128 2.178,-0.6 3.111,-2.987 2.327,-5.008 -0.8,-2.063 -3.204,-3.351 -5.215,-3.925 -2.041,-0.58 -6.367,-0.016 -7.508,0.148 -0.214,-0.625 -0.42,-1.251 -0.637,-1.875 -1.035,-2.996 -2.082,-5.981 -3.018,-8.94 -0.331,-1.042 -0.618,-2.081 -0.91,-3.119 0.319,0.63 0.592,1.158 0.642,1.234 1.536,2.341 5.88,5.961 8.903,5.128 2.178,-0.6 3.111,-2.988 2.327,-5.008 -0.8,-2.064 -3.205,-3.352 -5.215,-3.924 -1.949,-0.555 -5.945,-0.07 -7.303,0.119 -0.266,-1.072 -0.534,-2.146 -0.744,-3.197 -0.127,-0.721 -0.299,-1.407 -0.386,-2.138 -0.101,-0.722 -0.202,-1.436 -0.302,-2.145 -0.141,-1.371 -0.296,-2.784 -0.4,-4.125 -0.08,-0.931 -0.139,-1.82 -0.2,-2.715 0.316,1.041 0.98,3.067 1.054,3.23 0.774,1.693 2.688,4.124 4.799,5.462 0.113,0.251 0.246,0.49 0.405,0.717 1.244,1.774 3.746,2.326 5.457,0.85 2.373,-2.048 1.78,-7.672 0.688,-10.251 -0.064,-0.152 -0.947,-1.724 -1.52,-2.708 0.424,0.527 0.831,1.043 1.275,1.58 0.871,1.067 1.771,2.106 2.736,3.228 0.485,0.524 0.975,1.055 1.47,1.591 0.478,0.542 1.055,1.053 1.584,1.587 1.255,1.213 2.585,2.381 3.951,3.527 -0.932,0.766 -4.205,3.529 -5.145,5.407 -0.938,1.87 -1.612,4.512 -0.63,6.496 0.96,1.944 3.349,2.869 5.263,1.668 2.658,-1.665 2.923,-7.314 2.235,-10.028 -0.043,-0.169 -0.756,-2.06 -1.168,-3.093 0.827,0.683 1.648,1.369 2.508,2.033 2.478,1.916 5.047,3.778 7.6,5.647 0.783,0.572 1.556,1.152 2.332,1.73 -0.335,0.268 -4.295,3.469 -5.349,5.573 -0.937,1.87 -1.611,4.512 -0.63,6.497 0.96,1.942 3.35,2.868 5.264,1.668 2.657,-1.666 2.922,-7.316 2.235,-10.029 -0.053,-0.205 -1.082,-2.925 -1.378,-3.605 1.709,1.272 3.399,2.556 5.015,3.888 2.232,1.836 4.32,3.76 6.205,5.775 -0.157,0.124 -4.305,3.447 -5.385,5.602 -0.937,1.869 -1.611,4.511 -0.63,6.496 0.96,1.943 3.351,2.868 5.265,1.668 2.656,-1.665 2.921,-7.314 2.234,-10.029 -0.046,-0.177 -0.828,-2.253 -1.224,-3.23 0.083,-0.052 0.069,-0.042 0.152,-0.095 1.994,2.183 3.65,4.548 5.091,6.838 0.837,1.324 1.564,2.638 2.241,3.931 -0.836,0.539 -4.63,3.048 -5.816,4.88 -1.136,1.755 -2.096,4.307 -1.34,6.387 0.742,2.037 3.016,3.22 5.05,2.237 2.823,-1.364 3.708,-6.95 3.322,-9.723 -0.021,-0.151 -0.404,-1.66 -0.699,-2.756 0.297,0.589 0.615,1.19 0.888,1.76 1.031,2.135 1.845,4.154 2.55,5.947 0.392,1.024 0.727,1.957 1.032,2.833 -0.544,0.957 -2.688,4.844 -2.894,6.977 -0.2,2.081 0.124,4.789 1.755,6.287 1.596,1.466 4.16,1.467 5.512,-0.342 1.877,-2.512 0.088,-7.876 -1.532,-10.161 -0.141,-0.197 -2.686,-3.031 -2.714,-2.982 0,0 -0.027,0.047 -0.033,0.058 -0.277,-0.849 -0.582,-1.756 -0.936,-2.741 -0.668,-1.812 -1.438,-3.854 -2.428,-6.02 -0.983,-2.167 -2.111,-4.494 -3.521,-6.838 -1.411,-2.35 -3.014,-4.751 -4.986,-7.011 -0.023,-0.026 -0.049,-0.049 -0.072,-0.074 0.783,0.481 3.015,1.755 3.198,1.834 2.572,1.105 8.193,1.728 10.255,-0.634 1.484,-1.703 0.946,-4.208 -0.823,-5.461 -1.806,-1.28 -4.521,-1.029 -6.515,-0.397 -2.248,0.713 -6.046,4.14 -6.347,4.413 -1.897,-2.135 -4.019,-4.171 -6.278,-6.115 -1.291,-1.112 -2.626,-2.193 -3.978,-3.259 0.69,0.395 1.309,0.744 1.401,0.783 2.573,1.105 8.193,1.727 10.254,-0.635 1.486,-1.702 0.947,-4.208 -0.822,-5.461 -1.806,-1.279 -4.521,-1.028 -6.515,-0.396 -2.022,0.642 -5.319,3.497 -6.18,4.265 -0.524,-0.403 -1.041,-0.812 -1.566,-1.214 -2.515,-1.927 -5.036,-3.839 -7.448,-5.79 -0.851,-0.687 -1.664,-1.395 -2.48,-2.1 0.613,0.349 1.132,0.639 1.215,0.675 2.574,1.106 8.195,1.729 10.255,-0.634 1.486,-1.703 0.947,-4.208 -0.822,-5.461 -1.806,-1.28 -4.521,-1.028 -6.515,-0.396 -1.93,0.612 -4.996,3.221 -6.025,4.128 -0.812,-0.748 -1.63,-1.495 -2.384,-2.256 -0.504,-0.532 -1.025,-1.009 -1.501,-1.57 -0.483,-0.546 -0.962,-1.087 -1.435,-1.622 -0.874,-1.066 -1.782,-2.159 -2.609,-3.22 -0.581,-0.732 -1.121,-1.442 -1.666,-2.155 0.839,0.694 2.51,2.017 2.662,2.112 2.375,1.483 7.837,2.95 10.233,0.927 1.725,-1.458 1.573,-4.016 0.015,-5.523 -1.592,-1.538 -4.314,-1.701 -6.38,-1.378 -2.275,0.356 -6.393,3.038 -6.905,3.376 -0.898,-1.183 -1.761,-2.342 -2.558,-3.449 -2.772,-3.83 -4.935,-7.126 -6.413,-9.45 -0.053,-0.083 -0.1,-0.157 -0.151,-0.237 l -1.919,0.931 c 0.1,0.15 0.196,0.296 0.303,0.455 1.548,2.32 3.804,5.599 6.686,9.406 0.907,1.205 1.901,2.474 2.934,3.768 -0.265,0.291 -1.768,1.955 -2.976,3.686 -2.204,-0.862 -6.791,-0.898 -7.383,-0.898 -0.098,-1.482 -0.178,-2.925 -0.232,-4.288 -0.198,-4.723 -0.184,-8.666 -0.135,-11.42 0.002,-0.113 0.004,-0.214 0.005,-0.322 l -2.108,1.024 c 0.021,2.737 0.104,6.438 0.383,10.815 0.093,1.506 0.221,3.113 0.369,4.763 -0.584,0.146 -5.354,1.371 -7.156,2.81 -1.634,1.305 -3.353,3.422 -3.294,5.635 0.057,2.167 1.841,4.008 4.081,3.72 3.11,-0.4 5.719,-5.417 6.23,-8.17 0.031,-0.162 0.161,-1.961 0.225,-3.097 0.064,0.673 0.119,1.328 0.193,2.021 0.138,1.37 0.316,2.733 0.502,4.201 0.115,0.706 0.231,1.419 0.348,2.138 0.101,0.716 0.298,1.46 0.445,2.198 0.378,1.703 0.843,3.411 1.35,5.122 -1.199,0.123 -5.454,0.623 -7.275,1.671 -1.813,1.043 -3.833,2.875 -4.109,5.071 -0.271,2.15 1.212,4.24 3.471,4.295 3.135,0.076 6.472,-4.488 7.395,-7.132 0.058,-0.165 0.507,-2.137 0.733,-3.224 0.313,1.026 0.62,2.051 0.97,3.079 1.01,2.964 2.125,5.935 3.224,8.903 0.337,0.909 0.662,1.819 0.991,2.728 -0.427,0.04 -5.497,0.526 -7.537,1.699 -1.812,1.042 -3.832,2.874 -4.109,5.07 -0.271,2.151 1.213,4.241 3.47,4.295 3.135,0.077 6.474,-4.488 7.397,-7.131 0.069,-0.199 0.712,-3.037 0.84,-3.767 0.722,2.003 1.426,4.007 2.037,6.009 0.849,2.763 1.528,5.52 1.99,8.239 -0.199,0.019 -5.492,0.501 -7.582,1.703 -1.812,1.043 -3.832,2.875 -4.109,5.071 -0.271,2.15 1.212,4.24 3.47,4.295 3.135,0.076 6.473,-4.488 7.396,-7.132 0.061,-0.173 0.553,-2.334 0.762,-3.368 0.098,0.003 0.081,0.003 0.179,0.005 0.459,2.92 0.535,5.805 0.475,8.51 -0.033,1.567 -0.151,3.063 -0.3,4.515 -0.995,-0.011 -5.543,-0.012 -7.543,0.862 -1.916,0.837 -4.125,2.436 -4.641,4.588 -0.505,2.108 0.739,4.349 2.978,4.651 3.108,0.421 6.926,-3.75 8.134,-6.276 0.065,-0.138 0.579,-1.608 0.937,-2.684 -0.077,0.654 -0.143,1.331 -0.229,1.957 -0.318,2.35 -0.753,4.482 -1.154,6.367 -0.238,1.07 -0.473,2.033 -0.703,2.932 -0.982,0.499 -4.915,2.557 -6.262,4.223 -1.315,1.626 -2.538,4.063 -2.005,6.212 C -4.263,-0.652 -2.126,0.763 0,0"
                   style="fill:#ffffff;fill-opacity:1;fill-rule:nonzero;stroke:none"
                   id="path98" />
              </g>
              <g
                 transform="translate(425.5508,247.5811)"
                 id="g104">
                <path
                   d="M 0,0 C -2.453,0.098 -7.351,2.612 -7.354,2.614 -7.405,2.641 -4.717,5.339 -4.528,5.491 -2.339,7.236 2.918,9.321 5.53,7.586 7.412,6.337 7.554,3.778 6.179,2.103 4.775,0.391 2.09,-0.083 0,0"
                   style="fill:#ffffff;fill-opacity:1;fill-rule:nonzero;stroke:none"
                   id="path102" />
              </g>
            </g>
          </g>
        </g>
        <g
           id="g110"
           transform="translate(396.9395,186.2236)">
          <path
             d="m 0,0 c 0,0 -14.865,35.843 -23.19,34.284 -8.325,-1.558 14.27,-57.139 14.27,-57.139 0,0 -26.162,49.347 -44.001,49.347 -17.839,0 6.541,-54.542 29.136,-72.722 0,0 -35.677,38.439 -56.488,30.127 -20.812,-8.311 41.623,-47.27 41.623,-47.27 0,0 -36.272,11.429 -32.11,2.598 4.163,-8.831 15.46,-10.39 15.46,-10.39 l -41.028,-2.077 H 46.38 l -32.109,3.116 c 0,0 33.298,16.623 24.378,23.376 -8.919,6.753 -28.541,-7.792 -28.541,-7.792 0,0 33.893,37.4 27.353,51.426 C 30.92,10.909 1.783,-28.569 1.783,-28.569 c 0,0 23.785,50.386 19.029,59.217 C 16.055,39.479 0,0 0,0"
             style="fill:#aaff00;fill-opacity:1;fill-rule:nonzero;stroke:none"
             id="path112" />
        </g>
        <g
           id="g114">
          <g
             id="g116" />
          <g
             id="g128">
            <g
               clip-path="url(#clipPath120)"
               opacity="0.399994"
               id="g126">
              <g
                 transform="translate(396.9395,186.2236)"
                 id="g124">
                <path
                   d="m 0,0 c 0,0 -14.865,35.843 -23.19,34.284 -8.325,-1.558 14.27,-57.139 14.27,-57.139 0,0 -26.162,49.347 -44.001,49.347 -17.839,0 6.541,-54.542 29.136,-72.722 0,0 -35.677,38.439 -56.488,30.127 -20.812,-8.311 41.623,-47.27 41.623,-47.27 0,0 -36.272,11.429 -32.11,2.598 4.163,-8.831 15.46,-10.39 15.46,-10.39 l -41.028,-2.077 H 46.38 l -32.109,3.116 c 0,0 33.298,16.623 24.378,23.376 -8.919,6.753 -28.541,-7.792 -28.541,-7.792 0,0 33.893,37.4 27.353,51.426 C 30.92,10.909 1.783,-28.569 1.783,-28.569 c 0,0 23.785,50.386 19.029,59.217 C 16.055,39.479 0,0 0,0"
                   style="fill:#ffffff;fill-opacity:1;fill-rule:nonzero;stroke:none"
                   id="path122" />
              </g>
            </g>
          </g>
        </g>
        <g
           id="g130"
           transform="translate(401.6963,184.335)">
          <path
             d="m 0,0 c -13.082,-38.649 -13.082,-66.002 -13.082,-66.002 0,0 15.46,-0.595 31.515,11.298"
             style="fill:none;stroke:#1a2e35;stroke-width:1;stroke-linecap:round;stroke-linejoin:round;stroke-miterlimit:10;stroke-dasharray:none;stroke-opacity:1"
             id="path132" />
        </g>
        <g
           id="g134"
           transform="translate(395.1553,163.5234)">
          <path
             d="M 0,0 C 0,0 -2.973,14.271 -10.703,33.894"
             style="fill:none;stroke:#1a2e35;stroke-width:1;stroke-linecap:round;stroke-linejoin:round;stroke-miterlimit:10;stroke-dasharray:none;stroke-opacity:1"
             id="path136" />
        </g>
        <g
           id="g138"
           transform="translate(356.5059,186.1191)">
          <path
             d="m 0,0 33.298,-49.354 c 0,0 22.596,19.029 30.325,29.732"
             style="fill:none;stroke:#1a2e35;stroke-width:1;stroke-linecap:round;stroke-linejoin:round;stroke-miterlimit:10;stroke-dasharray:none;stroke-opacity:1"
             id="path140" />
        </g>
        <g
           id="g142"
           transform="translate(389.209,124.874)">
          <path
             d="M 0,0 C 0,0 -35.082,16.648 -49.353,26.163"
             style="fill:none;stroke:#1a2e35;stroke-width:1;stroke-linecap:round;stroke-linejoin:round;stroke-miterlimit:10;stroke-dasharray:none;stroke-opacity:1"
             id="path144" />
        </g>
      </g>
    </g>
    <g
       id="g146">
      <g
         id="g148"
         clip-path="url(#clipPath152)">
        <g
           id="g154"
           transform="translate(357.7236,112.9814)">
          <path
             d="m 0,0 h -106.843 c -4.372,0 -7.917,3.544 -7.917,7.916 v 262.186 c 0,4.372 3.545,7.917 7.917,7.917 H 0 c 4.372,0 7.917,-3.545 7.917,-7.917 V 7.916 C 7.917,3.544 4.372,0 0,0"
             style="fill:#ffffff;fill-opacity:1;fill-rule:nonzero;stroke:none"
             id="path156" />
        </g>
        <g
           id="g158"
           transform="translate(357.7236,112.9814)">
          <path
             d="m 0,0 h -106.843 c -4.372,0 -7.917,3.544 -7.917,7.916 v 262.186 c 0,4.372 3.545,7.917 7.917,7.917 H 0 c 4.372,0 7.917,-3.545 7.917,-7.917 V 7.916 C 7.917,3.544 4.372,0 0,0 Z"
             style="fill:none;stroke:#1a2e35;stroke-width:1;stroke-linecap:round;stroke-linejoin:round;stroke-miterlimit:10;stroke-dasharray:none;stroke-opacity:1"
             id="path160" />
        </g>
        <g
           id="g162"
           transform="translate(361.543,342.3296)">
          <path
             d="M 0,0 C -0.901,0 -1.633,0.731 -1.633,1.633 V 23.48 c 0,0.902 0.732,1.633 1.633,1.633 0.901,0 1.633,-0.731 1.633,-1.633 V 1.633 C 1.633,0.731 0.901,0 0,0"
             style="fill:#1a2e35;fill-opacity:1;fill-rule:nonzero;stroke:none"
             id="path164" />
        </g>
        <g
           id="g166"
           transform="translate(361.543,322.0889)">
          <path
             d="m 0,0 c -0.901,0 -1.633,0.731 -1.633,1.633 v 12.209 c 0,0.902 0.732,1.633 1.633,1.633 0.901,0 1.633,-0.731 1.633,-1.633 V 1.633 C 1.633,0.731 0.901,0 0,0"
             style="fill:#1a2e35;fill-opacity:1;fill-rule:nonzero;stroke:none"
             id="path168" />
        </g>
        <g
           id="g170"
           transform="translate(348.4687,112.9814)">
          <path
             d="m 0,0 h -106.844 c -4.372,0 -7.916,3.544 -7.916,7.916 v 262.186 c 0,4.372 3.544,7.917 7.916,7.917 H 0 c 4.372,0 7.916,-3.545 7.916,-7.917 V 7.916 C 7.916,3.544 4.372,0 0,0"
             style="fill:#1a2e35;fill-opacity:1;fill-rule:nonzero;stroke:none"
             id="path172" />
        </g>
        <g
           id="g174"
           transform="translate(348.4687,112.9814)">
          <path
             d="m 0,0 h -106.844 c -4.372,0 -7.916,3.544 -7.916,7.916 v 262.186 c 0,4.372 3.544,7.917 7.916,7.917 H 0 c 4.372,0 7.916,-3.545 7.916,-7.917 V 7.916 C 7.916,3.544 4.372,0 0,0 Z"
             style="fill:none;stroke:#1a2e35;stroke-width:1;stroke-linecap:round;stroke-linejoin:round;stroke-miterlimit:10;stroke-dasharray:none;stroke-opacity:1"
             id="path176" />
        </g>
        <path
           d="M 348.218,134.032 H 241.877 V 372.49 h 106.341 z"
           style="fill:#aaff00;fill-opacity:1;fill-rule:nonzero;stroke:none"
           id="path178" />
        <g
           id="g180"
           transform="translate(279.2588,380.1113)">
          <path
             d="M 0,0 H 28.31"
             style="fill:none;stroke:#ffffff;stroke-width:3;stroke-linecap:round;stroke-linejoin:round;stroke-miterlimit:10;stroke-dasharray:none;stroke-opacity:1"
             id="path182" />
        </g>
        <g
           id="g184"
           transform="translate(291.2363,125.5938)">
          <path
             d="m 0,0 c 0,-1.954 -1.219,-3.539 -2.723,-3.539 -1.503,0 -2.721,1.585 -2.721,3.539 0,1.954 1.218,3.539 2.721,3.539 C -1.219,3.539 0,1.954 0,0"
             style="fill:#ffffff;fill-opacity:1;fill-rule:nonzero;stroke:none"
             id="path186" />
        </g>
        <g
           id="g188"
           transform="translate(313.4893,334.6523)">
          <path
             d="m 0,0 c 0,-11.877 -8.257,-21.505 -18.442,-21.505 -10.186,0 -18.443,9.628 -18.443,21.505 0,11.876 8.257,21.504 18.443,21.504 C -8.257,21.504 0,11.876 0,0"
             style="fill:#ffffff;fill-opacity:1;fill-rule:nonzero;stroke:none"
             id="path190" />
        </g>
        <g
           id="g192"
           transform="translate(302.0498,343.0908)">
          <path
             d="m 0,0 c 0,4.51 -3.135,8.167 -7.003,8.167 -3.868,0 -7.004,-3.657 -7.004,-8.167 0,-4.51 3.136,-8.167 7.004,-8.167 C -3.135,-8.167 0,-4.51 0,0"
             style="fill:#1a2e35;fill-opacity:1;fill-rule:nonzero;stroke:none"
             id="path194" />
        </g>
        <g
           id="g196"
           transform="translate(302.0498,343.0908)">
          <path
             d="m 0,0 c 0,4.51 -3.135,8.167 -7.003,8.167 -3.868,0 -7.004,-3.657 -7.004,-8.167 0,-4.51 3.136,-8.167 7.004,-8.167 C -3.135,-8.167 0,-4.51 0,0 Z"
             style="fill:none;stroke:#1a2e35;stroke-width:1;stroke-linecap:round;stroke-linejoin:round;stroke-miterlimit:10;stroke-dasharray:none;stroke-opacity:1"
             id="path198" />
        </g>
        <g
           id="g200"
           transform="translate(295.0469,332.7466)">
          <path
             d="m 0,0 c -7.026,0 -12.723,-5.362 -12.723,-11.977 0,-0.626 0.067,-1.235 0.164,-1.835 3.294,-3.58 7.701,-5.787 12.559,-5.787 4.858,0 9.265,2.207 12.559,5.787 0.097,0.6 0.164,1.209 0.164,1.835 C 12.723,-5.362 7.026,0 0,0"
             style="fill:#1a2e35;fill-opacity:1;fill-rule:nonzero;stroke:none"
             id="path202" />
        </g>
        <g
           id="g204"
           transform="translate(295.0469,332.7466)">
          <path
             d="m 0,0 c -7.026,0 -12.723,-5.362 -12.723,-11.977 0,-0.626 0.067,-1.235 0.164,-1.835 3.294,-3.58 7.701,-5.787 12.559,-5.787 4.858,0 9.265,2.207 12.559,5.787 0.097,0.6 0.164,1.209 0.164,1.835 C 12.723,-5.362 7.026,0 0,0 Z"
             style="fill:none;stroke:#1a2e35;stroke-width:1;stroke-linecap:round;stroke-linejoin:round;stroke-miterlimit:10;stroke-dasharray:none;stroke-opacity:1"
             id="path206" />
        </g>
        <g
           id="g208"
           transform="translate(276.9189,250.3198)">
          <path
             d="M 0,0 H 36.256 V 23.007 C 36.256,33.833 28.124,42.64 18.128,42.64 8.132,42.64 0,33.833 0,23.007 Z M 40.55,-9.299 H -4.294 c -2.371,0 -4.293,2.081 -4.293,4.649 v 27.657 c 0,15.953 11.983,28.932 26.715,28.932 14.73,0 26.715,-12.979 26.715,-28.932 V -4.65 c 0,-2.568 -1.922,-4.649 -4.293,-4.649"
             style="fill:#1a2e35;fill-opacity:1;fill-rule:nonzero;stroke:none"
             id="path210" />
        </g>
        <path
           d="m 326.175,200.996 h -62.256 v 58.898 h 62.256 z"
           style="fill:#ffffff;fill-opacity:1;fill-rule:nonzero;stroke:none"
           id="path212" />
        <g
           id="g214"
           transform="translate(304.1191,219.3359)">
          <path
             d="m 0,0 -4.617,11.109 c 1.958,1.441 3.244,3.871 3.244,6.628 0,4.422 -3.311,8.008 -7.394,8.008 -4.084,0 -7.394,-3.586 -7.394,-8.008 0,-2.757 1.286,-5.187 3.244,-6.628 L -17.534,0 Z"
             style="fill:#1a2e35;fill-opacity:1;fill-rule:nonzero;stroke:none"
             id="path216" />
        </g>
        <g
           id="g218"
           transform="translate(304.1191,219.3359)">
          <path
             d="m 0,0 -4.617,11.109 c 1.958,1.441 3.244,3.871 3.244,6.628 0,4.422 -3.311,8.008 -7.394,8.008 -4.084,0 -7.394,-3.586 -7.394,-8.008 0,-2.757 1.286,-5.187 3.244,-6.628 L -17.534,0 Z"
             style="fill:none;stroke:#1a2e35;stroke-width:1;stroke-linecap:round;stroke-linejoin:round;stroke-miterlimit:10;stroke-dasharray:none;stroke-opacity:1"
             id="path220" />
        </g>
        <g
           id="g222"
           transform="translate(276.083,148.0586)">
          <path
             d="m 0,0 c 0.098,-0.071 0.21,-0.105 0.322,-0.105 0.167,0 0.332,0.077 0.44,0.222 L 72.135,97.21 v 1.84 L -0.116,0.762 C -0.294,0.519 -0.242,0.179 0,0"
             style="fill:#ffffff;fill-opacity:1;fill-rule:nonzero;stroke:none"
             id="path224" />
        </g>
        <g
           id="g226"
           transform="translate(333.8604,337.5142)">
          <path
             d="m 0,0 c -0.178,-0.243 -0.125,-0.583 0.117,-0.761 0.097,-0.072 0.209,-0.106 0.322,-0.106 0.167,0 0.332,0.077 0.439,0.221 l 13.479,18.335 v 1.841 z"
             style="fill:#ffffff;fill-opacity:1;fill-rule:nonzero;stroke:none"
             id="path228" />
        </g>
        <g
           id="g230"
           transform="translate(241.8765,210.542)">
          <path
             d="m 0,0 88.084,119.827 c 0.178,0.242 0.126,0.583 -0.117,0.761 -0.239,0.177 -0.58,0.127 -0.76,-0.116 L 0,1.84 Z"
             style="fill:#ffffff;fill-opacity:1;fill-rule:nonzero;stroke:none"
             id="path232" />
        </g>
        <g
           id="g234"
           transform="translate(267.7959,136.2412)">
          <path
             d="M 0,0 C 0.167,0 0.332,0.076 0.439,0.222 L 5.402,6.974 C 5.58,7.217 5.528,7.557 5.286,7.735 5.047,7.912 4.705,7.862 4.524,7.618 L -0.439,0.866 C -0.617,0.624 -0.564,0.283 -0.322,0.104 -0.226,0.033 -0.112,0 0,0"
             style="fill:#ffffff;fill-opacity:1;fill-rule:nonzero;stroke:none"
             id="path236" />
        </g>
        <g
           id="g238"
           transform="translate(348.2178,225.8301)">
          <path
             d="m 0,0 -58.594,-79.707 c -0.177,-0.242 -0.126,-0.582 0.117,-0.761 0.097,-0.071 0.209,-0.105 0.323,-0.105 0.166,0 0.331,0.076 0.438,0.221 L 0,-1.839 Z"
             style="fill:#ffffff;fill-opacity:1;fill-rule:nonzero;stroke:none"
             id="path240" />
        </g>
      </g>
    </g>
    <g
       id="g242">
      <g
         id="g244"
         clip-path="url(#clipPath248)">
        <g
           id="g250"
           transform="translate(142.4121,337.8569)">
          <path
             d="m 0,0 c 0,0 1.399,2.579 1.399,7.053 0,4.473 -5.416,7.064 -11.773,7.77 -6.357,0.706 -9.183,-1.884 -8.241,-3.532 0.942,-1.648 3.532,-3.532 3.532,-3.532 0,0 -6.357,3.532 -10.596,0.706 -4.238,-2.825 1.884,-1.648 0.707,-4.473 -1.177,-2.825 -7.771,-1.648 -9.419,-9.183 -1.648,-7.535 3.061,-15.069 -1.177,-18.366 -4.238,-3.296 -16.953,1.178 -20.72,-7.064 -3.768,-8.241 1.559,-11.892 -7.388,-17.072 -8.948,-5.181 -15.452,-10.241 -12.862,-22.955 2.59,-12.715 11.067,-17.189 27.785,-12.715 16.717,4.473 15.54,14.598 20.955,24.958 5.416,10.361 13.892,8.241 16.482,14.128 2.59,5.886 -0.706,12.95 -0.471,18.365 0.236,5.416 5.651,6.594 7.77,12.951 C -1.897,-6.604 0,0 0,0"
             style="fill:#1a2e35;fill-opacity:1;fill-rule:nonzero;stroke:none"
             id="path252" />
        </g>
        <g
           id="g254"
           transform="translate(142.4121,337.8569)">
          <path
             d="m 0,0 c 0,0 1.399,2.579 1.399,7.053 0,4.473 -5.416,7.064 -11.773,7.77 -6.357,0.706 -9.183,-1.884 -8.241,-3.532 0.942,-1.648 3.532,-3.532 3.532,-3.532 0,0 -6.357,3.532 -10.596,0.706 -4.238,-2.825 1.884,-1.648 0.707,-4.473 -1.177,-2.825 -7.771,-1.648 -9.419,-9.183 -1.648,-7.535 3.061,-15.069 -1.177,-18.366 -4.238,-3.296 -16.953,1.178 -20.72,-7.064 -3.768,-8.241 1.559,-11.892 -7.388,-17.072 -8.948,-5.181 -15.452,-10.241 -12.862,-22.955 2.59,-12.715 11.067,-17.189 27.785,-12.715 16.717,4.473 15.54,14.598 20.955,24.958 5.416,10.361 13.892,8.241 16.482,14.128 2.59,5.886 -0.706,12.95 -0.471,18.365 0.236,5.416 5.651,6.594 7.77,12.951 C -1.897,-6.604 0,0 0,0 Z"
             style="fill:none;stroke:#1a2e35;stroke-width:1;stroke-linecap:round;stroke-linejoin:round;stroke-miterlimit:10;stroke-dasharray:none;stroke-opacity:1"
             id="path256" />
        </g>
        <g
           id="g258"
           transform="translate(67.8213,267.3965)">
          <path
             d="M 0,0 C -0.42,-0.841 -0.647,-1.78 -0.647,-2.851"
             style="fill:none;stroke:#ffffff;stroke-width:0.5;stroke-linecap:round;stroke-linejoin:round;stroke-miterlimit:10;stroke-dasharray:none;stroke-opacity:1"
             id="path260" />
        </g>
        <g
           id="g262"
           transform="translate(133.3726,342.5332)">
          <path
             d="M 0,0 C 0,0 -2.947,3.4 2.721,1.813 9.85,-0.183 1.479,-8.43 -1.747,-10.088 c -6.456,-3.32 -15.003,-2.26 -20.017,-8.275 -4.534,-5.441 1.587,-11.109 -1.133,-15.416 -2.721,-4.308 -13.603,-1.814 -17.23,-7.029 -3.627,-5.213 6.574,-16.322 -3.854,-22.443 -7.543,-4.428 -15.797,-6.127 -19.788,-9.645"
             style="fill:none;stroke:#ffffff;stroke-width:0.5;stroke-linecap:round;stroke-linejoin:round;stroke-miterlimit:10;stroke-dasharray:none;stroke-opacity:1"
             id="path264" />
        </g>
        <g
           id="g266"
           transform="translate(116.4585,322.4072)">
          <path
             d="m 0,0 c -0.55,-1.487 -0.884,-3.133 -0.542,-4.585 0.906,-3.854 6.121,-11.109 1.36,-15.189 -4.761,-4.081 -12.922,-3.854 -14.283,-8.616 -1.36,-4.76 1.361,-17.909 -3.174,-24.03 -4.534,-6.122 -13.375,-5.668 -18.136,-9.749 -4.761,-4.081 -4.081,-6.348 -4.081,-6.348"
             style="fill:none;stroke:#ffffff;stroke-width:0.5;stroke-linecap:round;stroke-linejoin:round;stroke-miterlimit:10;stroke-dasharray:none;stroke-opacity:1"
             id="path268" />
        </g>
        <g
           id="g270"
           transform="translate(118.8633,326.8901)">
          <path
             d="M 0,0 C 0,0 -0.527,-0.713 -1.146,-1.807"
             style="fill:none;stroke:#ffffff;stroke-width:0.5;stroke-linecap:round;stroke-linejoin:round;stroke-miterlimit:10;stroke-dasharray:none;stroke-opacity:1"
             id="path272" />
        </g>
        <g
           id="g274"
           transform="translate(145.459,267.7607)">
          <path
             d="m 0,0 1.156,-9.015 c 0,0 6.01,-6.01 10.402,-9.708 4.391,-3.699 15.717,-11.557 15.717,-11.557 l -5.778,-1.618 c 0,0 -18.723,11.094 -22.422,12.019 -3.698,0.925 -6.472,6.241 -7.627,7.859 C -9.708,-10.402 -3.005,1.618 0,0"
             style="fill:#ffffff;fill-opacity:1;fill-rule:nonzero;stroke:none"
             id="path276" />
        </g>
        <g
           id="g278"
           transform="translate(145.459,267.7607)">
          <path
             d="m 0,0 1.156,-9.015 c 0,0 6.01,-6.01 10.402,-9.708 4.391,-3.699 15.717,-11.557 15.717,-11.557 l -5.778,-1.618 c 0,0 -18.723,11.094 -22.422,12.019 -3.698,0.925 -6.472,6.241 -7.627,7.859 C -9.708,-10.402 -3.005,1.618 0,0 Z"
             style="fill:none;stroke:#1a2e35;stroke-width:1;stroke-linecap:round;stroke-linejoin:round;stroke-miterlimit:10;stroke-dasharray:none;stroke-opacity:1"
             id="path280" />
        </g>
        <g
           id="g282"
           transform="translate(156.9033,121.333)">
          <path
             d="m 0,0 c 0,0 5.655,-4.785 7.975,-6.38 2.32,-1.595 5.075,-2.32 4.64,-3.189 -0.435,-0.87 -1.595,-1.741 -7.105,-1.016 -5.51,0.726 -7.105,2.61 -8.12,2.9 -1.015,0.29 -3.48,-0.435 -5.365,0.725 -1.885,1.16 1.105,8.069 1.105,8.069 0,0 2.81,-3.429 6.87,-1.109"
             style="fill:#ffffff;fill-opacity:1;fill-rule:nonzero;stroke:none"
             id="path284" />
        </g>
        <g
           id="g286"
           transform="translate(156.9033,121.333)">
          <path
             d="m 0,0 c 0,0 5.655,-4.785 7.975,-6.38 2.32,-1.595 5.075,-2.32 4.64,-3.189 -0.435,-0.87 -1.595,-1.741 -7.105,-1.016 -5.51,0.726 -7.105,2.61 -8.12,2.9 -1.015,0.29 -3.48,-0.435 -5.365,0.725 -1.885,1.16 1.105,8.069 1.105,8.069 0,0 2.81,-3.429 6.87,-1.109 z"
             style="fill:none;stroke:#1a2e35;stroke-width:1;stroke-linecap:round;stroke-linejoin:round;stroke-miterlimit:10;stroke-dasharray:none;stroke-opacity:1"
             id="path288" />
        </g>
        <g
           id="g290"
           transform="translate(169.5181,111.7637)">
          <path
             d="m 0,0 c 0.022,0.045 0.032,0.09 0.038,0.134 -3.354,-0.454 -6.545,0.211 -9.454,0.895 -3.566,0.839 -4.615,2.727 -7.971,2.727 -1.696,0 -3.014,0.321 -3.906,0.64 0.019,-0.814 0.209,-1.482 0.704,-1.787 1.884,-1.16 4.349,-0.434 5.364,-0.724 1.016,-0.29 2.61,-2.175 8.12,-2.901 C -1.595,-1.74 -0.435,-0.87 0,0"
             style="fill:#ffffff;fill-opacity:1;fill-rule:nonzero;stroke:none"
             id="path292" />
        </g>
        <g
           id="g294"
           transform="translate(169.5181,111.7637)">
          <path
             d="m 0,0 c 0.022,0.045 0.032,0.09 0.038,0.134 -3.354,-0.454 -6.545,0.211 -9.454,0.895 -3.566,0.839 -4.615,2.727 -7.971,2.727 -1.696,0 -3.014,0.321 -3.906,0.64 0.019,-0.814 0.209,-1.482 0.704,-1.787 1.884,-1.16 4.349,-0.434 5.364,-0.724 1.016,-0.29 2.61,-2.175 8.12,-2.901 C -1.595,-1.74 -0.435,-0.87 0,0 Z"
             style="fill:none;stroke:#1a2e35;stroke-width:1;stroke-linecap:round;stroke-linejoin:round;stroke-miterlimit:10;stroke-dasharray:none;stroke-opacity:1"
             id="path296" />
        </g>
        <g
           id="g298"
           transform="translate(127.271,314.5986)">
          <path
             d="m 0,0 c 0,0 1.093,-7.336 -0.312,-10.302 -1.405,-2.966 -5.775,-3.278 -9.522,-3.902 -3.746,-0.625 -12.331,-3.902 -11.395,-12.332 0.937,-8.429 11.708,-26.692 11.708,-31.842 0,-5.152 -3.279,-7.806 -6.869,-17.795 -3.59,-9.99 -3.122,-28.565 -2.029,-40.585 1.093,-12.018 4.683,-23.413 4.683,-23.413 0,0 -9.054,-14.516 -12.956,-20.761 -3.902,-6.244 -17.951,-33.404 -17.951,-33.404 0,0 0,-0.936 2.186,-1.56 2.185,-0.625 4.683,-0.313 4.683,-0.313 0,0 26.848,32.312 31.842,37.774 4.995,5.464 9.678,14.986 10.303,19.356 0.624,4.371 -0.157,31.062 -0.157,31.062 0,0 5.62,-13.423 9.991,-20.292 4.37,-6.868 7.325,-12.955 7.325,-12.955 0,0 -1.082,-9.21 0.011,-17.014 1.092,-7.805 0.17,-32.862 1.263,-34.891 1.092,-2.029 5.315,-1.183 6.252,-0.246 0.936,0.936 1.382,7.04 1.382,7.04 0,0 1.874,19.044 2.966,27.94 1.093,8.898 2.966,16.546 2.341,18.576 -0.624,2.029 -4.526,23.726 -7.492,34.028 -2.966,10.303 -12.019,29.502 -14.048,34.497 -2.03,4.995 -3.122,9.521 -2.81,11.083 0.312,1.56 6.399,10.926 7.96,13.423 1.562,2.498 2.186,7.024 0.313,11.083 -1.874,4.058 0,9.521 -0.313,12.8 -0.312,3.278 -5.15,4.682 -7.648,5.931 -2.498,1.249 -3.434,4.058 -3.434,6.4 0,2.342 1.405,5.619 1.405,5.619 C 9.678,-4.995 2.029,0 0,0"
             style="fill:#ffffff;fill-opacity:1;fill-rule:nonzero;stroke:none"
             id="path300" />
        </g>
        <g
           id="g302"
           transform="translate(127.271,314.5986)">
          <path
             d="m 0,0 c 0,0 1.093,-7.336 -0.312,-10.302 -1.405,-2.966 -5.775,-3.278 -9.522,-3.902 -3.746,-0.625 -12.331,-3.902 -11.395,-12.332 0.937,-8.429 11.708,-26.692 11.708,-31.842 0,-5.152 -3.279,-7.806 -6.869,-17.795 -3.59,-9.99 -3.122,-28.565 -2.029,-40.585 1.093,-12.018 4.683,-23.413 4.683,-23.413 0,0 -9.054,-14.516 -12.956,-20.761 -3.902,-6.244 -17.951,-33.404 -17.951,-33.404 0,0 0,-0.936 2.186,-1.56 2.185,-0.625 4.683,-0.313 4.683,-0.313 0,0 26.848,32.312 31.842,37.774 4.995,5.464 9.678,14.986 10.303,19.356 0.624,4.371 -0.157,31.062 -0.157,31.062 0,0 5.62,-13.423 9.991,-20.292 4.37,-6.868 7.325,-12.955 7.325,-12.955 0,0 -1.082,-9.21 0.011,-17.014 1.092,-7.805 0.17,-32.862 1.263,-34.891 1.092,-2.029 5.315,-1.183 6.252,-0.246 0.936,0.936 1.382,7.04 1.382,7.04 0,0 1.874,19.044 2.966,27.94 1.093,8.898 2.966,16.546 2.341,18.576 -0.624,2.029 -4.526,23.726 -7.492,34.028 -2.966,10.303 -12.019,29.502 -14.048,34.497 -2.03,4.995 -3.122,9.521 -2.81,11.083 0.312,1.56 6.399,10.926 7.96,13.423 1.562,2.498 2.186,7.024 0.313,11.083 -1.874,4.058 0,9.521 -0.313,12.8 -0.312,3.278 -5.15,4.682 -7.648,5.931 -2.498,1.249 -3.434,4.058 -3.434,6.4 0,2.342 1.405,5.619 1.405,5.619 C 9.678,-4.995 2.029,0 0,0 Z"
             style="fill:none;stroke:#1a2e35;stroke-width:1;stroke-linecap:round;stroke-linejoin:round;stroke-miterlimit:10;stroke-dasharray:none;stroke-opacity:1"
             id="path304" />
        </g>
        <g
           id="g306"
           transform="translate(146.186,281.2139)">
          <path
             d="M 0,0 C 0,0 -1.772,4.636 -2.045,6.408"
             style="fill:none;stroke:#1a2e35;stroke-width:1;stroke-linecap:round;stroke-linejoin:round;stroke-miterlimit:10;stroke-dasharray:none;stroke-opacity:1"
             id="path308" />
        </g>
        <g
           id="g310"
           transform="translate(125.9165,263.8335)">
          <path
             d="M 0,0 C 0,0 2.825,-0.628 8.476,2.198"
             style="fill:none;stroke:#1a2e35;stroke-width:1;stroke-linecap:round;stroke-linejoin:round;stroke-miterlimit:10;stroke-dasharray:none;stroke-opacity:1"
             id="path312" />
        </g>
        <g
           id="g314"
           transform="translate(155.5239,208.7676)">
          <path
             d="m 0,0 c -2.834,9.847 -11.225,27.811 -13.734,33.743 -12.029,-4.505 -23.222,-0.656 -28.488,1.82 -0.766,-1.657 -1.584,-3.576 -2.421,-5.905 -3.59,-9.99 -3.122,-28.565 -2.029,-40.584 1.093,-12.019 4.683,-23.414 4.683,-23.414 0,0 -9.053,-14.516 -12.956,-20.761 -3.902,-6.244 -17.951,-33.404 -17.951,-33.404 0,0 0,-0.936 2.186,-1.56 2.185,-0.624 4.683,-0.313 4.683,-0.313 0,0 26.848,32.312 31.842,37.774 4.996,5.464 9.678,14.986 10.303,19.356 0.624,4.371 -0.157,31.063 -0.157,31.063 0,0 5.62,-13.424 9.991,-20.293 4.37,-6.868 7.325,-12.955 7.325,-12.955 0,0 -1.082,-9.21 0.011,-17.014 1.092,-7.805 0.17,-32.862 1.263,-34.891 1.093,-2.029 5.315,-1.183 6.252,-0.246 0.936,0.937 1.382,7.04 1.382,7.04 0,0 1.874,19.044 2.966,27.94 1.093,8.898 2.966,16.546 2.341,18.576 C 6.868,-31.999 2.966,-10.302 0,0"
             style="fill:#1a2e35;fill-opacity:1;fill-rule:nonzero;stroke:none"
             id="path316" />
        </g>
        <g
           id="g318"
           transform="translate(155.5239,208.7676)">
          <path
             d="m 0,0 c -2.834,9.847 -11.225,27.811 -13.734,33.743 -12.029,-4.505 -23.222,-0.656 -28.488,1.82 -0.766,-1.657 -1.584,-3.576 -2.421,-5.905 -3.59,-9.99 -3.122,-28.565 -2.029,-40.584 1.093,-12.019 4.683,-23.414 4.683,-23.414 0,0 -9.053,-14.516 -12.956,-20.761 -3.902,-6.244 -17.951,-33.404 -17.951,-33.404 0,0 0,-0.936 2.186,-1.56 2.185,-0.624 4.683,-0.313 4.683,-0.313 0,0 26.848,32.312 31.842,37.774 4.996,5.464 9.678,14.986 10.303,19.356 0.624,4.371 -0.157,31.063 -0.157,31.063 0,0 5.62,-13.424 9.991,-20.293 4.37,-6.868 7.325,-12.955 7.325,-12.955 0,0 -1.082,-9.21 0.011,-17.014 1.092,-7.805 0.17,-32.862 1.263,-34.891 1.093,-2.029 5.315,-1.183 6.252,-0.246 0.936,0.937 1.382,7.04 1.382,7.04 0,0 1.874,19.044 2.966,27.94 1.093,8.898 2.966,16.546 2.341,18.576 C 6.868,-31.999 2.966,-10.302 0,0 Z"
             style="fill:none;stroke:#1a2e35;stroke-width:1;stroke-linecap:round;stroke-linejoin:round;stroke-miterlimit:10;stroke-dasharray:none;stroke-opacity:1"
             id="path320" />
        </g>
        <g
           id="g322"
           transform="translate(216.6558,218.6816)">
          <path
             d="M 0,0 V 2.043 H 1.716 V 18.059 H 0 -16.874 -18.59 V 2.043 h 1.716 V 0 h -1.719 v -3.718 h 6.589 v 1.249 h 7.134 v -1.249 h 6.589 l 0,3.718 z"
             style="fill:#aaff00;fill-opacity:1;fill-rule:nonzero;stroke:none"
             id="path324" />
        </g>
        <g
           id="g326"
           transform="translate(216.6558,218.6816)">
          <path
             d="M 0,0 V 2.043 H 1.716 V 18.059 H 0 -16.874 -18.59 V 2.043 h 1.716 V 0 h -1.719 v -3.718 h 6.589 v 1.249 h 7.134 v -1.249 h 6.589 l 0,3.718 z"
             style="fill:none;stroke:#1a2e35;stroke-width:1;stroke-linecap:round;stroke-linejoin:round;stroke-miterlimit:10;stroke-dasharray:none;stroke-opacity:1"
             id="path328" />
        </g>
        <g
           id="g330"
           transform="translate(225.3174,234.3809)">
          <path
             d="M 0,0 H -117.761 V 7.149 H 0 c 0.985,0 1.784,-0.798 1.784,-1.784 V 1.784 C 1.784,0.799 0.985,0 0,0"
             style="fill:#aaff00;fill-opacity:1;fill-rule:nonzero;stroke:none"
             id="path332" />
        </g>
        <g
           id="g334"
           transform="translate(225.3174,234.3809)">
          <path
             d="M 0,0 H -117.761 V 7.149 H 0 c 0.985,0 1.784,-0.798 1.784,-1.784 V 1.784 C 1.784,0.799 0.985,0 0,0 Z"
             style="fill:none;stroke:#1a2e35;stroke-width:1;stroke-linecap:round;stroke-linejoin:round;stroke-miterlimit:10;stroke-dasharray:none;stroke-opacity:1"
             id="path336" />
        </g>
        <g
           id="g338"
           transform="translate(192.0874,233.3086)">
          <path
             d="m 0,0 h -7.177 c -0.546,0 -0.988,0.441 -0.988,0.987 v 7.32 c 0,0.546 0.442,0.987 0.988,0.987 H 0 c 0.545,0 0.987,-0.441 0.987,-0.987 V 0.987 C 0.987,0.441 0.545,0 0,0"
             style="fill:#aaff00;fill-opacity:1;fill-rule:nonzero;stroke:none"
             id="path340" />
        </g>
        <g
           id="g342"
           transform="translate(192.0874,233.3086)">
          <path
             d="m 0,0 h -7.177 c -0.546,0 -0.988,0.441 -0.988,0.987 v 7.32 c 0,0.546 0.442,0.987 0.988,0.987 H 0 c 0.545,0 0.987,-0.441 0.987,-0.987 V 0.987 C 0.987,0.441 0.545,0 0,0 Z"
             style="fill:none;stroke:#1a2e35;stroke-width:1;stroke-linecap:round;stroke-linejoin:round;stroke-miterlimit:10;stroke-dasharray:none;stroke-opacity:1"
             id="path344" />
        </g>
        <g
           id="g346"
           transform="translate(111.4883,237.9551)">
          <path
             d="m 0,0 c 0,-10.267 -8.323,-18.589 -18.589,-18.589 -10.267,0 -18.59,8.322 -18.59,18.589 0,10.268 8.323,18.59 18.59,18.59 C -8.323,18.59 0,10.268 0,0"
             style="fill:#aaff00;fill-opacity:1;fill-rule:nonzero;stroke:none"
             id="path348" />
        </g>
        <g
           id="g350"
           transform="translate(111.4883,237.9551)">
          <path
             d="m 0,0 c 0,-10.267 -8.323,-18.589 -18.589,-18.589 -10.267,0 -18.59,8.322 -18.59,18.589 0,10.268 8.323,18.59 18.59,18.59 C -8.323,18.59 0,10.268 0,0 Z"
             style="fill:none;stroke:#1a2e35;stroke-width:1;stroke-linecap:round;stroke-linejoin:round;stroke-miterlimit:10;stroke-dasharray:none;stroke-opacity:1"
             id="path352" />
        </g>
        <g
           id="g354"
           transform="translate(96.7202,237.9551)">
          <path
             d="m 0,0 c 2.204,1.152 3.686,3.264 3.686,5.686 0,3.652 -3.361,6.612 -7.507,6.612 -4.147,0 -7.508,-2.96 -7.508,-6.612 0,-2.422 1.482,-4.534 3.686,-5.686 -2.204,-1.151 -3.686,-3.263 -3.686,-5.685 0,-3.652 3.361,-6.612 7.508,-6.612 4.146,0 7.507,2.96 7.507,6.612 C 3.686,-3.263 2.204,-1.151 0,0"
             style="fill:#ffffff;fill-opacity:1;fill-rule:nonzero;stroke:none"
             id="path356" />
        </g>
        <g
           id="g358"
           transform="translate(96.7202,237.9551)">
          <path
             d="m 0,0 c 2.204,1.152 3.686,3.264 3.686,5.686 0,3.652 -3.361,6.612 -7.507,6.612 -4.147,0 -7.508,-2.96 -7.508,-6.612 0,-2.422 1.482,-4.534 3.686,-5.686 -2.204,-1.151 -3.686,-3.263 -3.686,-5.685 0,-3.652 3.361,-6.612 7.508,-6.612 4.146,0 7.507,2.96 7.507,6.612 C 3.686,-3.263 2.204,-1.151 0,0 Z"
             style="fill:none;stroke:#1a2e35;stroke-width:1;stroke-linecap:round;stroke-linejoin:round;stroke-miterlimit:10;stroke-dasharray:none;stroke-opacity:1"
             id="path360" />
        </g>
        <g
           id="g362"
           transform="translate(169.0645,234.2275)">
          <path
             d="m 0,0 c 0,0 5.811,-2.453 7.619,-2.453 1.808,0 3.874,1.807 4.907,4.003 1.033,2.195 1.033,3.228 0.387,2.712 L 11.622,3.229 c 0,0 1.033,2.195 -0.129,1.936 C 10.331,4.907 9.685,3.616 9.685,3.616 c 0,0 -0.129,1.937 -1.162,1.032 C 7.49,3.745 6.715,2.583 6.715,2.583 c 0,0 -0.129,2.453 -0.775,1.808 C 5.294,3.745 2.841,0.259 2.841,0.259 Z"
             style="fill:#ffffff;fill-opacity:1;fill-rule:nonzero;stroke:none"
             id="path364" />
        </g>
        <g
           id="g366"
           transform="translate(169.0645,234.2275)">
          <path
             d="m 0,0 c 0,0 5.811,-2.453 7.619,-2.453 1.808,0 3.874,1.807 4.907,4.003 1.033,2.195 1.033,3.228 0.387,2.712 L 11.622,3.229 c 0,0 1.033,2.195 -0.129,1.936 C 10.331,4.907 9.685,3.616 9.685,3.616 c 0,0 -0.129,1.937 -1.162,1.032 C 7.49,3.745 6.715,2.583 6.715,2.583 c 0,0 -0.129,2.453 -0.775,1.808 C 5.294,3.745 2.841,0.259 2.841,0.259 Z"
             style="fill:none;stroke:#1a2e35;stroke-width:1;stroke-linecap:round;stroke-linejoin:round;stroke-miterlimit:10;stroke-dasharray:none;stroke-opacity:1"
             id="path368" />
        </g>
        <g
           id="g370"
           transform="translate(175.7793,236.8105)">
          <path
             d="M 0,0 C 0,0 -0.387,-3.1 -2.324,-3.616"
             style="fill:#ffffff;fill-opacity:1;fill-rule:nonzero;stroke:#1a2e35;stroke-width:1;stroke-linecap:round;stroke-linejoin:round;stroke-miterlimit:10;stroke-dasharray:none;stroke-opacity:1"
             id="path372" />
        </g>
        <g
           id="g374"
           transform="translate(178.7495,237.8437)">
          <path
             d="M 0,0 C 0,0 -1.033,-4.907 -2.583,-5.683"
             style="fill:#ffffff;fill-opacity:1;fill-rule:nonzero;stroke:#1a2e35;stroke-width:1;stroke-linecap:round;stroke-linejoin:round;stroke-miterlimit:10;stroke-dasharray:none;stroke-opacity:1"
             id="path376" />
        </g>
        <g
           id="g378"
           transform="translate(180.6865,237.4561)">
          <path
             d="M 0,0 C 0,0 -1.162,-3.874 -2.066,-5.165"
             style="fill:#ffffff;fill-opacity:1;fill-rule:nonzero;stroke:#1a2e35;stroke-width:1;stroke-linecap:round;stroke-linejoin:round;stroke-miterlimit:10;stroke-dasharray:none;stroke-opacity:1"
             id="path380" />
        </g>
        <g
           id="g382"
           transform="translate(138.6562,297.7847)">
          <path
             d="m 0,0 c -2.244,1.325 -3.112,3.967 -3.112,6.2 0,2.342 1.404,5.619 1.404,5.619 0,0 -7.648,4.995 -9.677,4.995 0,0 1.093,-7.336 -0.312,-10.302 -0.447,-0.943 -1.195,-1.616 -2.125,-2.117 1.023,-3.471 5.178,-11.222 7.445,-14.012 C -3.521,-13.132 -2.146,-5.698 0,0"
             style="fill:#ffffff;fill-opacity:1;fill-rule:nonzero;stroke:none"
             id="path384" />
        </g>
        <g
           id="g386"
           transform="translate(138.6562,297.7847)">
          <path
             d="m 0,0 c -2.244,1.325 -3.112,3.967 -3.112,6.2 0,2.342 1.404,5.619 1.404,5.619 0,0 -7.648,4.995 -9.677,4.995 0,0 1.093,-7.336 -0.312,-10.302 -0.447,-0.943 -1.195,-1.616 -2.125,-2.117 1.023,-3.471 5.178,-11.222 7.445,-14.012 C -3.521,-13.132 -2.146,-5.698 0,0 Z"
             style="fill:none;stroke:#1a2e35;stroke-width:1;stroke-linecap:round;stroke-linejoin:round;stroke-miterlimit:10;stroke-dasharray:none;stroke-opacity:1"
             id="path388" />
        </g>
        <g
           id="g390"
           transform="translate(115.0537,299.3833)">
          <path
             d="m 0,0 c 0,0 -5.937,-0.66 -9.016,-6.597 -3.079,-5.938 -16.533,-32.896 -15.387,-34.509 6.54,-9.199 30.332,-15.817 32.751,-18.236 2.419,-2.419 5.507,-5.313 7.926,-6.853 2.419,-1.539 7.257,-0.88 8.137,-0.439 0.88,0.439 1.539,2.419 0,2.419 -1.539,0 -2.328,1.111 -2.548,1.991 -0.219,0.88 2.419,-0.88 3.739,-0.22 1.319,0.659 -2.951,3.067 -4.27,4.166 -1.319,1.1 -2.419,2.64 -4.178,2.64 -1.759,0 -5.065,0.037 -5.065,0.037 0,0 -8.102,5.872 -12.997,10.241 -6.595,5.886 -12.407,9.059 -12.407,9.059 L 1.54,-11.875"
             style="fill:#ffffff;fill-opacity:1;fill-rule:nonzero;stroke:#1a2e35;stroke-width:1;stroke-linecap:round;stroke-linejoin:round;stroke-miterlimit:10;stroke-dasharray:none;stroke-opacity:1"
             id="path392" />
        </g>
        <g
           id="g394"
           transform="translate(136.3857,241.1055)">
          <path
             d="m 0,0 c -1.319,1.1 -2.419,2.64 -4.178,2.64 -1.759,0 -5.065,0.037 -5.065,0.037 0,0 -8.102,5.872 -12.997,10.24 -6.595,5.887 -12.407,9.06 -12.407,9.06 l 5.945,9.774 c -3.9,2.444 -7.999,2.844 -10.067,2.869 -3.956,-8.339 -7.584,-16.579 -6.966,-17.449 6.54,-9.198 30.332,-15.817 32.751,-18.235 2.419,-2.419 5.507,-5.313 7.926,-6.853 2.419,-1.539 7.257,-0.88 8.137,-0.439 0.879,0.439 1.539,2.419 0,2.419 -1.539,0 -2.328,1.111 -2.548,1.991 -0.219,0.88 2.419,-0.88 3.739,-0.22 C 5.589,-3.506 1.319,-1.1 0,0"
             style="fill:#ffffff;fill-opacity:1;fill-rule:nonzero;stroke:none"
             id="path396" />
        </g>
        <g
           id="g398"
           transform="translate(136.3857,241.1055)">
          <path
             d="m 0,0 c -1.319,1.1 -2.419,2.64 -4.178,2.64 -1.759,0 -5.065,0.037 -5.065,0.037 0,0 -8.102,5.872 -12.997,10.24 -6.595,5.887 -12.407,9.06 -12.407,9.06 l 5.945,9.774 c -3.9,2.444 -7.999,2.844 -10.067,2.869 -3.956,-8.339 -7.584,-16.579 -6.966,-17.449 6.54,-9.198 30.332,-15.817 32.751,-18.235 2.419,-2.419 5.507,-5.313 7.926,-6.853 2.419,-1.539 7.257,-0.88 8.137,-0.439 0.879,0.439 1.539,2.419 0,2.419 -1.539,0 -2.328,1.111 -2.548,1.991 -0.219,0.88 2.419,-0.88 3.739,-0.22 C 5.589,-3.506 1.319,-1.1 0,0 Z"
             style="fill:none;stroke:#1a2e35;stroke-width:1;stroke-linecap:round;stroke-linejoin:round;stroke-miterlimit:10;stroke-dasharray:none;stroke-opacity:1"
             id="path400" />
        </g>
        <g
           id="g402"
           transform="translate(144.4414,325.3691)">
          <path
             d="m 0,0 c -0.781,1.561 -0.781,2.81 -0.468,4.995 0.312,2.185 -1.561,7.493 -1.561,7.493 0,0 -0.017,-0.013 -0.029,-0.022 -1.909,-3.309 -7.43,-5.267 -9.878,-6.02 -2.689,-0.828 1.241,-2.69 0.827,-5.172 -0.413,-2.482 -5.792,-3.93 -5.792,-3.93 0,0 -1.538,3.309 -3.724,3.309 -2.185,0 -3.73,-5 -2.481,-7.653 1.248,-2.654 3.906,-2.053 3.906,-2.053 0,0 -0.155,-4.683 2.81,-6.088 2.966,-1.405 7.961,-3.278 9.834,-3.59 1.873,-0.312 3.746,0.625 4.527,3.434 0.78,2.81 1.248,8.585 1.248,8.585 0,0 2.81,1.873 3.591,2.966 C 3.59,-2.653 0.78,-1.561 0,0"
             style="fill:#ffffff;fill-opacity:1;fill-rule:nonzero;stroke:none"
             id="path404" />
        </g>
        <g
           id="g406"
           transform="translate(144.4414,325.3691)">
          <path
             d="m 0,0 c -0.781,1.561 -0.781,2.81 -0.468,4.995 0.312,2.185 -1.561,7.493 -1.561,7.493 0,0 -0.017,-0.013 -0.029,-0.022 -1.909,-3.309 -7.43,-5.267 -9.878,-6.02 -2.689,-0.828 1.241,-2.69 0.827,-5.172 -0.413,-2.482 -5.792,-3.93 -5.792,-3.93 0,0 -1.538,3.309 -3.724,3.309 -2.185,0 -3.73,-5 -2.481,-7.653 1.248,-2.654 3.906,-2.053 3.906,-2.053 0,0 -0.155,-4.683 2.81,-6.088 2.966,-1.405 7.961,-3.278 9.834,-3.59 1.873,-0.312 3.746,0.625 4.527,3.434 0.78,2.81 1.248,8.585 1.248,8.585 0,0 2.81,1.873 3.591,2.966 C 3.59,-2.653 0.78,-1.561 0,0 Z"
             style="fill:none;stroke:#1a2e35;stroke-width:1;stroke-linecap:round;stroke-linejoin:round;stroke-miterlimit:10;stroke-dasharray:none;stroke-opacity:1"
             id="path408" />
        </g>
        <g
           id="g410"
           transform="translate(141.4004,325.2988)">
          <path
             d="m 0,0 c 0,-0.857 -0.278,-1.552 -0.621,-1.552 -0.342,0 -0.62,0.695 -0.62,1.552 0,0.856 0.278,1.551 0.62,1.551 C -0.278,1.551 0,0.856 0,0"
             style="fill:#1a2e35;fill-opacity:1;fill-rule:nonzero;stroke:none"
             id="path412" />
        </g>
        <g
           id="g414"
           transform="translate(138.7109,327.8843)">
          <path
             d="M 0,0 C 0,0 1.655,1.862 2.896,1.448"
             style="fill:none;stroke:#1a2e35;stroke-width:1;stroke-linecap:round;stroke-linejoin:round;stroke-miterlimit:10;stroke-dasharray:none;stroke-opacity:1"
             id="path416" />
        </g>
        <g
           id="g418"
           transform="translate(141.6069,315.0591)">
          <path
             d="M 0,0 C 0,0 -2.275,-0.828 -4.344,1.034"
             style="fill:none;stroke:#1a2e35;stroke-width:1;stroke-linecap:round;stroke-linejoin:round;stroke-miterlimit:10;stroke-dasharray:none;stroke-opacity:1"
             id="path420" />
        </g>
        <g
           id="g422"
           transform="translate(82.6284,120.2627)">
          <path
             d="m 0,0 c 0,0 -3.733,-7.484 -3.588,-8.499 0.145,-1.016 7.54,-6.38 11.02,-8.266 3.48,-1.884 9.714,-2.174 9.279,0.436 -0.434,2.609 -6.379,4.35 -7.829,8.265 -1.45,3.915 -2.014,6.191 -2.014,6.191 0,0 -3.57,-0.212 -6.868,1.873"
             style="fill:#ffffff;fill-opacity:1;fill-rule:nonzero;stroke:none"
             id="path424" />
        </g>
        <g
           id="g426"
           transform="translate(82.6284,120.2627)">
          <path
             d="m 0,0 c 0,0 -3.733,-7.484 -3.588,-8.499 0.145,-1.016 7.54,-6.38 11.02,-8.266 3.48,-1.884 9.714,-2.174 9.279,0.436 -0.434,2.609 -6.379,4.35 -7.829,8.265 -1.45,3.915 -2.014,6.191 -2.014,6.191 0,0 -3.57,-0.212 -6.868,1.873 z"
             style="fill:none;stroke:#1a2e35;stroke-width:1;stroke-linecap:round;stroke-linejoin:round;stroke-miterlimit:10;stroke-dasharray:none;stroke-opacity:1"
             id="path428" />
        </g>
        <g
           id="g430"
           transform="translate(99.3403,103.8936)">
          <path
             d="M 0,0 C -1.986,-0.274 -4.729,-0.207 -7.832,1.138 -13.202,3.465 -18.405,8.223 -19.82,9.572 -20.137,8.756 -20.335,8.118 -20.3,7.87 -20.155,6.854 -12.76,1.49 -9.28,-0.395 -5.819,-2.27 0.361,-2.564 0,0"
             style="fill:#ffffff;fill-opacity:1;fill-rule:nonzero;stroke:none"
             id="path432" />
        </g>
        <g
           id="g434"
           transform="translate(99.3403,103.8936)">
          <path
             d="M 0,0 C -1.986,-0.274 -4.729,-0.207 -7.832,1.138 -13.202,3.465 -18.405,8.223 -19.82,9.572 -20.137,8.756 -20.335,8.118 -20.3,7.87 -20.155,6.854 -12.76,1.49 -9.28,-0.395 -5.819,-2.27 0.361,-2.564 0,0 Z"
             style="fill:none;stroke:#1a2e35;stroke-width:1;stroke-linecap:round;stroke-linejoin:round;stroke-miterlimit:10;stroke-dasharray:none;stroke-opacity:1"
             id="path436" />
        </g>
      </g>
    </g>
  </g>
</svg>
