<?xml version="1.0" encoding="utf-8"?>
<!-- Generator: Adobe Illustrator 27.5.0, SVG Export Plug-In . SVG Version: 6.00 Build 0)  -->
<svg version="1.1" xmlns="http://www.w3.org/2000/svg" xmlns:xlink="http://www.w3.org/1999/xlink" x="0px" y="0px"
	 viewBox="0 0 500 500" style="enable-background:new 0 0 500 500;" xml:space="preserve">
<g id="Background_Simple">
	<g>
		<path style="fill:#92E3A9;" d="M453.204,401.518c-1.774,2.865-3.615,5.675-5.533,8.418
			c-25.539,36.508-67.106,60.875-107.16,71.356c-17.547,4.6-35.497,6.778-53.364,6.989c-117.192,1.327-157.615-99.118-194.67-125.71
			C55.422,335.978-1.324,290.727,8.334,199.027c7.332-69.723,47.7-135.521,119.04-164.083c7.857-3.156,16.099-5.859,24.71-8.055
			c16.019-4.087,33.328-6.465,51.92-6.83c53.402-1.056,96.366,13.302,137.861,47.718c9.646,8,19.213,16.99,31.967,18.28
			c9.271,0.938,18.167-2.266,8.698-11.756c-11.128-11.154,2.595-32.163,31.176-16.574c47.736,26.037,66.245,80.01,74.206,134.61
			C497.683,259.357,489.943,342.184,453.204,401.518z"/>
		<path style="opacity:0.7;fill:#FFFFFF;" d="M453.204,401.518c-1.774,2.865-3.615,5.675-5.533,8.418
			c-25.539,36.508-67.106,60.875-107.16,71.356c-17.547,4.6-35.497,6.778-53.364,6.989c-117.192,1.327-157.615-99.118-194.67-125.71
			C55.422,335.978-1.324,290.727,8.334,199.027c7.332-69.723,47.7-135.521,119.04-164.083c7.857-3.156,16.099-5.859,24.71-8.055
			c16.019-4.087,33.328-6.465,51.92-6.83c53.402-1.056,96.366,13.302,137.861,47.718c9.646,8,19.213,16.99,31.967,18.28
			c9.271,0.938,18.167-2.266,8.698-11.756c-11.128-11.154,2.595-32.163,31.176-16.574c47.736,26.037,66.245,80.01,74.206,134.61
			C497.683,259.357,489.943,342.184,453.204,401.518z"/>
	</g>
</g>
<g id="Plant">
	<g>
		<g>
			<g>
				<path style="fill:none;stroke:#263238;stroke-width:3;stroke-linecap:round;stroke-linejoin:round;stroke-miterlimit:10;" d="
					M256.607,194.345c0,0,0.338,42.212,0.338,53.357c0,11.144-0.338,177.997-0.338,177.997"/>
				<polygon style="fill:#92E3A9;" points="281.934,205.151 271.465,196.371 300.845,199.748 274.842,191.305 301.521,186.578 
					271.465,186.578 294.767,169.017 268.426,182.188 283.623,156.185 263.361,179.486 270.452,145.378 257.282,177.122 
					255.931,141.664 253.23,177.798 238.859,145.876 248.839,180.837 227.345,157.39 246.138,186.24 219.532,167.259 
					244.449,191.305 216.243,175.894 242.085,193.332 218.71,190.286 241.41,196.709 223.233,199.744 242.085,199.073 
					230.941,206.502 257.282,199.41 				"/>
				<polygon style="fill:#92E3A9;" points="281.934,289.706 271.465,280.926 300.845,284.303 274.842,275.861 301.521,271.133 
					271.465,271.133 294.767,253.572 268.426,266.743 283.623,240.74 263.361,264.041 270.452,229.933 257.282,261.677 
					255.931,226.219 253.23,262.353 238.859,230.431 248.839,265.392 227.345,241.945 246.138,270.795 219.532,251.814 
					244.449,275.861 216.243,260.449 242.085,277.887 218.71,274.841 241.41,281.264 223.233,284.299 242.085,283.628 
					230.941,291.057 257.282,283.965 				"/>
			</g>
			<path style="fill:none;stroke:#263238;stroke-width:3;stroke-linecap:round;stroke-linejoin:round;stroke-miterlimit:10;" d="
				M246.476,236.895c0,0-1.013,8.78-0.338,12.157s1.013,7.429,1.013,11.82s0.338,4.728,0.338,7.767s-0.338,147.266-0.338,149.63
				s0-17.415,0-16.065s0,2.702,0,2.702"/>
			<path style="fill:none;stroke:#263238;stroke-width:3;stroke-linecap:round;stroke-linejoin:round;stroke-miterlimit:10;" d="
				M247.489,265.262c0,0,1.351-7.429,2.702-10.806s2.364-2.364,2.702-6.416c0.338-4.052,0.338-5.741,1.013-7.092
				s1.351-3.715,1.351-3.715l0.675-2.702"/>
			<polygon style="fill:#92E3A9;" points="271.465,245.675 260.997,236.895 290.377,240.272 264.374,231.829 291.052,227.102 
				260.997,227.102 284.298,209.541 257.957,222.712 273.154,196.709 252.892,220.01 259.984,185.902 246.813,217.646 
				245.462,182.188 242.761,218.322 232.292,185.565 238.371,221.361 219.797,194.682 235.669,226.764 211.308,210.847 
				233.981,231.829 208.841,221.538 231.617,233.856 208.018,231.818 230.941,237.233 215.009,240.865 231.617,239.597 
				220.473,247.026 246.813,239.934 			"/>
			<polygon style="fill:#92E3A9;" points="271.465,355.689 260.997,346.908 290.377,350.285 264.374,341.843 291.052,337.115 
				260.997,337.115 284.298,319.555 257.957,332.725 273.154,306.722 252.892,330.023 259.984,295.916 246.813,327.659 
				245.462,292.201 242.761,328.335 232.292,295.578 238.371,331.374 219.797,304.696 235.669,336.777 211.308,320.86 
				233.981,341.843 208.841,331.552 231.617,343.869 208.018,341.832 230.941,347.246 215.009,350.878 231.617,349.61 
				220.473,357.039 246.813,349.948 			"/>
		</g>
		<path style="fill:#FFFFFF;stroke:#263238;stroke-linejoin:round;stroke-miterlimit:10;" d="M237.225,395.337l-7.229,12.048
			c-1.11,1.85-1.421,4.071-0.862,6.154l3.212,33.435c0.468,1.743,2.048,2.954,3.852,2.954h32.925c1.805,0,3.384-1.212,3.852-2.954
			l3.212-33.435c0.559-2.083,0.248-4.305-0.861-6.154l-7.229-12.048c-0.493-0.822-1.382-1.325-2.341-1.325h-26.191
			C238.607,394.012,237.718,394.514,237.225,395.337z"/>
	</g>
</g>
<g id="Trash_Can_2">
	<polygon style="fill:#A8A8A8;stroke:#263238;stroke-linecap:round;stroke-linejoin:round;stroke-miterlimit:10;" points="
		336.361,389.394 290.689,389.394 295.257,449.952 331.794,449.952 	"/>
</g>
<g id="Trash_Can_1">
	<polygon style="fill:#A8A8A8;stroke:#263238;stroke-linecap:round;stroke-linejoin:round;stroke-miterlimit:10;" points="
		77.408,389.394 31.737,389.394 36.304,449.952 72.841,449.952 	"/>
</g>
<g id="Table_2">
	<g>
		
			<rect x="278.598" y="321.802" style="fill:#FFFFFF;stroke:#263238;stroke-linecap:round;stroke-linejoin:round;stroke-miterlimit:10;" width="7.373" height="128.211"/>
		
			<rect x="278.598" y="321.802" style="fill:#263238;stroke:#263238;stroke-linecap:round;stroke-linejoin:round;stroke-miterlimit:10;" width="7.373" height="6.253"/>
		
			<rect x="470.71" y="321.802" style="fill:#FFFFFF;stroke:#263238;stroke-linecap:round;stroke-linejoin:round;stroke-miterlimit:10;" width="7.373" height="128.211"/>
		
			<rect x="470.71" y="321.802" style="fill:#263238;stroke:#263238;stroke-linecap:round;stroke-linejoin:round;stroke-miterlimit:10;" width="7.373" height="6.029"/>
		<g>
			
				<rect x="275.009" y="302.716" style="fill:#FFFFFF;stroke:#263238;stroke-linecap:round;stroke-linejoin:round;stroke-miterlimit:10;" width="207.105" height="21.149"/>
			
				<rect x="275.009" y="302.716" style="fill:#263238;stroke:#263238;stroke-linecap:round;stroke-linejoin:round;stroke-miterlimit:10;" width="207.105" height="3.009"/>
		</g>
		
			<rect x="266.87" y="297.8" style="fill:#FFFFFF;stroke:#263238;stroke-linecap:round;stroke-linejoin:round;stroke-miterlimit:10;" width="223.383" height="5.174"/>
	</g>
</g>
<g id="Device_2">
	<g>
		<g>
			<rect x="348.922" y="284.025" style="fill:#263238;stroke:#263238;stroke-miterlimit:10;" width="25.663" height="13.805"/>
			<rect x="340.516" y="295.796" style="fill:#263238;stroke:#263238;stroke-miterlimit:10;" width="42.476" height="2.034"/>
		</g>
		<rect x="303.981" y="207.408" style="fill:#263238;stroke:#263238;stroke-miterlimit:10;" width="115.546" height="78.398"/>
		
			<rect x="308.041" y="211.626" style="fill:#92E3A9;stroke:#263238;stroke-linecap:round;stroke-linejoin:round;stroke-miterlimit:10;" width="107.425" height="69.961"/>
	</g>
	<g>
		
			<rect x="300.379" y="295.163" style="fill:#FFFFFF;stroke:#263238;stroke-linecap:round;stroke-linejoin:round;stroke-miterlimit:10;" width="74.145" height="2.648"/>
		
			<rect x="302.869" y="294.138" style="fill:#FFFFFF;stroke:#263238;stroke-linecap:round;stroke-linejoin:round;stroke-miterlimit:10;" width="3.251" height="0.963"/>
		
			<rect x="307.339" y="294.138" style="fill:#FFFFFF;stroke:#263238;stroke-linecap:round;stroke-linejoin:round;stroke-miterlimit:10;" width="3.251" height="0.963"/>
		
			<rect x="311.808" y="294.138" style="fill:#FFFFFF;stroke:#263238;stroke-linecap:round;stroke-linejoin:round;stroke-miterlimit:10;" width="3.251" height="0.963"/>
		
			<rect x="316.278" y="294.138" style="fill:#FFFFFF;stroke:#263238;stroke-linecap:round;stroke-linejoin:round;stroke-miterlimit:10;" width="30.194" height="0.963"/>
		
			<rect x="347.565" y="294.138" style="fill:#FFFFFF;stroke:#263238;stroke-linecap:round;stroke-linejoin:round;stroke-miterlimit:10;" width="3.251" height="0.963"/>
		
			<rect x="352.034" y="294.138" style="fill:#FFFFFF;stroke:#263238;stroke-linecap:round;stroke-linejoin:round;stroke-miterlimit:10;" width="3.251" height="0.963"/>
		
			<rect x="356.504" y="294.138" style="fill:#FFFFFF;stroke:#263238;stroke-linecap:round;stroke-linejoin:round;stroke-miterlimit:10;" width="3.251" height="0.963"/>
		
			<rect x="360.973" y="294.138" style="fill:#FFFFFF;stroke:#263238;stroke-linecap:round;stroke-linejoin:round;stroke-miterlimit:10;" width="3.251" height="0.963"/>
		
			<rect x="365.443" y="294.138" style="fill:#FFFFFF;stroke:#263238;stroke-linecap:round;stroke-linejoin:round;stroke-miterlimit:10;" width="3.251" height="0.963"/>
		
			<rect x="369.912" y="294.138" style="fill:#FFFFFF;stroke:#263238;stroke-linecap:round;stroke-linejoin:round;stroke-miterlimit:10;" width="3.251" height="0.963"/>
	</g>
</g>
<g id="Chair">
	<g>
		<g>
			<g>
				<path style="fill:#263238;stroke:#263238;stroke-linecap:round;stroke-linejoin:round;stroke-miterlimit:10;" d="
					M443.639,444.851c0-2.851,2.311-5.162,5.162-5.162c2.851,0,5.162,2.311,5.162,5.162c0,2.851-2.311,5.162-5.162,5.162
					C445.95,450.013,443.639,447.702,443.639,444.851z"/>
				<path style="fill:#FFFFFF;stroke:#263238;stroke-linecap:round;stroke-linejoin:round;stroke-miterlimit:10;" d="
					M446.22,444.851c0-1.425,1.155-2.581,2.581-2.581c1.425,0,2.581,1.156,2.581,2.581c0,1.426-1.156,2.581-2.581,2.581
					C447.376,447.432,446.22,446.276,446.22,444.851z"/>
			</g>
			<g>
				<path style="fill:#263238;stroke:#263238;stroke-linecap:round;stroke-linejoin:round;stroke-miterlimit:10;" d="
					M388.349,444.851c0-2.851,2.311-5.162,5.162-5.162c2.851,0,5.162,2.311,5.162,5.162c0,2.851-2.311,5.162-5.162,5.162
					C390.66,450.013,388.349,447.702,388.349,444.851z"/>
				<path style="fill:#FFFFFF;stroke:#263238;stroke-linecap:round;stroke-linejoin:round;stroke-miterlimit:10;" d="
					M390.93,444.851c0-1.425,1.156-2.581,2.581-2.581c1.426,0,2.581,1.156,2.581,2.581c0,1.426-1.156,2.581-2.581,2.581
					C392.086,447.432,390.93,446.276,390.93,444.851z"/>
			</g>
			<g>
				<path style="fill:#263238;stroke:#263238;stroke-linecap:round;stroke-linejoin:round;stroke-miterlimit:10;" d="
					M364.061,444.851c0-2.851,2.311-5.162,5.162-5.162c2.851,0,5.162,2.311,5.162,5.162c0,2.851-2.311,5.162-5.162,5.162
					C366.372,450.013,364.061,447.702,364.061,444.851z"/>
				<path style="fill:#FFFFFF;stroke:#263238;stroke-linecap:round;stroke-linejoin:round;stroke-miterlimit:10;" d="
					M366.642,444.851c0-1.425,1.156-2.581,2.581-2.581s2.581,1.156,2.581,2.581c0,1.426-1.156,2.581-2.581,2.581
					S366.642,446.276,366.642,444.851z"/>
			</g>
			<path style="fill:#263238;stroke:#263238;stroke-linecap:round;stroke-linejoin:round;stroke-miterlimit:10;" d="
				M401.513,438.949h10.919v-73.016c0-0.02-0.016-0.036-0.036-0.036h-10.846c-0.02,0-0.036,0.016-0.036,0.036V438.949z"/>
			
				<rect x="398.606" y="382.317" transform="matrix(-1 -1.224647e-16 1.224647e-16 -1 813.9451 821.2658)" style="fill:#263238;stroke:#263238;stroke-linecap:round;stroke-linejoin:round;stroke-miterlimit:10;" width="16.733" height="56.632"/>
			<g>
				<path style="fill:#263238;stroke:#263238;stroke-miterlimit:10;" d="M383.928,319.656c-0.194-2.134-2.522-3.491-3.879-3.103
					H345.91c0,0-4.461,0-4.267,3.297c0.194,3.297,10.474,32.199,10.862,33.168c0.388,0.97,3.491,2.328,4.267,1.94
					c0.776-0.388,20.949,0,20.949,0s2.716-0.194,3.104-2.715S384.122,321.79,383.928,319.656z M374.801,349.863
					c-0.332,2.158-2.655,2.323-2.655,2.323s-11.666-0.332-12.33,0c-0.664,0.332-3.319-0.83-3.651-1.66
					c-0.332-0.83-9.128-25.559-9.294-28.381c-0.166-2.822,3.651-2.822,3.651-2.822h23.615c1.162-0.332,3.153,0.83,3.319,2.656
					C377.623,323.806,375.133,347.705,374.801,349.863z"/>
				<path style="fill:#8A8A8A;stroke:#263238;stroke-miterlimit:10;" d="M383.928,319.656c-0.194-2.134-2.522-3.491-3.879-3.103
					h-30.453c0,0-4.461,0-4.267,3.297c0.194,3.297,10.474,32.199,10.862,33.168c0.388,0.97,3.491,2.328,4.267,1.94
					c0.776-0.388,17.263,0,17.263,0s2.716-0.194,3.104-2.715S384.122,321.79,383.928,319.656z M378.487,349.863
					c-0.332,2.158-2.656,2.003-2.656,2.003s-14.029,0-14.771,0c-1.244,0-3.309,0.199-3.651-1.34
					c-0.194-0.872-9.128-25.559-9.294-28.381c-0.166-2.822,3.651-2.822,3.651-2.822h26.057c1.162-0.332,3.153,0.83,3.319,2.656
					C381.308,323.806,378.819,347.705,378.487,349.863z"/>
			</g>
			<path style="fill:#263238;stroke:#263238;stroke-linecap:round;stroke-linejoin:round;stroke-miterlimit:10;" d="
				M425.232,356.538h13.966c0.02,0,0.036-0.016,0.036-0.036v-12.881h-14.038v12.881
				C425.195,356.521,425.212,356.538,425.232,356.538z"/>
			<path style="fill:#263238;stroke:#263238;stroke-linecap:round;stroke-linejoin:round;stroke-miterlimit:10;" d="
				M391.232,343.634h67.999c5.385,0,9.713-4.436,9.58-9.82l-1.32-76.395c-0.129-5.199-4.38-9.346-9.58-9.346H397.54
				c-4.73,0-6.855,3.451-7.574,8.127l-8.205,76.394C380.868,338.4,385.359,343.634,391.232,343.634z"/>
			
				<line style="fill:none;stroke:#263238;stroke-width:3;stroke-linecap:round;stroke-linejoin:round;stroke-miterlimit:10;" x1="422.432" y1="367.846" x2="446.414" y2="383.639"/>
			<path style="fill:#263238;stroke:#263238;stroke-linecap:round;stroke-linejoin:round;stroke-miterlimit:10;" d="
				M447.322,381.249l4.084,2.753c1.405,0.947,1.587,2.945,0.376,4.131l-0.283,0.277c-0.977,0.957-2.519,1.022-3.574,0.152
				l-3.753-3.095c-1.187-0.979-1.287-2.762-0.216-3.867l0,0C444.844,380.683,446.263,380.535,447.322,381.249z"/>
			<path style="fill:#263238;stroke:#263238;stroke-linecap:round;stroke-linejoin:round;stroke-miterlimit:10;" d="
				M356.254,370.576h102.249c4.738,0,8.579-3.841,8.579-8.579l0,0c0-4.738-3.841-8.579-8.579-8.579H356.254
				c-4.738,0-8.579,3.841-8.579,8.579l0,0C347.675,366.735,351.516,370.576,356.254,370.576z"/>
			<path style="fill:#263238;stroke:#263238;stroke-linecap:round;stroke-linejoin:round;stroke-miterlimit:10;" d="
				M347.736,360.956c0.515-4.376,4.472-7.538,8.877-7.538h59.415c4.406,0,8.362,3.162,8.877,7.538
				c0.612,5.203-3.437,9.62-8.517,9.62h-60.135C351.173,370.576,347.124,366.159,347.736,360.956z"/>
			<path style="fill:#263238;stroke:#263238;stroke-linecap:round;stroke-linejoin:round;stroke-miterlimit:10;" d="
				M362.404,442.068h91.588l0,0c0-2.581-2.093-4.674-4.674-4.674h-82.241C364.496,437.395,362.404,439.487,362.404,442.068
				L362.404,442.068z"/>
			<path style="fill:#263238;stroke:#263238;stroke-linecap:round;stroke-linejoin:round;stroke-miterlimit:10;" d="
				M383.824,442.068h27.783v-4.674h-23.109C385.917,437.395,383.824,439.487,383.824,442.068L383.824,442.068z"/>
		</g>
		<g>
			<path style="fill:#263238;stroke:#263238;stroke-miterlimit:10;" d="M468.505,319.656c-0.194-2.134-2.522-3.491-3.879-3.103
				h-34.138c0,0-4.461,0-4.267,3.297c0.194,3.297,10.474,32.199,10.862,33.168c0.388,0.97,3.491,2.328,4.267,1.94
				c0.776-0.388,20.949,0,20.949,0s2.716-0.194,3.103-2.715S468.699,321.79,468.505,319.656z M459.378,349.863
				c-0.332,2.158-2.655,2.323-2.655,2.323s-11.666-0.332-12.33,0c-0.664,0.332-3.319-0.83-3.651-1.66
				c-0.332-0.83-9.128-25.559-9.294-28.381c-0.166-2.822,3.651-2.822,3.651-2.822h23.616c1.162-0.332,3.153,0.83,3.319,2.656
				C462.2,323.806,459.71,347.705,459.378,349.863z"/>
			<path style="fill:#8A8A8A;stroke:#263238;stroke-miterlimit:10;" d="M468.505,319.656c-0.194-2.134-2.522-3.491-3.879-3.103
				h-30.453c0,0-4.461,0-4.267,3.297c0.194,3.297,10.474,32.199,10.862,33.168c0.388,0.97,3.491,2.328,4.267,1.94
				c0.776-0.388,17.263,0,17.263,0s2.716-0.194,3.103-2.715S468.699,321.79,468.505,319.656z M463.063,349.863
				c-0.332,2.158-2.655,2.323-2.655,2.323s-14.107-0.332-14.771,0c-0.664,0.332-3.319-0.83-3.651-1.66
				c-0.332-0.83-9.128-25.559-9.294-28.381c-0.166-2.822,3.651-2.822,3.651-2.822H462.4c1.162-0.332,3.153,0.83,3.319,2.656
				C465.885,323.806,463.395,347.705,463.063,349.863z"/>
		</g>
	</g>
</g>
<g id="Device_1">
	<g>
		<g>
			<rect x="87.485" y="284.025" style="fill:#263238;stroke:#263238;stroke-miterlimit:10;" width="25.663" height="13.805"/>
			<rect x="79.079" y="295.796" style="fill:#263238;stroke:#263238;stroke-miterlimit:10;" width="42.476" height="2.034"/>
		</g>
		<rect x="42.544" y="207.408" style="fill:#263238;stroke:#263238;stroke-miterlimit:10;" width="115.546" height="78.398"/>
		
			<rect x="46.604" y="211.626" style="fill:#7A7A7A;stroke:#7A7A7A;stroke-linecap:round;stroke-linejoin:round;stroke-miterlimit:10;" width="107.425" height="69.961"/>
	</g>
	<g>
		
			<rect x="38.942" y="295.163" style="fill:#FFFFFF;stroke:#263238;stroke-linecap:round;stroke-linejoin:round;stroke-miterlimit:10;" width="74.145" height="2.648"/>
		
			<rect x="41.432" y="294.138" style="fill:#FFFFFF;stroke:#263238;stroke-linecap:round;stroke-linejoin:round;stroke-miterlimit:10;" width="3.251" height="0.963"/>
		
			<rect x="45.901" y="294.138" style="fill:#FFFFFF;stroke:#263238;stroke-linecap:round;stroke-linejoin:round;stroke-miterlimit:10;" width="3.251" height="0.963"/>
		
			<rect x="50.371" y="294.138" style="fill:#FFFFFF;stroke:#263238;stroke-linecap:round;stroke-linejoin:round;stroke-miterlimit:10;" width="3.251" height="0.963"/>
		
			<rect x="54.84" y="294.138" style="fill:#FFFFFF;stroke:#263238;stroke-linecap:round;stroke-linejoin:round;stroke-miterlimit:10;" width="30.194" height="0.963"/>
		
			<rect x="86.127" y="294.138" style="fill:#FFFFFF;stroke:#263238;stroke-linecap:round;stroke-linejoin:round;stroke-miterlimit:10;" width="3.251" height="0.963"/>
		
			<rect x="90.597" y="294.138" style="fill:#FFFFFF;stroke:#263238;stroke-linecap:round;stroke-linejoin:round;stroke-miterlimit:10;" width="3.251" height="0.963"/>
		
			<rect x="95.066" y="294.138" style="fill:#FFFFFF;stroke:#263238;stroke-linecap:round;stroke-linejoin:round;stroke-miterlimit:10;" width="3.251" height="0.963"/>
		
			<rect x="99.536" y="294.138" style="fill:#FFFFFF;stroke:#263238;stroke-linecap:round;stroke-linejoin:round;stroke-miterlimit:10;" width="3.251" height="0.963"/>
		
			<rect x="104.006" y="294.138" style="fill:#FFFFFF;stroke:#263238;stroke-linecap:round;stroke-linejoin:round;stroke-miterlimit:10;" width="3.251" height="0.963"/>
		
			<rect x="108.475" y="294.138" style="fill:#FFFFFF;stroke:#263238;stroke-linecap:round;stroke-linejoin:round;stroke-miterlimit:10;" width="3.251" height="0.963"/>
	</g>
</g>
<g id="Table_1">
	<g>
		
			<rect x="17.161" y="321.802" style="fill:#FFFFFF;stroke:#263238;stroke-linecap:round;stroke-linejoin:round;stroke-miterlimit:10;" width="7.373" height="128.211"/>
		
			<rect x="17.161" y="321.802" style="fill:#263238;stroke:#263238;stroke-linecap:round;stroke-linejoin:round;stroke-miterlimit:10;" width="7.373" height="6.253"/>
		
			<rect x="209.273" y="321.802" style="fill:#FFFFFF;stroke:#263238;stroke-linecap:round;stroke-linejoin:round;stroke-miterlimit:10;" width="7.373" height="128.211"/>
		
			<rect x="209.273" y="321.802" style="fill:#263238;stroke:#263238;stroke-linecap:round;stroke-linejoin:round;stroke-miterlimit:10;" width="7.373" height="6.029"/>
		<g>
			
				<rect x="13.572" y="302.716" style="fill:#FFFFFF;stroke:#263238;stroke-linecap:round;stroke-linejoin:round;stroke-miterlimit:10;" width="207.105" height="21.149"/>
			
				<rect x="13.572" y="302.716" style="fill:#263238;stroke:#263238;stroke-linecap:round;stroke-linejoin:round;stroke-miterlimit:10;" width="207.105" height="3.009"/>
		</g>
		
			<rect x="5.433" y="297.8" style="fill:#FFFFFF;stroke:#263238;stroke-linecap:round;stroke-linejoin:round;stroke-miterlimit:10;" width="223.384" height="5.174"/>
	</g>
</g>
<g id="Lamps">
	<g>
		<path style="fill:none;stroke:#263238;stroke-linejoin:round;stroke-miterlimit:10;" d="M430.631,71.89c0,3.203-2.597,5.8-5.8,5.8
			c-3.203,0-5.8-2.597-5.8-5.8c0-3.203,2.597-5.8,5.8-5.8C428.034,66.09,430.631,68.687,430.631,71.89z"/>
		<path style="fill:none;stroke:#263238;stroke-linejoin:round;stroke-miterlimit:10;" d="M439.234,114.818h-28.807V92.092
			c0-7.955,6.449-14.403,14.403-14.403l0,0c7.955,0,14.403,6.449,14.403,14.403V114.818z"/>
		
			<line style="fill:none;stroke:#263238;stroke-width:2;stroke-linejoin:round;stroke-miterlimit:10;" x1="424.831" y1="66.09" x2="424.831" y2="12.571"/>
	</g>
	<g>
		<path style="fill:none;stroke:#263238;stroke-linejoin:round;stroke-miterlimit:10;" d="M89.52,71.89c0,3.203-2.597,5.8-5.8,5.8
			s-5.8-2.597-5.8-5.8c0-3.203,2.597-5.8,5.8-5.8S89.52,68.687,89.52,71.89z"/>
		<path style="fill:none;stroke:#263238;stroke-linejoin:round;stroke-miterlimit:10;" d="M98.124,114.818H69.317V92.092
			c0-7.955,6.449-14.403,14.403-14.403l0,0c7.955,0,14.403,6.449,14.403,14.403V114.818z"/>
		
			<line style="fill:none;stroke:#263238;stroke-width:2;stroke-linejoin:round;stroke-miterlimit:10;" x1="83.72" y1="66.09" x2="83.72" y2="12.571"/>
	</g>
</g>
<g id="Air_Conditioner">
	<g>
		<path style="fill:none;stroke:#263238;stroke-linejoin:round;stroke-miterlimit:10;" d="M352.857,63.252H165.711l0,0
			c-3.138-9.312-4.764-19.068-4.815-28.894l-0.085-16.456c-0.013-2.581,2.075-4.681,4.656-4.681h187.626
			c2.584,0,4.674,2.104,4.656,4.688l-0.114,16.686c-0.064,9.398-1.569,18.73-4.461,27.673L352.857,63.252z"/>
		
			<rect x="177.797" y="55.611" style="fill:none;stroke:#263238;stroke-linejoin:round;stroke-miterlimit:10;" width="162.973" height="7.641"/>
	</g>
</g>
<g id="Floor">
	
		<line style="fill:none;stroke:#263238;stroke-linecap:round;stroke-linejoin:round;stroke-miterlimit:10;" x1="489.62" y1="450.013" x2="7.96" y2="450.013"/>
</g>
<g id="Speech_Bubble">
	<path style="fill:#263238;stroke:#263238;stroke-linecap:round;stroke-linejoin:round;stroke-miterlimit:10;" d="M228.344,91.201
		h-44.169c-3.747,0-6.784,3.037-6.784,6.784v18.464c0,3.747,3.037,6.784,6.784,6.784h33.245l-2.461,12.655l10.99-12.655h2.395
		c3.747,0,6.784-3.037,6.784-6.784V97.985C235.128,94.238,232.09,91.201,228.344,91.201z"/>
</g>
<g id="Text">
	<g>
		<path style="fill:#92E3A9;" d="M185.775,112.824l-1.26-9.72h1.68l0.672,5.94l0.852-5.928h1.332l0.888,5.916l0.672-5.928h1.656
			l-1.248,9.72h-1.68l-0.948-6.156l-0.9,6.156H185.775z"/>
		<path style="fill:#92E3A9;" d="M193.312,112.824v-9.72h4.236v1.368h-2.256v2.58h1.74v1.38h-1.74v3.048h2.28v1.344H193.312z"/>
		<path style="fill:#92E3A9;" d="M198.567,112.824v-9.72h1.98v8.376h2.28v1.344H198.567z"/>
		<path style="fill:#92E3A9;" d="M206.32,112.956c-0.72,0-1.29-0.136-1.71-0.408c-0.42-0.272-0.714-0.65-0.882-1.134
			c-0.168-0.484-0.252-1.046-0.252-1.686v-3.492c0-0.672,0.084-1.25,0.252-1.734c0.168-0.484,0.462-0.858,0.882-1.122
			c0.42-0.264,0.99-0.396,1.71-0.396c0.696,0,1.242,0.116,1.638,0.348c0.396,0.232,0.676,0.56,0.84,0.984
			c0.164,0.424,0.246,0.916,0.246,1.476v0.816h-1.92v-0.912c0-0.224-0.012-0.434-0.036-0.63c-0.024-0.196-0.09-0.356-0.198-0.48
			c-0.108-0.124-0.294-0.186-0.558-0.186c-0.264,0-0.456,0.064-0.576,0.192c-0.12,0.128-0.196,0.294-0.228,0.498
			c-0.032,0.204-0.048,0.43-0.048,0.678v4.416c0,0.272,0.022,0.51,0.066,0.714c0.044,0.204,0.128,0.36,0.252,0.468
			c0.124,0.108,0.302,0.162,0.534,0.162c0.256,0,0.438-0.062,0.546-0.186c0.108-0.124,0.176-0.29,0.204-0.498
			c0.028-0.208,0.042-0.428,0.042-0.66v-0.948h1.92v0.804c0,0.568-0.08,1.07-0.24,1.506c-0.16,0.436-0.436,0.78-0.828,1.032
			C207.584,112.83,207.032,112.956,206.32,112.956z"/>
		<path style="fill:#92E3A9;" d="M212.967,112.956c-0.712,0-1.276-0.128-1.692-0.384s-0.714-0.622-0.894-1.098
			c-0.18-0.476-0.27-1.046-0.27-1.71v-3.624c0-0.664,0.09-1.232,0.27-1.704c0.18-0.472,0.478-0.832,0.894-1.08
			c0.416-0.248,0.98-0.372,1.692-0.372c0.72,0,1.29,0.126,1.71,0.378c0.42,0.252,0.72,0.612,0.9,1.08
			c0.18,0.468,0.27,1.034,0.27,1.698v3.624c0,0.664-0.09,1.234-0.27,1.71c-0.18,0.476-0.48,0.842-0.9,1.098
			C214.257,112.828,213.688,112.956,212.967,112.956z M212.967,111.528c0.256,0,0.444-0.058,0.564-0.174
			c0.12-0.116,0.2-0.271,0.24-0.468c0.04-0.196,0.06-0.406,0.06-0.63v-4.596c0-0.224-0.02-0.432-0.06-0.624
			c-0.04-0.192-0.12-0.346-0.24-0.462c-0.12-0.116-0.308-0.174-0.564-0.174c-0.24,0-0.42,0.058-0.54,0.174
			c-0.12,0.116-0.2,0.27-0.24,0.462c-0.04,0.192-0.06,0.4-0.06,0.624v4.596c0,0.224,0.018,0.434,0.054,0.63
			c0.036,0.196,0.114,0.352,0.234,0.468C212.536,111.47,212.719,111.528,212.967,111.528z"/>
		<path style="fill:#92E3A9;" d="M217.131,112.824l0.168-9.72h2.1l1.2,6.132l1.284-6.132h2.028l0.168,9.72h-1.44l-0.156-6.588
			l-1.236,6.588h-1.236l-1.296-6.636l-0.132,6.636H217.131z"/>
		<path style="fill:#92E3A9;" d="M225.399,112.824v-9.72h4.236v1.368h-2.256v2.58h1.74v1.38h-1.74v3.048h2.28v1.344H225.399z"/>
	</g>
</g>
<g id="Characters">
	<g>
		<g>
			<g>
				<path style="fill:#FFFFFF;stroke:#263238;stroke-linecap:round;stroke-linejoin:round;stroke-miterlimit:10;" d="
					M256.874,250.316l5.613-3.323c0,0,6.169-6.869,7.205-7.161c1.036-0.292,6.044-1.661,6.636-2.294s2.517-3.507,3.325-2.559
					c0.807,0.949,0.768,2.802,0.263,3.433c-0.505,0.631-6.586,4.234-6.586,4.234s5.349,1.709,5.875,1.872
					c0.526,0.162,8.678,2.679,8.678,2.679s5.843,0.638,6.065,2.484c0.222,1.847-1.269,1.357-2.387,1.828
					c-1.118,0.471-4.813,2.158-7.58,2.761c-2.767,0.603-15.488,2.972-17.642,3.736c-2.154,0.763-8.58,1.112-8.58,1.112
					L256.874,250.316z"/>
				<path style="fill:none;stroke:#263238;stroke-linecap:round;stroke-linejoin:round;stroke-miterlimit:10;" d="M265.181,253.625
					c0,0,4.857-3.835,7.116-3.895c2.259-0.061,9.552,2.832,9.552,2.832s1.621-1.19,2.721-2.366c1.1-1.176,5.687-5.356,6.306-4.932
					c0.62,0.424,0.048,1.851-0.624,2.751c-0.672,0.9-4.063,4.254-4.907,5.247c-0.844,0.993-2.986,2.197-4.114,2.315
					c-1.127,0.118-9.714,0.965-9.714,0.965"/>
			</g>
			<g>
				<path style="fill:#FFFFFF;stroke:#263238;stroke-linecap:round;stroke-linejoin:round;stroke-miterlimit:10;" d="
					M226.61,202.078c0,0,0.347,13.367,1.706,23.363c1.359,9.996,2.359,23.123,2.359,23.123s2.422,0.158,2.439,0.827
					c0.017,0.668-0.792,3.365-0.792,3.365l24.551-2.44l1.156,10.67c0,0-21.239,11.492-27.128,13.21
					c-5.889,1.718-12.01,2.996-15.241-2.937c-3.231-5.933-5.63-13.672-5.63-13.672L226.61,202.078z"/>
				<path style="fill:none;stroke:#263238;stroke-linecap:round;stroke-linejoin:round;stroke-miterlimit:10;" d="M232.322,252.756
					c0,0-5.421,2.82-7.993,5.341"/>
				
					<line style="fill:none;stroke:#263238;stroke-linecap:round;stroke-linejoin:round;stroke-miterlimit:10;" x1="230.675" y1="248.564" x2="224.803" y2="250.95"/>
				<path style="fill:none;stroke:#263238;stroke-linecap:round;stroke-linejoin:round;stroke-miterlimit:10;" d="M251.857,251.788
					c0,0-2.93,5.652,0.966,11.79"/>
			</g>
			<g>
				<path style="fill:#263238;stroke:#263238;stroke-linecap:round;stroke-linejoin:round;stroke-miterlimit:10;" d="
					M154.752,278.242l-0.918,11.951c0,0-4.046,26.631-3.635,35.698c0.411,9.067-0.214,52.517-0.214,52.517s-1.873,8.95-1.938,13.224
					c-0.064,4.274,0.24,9.25,0.24,9.25l3.753,29.626c0,0-1.334,2.706-0.946,4.119c0.388,1.414,2.612,5.982,2.631,6.694
					c0.018,0.711-2.201,9.849-1.458,11.431c0.743,1.582,4.647,3.258,8.182,4.231c3.535,0.974,6.29-1.058,7.826-2.701
					c1.537-1.643,2.178-3.974,1.573-6.984c-0.605-3.01-1.943-7.246-2.132-7.775c-0.189-0.529,2.118-6.287,2.602-7.902
					c0.484-1.615-3.051-9.353-1.842-16.861c1.209-7.508,3.496-34.27,3.782-36.77c0.286-2.5,10.002-54.025,10.002-54.025
					s10.981,57.914,11.184,58.977c0.203,1.063,7.926,48.383,7.926,48.383s-1.315,3.417-1.117,4.302
					c0.198,0.885,2.663,7.939,2.852,8.468c0.189,0.529-0.512,7.312,0.388,8.178c0.9,0.866,4.435,1.84,6.008,1.619
					c1.574-0.22,10.313-1.522,12.418-1.578c2.104-0.056,6.867,0.884,8.975,1.006c2.109,0.122,7.171-0.904,7.665-2.163
					c0.494-1.259,0.964-3.408-0.983-4.068c-1.947-0.66-10.092-3.468-12.067-5.195c-1.975-1.727-7.716-6.558-7.716-6.558l0.434-3.572
					l-2.866-9.002c0,0,0.81-56.627,0.574-58.935c-0.235-2.308-4.369-73.577-4.369-73.577l0.096-9.793l-56.967-4.351L154.752,278.242
					z"/>
				<g>
					<polygon style="fill:#7A7A7A;stroke:#7A7A7A;stroke-linecap:round;stroke-linejoin:round;stroke-miterlimit:10;" points="
						211.664,280.458 154.697,276.108 154.752,278.242 154.218,285.204 211.587,288.3 					"/>
					
						<rect x="178.779" y="282.47" transform="matrix(0.9996 0.03 -0.03 0.9996 8.6097 -5.361)" style="fill:#FFFFFF;stroke:#263238;stroke-linecap:round;stroke-linejoin:round;stroke-miterlimit:10;" width="8.595" height="3.915"/>
				</g>
			</g>
			<path style="fill:#FFFFFF;stroke:#263238;stroke-linecap:round;stroke-linejoin:round;stroke-miterlimit:10;" d="
				M177.738,190.454c0,0-20.627,1.22-21.702,2.141c-1.075,0.92-26.885,22.567-26.885,22.567l2.171,22.914l21.375-13.288
				l0.794,47.465c0,0-1.173,5.605-0.479,6.924s1.139,1.958,2.768,1.751c1.629-0.207,46.132,2.515,49.427,2.427
				c3.294-0.088,7.444-1.091,8.27-3.119c0.826-2.029,0.878-8.495,0.878-8.495l5.57-39.387c0,0,9.061-23.428,6.402-32.721
				c-0.613-2.14-16.628-5.575-18.616-5.967C205.722,193.273,177.738,190.454,177.738,190.454z"/>
			<g>
				
					<line style="fill:none;stroke:#263238;stroke-linecap:round;stroke-linejoin:round;stroke-miterlimit:10;" x1="152.697" y1="224.788" x2="164.025" y2="220.918"/>
				<path style="fill:none;stroke:#263238;stroke-linecap:round;stroke-linejoin:round;stroke-miterlimit:10;" d="M162.377,199.783
					c0,0,4.583,7.234,1.937,15.331"/>
				<path style="fill:none;stroke:#263238;stroke-linecap:round;stroke-linejoin:round;stroke-miterlimit:10;" d="M167.972,212.118
					c0,0,0.74,3.101-0.884,8.272"/>
			</g>
			<polygon style="fill:#92E3A9;stroke:#263238;stroke-linecap:round;stroke-linejoin:round;stroke-miterlimit:10;" points="
				183.276,209.033 187.929,218.941 181.811,271.05 188.44,280.905 195.837,269.56 192.113,219.275 198.464,209.965 
				191.228,202.132 			"/>
			<path style="fill:#FFFFFF;stroke:#263238;stroke-linecap:round;stroke-linejoin:round;stroke-miterlimit:10;" d="M179.42,187.511
				c0,0-2.618,0.739-3.462,2.099c-0.844,1.36-2.069,4.96-1.791,7.182s5.127,19.705,5.127,19.705l11.154-10.554l10.82,10.412
				c0,0,5.565-14.194,6.362-17.337c0.797-3.143,0.306-5.136-0.619-6.895c-0.925-1.759-5.826-4.303-5.826-4.303L179.42,187.511z"/>
			<g>
				<path style="fill:#FFFFFF;stroke:#263238;stroke-linecap:round;stroke-linejoin:round;stroke-miterlimit:10;" d="
					M178.91,183.439c0,0-0.47,7.881,0.252,9.686c0.721,1.805,6.708,11.566,7.302,12.804c0.594,1.238,4.269,8.552,4.269,8.552
					l4.508-8.217c0,0,6.668-11.581,6.973-12.844c0.305-1.262,1.569-8.822,1.569-8.822L178.91,183.439z"/>
				<g>
					<path style="fill:none;stroke:#263238;stroke-linecap:round;stroke-linejoin:round;stroke-miterlimit:10;" d="M177.052,159.543
						c0,0-2.143-0.285-2.752,2.24c-0.609,2.525,2.022,8.612,2.144,8.951c0.121,0.339-0.55-3.862-0.479-5.46
						C176.036,163.675,177.052,159.543,177.052,159.543z"/>
					<path style="fill:#FFFFFF;stroke:#263238;stroke-linecap:round;stroke-linejoin:round;stroke-miterlimit:10;" d="
						M181.926,139.458c0,0-5.409,3.794-5.22,6.753c0.189,2.96,1.05,5.787,0.881,7.958c-0.168,2.171-1.732,11.221-1.217,13.716
						c0.514,2.495,0.589,5.344,0.133,9.461c-0.455,4.117-0.771,4.924,2.448,7.689c3.219,2.765,6.246,6.789,13.32,6.486
						c7.074-0.303,13.748-7.323,14.209-11.213c0.461-3.889,0.301-5.71,0.508-6.399c0.207-0.69,0.895-8.804,1.817-12.25
						c0.922-3.445,3.39-12.292,1.498-15.89c-1.892-3.598-11.133-8.825-16.534-9.022C188.37,136.549,181.926,139.458,181.926,139.458
						z"/>
					<path style="fill:#263238;stroke:#263238;stroke-linecap:round;stroke-linejoin:round;stroke-miterlimit:10;" d="
						M208.806,161.658c0.922-3.445,3.39-12.292,1.498-15.89c-1.892-3.598-11.133-8.824-16.534-9.022
						c-5.401-0.198-11.845,2.711-11.845,2.711s-5.409,3.794-5.22,6.753c0.189,2.96,1.05,5.787,0.881,7.958
						c0,0,0.786-0.021,1.023-3.904c0.236-3.883,2.294-6.903,5.007-6.292c2.714,0.612,4.363,3.532,9.959,2.584
						c5.596-0.948,9.057-1.839,10.813,0.851s0.71,5.682,0.429,7.856c-0.281,2.174,0.976,2.939,1.561,3.835
						c0.585,0.897-0.851,6.18-0.272,6.849c0.389,0.448,1.401-0.298,2.028-0.84C208.34,163.785,208.565,162.561,208.806,161.658z"/>
					<path d="M184.809,163.897c0.026,1.007-0.456,1.837-1.076,1.853c-0.62,0.017-1.145-0.786-1.171-1.793
						c-0.026-1.007,0.456-1.837,1.076-1.853C184.259,162.087,184.783,162.89,184.809,163.897z"/>
					<path d="M195.179,164.988c0.026,1.007-0.455,1.837-1.076,1.853c-0.62,0.017-1.145-0.786-1.171-1.793
						c-0.026-1.007,0.456-1.837,1.076-1.853C194.629,163.178,195.153,163.981,195.179,164.988z"/>
					<path style="fill:none;stroke:#263238;stroke-linecap:round;stroke-linejoin:round;stroke-miterlimit:10;" d="M187.632,160.058
						c0,0-9.131-1.01-10.58-0.515c-1.448,0.495-1.501,7.11-0.818,7.434c0.683,0.324,6.896,1.526,8.788,0.791
						c1.892-0.735,1.963-2.333,1.963-2.333L187.632,160.058z"/>
					<path style="fill:none;stroke:#263238;stroke-linecap:round;stroke-linejoin:round;stroke-miterlimit:10;" d="M190.227,160.445
						c0,0-0.417,5.598,0.402,6.831c0.819,1.232,4.552,2.159,7.922,2.069c3.37-0.09,4.588-0.807,4.883-2.411
						c0.296-1.604,0.999-4.816,0.999-4.816S192.805,160.148,190.227,160.445l-2.595-0.387"/>
					
						<line style="fill:none;stroke:#263238;stroke-linecap:round;stroke-linejoin:round;stroke-miterlimit:10;" x1="204.434" y1="162.117" x2="209.85" y2="162.885"/>
					<path style="fill:#FFFFFF;stroke:#263238;stroke-linecap:round;stroke-linejoin:round;stroke-miterlimit:10;" d="
						M208.017,165.899c0,0,2.007-4.957,4.319-2.51c2.312,2.447,0.326,8.201-2.116,9.407c-2.442,1.206-3.231,1.113-3.231,1.113
						L208.017,165.899z"/>
					<path style="fill:#263238;stroke:#263238;stroke-linecap:round;stroke-linejoin:round;stroke-miterlimit:10;" d="
						M206.481,180.307c0.461-3.889,0.301-5.71,0.508-6.399c0.161-0.535,0.612-5.534,1.236-9.359l-2.118,1.401l0.136,0.909
						l-2.958,11.596c0,0-2.211-2.905-4.937-3.973c-2.726-1.067-7.576-1.736-9.244-1.007c-1.667,0.729-1.23,0.261-1.23,0.261
						s-2.258-0.396-4.165-0.231c-1.907,0.165-3.668,1.581-3.902,1.245c-0.233-0.336-1.431-3.154-2.241-4.045
						c-0.627-0.689-0.834-0.842-0.897-0.876c0.218,2.049,0.175,4.426-0.167,7.518c-0.455,4.117-0.771,4.924,2.448,7.689
						c3.219,2.765,6.246,6.789,13.32,6.485C199.345,191.217,206.02,184.197,206.481,180.307z"/>
					<path style="fill:none;stroke:#263238;stroke-linecap:round;stroke-linejoin:round;stroke-miterlimit:10;" d="M187.801,162.22
						c0,0-1.634,10.648-0.951,10.972c0.683,0.324,1.59,0.642,2.255,0.282c0.665-0.36,2.652-1.781,2.652-1.781"/>
					<path style="fill:none;stroke:#7A7A7A;stroke-linecap:round;stroke-linejoin:round;stroke-miterlimit:10;" d="M187.08,177.747
						c0,0,2.749,1.979,10.405-1.875"/>
					<path style="stroke:#263238;stroke-linecap:round;stroke-linejoin:round;stroke-miterlimit:10;" d="M186.583,158.604
						c0,0-1.969-2.228-4.54-1.703c-2.572,0.525-2.997,1.449-2.318,1.658s2.572-0.525,4.044-0.108
						C185.241,158.868,186.272,159.639,186.583,158.604z"/>
					<path style="stroke:#263238;stroke-linecap:round;stroke-linejoin:round;stroke-miterlimit:10;" d="M193.031,157.299
						c0,0,2.603-1.408,4.841-0.02c2.238,1.388,2.326,2.404,1.616,2.364c-0.71-0.04-2.238-1.388-3.762-1.509
						C194.202,158.014,192.972,158.379,193.031,157.299z"/>
				</g>
			</g>
		</g>
		<g>
			<g>
				<g>
					<polygon style="fill:#263238;stroke:#263238;stroke-linecap:round;stroke-linejoin:round;stroke-miterlimit:10;" points="
						133.567,197.894 135.54,205.277 130.937,202.327 					"/>
					<polygon style="fill:#92E3A9;stroke:#263238;stroke-linecap:round;stroke-linejoin:round;stroke-miterlimit:10;" points="
						126.959,193.163 133.567,197.894 128.905,204.967 123.264,193.317 					"/>
				</g>
				<g>
					<path style="fill:#263238;stroke:#263238;stroke-linecap:round;stroke-linejoin:round;stroke-miterlimit:10;" d="
						M88.833,285.057c0,0-4.381,17.732-2.587,24.473c1.794,6.741,4.944,28.154,5.327,30.406s1.659,19.997,1.659,19.997
						s-2.41,6.69-2.711,13.648c-0.301,6.958,2.277,61.842,2.277,61.842s-2.852,2.176-1.496,4.565
						c1.356,2.389,2.317,8.182,2.317,8.182s-1.725,8.127,0.255,9.691c1.981,1.564,18.483,5.655,27.553,6.386
						c9.07,0.731,12.406-1.458,12.861-2.602c0.455-1.143-9.842-8.954-9.842-8.954s6.651,5.777,9.197,5.977
						c4.66,0.367,16.569-5.765,9.437-7.046c-15.324-2.751-13.454-10.866-13.454-10.866s-0.319-5.972-0.838-7.251
						s-1.318-0.935-1.394-3.842c-0.077-2.907,4.868-66.717,4.868-66.717s5.765-57.205,5.497-67.38
						c-0.268-10.175-0.506-13.078-0.506-13.078l-47.85-0.355L88.833,285.057z"/>
					<path style="fill:none;stroke:#7A7A7A;stroke-linecap:round;stroke-linejoin:round;stroke-miterlimit:10;" d="M94.04,292.516
						c0,0-0.577,27.168,3.334,40.641c3.911,13.473,3.002,28.043,3.002,28.043s-3.158,2.831-2.006,3.609
						c1.152,0.778,4.178-0.918,2.121,0.752c-2.057,1.67-3.349,1.704-2.839,2.661c0.51,0.956,0.708,45.236,0.708,45.236"/>
					<path style="fill:none;stroke:#7A7A7A;stroke-linecap:round;stroke-linejoin:round;stroke-miterlimit:10;" d="M131.783,301.865
						l-4.067,5.118c0,0-2.688,45.164-4.728,53.622c-2.04,8.458-2.392,13.478-2.358,14.77c0.034,1.292-5.119,57.188-5.106,57.672
						s-0.735,2.767-0.722,3.251c0.013,0.484,2.172,2.69,2.351,3.332c0.179,0.642-1.768,6.511-1.768,6.511l6.435,5.002"/>
				</g>
				<path style="fill:#92E3A9;stroke:#263238;stroke-linecap:round;stroke-linejoin:round;stroke-miterlimit:10;" d="
					M129.181,197.04l1.169,7.566c0,0,5.233,14.57,5.428,15.857c0.196,1.288,1.288,5.946,2.427,12.381
					c1.139,6.435,1.311,43.604,1.698,46.018c0.387,2.414,0.294,5.003-0.641,6.32c-0.935,1.318-7.366,2.618-7.85,2.631
					c-0.484,0.013-41.215-0.045-42.358-0.5c-1.143-0.455-2.997-3.315-2.406-5.432c0.591-2.117,1.309-5.53,1.309-5.53
					s-4.564-68.893-3.642-70.695c0.922-1.802,21.935-20.135,21.935-20.135l19.097,13.234L129.181,197.04z"/>
				<g>
					<path style="fill:#FFFFFF;stroke:#263238;stroke-linecap:round;stroke-linejoin:round;stroke-miterlimit:10;" d="
						M140.695,146.476c0,0,3.639,6.726,3.187,8.876c-0.452,2.15-3.103,5.885-2.238,7.797c0.865,1.912,4.847,6.185,4.282,7.93
						c-0.565,1.746-3.274,3.243-3.274,3.243s-0.988,5.015-2.538,8.008c-1.55,2.993-2.715,5.162-4.862,4.812
						c-2.147-0.351-5.119-1.087-5.119-1.087l-3.172,7.109l-0.68,1.24l-17.385-14.508l1.242-6.956c0,0-5.077-3.328-6.63-8.174
						c-1.553-4.846-2.038-15.524-1.594-17.979c0.444-2.455,8.013-8.865,15.823-9.988c7.81-1.122,19.583,1.316,19.583,1.316
						s-2.008-2.798-0.37-2.434c1.639,0.364,2.576,1.154,2.589,1.662c0.013,0.509,0.859-2.161,1.933-0.051
						c1.074,2.11,0.785,6.597,0.785,6.597s3.151-0.185,2.364,0.854C143.833,145.782,140.695,146.476,140.695,146.476z"/>
					<path style="fill:#263238;stroke:#263238;stroke-linecap:round;stroke-linejoin:round;stroke-miterlimit:10;" d="
						M142.255,143.889c0,0,0.289-4.488-0.785-6.597c-1.074-2.11-1.92,0.56-1.933,0.051c-0.013-0.509-0.951-1.298-2.589-1.663
						c-1.638-0.364,0.37,2.434,0.37,2.434s-11.773-2.439-19.583-1.316c-7.81,1.122-15.379,7.532-15.823,9.988
						c-0.444,2.455,0.041,13.133,1.594,17.979s6.63,8.174,6.63,8.174s1.561,1.282,2.597,1.968c1.036,0.685,8.79-2.573,8.79-2.573
						s-0.618-0.289-2.707-2.27c-2.089-1.981-1.264-9.333,1.547-10.833c2.811-1.499,4.375,3.754,4.892,4.045
						c0.517,0.292,1.917-0.661,2.195-1.687c0.278-1.025-0.814-3.847,0.051-5.805c0.865-1.957,4.311-2.557,4.311-2.557
						s0,0,0.889-1.042c0.889-1.041-3.133-2.972-4.932-5.571c-1.799-2.6,1.448-2.991,4.608-2.871c3.159,0.12,8.319,2.733,8.319,2.733
						s3.138-0.694,3.925-1.732C145.407,143.704,142.255,143.889,142.255,143.889z"/>
					<path d="M139.473,161.933c0.032,1.208-0.352,2.198-0.858,2.212c-0.506,0.013-0.941-0.955-0.973-2.163
						c-0.032-1.208,0.352-2.198,0.858-2.212C139.006,159.756,139.441,160.725,139.473,161.933z"/>
					<path style="fill:none;stroke:#263238;stroke-linecap:round;stroke-linejoin:round;stroke-miterlimit:10;" d="M142.079,156.519
						c0,0-1.502-2.913-5.312-0.674"/>
					<path style="fill:none;stroke:#263238;stroke-linecap:round;stroke-linejoin:round;stroke-miterlimit:10;" d="M140.343,175.604
						c0,0-3.111,1.711-5.358-2.404"/>
					<polygon style="stroke:#263238;stroke-linecap:round;stroke-linejoin:round;stroke-miterlimit:10;" points="130.131,186.054 
						127.087,182.571 128.107,190.384 					"/>
				</g>
				<polygon style="fill:#92E3A9;stroke:#263238;stroke-linecap:round;stroke-linejoin:round;stroke-miterlimit:10;" points="
					108.894,179.895 104.831,186.853 125.288,208.779 129.181,197.04 				"/>
				<g>
					<polygon style="fill:#FFFFFF;stroke:#263238;stroke-linecap:round;stroke-linejoin:round;stroke-miterlimit:10;" points="
						149.436,222.729 150.218,243.199 143.7,241.603 					"/>
					
						<rect x="123.285" y="212.603" transform="matrix(0.9713 0.2378 -0.2378 0.9713 58.2333 -25.7068)" style="fill:#FFFFFF;stroke:#263238;stroke-linecap:round;stroke-linejoin:round;stroke-miterlimit:10;" width="24.745" height="31.778"/>
					
						<rect x="126.577" y="215.594" transform="matrix(0.9713 0.2378 -0.2378 0.9713 58.2338 -25.707)" style="fill:#FFFFFF;stroke:#263238;stroke-linecap:round;stroke-linejoin:round;stroke-miterlimit:10;" width="18.161" height="25.796"/>
				</g>
				<g>
					
						<rect x="122.758" y="221.647" transform="matrix(0.9663 -0.2572 0.2572 0.9663 -55.9652 41.7467)" style="fill:#92E3A9;stroke:#263238;stroke-miterlimit:10;" width="17.629" height="26.248"/>
					
						<rect x="121.743" y="221.918" transform="matrix(0.9663 -0.2572 0.2572 0.9663 -56.0689 41.4946)" style="fill:#FFFFFF;stroke:#263238;stroke-linecap:round;stroke-linejoin:round;stroke-miterlimit:10;" width="17.629" height="26.248"/>
					
						<rect x="120.292" y="222.304" transform="matrix(0.9663 -0.2572 0.2572 0.9663 -56.217 41.1345)" style="fill:#92E3A9;stroke:#263238;stroke-miterlimit:10;" width="17.629" height="26.248"/>
				</g>
				<g>
					
						<rect x="141.367" y="228.402" transform="matrix(0.9017 0.4323 -0.4323 0.9017 119.1802 -41.1898)" style="fill:#92E3A9;stroke:#263238;stroke-miterlimit:10;" width="17.629" height="26.248"/>
					
						<rect x="140.42" y="227.947" transform="matrix(0.9017 0.4323 -0.4323 0.9017 118.8907 -40.8248)" style="fill:#FFFFFF;stroke:#263238;stroke-linecap:round;stroke-linejoin:round;stroke-miterlimit:10;" width="17.629" height="26.248"/>
					
						<rect x="139.066" y="227.298" transform="matrix(0.9017 0.4323 -0.4323 0.9017 118.477 -40.3034)" style="fill:#92E3A9;stroke:#263238;stroke-miterlimit:10;" width="17.629" height="26.248"/>
				</g>
				<g>
					
						<rect x="116.78" y="234.072" transform="matrix(0.9997 -0.0264 0.0264 0.9997 -6.7657 3.8438)" style="fill:#C7C7C7;stroke:#263238;stroke-linecap:round;stroke-linejoin:round;stroke-miterlimit:10;" width="51.342" height="49.078"/>
					
						<rect x="156.836" y="233.544" transform="matrix(0.9997 -0.0263 0.0263 0.9997 -6.744 4.3708)" style="fill:#A8A8A8;stroke:#263238;stroke-linecap:round;stroke-linejoin:round;stroke-miterlimit:10;" width="11.279" height="49.078"/>
				</g>
				<g>
					<g>
						<path style="fill:#92E3A9;stroke:#263238;stroke-linecap:round;stroke-linejoin:round;stroke-miterlimit:10;" d="
							M86.721,204.947c0,0-4.799,1.904-5.245,3.371c-0.446,1.466-4.469,45.049-4.618,45.538c-0.149,0.489-3.723,12.058-2.218,13.958
							c1.505,1.9,16.98,12.644,27.551,15.113s19.815,3.68,19.815,3.68l4.28-9.325l-5.377-1.636c0,0-2.508-3.166-9.886-7.174
							c-7.379-4.008-12.156-7.438-12.156-7.438s2.231-1.19,0.735-2.767c-1.496-1.577-2.814-2.512-2.814-2.512
							s5.278-20.504,6.48-23.929c1.203-3.426,2.481-22.369-4.868-25.247"/>
						<path style="fill:none;stroke:#263238;stroke-linecap:round;stroke-linejoin:round;stroke-miterlimit:10;" d="
							M101.645,237.687c0,0,8.368-13.635,8.262-11.531c-0.106,2.104-1.504,4.242-1.504,4.242"/>
						
							<line style="fill:none;stroke:#263238;stroke-linecap:round;stroke-linejoin:round;stroke-miterlimit:10;" x1="101.543" y1="239.952" x2="108.714" y2="236.046"/>
						
							<line style="fill:none;stroke:#263238;stroke-linecap:round;stroke-linejoin:round;stroke-miterlimit:10;" x1="120.909" y1="275.645" x2="117.765" y2="285.102"/>
						<path style="fill:none;stroke:#263238;stroke-linecap:round;stroke-linejoin:round;stroke-miterlimit:10;" d="M96.937,261.408
							c0,0-5.53-1.309-9.368,0.247"/>
						<path style="fill:none;stroke:#263238;stroke-linecap:round;stroke-linejoin:round;stroke-miterlimit:10;" d="M96.788,255.755
							c0,0-4.828,0.774-5.462,1.275"/>
					</g>
					<path style="fill:#FFFFFF;stroke:#263238;stroke-linecap:round;stroke-linejoin:round;stroke-miterlimit:10;" d="
						M126.286,277.281l7.314-4.557c0,0,1.241-1.972,2.52-2.491c1.279-0.519,9.631-2.517,9.631-2.517s3.477-3.001,3.698-0.744
						c0.221,2.257-1.989,4.255-1.989,4.255l-5.767,1.93c0,0,5.253,3.094,5.746,3.404c0.493,0.31,8.412,6.405,8.412,6.405
						s0.531,1.764-2.044,2.155c-2.576,0.391-5.011-0.03-5.011-0.03s-5.253,3.048-6.537,3.405c-1.284,0.357-6.116,0.969-10.847-0.684
						c-4.731-1.653-8.488-3.17-8.488-3.17L126.286,277.281z"/>
				</g>
			</g>
			<g>
				<path style="fill:#FFFFFF;stroke:#263238;stroke-linecap:round;stroke-linejoin:round;stroke-miterlimit:10;" d="
					M99.878,191.482c-0.169-0.742-1.37-4.062-3.247-3.168c-1.877,0.894-1.793,1.842-1.349,2.675
					c0.444,0.833,1.144,3.348,2.421,3.737C98.98,195.114,100.833,195.679,99.878,191.482z"/>
				<path style="fill:#FFFFFF;stroke:#263238;stroke-linecap:round;stroke-linejoin:round;stroke-miterlimit:10;" d="
					M91.306,194.983c0,0-2.972,2.059-2.823,3.058c0.149,0.999,1.294,2.372,1.681,3.063c0.388,0.692,1.987,0.649,2.204-0.459
					c0.217-1.109-0.323-2.899-0.323-2.899S91.037,196.017,91.306,194.983z"/>
				<path style="fill:#FFFFFF;stroke:#263238;stroke-linecap:round;stroke-linejoin:round;stroke-miterlimit:10;" d="
					M93.593,192.573c0,0-2.972,2.059-2.823,3.058c0.149,0.999,1.294,2.372,1.681,3.063c0.388,0.692,1.987,0.649,2.204-0.459
					c0.217-1.108-0.323-2.899-0.323-2.899S93.323,193.607,93.593,192.573z"/>
				<path style="fill:#FFFFFF;stroke:#263238;stroke-linecap:round;stroke-linejoin:round;stroke-miterlimit:10;" d="
					M95.282,190.989c0,0-2.325,0.794-2.508,1.855c-0.183,1.061,1.74,4.352,3.011,4.53s3-1.621,1.918-2.648
					C96.62,193.698,95.282,190.989,95.282,190.989z"/>
			</g>
		</g>
	</g>
</g>
</svg>
