<?xml version="1.0" encoding="utf-8"?>
<!-- Generator: Adobe Illustrator 27.5.0, SVG Export Plug-In . SVG Version: 6.00 Build 0)  -->
<svg version="1.1" xmlns="http://www.w3.org/2000/svg" xmlns:xlink="http://www.w3.org/1999/xlink" x="0px" y="0px"
	 viewBox="0 0 750 500" style="enable-background:new 0 0 750 500;" xml:space="preserve">
<g id="Background_Simple">
	<g>
		<path style="fill:#92E3A9;" d="M650.325,401.516c33.006-26.462,52.013-66.635,52.597-108.935
			c0.369-26.663-1.547-60.161-10.502-88.818C662.876,109.223,579.412,57.946,518.351,47.01
			c-61.061-10.936-123.945,9.113-171.335,41.011c-47.391,31.897-42.834,26.429-123.945,14.582
			c-81.111-11.848-147.64,22.784-169.512,86.579s44.648,99.947,51.943,133.363c7.295,33.416-5.464,92.654,121.215,107.236
			s164.956-56.504,227.839-36.454C505.158,409.459,580.545,457.46,650.325,401.516z"/>
		<path style="opacity:0.7;fill:#FFFFFF;" d="M650.325,401.516c33.006-26.462,52.013-66.635,52.597-108.935
			c0.369-26.663-1.547-60.161-10.502-88.818C662.876,109.223,579.412,57.946,518.351,47.01
			c-61.061-10.936-123.945,9.113-171.335,41.011c-47.391,31.897-42.834,26.429-123.945,14.582
			c-81.111-11.848-147.64,22.784-169.512,86.579s44.648,99.947,51.943,133.363c7.295,33.416-5.464,92.654,121.215,107.236
			s164.956-56.504,227.839-36.454C505.158,409.459,580.545,457.46,650.325,401.516z"/>
	</g>
</g>
<g id="Graphics">
	<path style="opacity:0.3;fill:none;stroke:#000000;stroke-miterlimit:10;" d="M396.506,295.779v-5.666
		c0-11.187-7.442-15.146-15.047-15.146c-7.754,0-14.879,5.7-14.879,15.146v5.666h-2.118v31.38h33.995v-31.38H396.506z
		 M382.463,313.025v5.685h-3.22v-5.685c-1.572-0.637-2.683-2.174-2.683-3.975c0-2.371,1.922-4.293,4.293-4.293
		c2.371,0,4.293,1.922,4.293,4.293C385.146,310.851,384.035,312.388,382.463,313.025z M391.795,295.779h-20.672v-5.666
		c0-5.699,4.637-10.336,10.336-10.336c5.699,0,10.336,3.9,10.336,10.336V295.779z"/>
	<g>
		<path style="opacity:0.3;fill:none;stroke:#000000;stroke-miterlimit:10;" d="M658.445,65.628h-96.354
			c-7.442,0-13.475-6.033-13.475-13.475v0c0-7.442,6.033-13.475,13.475-13.475h96.354c7.442,0,13.475,6.033,13.475,13.475v0
			C671.92,59.595,665.887,65.628,658.445,65.628z"/>
		<g style="opacity:0.3;">
			<path d="M574.255,50.899L577.065,54l-1.351,1.008l-2.095-3.685l-2.067,3.685L570.2,54l2.783-3.101l-4.109-0.848l0.503-1.618
				l3.87,1.697l-0.477-4.188h1.697l-0.45,4.188l3.87-1.669l0.503,1.616L574.255,50.899z"/>
			<path d="M584.722,50.899L587.532,54l-1.352,1.008l-2.095-3.685l-2.068,3.685L580.666,54l2.784-3.101l-4.109-0.848l0.503-1.618
				l3.87,1.697l-0.477-4.188h1.697l-0.45,4.188l3.87-1.669l0.503,1.616L584.722,50.899z"/>
			<path d="M595.191,50.899L598,54l-1.352,1.008l-2.095-3.685l-2.068,3.685L591.135,54l2.784-3.101l-4.109-0.848l0.503-1.618
				l3.87,1.697l-0.477-4.188h1.697l-0.45,4.188l3.87-1.669l0.503,1.616L595.191,50.899z"/>
			<path d="M605.657,50.899L608.467,54l-1.352,1.008l-2.095-3.685l-2.068,3.685L601.602,54l2.784-3.101l-4.109-0.848l0.503-1.618
				l3.87,1.697l-0.477-4.188h1.697l-0.45,4.188l3.87-1.669l0.503,1.616L605.657,50.899z"/>
			<path d="M616.126,50.899L618.935,54l-1.352,1.008l-2.095-3.685l-2.068,3.685L612.07,54l2.784-3.101l-4.109-0.848l0.503-1.618
				l3.87,1.697l-0.477-4.188h1.697l-0.45,4.188l3.87-1.669l0.503,1.616L616.126,50.899z"/>
			<path d="M626.593,50.899L629.402,54l-1.351,1.008l-2.095-3.685l-2.068,3.685L622.537,54l2.784-3.101l-4.109-0.848l0.503-1.618
				l3.87,1.697l-0.477-4.188h1.697l-0.45,4.188l3.87-1.669l0.503,1.616L626.593,50.899z"/>
			<path d="M637.061,50.899L639.87,54l-1.352,1.008l-2.095-3.685l-2.068,3.685L633.005,54l2.784-3.101l-4.109-0.848l0.503-1.618
				l3.87,1.697l-0.477-4.188h1.697l-0.45,4.188l3.87-1.669l0.503,1.616L637.061,50.899z"/>
			<path d="M647.528,50.899L650.337,54l-1.352,1.008l-2.095-3.685l-2.068,3.685L643.472,54l2.784-3.101l-4.109-0.848l0.503-1.618
				l3.87,1.697l-0.477-4.188h1.697l-0.45,4.188l3.87-1.669l0.503,1.616L647.528,50.899z"/>
		</g>
	</g>
	<g style="opacity:0.3;">
		<path style="fill:none;stroke:#000000;stroke-miterlimit:10;" d="M38.817,127.807c0-2.66-2.156-4.817-4.817-4.817
			c-2.66,0-4.817,2.157-4.817,4.817c0,2.66,2.156,4.817,4.817,4.817C36.66,132.623,38.817,130.467,38.817,127.807z"/>
		<path style="fill:none;stroke:#000000;stroke-miterlimit:10;" d="M78.955,127.807c0-2.66-2.156-4.817-4.817-4.817
			s-4.816,2.157-4.816,4.817c0,2.66,2.156,4.817,4.816,4.817S78.955,130.467,78.955,127.807z"/>
		<circle style="fill:none;stroke:#000000;stroke-miterlimit:10;" cx="114.276" cy="127.807" r="4.817"/>
		<path style="fill:none;stroke:#000000;stroke-miterlimit:10;" d="M38.817,158.312c0-2.66-2.156-4.816-4.817-4.816
			c-2.66,0-4.817,2.156-4.817,4.816c0,2.66,2.156,4.817,4.817,4.817C36.66,163.128,38.817,160.972,38.817,158.312z"/>
		<path style="fill:none;stroke:#000000;stroke-miterlimit:10;" d="M78.955,158.312c0-2.66-2.156-4.816-4.817-4.816
			s-4.816,2.156-4.816,4.816c0,2.66,2.156,4.817,4.816,4.817S78.955,160.972,78.955,158.312z"/>
		<path style="fill:none;stroke:#000000;stroke-miterlimit:10;" d="M119.093,158.312c0-2.66-2.156-4.816-4.817-4.816
			s-4.817,2.156-4.817,4.816c0,2.66,2.156,4.817,4.817,4.817S119.093,160.972,119.093,158.312z"/>
		<path style="fill:none;stroke:#000000;stroke-miterlimit:10;" d="M38.817,188.817c0-2.66-2.156-4.817-4.817-4.817
			c-2.66,0-4.817,2.156-4.817,4.817c0,2.66,2.156,4.816,4.817,4.816C36.66,193.633,38.817,191.477,38.817,188.817z"/>
		<path style="fill:none;stroke:#000000;stroke-miterlimit:10;" d="M78.955,188.817c0-2.66-2.156-4.817-4.817-4.817
			s-4.816,2.156-4.816,4.817c0,2.66,2.156,4.816,4.816,4.816S78.955,191.477,78.955,188.817z"/>
		<path style="fill:none;stroke:#000000;stroke-miterlimit:10;" d="M119.093,188.817c0-2.66-2.156-4.817-4.817-4.817
			s-4.817,2.156-4.817,4.817c0,2.66,2.156,4.816,4.817,4.816S119.093,191.477,119.093,188.817z"/>
	</g>
	<g>
		
			<ellipse transform="matrix(0.7071 -0.7071 0.7071 0.7071 68.0095 530.1894)" style="opacity:0.3;fill:none;stroke:#000000;stroke-miterlimit:10;" cx="674" cy="183" rx="21.611" ry="21.611"/>
		<g style="opacity:0.3;">
			<path style="fill:none;stroke:#000000;stroke-miterlimit:10;" d="M676.225,196.706l-0.008,2.094l-3.623-0.014l0.008-2.094
				c-3.137-0.656-4.738-3.079-4.723-6.903l0.004-0.886l4.187,0.017l-0.005,1.167c-0.008,2.013,0.794,2.781,2.203,2.787
				c1.409,0.006,2.217-0.756,2.225-2.769c0.023-5.797-8.631-6.114-8.599-14.166c0.015-3.825,1.676-6.274,4.818-6.906l0.008-2.053
				l3.623,0.015l-0.008,2.053c3.178,0.657,4.779,3.119,4.763,6.944l-0.008,1.933l-4.187-0.017l0.009-2.214
				c0.008-2.013-0.875-2.742-2.284-2.747c-1.409-0.006-2.298,0.716-2.306,2.729c-0.023,5.797,8.632,6.114,8.599,14.166
				C680.908,193.625,679.329,196.035,676.225,196.706z"/>
		</g>
	</g>
	<g>
		
			<ellipse transform="matrix(0.7071 -0.7071 0.7071 0.7071 -157.2173 380.2144)" style="opacity:0.3;fill:none;stroke:#000000;stroke-miterlimit:10;" cx="380.351" cy="379.885" rx="13.885" ry="13.885"/>
		<g style="opacity:0.3;">
			<path style="fill:none;stroke:#000000;stroke-miterlimit:10;" d="M381.78,388.692l-0.005,1.345l-2.328-0.009l0.005-1.345
				c-2.016-0.422-3.044-1.978-3.035-4.435l0.002-0.569l2.69,0.011l-0.003,0.75c-0.005,1.293,0.51,1.787,1.416,1.791
				c0.906,0.004,1.425-0.486,1.43-1.779c0.015-3.725-5.546-3.928-5.525-9.102c0.01-2.457,1.077-4.031,3.096-4.437l0.005-1.319
				l2.328,0.009l-0.005,1.319c2.042,0.422,3.07,2.004,3.06,4.461l-0.005,1.242l-2.69-0.011l0.006-1.423
				c0.005-1.293-0.562-1.762-1.467-1.765c-0.906-0.004-1.477,0.46-1.482,1.753c-0.015,3.725,5.546,3.928,5.525,9.102
				C384.789,386.712,383.774,388.26,381.78,388.692z"/>
		</g>
	</g>
	<g>
		<path style="opacity:0.3;fill:none;stroke:#000000;stroke-miterlimit:10;" d="M484.388,60.146
			c7.668,0.031,13.91-6.161,13.941-13.829c0.031-7.669-6.161-13.91-13.83-13.941c-7.668-0.031-13.91,6.161-13.941,13.83
			C470.528,53.874,476.719,60.116,484.388,60.146z"/>
		<g style="opacity:0.3;">
			<path style="fill:none;stroke:#000000;stroke-miterlimit:10;" d="M485.873,55.068l-0.005,1.345l-2.328-0.009l0.005-1.345
				c-2.016-0.422-3.044-1.978-3.035-4.435l0.002-0.569l2.69,0.011l-0.003,0.75c-0.005,1.293,0.51,1.787,1.416,1.791
				c0.905,0.004,1.425-0.486,1.43-1.779c0.015-3.725-5.546-3.928-5.525-9.102c0.01-2.457,1.077-4.031,3.096-4.437l0.005-1.319
				l2.328,0.009l-0.005,1.319c2.042,0.422,3.07,2.004,3.06,4.461L489,43l-2.69-0.011l0.006-1.423
				c0.005-1.293-0.562-1.762-1.467-1.765c-0.906-0.004-1.476,0.46-1.482,1.753c-0.015,3.725,5.546,3.928,5.525,9.102
				C488.882,53.088,487.867,54.636,485.873,55.068z"/>
		</g>
	</g>
	<g>
		
			<ellipse transform="matrix(0.7071 -0.7071 0.7071 0.7071 -38.1886 78.3068)" style="opacity:0.3;fill:none;stroke:#000000;stroke-miterlimit:10;" cx="75.43" cy="85.251" rx="18.443" ry="18.443"/>
		<g style="opacity:0.3;">
			<path style="fill:none;stroke:#000000;stroke-miterlimit:10;" d="M77.329,96.948l-0.007,1.787l-3.092-0.012l0.007-1.787
				c-2.677-0.56-4.044-2.627-4.031-5.891l0.003-0.756l3.573,0.014l-0.004,0.996c-0.007,1.718,0.678,2.373,1.88,2.378
				c1.203,0.005,1.892-0.645,1.899-2.363c0.02-4.947-7.366-5.217-7.338-12.089c0.013-3.264,1.43-5.354,4.112-5.893l0.007-1.752
				l3.092,0.012l-0.007,1.752c2.712,0.56,4.078,2.662,4.065,5.926l-0.007,1.649l-3.573-0.014l0.007-1.89
				c0.007-1.718-0.746-2.34-1.949-2.344C74.765,76.666,74.007,77.282,74,79c-0.02,4.947,7.366,5.217,7.339,12.089
				C81.326,94.318,79.978,96.374,77.329,96.948z"/>
		</g>
	</g>
</g>
<g id="Plant">
	<g>
		<path style="fill:none;stroke:#263238;stroke-width:2;stroke-linecap:round;stroke-linejoin:round;stroke-miterlimit:10;" d="
			M698.002,279.646c0,0-9.871-5.484-10.602,6.946c-0.731,12.43-2.559,115.543-2.559,115.543"/>
		<path style="fill:none;stroke:#263238;stroke-width:2;stroke-linecap:round;stroke-linejoin:round;stroke-miterlimit:10;" d="
			M682.273,287.687c0,0,8.051,40.231,4.395,113.351"/>
		<g>
			<path style="fill:#92E3A9;" d="M690.183,282.147c0,0-3.776,2.419-5.924-0.35c-2.149-2.769,1.453-7.841-1.721-10.01
				c-3.175-2.169-8.655,1.141-8.655,1.141s4.221,1.24,4.085,3.544c-0.136,2.304-2.169,3.175-2.44,2.168
				c-0.271-1.007-2.284-6.08-5.711-3.97c-3.427,2.11-3.951,5.382-3.951,5.382s7.977-0.85,8.461,2.151
				c0.484,3.001-3.272-0.523-6.563-0.718c-3.291-0.194-6.292,0.289-6.08,2.284c0.213,1.994-0.311,5.266-0.311,5.266
				s2.789-2.478,6.409-2.264s3.484,2.518,0.193,2.323c-3.291-0.194-6.119,2.942-6.119,2.942s3,5.131,6.814,7.668
				c3.814,2.537,5.188,1.627,5.634-0.328c0.446-1.955-0.58-6.97,1.724-6.834c2.304,0.136-3.816,8.693-0.873,9.196
				c2.943,0.504,5.305-0.348,6.08-2.284c0.775-1.936,0.775-1.936,0.775-1.936s-1.025-5.015-0.58-6.97
				c0.446-1.955,0.987,0.058,1.51,2.401c0.522,2.343,0.851,7.977,1.857,7.706c1.007-0.271,4.221-4.375,4.977-5.982
				c0.755-1.607-4.239-6.526-4.181-7.513c0.058-0.987,3.911,0.891,4.511,1.918c0.6,1.026,1.18,2.382,1.18,2.382
				s2.401-1.51,2.344-6.137C693.571,280.696,690.183,282.147,690.183,282.147z"/>
			<path style="opacity:0.3;fill:#263238;" d="M690.183,282.147c0,0-3.776,2.419-5.924-0.35c-2.149-2.769,1.453-7.841-1.721-10.01
				c-3.175-2.169-8.655,1.141-8.655,1.141s4.221,1.24,4.085,3.544c-0.136,2.304-2.169,3.175-2.44,2.168
				c-0.271-1.007-2.284-6.08-5.711-3.97c-3.427,2.11-3.951,5.382-3.951,5.382s7.977-0.85,8.461,2.151
				c0.484,3.001-3.272-0.523-6.563-0.718c-3.291-0.194-6.292,0.289-6.08,2.284c0.213,1.994-0.311,5.266-0.311,5.266
				s2.789-2.478,6.409-2.264s3.484,2.518,0.193,2.323c-3.291-0.194-6.119,2.942-6.119,2.942s3,5.131,6.814,7.668
				c3.814,2.537,5.188,1.627,5.634-0.328c0.446-1.955-0.58-6.97,1.724-6.834c2.304,0.136-3.816,8.693-0.873,9.196
				c2.943,0.504,5.305-0.348,6.08-2.284c0.775-1.936,0.775-1.936,0.775-1.936s-1.025-5.015-0.58-6.97
				c0.446-1.955,0.987,0.058,1.51,2.401c0.522,2.343,0.851,7.977,1.857,7.706c1.007-0.271,4.221-4.375,4.977-5.982
				c0.755-1.607-4.239-6.526-4.181-7.513c0.058-0.987,3.911,0.891,4.511,1.918c0.6,1.026,1.18,2.382,1.18,2.382
				s2.401-1.51,2.344-6.137C693.571,280.696,690.183,282.147,690.183,282.147z"/>
			<path style="fill:none;stroke:#263238;stroke-linecap:round;stroke-linejoin:round;stroke-miterlimit:10;" d="M671.041,292.998
				c2.462-3.044,6.091-7.163,9.132-9.129"/>
			<path style="fill:none;stroke:#263238;stroke-linecap:round;stroke-linejoin:round;stroke-miterlimit:10;" d="M668.186,296.703
				c0,0,0.632-0.879,1.657-2.196"/>
			<path style="fill:none;stroke:#263238;stroke-linecap:round;stroke-linejoin:round;stroke-miterlimit:10;" d="M681.78,284.624
				c0,0,3.658,5.17,4.335,10.494"/>
			<path style="fill:none;stroke:#263238;stroke-linecap:round;stroke-linejoin:round;stroke-miterlimit:10;" d="M677.636,287.683
				c0,0,1.026-0.6,0.638,5.983"/>
			<path style="fill:none;stroke:#263238;stroke-linecap:round;stroke-linejoin:round;stroke-miterlimit:10;" d="M680.309,281.565
				c0,0,2.091-1.858,0.988-5.557"/>
			
				<line style="fill:none;stroke:#263238;stroke-linecap:round;stroke-linejoin:round;stroke-miterlimit:10;" x1="677.482" y1="284.701" x2="675.991" y2="281.971"/>
			<path style="fill:none;stroke:#263238;stroke-linecap:round;stroke-linejoin:round;stroke-miterlimit:10;" d="M674.345,287.488
				c0,0-4.743-3.583-7.705-3.757"/>
		</g>
		<g>
			<path style="fill:#92E3A9;" d="M703.641,272.392c0,0-0.151,5.43-4.388,5.693c-4.237,0.264-6.86-6.8-11.195-5.1
				c-4.336,1.7-4.757,9.443-4.757,9.443s4.118-3.381,6.332-1.674c2.214,1.706,1.7,4.336,0.508,3.921s-7.644-1.858-7.867,3.012
				c-0.224,4.87,2.695,7.624,2.695,7.624s4.586-8.566,7.92-7.005c3.334,1.561-2.754,2.919-5.192,6.082
				c-2.438,3.163-3.999,6.497-1.858,7.644c2.142,1.146,5.061,3.9,5.061,3.9s-0.58-4.481,2.102-7.96
				c2.682-3.479,4.896-1.773,2.458,1.39c-2.438,3.163-1.225,8.131-1.225,8.131s7.182,0.494,12.322-1.595
				c5.14-2.089,5.166-4.086,3.512-5.865c-1.654-1.779-7.374-4.171-5.667-6.385c1.706-2.214,6.102,9.745,8.612,7.142
				c2.51-2.603,3.268-5.548,1.858-7.644c-1.41-2.095-1.41-2.095-1.41-2.095s-5.72-2.392-7.374-4.171
				c-1.654-1.779,0.731-0.949,3.433,0.125c2.702,1.074,8.566,4.586,8.981,3.393c0.415-1.193-1.503-7.209-2.597-9.06
				c-1.094-1.852-9.423-0.204-10.372-0.935c-0.949-0.731,3.558-3.308,4.995-3.209c1.437,0.099,3.189,0.441,3.189,0.441
				s0.125-3.433-4.547-6.53C704.498,268.01,703.641,272.392,703.641,272.392z"/>
			<path style="opacity:0.2;fill:#263238;" d="M703.641,272.392c0,0-0.151,5.43-4.388,5.693c-4.237,0.264-6.86-6.8-11.195-5.1
				c-4.336,1.7-4.757,9.443-4.757,9.443s4.118-3.381,6.332-1.674c2.214,1.706,1.7,4.336,0.508,3.921s-7.644-1.858-7.867,3.012
				c-0.224,4.87,2.695,7.624,2.695,7.624s4.586-8.566,7.92-7.005c3.334,1.561-2.754,2.919-5.192,6.082
				c-2.438,3.163-3.999,6.497-1.858,7.644c2.142,1.146,5.061,3.9,5.061,3.9s-0.58-4.481,2.102-7.96
				c2.682-3.479,4.896-1.773,2.458,1.39c-2.438,3.163-1.225,8.131-1.225,8.131s7.182,0.494,12.322-1.595
				c5.14-2.089,5.166-4.086,3.512-5.865c-1.654-1.779-7.374-4.171-5.667-6.385c1.706-2.214,6.102,9.745,8.612,7.142
				c2.51-2.603,3.268-5.548,1.858-7.644c-1.41-2.095-1.41-2.095-1.41-2.095s-5.72-2.392-7.374-4.171
				c-1.654-1.779,0.731-0.949,3.433,0.125c2.702,1.074,8.566,4.586,8.981,3.393c0.415-1.193-1.503-7.209-2.597-9.06
				c-1.094-1.852-9.423-0.204-10.372-0.935c-0.949-0.731,3.558-3.308,4.995-3.209c1.437,0.099,3.189,0.441,3.189,0.441
				s0.125-3.433-4.547-6.53C704.498,268.01,703.641,272.392,703.641,272.392z"/>
			<path style="fill:none;stroke:#263238;stroke-linecap:round;stroke-linejoin:round;stroke-miterlimit:10;" d="M701.457,298.953
				c-1.369-4.54-3.02-10.981-2.915-15.366"/>
			<path style="fill:none;stroke:#263238;stroke-linecap:round;stroke-linejoin:round;stroke-miterlimit:10;" d="M703.221,304.337
				c0,0-0.449-1.232-1.069-3.156"/>
			<path style="fill:none;stroke:#263238;stroke-linecap:round;stroke-linejoin:round;stroke-miterlimit:10;" d="M700.393,282.494
				c0,0,7.67-0.139,13.462,2.813"/>
			<path style="fill:none;stroke:#263238;stroke-linecap:round;stroke-linejoin:round;stroke-miterlimit:10;" d="M700.631,288.727
				c0,0,0.099-1.436,6.425,3.439"/>
			<path style="fill:none;stroke:#263238;stroke-linecap:round;stroke-linejoin:round;stroke-miterlimit:10;" d="M696.328,281.881
				c0,0-0.435-3.361-4.889-4.777"/>
			
				<line style="fill:none;stroke:#263238;stroke-linecap:round;stroke-linejoin:round;stroke-miterlimit:10;" x1="697.54" y1="286.85" x2="693.791" y2="286.481"/>
			<path style="fill:none;stroke:#263238;stroke-linecap:round;stroke-linejoin:round;stroke-miterlimit:10;" d="M698.193,291.89
				c0,0-6.82,2.307-9.014,5.153"/>
		</g>
		<path style="fill:none;stroke:#263238;stroke-width:2;stroke-linecap:round;stroke-linejoin:round;stroke-miterlimit:10;" d="
			M658.152,308.528c0,0,21.57,36.574,21.205,91.779"/>
		<g>
			<path style="fill:#92E3A9;" d="M684.747,304.761c0,0-0.687,6.251-5.601,6.156c-4.914-0.096-7.274-8.494-12.437-6.941
				c-5.163,1.553-6.38,10.447-6.38,10.447s5.071-3.512,7.465-1.334c2.394,2.178,1.553,5.164,0.216,4.572
				c-1.337-0.592-8.645-2.865-9.363,2.733c-0.718,5.598,2.391,9.052,2.391,9.052s6.1-9.452,9.8-7.336
				c3.7,2.117-3.454,3.109-6.565,6.528c-3.112,3.42-5.228,7.12-2.865,8.645c2.363,1.525,5.472,4.979,5.472,4.979
				s-0.246-5.225,3.176-8.987c3.423-3.762,5.817-1.584,2.705,1.836c-3.112,3.42-2.181,9.267-2.181,9.267s8.241,1.248,14.369-0.678
				c6.128-1.926,6.346-4.227,4.606-6.436c-1.741-2.209-8.115-5.509-5.937-7.902c2.178-2.394,6.122,11.821,9.264,9.055
				c3.142-2.767,4.295-6.094,2.865-8.645c-1.43-2.551-1.43-2.551-1.43-2.551s-6.374-3.3-8.115-5.509
				c-1.741-2.209,0.933-1.026,3.95,0.468c3.016,1.494,9.452,6.1,10.043,4.763c0.592-1.337-1.054-8.46-2.141-10.7
				c-1.088-2.24-10.854-1.124-11.88-2.058s4.418-3.481,6.066-3.232c1.648,0.25,3.638,0.81,3.638,0.81s0.468-3.95-4.63-7.964
				C686.149,299.785,684.747,304.761,684.747,304.761z"/>
			<path style="opacity:0.3;fill:#263238;" d="M684.747,304.761c0,0-0.687,6.251-5.601,6.156c-4.914-0.096-7.274-8.494-12.437-6.941
				c-5.163,1.553-6.38,10.447-6.38,10.447s5.071-3.512,7.465-1.334c2.394,2.178,1.553,5.164,0.216,4.572
				c-1.337-0.592-8.645-2.865-9.363,2.733c-0.718,5.598,2.391,9.052,2.391,9.052s6.1-9.452,9.8-7.336
				c3.7,2.117-3.454,3.109-6.565,6.528c-3.112,3.42-5.228,7.12-2.865,8.645c2.363,1.525,5.472,4.979,5.472,4.979
				s-0.246-5.225,3.176-8.987c3.423-3.762,5.817-1.584,2.705,1.836c-3.112,3.42-2.181,9.267-2.181,9.267s8.241,1.248,14.369-0.678
				c6.128-1.926,6.346-4.227,4.606-6.436c-1.741-2.209-8.115-5.509-5.937-7.902c2.178-2.394,6.122,11.821,9.264,9.055
				c3.142-2.767,4.295-6.094,2.865-8.645c-1.43-2.551-1.43-2.551-1.43-2.551s-6.374-3.3-8.115-5.509
				c-1.741-2.209,0.933-1.026,3.95,0.468c3.016,1.494,9.452,6.1,10.043,4.763c0.592-1.337-1.054-8.46-2.141-10.7
				c-1.088-2.24-10.854-1.124-11.88-2.058s4.418-3.481,6.066-3.232c1.648,0.25,3.638,0.81,3.638,0.81s0.468-3.95-4.63-7.964
				C686.149,299.785,684.747,304.761,684.747,304.761z"/>
			<path style="fill:none;stroke:#263238;stroke-linecap:round;stroke-linejoin:round;stroke-miterlimit:10;" d="M679.719,335.204
				c-1.152-5.368-2.448-12.956-1.913-18.006"/>
			<path style="fill:none;stroke:#263238;stroke-linecap:round;stroke-linejoin:round;stroke-miterlimit:10;" d="M681.247,341.583
				c0,0-0.402-1.464-0.936-3.743"/>
			<path style="fill:none;stroke:#263238;stroke-linecap:round;stroke-linejoin:round;stroke-miterlimit:10;" d="M680.046,316.111
				c0,0,8.863,0.564,15.268,4.516"/>
			<path style="fill:none;stroke:#263238;stroke-linecap:round;stroke-linejoin:round;stroke-miterlimit:10;" d="M679.732,323.326
				c0,0,0.25-1.648,7.089,4.575"/>
			<path style="fill:none;stroke:#263238;stroke-linecap:round;stroke-linejoin:round;stroke-miterlimit:10;" d="M675.412,315.02
				c0,0-0.185-3.919-5.191-5.974"/>
			
				<line style="fill:none;stroke:#263238;stroke-linecap:round;stroke-linejoin:round;stroke-miterlimit:10;" x1="676.343" y1="320.868" x2="672.051" y2="320.088"/>
			<path style="fill:none;stroke:#263238;stroke-linecap:round;stroke-linejoin:round;stroke-miterlimit:10;" d="M676.62,326.746
				c0,0-8.087,2.018-10.888,5.096"/>
		</g>
		<g>
			<path style="fill:#92E3A9;" d="M684.747,357.026c0,0-0.687,6.251-5.601,6.155c-4.914-0.095-7.274-8.494-12.437-6.941
				c-5.163,1.553-6.38,10.447-6.38,10.447s5.071-3.512,7.465-1.334c2.394,2.178,1.553,5.164,0.216,4.572
				c-1.337-0.592-8.645-2.865-9.363,2.733c-0.718,5.598,2.391,9.052,2.391,9.052s6.1-9.452,9.8-7.336
				c3.7,2.117-3.454,3.109-6.565,6.528c-3.112,3.42-5.228,7.12-2.865,8.645c2.363,1.525,5.472,4.979,5.472,4.979
				s-0.246-5.225,3.176-8.987c3.423-3.762,5.817-1.584,2.705,1.836c-3.112,3.42-2.181,9.267-2.181,9.267s8.241,1.248,14.369-0.678
				c6.128-1.926,6.346-4.227,4.606-6.436c-1.741-2.209-8.115-5.509-5.937-7.902c2.178-2.394,6.122,11.821,9.264,9.055
				c3.142-2.767,4.295-6.094,2.865-8.645c-1.43-2.551-1.43-2.551-1.43-2.551s-6.374-3.299-8.115-5.508
				c-1.741-2.209,0.933-1.026,3.95,0.468c3.016,1.494,9.452,6.1,10.043,4.763c0.592-1.337-1.054-8.46-2.141-10.7
				c-1.088-2.24-10.854-1.124-11.88-2.058c-1.026-0.933,4.418-3.481,6.066-3.232c1.648,0.25,3.638,0.81,3.638,0.81
				s0.468-3.95-4.63-7.964C686.149,352.05,684.747,357.026,684.747,357.026z"/>
			<path style="opacity:0.3;fill:#263238;" d="M684.747,357.026c0,0-0.687,6.251-5.601,6.155c-4.914-0.095-7.274-8.494-12.437-6.941
				c-5.163,1.553-6.38,10.447-6.38,10.447s5.071-3.512,7.465-1.334c2.394,2.178,1.553,5.164,0.216,4.572
				c-1.337-0.592-8.645-2.865-9.363,2.733c-0.718,5.598,2.391,9.052,2.391,9.052s6.1-9.452,9.8-7.336
				c3.7,2.117-3.454,3.109-6.565,6.528c-3.112,3.42-5.228,7.12-2.865,8.645c2.363,1.525,5.472,4.979,5.472,4.979
				s-0.246-5.225,3.176-8.987c3.423-3.762,5.817-1.584,2.705,1.836c-3.112,3.42-2.181,9.267-2.181,9.267s8.241,1.248,14.369-0.678
				c6.128-1.926,6.346-4.227,4.606-6.436c-1.741-2.209-8.115-5.509-5.937-7.902c2.178-2.394,6.122,11.821,9.264,9.055
				c3.142-2.767,4.295-6.094,2.865-8.645c-1.43-2.551-1.43-2.551-1.43-2.551s-6.374-3.299-8.115-5.508
				c-1.741-2.209,0.933-1.026,3.95,0.468c3.016,1.494,9.452,6.1,10.043,4.763c0.592-1.337-1.054-8.46-2.141-10.7
				c-1.088-2.24-10.854-1.124-11.88-2.058c-1.026-0.933,4.418-3.481,6.066-3.232c1.648,0.25,3.638,0.81,3.638,0.81
				s0.468-3.95-4.63-7.964C686.149,352.05,684.747,357.026,684.747,357.026z"/>
			<path style="fill:none;stroke:#263238;stroke-linecap:round;stroke-linejoin:round;stroke-miterlimit:10;" d="M679.719,387.469
				c-1.152-5.368-2.448-12.956-1.913-18.006"/>
			<path style="fill:none;stroke:#263238;stroke-linecap:round;stroke-linejoin:round;stroke-miterlimit:10;" d="M681.247,393.848
				c0,0-0.402-1.464-0.936-3.743"/>
			<path style="fill:none;stroke:#263238;stroke-linecap:round;stroke-linejoin:round;stroke-miterlimit:10;" d="M680.046,368.375
				c0,0,8.863,0.564,15.268,4.516"/>
			<path style="fill:none;stroke:#263238;stroke-linecap:round;stroke-linejoin:round;stroke-miterlimit:10;" d="M679.732,375.591
				c0,0,0.25-1.648,7.089,4.575"/>
			<path style="fill:none;stroke:#263238;stroke-linecap:round;stroke-linejoin:round;stroke-miterlimit:10;" d="M675.412,367.285
				c0,0-0.185-3.919-5.191-5.974"/>
			
				<line style="fill:none;stroke:#263238;stroke-linecap:round;stroke-linejoin:round;stroke-miterlimit:10;" x1="676.343" y1="373.132" x2="672.051" y2="372.353"/>
			<path style="fill:none;stroke:#263238;stroke-linecap:round;stroke-linejoin:round;stroke-miterlimit:10;" d="M676.62,379.01
				c0,0-8.087,2.018-10.888,5.096"/>
		</g>
		<path style="fill:none;stroke:#263238;stroke-width:2;stroke-linecap:round;stroke-linejoin:round;stroke-miterlimit:10;" d="
			M666.56,352.034c0,0,13.893,32.918,15.355,48.639l-2.925-74.962"/>
		<path style="fill:none;stroke:#263238;stroke-width:2;stroke-linecap:round;stroke-linejoin:round;stroke-miterlimit:10;" d="
			M700.196,344.356c-18.28-3.29-18.28,56.316-18.28,56.316"/>
		<path style="fill:none;stroke:#263238;stroke-width:2;stroke-linecap:round;stroke-linejoin:round;stroke-miterlimit:10;" d="
			M684.109,400.307c0,0-10.602-99.457,20.108-99.457"/>
		<g>
			<path style="fill:#92E3A9;" d="M693.23,342.139c-2.497-2.809-7.803-2.809-10.924,4.37c-3.121,7.179-0.312,5.93-0.312,5.93
				s5.93-1.873,9.676-3.121c3.745-1.249,8.739-4.37,9.052-2.497c0.312,1.873-2.497,3.746-5.93,4.37
				c-3.433,0.624-12.485,3.121-11.549,4.994c0.936,1.873,3.121,7.491,3.121,7.491s4.37-3.746,8.427-6.242
				c4.057-2.497,6.555-1.561,4.37,1.249c-2.185,2.809-8.427,5.93-7.179,9.676c1.248,3.745,8.74,8.427,8.74,8.427
				s0.936-7.803,3.121-10.3c2.185-2.497,2.185,0.312,1.561,4.682c-0.624,4.37-0.624,5.618-0.624,5.618l8.739,3.121
				c0,0,3.121-4.682,4.682-6.242c1.561-1.561,1.561-1.561,1.561-1.561s-6.867-5.93-7.179-9.676c-0.312-3.745,4.682,0,6.242,0.624
				c1.561,0.624,4.058,4.994,4.058,4.994s1.561-7.179,1.873-9.676c0.312-2.497,0.312-2.497,0.312-2.497s-6.555-2.497-9.052-2.497
				c-2.497,0-3.745,1.873-3.745-0.624c0-2.497,2.497-4.057,5.306-3.745c2.809,0.312,7.491,1.873,7.491,1.873
				s1.873-1.561,1.248-6.242c-0.624-4.682-2.185-4.682-5.93-3.433c-3.745,1.249-6.242,4.058-9.052,4.058
				c-2.809,0-1.248-3.433,0.624-4.37c1.873-0.936,6.555-2.809,7.491-3.121c0.936-0.312-4.994-4.682-8.115-5.306
				c-3.121-0.624-7.163,1.575-6.867,4.682C705.091,343.699,695.727,344.948,693.23,342.139z"/>
			<path style="fill:none;stroke:#263238;stroke-linecap:round;stroke-linejoin:round;stroke-miterlimit:10;" d="M713.322,374.276
				c0.093,0.94,0.16,1.882,0.196,2.821"/>
			<path style="fill:none;stroke:#263238;stroke-linecap:round;stroke-linejoin:round;stroke-miterlimit:10;" d="M707.052,351.869
				c2.192,5.066,4.727,12.051,5.875,19.341"/>
			<path style="fill:none;stroke:#263238;stroke-linecap:round;stroke-linejoin:round;stroke-miterlimit:10;" d="M705.928,349.364
				c-1.546-3.325-2.71-5.352-2.71-5.352s2.809-1.249,4.058-3.745c1.248-2.497,3.121-3.746,3.121-3.746"/>
			<path style="fill:none;stroke:#263238;stroke-linecap:round;stroke-linejoin:round;stroke-miterlimit:10;" d="M692.294,354.624
				c0,0,11.236-4.682,11.236-3.745"/>
			<path style="fill:none;stroke:#263238;stroke-linecap:round;stroke-linejoin:round;stroke-miterlimit:10;" d="M709.772,348.693
				c0,0,4.994-2.497,9.364-2.497"/>
			<path style="fill:none;stroke:#263238;stroke-linecap:round;stroke-linejoin:round;stroke-miterlimit:10;" d="M707.9,356.184
				c0,0-2.809,2.185-5.93,5.93c-3.121,3.745-4.37,7.179-4.37,7.179"/>
			<path style="fill:none;stroke:#263238;stroke-linecap:round;stroke-linejoin:round;stroke-miterlimit:10;" d="M711.333,357.433
				c0,0,6.555-1.873,9.988,1.249"/>
		</g>
		<g>
			<path style="fill:#92E3A9;" d="M723.206,315.259c-3.398-2.01-7.156-2.054-8.998-4.175c-1.842-2.121,1.774-3.194,3.709-2.393
				s6.418,3.108,7.268,3.611s0.261-6.84-1.313-9.607c-1.575-2.766-5.885-4.376-8.037-2.116c-4.54,4.768-11.622-1.484-11.137-5.211
				c0.484-3.727-2.994-7.734-10.461-5.385c-7.467,2.349-4.683,3.652-4.683,3.652s5.302,3.251,8.7,5.26
				c3.398,2.01,9.029,3.735,7.819,5.198c-1.21,1.463-4.465,0.57-7.187-1.614c-2.722-2.183-10.542-7.382-11.342-5.447
				c-0.8,1.935-3.61,7.268-3.61,7.268s5.693,0.844,10.238,2.271c4.545,1.427,5.475,3.927,1.922,4.118
				c-3.554,0.192-10.003-2.476-12.013,0.922c-2.01,3.398-0.635,12.124-0.635,12.124s6.506-4.408,9.824-4.395
				c3.318,0.013,1.197,1.854-2.512,4.248c-3.709,2.393-4.652,3.212-4.652,3.212l3.372,8.646c0,0,5.582-0.712,7.783-0.557
				c2.201,0.155,2.201,0.155,2.201,0.155s-0.023-9.073,2.6-11.764s3.069,3.535,3.621,5.123c0.552,1.588-1.111,6.338-1.111,6.338
				s6.444-3.528,8.534-4.929c2.09-1.401,2.09-1.401,2.09-1.401s-2.411-6.587-4.048-8.472c-1.637-1.886-3.87-1.601-1.984-3.238
				c1.885-1.637,4.701-0.775,6.307,1.551c1.606,2.326,3.497,6.884,3.497,6.884s2.406,0.391,5.532-3.15
				C727.627,318.447,726.604,317.269,723.206,315.259z M693.668,325.249c-2.497-1.249,3.433-3.745,3.433-3.745
				C699.286,321.192,696.165,326.498,693.668,325.249z M697.872,313.597c-1.064-0.532,2.129-1.597,2.129-1.597
				C704.614,312.887,698.937,314.129,697.872,313.597z"/>
			<path style="fill:none;stroke:#263238;stroke-linecap:round;stroke-linejoin:round;stroke-miterlimit:10;" d="M693.601,331.608
				c-0.649,0.686-1.316,1.354-2.002,1.997"/>
			<path style="fill:none;stroke:#263238;stroke-linecap:round;stroke-linejoin:round;stroke-miterlimit:10;" d="M706.411,312.184
				c-2.389,4.976-6.001,11.47-10.753,17.116"/>
			<path style="fill:none;stroke:#263238;stroke-linecap:round;stroke-linejoin:round;stroke-miterlimit:10;" d="M707.566,309.692
				c1.497-3.348,2.265-5.555,2.265-5.555s2.784,1.303,5.488,0.609c2.704-0.694,4.875-0.098,4.875-0.098"/>
			<path style="fill:none;stroke:#263238;stroke-linecap:round;stroke-linejoin:round;stroke-miterlimit:10;" d="M694.656,302.845
				c0,0,10.901,5.416,10.195,6.03"/>
			<path style="fill:none;stroke:#263238;stroke-linecap:round;stroke-linejoin:round;stroke-miterlimit:10;" d="M710.592,312.156
				c0,0,5.159,2.134,8.024,5.434"/>
			<path style="fill:none;stroke:#263238;stroke-linecap:round;stroke-linejoin:round;stroke-miterlimit:10;" d="M703.708,315.652
				c0,0-3.492-0.689-8.366-0.59c-4.875,0.098-8.286,1.406-8.286,1.406"/>
			<path style="fill:none;stroke:#263238;stroke-linecap:round;stroke-linejoin:round;stroke-miterlimit:10;" d="M705.016,319.064
				c0,0,5.711,3.722,5.605,8.361"/>
		</g>
		<g>
			<path style="fill:#92E3A9;" d="M674.706,358.507c-2.735-1.617-5.759-1.653-7.241-3.36c-1.482-1.707,1.428-2.57,2.985-1.926
				c1.557,0.644,5.165,2.501,5.849,2.905c0.684,0.404,0.211-5.505-1.057-7.731c-1.267-2.226-4.736-3.522-6.468-1.703
				c-3.654,3.837-9.352-1.194-8.963-4.194c0.39-2.999-2.409-6.224-8.419-4.333c-6.009,1.891-3.768,2.939-3.768,2.939
				s4.267,2.616,7.001,4.233c2.734,1.617,7.266,3.006,6.293,4.183s-3.593,0.459-5.784-1.298c-2.191-1.757-8.483-5.94-9.127-4.383
				c-0.644,1.557-2.906,5.849-2.906,5.849s4.581,0.679,8.239,1.828c3.658,1.148,4.406,3.16,1.547,3.314
				c-2.86,0.154-8.05-1.993-9.667,0.742c-1.617,2.735-0.511,9.757-0.511,9.757s5.236-3.548,7.906-3.537
				c2.67,0.01,0.963,1.492-2.022,3.418c-2.985,1.926-3.743,2.585-3.743,2.585l2.714,6.958c0,0,4.492-0.573,6.263-0.448
				c1.772,0.125,1.772,0.125,1.772,0.125s-0.019-7.301,2.093-9.467c2.111-2.166,2.47,2.845,2.914,4.123
				c0.444,1.278-0.894,5.1-0.894,5.1s5.186-2.839,6.868-3.966c1.682-1.128,1.682-1.128,1.682-1.128s-1.941-5.301-3.258-6.818
				c-1.317-1.517-3.114-1.288-1.597-2.605s3.783-0.623,5.075,1.248c1.292,1.872,2.814,5.54,2.814,5.54s1.936,0.315,4.452-2.535
				C678.264,361.073,677.44,360.125,674.706,358.507z M650.935,366.547c-2.009-1.005,2.763-3.014,2.763-3.014
				C655.456,363.282,652.944,367.552,650.935,366.547z M654.318,357.17c-0.857-0.428,1.713-1.285,1.713-1.285
				C659.743,356.599,655.175,357.598,654.318,357.17z"/>
			<path style="fill:none;stroke:#263238;stroke-linecap:round;stroke-linejoin:round;stroke-miterlimit:10;" d="M650.881,371.664
				c-0.522,0.553-1.059,1.09-1.611,1.607"/>
			<path style="fill:none;stroke:#263238;stroke-linecap:round;stroke-linejoin:round;stroke-miterlimit:10;" d="M661.19,356.033
				c-1.922,4.005-4.83,9.23-8.654,13.774"/>
			<path style="fill:none;stroke:#263238;stroke-linecap:round;stroke-linejoin:round;stroke-miterlimit:10;" d="M662.119,354.028
				c1.205-2.694,1.823-4.47,1.823-4.47s2.24,1.048,4.417,0.49c2.176-0.559,3.923-0.079,3.923-0.079"/>
			<path style="fill:none;stroke:#263238;stroke-linecap:round;stroke-linejoin:round;stroke-miterlimit:10;" d="M651.73,348.517
				c0,0,8.773,4.358,8.204,4.852"/>
			<path style="fill:none;stroke:#263238;stroke-linecap:round;stroke-linejoin:round;stroke-miterlimit:10;" d="M664.555,356.01
				c0,0,4.152,1.717,6.457,4.373"/>
			<path style="fill:none;stroke:#263238;stroke-linecap:round;stroke-linejoin:round;stroke-miterlimit:10;" d="M659.015,358.824
				c0,0-2.81-0.554-6.733-0.475c-3.923,0.079-6.668,1.132-6.668,1.132"/>
			<path style="fill:none;stroke:#263238;stroke-linecap:round;stroke-linejoin:round;stroke-miterlimit:10;" d="M660.067,361.569
				c0,0,4.596,2.995,4.51,6.728"/>
		</g>
		<g>
			<path style="fill:#92E3A9;" d="M663.555,306.966c0,0-3.433,2.497-5.618,0c-2.185-2.497,0.936-7.491-2.185-9.363
				c-3.121-1.873-8.115,1.561-8.115,1.561s4.058,0.936,4.058,3.121s-1.873,3.121-2.185,2.185c-0.312-0.936-2.497-5.618-5.618-3.433
				c-3.121,2.185-3.433,5.306-3.433,5.306s7.491-1.249,8.115,1.561c0.624,2.809-3.121-0.312-6.242-0.312
				c-3.121,0-5.93,0.624-5.618,2.497c0.312,1.873,0,4.994,0,4.994s2.497-2.497,5.93-2.497c3.433,0,3.433,2.185,0.312,2.185
				c-3.121,0-5.618,3.121-5.618,3.121s3.121,4.682,6.867,6.867c3.745,2.185,4.994,1.249,5.306-0.624
				c0.312-1.873-0.936-6.555,1.248-6.555c2.185,0-3.121,8.427-0.312,8.739c2.809,0.312,4.994-0.624,5.618-2.497
				c0.624-1.873,0.624-1.873,0.624-1.873s-1.248-4.682-0.936-6.555c0.312-1.873,0.936,0,1.56,2.185
				c0.624,2.185,1.249,7.491,2.185,7.179c0.936-0.312,3.745-4.37,4.37-5.93c0.624-1.561-4.37-5.93-4.37-6.867
				c0-0.936,3.745,0.624,4.37,1.561c0.624,0.936,1.248,2.185,1.248,2.185s2.185-1.561,1.873-5.93
				C666.676,305.406,663.555,306.966,663.555,306.966z"/>
			<path style="fill:none;stroke:#263238;stroke-linecap:round;stroke-linejoin:round;stroke-miterlimit:10;" d="M646.07,318.287
				c2.157-3.014,5.357-7.109,8.121-9.136"/>
			<path style="fill:none;stroke:#263238;stroke-linecap:round;stroke-linejoin:round;stroke-miterlimit:10;" d="M643.579,321.948
				c0,0,0.549-0.866,1.444-2.168"/>
			<path style="fill:none;stroke:#263238;stroke-linecap:round;stroke-linejoin:round;stroke-miterlimit:10;" d="M655.752,309.775
				c0,0,3.745,4.682,4.682,9.676"/>
			<path style="fill:none;stroke:#263238;stroke-linecap:round;stroke-linejoin:round;stroke-miterlimit:10;" d="M652.006,312.897
				c0,0,0.936-0.624,0.936,5.618"/>
			<path style="fill:none;stroke:#263238;stroke-linecap:round;stroke-linejoin:round;stroke-miterlimit:10;" d="M654.191,306.966
				c0,0,1.873-1.873,0.624-5.306"/>
			
				<line style="fill:none;stroke:#263238;stroke-linecap:round;stroke-linejoin:round;stroke-miterlimit:10;" x1="651.694" y1="310.087" x2="650.134" y2="307.591"/>
			<path style="fill:none;stroke:#263238;stroke-linecap:round;stroke-linejoin:round;stroke-miterlimit:10;" d="M648.885,312.897
				c0,0-4.682-3.121-7.491-3.121"/>
		</g>
		<g>
			<path style="fill:#92E3A9;" d="M693.972,373.299c0,0-3.433,2.497-5.618,0c-2.185-2.497,0.936-7.491-2.185-9.363
				c-3.121-1.873-8.115,1.56-8.115,1.56s4.057,0.936,4.057,3.121c0,2.185-1.873,3.121-2.185,2.185
				c-0.312-0.936-2.497-5.618-5.618-3.433c-3.121,2.185-3.433,5.306-3.433,5.306s7.491-1.249,8.115,1.56
				c0.624,2.809-3.121-0.312-6.242-0.312c-3.121,0-5.93,0.624-5.618,2.497c0.312,1.873,0,4.994,0,4.994s2.497-2.497,5.93-2.497
				c3.433,0,3.433,2.185,0.312,2.185c-3.121,0-5.618,3.121-5.618,3.121s3.121,4.682,6.867,6.867
				c3.745,2.185,4.994,1.248,5.306-0.624c0.312-1.873-0.937-6.555,1.248-6.555c2.185,0-3.121,8.427-0.312,8.739
				c2.809,0.312,4.994-0.624,5.618-2.497s0.624-1.873,0.624-1.873s-1.248-4.682-0.936-6.554c0.312-1.873,0.936,0,1.56,2.185
				c0.624,2.185,1.249,7.491,2.185,7.179c0.936-0.312,3.745-4.37,4.37-5.93c0.624-1.561-4.37-5.93-4.37-6.867
				c0-0.936,3.745,0.624,4.37,1.561c0.624,0.936,1.248,2.185,1.248,2.185s2.185-1.561,1.873-5.93
				C697.094,371.739,693.972,373.299,693.972,373.299z"/>
			<path style="fill:none;stroke:#263238;stroke-linecap:round;stroke-linejoin:round;stroke-miterlimit:10;" d="M676.487,384.62
				c2.157-3.014,5.357-7.109,8.121-9.136"/>
			<path style="fill:none;stroke:#263238;stroke-linecap:round;stroke-linejoin:round;stroke-miterlimit:10;" d="M673.997,388.281
				c0,0,0.548-0.866,1.443-2.168"/>
			<path style="fill:none;stroke:#263238;stroke-linecap:round;stroke-linejoin:round;stroke-miterlimit:10;" d="M686.169,376.108
				c0,0,3.745,4.682,4.682,9.676"/>
			<path style="fill:none;stroke:#263238;stroke-linecap:round;stroke-linejoin:round;stroke-miterlimit:10;" d="M682.424,379.23
				c0,0,0.936-0.624,0.936,5.618"/>
			<path style="fill:none;stroke:#263238;stroke-linecap:round;stroke-linejoin:round;stroke-miterlimit:10;" d="M684.609,373.299
				c0,0,1.873-1.873,0.624-5.306"/>
			
				<line style="fill:none;stroke:#263238;stroke-linecap:round;stroke-linejoin:round;stroke-miterlimit:10;" x1="682.112" y1="376.421" x2="680.551" y2="373.924"/>
			<path style="fill:none;stroke:#263238;stroke-linecap:round;stroke-linejoin:round;stroke-miterlimit:10;" d="M679.303,379.23
				c0,0-4.682-3.121-7.491-3.121"/>
		</g>
		
			<rect x="670.948" y="399.268" style="fill:#263238;stroke:#263238;stroke-width:2;stroke-linecap:round;stroke-linejoin:round;stroke-miterlimit:10;" width="24.129" height="34.732"/>
	</g>
</g>
<g id="Floor">
	
		<line style="fill:none;stroke:#263238;stroke-linecap:round;stroke-linejoin:round;stroke-miterlimit:10;" x1="30" y1="434" x2="712" y2="434"/>
</g>
<g id="Arrow">
	<g>
		<g>
			<g>
				<path style="fill:none;stroke:#263238;stroke-linecap:round;stroke-linejoin:round;" d="M429.18,74.622
					c-0.485-0.12-0.971-0.237-1.457-0.352"/>
				<path style="fill:none;stroke:#263238;stroke-linecap:round;stroke-linejoin:round;stroke-dasharray:2.9834,2.9834;" d="
					M424.814,73.612c-13.656-2.953-27.942-4.095-42.574-3.176c-36.66,2.303-69.541,17.167-94.715,40.138"/>
				<path style="fill:none;stroke:#263238;stroke-linecap:round;stroke-linejoin:round;" d="M286.431,111.582
					c-0.366,0.34-0.73,0.682-1.093,1.026"/>
			</g>
		</g>
		<polygon style="fill:#263238;" points="421.878,63.542 413.93,79.55 431.766,78.43 		"/>
	</g>
</g>
<g id="Money">
	<g>
		<g>
			
				<rect x="380.193" y="102.422" transform="matrix(0.9936 0.1125 -0.1125 0.9936 22.2901 -46.3609)" style="fill:#FFFFFF;stroke:#B2B2B2;stroke-linecap:round;stroke-linejoin:round;stroke-miterlimit:10;" width="83.12" height="143.632"/>
			<path style="fill:#FFFFFF;stroke:#B2B2B2;stroke-linecap:round;stroke-linejoin:round;stroke-miterlimit:10;" d="M393.14,110.768
				l-13.172,116.289c2.555,0.289,4.391,2.595,4.101,5.149c-0.112,0.984-0.527,1.858-1.136,2.548l63.122,7.15
				c-0.439-0.809-0.649-1.753-0.538-2.738c0.289-2.554,2.595-4.391,5.149-4.101l13.172-116.289
				c-2.554-0.289-4.391-2.595-4.101-5.149l-61.448-6.96C398,109.221,395.694,111.057,393.14,110.768z"/>
			
				<ellipse transform="matrix(0.0937 -0.9956 0.9956 0.0937 208.7718 577.8141)" style="fill:#FFFFFF;stroke:#B2B2B2;stroke-linecap:round;stroke-linejoin:round;stroke-miterlimit:10;" cx="421.754" cy="174.238" rx="21.611" ry="21.611"/>
			<g>
				<path style="fill:#FFFFFF;stroke:#B2B2B2;stroke-linecap:round;stroke-linejoin:round;stroke-miterlimit:10;" d="
					M435.624,173.721l2.077,0.266l-0.461,3.594l-2.077-0.266c-1.038,3.033-3.639,4.323-7.432,3.837l-0.878-0.113l0.532-4.153
					l1.158,0.148c1.997,0.256,2.858-0.446,3.037-1.843c0.179-1.398-0.477-2.294-2.474-2.549c-5.75-0.737-7.13,7.813-15.117,6.789
					c-3.794-0.486-6.02-2.436-6.259-5.632l-2.037-0.261l0.461-3.594l2.037,0.261c1.043-3.073,3.684-4.358,7.478-3.872l1.917,0.246
					l-0.532,4.153l-2.196-0.281c-1.997-0.256-2.828,0.53-3.008,1.928c-0.179,1.398,0.427,2.369,2.424,2.624
					c5.75,0.737,7.131-7.813,15.117-6.789C433.143,168.694,435.34,170.558,435.624,173.721z"/>
			</g>
		</g>
		<g>
			
				<rect x="331.5" y="98.986" transform="matrix(0.9996 -0.0271 0.0271 0.9996 -4.4935 10.1769)" style="fill:#FFFFFF;stroke:#B2B2B2;stroke-linecap:round;stroke-linejoin:round;stroke-miterlimit:10;" width="83.12" height="143.632"/>
			<path style="fill:#FFFFFF;stroke:#B2B2B2;stroke-linecap:round;stroke-linejoin:round;stroke-miterlimit:10;" d="
				M335.875,111.942l3.173,116.99c2.57-0.07,4.71,1.957,4.779,4.527c0.027,0.99-0.263,1.913-0.77,2.682l63.503-1.722
				c-0.548-0.74-0.887-1.646-0.914-2.636c-0.07-2.57,1.957-4.71,4.527-4.779l-3.173-116.99c-2.57,0.07-4.709-1.957-4.779-4.527
				l-61.819,1.677C340.471,109.732,338.445,111.872,335.875,111.942z"/>
			
				<ellipse transform="matrix(0.6745 -0.7383 0.7383 0.6745 -4.6684 331.0146)" style="fill:#FFFFFF;stroke:#B2B2B2;stroke-linecap:round;stroke-linejoin:round;stroke-miterlimit:10;" cx="373.06" cy="170.802" rx="21.611" ry="21.611"/>
			<g>
				<path style="fill:#FFFFFF;stroke:#B2B2B2;stroke-linecap:round;stroke-linejoin:round;stroke-miterlimit:10;" d="
					M386.765,168.044l2.093-0.061l0.105,3.622l-2.093,0.061c-0.553,3.157-2.921,4.837-6.744,4.948l-0.885,0.026l-0.121-4.185
					l1.167-0.034c2.012-0.058,2.754-0.886,2.713-2.294c-0.041-1.409-0.829-2.191-2.841-2.133c-5.795,0.168-5.826,8.828-13.874,9.062
					c-3.823,0.111-6.326-1.468-7.061-4.588l-2.052,0.06l-0.105-3.622l2.052-0.06c0.551-3.198,2.96-4.879,6.783-4.99l1.932-0.056
					l0.121,4.185l-2.214,0.064c-2.012,0.058-2.711,0.965-2.67,2.373c0.041,1.409,0.791,2.273,2.803,2.215
					c5.795-0.168,5.826-8.829,13.874-9.062C383.531,163.465,385.991,164.965,386.765,168.044z"/>
			</g>
		</g>
		<g>
			
				<rect x="313.923" y="101.552" transform="matrix(0.9483 -0.3173 0.3173 0.9483 -36.6397 121.7499)" style="fill:#FFFFFF;stroke:#B2B2B2;stroke-linecap:round;stroke-linejoin:round;stroke-miterlimit:10;" width="83.12" height="143.632"/>
			<path style="fill:#FFFFFF;stroke:#B2B2B2;stroke-linecap:round;stroke-linejoin:round;stroke-miterlimit:10;" d="
				M302.757,127.902l37.134,110.986c2.438-0.816,5.076,0.499,5.891,2.937c0.314,0.94,0.306,1.906,0.045,2.79l60.243-20.156
				c-0.74-0.548-1.328-1.316-1.643-2.255c-0.816-2.438,0.499-5.076,2.937-5.891l-37.134-110.986
				c-2.438,0.816-5.075-0.499-5.891-2.937l-58.646,19.622C306.51,124.449,305.195,127.086,302.757,127.902z"/>
			
				<ellipse transform="matrix(0.4539 -0.8911 0.8911 0.4539 39.6622 411.4476)" style="fill:#FFFFFF;stroke:#B2B2B2;stroke-linecap:round;stroke-linejoin:round;stroke-miterlimit:10;" cx="355.483" cy="173.368" rx="21.611" ry="21.611"/>
			<g>
				<path style="fill:#FFFFFF;stroke:#B2B2B2;stroke-linecap:round;stroke-linejoin:round;stroke-miterlimit:10;" d="
					M367.035,165.398l1.897-0.886l1.533,3.283l-1.897,0.886c0.745,3.118-0.763,5.599-4.229,7.217l-0.802,0.375l-1.771-3.794
					l1.058-0.494c1.824-0.851,2.177-1.905,1.581-3.182c-0.596-1.277-1.63-1.683-3.454-0.832c-5.253,2.452-1.848,10.415-9.144,13.82
					c-3.466,1.618-6.389,1.161-8.301-1.412l-1.861,0.868l-1.533-3.283l1.861-0.868c-0.762-3.155,0.783-5.653,4.248-7.27l1.751-0.818
					l1.771,3.794l-2.007,0.937c-1.824,0.851-2.107,1.961-1.511,3.237c0.596,1.277,1.628,1.773,3.452,0.922
					c5.253-2.452,1.848-10.415,9.144-13.821C362.25,162.477,365.103,162.878,367.035,165.398z"/>
			</g>
		</g>
		<g>
			
				<rect x="295.537" y="109.398" transform="matrix(0.8038 -0.5949 0.5949 0.8038 -41.6646 236.0983)" style="fill:#FFFFFF;stroke:#B2B2B2;stroke-linecap:round;stroke-linejoin:round;stroke-miterlimit:10;" width="83.12" height="143.632"/>
			<path style="fill:#FFFFFF;stroke:#B2B2B2;stroke-linecap:round;stroke-linejoin:round;stroke-miterlimit:10;" d="
				M272.899,154.274l69.624,94.07c2.066-1.529,4.981-1.094,6.511,0.972c0.589,0.796,0.88,1.718,0.905,2.639L401,214.163
				c-0.873-0.293-1.67-0.84-2.259-1.637c-1.529-2.066-1.094-4.981,0.972-6.511l-69.624-94.07c-2.066,1.529-4.981,1.094-6.511-0.972
				l-49.708,36.79C275.4,149.829,274.965,152.744,272.899,154.274z"/>
			
				<ellipse transform="matrix(0.8635 -0.5044 0.5044 0.8635 -45.38 194.7804)" style="fill:#FFFFFF;stroke:#B2B2B2;stroke-linecap:round;stroke-linejoin:round;stroke-miterlimit:10;" cx="337.097" cy="181.213" rx="21.611" ry="21.611"/>
			<g>
				<path style="fill:#FFFFFF;stroke:#B2B2B2;stroke-linecap:round;stroke-linejoin:round;stroke-miterlimit:10;" d="
					M344.64,169.343l1.398-1.558l2.697,2.42l-1.398,1.559c1.907,2.576,1.493,5.45-1.061,8.297l-0.591,0.659l-3.117-2.796
					l0.779-0.869c1.344-1.498,1.256-2.606,0.207-3.546c-1.049-0.941-2.159-0.909-3.503,0.589
					c-3.871,4.315,2.383,10.305-2.993,16.299c-2.554,2.847-5.423,3.573-8.19,1.956l-1.371,1.528l-2.697-2.419l1.371-1.529
					c-1.938-2.603-1.496-5.507,1.058-8.354l1.291-1.439l3.117,2.796l-1.479,1.648c-1.344,1.499-1.169,2.63-0.12,3.57
					c1.049,0.941,2.193,0.993,3.537-0.506c3.871-4.315-2.384-10.306,2.993-16.299C339.094,168.532,341.876,167.782,344.64,169.343z"
					/>
			</g>
		</g>
		<g>
			
				<rect x="265.255" y="132.915" transform="matrix(0.7924 -0.61 0.61 0.7924 -61.1903 229.6763)" style="fill:#FFFFFF;stroke:#B2B2B2;stroke-linecap:round;stroke-linejoin:round;stroke-miterlimit:10;" width="83.12" height="143.631"/>
			<path style="fill:#FFFFFF;stroke:#B2B2B2;stroke-linecap:round;stroke-linejoin:round;stroke-miterlimit:10;" d="
				M242.117,179.012l71.395,92.734c2.037-1.568,4.96-1.188,6.528,0.849c0.604,0.785,0.913,1.701,0.955,2.621l50.336-38.753
				c-0.878-0.276-1.686-0.809-2.29-1.594c-1.568-2.037-1.188-4.96,0.849-6.528l-71.395-92.734c-2.037,1.568-4.96,1.188-6.528-0.849
				l-49.001,37.726C244.534,174.522,244.154,177.444,242.117,179.012z"/>
			
				<ellipse transform="matrix(0.1294 -0.9916 0.9916 0.1294 64.0924 482.4643)" style="fill:#FFFFFF;stroke:#B2B2B2;stroke-linecap:round;stroke-linejoin:round;stroke-miterlimit:10;" cx="306.815" cy="204.731" rx="21.611" ry="21.611"/>
			<g>
				<path style="fill:#FFFFFF;stroke:#B2B2B2;stroke-linecap:round;stroke-linejoin:round;stroke-miterlimit:10;" d="M314.5,192.97
					l1.418-1.54l2.666,2.454l-1.418,1.54c1.874,2.6,1.423,5.469-1.168,8.282l-0.6,0.652l-3.08-2.836l0.791-0.859
					c1.364-1.481,1.289-2.589,0.253-3.544c-1.037-0.955-2.147-0.937-3.511,0.544c-3.927,4.265,2.25,10.335-3.204,16.259
					c-2.591,2.814-5.469,3.503-8.215,1.85l-1.391,1.511l-2.666-2.454l1.391-1.511c-1.904-2.628-1.425-5.526,1.166-8.339l1.309-1.422
					l3.08,2.836l-1.5,1.629c-1.363,1.481-1.203,2.614-0.167,3.569c1.037,0.955,2.18,1.021,3.543-0.46
					c3.927-4.265-2.25-10.336,3.204-16.259C308.965,192.088,311.756,191.374,314.5,192.97z"/>
			</g>
		</g>
		<g>
			
				<rect x="247.001" y="166.442" transform="matrix(0.5339 -0.8455 0.8455 0.5339 -66.9619 355.0391)" style="fill:#FFFFFF;stroke:#B2B2B2;stroke-linecap:round;stroke-linejoin:round;stroke-miterlimit:10;" width="83.12" height="143.632"/>
			<path style="fill:#FFFFFF;stroke:#B2B2B2;stroke-linecap:round;stroke-linejoin:round;stroke-miterlimit:10;" d="
				M218.965,236.386l98.956,62.486c1.373-2.174,4.247-2.823,6.421-1.451c0.838,0.529,1.443,1.283,1.799,2.132l33.917-53.714
				c-0.92,0.043-1.861-0.179-2.699-0.708c-2.174-1.373-2.823-4.247-1.451-6.421l-98.956-62.486
				c-1.372,2.174-4.247,2.823-6.421,1.451l-33.018,52.289C219.688,231.337,220.337,234.212,218.965,236.386z"/>
			
				<circle style="fill:#FFFFFF;stroke:#B2B2B2;stroke-linecap:round;stroke-linejoin:round;stroke-miterlimit:10;" cx="288.562" cy="238.258" r="21.611"/>
			<g>
				<path style="fill:#FFFFFF;stroke:#B2B2B2;stroke-linecap:round;stroke-linejoin:round;stroke-miterlimit:10;" d="
					M294.062,225.499l1.132-1.761l3.048,1.959l-1.132,1.761c2.293,2.239,2.342,5.143,0.274,8.36l-0.479,0.745l-3.522-2.264
					l0.631-0.982c1.088-1.693,0.824-2.772-0.361-3.534c-1.186-0.762-2.276-0.554-3.365,1.14c-3.134,4.877,3.995,9.794-0.359,16.568
					c-2.068,3.217-4.784,4.391-7.774,3.235l-1.11,1.727l-3.048-1.959l1.11-1.727c-2.327-2.261-2.354-5.198-0.286-8.416l1.045-1.626
					l3.522,2.264l-1.197,1.863c-1.088,1.693-0.735,2.782,0.45,3.544c1.186,0.762,2.323,0.631,3.411-1.063
					c3.134-4.877-3.995-9.794,0.359-16.568C288.457,225.582,291.083,224.398,294.062,225.499z"/>
			</g>
		</g>
		<g>
			
				<rect x="234.931" y="193.114" transform="matrix(0.285 -0.9585 0.9585 0.285 -56.2448 454.4597)" style="fill:#FFFFFF;stroke:#B2B2B2;stroke-linecap:round;stroke-linejoin:round;stroke-miterlimit:10;" width="83.12" height="143.632"/>
			<path style="fill:#FFFFFF;stroke:#B2B2B2;stroke-linecap:round;stroke-linejoin:round;stroke-miterlimit:10;" d="
				M208.988,281.975l112.18,33.351c0.733-2.464,3.324-3.868,5.788-3.135c0.95,0.282,1.736,0.844,2.31,1.565l18.103-60.892
				c-0.874,0.291-1.84,0.332-2.789,0.049c-2.464-0.733-3.868-3.324-3.135-5.788l-112.18-33.351
				c-0.733,2.464-3.324,3.868-5.788,3.135l-17.623,59.277C208.317,276.92,209.721,279.511,208.988,281.975z"/>
			
				<ellipse transform="matrix(0.1727 -0.985 0.985 0.1727 -32.2045 491.517)" style="fill:#FFFFFF;stroke:#B2B2B2;stroke-linecap:round;stroke-linejoin:round;stroke-miterlimit:10;" cx="276.491" cy="264.929" rx="21.611" ry="21.611"/>
			<g>
				<path style="fill:#FFFFFF;stroke:#B2B2B2;stroke-linecap:round;stroke-linejoin:round;stroke-miterlimit:10;" d="
					M278.512,251.196l0.64-1.994l3.45,1.107l-0.64,1.993c2.793,1.573,3.588,4.365,2.419,8.007l-0.271,0.843l-3.987-1.28l0.357-1.111
					c0.615-1.917,0.082-2.891-1.259-3.322c-1.342-0.431-2.342,0.052-2.957,1.968c-1.772,5.52,6.383,8.434,3.923,16.101
					c-1.169,3.642-3.491,5.476-6.678,5.129l-0.628,1.955l-3.45-1.107l0.628-1.955c-2.832-1.585-3.614-4.416-2.445-8.057l0.591-1.84
					l3.987,1.28l-0.677,2.108c-0.615,1.917,0.007,2.878,1.348,3.308c1.342,0.431,2.407,0.011,3.022-1.906
					c1.772-5.52-6.384-8.434-3.923-16.101C273.118,252.721,275.351,250.9,278.512,251.196z"/>
			</g>
		</g>
		<g>
			
				<rect x="227.521" y="232.577" transform="matrix(-0.004 1 -1 -0.004 574.5485 36.5324)" style="fill:#FFFFFF;stroke:#B2B2B2;stroke-linecap:round;stroke-linejoin:round;stroke-miterlimit:10;" width="83.12" height="143.632"/>
			<path style="fill:#FFFFFF;stroke:#B2B2B2;stroke-linecap:round;stroke-linejoin:round;stroke-miterlimit:10;" d="
				M329.069,269.058l-117.032-0.468c-0.01,2.571-2.103,4.646-4.673,4.636c-0.991-0.004-1.904-0.322-2.656-0.853l-0.254,63.525
				c0.757-0.525,1.673-0.836,2.663-0.832c2.571,0.01,4.646,2.102,4.636,4.673l117.032,0.468c0.01-2.571,2.103-4.646,4.673-4.636
				l0.247-61.841C331.135,273.721,329.059,271.628,329.069,269.058z"/>
			
				<ellipse transform="matrix(0.3198 -0.9475 0.9475 0.3198 -105.3759 462.0063)" style="fill:#FFFFFF;stroke:#B2B2B2;stroke-linecap:round;stroke-linejoin:round;stroke-miterlimit:10;" cx="269.081" cy="304.393" rx="21.611" ry="21.611"/>
			<g>
				<path style="fill:#FFFFFF;stroke:#B2B2B2;stroke-linecap:round;stroke-linejoin:round;stroke-miterlimit:10;" d="M271.306,318.1
					l-0.008,2.094l-3.623-0.014l0.008-2.094c-3.137-0.657-4.738-3.079-4.723-6.903l0.004-0.886l4.187,0.017l-0.005,1.167
					c-0.008,2.013,0.794,2.781,2.203,2.787c1.409,0.006,2.217-0.756,2.225-2.769c0.023-5.797-8.631-6.114-8.599-14.166
					c0.015-3.825,1.676-6.274,4.818-6.905l0.008-2.053l3.623,0.014l-0.008,2.053c3.178,0.657,4.779,3.119,4.763,6.944l-0.008,1.933
					l-4.187-0.017l0.009-2.214c0.008-2.013-0.875-2.742-2.284-2.747c-1.409-0.006-2.298,0.716-2.306,2.729
					c-0.023,5.797,8.632,6.114,8.599,14.166C275.989,315.018,274.41,317.428,271.306,318.1z"/>
			</g>
		</g>
	</g>
</g>
<g id="Device_2">
	<g>
		<g>
			<path style="fill:#707070;stroke:#263238;stroke-linecap:round;stroke-linejoin:round;stroke-miterlimit:10;" d="
				M437.096,100.296c0-13.684,11.093-24.778,24.778-24.778h133.092c13.684,0,24.778,11.093,24.778,24.778v308.926
				c0,13.684-11.093,24.778-24.778,24.778H461.873c-13.684,0-24.778-11.093-24.778-24.778V100.296z M450.802,391.524
				c0,13.684,5.174,24.777,18.858,24.777h117.517c13.684,0,24.778-11.093,24.778-24.777V105.96
				c0-13.684-11.093-24.778-24.778-24.778h-49.133l-0.049,0.178c-1.453,5.236-4.803,8.635-8.51,8.635h-2.133
				c-3.707,0-7.057-3.398-8.51-8.635l-0.049-0.178h-49.133c-13.684,0-18.858,11.093-18.858,24.778V391.524z"/>
			<path style="fill:#FFFFFF;stroke:#263238;stroke-linecap:round;stroke-linejoin:round;stroke-miterlimit:10;" d="M598.425,81.182
				h-49.133l-0.049,0.178c-1.453,5.236-4.803,8.635-8.51,8.635H538.6c-3.707,0-7.057-3.398-8.51-8.635l-0.049-0.178h-49.133
				c-13.684,0-24.778,11.093-24.778,24.778v299.583c0,7.852,6.365,14.218,14.218,14.218h138.637c7.852,0,14.218-6.365,14.218-14.218
				V105.96C623.202,92.275,612.109,81.182,598.425,81.182z"/>
			<g>
				<polygon style="fill:#FFFFFF;stroke:#B2B2B2;stroke-linecap:round;stroke-linejoin:round;stroke-miterlimit:10;" points="
					500.437,110.246 454.799,162.375 454.799,261.19 468.364,273.066 562.976,164.999 				"/>
				<path style="fill:#FFFFFF;stroke:#B2B2B2;stroke-linecap:round;stroke-linejoin:round;stroke-miterlimit:10;" d="
					M550.152,163.494l-46.529-40.736c-1.693,1.934-4.634,2.129-6.568,0.436l-42.256,48.266v80.009l11.012,9.641
					c0.1-0.915,0.466-1.811,1.118-2.556c1.693-1.934,4.634-2.13,6.568-0.436l77.091-88.055
					C548.654,168.369,548.459,165.428,550.152,163.494z"/>
				
					<ellipse transform="matrix(0.0194 -0.9998 0.9998 0.0194 283.3898 672.2504)" style="fill:#FFFFFF;stroke:#B2B2B2;stroke-linecap:round;stroke-linejoin:round;stroke-miterlimit:10;" cx="484.4" cy="191.656" rx="21.611" ry="21.611"/>
				<g>
					<path style="fill:#FFFFFF;stroke:#B2B2B2;stroke-linecap:round;stroke-linejoin:round;stroke-miterlimit:10;" d="
						M495.684,199.731l1.478,1.483l-2.567,2.558l-1.478-1.483c-2.679,1.76-5.525,1.186-8.225-1.523l-0.625-0.627l2.966-2.956
						l0.824,0.827c1.421,1.426,2.531,1.399,3.529,0.405c0.998-0.995,1.029-2.105-0.392-3.531c-4.092-4.106-10.422,1.803-16.106-3.9
						c-2.7-2.709-3.264-5.614-1.495-8.287l-1.449-1.454l2.566-2.558l1.449,1.454c2.708-1.789,5.582-1.186,8.282,1.523l1.364,1.369
						l-2.966,2.955l-1.563-1.568c-1.421-1.426-2.56-1.314-3.558-0.32c-0.998,0.995-1.114,2.134,0.307,3.56
						c4.092,4.106,10.423-1.804,16.106,3.9C496.804,194.238,497.397,197.058,495.684,199.731z"/>
				</g>
			</g>
			<g>
				<polygon style="fill:#FFFFFF;stroke:#B2B2B2;stroke-linecap:round;stroke-linejoin:round;stroke-miterlimit:10;" points="
					555.913,145.767 454.799,205.529 454.799,256.977 474.556,290.405 598.205,217.323 				"/>
				<path style="fill:#FFFFFF;stroke:#B2B2B2;stroke-linecap:round;stroke-linejoin:round;stroke-miterlimit:10;" d="
					M586.495,211.886l-31.466-53.238c-2.213,1.308-5.068,0.574-6.376-1.639l-93.855,55.472v30.12l21.069,35.648
					c0.381-0.838,1.008-1.574,1.861-2.079c2.213-1.308,5.068-0.574,6.376,1.639l100.751-59.548
					C583.548,216.048,584.282,213.194,586.495,211.886z"/>
				
					<ellipse transform="matrix(0.2389 -0.971 0.971 0.2389 180.3812 666.3059)" style="fill:#FFFFFF;stroke:#B2B2B2;stroke-linecap:round;stroke-linejoin:round;stroke-miterlimit:10;" cx="515.235" cy="218.086" rx="21.611" ry="21.611"/>
				<g>
					<path style="fill:#FFFFFF;stroke:#B2B2B2;stroke-linecap:round;stroke-linejoin:round;stroke-miterlimit:10;" d="
						M523.019,229.632l0.866,1.906l-3.299,1.499l-0.866-1.906c-3.125,0.713-5.591-0.819-7.174-4.301l-0.366-0.806l3.812-1.733
						l0.483,1.063c0.833,1.833,1.883,2.196,3.165,1.613c1.283-0.583,1.699-1.613,0.866-3.445
						c-2.399-5.278-10.395-1.953-13.727-9.283c-1.583-3.482-1.096-6.401,1.496-8.286l-0.85-1.869l3.298-1.499l0.85,1.869
						c3.162-0.73,5.644,0.839,7.227,4.321l0.8,1.76l-3.812,1.733l-0.916-2.016c-0.833-1.832-1.939-2.126-3.222-1.543
						c-1.283,0.583-1.789,1.61-0.956,3.442c2.399,5.278,10.396,1.952,13.728,9.283C525.988,224.877,525.558,227.726,523.019,229.632
						z"/>
				</g>
			</g>
			<g>
				<polygon style="fill:#FFFFFF;stroke:#B2B2B2;stroke-linecap:round;stroke-linejoin:round;stroke-miterlimit:10;" points="
					594.579,184.043 454.799,208.746 454.799,218.429 467.605,290.891 609.045,265.895 				"/>
				<path style="fill:#FFFFFF;stroke:#B2B2B2;stroke-linecap:round;stroke-linejoin:round;stroke-miterlimit:10;" d="
					M583.834,192.02l-115.247,20.367c0.447,2.532-1.242,4.947-3.774,5.394c-0.976,0.172-1.931,0.022-2.766-0.367l11.056,62.557
					c0.651-0.651,1.497-1.12,2.473-1.292c2.531-0.447,4.946,1.242,5.394,3.774l115.247-20.367c-0.447-2.531,1.242-4.946,3.774-5.394
					l-10.762-60.898C586.696,196.241,584.281,194.551,583.834,192.02z"/>
				
					<ellipse transform="matrix(0.5802 -0.8145 0.8145 0.5802 29.5336 532.2361)" style="fill:#FFFFFF;stroke:#B2B2B2;stroke-linecap:round;stroke-linejoin:round;stroke-miterlimit:10;" cx="531.092" cy="237.467" rx="21.611" ry="21.611"/>
				<g>
					<path style="fill:#FFFFFF;stroke:#B2B2B2;stroke-linecap:round;stroke-linejoin:round;stroke-miterlimit:10;" d="
						M535.618,250.69l0.336,2.067l-3.576,0.581l-0.336-2.067c-3.203-0.132-5.18-2.258-5.793-6.033l-0.142-0.874l4.133-0.671
						l0.187,1.152c0.323,1.987,1.24,2.613,2.631,2.387c1.391-0.226,2.063-1.11,1.74-3.097c-0.93-5.722-9.518-4.613-10.81-12.56
						c-0.613-3.775,0.622-6.464,3.618-7.603l-0.329-2.027l3.576-0.581l0.329,2.027c3.243,0.126,5.226,2.292,5.839,6.067l0.31,1.908
						l-4.133,0.671l-0.355-2.186c-0.323-1.987-1.313-2.561-2.704-2.335c-1.391,0.226-2.149,1.084-1.826,3.071
						c0.93,5.722,9.519,4.613,10.81,12.56C539.731,246.881,538.568,249.517,535.618,250.69z"/>
				</g>
			</g>
			<g>
				
					<rect x="500.104" y="178.866" transform="matrix(6.243976e-04 1 -1 6.243976e-04 792.0076 -291.1383)" style="fill:#92E3A9;stroke:#263238;stroke-linecap:round;stroke-linejoin:round;stroke-miterlimit:10;" width="83.12" height="143.632"/>
				<path style="fill:#FFFFFF;stroke:#263238;stroke-miterlimit:10;" d="M601.488,215.069l-117.033,0.073
					c0.002,2.571-2.081,4.656-4.652,4.658c-0.991,0.001-1.905-0.313-2.66-0.841l0.04,63.526c0.754-0.528,1.669-0.843,2.659-0.844
					c2.571-0.002,4.656,2.081,4.658,4.652l117.033-0.073c-0.002-2.571,2.081-4.656,4.652-4.658l-0.039-61.841
					C603.575,219.723,601.49,217.64,601.488,215.069z"/>
				
					<ellipse transform="matrix(0.9807 -0.1954 0.1954 0.9807 -38.5405 110.6675)" style="fill:#263238;" cx="541.664" cy="250.682" rx="21.611" ry="21.611"/>
				<g>
					<path style="fill:#FFFFFF;" d="M543.953,264.378l0.001,2.094l-3.623,0.002l-0.001-2.094c-3.14-0.642-4.753-3.057-4.755-6.881
						l0-0.886l4.187-0.003l0.001,1.167c0.001,2.013,0.807,2.777,2.216,2.777c1.409-0.001,2.214-0.766,2.213-2.779
						c-0.004-5.797-8.659-6.074-8.664-14.126c-0.002-3.825,1.647-6.282,4.786-6.928l-0.001-2.053l3.623-0.002l0.001,2.053
						c3.181,0.642,4.793,3.097,4.795,6.922l0.001,1.933l-4.187,0.003l-0.001-2.214c-0.001-2.013-0.887-2.738-2.296-2.737
						c-1.409,0.001-2.295,0.727-2.293,2.74c0.004,5.797,8.66,6.074,8.665,14.126C548.621,261.275,547.053,263.692,543.953,264.378z"
						/>
				</g>
			</g>
			<g>
				<circle style="fill:#263238;stroke:#263238;stroke-miterlimit:10;" cx="538.303" cy="332" r="20"/>
				<g>
					<path style="fill:#92E3A9;stroke:#263238;stroke-linecap:round;stroke-linejoin:round;stroke-miterlimit:10;" d="M540.303,342
						l-11.4-15.2c-0.994-1.325-0.725-3.206,0.601-4.2c1.323-0.991,3.205-0.726,4.2,0.601l6.6,8.8l15.6-20.8
						c0.995-1.326,2.878-1.593,4.2-0.601c1.326,0.994,1.595,2.875,0.601,4.2L540.303,342z"/>
				</g>
			</g>
			<path style="fill:#92E3A9;stroke:#263238;stroke-linecap:round;stroke-linejoin:round;stroke-miterlimit:10;" d="M623.202,116
				v-10.04c0-13.684-11.093-24.778-24.778-24.778h-49.133l-0.049,0.178c-1.453,5.236-4.803,8.635-8.51,8.635H538.6
				c-3.707,0-7.057-3.398-8.51-8.635l-0.049-0.178h-49.133c-13.684,0-24.778,11.093-24.778,24.778V116H623.202z"/>
			<path style="fill:#92E3A9;stroke:#263238;stroke-linecap:round;stroke-linejoin:round;stroke-miterlimit:10;" d="M456.13,399
				v6.542c0,7.852,6.365,14.218,14.218,14.218h138.637c7.852,0,14.218-6.365,14.218-14.218V399H456.13z"/>
			<g>
				<g>
					<path style="fill:#707070;stroke:#263238;stroke-linecap:round;stroke-linejoin:round;stroke-miterlimit:10;" d="
						M630.99,100.296c0-13.684-11.093-24.778-24.778-24.778H473.12c-13.684,0-24.778,11.093-24.778,24.778v308.926
						c0,13.684,11.093,24.778,24.778,24.778h133.091c13.684,0,24.778-11.093,24.778-24.778V100.296z M623.202,391.524
						c0,13.684-11.093,24.777-24.778,24.777H480.908c-13.684,0-24.778-11.093-24.778-24.777V105.96
						c0-13.684,11.093-24.778,24.778-24.778h49.133l0.049,0.178c1.453,5.236,4.803,8.635,8.51,8.635h2.133
						c3.707,0,7.057-3.398,8.51-8.635l0.049-0.178h49.133c13.684,0,24.778,11.093,24.778,24.778V391.524z"/>
					<path style="fill:#263238;stroke:#263238;stroke-linecap:round;stroke-linejoin:round;stroke-miterlimit:10;" d="
						M601.871,78.932H477.461c-14.497,0-26.25,11.752-26.25,26.25v299.155c0,14.497,11.753,26.25,26.25,26.25h124.409
						c14.497,0,26.25-11.753,26.25-26.25V105.182C628.121,90.684,616.368,78.932,601.871,78.932z M623.202,391.524
						c0,13.684-11.093,24.777-24.778,24.777H480.908c-13.684,0-24.778-11.093-24.778-24.777V105.96
						c0-13.684,11.093-24.778,24.778-24.778h49.133l0.049,0.178c1.453,5.236,4.803,8.635,8.51,8.635h2.133
						c3.707,0,7.057-3.398,8.51-8.635l0.049-0.178h49.133c13.684,0,24.778,11.093,24.778,24.778V391.524z"/>
				</g>
				<path style="fill:#707070;" d="M541.482,82.369c0-1.285-1.041-2.326-2.326-2.326c-1.285,0-2.326,1.042-2.326,2.326
					c0,1.285,1.042,2.326,2.326,2.326C540.441,84.696,541.482,83.654,541.482,82.369z"/>
			</g>
			<g>
				<g>
					<g>
						<path style="fill:#263238;" d="M470.977,91.284c0,2.354-2.643,3.201-2.654,4.996v0.123h2.565v0.792h-3.423v-0.669
							c0-2.52,2.643-3.011,2.643-5.208c0-0.803-0.268-1.226-0.915-1.226c-0.636,0-0.915,0.457-0.915,1.148v0.692h-0.814v-0.635
							c0-1.194,0.546-1.985,1.75-1.985C470.431,89.309,470.977,90.091,470.977,91.284z"/>
						<path style="fill:#263238;" d="M475.25,91.273v0.201c0,0.803-0.323,1.372-0.947,1.606c0.657,0.245,0.947,0.837,0.947,1.617
							v0.602c0,1.193-0.557,1.974-1.762,1.974c-1.193,0-1.75-0.781-1.75-1.974v-0.536h0.814v0.591c0,0.703,0.29,1.127,0.915,1.127
							c0.636,0,0.915-0.413,0.915-1.204v-0.602c0-0.77-0.324-1.138-0.982-1.16h-0.468v-0.781h0.513
							c0.58-0.022,0.938-0.39,0.938-1.07v-0.357c0-0.803-0.279-1.215-0.915-1.215c-0.625,0-0.915,0.435-0.915,1.137v0.402h-0.814
							v-0.357c0-1.193,0.557-1.963,1.75-1.963C474.692,89.309,475.25,90.079,475.25,91.273z"/>
						<path style="fill:#263238;" d="M476.936,91.864v1.082h-0.836v-1.082H476.936z M476.936,96.113v1.082h-0.836v-1.082H476.936z"
							/>
						<path style="fill:#263238;" d="M478.698,92.566c0.245-0.424,0.636-0.647,1.16-0.647c1.004,0,1.449,0.736,1.449,1.851v1.528
							c0,1.193-0.568,1.974-1.761,1.974c-1.194,0-1.751-0.781-1.751-1.974v-0.524h0.814v0.58c0,0.703,0.29,1.127,0.915,1.127
							c0.625,0,0.915-0.424,0.915-1.127v-1.517c0-0.702-0.29-1.127-0.915-1.127c-0.479,0-0.803,0.268-0.881,0.837v0.178h-0.814
							l0.212-4.339h3.078v0.781h-2.298L478.698,92.566z"/>
						<path style="fill:#263238;" d="M485.647,91.261v0.145h-0.814v-0.201c0-0.703-0.29-1.115-0.926-1.115
							c-0.658,0-0.948,0.424-0.948,1.26v1.751c0.212-0.535,0.636-0.837,1.26-0.837c1.004,0,1.45,0.725,1.45,1.852v1.182
							c0,1.193-0.592,1.974-1.785,1.974c-1.205,0-1.796-0.781-1.796-1.974v-3.982c0-1.238,0.558-2.008,1.796-2.008
							C485.09,89.309,485.647,90.068,485.647,91.261z M482.96,94.184v1.171c0,0.703,0.29,1.127,0.926,1.127
							c0.625,0,0.926-0.424,0.926-1.127v-1.171c0-0.703-0.301-1.127-0.926-1.127C483.25,93.057,482.96,93.481,482.96,94.184z"/>
					</g>
					<g>
						<rect x="568.674" y="91.605" style="fill:#263238;" width="2.204" height="5.511"/>
						<rect x="571.613" y="90.501" style="fill:#263238;" width="2.204" height="6.615"/>
						<rect x="574.552" y="89.717" style="fill:#263238;" width="2.204" height="7.399"/>
						<rect x="577.491" y="88.353" style="fill:#263238;" width="2.204" height="8.762"/>
						<g>
							<g>
								<path style="fill:#263238;" d="M606.975,96.964h-13.226v-8.083h13.226V96.964z M594.483,96.229h11.757v-6.613h-11.757
									V96.229z"/>
							</g>
							<g>
								<rect x="595.586" y="90.416" style="fill:#263238;" width="6.981" height="5.014"/>
							</g>
							<g>
								<rect x="606.516" y="91.971" style="fill:#263238;" width="1.663" height="1.904"/>
							</g>
						</g>
						<g>
							<path style="fill:#263238;" d="M588.899,95.206c-0.086,0-0.174-0.022-0.253-0.07c-2.692-1.6-4.471-0.115-4.545-0.052
								c-0.205,0.179-0.517,0.155-0.695-0.049c-0.179-0.206-0.159-0.514,0.045-0.694c0.096-0.084,2.37-2.033,5.701-0.054
								c0.234,0.139,0.312,0.443,0.172,0.677C589.231,95.12,589.067,95.206,588.899,95.206z"/>
						</g>
						<g>
							<path style="fill:#263238;" d="M589.894,93.546c-0.086,0-0.174-0.022-0.253-0.069c-3.892-2.314-6.507-0.075-6.534-0.054
								c-0.205,0.181-0.516,0.16-0.697-0.044c-0.18-0.205-0.161-0.517,0.044-0.697c0.032-0.029,3.187-2.731,7.692-0.054
								c0.234,0.139,0.312,0.443,0.172,0.677C590.227,93.46,590.062,93.546,589.894,93.546z"/>
						</g>
						<g>
							<path style="fill:#263238;" d="M590.798,91.623c-0.086,0-0.174-0.022-0.253-0.069c-4.929-2.931-8.206-0.172-8.343-0.052
								c-0.206,0.179-0.518,0.156-0.696-0.048c-0.18-0.205-0.159-0.515,0.045-0.695c0.039-0.035,3.932-3.365,9.5-0.054
								c0.234,0.139,0.312,0.443,0.172,0.677C591.13,91.537,590.966,91.623,590.798,91.623z"/>
						</g>
						<g>
							<path style="fill:#263238;" d="M587.412,96.034c0,0.684-0.555,1.239-1.239,1.239c-0.684,0-1.239-0.555-1.239-1.239
								c0-0.684,0.555-1.239,1.239-1.239C586.857,94.795,587.412,95.349,587.412,96.034z"/>
						</g>
					</g>
				</g>
			</g>
		</g>
		
			<rect x="438.971" y="138.172" style="fill:#263238;stroke:#263238;stroke-linecap:round;stroke-linejoin:round;stroke-miterlimit:10;" width="5.205" height="20.513"/>
	</g>
</g>
<g id="Device_1">
	<g>
		<g>
			<g>
				<path style="fill:#707070;stroke:#263238;stroke-linecap:round;stroke-linejoin:round;stroke-miterlimit:10;" d="
					M324.018,100.296c0-13.684-11.093-24.778-24.778-24.778H166.149c-13.684,0-24.778,11.093-24.778,24.778v308.926
					c0,13.684,11.093,24.778,24.778,24.778H299.24c13.684,0,24.778-11.093,24.778-24.778V100.296z M310.311,391.524
					c0,13.684-5.174,24.777-18.858,24.777H173.936c-13.684,0-24.778-11.093-24.778-24.777V105.96
					c0-13.684,11.094-24.778,24.778-24.778h49.133l0.049,0.178c1.453,5.236,4.803,8.635,8.51,8.635h2.133
					c3.707,0,7.057-3.398,8.51-8.635l0.049-0.178h49.133c13.684,0,18.858,11.093,18.858,24.778V391.524z"/>
				<path style="fill:#FFFFFF;stroke:#263238;stroke-linecap:round;stroke-linejoin:round;stroke-miterlimit:10;" d="
					M282.024,81.182h-49.133l-0.049,0.178c-1.453,5.236-4.803,8.635-8.51,8.635h-2.133c-3.707,0-7.057-3.398-8.51-8.635
					l-0.049-0.178h-49.133c-13.684,0-24.778,11.093-24.778,24.778v299.583c0,7.852,6.365,14.218,14.218,14.218h138.637
					c7.852,0,14.218-6.365,14.218-14.218V105.96C306.802,92.275,295.708,81.182,282.024,81.182z"/>
				<g style="opacity:0.2;">
					<polyline style="fill:none;stroke:#000000;stroke-miterlimit:10;" points="173.695,116.01 173.695,167.535 161.229,180.001 
						161.229,248.978 					"/>
					<polyline style="fill:none;stroke:#000000;stroke-miterlimit:10;" points="188.501,116.751 188.501,145.847 174.228,161.218 
											"/>
					<line style="fill:none;stroke:#000000;stroke-miterlimit:10;" x1="181.914" y1="152.983" x2="181.914" y2="191.411"/>
					<line style="fill:none;stroke:#000000;stroke-miterlimit:10;" x1="200.579" y1="116.202" x2="200.579" y2="173.295"/>
					<circle style="fill:none;stroke:#000000;stroke-miterlimit:10;" cx="161.229" cy="251.5" r="2.12"/>
					<path style="fill:none;stroke:#000000;stroke-miterlimit:10;" d="M183.978,192.951c0-1.171-0.949-2.12-2.12-2.12
						c-1.171,0-2.12,0.949-2.12,2.12s0.949,2.12,2.12,2.12C183.028,195.071,183.978,194.122,183.978,192.951z"/>
					<path style="fill:none;stroke:#000000;stroke-miterlimit:10;" d="M202.549,175.808c0-1.171-0.949-2.12-2.12-2.12
						c-1.171,0-2.12,0.949-2.12,2.12c0,1.171,0.949,2.12,2.12,2.12C201.6,177.929,202.549,176.979,202.549,175.808z"/>
				</g>
				<g style="opacity:0.2;">
					<polyline style="fill:none;stroke:#000000;stroke-miterlimit:10;" points="267.82,116.01 267.82,167.535 280.286,180.001 
						280.286,248.978 					"/>
					<polyline style="fill:none;stroke:#000000;stroke-miterlimit:10;" points="253.014,116.751 253.014,145.847 267.287,161.218 
											"/>
					<line style="fill:none;stroke:#000000;stroke-miterlimit:10;" x1="259.601" y1="152.983" x2="259.601" y2="191.411"/>
					<line style="fill:none;stroke:#000000;stroke-miterlimit:10;" x1="240.936" y1="116.202" x2="240.936" y2="173.295"/>
					<path style="fill:none;stroke:#000000;stroke-miterlimit:10;" d="M278.165,251.5c0-1.171,0.949-2.12,2.12-2.12
						c1.171,0,2.12,0.949,2.12,2.12s-0.949,2.12-2.12,2.12C279.115,253.62,278.165,252.671,278.165,251.5z"/>
					<circle style="fill:none;stroke:#000000;stroke-miterlimit:10;" cx="259.658" cy="192.951" r="2.12"/>
					<path style="fill:none;stroke:#000000;stroke-miterlimit:10;" d="M238.966,175.808c0-1.171,0.949-2.12,2.12-2.12
						c1.171,0,2.12,0.949,2.12,2.12c0,1.171-0.949,2.12-2.12,2.12C239.915,177.929,238.966,176.979,238.966,175.808z"/>
				</g>
				<path style="fill:#92E3A9;stroke:#263238;stroke-linecap:round;stroke-linejoin:round;stroke-miterlimit:10;" d="M306.802,116
					v-10.04c0-13.684-11.093-24.778-24.778-24.778h-49.133l-0.049,0.178c-1.454,5.236-4.803,8.635-8.51,8.635h-2.133
					c-3.707,0-7.057-3.398-8.51-8.635l-0.049-0.178h-49.133c-13.684,0-24.778,11.093-24.778,24.778V116H306.802z"/>
				<path style="fill:#92E3A9;stroke:#263238;stroke-linecap:round;stroke-linejoin:round;stroke-miterlimit:10;" d="M139.729,399
					v6.542c0,7.852,6.365,14.218,14.218,14.218h138.637c7.852,0,14.218-6.365,14.218-14.218V399H139.729z"/>
				<g>
					<g>
						<path style="fill:#707070;stroke:#263238;stroke-linecap:round;stroke-linejoin:round;stroke-miterlimit:10;" d="
							M314.589,100.296c0-13.684-11.093-24.778-24.778-24.778H156.72c-13.684,0-24.778,11.093-24.778,24.778v308.926
							c0,13.684,11.093,24.778,24.778,24.778h133.091c13.684,0,24.778-11.093,24.778-24.778V100.296z M306.801,391.524
							c0,13.684-11.093,24.777-24.778,24.777H164.507c-13.684,0-24.778-11.093-24.778-24.777V105.96
							c0-13.684,11.093-24.778,24.778-24.778h49.133l0.049,0.178c1.453,5.236,4.803,8.635,8.51,8.635h2.133
							c3.707,0,7.057-3.398,8.51-8.635l0.049-0.178h49.133c13.684,0,24.778,11.093,24.778,24.778V391.524z"/>
						<path style="fill:#263238;stroke:#263238;stroke-linecap:round;stroke-linejoin:round;stroke-miterlimit:10;" d="
							M285.47,78.932H161.061c-14.497,0-26.25,11.752-26.25,26.25v299.155c0,14.497,11.753,26.25,26.25,26.25H285.47
							c14.497,0,26.25-11.753,26.25-26.25V105.182C311.72,90.684,299.968,78.932,285.47,78.932z M306.801,391.524
							c0,13.684-11.093,24.777-24.778,24.777H164.507c-13.684,0-24.778-11.093-24.778-24.777V105.96
							c0-13.684,11.093-24.778,24.778-24.778h49.133l0.049,0.178c1.453,5.236,4.803,8.635,8.51,8.635h2.133
							c3.707,0,7.057-3.398,8.51-8.635l0.049-0.178h49.133c13.684,0,24.778,11.093,24.778,24.778V391.524z"/>
					</g>
					<path style="fill:#707070;" d="M225.081,82.369c0-1.285-1.041-2.326-2.326-2.326c-1.285,0-2.326,1.042-2.326,2.326
						c0,1.285,1.042,2.326,2.326,2.326C224.04,84.696,225.081,83.654,225.081,82.369z"/>
				</g>
				<g>
					<g>
						<g>
							<path style="fill:#263238;" d="M154.576,91.284c0,2.354-2.643,3.201-2.654,4.996v0.123h2.565v0.792h-3.424v-0.669
								c0-2.52,2.643-3.011,2.643-5.208c0-0.803-0.268-1.226-0.915-1.226c-0.636,0-0.915,0.457-0.915,1.148v0.692h-0.814v-0.635
								c0-1.194,0.547-1.985,1.75-1.985C154.03,89.309,154.576,90.091,154.576,91.284z"/>
							<path style="fill:#263238;" d="M158.849,91.273v0.201c0,0.803-0.323,1.372-0.948,1.606c0.657,0.245,0.948,0.837,0.948,1.617
								v0.602c0,1.193-0.558,1.974-1.762,1.974c-1.193,0-1.75-0.781-1.75-1.974v-0.536h0.814v0.591c0,0.703,0.29,1.127,0.915,1.127
								c0.636,0,0.915-0.413,0.915-1.204v-0.602c0-0.77-0.324-1.138-0.982-1.16h-0.468v-0.781h0.513
								c0.58-0.022,0.937-0.39,0.937-1.07v-0.357c0-0.803-0.279-1.215-0.915-1.215c-0.625,0-0.915,0.435-0.915,1.137v0.402h-0.814
								v-0.357c0-1.193,0.557-1.963,1.75-1.963C158.292,89.309,158.849,90.079,158.849,91.273z"/>
							<path style="fill:#263238;" d="M160.535,91.864v1.082h-0.837v-1.082H160.535z M160.535,96.113v1.082h-0.837v-1.082H160.535z"
								/>
							<path style="fill:#263238;" d="M162.297,92.566c0.245-0.424,0.635-0.647,1.16-0.647c1.004,0,1.449,0.736,1.449,1.851v1.528
								c0,1.193-0.568,1.974-1.761,1.974c-1.194,0-1.751-0.781-1.751-1.974v-0.524h0.814v0.58c0,0.703,0.29,1.127,0.915,1.127
								c0.625,0,0.915-0.424,0.915-1.127v-1.517c0-0.702-0.29-1.127-0.915-1.127c-0.479,0-0.803,0.268-0.881,0.837v0.178h-0.814
								l0.212-4.339h3.078v0.781h-2.298L162.297,92.566z"/>
							<path style="fill:#263238;" d="M169.247,91.261v0.145h-0.814v-0.201c0-0.703-0.29-1.115-0.926-1.115
								c-0.658,0-0.948,0.424-0.948,1.26v1.751c0.212-0.535,0.636-0.837,1.26-0.837c1.004,0,1.45,0.725,1.45,1.852v1.182
								c0,1.193-0.592,1.974-1.785,1.974c-1.205,0-1.796-0.781-1.796-1.974v-3.982c0-1.238,0.558-2.008,1.796-2.008
								C168.689,89.309,169.247,90.068,169.247,91.261z M166.559,94.184v1.171c0,0.703,0.29,1.127,0.926,1.127
								c0.625,0,0.926-0.424,0.926-1.127v-1.171c0-0.703-0.301-1.127-0.926-1.127C166.849,93.057,166.559,93.481,166.559,94.184z"/>
						</g>
						<g>
							<rect x="252.273" y="91.605" style="fill:#263238;" width="2.204" height="5.511"/>
							<rect x="255.212" y="90.501" style="fill:#263238;" width="2.204" height="6.615"/>
							<rect x="258.151" y="89.717" style="fill:#263238;" width="2.204" height="7.399"/>
							<rect x="261.09" y="88.353" style="fill:#263238;" width="2.204" height="8.762"/>
							<g>
								<g>
									<path style="fill:#263238;" d="M290.574,96.964h-13.226v-8.083h13.226V96.964z M278.082,96.229h11.757v-6.613h-11.757
										V96.229z"/>
								</g>
								<g>
									<rect x="279.185" y="90.416" style="fill:#263238;" width="6.98" height="5.014"/>
								</g>
								<g>
									<rect x="290.115" y="91.971" style="fill:#263238;" width="1.663" height="1.904"/>
								</g>
							</g>
							<g>
								<path style="fill:#263238;" d="M272.498,95.206c-0.086,0-0.174-0.022-0.253-0.07c-2.692-1.6-4.471-0.115-4.545-0.052
									c-0.205,0.179-0.517,0.155-0.695-0.049c-0.178-0.206-0.159-0.514,0.045-0.694c0.095-0.084,2.37-2.033,5.701-0.054
									c0.234,0.139,0.312,0.443,0.172,0.677C272.83,95.12,272.666,95.206,272.498,95.206z"/>
							</g>
							<g>
								<path style="fill:#263238;" d="M273.494,93.546c-0.086,0-0.174-0.022-0.253-0.069c-3.892-2.314-6.507-0.075-6.534-0.054
									c-0.204,0.181-0.516,0.16-0.697-0.044c-0.18-0.205-0.161-0.517,0.044-0.697c0.032-0.029,3.187-2.731,7.692-0.054
									c0.234,0.139,0.312,0.443,0.172,0.677C273.826,93.46,273.662,93.546,273.494,93.546z"/>
							</g>
							<g>
								<path style="fill:#263238;" d="M274.398,91.623c-0.086,0-0.174-0.022-0.253-0.069c-4.929-2.931-8.206-0.172-8.343-0.052
									c-0.206,0.179-0.518,0.156-0.697-0.048c-0.18-0.205-0.159-0.515,0.045-0.695c0.039-0.035,3.932-3.365,9.5-0.054
									c0.234,0.139,0.312,0.443,0.172,0.677C274.73,91.537,274.566,91.623,274.398,91.623z"/>
							</g>
							<g>
								<path style="fill:#263238;" d="M271.011,96.034c0,0.684-0.555,1.239-1.239,1.239c-0.684,0-1.239-0.555-1.239-1.239
									c0-0.684,0.555-1.239,1.239-1.239C270.456,94.795,271.011,95.349,271.011,96.034z"/>
							</g>
						</g>
					</g>
				</g>
			</g>
			
				<rect x="316.853" y="138.172" style="fill:#263238;stroke:#263238;stroke-linecap:round;stroke-linejoin:round;stroke-miterlimit:10;" width="5.205" height="20.513"/>
			
				<rect x="316.853" y="182.565" style="fill:#263238;stroke:#263238;stroke-linecap:round;stroke-linejoin:round;stroke-miterlimit:10;" width="5.205" height="20.513"/>
			
				<rect x="316.853" y="205.221" style="fill:#263238;stroke:#263238;stroke-linecap:round;stroke-linejoin:round;stroke-miterlimit:10;" width="5.205" height="20.513"/>
		</g>
		<g>
			<path style="fill:#263238;" d="M178.185,219.219v0.356h-1.386v-0.431c0-1.18-0.449-1.872-1.497-1.872
				c-1.048,0-1.498,0.693-1.498,1.854c0,2.939,4.4,3.221,4.4,6.909c0,1.985-0.955,3.276-2.958,3.276s-2.939-1.292-2.939-3.276
				v-0.749h1.367v0.824c0,1.179,0.487,1.872,1.535,1.872c1.048,0,1.535-0.693,1.535-1.872c0-2.921-4.381-3.202-4.381-6.89
				c0-2.022,0.936-3.276,2.902-3.276C177.249,215.942,178.185,217.234,178.185,219.219z"/>
			<path style="fill:#263238;" d="M184.141,221.877v1.311h-3.201v4.662h3.932v1.329h-5.392v-13.106h5.392v1.33h-3.932v4.475H184.141
				z"/>
			<path style="fill:#263238;" d="M192.006,219.237v1.18h-1.385v-1.254c0-1.18-0.468-1.891-1.536-1.891
				c-1.048,0-1.535,0.711-1.535,1.891v6.927c0,1.18,0.487,1.891,1.535,1.891c1.067,0,1.536-0.712,1.536-1.891v-1.704h1.385v1.629
				c0,1.984-0.936,3.295-2.958,3.295c-2.003,0-2.939-1.311-2.939-3.295v-6.778c0-1.984,0.936-3.295,2.939-3.295
				C191.07,215.942,192.006,217.253,192.006,219.237z"/>
			<path style="fill:#263238;" d="M194.723,226.09c0,1.18,0.468,1.891,1.535,1.891c1.049,0,1.517-0.712,1.517-1.891v-10.017h1.367
				v9.942c0,1.984-0.917,3.314-2.939,3.314c-2.003,0-2.92-1.33-2.92-3.314v-9.942h1.441V226.09z"/>
			<path style="fill:#263238;" d="M203.506,216.073c2.06,0,2.921,1.049,2.921,2.996v1.067c0,1.441-0.505,2.34-1.629,2.696
				c1.198,0.356,1.648,1.33,1.648,2.734v2.04c0,0.581,0.019,1.124,0.262,1.573h-1.479c-0.169-0.374-0.243-0.711-0.243-1.591v-2.06
				c0-1.479-0.693-1.947-1.91-1.947h-1.029v5.598h-1.46v-13.106H203.506z M203.132,222.252c1.161,0,1.854-0.375,1.854-1.797V219.2
				c0-1.18-0.431-1.797-1.517-1.797h-1.423v4.849H203.132z"/>
			<path style="fill:#263238;" d="M212.627,221.877v1.311h-3.201v4.662h3.932v1.329h-5.392v-13.106h5.392v1.33h-3.932v4.475H212.627
				z"/>
			<path style="fill:#263238;" d="M220.475,216.073c2.06,0,2.939,1.217,2.939,3.202v1.573c0,2.078-0.974,3.164-3.052,3.164h-1.292
				v5.167h-1.46v-13.106H220.475z M220.362,222.701c1.086,0,1.61-0.505,1.61-1.76V219.2c0-1.198-0.431-1.797-1.498-1.797h-1.404
				v5.298H220.362z"/>
			<path style="fill:#263238;" d="M225.794,226.54l-0.505,2.64h-1.348l2.509-13.106h2.116l2.509,13.106h-1.46l-0.505-2.64H225.794z
				 M225.981,225.285h2.921l-1.479-7.564L225.981,225.285z"/>
			<path style="fill:#263238;" d="M233.623,224.48l-2.771-8.407h1.517l2.041,6.441l2.06-6.441h1.385l-2.79,8.407v4.699h-1.442
				V224.48z"/>
			<path style="fill:#263238;" d="M243.735,229.161h-1.404l-2.172-10.429v10.447h-1.273v-13.106h2.041l2.153,10.466l2.079-10.466
				h2.041v13.106h-1.385v-10.541L243.735,229.161z"/>
			<path style="fill:#263238;" d="M253.362,221.877v1.311h-3.201v4.662h3.932v1.329H248.7v-13.106h5.392v1.33h-3.932v4.475H253.362z
				"/>
			<path style="fill:#263238;" d="M256.734,229.179h-1.311v-13.106h1.854l3.033,9.474v-9.474h1.292v13.106h-1.517l-3.352-10.597
				V229.179z"/>
			<path style="fill:#263238;" d="M264.993,229.179v-11.776h-2.415v-1.33h6.272v1.33h-2.415v11.776H264.993z"/>
		</g>
		<path style="fill:#263238;stroke:#263238;stroke-miterlimit:10;" d="M232.474,172.873v-4.345c0-8.579-5.707-11.615-11.54-11.615
			c-5.947,0-11.411,4.372-11.411,11.615v4.345h-1.624v24.066h26.071v-24.066H232.474z M221.705,186.099v4.36h-2.469v-4.36
			c-1.206-0.489-2.058-1.667-2.058-3.048c0-1.818,1.474-3.292,3.292-3.292c1.818,0,3.292,1.474,3.292,3.292
			C223.762,184.432,222.91,185.61,221.705,186.099z M228.862,172.873h-15.854v-4.345c0-4.371,3.556-7.927,7.927-7.927
			c4.371,0,7.927,2.99,7.927,7.927V172.873z"/>
		<g>
			<path style="fill:#92E3A9;stroke:#263238;stroke-linecap:round;stroke-linejoin:round;stroke-miterlimit:10;" d="
				M259.762,303.447h-79.333c-3.314,0-6-2.686-6-6v-47.333c0-3.314,2.686-6,6-6h79.333c3.314,0,6,2.686,6,6v47.333
				C265.762,300.76,263.076,303.447,259.762,303.447z"/>
			<rect x="174.429" y="253.447" style="fill:#263238;stroke:#263238;stroke-miterlimit:10;" width="91.333" height="16.667"/>
			<path style="fill:#FFFFFF;stroke:#263238;stroke-linecap:round;stroke-linejoin:round;stroke-miterlimit:10;" d="
				M255.732,293.926h-7.614c-1.72,0-3.115-1.395-3.115-3.115v-7.614c0-1.72,1.395-3.115,3.115-3.115h7.614
				c1.72,0,3.115,1.395,3.115,3.115v7.614C258.846,292.531,257.452,293.926,255.732,293.926z"/>
			
				<rect x="183.052" y="290.465" style="fill:#FFFFFF;stroke:#263238;stroke-linecap:round;stroke-linejoin:round;stroke-miterlimit:10;" width="32.879" height="3.807"/>
		</g>
	</g>
</g>
<g id="Character">
	<g>
		<g>
			<path style="fill:#FFFFFF;stroke:#263238;stroke-linecap:round;stroke-linejoin:round;stroke-miterlimit:10;" d="
				M121.388,295.563l2.509,10.818c0,0-3.292,3.763-6.271,2.352c-2.979-1.411-4.076-9.25-4.076-9.25L121.388,295.563z"/>
			<path style="fill:#92E3A9;stroke:#263238;stroke-linecap:round;stroke-linejoin:round;stroke-miterlimit:10;" d="
				M113.753,268.768c0,0,2.809,2.247,3.371,5.992c0.562,3.745,9.035,28.746,9.035,28.746s-4.728-0.932-9.222,0.753
				c-4.494,1.685-9.128-2.782-9.128-2.782l-0.234-29.526"/>
			<path style="fill:#92E3A9;stroke:#263238;stroke-linecap:round;stroke-linejoin:round;stroke-miterlimit:10;" d="
				M113.842,301.006l11.577-1.89c0,0,1.241,1.929,0.739,4.39c-0.502,2.462,0.069,3.356-1.634,3.972
				c-1.703,0.616-6.901-0.093-8.319-1.983C114.788,303.605,113.842,301.006,113.842,301.006z"/>
			
				<line style="fill:none;stroke:#263238;stroke-linecap:round;stroke-linejoin:round;stroke-miterlimit:10;" x1="113.736" y1="292.025" x2="115.995" y2="280.732"/>
		</g>
		<path style="fill:#FFFFFF;stroke:#263238;stroke-linecap:round;stroke-linejoin:round;stroke-miterlimit:10;" d="M60.198,300.601
			l0.04,0.023c2.447-8.746,7.426-23.457,8.386-26.613c1.311-4.307,3.558-5.43,3.558-5.43l3.371,20.972l-1.311,2.809
			c0,0-3.64,10.121-6.398,15.12l7.521,15.964l2.621,5.618l-3.37,4.869c0,0-15.355-23.781-16.104-25.467
			S60.198,300.601,60.198,300.601z"/>
		<g>
			<path style="fill:#92E3A9;stroke:#263238;stroke-linecap:round;stroke-linejoin:round;stroke-miterlimit:10;" d="M73.119,268.206
				c0,0-2.621,0.562-4.494,3.558c-1.873,2.996-11.048,33.144-11.048,33.144s2.809,2.247,6.554,2.809
				c3.745,0.562,3.714-0.234,3.714-0.234l7.521-13.81"/>
		</g>
		<path style="fill:#92E3A9;stroke:#263238;stroke-linecap:round;stroke-linejoin:round;stroke-miterlimit:10;" d="M58.555,299.352
			c0,0-2.835,5.671-1.418,7.088c1.418,1.418,7.797,2.835,11.577,1.89l0.945-4.962C69.66,303.368,60.917,301.478,58.555,299.352z"/>
		<polyline style="fill:none;stroke:#263238;stroke-linecap:round;stroke-linejoin:round;stroke-miterlimit:10;" points="
			69.694,282.991 74.211,295.789 68,288.072 		"/>
		<path style="fill:#FFFFFF;stroke:#263238;stroke-linecap:round;stroke-linejoin:round;stroke-miterlimit:10;" d="M116.586,425.932
			c0,0,0,0.761,4.757,4.757c4.757,3.996,5.708,5.137,4.376,6.469c-1.332,1.332-7.801-1.142-9.894-2.474
			c-2.093-1.332-1.142-1.332-3.615-2.473c-2.474-1.142-1.332-5.138-0.951-6.089C111.639,425.171,116.586,425.932,116.586,425.932z"
			/>
		<path style="fill:#FFFFFF;stroke:#263238;stroke-linecap:round;stroke-linejoin:round;stroke-miterlimit:10;" d="M70.574,425.07
			c0,0,0,0.761-4.757,4.757c-4.757,3.996-5.708,5.137-4.376,6.469c1.332,1.332,7.801-1.142,9.894-2.474
			c2.093-1.332,1.142-1.332,3.615-2.474c2.474-1.142,1.332-5.137,0.951-6.089C75.521,424.309,70.574,425.07,70.574,425.07z"/>
		<path style="fill:#263238;stroke:#263238;stroke-linecap:round;stroke-linejoin:round;stroke-miterlimit:10;" d="M73.495,353.854
			c-0.607-6.402,0.748-18.966,0.748-20.483c0-1.602,2.872-7.713,3.703-9.449l0.081-2.004c0,0,29.601-1.117,33.51-2.513
			c0,0,4.567,16.06,5.125,31.139c0.558,15.08,3.072,33.51,2.513,44.122c-0.447,8.496-0.842,25.434-1.217,31.124
			c-0.088,1.335-1.042,2.452-2.346,2.748l-0.685,0.155c-1.744,0.396-3.449-0.796-3.669-2.571
			c-1.373-11.042-6.445-48.104-8.559-54.914c-2.513-8.098-7.679-30.02-7.679-30.02s-11.868,54.035-13.264,61.296
			c-1.396,7.26-5.864,23.736-5.864,23.736s-2.234,0.838-3.63,0.838c-1.396,0-3.053-0.556-3.053-0.556L73.495,353.854z"/>
		<g>
			<path style="fill:#92E3A9;stroke:#263238;stroke-linecap:round;stroke-linejoin:round;stroke-miterlimit:10;" d="M94.348,263.078
				c0,0,7.221,1.444,12.095,2.888c4.874,1.444,8.123,2.347,8.123,3.971s-2.166,50.183-2.166,50.183s-0.18,1.986-4.513,2.527
				c-4.332,0.542-27.258,1.264-28.702,0.903c-1.444-0.361-1.986-1.805-2.166-3.971c-0.181-2.166-5.777-48.198-5.415-50.364
				c0.361-2.166,18.052-5.415,18.593-5.596C90.738,263.439,92.362,262.716,94.348,263.078z"/>
			<path style="fill:#92E3A9;stroke:#263238;stroke-linecap:round;stroke-linejoin:round;stroke-miterlimit:10;" d="
				M100.373,270.004c0,3.638-3.539,6.587-7.905,6.587c-4.366,0-7.905-2.949-7.905-6.587c0-3.638,3.539-6.588,7.905-6.588
				C96.834,263.416,100.373,266.366,100.373,270.004z"/>
			<path style="fill:#263238;stroke:#263238;stroke-linecap:round;stroke-linejoin:round;stroke-miterlimit:10;" d="M72.183,268.581
				l20.024,12.509l-0.204,23.275l8.167-0.612l-3.675-22.254l16.333-12.658l-14.292-5.512c0,0-0.408,5.308-0.817,7.146
				c-0.408,1.837-1.701,3.843-5.546,3.759c-3.845-0.084-5.887-5.596-5.887-5.596l0.119-5.333
				C86.405,263.303,74.004,266.076,72.183,268.581z"/>
			<path style="fill:none;stroke:#263238;stroke-linecap:round;stroke-linejoin:round;stroke-miterlimit:10;" d="M113.07,290.993
				c0,0-7.459,16.694-17.404,25.218"/>
			<path style="fill:none;stroke:#263238;stroke-linecap:round;stroke-linejoin:round;stroke-miterlimit:10;" d="M84.551,320.43
				c-0.849,0.639-1.654,1.145-2.383,1.464"/>
			<path style="fill:none;stroke:#263238;stroke-linecap:round;stroke-linejoin:round;stroke-miterlimit:10;" d="M98.152,305.555
				c0,0-6.44,8.661-11.945,13.515"/>
		</g>
		<g>
			<path style="fill:#FFFFFF;stroke:#263238;stroke-linecap:round;stroke-linejoin:round;stroke-miterlimit:10;" d="M99.473,250.662
				c0,0,1.669-4.172,2.503-0.834c0.834,3.337-2.086,7.509-3.755,6.258"/>
			<path style="fill:#FFFFFF;stroke:#263238;stroke-linecap:round;stroke-linejoin:round;stroke-miterlimit:10;" d="M82.369,251.705
				c0,0-3.546-2.294-3.337,0.834c0.209,3.129,3.337,6.675,4.38,4.797"/>
			<path style="fill:#FFFFFF;stroke:#263238;stroke-linecap:round;stroke-linejoin:round;stroke-miterlimit:10;" d="M98.222,256.085
				l-0.209,12.932c0,0-0.209,5.215-5.84,5.215c-5.632,0-5.423-6.466-5.423-6.466l-1.252-10.429
				C85.498,257.337,94.467,258.38,98.222,256.085z"/>
			<path style="fill:#263238;" d="M92.481,266.897c1.733-0.315,3.913-2.351,5.609-4.233l0.079-4.925l-3.464-2.089
				c-1.982,0.332-4.187,0.367-5.944,0.314l-2.906,2.764l0.549,4.575C87.937,265.027,90.388,267.277,92.481,266.897z"/>
			<path style="fill:#FFFFFF;stroke:#263238;stroke-linecap:round;stroke-linejoin:round;stroke-miterlimit:10;" d="M80.865,248.723
				c0,0-2.503-7.718,4.172-12.307c6.675-4.589,13.767,1.251,14.601,7.092c0.834,5.84,0.209,13.558-2.92,17.938
				c-3.129,4.38-5.072,4.695-8.552,2.086C84.686,260.923,81.074,253.729,80.865,248.723z"/>
			<path style="fill:#263238;stroke:#263238;stroke-linecap:round;stroke-linejoin:round;stroke-miterlimit:10;" d="M85.042,244.207
				c0,0-2.328,3.928-1.019,4.219c1.309,0.291,6.693-3.492,6.693-3.492s-1.019,2.182,1.164,2.182c2.182,0,4.656-5.529,4.656-5.529
				s-0.291,1.746,0.728,3.201c1.019,1.455,2.182,3.346,2.182,3.346l0.146,0.873l1.601-0.873c0,0-0.146-7.566-0.291-8.73
				c-0.146-1.164,2.91,2.328,3.055-0.146c0.146-2.473-6.693-6.402-7.275-6.693c-0.582-0.291,3.783,0,2.91-1.164
				c-0.873-1.164-6.984-2.764-9.312-1.892c-2.328,0.873-7.857,4.365-7.857,4.365s-1.164-2.91-2.183-0.146
				c-1.018,2.764-3.055,5.529-2.328,8.002s2.91,8.002,3.055,8.439c0.146,0.436,2.91-5.965,2.91-5.965S81.55,247.844,85.042,244.207z
				"/>
			<path style="fill:none;stroke:#263238;stroke-linecap:round;stroke-linejoin:round;stroke-miterlimit:10;" d="M84.88,252.969
				c0,0,1.42,1.162,3.744,0"/>
			<path style="fill:none;stroke:#263238;stroke-linecap:round;stroke-linejoin:round;stroke-miterlimit:10;" d="M92.757,252.581
				c0,0,3.099,1.033,4.39-0.646"/>
			<path style="fill:none;stroke:#263238;stroke-linecap:round;stroke-linejoin:round;stroke-miterlimit:10;" d="M89.787,257.617
				c0,0,1.162,0.904,1.937,0.646c0.775-0.258,1.033-1.291,1.033-1.291"/>
			<path style="fill:none;stroke:#263238;stroke-linecap:round;stroke-linejoin:round;stroke-miterlimit:10;" d="M90.045,260.199
				c0,0,1.937,1.033,3.615-0.775"/>
			<path style="fill:none;stroke:#263238;stroke-linecap:round;stroke-linejoin:round;stroke-miterlimit:10;" d="M84.364,250.903
				c0,0,2.453-1.291,4.39-0.646"/>
			<path style="fill:none;stroke:#263238;stroke-linecap:round;stroke-linejoin:round;stroke-miterlimit:10;" d="M91.982,250.128
				c0,0,2.066-1.679,4.261-0.646"/>
		</g>
		<g>
			<polygon style="fill:#FFFFFF;stroke:#263238;stroke-linecap:round;stroke-linejoin:round;stroke-miterlimit:10;" points="
				90.763,277.825 93.239,295.027 101.411,294.181 99.678,276.415 			"/>
			<path style="fill:#FFFFFF;stroke:#263238;stroke-linecap:round;stroke-linejoin:round;stroke-miterlimit:10;" d="
				M104.456,287.724l-1.254-2.822l-2.822-1.881l0.314,1.881l1.097,2.509l-4.86-0.784l-4.233-0.157c0,0-0.47,0.941,0,1.098
				c0.47,0.157,3.606,1.411,3.606,1.411l-4.547,0.47c0,0-0.627,1.254,0,1.568c0.627,0.314,1.725,3.136,3.449,3.606
				c1.725,0.47,7.996-0.941,7.996-0.941s10.034,18.03,12.072,19.441c2.038,1.411,5.801,0.627,6.742,0.157
				c0.941-0.47,2.682-2.955,2.509-5.801c-0.076-1.252-18.971-17.246-18.971-17.246L104.456,287.724z"/>
		</g>
	</g>
</g>
</svg>
