<svg xmlns="http://www.w3.org/2000/svg" viewBox="0 0 500 500" style="enable-background:new 0 0 500 500" xml:space="preserve"><path style="fill:#92e3a9" d="M452.282 118.763a171.238 171.238 0 0 0-5.186-8.122c-23.997-35.26-63.947-59.4-102.773-70.333-17.009-4.797-34.472-7.306-51.905-7.947-114.344-4.155-156.35 90.124-193.19 114.432-36.84 24.309-93.374 65.829-86.28 153.049 5.383 66.316 43.109 129.726 112.009 158.581a195.65 195.65 0 0 0 23.912 8.251c15.531 4.273 32.363 6.955 50.5 7.762 52.092 2.321 94.389-10.236 135.763-41.857 9.617-7.35 19.183-15.641 31.664-16.549 9.072-.66 17.673 2.599 8.19 11.366-11.145 10.305 1.715 30.572 30.006 16.491 47.251-23.517 66.689-74.256 75.846-125.85 11.24-63.329 5.791-142.085-28.556-199.274z"/><path style="opacity:.7;fill:#fff" d="M452.282 118.763a171.238 171.238 0 0 0-5.186-8.122c-23.997-35.26-63.947-59.4-102.773-70.333-17.009-4.797-34.472-7.306-51.905-7.947-114.344-4.155-156.35 90.124-193.19 114.432-36.84 24.309-93.374 65.829-86.28 153.049 5.383 66.316 43.109 129.726 112.009 158.581a195.65 195.65 0 0 0 23.912 8.251c15.531 4.273 32.363 6.955 50.5 7.762 52.092 2.321 94.389-10.236 135.763-41.857 9.617-7.35 19.183-15.641 31.664-16.549 9.072-.66 17.673 2.599 8.19 11.366-11.145 10.305 1.715 30.572 30.006 16.491 47.251-23.517 66.689-74.256 75.846-125.85 11.24-63.329 5.791-142.085-28.556-199.274z"/><path style="fill:none;stroke:#263238;stroke-linecap:round;stroke-linejoin:round;stroke-miterlimit:10" d="M39.123 400.83h436.633M22.922 400.83h9.275"/><path style="fill:#92e3a9;stroke:#263238;stroke-linecap:round;stroke-linejoin:round;stroke-miterlimit:10" d="M399.054 278.782s-2.51 6.902-7.843 7.843c-5.333.941-14.746-9.412-8.785-14.746 5.961-5.332 14.118 3.138 16.628 6.903zM407.211 244.899s-7.844 19.138-4.706 28.55c3.137 9.412 22.589 16.314 28.236 4.079 5.647-12.236-6.902-29.491-11.608-33.256-4.706-3.766-10.353-2.511-11.922.627zM453.017 253.056s-13.491 12.236-15.059 24.471c-1.569 12.236 7.53 16.628 16.942 15.059 9.412-1.569 14.118-25.412 11.294-36.393-2.824-10.981-13.177-3.137-13.177-3.137zM455.527 320.823s-15.059.628-15.687 7.844c-.627 7.216 6.588 8.785 13.804 2.51 7.216-6.276 8.157-10.041 1.883-10.354z"/><path style="fill:none;stroke:#263238;stroke-linecap:round;stroke-linejoin:round;stroke-miterlimit:10" d="M440.089 330.386s11.868-5.43 17.213-6.373"/><path style="fill:#92e3a9;stroke:#263238;stroke-linecap:round;stroke-linejoin:round;stroke-miterlimit:10" d="M418.192 335.882s-1.569 7.53-7.216 10.353c-5.647 2.823-15.687-3.137-10.353-12.236 5.333-9.098 14.745-1.882 17.569 1.883zM405.015 312.352s-2.824-6.275-13.804-2.196c-10.981 4.079-15.373 10.353-8.471 12.549 6.902 2.196 22.275-10.353 22.275-10.353z"/><path style="fill:none;stroke:#263238;stroke-linecap:round;stroke-linejoin:round;stroke-miterlimit:10" d="M402.913 312.066s-11.632 1.258-17.92 6.602"/><path style="fill:#92e3a9;stroke:#263238;stroke-linecap:round;stroke-linejoin:round;stroke-miterlimit:10" d="M436.389 237.055s1.882 4.392 5.647 3.451c3.765-.941 4.706-6.589 10.667-5.02 5.961 1.569 10.98 8.471 10.98 5.334 0-3.138-7.53-11.295-16-11.295-8.471.001-10.981 3.452-11.294 7.53z"/><path style="fill:none;stroke:#263238;stroke-linecap:round;stroke-linejoin:round;stroke-miterlimit:10" d="M428.838 362.733s1.406-26.253 0-42.661c-1.407-16.408-7.97-35.629-7.97-35.629l-7.895-35.256M432.119 362.733s.469-21.565 2.344-35.629c1.875-14.064 9.376-36.098 9.376-36.098l14.091-30.186"/><path style="fill:none;stroke:#263238;stroke-linecap:round;stroke-linejoin:round;stroke-miterlimit:10" d="M440.089 330.386s-3.281.938-5.156 32.816M424.15 362.264s.938-16.877-.938-22.971c-1.875-6.095-5.02-3.411-5.02-3.411s-8.677 1.021-11.821 6.051M426.304 332.862c2.453 13.743.19 28.934.19 28.934M405.015 312.352s13.509-2.593 19.135 12.408a41.668 41.668 0 0 1 1.41 4.591"/><path style="fill:#92e3a9;stroke:#263238;stroke-linecap:round;stroke-linejoin:round;stroke-miterlimit:10" d="M461.395 297.819s2.823-6.275 13.804-2.196c10.981 4.079 15.373 10.353 8.471 12.549-6.902 2.196-22.275-10.353-22.275-10.353z"/><path style="fill:none;stroke:#263238;stroke-linecap:round;stroke-linejoin:round;stroke-miterlimit:10" d="M463.904 298.233s11.318-.629 16.663 5.973M449.386 300.567c-2.715 1.858-5.324 4.858-7.126 9.661-5.625 15.001-4.984 52.037-4.984 52.037M461.395 297.819s-4.478-.86-9.352 1.274M413.849 288.353c2.931 3.441 5.772 8.094 7.957 14.374 7.501 21.565 10.313 49.224 8.907 59.538M412.217 286.564c-6.622-6.762-13.163-7.782-13.163-7.782s-9.66-2.557-13.433.902M432.899 308.534c-.457 27.216-.78 54.199-.78 54.199M432.957 305.148c.309-17.997.674-35.609 1.038-45.082.938-24.378 2.394-23.01 2.394-23.01s1.735-5.473 11.482-4.845"/><path style="fill:#263238;stroke:#263238;stroke-linecap:round;stroke-linejoin:round;stroke-miterlimit:10" d="M447.136 410.55h-30.503a4.063 4.063 0 0 1-4.044-3.671l-4.378-45.084h47.349l-4.379 45.084a4.063 4.063 0 0 1-4.045 3.671z"/><path style="fill:#fff;stroke:#263238;stroke-linecap:round;stroke-linejoin:round;stroke-miterlimit:10" d="m409.622 376.328.501 5.157h43.524l.501-5.157zM452.555 392.736l.273-2.813h-41.886l.274 2.813z"/><g><path style="fill:none;stroke:#263238;stroke-linecap:round;stroke-linejoin:round;stroke-miterlimit:10" d="M56.699 186.669v8.87M61.134 191.104h-8.87M433.886 209.516v8.871M438.321 213.952h-8.87M386.176 107.171v8.87M390.611 111.605h-8.87M206.878 55.613v8.87M211.313 60.048h-8.87M151.473 376.097v8.87M155.908 380.532h-8.87M41.431 311.862v8.871M45.867 316.298h-8.871"/><circle transform="rotate(-76.761 348.064 78.704)" style="fill:none;stroke:#263238;stroke-linecap:round;stroke-linejoin:round;stroke-miterlimit:10" cx="348.062" cy="78.698" r="7.333"/><circle transform="rotate(-76.761 328.867 375.74)" style="fill:none;stroke:#263238;stroke-linecap:round;stroke-linejoin:round;stroke-miterlimit:10" cx="328.87" cy="375.733" r="7.333"/><circle transform="rotate(-22.5 38.726 248.022)" style="fill:none;stroke:#263238;stroke-linecap:round;stroke-linejoin:round;stroke-miterlimit:10" cx="38.729" cy="248.032" r="7.333"/><path style="fill:none;stroke:#263238;stroke-linecap:round;stroke-linejoin:round;stroke-miterlimit:10" d="M388.728 153.698a1.667 1.667 0 1 1-3.333 0 1.667 1.667 0 0 1 3.333 0zM126.206 78.826a1.667 1.667 0 1 1-3.333 0 1.667 1.667 0 0 1 3.333 0zM262.283 371.885a1.667 1.667 0 1 1-3.333 0 1.667 1.667 0 0 1 3.333 0z"/></g><g><path style="fill:#fff;stroke:#263238;stroke-linecap:round;stroke-linejoin:round;stroke-miterlimit:10" d="m248.198 376.391-3.327-26.777H190.973l-3.327 26.777a32.929 32.929 0 0 1-.178 1.574c-1.281 9.286-7.238 17.274-15.505 21.693l-14.444 7.723h120.806l-14.444-7.723c-8.267-4.42-14.225-12.407-15.505-21.693a31.69 31.69 0 0 1-.178-1.574z"/><path style="fill:#263238;stroke:#263238;stroke-linecap:round;stroke-linejoin:round;stroke-miterlimit:10" d="m246.377 366.607-1.506-16.993H190.973l-1.506 16.993z"/><path style="fill:#fff;stroke:#263238;stroke-linecap:round;stroke-linejoin:round;stroke-miterlimit:10" d="M157.519 407.381h120.64v3.169h-120.64z"/><path style="fill:none;stroke:#263238;stroke-linecap:round;stroke-linejoin:round;stroke-miterlimit:10" d="M192.245 389.076h43.964M247.54 389.076h-5.438"/><path style="fill:#fff;stroke:#263238;stroke-linecap:round;stroke-linejoin:round;stroke-miterlimit:10" d="M353.074 355.037H82.771c-5.632 0-10.198-4.566-10.198-10.198V128.41a7.948 7.948 0 0 1 7.947-7.948h274.805a7.948 7.948 0 0 1 7.948 7.948v216.429c-.001 5.632-4.567 10.198-10.199 10.198z"/><path style="fill:#263238;stroke:#263238;stroke-linecap:round;stroke-linejoin:round;stroke-miterlimit:10" d="M363.272 316.16V129.018a8.556 8.556 0 0 0-8.556-8.556H81.128a8.556 8.556 0 0 0-8.556 8.556V316.16h290.7z"/><path style="fill:#92e3a9;stroke:#263238;stroke-linecap:round;stroke-linejoin:round;stroke-miterlimit:10" d="M85.655 129.684H350.19v186.475H85.655z"/><g><path style="fill:#263238;stroke:#263238;stroke-linecap:round;stroke-linejoin:round;stroke-miterlimit:10" d="M294.986 159.286H112.967v-10.723a6.408 6.408 0 0 1 6.408-6.408h169.203a6.408 6.408 0 0 1 6.408 6.408v10.723z"/><path style="fill:#fff;stroke:#263238;stroke-linecap:round;stroke-linejoin:round;stroke-miterlimit:10" d="M261.352 150.729a2.638 2.638 0 1 1-5.276 0 2.638 2.638 0 0 1 5.276 0zM271.904 150.729a2.638 2.638 0 1 1-5.276 0 2.638 2.638 0 0 1 5.276 0zM282.455 150.729a2.638 2.638 0 1 1-5.276 0 2.638 2.638 0 0 1 5.276 0z"/><g><path style="fill:none;stroke:#263238;stroke-linecap:round;stroke-linejoin:round;stroke-miterlimit:10" d="M288.64 296.476H119.313a6.345 6.345 0 0 1-6.345-6.345V148.564a6.408 6.408 0 0 1 6.408-6.408h169.203a6.408 6.408 0 0 1 6.408 6.408V290.13a6.347 6.347 0 0 1-6.347 6.346z"/><path style="fill:none;stroke:#263238;stroke-width:.25;stroke-linecap:round;stroke-linejoin:round;stroke-miterlimit:10" d="M121.65 155.4v141.619M132.669 155.4v141.619M143.687 155.4v141.619M154.706 155.4v141.619M165.724 155.4v141.619M176.743 155.4v141.619M187.761 155.4v141.619M198.779 155.4v141.619M209.798 155.4v141.619M220.816 155.4v141.619M231.835 155.4v141.619M242.853 155.4v141.619M253.872 155.4v141.619M264.89 155.4v141.619M275.908 155.4v141.619M286.927 155.4v141.619M113.225 169.684h182.128M113.225 183.04h182.128M113.225 196.396h182.128M113.225 209.752h182.128M113.225 223.108h182.128M113.225 236.464h182.128M113.225 249.821h182.128M113.225 263.177h182.128M113.225 276.533h182.128M113.225 289.889h182.128"/></g></g></g><g><path style="fill:#fff;stroke:#263238;stroke-linecap:round;stroke-linejoin:round;stroke-miterlimit:10" d="M372.882 209.499s-4.629 3.968-4.629 4.794c0 .827-1.323 9.424-1.323 9.424l6.282 2.645 2.645-4.464s1.323-1.819 2.315-3.472 3.307-3.472 3.307-3.472l-2.48-.496-2.976 3.141-.331-4.464-2.81-3.636zM366.93 223.717s-9.093 10.581-11.904 14.218c-2.811 3.637-10.746 11.738-13.557 16.863-2.81 5.125-2.149 11.408.331 13.391 2.48 1.984 12.234-2.315 16.367-10.746 4.133-8.432 15.045-31.081 15.045-31.081l-6.282-2.645z"/><path style="fill:#fff;stroke:#263238;stroke-linecap:round;stroke-linejoin:round;stroke-miterlimit:10" d="M377.842 190.155s-1.323 4.794-2.315 6.944c-.992 2.149-5.786 3.968-5.29 4.629.496.661 2.976 2.811 2.976 2.811s.165 10.912 1.653 11.242c1.488.331 6.613-.827 6.613-.827l-.992 7.605 12.73-1.819 1.157-10.746s5.621-4.299 5.621-8.432-6.613-12.4-12.896-14.053c-6.281-1.652-7.439-.495-9.257 2.646z"/><path style="fill:#263238" d="M377.935 197.756c-.136.826-.527 1.449-.875 1.392-.348-.057-.52-.773-.384-1.599s.527-1.449.875-1.392c.348.057.52.773.384 1.599z"/><path style="fill:none;stroke:#263238;stroke-linecap:round;stroke-linejoin:round;stroke-miterlimit:10" d="M377.784 194.702c0-.479 1.117-1.117 1.436.479M373.956 206.346s.957.16 2.393-.638"/><path style="fill:#263238;stroke:#263238;stroke-linecap:round;stroke-linejoin:round;stroke-miterlimit:10" d="M384.786 178.913s2.48-4.464-2.149-3.472c-4.629.992-10.912 10.085-8.597 14.218 2.315 4.133 5.456 2.48 5.456 2.48s1.488 2.149 2.645 3.306 2.645 2.315 2.645 2.315 1.157 9.92 3.141 12.565c1.984 2.645 4.299 3.472 6.117 2.48 1.819-.992 4.96-3.307 4.96-3.307s7.936-5.952 8.432-11.242c.496-5.29.165-8.597-2.811-12.234-2.976-3.637-7.44-5.29-7.44-5.29s1.323-4.464-2.645-4.794c-3.968-.331-9.754 2.975-9.754 2.975z"/><path style="fill:#fff;stroke:#263238;stroke-linecap:round;stroke-linejoin:round;stroke-miterlimit:10" d="M382.471 199.414s3.306-4.299 4.794-2.811c1.488 1.488.165 6.944-.992 8.762s-3.968.331-4.133-.496M373.543 227.519l5.125-5.952 17.976-1.908 1.368 5.711zM406.233 293.074l-2.279-3.212-.12 15.493s4.676-4.453 4.899-6.903c.223-2.449-2.5-5.378-2.5-5.378z"/><path style="fill:#fff;stroke:#263238;stroke-linecap:round;stroke-linejoin:round;stroke-miterlimit:10" d="M412.561 229.999s18.847 38.356 20.17 41.001c1.323 2.645-1.488 3.637-1.488 3.637l-22.509 23.815-2.5-5.378 9.634-23.561-8.762-14.053c-.001 0 4.793-23.973 5.455-25.461z"/><path style="fill:#263238;stroke:#263238;stroke-linecap:round;stroke-linejoin:round;stroke-miterlimit:10" d="m412.786 242.312 3.081 27.2-4.899-8.333zM361.522 291.732l-.016 1.188c-.105 8.069-.649 55.016.736 71.788 1.517 18.377 4.361 45.75 4.361 45.75s-1.896.574-1.896 1.531-.569 3.828-.569 3.828-4.171 2.297-7.015 3.254c-2.844.957-5.119 2.871-3.792 3.828 1.327.957 7.584 1.723 13.841 2.488 6.257.766 10.997.957 11.755.191.758-.766.569-4.977.379-6.508-.19-1.531.19-4.594 0-7.083-.19-2.488-1.138-4.594-1.138-6.125s.948-47.473.948-47.473l2.844-17.228 2.655-10.911s1.517 28.139 2.086 29.479c.569 1.34 10.256 51.665 10.256 51.665l-1.138 1.914.19 2.488s-2.086 2.106-4.74 3.446c-2.654 1.34-5.119 2.106-3.223 3.637 1.896 1.531 9.67 1.914 11.376 2.106 1.706.191 7.774.383 8.532.191.758-.191 1.896 0 2.086-2.68.19-2.68-.569-5.551-.758-6.317-.19-.766-.758-3.446-.948-5.934-.19-2.488-.758-4.977-.758-4.977l-2.861-50.325.948-49.387s0-4.594-.569-8.614c-.569-4.02-1.138-7.083-1.138-7.083l-41.713-1.723"/><g><path style="fill:#fff;stroke:#263238;stroke-linecap:round;stroke-linejoin:round;stroke-miterlimit:10" d="m343.784 258.766 11.904-13.722s8.432-14.383 9.093-15.706c.661-1.323 8.762-1.819 8.762-1.819l24.468-2.149s14.218 3.472 14.549 4.629c.331 1.157-.642 24.918-1.138 28.225-.496 3.307-6.467 34.269-6.963 36.087-.496 1.819-7.44 2.81-19.013 3.472-11.573.661-21.493-3.472-22.319-4.133-.827-.661-1.653-1.323-1.488-2.48.165-1.157 2.645-29.263 2.645-29.263s-12.565 8.762-15.541 9.424c-2.976.661-8.101-2.315-8.762-6.448-.661-4.133 1.819-6.282 1.819-6.282"/><path style="fill:none;stroke:#263238;stroke-linecap:round;stroke-linejoin:round;stroke-miterlimit:10" d="M398.99 243.751s-10.031 19.644-14.629 25.496M394.81 256.29l-5.434 9.613"/></g><path style="fill:none;stroke:#263238;stroke-linecap:round;stroke-linejoin:round;stroke-miterlimit:10" d="m375.527 250.996-11.242 10.911 9.92-4.298"/></g><g><path style="fill:#fff;stroke:#263238;stroke-linecap:round;stroke-linejoin:round;stroke-miterlimit:10" d="M206.276 316.091h26.087l.884-49.004-10.546-64.636-30.196.397 14.303 70.325z"/><path style="fill:#263238;stroke:#263238;stroke-linecap:round;stroke-linejoin:round;stroke-miterlimit:10" d="m225.441 270 6.836 46.09h36.295c-1.31-5.271-12.359-49.83-12.359-52.557 0-2.899-7.804-51.287-9.811-54.185-2.007-2.899-28.988-14.048-28.988-14.048l2.676 15.609L225.441 270z"/><path style="fill:none;stroke:#8c8c8c;stroke-linecap:round;stroke-linejoin:round;stroke-miterlimit:10" d="M242.834 230.978c2.245 10.278 4.692 20.698 5.812 31.169 1.205 11.261-.677 23.284-1.313 34.557-.253 4.489-.067 8.775.217 13.275"/><ellipse style="fill:#828282;stroke:#263238;stroke-linecap:round;stroke-linejoin:round;stroke-miterlimit:10" cx="182.826" cy="170.008" rx="13.717" ry="13.356"/><path style="fill:#263238;stroke:#263238;stroke-linecap:round;stroke-linejoin:round;stroke-miterlimit:10" d="M155.134 316.091h51.22c.559-5.978 3.583-38.107 4.593-44.976 1.115-7.582-11.149-56.638-11.149-56.638l-9.365-21.407-37.908 15.163 14.494 77.822-11.885 30.036z"/><path style="fill:#fff;stroke:#263238;stroke-linecap:round;stroke-linejoin:round;stroke-miterlimit:10" d="M192.032 186.93s-1.603 0-3.207 1.96c-.971 1.186-2.908 9.788-3.207 11.58-.535 3.207-1.247 26.724-1.247 26.724s17.46-8.908 18.172-8.908c.713 0 8.552 3.385 8.552 3.385s2.494-.356 3.207-.891c.713-.535 4.988-6.414 4.988-6.414l15.143 9.62s-11.402-26.546-14.075-30.821c-2.672-4.276-4.632-5.523-6.414-6.057-1.78-.534-21.912-.178-21.912-.178z"/><path style="fill:#fff;stroke:#263238;stroke-linecap:round;stroke-linejoin:round;stroke-miterlimit:10" d="M191.498 163.414s1.96 15.143 1.247 20.132c-.713 4.989-2.316 2.494-.713 8.195 1.603 5.701 13.718 24.408 16.212 27.614 2.494 3.207 4.988 2.138 5.879-1.247.891-3.385 1.603-24.051 1.603-24.051l2.494-9.086-26.722-21.557z"/><path style="fill:#263238;stroke:#263238;stroke-linecap:round;stroke-linejoin:round;stroke-miterlimit:10" d="m201.383 181.208 13.372 16.078.972-3.229 2.494-9.086z"/><path style="fill:#fff;stroke:#263238;stroke-linecap:round;stroke-linejoin:round;stroke-miterlimit:10" d="M233.434 147.689s-.342 14.429-.18 17.503c.162 3.074-.162 8.575-2.427 13.266-2.265 4.692-9.222 9.221-12.943 9.221s-11.163-2.75-16.502-6.471c-4.63-3.227-9.222-9.221-10.516-11.001-1.294-1.78-3.236-9.222-3.236-9.222l-1.133-6.148-1.132-5.015s10.192.324 15.693-5.339c5.501-5.662 17.149-16.825 17.149-16.825l13.59 13.752 1.637 6.279z"/><path style="fill:none;stroke:#263238;stroke-linecap:round;stroke-linejoin:round;stroke-miterlimit:10" d="M220.311 153.544s-.162 4.692.971 6.633c1.132 1.941 4.206 4.368 3.397 5.662-.809 1.294-5.501 1.456-5.986 1.132M209.957 170.207s2.75 5.177 9.707 4.368M215.134 150.632s-4.692-3.236-10.03-.647M222.415 149.661s4.368-4.045 8.089-.485"/><path style="fill:#263238" d="M211.252 157.588c0 1.519-.688 2.75-1.537 2.75s-1.537-1.231-1.537-2.75.688-2.75 1.537-2.75 1.537 1.231 1.537 2.75zM228.239 157.103c0 1.519-.688 2.75-1.537 2.75s-1.537-1.231-1.537-2.75.688-2.75 1.537-2.75 1.537 1.231 1.537 2.75z"/><path style="fill:#828282;stroke:#263238;stroke-linecap:round;stroke-linejoin:round;stroke-miterlimit:10" d="M217.707 131.832s-2.34 7.279-8.708 13.257c-6.369 5.979-15.987 7.799-15.987 7.799s.52 2.469-.13 3.379c-.65.91-2.08 1.82-2.08 1.82s-3.769.65-7.279-3.119c-3.509-3.769-3.119-21.056 3.509-29.634 6.629-8.578 27.035-9.878 32.884-7.409 5.849 2.469 3.639 3.639 3.639 3.639s9.098 4.029 14.687 10.528c5.589 6.499-4.809 15.597-4.809 15.597l-15.726-15.857z"/><g><path style="fill:#263238;stroke:#263238;stroke-linecap:round;stroke-linejoin:round;stroke-miterlimit:10" d="M184.881 154.352s-1.78-23.782 12.134-35.268l6.148-1.618s-14.075 13.266-15.208 37.372l-3.074-.486z"/><path style="fill:#263238;stroke:#263238;stroke-linecap:round;stroke-linejoin:round;stroke-miterlimit:10" d="M193.501 159.454c2.128 4.13 1.117 8.888-2.259 10.628-3.376 1.739-7.837-.199-9.965-4.329s-1.117-8.888 2.259-10.628c3.375-1.739 7.837.199 9.965 4.329z"/><path style="fill:none;stroke:#263238;stroke-linecap:round;stroke-linejoin:round;stroke-miterlimit:10" d="M190.058 165.677s9.545 12.457 21.193 16.825"/><path style="fill:#263238;stroke:#263238;stroke-linecap:round;stroke-linejoin:round;stroke-miterlimit:10" d="M214.111 183.324c-.464 1.104-1.982 1.52-3.392.928s-2.177-1.966-1.714-3.071c.464-1.104 1.982-1.52 3.392-.928 1.41.591 2.177 1.966 1.714 3.071z"/></g><g><path style="fill:#fff;stroke:#263238;stroke-linecap:round;stroke-linejoin:round;stroke-miterlimit:10" d="M204.118 265.355s5.983-4.251 6.456-4.724c.472-.472 4.409-5.826 5.511-7.4 1.102-1.575 3.149-2.992 4.566-4.251 1.417-1.26 3.779-4.094 4.881-5.983 1.102-1.889 2.519-3.622 2.992-1.575.472 2.047-.787 4.409-1.26 5.826-.472 1.417-2.047 3.936-2.047 3.936s5.826-3.621 9.29-4.251c3.464-.63 7.873-.63 8.03.472.157 1.102-.945 1.417-2.519 2.047-1.575.63-5.826 2.204-7.4 2.834-1.575.63-5.826 3.779-5.826 3.779s8.03-1.889 9.762-2.362c1.732-.472 5.983-.63 6.928-.63.945 0 1.732 1.732.472 2.677-1.26.945-3.779 2.204-3.779 2.204s-.945 1.574-2.362 3.149c-1.417 1.575-2.992 3.621-4.566 5.983-1.574 2.362-3.936 4.094-6.456 5.354-2.519 1.26-13.226 2.362-13.226 2.362l-7.243 3.621-2.204-13.068z"/><path style="fill:none;stroke:#263238;stroke-linecap:round;stroke-linejoin:round;stroke-miterlimit:10" d="M240.175 257.955s-9.762 2.362-11.967 3.936M234.979 264.41s-5.511 2.677-6.141 2.834"/></g><g><path style="fill:#263238;stroke:#263238;stroke-linecap:round;stroke-linejoin:round;stroke-miterlimit:10" d="M166.573 203.328s-16.278 4.014-16.724 6.467c-.446 2.453-12.041 77.599-12.71 80.944-.669 3.345-1.561 8.919.669 9.365 2.23.446 68.902-20.292 68.902-20.292l-3.222-16.031-34.908 3.99 5.129-31.441"/><path style="fill:none;stroke:#8c8c8c;stroke-linecap:round;stroke-linejoin:round;stroke-miterlimit:10" d="m166.508 268.035-15.775.824M197.209 265.392l-30.701 2.643 6.66-25.661"/></g></g><g><path style="fill:#263238;stroke:#263238;stroke-linecap:round;stroke-linejoin:round;stroke-miterlimit:10" d="M317.518 60.27h-71.795a6.493 6.493 0 0 0-6.493 6.493v36.806a6.493 6.493 0 0 0 6.493 6.493h12.666l-9.066 21.531 23.277-21.531h44.917a6.493 6.493 0 0 0 6.493-6.493V66.763a6.491 6.491 0 0 0-6.492-6.493z"/><path style="fill:#fff;stroke:#263238;stroke-linecap:round;stroke-linejoin:round;stroke-miterlimit:10" d="M314.506 58.119h-71.795a6.493 6.493 0 0 0-6.493 6.493v36.806a6.493 6.493 0 0 0 6.493 6.493h12.666l-9.066 21.531 23.277-21.531h44.917a6.493 6.493 0 0 0 6.493-6.493V64.611a6.491 6.491 0 0 0-6.492-6.492z"/><circle style="fill:#263238" cx="262.388" cy="83.014" r="3.364"/><circle style="fill:#263238" cx="278.608" cy="83.014" r="3.364"/><circle style="fill:#263238" cx="294.829" cy="83.014" r="3.364"/></g></svg>