<svg xmlns="http://www.w3.org/2000/svg" viewBox="0 0 750 500" style="enable-background:new 0 0 750 500" xml:space="preserve"><path style="fill:#f5f5f5" d="M165.224 50.283h60.415v82.673h-60.415z"/><path style="fill:#e0e0e0" d="M149.911 60.69h60.415v82.673h-60.415z"/><path style="fill:#ebebeb" d="M495.07 173.743s-.128.01-.389.015l-1.169.015-4.551.03-17.068.06-58.909.091h-.159l-.045-.153c-1.22-4.163-.474-9.041 2.251-12.771 2.717-3.72 7.384-6.09 12.192-5.967l-.218.281a12.379 12.379 0 0 1-.456-3.955c.182-4.553 2.771-8.952 6.745-10.988 3.923-2.071 8.765-1.995 12.482.067l-.304.108c2.117-5.166 6.585-8.911 11.432-10.647 4.861-1.767 10.253-1.535 14.492.683 4.26 2.183 7.293 5.901 8.972 9.802 1.724 3.923 1.961 8.135 1.104 11.752l-.164-.187c2.436-.27 4.794.149 6.819.977 2.029.832 3.751 2.052 5.059 3.467.651.705 1.214 1.469 1.593 2.284.377.813.658 1.628.848 2.427.392 1.596.532 3.092.58 4.432a25.18 25.18 0 0 1-.531 6.126c-.159.685-.295 1.2-.423 1.544-.119.345-.183.507-.183.507M652.141 134.452c-8.202 1.363-13.745 9.117-12.383 17.319 1.363 8.202 9.117 13.746 17.319 12.382 7.015-1.166 12.082-7.008 12.549-13.806l.006-.001 4.127-.686 2.202-4.641 3.223 3.739 5.17-.859 2.202-4.641 3.223 3.739 4.444-.739 1.342-2.828 1.964 2.279 2.587-.43 2.843-3.764-4.874-5.357-30.744 5.109c-3.135-4.966-9.041-7.839-15.2-6.815zm-8.385 16.654a4.318 4.318 0 1 1 8.52-1.417 4.318 4.318 0 0 1-8.52 1.417zM636.874 249.494l1.854 34.095a2.302 2.302 0 0 0 2.282 2.177l61.352.45a2.303 2.303 0 0 0 2.319-2.285l.194-26.539a2.303 2.303 0 0 0-2.3-2.319l-37.732-.033a2.302 2.302 0 0 1-1.625-.674l-6.51-6.507a2.3 2.3 0 0 0-1.61-.674l-15.906-.117a2.301 2.301 0 0 0-2.318 2.426z"/><path transform="matrix(1 .0073 -.0073 1 2.003 -4.911)" style="fill:#f5f5f5" d="M637.739 250.815h67.036v40.057h-67.036z"/><path style="fill:#ebebeb" d="m632.527 254.125 4.812 41.809a1.48 1.48 0 0 0 1.46 1.311l65.329.479a1.481 1.481 0 0 0 1.486-1.353l3.595-41.747a1.48 1.48 0 0 0-1.464-1.607l-73.736-.54a1.48 1.48 0 0 0-1.482 1.648zM629.131 437.753c-15.552-10.865-19.08-31.033-18.465-49.162.102-3.026-.23-6.216 1.209-8.872 1.44-2.654 4.799-4.469 7.508-3.194 2.247 1.058 3.227 3.672 4.484 5.834a17.695 17.695 0 0 0 7.097 6.779c1.927 1 4.311 1.611 6.213.562 2.61-1.44 2.918-5.046 2.899-8.057l-.105-16.828c-.019-3.009-.028-6.083.908-8.939s3.004-5.51 5.867-6.312c2.864-.802 6.404.849 7.009 3.795.252 1.226.002 2.499.086 3.748.084 1.25.666 2.632 1.852 2.98 1.201.353 2.406-.5 3.305-1.381 3.107-3.039 5.215-6.954 7.185-10.847 1.97-3.893 3.882-7.879 6.701-11.193 2.819-3.315 6.718-5.941 11.028-6.185 4.311-.244 8.903 2.417 9.992 6.648 1.092 4.243-1.383 8.548-4.077 11.983a67.168 67.168 0 0 1-13.988 13.333c-.949.673-1.977 1.401-2.34 2.516-.654 2.007 1.247 3.999 3.229 4.659 2.243.747 4.678.514 7.024.79 2.347.276 4.889 1.311 5.777 3.529 1.233 3.076-1.34 6.301-3.871 8.413a57.561 57.561 0 0 1-17.033 9.832c-2.214.81-4.544 1.521-6.329 3.076-1.785 1.556-2.863 4.261-1.784 6.38 1.08 2.123 3.848 2.801 6.167 2.37 2.318-.43 4.394-1.689 6.605-2.523 4.136-1.561 9.477-1.276 12.127 2.298 1.741 2.35 1.894 5.622 1.014 8.422-.88 2.801-2.666 5.214-4.563 7.438-6.629 7.777-15.115 14.039-24.711 17.366-9.594 3.329-18.484 4.229-28.02.742"/><path style="fill:#e0e0e0" d="M628.893 451.193c.657-7.182 2.232-15.663 4.918-24.805 2.668-9.149 6.425-18.935 10.705-29.036l3.197-7.467c1.055-2.448 2.101-4.876 3.271-7.188 2.32-4.634 4.904-8.913 7.484-12.898 2.579-3.987 5.171-7.677 7.62-11.109 2.458-3.429 4.808-6.581 7.074-9.363 4.515-5.583 8.681-9.646 11.655-12.319a98.866 98.866 0 0 1 3.483-3.014l.929-.755c.211-.167.322-.249.328-.242.007.008-.092.104-.292.286l-.894.797c-.788.697-1.951 1.725-3.411 3.089a113.118 113.118 0 0 0-11.496 12.408c-2.24 2.79-4.567 5.948-7.004 9.383-2.431 3.442-5.006 7.135-7.567 11.12-2.561 3.983-5.125 8.251-7.425 12.863-1.16 2.3-2.194 4.708-3.25 7.163l-3.193 7.464c-4.277 10.093-8.038 19.849-10.726 28.963-2.703 9.106-4.312 17.545-5.016 24.696"/><path style="fill:#e0e0e0" d="M651.142 382.676c-.037.006-.14-.451-.294-1.284a81.605 81.605 0 0 1-.558-3.541c-.426-2.997-.872-7.155-1.347-11.741-.475-4.589-.979-8.729-1.449-11.711a168.46 168.46 0 0 0-.578-3.528c-.144-.833-.206-1.298-.168-1.307.037-.008.17.44.378 1.261.213.819.472 2.018.752 3.506.571 2.975 1.139 7.126 1.614 11.719l1.186 11.752c.151 1.413.28 2.603.383 3.559.088.841.12 1.309.081 1.315z"/><path style="fill:#e0e0e0" d="M689.838 375.444c.001.038-.549.102-1.544.185-.993.089-2.43.208-4.201.414-3.544.382-8.421 1.082-13.769 2.09-5.347 1.018-10.147 2.144-13.595 3.06-1.728.445-3.117.843-4.078 1.113-.961.273-1.497.407-1.51.371-.012-.037.503-.241 1.446-.579.944-.333 2.319-.79 4.039-1.287 3.431-1.016 8.234-2.207 13.597-3.229 5.363-1.01 10.268-1.651 13.833-1.933a65.097 65.097 0 0 1 4.227-.237c1.001-.016 1.553-.007 1.555.032zM634.287 425.676c-.018.008-.108-.154-.265-.472l-.662-1.4c-.569-1.218-1.347-3.003-2.279-5.219-1.867-4.433-4.253-10.637-6.793-17.519-2.542-6.885-4.867-13.103-6.639-17.568l-2.114-5.283-.567-1.441c-.124-.331-.181-.509-.163-.518.018-.007.108.155.266.473l.662 1.399c.569 1.218 1.347 3.002 2.279 5.219 1.867 4.433 4.253 10.637 6.794 17.522 2.541 6.883 4.867 13.1 6.638 17.566l2.114 5.282.567 1.441c.123.332.18.51.162.518z"/><path style="fill:#e0e0e0" d="M685.707 409.104c.005.019-.171.09-.51.21l-1.493.501-5.506 1.784c-4.649 1.508-11.046 3.664-18.112 6.056-7.068 2.394-13.491 4.493-18.173 5.905-2.341.707-4.24 1.259-5.56 1.614l-1.523.4c-.35.085-.537.121-.542.102-.005-.019.171-.09.51-.211l1.493-.499 5.505-1.784c4.649-1.507 11.047-3.664 18.115-6.057 7.066-2.393 13.488-4.492 18.17-5.904 2.341-.707 4.24-1.259 5.562-1.614l1.523-.4c.349-.087.535-.122.541-.103z"/><g><path style="fill:#263238" d="M692.399 451.232c0 .144-143.772.26-321.084.26-177.373 0-321.114-.117-321.114-.26s143.742-.26 321.114-.26c177.312-.001 321.084.116 321.084.26z"/></g><g><path style="fill:#e8505b" d="M618.326 416.321c1.747 2.245 4.876 1.314 6.273-.181 1.397-1.495 1.914-3.586 2.38-5.578 1.064-4.552 2.128-9.325.937-13.845-.356-1.352-.936-2.688-1.947-3.653-1.011-.965-2.518-1.493-3.849-1.069-1.576.503-2.49 2.117-3.132 3.642a32.846 32.846 0 0 0-2.531 14.243c.108 2.268.495 4.633 1.869 6.441"/><path d="M618.326 416.321c1.747 2.245 4.876 1.314 6.273-.181 1.397-1.495 1.914-3.586 2.38-5.578 1.064-4.552 2.128-9.325.937-13.845-.356-1.352-.936-2.688-1.947-3.653-1.011-.965-2.518-1.493-3.849-1.069-1.576.503-2.49 2.117-3.132 3.642a32.846 32.846 0 0 0-2.531 14.243c.108 2.268.495 4.633 1.869 6.441" style="opacity:.2"/><path style="fill:#e8505b" d="M625.028 427.801c2.596-1.51 5.725-1.847 8.709-1.508 1.603.183 3.284.574 4.426 1.714 1.142 1.139 1.453 3.23.263 4.319-.708.648-1.735.793-2.694.83-2.318.09-4.909-.188-6.689 1.299-1.016.849-1.652 2.206-2.894 2.661-1.216.445-2.646-.213-3.357-1.295-.711-1.082-.803-2.474-.562-3.745 0 0 .183-2.754 2.798-4.275zM614.019 419.887c1.664-2.19 1.844-5.27.924-7.861s-2.813-4.74-4.955-6.463a24.896 24.896 0 0 0-8.513-4.46c-1.217-.36-2.494-.628-3.75-.444-1.255.184-2.493.893-3.025 2.045-.786 1.703.15 3.674 1.135 5.27a63.053 63.053 0 0 0 5.848 7.994c1.733 2.016 3.702 3.991 6.23 4.814 2.528.823 5.099.581 6.327-1.205"/><path style="fill:#263238" d="M619.99 451.44c.031 0 .061-.379.094-1.065l.135-2.901c.073-1.222.177-2.676.435-4.267.257-1.587.698-3.315 1.286-5.075.614-1.751 1.389-3.353 2.323-4.651.927-1.303 2.034-2.268 3.091-2.845a9.061 9.061 0 0 1 2.674-.984c.671-.103 1.047-.176 1.045-.206-.001-.03-.38-.016-1.073.038a8.254 8.254 0 0 0-2.796.881c-1.116.564-2.292 1.546-3.266 2.877-.983 1.326-1.788 2.964-2.412 4.746-.599 1.791-1.031 3.536-1.271 5.156-.239 1.618-.312 3.086-.346 4.316-.03 1.23-.014 2.225.004 2.912.02.689.048 1.068.077 1.068z"/><path style="fill:#263238" d="M620.077 449.209c.015-.002.016-.171.003-.492l-.075-1.403c-.065-1.218-.153-2.98-.198-5.16-.112-4.359-.041-10.387.349-17.028.395-6.644 1.061-12.636 1.727-16.944.154-1.079.315-2.052.47-2.904.146-.854.269-1.589.395-2.186l.259-1.381c.055-.317.076-.485.061-.489-.015-.003-.065.158-.147.469l-.34 1.365c-.151.592-.3 1.325-.469 2.176-.178.85-.361 1.821-.535 2.9-.746 4.307-1.462 10.31-1.858 16.967-.391 6.656-.413 12.699-.221 17.064a92.2 92.2 0 0 0 .337 5.163l.157 1.398c.041.32.07.487.085.485z"/><path style="fill:#263238" d="M619.519 437.584c.03-.003-.001-.523-.084-1.466-.102-.939-.3-2.295-.65-3.949a52.345 52.345 0 0 0-1.584-5.722 51.4 51.4 0 0 0-2.766-6.726c-2.248-4.66-5.172-8.416-7.666-10.707-.589-.612-1.232-1.042-1.75-1.47-.268-.204-.505-.409-.745-.569l-.671-.414c-.808-.495-1.259-.754-1.274-.728-.065.099 1.808 1.077 4.228 3.405 2.411 2.323 5.257 6.055 7.487 10.676a54.62 54.62 0 0 1 2.777 6.662c.742 2.094 1.262 4.029 1.664 5.66.386 1.636.63 2.975.782 3.903.133.933.222 1.448.252 1.445z"/></g><g><path style="fill:#fafafa" d="M34.815 226.754h113.058v75.722H34.815z"/><path style="fill:#263238" d="M117.165 272.677h-3.013v-18.123c0-4.353-3.541-7.894-7.894-7.894s-7.894 3.541-7.894 7.894v18.123H95.35v-18.123c0-6.014 4.893-10.908 10.908-10.908 6.014 0 10.908 4.893 10.908 10.908v18.123z"/><path style="fill:#263238" d="M117.778 283.75H94.736a3.392 3.392 0 0 1-3.392-3.392v-12.351a3.392 3.392 0 0 1 3.392-3.392h23.042a3.392 3.392 0 0 1 3.392 3.392v12.351a3.392 3.392 0 0 1-3.392 3.392z"/><path style="fill:#455a64" d="M106.257 274.182a2.493 2.493 0 1 1 0-4.986 2.493 2.493 0 0 1 0 4.986"/><path style="fill:#455a64" d="M105.577 272.677h1.36v5.127h-1.36z"/><path style="fill:#e8505b" d="M90.6 272.462c4.188-1.757 7.167-6.076 7.192-11.166.027-6.667-5.018-12.096-11.271-12.124-6.25-.029-11.341 5.353-11.368 12.02-.021 5.137 2.979 9.508 7.213 11.271-17.419 2.624-16.629 21.556-16.629 21.556l41.192.19c-.001-.001.939-19.14-16.329-21.747z"/><path style="fill:#263238" d="M147.873 302.476s-.015-.477-.022-1.382l-.023-4-.053-15.234-.109-55.106.208.208-113.049.052h-.009l.26-.26-.022 75.722-.238-.238 81.434.117 23.276.064 6.195.029 1.601.014c.361.005.551.014.551.014s-.172.009-.524.014l-1.574.014-6.147.029-23.222.064-81.59.118h-.239v-.239l-.022-75.722v-.26h.27l113.049.052h.209v.208l-.109 55.235-.053 15.188-.023 3.961c-.01.891-.025 1.338-.025 1.338z"/><g><path style="fill:#263238" d="M147.848 235.85c0 .144-25.293.26-56.487.26-31.204 0-56.492-.117-56.492-.26 0-.144 25.288-.26 56.492-.26 31.194 0 56.487.116 56.487.26z"/></g><g><path style="fill:#263238" d="M42.26 231.309a1.168 1.168 0 1 1-2.336 0 1.168 1.168 0 0 1 2.336 0zM46.087 231.309a1.168 1.168 0 1 1-2.336 0 1.168 1.168 0 0 1 2.336 0zM50.201 231.309a1.168 1.168 0 1 1-2.336 0 1.168 1.168 0 0 1 2.336 0z"/></g><g><path style="fill:#263238" d="M147.873 302.476s-.015-.477-.022-1.382l-.023-4-.053-15.234-.109-55.106.208.208-113.049.052h-.009l.26-.26-.022 75.722-.238-.238 81.434.117 23.276.064 6.195.029 1.601.014c.361.005.551.014.551.014s-.172.009-.524.014l-1.574.014-6.147.029-23.222.064-81.59.118h-.239v-.239l-.022-75.722v-.26h.27l113.049.052h.209v.208l-.109 55.235-.053 15.188-.023 3.961c-.01.891-.025 1.338-.025 1.338z"/></g><g><path style="fill:#263238" d="M90.615 304.976c-.144 0-.26-.56-.26-1.25 0-.691.117-1.25.26-1.25.144 0 .26.559.26 1.25 0 .69-.117 1.25-.26 1.25zM90.615 315.917c-.144 0-.26-1.225-.26-2.735 0-1.511.117-2.735.26-2.735.144 0 .26 1.224.26 2.735 0 1.51-.117 2.735-.26 2.735zM90.615 326.858c-.144 0-.26-1.225-.26-2.735 0-1.511.117-2.735.26-2.735.144 0 .26 1.224.26 2.735 0 1.51-.117 2.735-.26 2.735zM90.615 337.798c-.144 0-.26-1.225-.26-2.735 0-1.511.117-2.735.26-2.735.144 0 .26 1.224.26 2.735s-.117 2.735-.26 2.735zM90.615 348.739c-.144 0-.26-1.225-.26-2.735 0-1.511.117-2.735.26-2.735.144 0 .26 1.224.26 2.735s-.117 2.735-.26 2.735zM93.115 356.71c0 .144-1.119.26-2.5.26-.521-.52-.144-.145-.26-.261v-.127l.001-.127.004-.248.015-.469c.013-.299.032-.569.056-.795.047-.452.112-.732.184-.732s.137.28.184.732c.024.226.043.496.056.795l.015.469.004.248.001.127v.127c-.116-.116.26.261-.26-.259 1.38-.001 2.5.116 2.5.26zM102.941 356.71c0 .144-1.1.26-2.457.26-1.357 0-2.457-.117-2.457-.26s1.1-.26 2.457-.26c1.357-.001 2.457.116 2.457.26zM112.768 356.71c0 .144-1.1.26-2.457.26-1.357 0-2.457-.117-2.457-.26s1.1-.26 2.457-.26c1.357-.001 2.457.116 2.457.26zM122.595 356.71c0 .144-1.1.26-2.457.26-1.357 0-2.457-.117-2.457-.26s1.1-.26 2.457-.26c1.357-.001 2.457.116 2.457.26zM132.422 356.71c0 .144-1.1.26-2.457.26-1.357 0-2.457-.117-2.457-.26s1.1-.26 2.457-.26c1.357-.001 2.457.116 2.457.26zM142.249 356.71c0 .144-1.1.26-2.457.26-1.357 0-2.457-.117-2.457-.26s1.1-.26 2.457-.26c1.357-.001 2.457.116 2.457.26zM152.076 356.71c0 .144-1.1.26-2.457.26-1.357 0-2.457-.117-2.457-.26s1.1-.26 2.457-.26c1.357-.001 2.457.116 2.457.26zM161.903 356.71c0 .144-1.1.26-2.457.26-1.357 0-2.457-.117-2.457-.26s1.1-.26 2.457-.26c1.357-.001 2.457.116 2.457.26zM171.73 356.71c0 .144-1.1.26-2.457.26-1.357 0-2.457-.117-2.457-.26s1.1-.26 2.457-.26c1.357-.001 2.457.116 2.457.26zM181.556 356.71c0 .144-1.1.26-2.457.26-1.357 0-2.457-.117-2.457-.26s1.1-.26 2.457-.26c1.357-.001 2.457.116 2.457.26zM191.383 356.71c0 .144-1.1.26-2.457.26-1.357 0-2.457-.117-2.457-.26s1.1-.26 2.457-.26c1.357-.001 2.457.116 2.457.26zM198.797 356.71c0 .144-.56.26-1.25.26s-1.25-.117-1.25-.26.56-.26 1.25-.26c.69-.001 1.25.116 1.25.26z"/></g></g><g><path style="fill:#fff" d="M139.559 73.387h60.415v82.673h-60.415z"/><path style="fill:#263238" d="M200.003 156.038s-.011-.142-.016-.407l-.017-1.17-.036-4.519-.085-16.982-.178-59.596.273.273-60.408.072h-.007l.301-.302.004 82.673-.246-.245 43.87.096 12.208.054 3.217.026c.731.01 1.12.027 1.12.027s-.354.018-1.067.028l-3.171.03-12.153.072-44.024.16-.246.001v-.247l-.115-82.673v-.302h.309l60.408-.015h.274l-.001.273-.092 59.774-.061 16.92-.029 4.464-.015 1.139c-.006.255-.011.382-.017.376z"/><path style="fill:#263238" d="M176.489 89.998c0 .167-6.573.306-14.679.312-8.109.006-14.68-.124-14.68-.291 0-.166 6.571-.306 14.68-.312 8.105-.005 14.678.125 14.679.291zM192.372 97.171c0 .167-10.127.309-22.618.318-12.495.009-22.62-.119-22.62-.285 0-.166 10.125-.309 22.62-.318 12.49-.009 22.618.118 22.618.285zM192.378 104.665c0 .167-10.127.309-22.618.318-12.495.009-22.62-.119-22.62-.285 0-.166 10.125-.309 22.62-.318 12.49-.009 22.618.119 22.618.285zM192.383 112.16c0 .167-10.127.309-22.618.318-12.495.009-22.62-.119-22.62-.285 0-.166 10.125-.309 22.62-.318 12.49-.009 22.618.118 22.618.285zM192.389 119.654c0 .167-10.127.309-22.618.318-12.495.009-22.62-.119-22.62-.285 0-.166 10.125-.309 22.62-.318 12.49-.009 22.618.119 22.618.285zM192.394 127.149c0 .167-10.127.309-22.618.318-12.495.009-22.62-.119-22.62-.285 0-.166 10.125-.309 22.62-.318 12.49-.01 22.618.118 22.618.285zM192.399 134.643c0 .167-10.127.309-22.618.318-12.494.009-22.62-.119-22.62-.285 0-.166 10.125-.309 22.62-.318 12.49-.009 22.618.119 22.618.285z"/><g><path style="fill:#263238" d="M171.483 142.153c0 .167-5.443.305-12.157.31-6.716.005-12.158-.126-12.159-.293 0-.166 5.442-.305 12.158-.31 6.714-.005 12.157.126 12.158.293z"/></g><g><circle style="fill:#e8505b" cx="194.719" cy="149.777" r="12.272"/><path style="fill:#e0e0e0" d="M201.758 145.046c.526.491-1.884 3.925-5.382 7.67a64.114 64.114 0 0 1-1.649 1.702l-.849.843-.844-.709c-3.053-2.564-5.05-4.762-4.679-5.238.37-.476 2.99.921 6.225 3.252l-1.693.134a63.303 63.303 0 0 1 1.586-1.762c3.497-3.744 6.759-6.383 7.285-5.892z"/></g><g><path style="fill:#263238" d="M165.194 160.566c-.144 0-.26-1.119-.26-2.5s.117-2.5.26-2.5c.144 0 .26 1.119.26 2.5s-.116 2.5-.26 2.5zM165.194 170.566c-.144 0-.26-1.119-.26-2.5s.117-2.5.26-2.5c.144 0 .26 1.119.26 2.5s-.116 2.5-.26 2.5zM165.194 180.566c-.144 0-.26-1.119-.26-2.5s.117-2.5.26-2.5c.144 0 .26 1.119.26 2.5s-.116 2.5-.26 2.5zM165.194 190.566c-.144 0-.26-1.119-.26-2.5s.117-2.5.26-2.5c.144 0 .26 1.119.26 2.5s-.116 2.5-.26 2.5zM165.194 200.566c-.144 0-.26-1.119-.26-2.5s.117-2.5.26-2.5c.144 0 .26 1.119.26 2.5s-.116 2.5-.26 2.5zM165.194 210.566c-.144 0-.26-1.119-.26-2.5s.117-2.5.26-2.5c.144 0 .26 1.119.26 2.5s-.116 2.5-.26 2.5zM165.194 220.566c-.144 0-.26-1.119-.26-2.5s.117-2.5.26-2.5c.144 0 .26 1.119.26 2.5s-.116 2.5-.26 2.5zM165.194 230.566c-.144 0-.26-1.119-.26-2.5s.117-2.5.26-2.5c.144 0 .26 1.119.26 2.5s-.116 2.5-.26 2.5zM170.019 235.741c0 .144-1.119.26-2.5.26-1.061 0-1.968-.069-2.325-.166l-.111-.03.016-.064c.029-.115.061-.175.094-.175s.065.06.094.175l-.094-.094c.357-.097 1.264-.166 2.325-.166 1.382 0 2.501.116 2.501.26zM180.019 235.741c0 .144-1.119.26-2.5.26s-2.5-.117-2.5-.26c0-.144 1.119-.26 2.5-.26s2.5.116 2.5.26zM190.019 235.741c0 .144-1.119.26-2.5.26s-2.5-.117-2.5-.26c0-.144 1.119-.26 2.5-.26s2.5.116 2.5.26zM200.019 235.741c0 .144-1.119.26-2.5.26s-2.5-.117-2.5-.26c0-.144 1.119-.26 2.5-.26s2.5.116 2.5.26zM210.019 235.741c0 .144-1.119.26-2.5.26s-2.5-.117-2.5-.26c0-.144 1.119-.26 2.5-.26s2.5.116 2.5.26z"/></g></g><g><path style="fill:#263238" d="M376.573 145.282c-.144 0-.26-1.119-.26-2.499 0-1.38.117-2.499.26-2.499s.26 1.119.26 2.499c0 1.38-.116 2.499-.26 2.499zM376.573 155.279c-.144 0-.26-1.119-.26-2.5s.117-2.5.26-2.5.26 1.119.26 2.5-.116 2.5-.26 2.5zM376.573 165.277c-.144 0-.26-1.119-.26-2.499 0-1.38.117-2.499.26-2.499s.26 1.119.26 2.499c0 1.38-.116 2.499-.26 2.499zM376.573 175.273c-.144 0-.26-1.119-.26-2.499 0-1.381.117-2.499.26-2.499s.26 1.119.26 2.499c0 1.38-.116 2.499-.26 2.499zM376.573 185.275c-.144 0-.26-1.12-.26-2.501 0-1.382.117-2.501.26-2.501s.26 1.12.26 2.501c0 1.381-.116 2.501-.26 2.501zM376.573 195.28c-.144 0-.26-1.119-.26-2.5s.117-2.5.26-2.5.26 1.119.26 2.5c0 1.38-.116 2.5-.26 2.5zM376.573 205.28c-.144 0-.26-1.12-.26-2.5 0-1.381.117-2.5.26-2.5s.26 1.119.26 2.5-.116 2.5-.26 2.5zM376.573 215.285c-.144 0-.26-1.12-.26-2.502 0-1.382.117-2.502.26-2.502s.26 1.12.26 2.502c0 1.382-.116 2.502-.26 2.502z"/><g><path style="fill:#e8505b" d="M444.484 151.699s-.194.016-.59.023l-1.77.023-6.89.046-25.843.091-89.192.138h-.241l-.068-.232c-1.846-6.303-.718-13.688 3.409-19.336 4.114-5.632 11.18-9.221 18.459-9.034l-.33.426c-.534-1.842-.784-3.918-.69-5.988.275-6.894 4.195-13.554 10.213-16.637 5.939-3.136 13.271-3.02 18.898.102l-.461.163c3.206-7.821 9.97-13.493 17.309-16.121 7.361-2.675 15.524-2.323 21.942 1.034 6.451 3.305 11.042 8.934 13.584 14.84 2.61 5.939 2.97 12.316 1.671 17.793l-.249-.283c3.689-.408 7.259.225 10.325 1.48 3.072 1.259 5.68 3.107 7.66 5.249.985 1.067 1.839 2.224 2.412 3.458.571 1.23.996 2.465 1.284 3.674.594 2.416.806 4.682.879 6.71.13 4.067-.361 7.201-.804 9.276-.24 1.037-.447 1.816-.64 2.338-.179.522-.277.767-.277.767"/><path style="fill:#e0e0e0" d="M433.169 117.448h-3.851V94.285c0-5.563-4.526-10.089-10.089-10.089-5.563 0-10.089 4.526-10.089 10.089v23.163h-3.851V94.285c0-7.687 6.254-13.94 13.941-13.94s13.94 6.254 13.94 13.94v23.163z"/><path style="fill:#e0e0e0" d="M434.896 131.6h-31.334a3.392 3.392 0 0 1-3.392-3.392v-17.672a3.392 3.392 0 0 1 3.392-3.392h31.334a3.392 3.392 0 0 1 3.392 3.392v17.672a3.392 3.392 0 0 1-3.392 3.392z"/><path style="fill:#455a64" d="M419.229 119.372a3.185 3.185 0 1 1-.001-6.37 3.185 3.185 0 0 1 .001 6.37"/><path style="fill:#455a64" d="M418.359 117.448h1.738V124h-1.738z"/></g></g><g><path style="fill:#263238" d="M653.613 109.763c8.421-7.857 8.879-21.053 1.022-29.475-7.857-8.421-21.053-8.879-29.475-1.022-7.203 6.72-8.574 17.345-3.905 25.548l-4.243 3.959 1.014 7.043-6.585-1.846-5.309 4.953 1.014 7.043-6.585-1.846-4.563 4.257.618 4.292-4.013-1.125-2.656 2.478-.398 6.523 9.729 2.449 31.567-29.451c7.426 3.331 16.443 2.12 22.768-3.78zm-3.083-25.644a5.983 5.983 0 1 1-8.75 8.162 5.983 5.983 0 0 1 8.75-8.162z"/><path style="fill:none" d="M653.613 109.763c8.421-7.857 8.879-21.053 1.022-29.475-7.857-8.421-21.053-8.879-29.475-1.022-7.203 6.72-8.574 17.345-3.905 25.548l-4.243 3.959 1.014 7.043-6.585-1.846-5.309 4.953 1.014 7.043-6.585-1.846-4.563 4.257.618 4.292-4.013-1.125-2.656 2.478-.398 6.523 9.729 2.449 31.567-29.451c7.426 3.331 16.443 2.12 22.768-3.78zm-3.083-25.644a5.983 5.983 0 1 1-8.75 8.162 5.983 5.983 0 0 1 8.75-8.162z"/><path style="fill:#263238" d="M650.53 84.119c-.038.039-.391-.364-1.188-.855a5.974 5.974 0 0 0-3.765-.827c-1.623.153-3.553 1.195-4.53 3.154-1.008 1.901-.815 4.681.925 6.512 1.706 1.863 4.466 2.249 6.433 1.375 2.022-.839 3.195-2.692 3.46-4.301a5.971 5.971 0 0 0-.564-3.813c-.435-.83-.813-1.21-.771-1.245.013-.012.111.076.286.259.179.178.415.473.662.888.494.812 1.019 2.223.75 3.973-.233 1.718-1.452 3.745-3.635 4.681a6.123 6.123 0 0 1-3.595.403c-1.258-.219-2.476-.882-3.407-1.865-.915-.997-1.492-2.257-1.623-3.527a6.127 6.127 0 0 1 .652-3.558c1.085-2.112 3.191-3.188 4.921-3.302 1.764-.148 3.136.474 3.911 1.023.397.275.674.531.84.722.169.187.251.29.238.303z"/><path style="fill:#263238" d="M653.613 109.763s-.096.103-.3.288l-.918.819c-.858.658-2.142 1.653-4.036 2.565a21.185 21.185 0 0 1-7.411 1.992 21.282 21.282 0 0 1-10.167-1.739l.172-.029-31.515 29.507-.093.087-.124-.031-9.731-2.439-.196-.049.012-.202.393-6.523.006-.099.073-.068 2.654-2.48.103-.096.136.038 4.013 1.122-.319.28-.62-4.292-.019-.132.098-.091 4.561-4.259.106-.099.14.039 6.585 1.844-.327.287-1.014-7.043-.019-.135.1-.093 1.407-1.313 3.902-3.64.107-.1.141.039 6.584 1.847-.326.286-1.011-7.043-.019-.133.098-.092 4.244-3.957-.047.312c-1.643-2.953-2.589-6.229-2.711-9.495-.068-1.629.029-3.255.345-4.825.271-1.579.776-3.094 1.389-4.536 2.501-5.793 7.549-9.964 12.964-11.641 5.444-1.728 11.153-1.036 15.611 1.179 4.525 2.184 7.731 5.855 9.599 9.589 1.825 3.793 2.359 7.667 2.051 10.945a20.608 20.608 0 0 1-2.34 8.03l-.388.742-.429.661c-.284.422-.52.836-.791 1.183-.563.678-.995 1.287-1.42 1.711l-.964.962c-.22.219-.339.32-.339.32s.098-.123.305-.348l.928-.991c.412-.432.831-1.047 1.378-1.729.263-.349.492-.765.768-1.187l.417-.662.375-.741a20.62 20.62 0 0 0 2.241-7.968c.28-3.241-.274-7.056-2.089-10.779-1.858-3.664-5.027-7.259-9.476-9.383-4.383-2.157-9.981-2.814-15.305-1.108-5.294 1.656-10.223 5.748-12.655 11.411-.596 1.409-1.087 2.89-1.349 4.433-.307 1.534-.399 3.123-.331 4.713.123 3.189 1.051 6.385 2.656 9.265l.098.176-.146.136-4.241 3.96.079-.224 1.016 7.043.057.394-.383-.107-6.585-1.844.247-.06-3.901 3.64-1.407 1.313.08-.227 1.013 7.043.057.395-.384-.108-6.584-1.847.245-.06-4.565 4.256.079-.223.616 4.293.055.386-.375-.105-4.012-1.127.239-.058-2.658 2.476.079-.167a14771.4 14771.4 0 0 1-.403 6.522l-.184-.251 9.726 2.458-.217.056 31.62-29.394.077-.071.095.043a21.106 21.106 0 0 0 10.02 1.782 21.213 21.213 0 0 0 7.357-1.9c1.89-.881 3.182-1.847 4.054-2.481l.943-.784c.214-.179.33-.26.33-.26z"/><path style="fill:#e0e0e0" d="M652.914 107.396c8.421-7.857 8.879-21.053 1.022-29.475-7.857-8.421-21.053-8.879-29.474-1.022-7.203 6.72-8.574 17.345-3.905 25.549l-.006.005-4.237 3.953 1.014 7.043-6.585-1.846-5.309 4.953 1.014 7.043-6.585-1.846-4.563 4.257.618 4.292-4.013-1.125-2.656 2.478-.398 6.523 9.729 2.448 31.567-29.451c7.426 3.332 16.443 2.122 22.767-3.779zm-3.083-25.644a5.983 5.983 0 1 1-8.75 8.162 5.983 5.983 0 0 1 8.75-8.162z"/><path style="fill:none" d="M652.914 107.396c8.421-7.857 8.879-21.053 1.022-29.475-7.857-8.421-21.053-8.879-29.474-1.022-7.203 6.72-8.574 17.345-3.905 25.549l-.006.005-4.237 3.953 1.014 7.043-6.585-1.846-5.309 4.953 1.014 7.043-6.585-1.846-4.563 4.257.618 4.292-4.013-1.125-2.656 2.478-.398 6.523 9.729 2.448 31.567-29.451c7.426 3.332 16.443 2.122 22.767-3.779zm-3.083-25.644a5.983 5.983 0 1 1-8.75 8.162 5.983 5.983 0 0 1 8.75-8.162z"/><path style="fill:#263238" d="M649.831 81.752c-.038.039-.391-.364-1.188-.855a5.974 5.974 0 0 0-3.765-.827c-1.623.153-3.553 1.195-4.53 3.154-1.008 1.901-.815 4.68.925 6.512 1.706 1.863 4.466 2.249 6.433 1.375 2.022-.839 3.195-2.692 3.46-4.301a5.971 5.971 0 0 0-.564-3.813c-.435-.83-.813-1.21-.771-1.245.013-.012.111.076.286.258.179.178.415.473.662.888.494.812 1.019 2.223.749 3.973-.233 1.718-1.452 3.745-3.635 4.681a6.123 6.123 0 0 1-3.595.403c-1.258-.219-2.476-.882-3.407-1.865-.915-.997-1.492-2.257-1.623-3.527a6.134 6.134 0 0 1 .651-3.558c1.085-2.112 3.191-3.188 4.921-3.302 1.764-.148 3.136.474 3.911 1.023.397.275.674.531.84.722.172.188.253.292.24.304z"/><path style="fill:#263238" d="M652.914 107.396s-.096.102-.3.288l-.918.819c-.858.658-2.142 1.653-4.036 2.565a21.185 21.185 0 0 1-7.411 1.992 21.282 21.282 0 0 1-10.167-1.739l.172-.028L598.74 140.8l-.093.087-.124-.031-9.731-2.439-.196-.049.012-.202.393-6.523.006-.099.073-.068 2.654-2.479.103-.096.136.038 4.013 1.122-.319.28-.62-4.292-.019-.132.098-.091 4.562-4.259.106-.099.14.039 6.585 1.844-.327.287-1.014-7.043-.019-.135.1-.093 1.407-1.313 3.902-3.64.107-.1.141.04 6.584 1.846-.326.286-1.011-7.043-.019-.133.098-.092 4.245-3.957-.047.312c-1.643-2.953-2.589-6.229-2.711-9.495-.068-1.629.029-3.255.345-4.825.271-1.579.776-3.094 1.389-4.536 2.501-5.793 7.549-9.964 12.964-11.641 5.444-1.728 11.153-1.036 15.611 1.179 4.525 2.184 7.731 5.855 9.599 9.589 1.825 3.793 2.359 7.667 2.051 10.945a20.608 20.608 0 0 1-2.34 8.03l-.388.742-.429.661c-.284.422-.52.836-.791 1.183-.563.678-.995 1.287-1.42 1.711l-.964.963c-.223.216-.342.317-.342.317s.098-.123.305-.348l.928-.991c.412-.432.831-1.047 1.378-1.729.263-.349.492-.765.768-1.187l.416-.662.375-.741a20.62 20.62 0 0 0 2.241-7.968c.28-3.241-.274-7.056-2.089-10.779-1.859-3.665-5.027-7.259-9.476-9.383-4.383-2.157-9.981-2.814-15.305-1.109-5.295 1.656-10.223 5.748-12.655 11.411-.596 1.409-1.088 2.89-1.349 4.433-.307 1.534-.399 3.123-.331 4.713.123 3.189 1.051 6.385 2.656 9.265l.098.176-.146.136-4.241 3.96.079-.224 1.016 7.043.057.394-.383-.107-6.585-1.844.247-.06a13962.68 13962.68 0 0 1-5.308 4.953l.08-.227 1.013 7.043.057.395-.384-.108-6.584-1.847.245-.06-4.565 4.256.079-.223.616 4.293.055.386-.375-.105-4.012-1.127.239-.058-2.658 2.476.079-.167a14771.4 14771.4 0 0 1-.403 6.522l-.184-.251 9.726 2.458-.217.056 31.62-29.394.077-.071.095.043a21.106 21.106 0 0 0 10.02 1.782 21.213 21.213 0 0 0 7.357-1.9c1.89-.881 3.182-1.847 4.054-2.481l.943-.783c.215-.179.331-.26.331-.26z"/><g><path style="fill:#263238" d="M650.999 105.769c-.071-.062 1.22-1.093 2.801-3.533.807-1.205 1.569-2.83 2.144-4.801a18.21 18.21 0 0 0 .596-6.905c-.279-2.556-1.092-5.346-2.749-7.894-1.657-2.52-4.015-4.908-7.082-6.413-1.505-.794-3.18-1.351-4.93-1.665-.872-.193-1.773-.232-2.678-.309-.908.015-1.827-.002-2.745.136-3.686.393-7.328 2.073-10.223 4.724-2.847 2.704-4.777 6.222-5.425 9.873-.202.906-.248 1.824-.326 2.729.015.908-.01 1.81.123 2.694.192 1.769.632 3.478 1.32 5.035 1.289 3.165 3.508 5.682 5.907 7.51 2.427 1.83 5.154 2.835 7.685 3.289 2.546.45 4.924.31 6.929-.116 2.005-.437 3.68-1.085 4.937-1.807 2.542-1.405 3.659-2.622 3.716-2.547.006.007-.065.078-.21.212l-.653.584a8.477 8.477 0 0 1-1.119.881c-.46.326-.984.715-1.638 1.05-1.256.757-2.942 1.442-4.974 1.914-2.032.46-4.451.63-7.053.195-2.586-.44-5.383-1.447-7.879-3.305-2.468-1.855-4.755-4.426-6.093-7.67-.712-1.596-1.17-3.35-1.372-5.167-.138-.907-.117-1.834-.133-2.768.077-.93.124-1.874.329-2.806.659-3.754 2.642-7.379 5.571-10.159 2.976-2.728 6.729-4.453 10.519-4.85.943-.14 1.888-.121 2.821-.133.93.08 1.856.124 2.751.324 1.798.328 3.516.906 5.058 1.727 3.143 1.559 5.549 4.018 7.229 6.609 1.681 2.619 2.491 5.479 2.751 8.089a18.35 18.35 0 0 1-.682 7.023c-.611 1.994-1.412 3.628-2.253 4.83-.379.63-.804 1.125-1.161 1.562a8.41 8.41 0 0 1-.957 1.055l-.628.611c-.141.133-.218.199-.224.192z"/></g><g><path style="fill:#263238" d="M650.152 90.971c-.042-.04.436-.449 1.017-1.384a6.997 6.997 0 0 0 .986-4.427c-.112-.96-.424-2.004-1.05-2.955-.626-.941-1.512-1.831-2.66-2.389a6.71 6.71 0 0 0-3.87-.678c-1.376.149-2.733.777-3.814 1.766-1.062 1.01-1.784 2.32-2.027 3.683a6.704 6.704 0 0 0 .408 3.908c.478 1.184 1.304 2.13 2.199 2.82.906.69 1.926 1.074 2.876 1.252a6.992 6.992 0 0 0 4.484-.677c.972-.516 1.414-.963 1.451-.919.012.013-.094.125-.309.329a5.492 5.492 0 0 1-1.044.767c-.952.573-2.602 1.181-4.644.863-1.005-.164-2.095-.549-3.07-1.267-.964-.717-1.859-1.716-2.385-2.979a7.145 7.145 0 0 1-.468-4.19c.255-1.466 1.029-2.884 2.173-3.97 1.162-1.066 2.63-1.739 4.11-1.892a7.15 7.15 0 0 1 4.147.757c1.224.612 2.158 1.574 2.807 2.585a7.112 7.112 0 0 1 1.052 3.15c.176 2.059-.545 3.663-1.182 4.573a5.483 5.483 0 0 1-.838.988c-.218.201-.337.299-.349.286z"/></g><g><path style="fill:#263238" d="M596.029 139.473c-.098-.105 7.01-6.896 15.875-15.167 8.868-8.273 16.134-14.893 16.232-14.788.098.105-7.009 6.895-15.877 15.168-8.864 8.272-16.131 14.893-16.23 14.787z"/></g><g><path style="fill:#263238" d="M565.313 229.811c0 .144-1.119.26-2.5.26s-2.5-.117-2.5-.26c0-.144 1.119-.26 2.5-.26 1.381-.001 2.5.116 2.5.26zM575.313 229.811c0 .144-1.119.26-2.5.26s-2.5-.117-2.5-.26c0-.144 1.119-.26 2.5-.26 1.381-.001 2.5.116 2.5.26zM585.313 229.811c0 .144-1.119.26-2.5.26s-2.5-.117-2.5-.26c0-.144 1.119-.26 2.5-.26 1.381-.001 2.5.116 2.5.26zM595.313 229.811c0 .144-1.119.26-2.5.26s-2.5-.117-2.5-.26c0-.144 1.119-.26 2.5-.26 1.381-.001 2.5.116 2.5.26zM605.313 229.811c0 .144-1.119.26-2.5.26s-2.5-.117-2.5-.26c0-.144 1.119-.26 2.5-.26 1.381-.001 2.5.116 2.5.26zM615.313 229.811c0 .144-1.119.26-2.5.26s-2.5-.117-2.5-.26c0-.144 1.119-.26 2.5-.26 1.381-.001 2.5.116 2.5.26zM623.797 228.295c.107 0 .2.624.239 1.515l.01.228-.25.011c-.302.014-.635.021-.984.021-1.381 0-2.5-.117-2.5-.26 0-.144 1.119-.26 2.5-.26.35 0 .683.008.984.021l-.239.239c.041-.891.133-1.515.24-1.515zM623.797 218.295c.144 0 .26 1.119.26 2.5s-.117 2.5-.26 2.5-.26-1.119-.26-2.5c0-1.38.117-2.5.26-2.5zM623.797 208.295c.144 0 .26 1.119.26 2.5s-.117 2.5-.26 2.5-.26-1.119-.26-2.5c0-1.38.117-2.5.26-2.5zM623.797 198.295c.144 0 .26 1.119.26 2.5s-.117 2.5-.26 2.5-.26-1.119-.26-2.5c0-1.38.117-2.5.26-2.5zM623.797 188.295c.144 0 .26 1.119.26 2.5s-.117 2.5-.26 2.5-.26-1.119-.26-2.5c0-1.38.117-2.5.26-2.5zM623.797 178.295c.144 0 .26 1.119.26 2.5s-.117 2.5-.26 2.5-.26-1.119-.26-2.5c0-1.38.117-2.5.26-2.5zM623.797 168.295c.144 0 .26 1.119.26 2.5s-.117 2.5-.26 2.5-.26-1.119-.26-2.5c0-1.38.117-2.5.26-2.5zM623.797 158.295c.144 0 .26 1.119.26 2.5s-.117 2.5-.26 2.5-.26-1.119-.26-2.5c0-1.38.117-2.5.26-2.5zM623.797 148.295c.144 0 .26 1.119.26 2.5s-.117 2.5-.26 2.5-.26-1.119-.26-2.5c0-1.38.117-2.5.26-2.5zM623.797 138.295c.144 0 .26 1.119.26 2.5s-.117 2.5-.26 2.5-.26-1.119-.26-2.5c0-1.38.117-2.5.26-2.5zM623.797 128.295c.144 0 .26 1.119.26 2.5s-.117 2.5-.26 2.5-.26-1.119-.26-2.5c0-1.38.117-2.5.26-2.5z"/></g></g><g><path style="fill:#263238" d="M548.82 329.484c0 .144-1.119.26-2.5.26s-2.5-.117-2.5-.26 1.119-.26 2.5-.26 2.5.116 2.5.26zM558.82 329.484c0 .144-1.119.26-2.5.26s-2.5-.117-2.5-.26 1.119-.26 2.5-.26 2.5.116 2.5.26zM568.82 329.484c0 .144-1.119.26-2.5.26s-2.5-.117-2.5-.26 1.119-.26 2.5-.26 2.5.116 2.5.26zM578.82 329.484c0 .144-1.119.26-2.5.26s-2.5-.117-2.5-.26 1.119-.26 2.5-.26 2.5.116 2.5.26zM588.82 329.484c0 .144-1.119.26-2.5.26s-2.5-.117-2.5-.26 1.119-.26 2.5-.26 2.5.116 2.5.26zM598.82 329.484c0 .144-1.119.26-2.5.26s-2.5-.117-2.5-.26 1.119-.26 2.5-.26 2.5.116 2.5.26zM608.82 329.484c0 .144-1.119.26-2.5.26s-2.5-.117-2.5-.26 1.119-.26 2.5-.26 2.5.116 2.5.26zM618.82 329.484c0 .144-1.119.26-2.5.26s-2.5-.117-2.5-.26 1.119-.26 2.5-.26 2.5.116 2.5.26zM628.82 329.484c0 .144-1.119.26-2.5.26s-2.5-.117-2.5-.26 1.119-.26 2.5-.26 2.5.116 2.5.26zM638.82 329.484c0 .144-1.119.26-2.5.26s-2.5-.117-2.5-.26 1.119-.26 2.5-.26 2.5.116 2.5.26zM647.893 328.548c.082.001.151.364.193.938l.013.182-.216.019a19.14 19.14 0 0 1-1.564.058c-1.381 0-2.5-.117-2.5-.26s1.119-.26 2.5-.26c.595 0 1.142.022 1.564.058l-.202.2c.054-.574.13-.936.212-.935zM647.992 318.548c.144.001.249 1.122.236 2.502-.014 1.381-.141 2.499-.285 2.497-.144-.001-.249-1.122-.236-2.503.014-1.379.142-2.497.285-2.496zM648.091 308.549c.144.001.249 1.122.236 2.502-.014 1.381-.141 2.499-.285 2.497-.144-.001-.249-1.122-.236-2.503.014-1.379.141-2.498.285-2.496zM648.19 298.549c.144.001.249 1.122.236 2.502-.014 1.381-.141 2.499-.285 2.497s-.249-1.122-.236-2.503c.014-1.379.141-2.497.285-2.496z"/><g><path style="fill:#e8505b" d="m615.098 267.21 1.837 33.794a2.282 2.282 0 0 0 2.262 2.158l60.811.446a2.282 2.282 0 0 0 2.298-2.265l.193-26.305a2.281 2.281 0 0 0-2.279-2.298l-37.4-.033a2.284 2.284 0 0 1-1.611-.668l-6.453-6.45a2.278 2.278 0 0 0-1.596-.668l-15.766-.115a2.28 2.28 0 0 0-2.296 2.404z"/><path transform="matrix(1 .0073 -.0073 1 2.13 -4.747)" style="fill:#f5f5f5" d="M615.955 268.52h66.446v39.705h-66.446z"/><path style="fill:#e8505b" d="m610.79 271.801 4.77 41.441a1.467 1.467 0 0 0 1.447 1.299l64.754.474a1.467 1.467 0 0 0 1.473-1.341l3.563-41.38a1.467 1.467 0 0 0-1.451-1.593l-73.087-.535a1.466 1.466 0 0 0-1.469 1.635z"/></g></g><g><path style="fill:#263238" d="M556.529 447.974H221.83c-8.045 0-14.567-6.522-14.567-14.567V221.942c0-8.045 6.522-14.567 14.567-14.567h334.699c8.045 0 14.567 6.522 14.567 14.567v211.465c0 8.045-6.522 14.567-14.567 14.567z"/><path style="fill:#263238" d="M568.436 451.232H209.845c-9.829 0-17.798-7.968-17.798-17.798v-3.255h394.186v3.255c.001 9.829-7.967 17.798-17.797 17.798z"/><path style="fill:#455a64" d="M217.029 216.934h343.284v203.183H217.029zM353.313 430.179l4.892 7.781h68.829l4.543-7.781z"/><g><path style="fill:#ebebeb" d="M550.676 419.466H227.373a3.273 3.273 0 0 1-3.273-3.273V227.085a3.273 3.273 0 0 1 3.273-3.273h323.303a3.273 3.273 0 0 1 3.273 3.273v189.109a3.274 3.274 0 0 1-3.273 3.272z"/><path style="fill:#fafafa" d="M224.1 238.148h329.849v181.319H224.1z"/><path style="fill:#263238" d="M251.152 231.368a2.634 2.634 0 1 1-5.267 0 2.634 2.634 0 0 1 5.267 0zM235.187 231.368a2.634 2.634 0 1 1-5.267 0 2.634 2.634 0 0 1 5.267 0zM242.85 231.368a2.634 2.634 0 1 1-5.267 0 2.634 2.634 0 0 1 5.267 0z"/></g><g><path style="fill:#455a64" d="M567.97 430.179c0 .13-80.753.236-180.345.236-99.626 0-180.362-.105-180.362-.236 0-.13 80.736-.236 180.362-.236 99.591.001 180.345.106 180.345.236z"/></g><g><path style="fill:#e0e0e0" d="M246.959 329.487h75.27v5.035h-75.27zM344.181 259.579h75.27v5.035h-75.27zM531.4 278.332c0 .13-41.914.236-93.605.236-51.71 0-93.614-.105-93.614-.236 0-.13 41.905-.236 93.614-.236 51.691 0 93.605.106 93.605.236zM531.4 289.327c0 .13-41.914.236-93.605.236-51.71 0-93.614-.105-93.614-.236 0-.13 41.905-.236 93.614-.236 51.691 0 93.605.105 93.605.236zM531.4 300.321c0 .13-41.914.236-93.605.236-51.71 0-93.614-.105-93.614-.236 0-.13 41.905-.236 93.614-.236 51.691.001 93.605.106 93.605.236zM531.4 311.316c0 .13-41.914.236-93.605.236-51.71 0-93.614-.105-93.614-.236 0-.13 41.905-.236 93.614-.236 51.691.001 93.605.106 93.605.236zM531.4 322.311c0 .13-41.914.236-93.605.236-51.71 0-93.614-.105-93.614-.236 0-.13 41.905-.236 93.614-.236 51.691.001 93.605.106 93.605.236zM417.262 333.306c0 .13-16.361.236-36.539.236-20.185 0-36.542-.105-36.542-.236 0-.13 16.358-.236 36.542-.236 20.178 0 36.539.106 36.539.236zM530.031 354.645c0 .13-27.549.236-61.525.236-33.987 0-61.531-.106-61.531-.236s27.543-.236 61.531-.236c33.976 0 61.525.106 61.525.236zM530.031 366.316c0 .13-27.549.236-61.525.236-33.987 0-61.531-.105-61.531-.236 0-.13 27.543-.236 61.531-.236 33.976 0 61.525.106 61.525.236zM530.031 377.987c0 .13-27.549.236-61.525.236-33.987 0-61.531-.105-61.531-.236 0-.13 27.543-.236 61.531-.236 33.976 0 61.525.106 61.525.236zM530.031 389.658c0 .13-27.549.236-61.525.236-33.987 0-61.531-.105-61.531-.236 0-.13 27.543-.236 61.531-.236 33.976.001 61.525.106 61.525.236zM322.419 353.528c0 .13-16.422.236-36.676.236-20.26 0-36.679-.105-36.679-.236 0-.13 16.419-.236 36.679-.236 20.254.001 36.676.106 36.676.236zM322.419 362.694c0 .13-16.422.236-36.676.236-20.26 0-36.679-.105-36.679-.236 0-.13 16.419-.236 36.679-.236 20.254 0 36.676.106 36.676.236zM322.419 371.86c0 .13-16.422.236-36.676.236-20.26 0-36.679-.105-36.679-.236 0-.13 16.419-.236 36.679-.236 20.254 0 36.676.106 36.676.236zM322.419 381.026c0 .13-16.422.236-36.676.236-20.26 0-36.679-.105-36.679-.236 0-.13 16.419-.236 36.679-.236 20.254 0 36.676.105 36.676.236zM322.419 390.191c0 .13-16.422.236-36.676.236-20.26 0-36.679-.105-36.679-.236 0-.13 16.419-.236 36.679-.236 20.254.001 36.676.106 36.676.236z"/><path style="fill:#f5f5f5" d="M344.135 349.076h53.404v51.668h-53.404z"/><path style="fill:#ebebeb" d="m348.275 396.322 14.774-26.588 12.083 16.994 7.343-9.025 10.923 18.619zM380.279 364.563a3.843 3.843 0 1 1-7.686 0 3.843 3.843 0 0 1 7.686 0z"/><path style="fill:#ebebeb" d="M393.398 396.466a1.562 1.562 0 0 1-.012-.212l-.012-.602-.026-2.325-.056-8.775-.112-31.197.218.218-45.118.036c-.061.054.477-.478.25-.247V359.206l-.002 5.753-.006 11.133-.024 20.371-.222-.221 32.625.113 9.202.058 2.441.026.632.012c.143.006.218.01.222.015.005.004-.062.008-.197.012l-.608.013-2.398.026-9.152.058-32.767.113-.221.001v-.223l-.024-20.371-.007-11.133-.001-5.753v-4.384l-.001-.736V353.365c-.227.223.309-.319.259-.262l45.118.036.219.001-.001.218-.112 31.336-.057 8.725-.025 2.283-.013.579a.811.811 0 0 1-.012.185z"/></g><g><path style="fill:#f5f5f5" d="M248.378 250.984h72.432v70.077h-72.432z"/><path style="fill:#e0e0e0" d="m253.994 315.063 20.037-36.061 16.389 23.049 9.959-12.24 14.815 25.252zM297.401 271.988a5.212 5.212 0 0 1-5.213 5.212 5.212 5.212 0 1 1 0-10.425 5.213 5.213 0 0 1 5.213 5.213z"/><path style="fill:#e0e0e0" d="M315.194 315.258a2.231 2.231 0 0 1-.017-.287c-.003-.21-.009-.477-.016-.817l-.035-3.154-.077-11.901-.152-42.312.296.296-61.194.049c-.083.073.648-.649.339-.335v3.972l-.001 3.956c-.001 2.626-.001 5.228-.003 7.802l-.008 15.1-.033 27.629-.3-.301 44.249.153 12.48.078 3.311.035.858.017c.196.008.298.014.303.02.006.005-.085.011-.268.017l-.825.017-3.253.035-12.413.079-44.442.153-.301.001v-.302l-.033-27.629-.009-15.1-.002-7.802-.001-3.956v-1.99l-.001-.998v-.984c-.308.303.419-.432.351-.355l61.194.048.297.001-.001.296-.151 42.5-.077 11.834-.034 3.097-.017.785c-.002.173-.007.258-.014.253z"/></g><g><path style="fill:#e8505b" d="m330.518 277.612 3.578 7.25 8.001 1.163-5.789 5.643 1.366 7.969-7.156-3.762-7.156 3.762 1.367-7.969-5.79-5.643 8.001-1.163zM355.72 252.411l3.578 7.25 8.001 1.162-5.79 5.644 1.367 7.968-7.156-3.762-7.156 3.762 1.366-7.968-5.789-5.644 8.001-1.162zM389.401 242.518l3.578 7.25 8.001 1.163-5.79 5.643 1.367 7.969-7.156-3.762-7.156 3.762 1.366-7.969-5.789-5.643 8.001-1.163zM424.259 252.646l3.578 7.25 8.001 1.163-5.789 5.643 1.366 7.969-7.156-3.762-7.156 3.762 1.367-7.969-5.79-5.643 8.001-1.163zM448.283 276.67l3.578 7.25 8.001 1.163-5.789 5.643 1.367 7.969-7.157-3.762-7.156 3.762 1.367-7.969-5.79-5.643 8.001-1.163zM456.998 311.529l3.578 7.25 8.001 1.162-5.79 5.644 1.367 7.968-7.156-3.762-7.156 3.762 1.366-7.968-5.789-5.644 8.001-1.162zM448.519 346.152l3.578 7.25 8.001 1.163-5.79 5.643 1.367 7.968-7.156-3.762-7.156 3.762 1.366-7.968-5.789-5.643 8.001-1.163zM423.005 370.176l3.578 7.25 8.001 1.163-5.79 5.643 1.367 7.969-7.156-3.763-7.157 3.763 1.367-7.969-5.789-5.643 8-1.163zM388.723 380.079l3.578 7.25 8.001 1.163-5.79 5.643 1.367 7.969-7.156-3.762-7.156 3.762 1.366-7.969-5.789-5.643 8.001-1.163zM355.984 370.187l3.578 7.25 8.001 1.163-5.789 5.643 1.366 7.969-7.156-3.763-7.156 3.763 1.367-7.969-5.79-5.643 8.001-1.163zM330.076 345.525l3.578 7.25 8.001 1.163-5.79 5.643 1.367 7.969-7.156-3.762-7.156 3.762 1.366-7.969-5.789-5.643 8.001-1.163zM321.361 311.569l3.578 7.25 8.001 1.163-5.789 5.643 1.366 7.969-7.156-3.763-7.156 3.763 1.367-7.969-5.79-5.643 8.001-1.163z"/><path style="fill:#263238" d="M414.094 336.437h-7v-38.1c0-8.968-7.296-16.264-16.264-16.264s-16.264 7.296-16.264 16.264v38.1h-7v-38.1c0-12.827 10.437-23.264 23.264-23.264s23.264 10.436 23.264 23.264v38.1z"/><path style="fill:#e8505b" d="M416.371 359.716H365.29a5.811 5.811 0 0 1-5.811-5.811v-28.606a5.811 5.811 0 0 1 5.811-5.811h51.081a5.811 5.811 0 0 1 5.811 5.811v28.606a5.81 5.81 0 0 1-5.811 5.811z"/><path style="fill:#263238" d="M396.072 334.361a5.24 5.24 0 1 1-10.482 0 5.24 5.24 0 1 1 10.482 0z"/><path style="fill:#263238" d="M389.401 336.437h2.859v10.778h-2.859z"/><g><path style="fill:#fafafa" d="M362.823 355.901c-.144 0-.26-6.709-.26-14.982 0-8.277.116-14.984.26-14.984.144 0 .26 6.707.26 14.984 0 8.274-.116 14.982-.26 14.982z"/></g><g><path style="fill:#fafafa" d="M386.726 341.08c-.017.026-.246-.082-.615-.349-.37-.265-.862-.718-1.351-1.377-.977-1.282-1.871-3.611-1.291-6.125.609-2.508 2.452-4.189 3.901-4.896.733-.37 1.375-.554 1.825-.625.449-.073.702-.067.706-.036.022.098-.994.194-2.354.984-1.338.756-3.01 2.376-3.571 4.693-.538 2.322.23 4.52 1.087 5.795.861 1.317 1.727 1.857 1.663 1.936z"/></g></g></g><g><path style="fill:#263238" d="M170.274 301.631c-.797 2.242-.574 4.745.16 7.008s1.95 4.335 3.157 6.385c1.572-4.029 3.146-8.068 4.252-12.248.243-.919.42-2.025-.235-2.714-.497-.523-1.299-.598-2.018-.556a9.3 9.3 0 0 0-5.72 2.442M82.091 413.795l-16.36 37.4h22.521l16.036-37.697z"/><path style="fill:#455a64" d="M179.372 450.747c22.072-7.307 6.937-36.502 6.937-36.502l-96.465 9.073c-7.744-.052-14.051 6.211-14.051 13.956 0 7.708 6.249 13.957 13.957 13.957l89.622-.484"/><path style="fill:#455a64" d="M201.313 451.232c21.507-7.259 7.328-36.993 7.328-36.993l-94.041 8.866c-9.185.12-13.671 4.55-13.671 13.924.017 7.707 2.865 14.203 13.638 13.984l86.746.219"/><path style="fill:#263238" d="M180.124 419.172c0-.009-.091-.012-.268-.011l-.783.019-3.01.123-11.064.548-36.493 2.001c-1.781.085-3.544.239-5.275.264-1.742.027-3.457.1-5.139.201a107.91 107.91 0 0 0-4.95.402c-1.601.186-3.228.359-4.703.965-1.474.574-2.823 1.416-3.911 2.506-1.091 1.09-1.87 2.434-2.372 3.806-.509 1.376-.786 2.772-.966 4.114a28.627 28.627 0 0 0-.259 3.889c.01 2.487.445 4.749 1.241 6.549.789 1.807 1.889 3.125 2.925 3.984 1.04.866 2.001 1.297 2.663 1.504.665.21.677.141.03-.098-.644-.235-1.575-.688-2.575-1.56-.997-.865-2.051-2.174-2.798-3.948-.755-1.769-1.158-3.986-1.146-6.433.002-1.224.104-2.508.286-3.832.187-1.321.469-2.686.969-4.015.495-1.328 1.245-2.602 2.292-3.637 1.045-1.036 2.346-1.842 3.773-2.391 1.424-.579 2.989-.738 4.597-.921 1.606-.168 3.252-.289 4.93-.388a116.56 116.56 0 0 1 5.119-.192c1.744-.023 3.499-.177 5.283-.262l36.495-2.15 11.058-.71 3.005-.219.781-.07c.176-.015.265-.029.265-.038zM201.361 428.38c.012.027-.25.183-.765.38-.513.199-1.295.399-2.285.465-1.942.153-4.888-.452-7.07-2.666-2.159-2.239-2.69-5.199-2.488-7.136.091-.988.311-1.765.523-2.273.209-.509.372-.767.399-.755.101.034-.474 1.135-.557 3.05-.104 1.871.468 4.656 2.493 6.753 2.045 2.076 4.814 2.718 6.687 2.662 1.916-.034 3.031-.581 3.063-.48z"/><path style="fill:#ffbe9d" d="m153.517 369.254-8.923 30.532-33.029 3.543v5.862l48.531.67 6.608-39.758z"/><path style="fill:#e8505b" d="M196.587 337.353c5.86.012 21.729 3.005 23.124 13.701 1.259 9.659 3.145 20.619 3.145 20.619l-20.889.561 7.117 1.884 3.047 45.088-54.057-1.874 2.867-23.18 2.354-23.172-11.813-.964s4.042-20.17 11.091-26.395c0 0 6.451-5.668 15.558-6.269 9.107-.599 18.456.001 18.456.001"/><path style="fill:#263238" d="M165.232 356.001c.125.014-.7 8.164-1.843 18.2-1.143 10.04-2.171 18.164-2.297 18.15-.125-.014.7-8.162 1.843-18.202 1.144-10.036 2.172-18.162 2.297-18.148zM198.203 337.422c.015-.001.035.13.059.379.023.249.047.618.055 1.094.019.947-.055 2.354-.585 3.993-.496 1.619-1.352 3.587-3.065 5.199a8.8 8.8 0 0 1-3.126 1.941c-1.226.433-2.574.601-3.933.624-1.361.012-2.687-.041-3.963-.269-1.269-.226-2.477-.683-3.43-1.392-1.92-1.426-2.834-3.429-3.256-5.069a13.152 13.152 0 0 1-.449-4.009c.018-.476.054-.843.082-1.092.031-.249.054-.378.069-.377.035.002.007.527.018 1.471.012.942.098 2.313.576 3.931.449 1.597 1.37 3.508 3.2 4.839.905.66 2.041 1.084 3.268 1.298 1.226.215 2.543.266 3.876.254 1.33-.023 2.628-.184 3.795-.591a8.482 8.482 0 0 0 2.992-1.832c1.664-1.539 2.522-3.417 3.052-5.013a13.07 13.07 0 0 0 .709-3.907c.034-.945.021-1.471.056-1.472z"/><path d="M201.101 356.003c-2.001 9.566-4.61 19.398-6.611 28.965-.425 2.033-.882 4.138-2.124 5.802-.776 1.04-1.816 1.848-2.854 2.626-3.945 2.96-8.103 5.731-12.737 7.42a114.51 114.51 0 0 0 19.828-3.451c1.099-.293 2.269-.65 2.978-1.539.627-.786.773-1.841.891-2.84 1.439-12.266 1.023-24.64.629-36.983" style="opacity:.2"/><path style="fill:#263238" d="M223.189 371.834c.001.032-.559.073-1.57.12l-4.285.158c-3.618.113-8.618.238-14.139.348l-1.775.034-.223.004-.009-.22c-.199-5.127-.108-9.685-.011-12.965.051-1.639.113-2.958.169-3.866.056-.908.1-1.407.13-1.406s.042.501.038 1.411l-.029 3.867c-.016 3.275-.052 7.836.156 12.935l-.232-.215 1.775-.036c5.522-.11 10.522-.184 14.142-.215l4.287-.013c1.015.009 1.575.028 1.576.059z"/><path style="fill:#e0e0e0" d="m70.192 374.029 18.451 36.275h58.172l-2.354-4.739-16.853-.501-13.736-30.584a5.293 5.293 0 0 0-4.829-3.125H71.832a1.84 1.84 0 0 0-1.64 2.674z"/><circle style="fill:#263238" cx="97.098" cy="390.273" r="2.226"/><path style="fill:#ffbe9d" d="m198.489 310.019-2.084 29.517a9.203 9.203 0 0 1-9.18 8.555c-5.319 0-9.532-4.497-9.183-9.805.185-2.81.352-5.11.352-5.11s-7.134-1.111-7.234-8.255c-.047-3.365.401-10.027.903-16.289.586-7.31 6.682-12.947 14.016-12.947h.007c7.434.432 13.042 6.915 12.403 14.334z"/><path style="fill:#eb996e" d="M178.351 333.518s4.515.367 9.314-2.647c0 0-2.202 5.142-9.331 4.498l.017-1.851z"/><path style="fill:#263238" d="M174.296 313.272c-.019.539.422.999.984 1.029.561.03 1.033-.381 1.052-.92.019-.539-.421-1-.983-1.03-.562-.03-1.034.382-1.053.921zM173.662 311.867c.126.133.899-.439 1.997-.436 1.097-.013 1.902.552 2.021.417.059-.059-.07-.3-.421-.555-.345-.254-.934-.502-1.618-.499-.684.004-1.259.255-1.59.513-.337.259-.451.5-.389.56zM184.637 313.568c-.019.539.422.999.984 1.029.561.03 1.033-.381 1.052-.92.019-.539-.421-1-.983-1.03-.562-.03-1.034.382-1.053.921zM184.454 312.072c.127.133.901-.439 1.998-.436 1.097-.013 1.902.552 2.022.417.058-.059-.069-.299-.422-.555-.345-.254-.934-.502-1.618-.499-.684.004-1.259.255-1.59.513-.337.259-.451.5-.39.56zM180.47 320.214c.005-.062-.677-.18-1.783-.322-.28-.029-.546-.085-.593-.276-.066-.203.051-.505.187-.831l.829-2.135c1.151-3.04 1.985-5.539 1.862-5.584-.123-.045-1.156 2.382-2.307 5.421l-.794 2.148c-.106.319-.289.68-.146 1.1.076.21.281.362.461.41.18.055.337.058.476.066 1.113.06 1.804.065 1.808.003zM183.701 320.973c-.179-.01-.181 1.181-1.201 2.027-1.018.849-2.289.715-2.298.882-.017.075.283.231.819.246a2.969 2.969 0 0 0 1.918-.668c.622-.519.89-1.211.93-1.7.046-.498-.086-.794-.168-.787z"/><g><path style="fill:#263238" d="M184.171 307.769c.108.298 1.204.157 2.492.312 1.292.129 2.33.506 2.501.239.076-.128-.105-.409-.525-.698-.416-.288-1.08-.563-1.854-.649-.773-.084-1.481.038-1.951.229-.471.191-.71.425-.663.567z"/></g><g><path style="fill:#263238" d="M174.066 308.689c.193.249.949-.01 1.859-.022.909-.044 1.68.167 1.857-.093.078-.127-.043-.376-.38-.612-.331-.235-.886-.427-1.511-.409-.625.02-1.166.246-1.483.501-.321.257-.427.514-.342.635z"/></g><g><path style="fill:#ffbe9d" d="M196.08 315.828c.122-.053 4.909-1.452 4.753 3.432-.156 4.884-5.028 3.72-5.032 3.58s.279-7.012.279-7.012z"/><path style="fill:#eb996e" d="M197.352 321.037c.022-.015.083.062.225.133a.85.85 0 0 0 .635.033c.522-.173.983-.978 1.035-1.858a2.81 2.81 0 0 0-.199-1.226c-.138-.362-.361-.619-.619-.674a.435.435 0 0 0-.51.217c-.07.134-.042.233-.068.241-.014.012-.102-.085-.057-.286a.541.541 0 0 1 .202-.3.638.638 0 0 1 .475-.109c.376.038.704.395.865.786.182.393.281.872.252 1.371-.063.983-.596 1.888-1.309 2.07a.91.91 0 0 1-.774-.154c-.148-.126-.17-.235-.153-.244z"/></g><g><path style="fill:#263238" d="M81.902 410.362h71.113v3.469H81.902z"/></g><g><path style="fill:#263238" d="m131.112 412.096 21.63 39.136h19.364l-19.092-37.401z"/></g><g><path style="fill:#455a64" d="M153.016 413.831c.001.144-15.937.34-35.594.439-19.664.099-35.6.062-35.6-.082s15.934-.34 35.598-.439c19.656-.098 35.595-.062 35.596.082z"/></g><g><path style="fill:#263238" d="M170.092 305.428a4.851 4.851 0 0 0 4.02-.288c-.508.417-.327 1.304.194 1.705s1.23.44 1.887.417a14.46 14.46 0 0 0 9.483-4.055c.028 1.236 1.02 2.3 2.182 2.721 1.162.42 2.453.303 3.654.015-.32 1.825-.639 3.708-.225 5.513.414 1.806 1.754 3.532 3.586 3.806.368.899.161 1.917.227 2.886.066.969.634 2.083 1.605 2.11.856.024 1.497-.854 1.61-1.704.113-.849-.385-2.58.223-3.956.66-1.493.397-1.217 1.054-2.712s1.027-3.551 1.539-5.101c.512-1.551.709-3.276.125-4.801-.584-1.525-2.098-2.764-3.727-2.65.594-1.531.098-3.418-1.173-4.46-1.27-1.041-3.218-1.158-4.603-.275 0 0-5.567-3.781-11.715-1.693-6.114 2.076-7.069 7.672-8.405 7.846-1.336.174-5.402-2.033-4.705-.639.697 1.394 1.859 2.73 2.439 2.788.581.058-4.646-2.149-2.846-.174 1.803 1.976 3.571 2.701 3.571 2.701z"/></g><g><path style="fill:#fafafa" d="M219.111 353.034c-.06.054-.527-.839-1.929-1.855-1.367-1.016-3.769-2.063-6.86-2.022-3.089-.011-6.635 1.331-10.11 3.464-3.516 2.081-7.049 5.01-11.468 6.934-2.198.961-4.538 1.506-6.812 1.542a17.756 17.756 0 0 1-6.423-1.059c-1.965-.71-3.671-1.78-5.115-2.913-1.455-1.126-2.732-2.252-3.981-3.163-2.464-1.875-4.93-2.658-6.646-2.712-1.73-.054-2.628.426-2.643.352-.003-.008.05-.036.159-.083.11-.041.268-.125.491-.184.437-.147 1.116-.284 1.998-.287 1.761-.01 4.324.747 6.857 2.617 2.562 1.772 5.167 4.576 9.043 5.923 3.807 1.387 8.567 1.439 12.867-.51 4.325-1.879 7.861-4.783 11.426-6.867 3.524-2.133 7.17-3.48 10.355-3.421 3.174.006 5.623 1.138 6.983 2.229a7.763 7.763 0 0 1 1.426 1.427c.266.376.397.578.382.588z"/></g><g><path style="fill:#fafafa" d="M201.318 379.32c-.029.037-.484-.316-1.378-.832a14.276 14.276 0 0 0-4.047-1.558c-1.785-.393-4.019-.509-6.363.113-2.358.585-4.767 1.822-7.447 2.813-1.341.491-2.712.858-4.058 1.026-1.347.17-2.66.177-3.9.072a18.615 18.615 0 0 1-6.335-1.733 16.05 16.05 0 0 1-3.71-2.411c-.407-.328-.679-.633-.873-.826-.191-.198-.284-.308-.271-.32.034-.036.452.362 1.272.99a17.863 17.863 0 0 0 3.737 2.234 18.94 18.94 0 0 0 6.22 1.589 17.762 17.762 0 0 0 7.74-1.109c2.634-.971 5.075-2.21 7.509-2.789a13.6 13.6 0 0 1 6.563-.007 13.207 13.207 0 0 1 4.07 1.744c.437.288.763.531.97.713.208.177.312.277.301.291z"/></g><g><path style="fill:#fafafa" d="M209.192 396.128c-.025.056-.658-.341-1.933-.613-1.269-.267-3.204-.247-5.424.487a21.579 21.579 0 0 0-3.506 1.497c-1.217.64-2.487 1.403-3.863 2.145-1.375.739-2.867 1.475-4.53 1.947-1.656.473-3.51.606-5.31.217-3.625-.786-6.492-2.882-9.135-4.459-2.63-1.621-5.217-2.799-7.542-2.964-2.322-.192-4.188.439-5.272 1.132-1.111.687-1.507 1.339-1.557 1.289-.014-.011.09-.16.304-.438a5.644 5.644 0 0 1 1.142-1.021c1.084-.768 3.004-1.482 5.41-1.33 2.422.123 5.098 1.309 7.762 2.919 2.675 1.572 5.518 3.612 8.993 4.361 1.723.371 3.467.249 5.068-.199 1.604-.448 3.072-1.157 4.441-1.879 1.371-.724 2.648-1.473 3.891-2.105a21.222 21.222 0 0 1 3.596-1.465c2.282-.705 4.288-.669 5.576-.332a6.48 6.48 0 0 1 1.435.533c.307.167.463.262.454.278z"/></g><g><path style="fill:#fafafa" d="M211.744 415.237c.005.012-.163.101-.507.208a6.158 6.158 0 0 1-1.551.263c-1.375.1-3.365-.3-5.627-1.175-1.139-.411-2.372-.899-3.738-1.217a14.802 14.802 0 0 0-4.447-.253c-3.162.267-6.49 1.461-10.047 2.483-1.783.506-3.564.92-5.321 1.089a23.128 23.128 0 0 1-5.067-.07c-3.21-.413-5.991-1.316-8.249-2.201a59.415 59.415 0 0 1-6.612-3.105c-.311-.174-.471-.274-.463-.29.008-.016.184.052.51.196l1.42.643c1.232.557 3.014 1.37 5.276 2.211 2.258.836 5.02 1.69 8.174 2.069 1.576.176 3.247.217 4.959.039 1.713-.171 3.461-.579 5.231-1.082 3.53-1.012 6.897-2.21 10.148-2.46a15.01 15.01 0 0 1 4.587.311c1.406.347 2.641.861 3.768 1.292 2.237.914 4.147 1.352 5.492 1.317 1.343-.011 2.049-.325 2.064-.268z"/></g><g><path style="fill:#fafafa" d="M221.995 366.776c.019.018-.17.275-.605.645a8.073 8.073 0 0 1-2.063 1.261 8.808 8.808 0 0 1-3.532.685c-1.374.003-2.864-.441-4.252-1.125-1.398-.673-2.66-1.4-3.891-1.837-1.217-.43-2.414-.515-3.375-.376-.969.138-1.679.531-2.101.874-.419.352-.594.617-.634.588-.019-.01.096-.316.498-.738.403-.412 1.147-.892 2.175-1.087 1.021-.196 2.289-.147 3.595.286 1.294.432 2.587 1.162 3.956 1.82 1.366.669 2.74 1.09 4.04 1.115 1.297.051 2.46-.214 3.385-.547 1.858-.706 2.741-1.648 2.804-1.564z"/></g><g><path style="fill:#fafafa" d="M163.925 366.279c.021.021-.067.173-.325.349-.255.175-.701.342-1.26.33-.554-.005-1.217-.172-1.847-.532-.631-.347-1.233-.833-1.886-1.252-1.284-.875-2.753-.948-3.737-.755-1 .185-1.552.552-1.598.474-.036-.038.458-.535 1.515-.833 1.021-.309 2.696-.285 4.099.675.692.446 1.272.933 1.846 1.276.562.35 1.135.53 1.626.58 1.009.116 1.521-.388 1.567-.312z"/></g><g><path style="fill:#ffbe9d" d="m136.756 398.57 14.55-1.749 10.252 6.722 39.206-9.397 1.148-21.879 17.597-.433-.41 25.675c-.174 8.266-7.045 14.81-15.31 14.581l-57.422-1.59-2.438-4.887-12.32-.366 5.147-6.677z"/><path style="fill:#eb996e" d="M200.268 394.147c.004.015-.25.092-.737.224l-2.134.555-7.867 1.96-25.996 6.299-2.419.579-.096.023-.082-.054-10.242-6.737.14.033-14.558 1.682.096-.055-3.844 4.88-1.037 1.284c-.239.289-.368.434-.378.426-.011-.008.097-.17.316-.475l.978-1.33 3.74-4.96.036-.047.061-.008 14.542-1.816.076-.009.065.042 10.262 6.708-.178-.031 2.418-.58 26.027-6.17 7.901-1.819 2.154-.472c.491-.101.752-.148.756-.132z"/><path style="fill:#eb996e" d="M144.706 402.738c0 .126-2.531.228-5.652.228l-1.034-.004.145-.053c-2.016 1.688-3.592 2.905-3.664 2.82-.072-.085 1.382-1.444 3.373-3.162l.062-.053h.084l1.034-.004c3.121 0 5.652.102 5.652.228zM207.488 398.53c-.121.074-.875-1.764-2.856-2.981-1.955-1.26-3.939-1.145-3.924-1.286-.005-.051.476-.164 1.265-.099.785.06 1.871.353 2.902.999 1.028.65 1.761 1.502 2.155 2.184.4.683.507 1.165.458 1.183z"/></g></g></svg>