<svg xmlns="http://www.w3.org/2000/svg" viewBox="0 0 750 500" style="enable-background:new 0 0 750 500" xml:space="preserve"><path style="fill:#f5f5f5" d="M39.597 190.869h88.281V461.3H39.597z"/><path style="fill:#fafafa" d="M127.604 190.869h69.771V461.3h-69.771z"/><path style="fill:#e0e0e0" d="M44.336 234.15h74.887v21.083H44.336z"/><path style="fill:#f5f5f5" d="M46.426 236.8h4.194v16.136h-4.194z"/><path style="fill:#fafafa" d="M55.56 240.194a1.333 1.333 0 1 1-2.667 0 1.333 1.333 0 0 1 2.667 0z"/><circle style="fill:#fafafa" cx="54.227" cy="245.896" r="1.333"/><path style="fill:#f5f5f5" d="M60.887 238.862h4.121v12.394h-4.121zM66.839 238.862h4.121v12.394h-4.121zM72.792 238.862h4.121v12.394h-4.121zM78.744 238.862h4.121v12.394h-4.121zM84.696 238.862h4.121v12.394h-4.121zM90.648 238.862h4.121v12.394h-4.121zM96.601 238.862h4.121v12.394h-4.121zM102.553 238.862h4.121v12.394h-4.121zM108.505 238.862h4.121v12.394h-4.121zM114.457 238.862h4.121v12.394h-4.121z"/><g><path style="fill:#e0e0e0" d="M44.336 267.919h74.887v21.083H44.336z"/><path style="fill:#f5f5f5" d="M46.426 270.57h4.194v16.136h-4.194z"/><path style="fill:#fafafa" d="M55.56 273.964a1.333 1.333 0 1 1-2.667 0 1.333 1.333 0 0 1 2.667 0zM55.56 279.665a1.333 1.333 0 1 1-2.667 0 1.333 1.333 0 0 1 2.667 0z"/><path style="fill:#f5f5f5" d="M60.887 272.631h4.121v12.394h-4.121zM66.839 272.631h4.121v12.394h-4.121zM72.792 272.631h4.121v12.394h-4.121zM78.744 272.631h4.121v12.394h-4.121zM84.696 272.631h4.121v12.394h-4.121zM90.648 272.631h4.121v12.394h-4.121zM96.601 272.631h4.121v12.394h-4.121zM102.553 272.631h4.121v12.394h-4.121zM108.505 272.631h4.121v12.394h-4.121zM114.457 272.631h4.121v12.394h-4.121z"/></g><g><path style="fill:#e0e0e0" d="M44.336 301.689h74.887v21.083H44.336z"/><path style="fill:#f5f5f5" d="M46.426 304.339h4.194v16.136h-4.194z"/><path style="fill:#fafafa" d="M55.56 307.733a1.333 1.333 0 1 1-2.667 0 1.333 1.333 0 0 1 2.667 0z"/><circle style="fill:#fafafa" cx="54.227" cy="313.435" r="1.333"/><path style="fill:#f5f5f5" d="M60.887 306.4h4.121v12.394h-4.121zM66.839 306.4h4.121v12.394h-4.121zM72.792 306.4h4.121v12.394h-4.121zM78.744 306.4h4.121v12.394h-4.121zM84.696 306.4h4.121v12.394h-4.121zM90.648 306.4h4.121v12.394h-4.121zM96.601 306.4h4.121v12.394h-4.121zM102.553 306.4h4.121v12.394h-4.121zM108.505 306.4h4.121v12.394h-4.121zM114.457 306.4h4.121v12.394h-4.121z"/></g><g><path style="fill:#e0e0e0" d="M44.336 335.458h74.887v21.083H44.336z"/><path style="fill:#f5f5f5" d="M46.426 338.108h4.194v16.136h-4.194z"/><path style="fill:#fafafa" d="M55.56 341.503a1.333 1.333 0 1 1-2.667 0 1.333 1.333 0 0 1 2.667 0z"/><circle style="fill:#fafafa" cx="54.227" cy="347.204" r="1.333"/><path style="fill:#f5f5f5" d="M60.887 340.17h4.121v12.394h-4.121zM66.839 340.17h4.121v12.394h-4.121zM72.792 340.17h4.121v12.394h-4.121zM78.744 340.17h4.121v12.394h-4.121zM84.696 340.17h4.121v12.394h-4.121zM90.648 340.17h4.121v12.394h-4.121zM96.601 340.17h4.121v12.394h-4.121zM102.553 340.17h4.121v12.394h-4.121zM108.505 340.17h4.121v12.394h-4.121zM114.457 340.17h4.121v12.394h-4.121z"/></g><g><path style="fill:#e0e0e0" d="M44.336 369.227h74.887v21.083H44.336z"/><path style="fill:#f5f5f5" d="M46.426 371.878h4.194v16.136h-4.194z"/><path style="fill:#fafafa" d="M55.56 375.272a1.333 1.333 0 1 1-2.667 0 1.333 1.333 0 0 1 2.667 0z"/><circle style="fill:#fafafa" cx="54.227" cy="380.973" r="1.333"/><path style="fill:#f5f5f5" d="M60.887 373.939h4.121v12.394h-4.121zM66.839 373.939h4.121v12.394h-4.121zM72.792 373.939h4.121v12.394h-4.121zM78.744 373.939h4.121v12.394h-4.121zM84.696 373.939h4.121v12.394h-4.121zM90.648 373.939h4.121v12.394h-4.121zM96.601 373.939h4.121v12.394h-4.121zM102.553 373.939h4.121v12.394h-4.121zM108.505 373.939h4.121v12.394h-4.121zM114.457 373.939h4.121v12.394h-4.121z"/></g><g><path style="fill:#e0e0e0" d="M44.336 402.997h74.887v21.083H44.336z"/><path style="fill:#f5f5f5" d="M46.426 405.647h4.194v16.136h-4.194z"/><path style="fill:#fafafa" d="M55.56 409.041a1.333 1.333 0 1 1-2.667 0 1.333 1.333 0 0 1 2.667 0z"/><circle style="fill:#fafafa" cx="54.227" cy="414.743" r="1.333"/><path style="fill:#f5f5f5" d="M60.887 407.708h4.121v12.394h-4.121zM66.839 407.708h4.121v12.394h-4.121zM72.792 407.708h4.121v12.394h-4.121zM78.744 407.708h4.121v12.394h-4.121zM84.696 407.708h4.121v12.394h-4.121zM90.648 407.708h4.121v12.394h-4.121zM96.601 407.708h4.121v12.394h-4.121zM102.553 407.708h4.121v12.394h-4.121zM108.505 407.708h4.121v12.394h-4.121zM114.457 407.708h4.121v12.394h-4.121z"/></g><g><path style="fill:#e0e0e0" d="M44.336 436.766h74.887v21.083H44.336z"/><path style="fill:#f5f5f5" d="M46.426 439.416h4.194v16.136h-4.194z"/><path style="fill:#fafafa" d="M55.56 442.81a1.333 1.333 0 1 1-2.667 0 1.333 1.333 0 0 1 2.667 0zM55.56 448.512a1.333 1.333 0 1 1-2.667 0 1.333 1.333 0 0 1 2.667 0z"/><path style="fill:#f5f5f5" d="M60.887 441.478h4.121v12.395h-4.121zM66.839 441.478h4.121v12.395h-4.121zM72.792 441.478h4.121v12.395h-4.121zM78.744 441.478h4.121v12.395h-4.121zM84.696 441.478h4.121v12.395h-4.121zM90.648 441.478h4.121v12.395h-4.121zM96.601 441.478h4.121v12.395h-4.121zM102.553 441.478h4.121v12.395h-4.121zM108.505 441.478h4.121v12.395h-4.121zM114.457 441.478h4.121v12.395h-4.121z"/></g><g><path style="fill:#e0e0e0" d="M90.648 234.15c-.018.001-.049-.223-.082-.65a43.3 43.3 0 0 1-.08-1.873c-.023-.813-.039-1.807-.095-2.957-.07-1.145-.146-2.465-.516-3.842-.396-1.372-1.022-2.844-2-4.207-.967-1.367-2.347-2.588-4.095-3.29-1.741-.724-3.741-.994-5.812-1.179l-6.449-.558c-8.84-.767-16.854-1.26-22.663-1.371-2.904-.065-5.255-.05-6.881-.045l-1.872.016c-.428-.002-.654-.012-.655-.031-.001-.019.223-.045.65-.079l1.87-.117a141.4 141.4 0 0 1 6.892-.128c5.822.013 13.859.447 22.704 1.214l6.453.569c2.083.194 4.136.477 5.956 1.247 1.831.749 3.285 2.061 4.269 3.49 1.001 1.432 1.618 2.946 2.004 4.368.36 1.443.407 2.773.449 3.93.028 1.159.013 2.154.004 2.967l-.022 1.871c-.004.428-.009.654-.029.655z"/></g><g><path style="fill:#e0e0e0" d="M67.931 234.15c-.019 0-.036-.212-.051-.615l-.026-1.763c-.007-.764-.008-1.7-.093-2.774-.102-1.063-.271-2.307-.922-3.464-.651-1.148-1.927-2.006-3.374-2.59a9.286 9.286 0 0 0-4.918-.498 8.296 8.296 0 0 0-2.537.863c-.792.439-1.535 1.052-1.966 1.861a2.643 2.643 0 0 0 .007 2.615 3.505 3.505 0 0 0 2.224 1.672c.937.229 1.921-.097 2.6-.752a3.854 3.854 0 0 0 1.17-2.481c.09-.924-.25-1.796-.778-2.54a5.554 5.554 0 0 0-1.97-1.741c-.755-.424-1.612-.494-2.466-.636a62.983 62.983 0 0 0-6.907-.667c-2.726-.109-4.94-.07-6.469-.073l-1.762-.008c-.403-.008-.615-.021-.615-.04s.211-.042.613-.07l1.76-.094c1.529-.062 3.744-.16 6.487-.1a58.705 58.705 0 0 1 6.964.579c.428.068.85.121 1.3.203.456.089.903.246 1.325.461a6.044 6.044 0 0 1 2.165 1.887c.574.784.988 1.82.885 2.879a4.376 4.376 0 0 1-1.329 2.832c-.774.761-1.979 1.165-3.09.889a4.03 4.03 0 0 1-2.576-1.939c-.56-.953-.537-2.213-.004-3.126.507-.937 1.332-1.595 2.186-2.065a8.8 8.8 0 0 1 2.703-.902 9.689 9.689 0 0 1 5.168.573c1.503.627 2.846 1.55 3.542 2.819.677 1.26.814 2.547.891 3.632.057 1.095.026 2.033.001 2.799l-.076 1.761c-.024.401-.043.613-.062.613z"/></g><g><path style="fill:#e0e0e0" d="M96.761 234.15c-.019.003-.073-.238-.158-.697a60.559 60.559 0 0 0-.4-2c-.38-1.725-.979-4.231-2.214-7.137-1.223-2.883-3.171-6.231-6.514-8.733-1.628-1.271-3.727-1.967-5.961-2.267-2.233-.324-4.599-.308-7.018-.376-9.676-.183-18.449-.148-24.795-.401a207.059 207.059 0 0 1-7.509-.393l-2.037-.175c-.465-.047-.709-.08-.707-.099.001-.019.247-.022.714-.01l2.042.074c1.773.064 4.337.158 7.508.221 6.341.154 15.105.059 24.796.242 2.416.068 4.793.055 7.083.393 2.275.309 4.495 1.054 6.185 2.394 1.675 1.31 3.079 2.793 4.125 4.367 1.058 1.562 1.836 3.142 2.442 4.617 1.204 2.961 1.748 5.497 2.067 7.244.156.876.253 1.56.301 2.025.051.463.069.708.05.711z"/></g><path style="fill:#e0e0e0" d="M45.366 194.232h72.827v10.572H45.366z"/><path style="fill:#f5f5f5" d="M61.383 199.518h39.65v5.286h-39.65z"/><g><path style="fill:#f5f5f5" d="M146.391 125.318h109.501v335.434H146.391z"/><path style="fill:#fafafa" d="M255.553 125.318h86.542v335.434h-86.542z"/><path style="fill:#e0e0e0" d="M152.269 179.003h92.888v26.151h-92.888z"/><path style="fill:#f5f5f5" d="M154.861 182.29h5.202v20.014h-5.202z"/><path style="fill:#fafafa" d="M166.191 186.5a1.653 1.653 0 1 1-3.306 0 1.653 1.653 0 0 1 3.306 0z"/><circle style="fill:#fafafa" cx="164.538" cy="193.572" r="1.653"/><path style="fill:#f5f5f5" d="M172.799 184.847h5.111v15.374h-5.111zM180.182 184.847h5.111v15.374h-5.111zM187.565 184.847h5.111v15.374h-5.111zM194.947 184.847h5.111v15.374h-5.111zM202.331 184.847h5.111v15.374h-5.111zM209.714 184.847h5.111v15.374h-5.111zM217.096 184.847h5.111v15.374h-5.111zM224.479 184.847h5.111v15.374h-5.111zM231.862 184.847h5.111v15.374h-5.111zM239.245 184.847h5.111v15.374h-5.111z"/><g><path style="fill:#e0e0e0" d="M152.269 220.889h92.888v26.151h-92.888z"/><path style="fill:#f5f5f5" d="M154.861 224.176h5.202v20.014h-5.202z"/><path style="fill:#fafafa" d="M166.191 228.387a1.653 1.653 0 1 1-3.306 0 1.653 1.653 0 0 1 3.306 0zM166.191 235.458a1.653 1.653 0 1 1-3.306 0 1.653 1.653 0 0 1 3.306 0z"/><path style="fill:#f5f5f5" d="M172.799 226.733h5.111v15.374h-5.111zM180.182 226.733h5.111v15.374h-5.111zM187.565 226.733h5.111v15.374h-5.111zM194.947 226.733h5.111v15.374h-5.111zM202.331 226.733h5.111v15.374h-5.111zM209.714 226.733h5.111v15.374h-5.111zM217.096 226.733h5.111v15.374h-5.111zM224.479 226.733h5.111v15.374h-5.111zM231.862 226.733h5.111v15.374h-5.111zM239.245 226.733h5.111v15.374h-5.111z"/></g><g><path style="fill:#e0e0e0" d="M152.269 262.775h92.888v26.151h-92.888z"/><path style="fill:#f5f5f5" d="M154.861 266.063h5.202v20.014h-5.202z"/><path style="fill:#fafafa" d="M166.191 270.273a1.653 1.653 0 1 1-3.306 0 1.653 1.653 0 0 1 3.306 0z"/><circle style="fill:#fafafa" cx="164.538" cy="277.345" r="1.653"/><path style="fill:#f5f5f5" d="M172.799 268.62h5.111v15.374h-5.111zM180.182 268.62h5.111v15.374h-5.111zM187.565 268.62h5.111v15.374h-5.111zM194.947 268.62h5.111v15.374h-5.111zM202.331 268.62h5.111v15.374h-5.111zM209.714 268.62h5.111v15.374h-5.111zM217.096 268.62h5.111v15.374h-5.111zM224.479 268.62h5.111v15.374h-5.111zM231.862 268.62h5.111v15.374h-5.111zM239.245 268.62h5.111v15.374h-5.111z"/></g><g><path style="fill:#e0e0e0" d="M152.269 304.662h92.888v26.151h-92.888z"/><path style="fill:#f5f5f5" d="M154.861 307.949h5.202v20.014h-5.202z"/><path style="fill:#fafafa" d="M166.191 312.159a1.653 1.653 0 1 1-3.306 0 1.653 1.653 0 0 1 3.306 0zM166.191 319.231a1.653 1.653 0 1 1-3.306 0 1.653 1.653 0 0 1 3.306 0z"/><path style="fill:#f5f5f5" d="M172.799 310.506h5.111v15.374h-5.111zM180.182 310.506h5.111v15.374h-5.111zM187.565 310.506h5.111v15.374h-5.111zM194.947 310.506h5.111v15.374h-5.111zM202.331 310.506h5.111v15.374h-5.111zM209.714 310.506h5.111v15.374h-5.111zM217.096 310.506h5.111v15.374h-5.111zM224.479 310.506h5.111v15.374h-5.111zM231.862 310.506h5.111v15.374h-5.111zM239.245 310.506h5.111v15.374h-5.111z"/></g><g><path style="fill:#e0e0e0" d="M152.269 346.548h92.888v26.151h-92.888z"/><path style="fill:#f5f5f5" d="M154.861 349.836h5.202v20.014h-5.202z"/><path style="fill:#fafafa" d="M166.191 354.046a1.653 1.653 0 1 1-3.306 0 1.653 1.653 0 0 1 3.306 0z"/><circle style="fill:#fafafa" cx="164.538" cy="361.118" r="1.653"/><path style="fill:#f5f5f5" d="M172.799 352.393h5.111v15.374h-5.111zM180.182 352.393h5.111v15.374h-5.111zM187.565 352.393h5.111v15.374h-5.111zM194.947 352.393h5.111v15.374h-5.111zM202.331 352.393h5.111v15.374h-5.111zM209.714 352.393h5.111v15.374h-5.111zM217.096 352.393h5.111v15.374h-5.111zM224.479 352.393h5.111v15.374h-5.111zM231.862 352.393h5.111v15.374h-5.111zM239.245 352.393h5.111v15.374h-5.111z"/></g><g><path style="fill:#e0e0e0" d="M152.269 388.435h92.888v26.151h-92.888z"/><path style="fill:#f5f5f5" d="M154.861 391.722h5.202v20.014h-5.202z"/><path style="fill:#fafafa" d="M166.191 395.932a1.653 1.653 0 1 1-3.306 0 1.653 1.653 0 0 1 3.306 0zM166.191 403.004a1.653 1.653 0 1 1-3.306 0 1.653 1.653 0 0 1 3.306 0z"/><path style="fill:#f5f5f5" d="M172.799 394.279h5.111v15.374h-5.111zM180.182 394.279h5.111v15.374h-5.111zM187.565 394.279h5.111v15.374h-5.111zM194.947 394.279h5.111v15.374h-5.111zM202.331 394.279h5.111v15.374h-5.111zM209.714 394.279h5.111v15.374h-5.111zM217.096 394.279h5.111v15.374h-5.111zM224.479 394.279h5.111v15.374h-5.111zM231.862 394.279h5.111v15.374h-5.111zM239.245 394.279h5.111v15.374h-5.111z"/></g><g><path style="fill:#e0e0e0" d="M152.269 430.321h92.888v26.151h-92.888z"/><path style="fill:#f5f5f5" d="M154.861 433.609h5.202v20.014h-5.202z"/><path style="fill:#fafafa" d="M166.191 437.819a1.653 1.653 0 1 1-3.306 0 1.653 1.653 0 0 1 3.306 0z"/><circle style="fill:#fafafa" cx="164.538" cy="444.891" r="1.653"/><path style="fill:#f5f5f5" d="M172.799 436.166h5.111v15.374h-5.111zM180.182 436.166h5.111v15.374h-5.111zM187.565 436.166h5.111v15.374h-5.111zM194.947 436.166h5.111v15.374h-5.111zM202.331 436.166h5.111v15.374h-5.111zM209.714 436.166h5.111v15.374h-5.111zM217.096 436.166h5.111v15.374h-5.111zM224.479 436.166h5.111v15.374h-5.111zM231.862 436.166h5.111v15.374h-5.111zM239.245 436.166h5.111v15.374h-5.111z"/></g><g><path style="fill:#e0e0e0" d="M209.714 179.003c-.022.001-.061-.276-.102-.807a54.128 54.128 0 0 1-.1-2.324c-.029-1.008-.049-2.242-.118-3.668-.086-1.42-.182-3.057-.64-4.766-.491-1.702-1.268-3.527-2.481-5.219-1.2-1.696-2.911-3.21-5.079-4.081-2.159-.898-4.64-1.232-7.209-1.462l-7.999-.692c-10.964-.951-20.905-1.563-28.111-1.701-3.603-.081-6.518-.062-8.534-.055l-2.321.019c-.531-.002-.811-.015-.812-.038-.001-.023.277-.056.806-.098l2.32-.145a174.88 174.88 0 0 1 8.548-.159c7.222.016 17.19.554 28.161 1.506l8.004.706c2.583.241 5.13.591 7.387 1.546 2.271.929 4.074 2.557 5.295 4.329 1.241 1.776 2.008 3.654 2.485 5.418.447 1.79.504 3.44.557 4.875.034 1.437.016 2.672.004 3.681l-.027 2.321c-.004.532-.01.812-.034.814z"/></g><g><path style="fill:#e0e0e0" d="M181.536 179.003c-.023 0-.044-.262-.063-.763l-.032-2.186c-.009-.948-.01-2.108-.115-3.441-.127-1.319-.336-2.862-1.144-4.296-.807-1.424-2.39-2.488-4.186-3.213a11.519 11.519 0 0 0-6.101-.618 10.343 10.343 0 0 0-3.147 1.07c-.982.545-1.904 1.305-2.438 2.308a3.277 3.277 0 0 0 .009 3.243c.568 1.012 1.599 1.809 2.758 2.074 1.162.285 2.383-.121 3.224-.933a4.78 4.78 0 0 0 1.451-3.077c.112-1.147-.31-2.228-.965-3.15a6.897 6.897 0 0 0-2.443-2.16c-.936-.525-1.999-.612-3.059-.789a86.137 86.137 0 0 0-3.054-.405 78.464 78.464 0 0 0-5.514-.423c-3.381-.136-6.127-.087-8.024-.09l-2.186-.01c-.5-.01-.763-.026-.763-.049-.001-.023.261-.052.76-.087l2.183-.116c1.896-.077 4.643-.199 8.046-.124a73.307 73.307 0 0 1 8.638.717c.531.084 1.054.15 1.612.252.566.11 1.12.305 1.644.572a7.505 7.505 0 0 1 2.686 2.341c.711.972 1.225 2.257 1.097 3.571a5.427 5.427 0 0 1-1.648 3.512c-.96.944-2.454 1.445-3.833 1.103a5.001 5.001 0 0 1-3.195-2.405c-.695-1.182-.666-2.745-.005-3.878.629-1.162 1.652-1.979 2.711-2.561a10.867 10.867 0 0 1 3.352-1.118 12.012 12.012 0 0 1 6.41.71c1.864.778 3.531 1.922 4.394 3.497.84 1.562 1.009 3.16 1.105 4.505.071 1.358.032 2.522.002 3.471l-.095 2.184c-.025.499-.049.762-.072.762z"/></g><g><path style="fill:#e0e0e0" d="M217.296 179.003c-.023.003-.09-.295-.196-.864a74.709 74.709 0 0 0-.496-2.481c-.472-2.14-1.214-5.248-2.746-8.852-1.517-3.576-3.934-7.729-8.079-10.832-2.019-1.577-4.623-2.44-7.393-2.812-2.77-.401-5.705-.382-8.705-.466-12.003-.227-22.884-.184-30.755-.497a254.09 254.09 0 0 1-9.314-.488l-2.526-.217c-.577-.058-.879-.1-.877-.123.002-.023.307-.027.886-.012l2.532.092c2.199.079 5.38.195 9.312.274 7.865.192 18.736.073 30.756.3 2.997.085 5.945.068 8.786.487 2.822.384 5.576 1.307 7.672 2.97 2.078 1.625 3.819 3.465 5.116 5.416 1.313 1.938 2.278 3.897 3.029 5.727 1.494 3.673 2.169 6.819 2.564 8.985.194 1.086.313 1.934.374 2.512.061.573.083.877.06.881z"/></g><path style="fill:#e0e0e0" d="M153.547 129.49h90.333v13.113h-90.333z"/><path style="fill:#f5f5f5" d="M173.414 136.046h49.181v6.556h-49.181z"/></g><g><path style="fill:#f5f5f5" d="m434.213 110.555 59.73-9.127c5.007 32.767-17.836 63.85-50.603 68.856-32.767 5.007-63.85-17.836-68.856-50.603-5.007-32.767 17.836-63.85 50.603-68.856a60.448 60.448 0 0 1 15.761-.328l-6.635 60.058z"/><path style="fill:#e0e0e0" d="m453.593 50.689-7.252 46.301 45.449-8.535s-6.683-25.949-38.197-37.766z"/></g><g><path style="fill:#f5f5f5" d="M57.392 97.311c-.288-18.031 14.08-32.937 32.028-33.226 17.948-.29 32.785 14.145 33.074 32.176.288 18.031-14.08 32.937-32.028 33.226-17.949.289-32.785-14.145-33.074-32.176zm48.115-.777c-.138-8.621-7.232-15.523-15.814-15.384-8.582.139-15.452 7.265-15.314 15.887.138 8.621 7.232 15.523 15.814 15.385 8.582-.14 15.452-7.267 15.314-15.888z"/><path style="fill:#e0e0e0" d="M57.393 97.311c-.289-18.032 14.079-32.937 32.027-33.226l.273 17.065c-8.582.139-15.452 7.266-15.314 15.887.138 8.621 7.232 15.522 15.814 15.384l.273 17.065c-17.949.29-32.785-14.144-33.073-32.175z"/><path style="fill:#ebebeb" d="M86.498 61.46c20.998-.339 37.749 15.958 38.087 37.053l-19.873.32c-.161-10.086-7.836-16.437-17.876-16.275l-.338-21.098z"/></g><g><path style="fill:#f5f5f5" d="M587.43 409.546c-.288-18.031 14.08-32.937 32.028-33.226 17.948-.29 32.786 14.145 33.074 32.176.288 18.032-14.08 32.937-32.028 33.226-17.949.29-32.786-14.144-33.074-32.176zm48.114-.776c-.138-8.621-7.232-15.523-15.814-15.384-8.582.138-15.452 7.265-15.314 15.887.138 8.621 7.232 15.523 15.814 15.385 8.582-.14 15.452-7.267 15.314-15.888z"/><path style="fill:#e0e0e0" d="M587.43 409.547c-.288-18.031 14.079-32.937 32.028-33.226l.273 17.065c-8.582.139-15.452 7.266-15.314 15.887.138 8.621 7.232 15.523 15.814 15.384l.273 17.065c-17.949.29-32.785-14.144-33.074-32.175z"/><path style="fill:#ebebeb" d="M616.535 373.696c20.998-.339 37.749 15.958 38.087 37.053l-19.873.32c-.161-10.086-7.836-16.437-17.876-16.275l-.338-21.098z"/></g><g><path style="fill:#fff" d="M559.688 88.016h135.457v154.593H559.688z"/><path style="fill:#263238" d="M695.145 242.609s-.008-.252-.013-.735l-.013-2.148-.026-8.344-.059-31.542-.112-111.823.223.223-135.443.029h-.014l.252-.252-.039 154.592-.213-.213 98.249.11 27.47.055 7.24.024c1.64.008 2.498.024 2.498.024s-.826.016-2.452.024l-7.199.024-27.422.055-98.383.11h-.213v-.214l-.039-154.592v-.252h.266l135.443.029h.223v.223l-.112 111.967-.059 31.492-.026 8.3-.013 2.124c-.006.475-.014.71-.014.71z"/><path style="fill:#ff725e" d="M683.5 166.953c-.044.092-1.5-.751-4.355-1.655a28.01 28.01 0 0 0-12.492-.927c-2.622.42-5.464 1.214-8.239 2.648-2.794 1.4-5.456 3.477-8.101 5.826-2.656 2.344-5.293 5.006-8.335 7.466-3.042 2.421-6.532 4.712-10.638 5.758-2.038.525-4.172.661-6.211.374-2.044-.279-3.974-.947-5.755-1.777-3.568-1.681-6.619-3.891-9.641-5.733-3-1.879-6.017-3.37-9.068-4.065a26.929 26.929 0 0 0-8.625-.661 27.777 27.777 0 0 0-11.906 3.876c-2.555 1.561-3.76 2.736-3.828 2.654-.022-.023.276-.315.865-.851.579-.545 1.504-1.28 2.772-2.109a27.158 27.158 0 0 1 20.902-3.656c3.15.681 6.299 2.208 9.333 4.083 3.062 1.843 6.114 4.023 9.577 5.638 3.427 1.651 7.459 2.385 11.359 1.329 3.901-.99 7.305-3.2 10.297-5.568 2.993-2.405 5.642-5.05 8.338-7.399 2.685-2.354 5.423-4.457 8.319-5.871 2.873-1.446 5.801-2.223 8.491-2.61 5.426-.735 9.861.237 12.698 1.232a22.007 22.007 0 0 1 3.199 1.377c.701.38 1.059.593 1.044.621zM596.972 187.716h11.516v31.145h-11.516zM645.838 187.716h11.516v31.145h-11.516z"/><path style="fill:#ff725e" d="M662.128 169.426h11.516v49.436h-11.516zM582.07 209.057h11.516v10.482H582.07zM613.261 201.78h11.516v17.081h-11.516zM629.55 197.859h11.516v21.002H629.55z"/><g><path style="fill:#263238" d="M608.952 222.532c0 .255-2.786.463-6.221.463-3.437 0-6.222-.207-6.222-.463s2.785-.463 6.222-.463c3.435.001 6.221.207 6.221.463zM594.622 222.532c0 .255-2.786.463-6.222.463-3.437 0-6.222-.207-6.222-.463s2.785-.463 6.222-.463c3.436.001 6.222.207 6.222.463zM675.913 222.532c0 .255-3.149.463-7.033.463-3.885 0-7.033-.207-7.033-.463s3.148-.463 7.033-.463c3.883.001 7.033.207 7.033.463zM658.805 222.532c0 .255-3.149.463-7.033.463-3.885 0-7.033-.207-7.033-.463s3.148-.463 7.033-.463c3.884.001 7.033.207 7.033.463zM641.066 222.532c0 .256-2.786.464-6.222.464-3.436 0-6.222-.208-6.222-.464 0-.255 2.785-.463 6.222-.463 3.435 0 6.222.208 6.222.463zM624.236 222.532c0 .256-2.786.464-6.222.464-3.436 0-6.222-.208-6.222-.464 0-.255 2.786-.463 6.222-.463 3.436 0 6.222.208 6.222.463z"/></g><g><path style="fill:#e0e0e0" d="M581.798 110.553h94.114v39.085h-94.114z"/><path style="fill:#263238" d="M601.351 122.906a4.388 4.388 0 1 1-8.775 0 4.388 4.388 0 0 1 8.775 0zM605.738 119.876h30.571v1.697h-30.571z"/><path style="fill:#fff" d="M605.738 123.733h59.47v1.697h-59.47z"/><g><path style="fill:#ff725e" d="M601.351 136.395a4.387 4.387 0 1 1-8.774 0 4.387 4.387 0 0 1 8.774 0zM605.738 133.364h15.611v1.697h-15.611z"/><path style="fill:#fff" d="M605.738 137.221h59.47v1.697h-59.47z"/></g></g><g><path transform="matrix(.0086 -1 1 .0086 328.37 1009.425)" style="fill:#fff" d="M616.331 298.461h113.84v81.3h-113.84z"/><path style="fill:#263238" d="M632.114 395.68s-.008-.173-.009-.526v-1.579l.025-6.169.137-23.333.589-82.232.002-.237.237.002 81.288.675h.009l.26.002-.002.26-1.027 113.835-.002.212-.211-.002-59.229-.619-16.349-.195-4.271-.06c-.964-.015-1.447-.034-1.447-.034s.514-.011 1.491-.01l4.311.013 16.398.087 59.099.397-.213.209.929-113.836.258.263h-.009l-81.288-.722.238-.234-.822 82.075-.264 23.385-.082 6.216-.028 1.605c-.007.361-.018.552-.018.552z"/><path style="fill:#263238" d="M643.464 309.578c.002-.262 13.465-.359 30.066-.216 16.607.143 30.063.47 30.061.732-.002.262-13.462.358-30.069.216-16.601-.142-30.06-.47-30.058-.732zM643.395 317.616c.002-.262 13.465-.359 30.066-.216 16.607.143 30.063.471 30.061.733-.002.262-13.462.359-30.069.216-16.601-.143-30.06-.471-30.058-.733zM643.326 325.655c.002-.262 13.465-.359 30.066-.216 16.607.142 30.063.47 30.061.732-.002.262-13.462.359-30.069.216-16.601-.143-30.06-.471-30.058-.732zM643.257 333.693c.002-.262 13.465-.359 30.066-.216 16.607.143 30.063.47 30.061.732-.002.262-13.462.359-30.069.216-16.601-.142-30.06-.47-30.058-.732z"/><g><path style="fill:#263238" d="M643.188 341.731c.002-.262 13.465-.359 30.066-.216 16.607.143 30.063.47 30.061.733-.002.262-13.462.358-30.069.216-16.601-.143-30.06-.471-30.058-.733z"/></g><g><path style="fill:#455a64" d="M655.039 351.063h9.675v30.219h-9.675zM669.486 357.966h9.675v23.316h-9.675zM682.86 367.435h9.675v13.846h-9.675z"/></g></g><g><path style="fill:#263238" d="M560.7 262.39c0-.009.118-.018.349-.027l1.025-.026 3.941-.049 14.495-.083 47.822-.076 42.735.059h.253l-.001.201-.11 14.57-.068 3.989-.036 1.04c-.012.235-.025.355-.037.355-.013 0-.025-.12-.037-.355l-.036-1.04-.068-3.989-.11-14.57.251.201-42.735.059-47.822-.076-14.495-.083-3.941-.049-1.025-.026c-.232-.007-.35-.016-.35-.025z"/></g><g><path style="fill:#263238" d="M559.436 114.044c0 .016-.215.033-.628.048l-1.808.045-6.706.078-22.628.087.258-.26.048 5.271c.084 10.231.099 19.493.048 26.197-.029 3.352-.073 6.065-.137 7.94a52.67 52.67 0 0 1-.111 2.158c-.052.494-.089.75-.106.748 0 0 .038-4.142-.014-10.846l-.2-26.193-.043-5.271-.002-.261.26.001 22.628.087 6.706.078 1.808.045c.412.015.627.031.627.048z"/></g><path style="fill:#263238" d="M562.003 114.044a2.567 2.567 0 1 1-5.135 0 2.567 2.567 0 0 1 5.135 0zM673.684 282.344a2.567 2.567 0 1 1-5.133 0 2.567 2.567 0 0 1 5.133 0z"/></g><g><path style="fill:#455a64" d="M556.201 153.888H208.953c-5.987 0-10.839 4.853-10.839 10.839v245.269c0 5.987 4.852 10.84 10.839 10.84h133.273s8.478 26.215-17.803 39.779H449.04s-29.672-10.172-22.042-39.779h129.204c5.986 0 10.839-4.853 10.839-10.839v-245.27c0-5.987-4.853-10.839-10.84-10.839z"/><path style="fill:#263238" d="M387.214 395.041c4.724 6.751-2.669 14.144-9.422 9.422a2.393 2.393 0 0 1-.58-.582c-4.711-6.75 2.673-14.133 9.421-9.42.223.155.425.357.581.58z"/><path style="fill:#fff" d="M561.062 375.966H204.093V168.079c0-5.356 4.342-9.697 9.697-9.697h337.575c5.356 0 9.697 4.342 9.697 9.697v207.887z"/><path style="fill:#ebebeb" d="M561.062 176.461H204.093v-8.926a9.154 9.154 0 0 1 9.154-9.154h340.3a7.516 7.516 0 0 1 7.516 7.516v10.564z"/><path style="fill:#e0e0e0" d="M217.968 167.8a2.508 2.508 0 1 1-5.016 0 2.508 2.508 0 0 1 5.016 0zM225.444 167.8a2.508 2.508 0 1 1-5.016 0 2.508 2.508 0 0 1 5.016 0zM232.552 167.8a2.508 2.508 0 1 1-5.016 0 2.508 2.508 0 0 1 5.016 0z"/><g><path style="fill:#263238" d="M494.119 420.87c0 .115-49.414.208-110.355.208-60.962 0-110.365-.093-110.365-.208 0-.115 49.403-.208 110.365-.208 60.941 0 110.355.093 110.355.208z"/></g><g><path style="fill:#f5f5f5" d="m319.098 299.709-99.546.287.196 68.347 82.525-.237 11.191-.033 5.831-.016z"/><path style="fill:#263238" d="M227.212 361.013c-.12 0-.251-11.594-.292-25.893-.041-14.304.023-25.896.143-25.897.12 0 .251 11.591.292 25.895.041 14.3-.023 25.895-.143 25.895z"/><path style="fill:#ebebeb" d="M313.58 353.632c0 .12-19.414.273-43.358.342-23.952.069-43.363.027-43.363-.093s19.41-.273 43.362-.342c23.943-.069 43.358-.027 43.359.093zM313.558 346.034c0 .12-19.414.273-43.358.342-23.952.069-43.363.027-43.363-.093s19.41-.273 43.362-.342c23.943-.069 43.358-.027 43.359.093zM313.536 338.435c0 .12-19.414.274-43.358.343-23.952.069-43.363.027-43.363-.093s19.41-.273 43.362-.342c23.944-.069 43.358-.028 43.359.092zM313.514 330.837c0 .12-19.414.274-43.358.342-23.952.069-43.363.027-43.363-.093s19.41-.273 43.362-.342c23.944-.068 43.359-.027 43.359.093zM313.492 323.239c0 .12-19.414.273-43.358.343-23.952.069-43.363.027-43.363-.093s19.41-.273 43.362-.342c23.944-.069 43.359-.028 43.359.092zM313.47 315.641c0 .12-19.414.273-43.358.342-23.952.069-43.363.028-43.363-.093 0-.12 19.41-.273 43.362-.342 23.944-.068 43.359-.027 43.359.093zM313.448 308.043c0 .12-19.414.273-43.358.342-23.952.069-43.363.027-43.363-.093s19.41-.273 43.362-.342c23.944-.068 43.359-.027 43.359.093z"/><path transform="translate(-1.021 .68)" style="fill:#ff725e" d="M232.729 349.147h6.218v11.841h-6.218z"/><path transform="translate(-1.015 .806)" style="fill:#ff725e" d="M277.892 349.017h6.218v11.841h-6.218z"/><path transform="translate(-1.014 .72)" style="fill:#ff725e" d="M244.913 340.404h6.218v20.549h-6.218z"/><path transform="translate(-1 .781)" style="fill:#ff725e" d="M267.691 334.993h6.218v25.895h-6.218z"/><path transform="translate(-.984 .753)" style="fill:#ff725e" d="M256.42 319.292h6.218v41.627h-6.218z"/><path transform="translate(-.989 .845)" style="fill:#ff725e" d="M289.911 326.895h6.218v33.928h-6.218z"/><path style="fill:#263238" d="M303.589 360.793c0 .12-17.064.267-38.111.327-21.053.061-38.115.012-38.115-.108s17.061-.267 38.114-.327c21.046-.06 38.112-.012 38.112.108z"/></g><g><path style="fill:#f5f5f5" d="M218.645 192.662v100.373H435.767V192.662z"/><path style="fill:#263238" d="M233.92 261.994v3.169h-.327v-2.879h-.747v-.29h1.074zM234.68 263.579c0-1.009.53-1.612 1.263-1.612.733 0 1.268.603 1.268 1.612 0 1.01-.535 1.611-1.268 1.611s-1.263-.602-1.263-1.611zm2.195 0c0-.847-.38-1.313-.933-1.313-.552 0-.933.466-.933 1.313 0 .846.381 1.312.933 1.312.553 0 .933-.466.933-1.312zM235.206 245.17v.29h-2.223v-.231l1.317-1.291c.358-.353.426-.566.426-.783 0-.367-.258-.593-.742-.593-.372 0-.657.113-.864.353l-.231-.199c.243-.29.638-.453 1.122-.453.643 0 1.051.326 1.051.856 0 .303-.095.575-.521.991l-1.077 1.059h1.742zM235.6 243.875c0-1.01.53-1.612 1.263-1.612.733 0 1.268.603 1.268 1.612 0 1.009-.535 1.611-1.268 1.611-.733.001-1.263-.601-1.263-1.611zm2.195 0c0-.847-.38-1.313-.933-1.313-.552 0-.933.466-.933 1.313 0 .846.381 1.313.933 1.313.553 0 .933-.467.933-1.313z"/><g><path style="fill:#263238" d="M235.138 224.845c0 .53-.386.937-1.15.937-.457 0-.897-.158-1.142-.408l.159-.258c.203.213.57.366.982.366.525 0 .815-.244.815-.638 0-.38-.268-.629-.857-.629h-.226v-.24l.878-1.1h-1.621v-.29h2.037v.231l-.897 1.127c.682.037 1.022.395 1.022.902zM235.6 224.171c0-1.009.53-1.612 1.263-1.612.733 0 1.268.603 1.268 1.612 0 1.01-.535 1.612-1.268 1.612-.733-.001-1.263-.603-1.263-1.612zm2.195 0c0-.847-.38-1.313-.933-1.313-.552 0-.933.466-.933 1.313 0 .846.381 1.313.933 1.313.553-.001.933-.467.933-1.313z"/></g><g><path style="fill:#263238" d="M247.91 273.976c0-1.009.53-1.612 1.263-1.612.733 0 1.268.603 1.268 1.612s-.535 1.611-1.268 1.611c-.734 0-1.263-.601-1.263-1.611zm2.195 0c0-.847-.38-1.313-.933-1.313-.552 0-.933.466-.933 1.313 0 .846.381 1.312.933 1.312.553.001.933-.466.933-1.312zM271.366 272.391v3.169h-.327v-2.879h-.747v-.29h1.074zM296.09 275.271v.29h-2.223v-.231l1.317-1.291c.358-.353.426-.566.426-.783 0-.367-.258-.593-.742-.593-.371 0-.657.113-.865.353l-.231-.199c.243-.29.638-.453 1.122-.453.643 0 1.051.326 1.051.856 0 .303-.095.575-.521.992l-1.077 1.059h1.743zM319.459 274.65c0 .53-.385.937-1.15.937-.458 0-.897-.158-1.142-.407l.159-.258c.203.213.57.367.982.367.525 0 .815-.244.815-.638 0-.38-.268-.629-.856-.629h-.226v-.24l.878-1.1H317.3v-.29h2.037v.231l-.897 1.127c.68.035 1.019.393 1.019.9zM343.494 274.728h-.634v.833h-.326v-.833h-1.788v-.235l1.68-2.101h.362l-1.621 2.047h1.376v-.734h.316v.734h.634v.289zM366.389 274.628c0 .539-.376.96-1.15.96-.457 0-.892-.158-1.137-.407l.159-.258c.203.213.566.367.973.367.538 0 .824-.263.824-.647 0-.407-.254-.661-1.06-.661h-.675l.164-1.59h1.734v.29h-1.449l-.109 1.01h.407c.957-.001 1.319.375 1.319.936zM390.058 274.614c0 .593-.466.973-1.082.973-.843 0-1.3-.584-1.3-1.584 0-1.078.589-1.639 1.449-1.639.285 0 .552.05.752.172l-.132.263c-.163-.109-.38-.149-.615-.149-.683 0-1.123.439-1.123 1.3 0 .072.005.163.014.258.158-.349.53-.544.968-.544.629-.001 1.069.371 1.069.95zm-.322.009c0-.416-.307-.684-.796-.684-.484 0-.815.299-.815.693 0 .349.29.679.838.679.457.001.773-.267.773-.688zM413.351 272.391v.231l-1.326 2.939h-.353l1.304-2.879h-1.63v.593h-.322v-.883h2.327z"/></g><g><path style="fill:#263238" d="M413.52 263.732c0 .17-36.68.308-81.917.308-45.253 0-81.925-.138-81.925-.308 0-.17 36.672-.308 81.925-.308 45.237 0 81.917.138 81.917.308zM413.52 243.926c0 .17-36.68.308-81.917.308-45.253 0-81.925-.138-81.925-.308 0-.17 36.672-.308 81.925-.308 45.237 0 81.917.138 81.917.308zM413.52 224.12c0 .17-36.68.308-81.917.308-45.253 0-81.925-.138-81.925-.308 0-.17 36.672-.308 81.925-.308 45.237.001 81.917.138 81.917.308z"/><path style="fill:#ff725e" d="M249.678 263.442a1.052 1.052 0 1 1-2.104 0 1.052 1.052 0 0 1 2.104 0zM273.234 263.442a1.052 1.052 0 1 1-2.104 0 1.052 1.052 0 0 1 2.104 0zM296.791 263.442a1.052 1.052 0 1 1-2.104 0 1.052 1.052 0 0 1 2.104 0zM320.347 263.442a1.052 1.052 0 1 1-2.104 0 1.052 1.052 0 0 1 2.104 0zM343.904 263.442a1.052 1.052 0 1 1-2.104 0 1.052 1.052 0 0 1 2.104 0zM391.016 263.442a1.052 1.052 0 1 1-2.104 0 1.052 1.052 0 0 1 2.104 0zM367.46 263.442a1.052 1.052 0 1 1-2.104 0 1.052 1.052 0 0 1 2.104 0zM414.572 263.442a1.052 1.052 0 1 1-2.104 0 1.052 1.052 0 0 1 2.104 0z"/><g><path style="fill:#e0e0e0" d="M260.413 263.732a.691.691 0 1 1-1.382 0 .691.691 0 0 1 1.382 0zM284.058 263.732a.69.69 0 1 1-1.381 0 .69.69 0 0 1 1.381 0zM307.703 263.732a.69.69 0 1 1-1.381 0 .69.69 0 0 1 1.381 0zM331.348 263.732a.69.69 0 1 1-1.381 0 .69.69 0 0 1 1.381 0zM354.993 263.732a.69.69 0 1 1-1.381 0 .69.69 0 0 1 1.381 0zM378.638 263.732a.69.69 0 1 1-1.381 0 .69.69 0 0 1 1.381 0zM402.283 263.732a.69.69 0 1 1-1.381 0 .69.69 0 0 1 1.381 0z"/></g></g><g><path style="fill:#ff725e" d="M274.763 254.977a2.58 2.58 0 1 1-5.162 0 2.58 2.58 0 0 1 5.162 0zM295.315 242.849a2.58 2.58 0 1 1-5.16 0 2.58 2.58 0 0 1 5.16 0zM320.823 243.926a2.58 2.58 0 1 1-5.162 0 2.58 2.58 0 0 1 5.162 0zM345.727 221.88a2.58 2.58 0 1 1-5.162 0 2.58 2.58 0 0 1 5.162 0zM368.988 235.901a2.58 2.58 0 1 1-5.162 0 2.58 2.58 0 0 1 5.162 0zM392.544 239.634a2.58 2.58 0 1 1-5.16 0 2.58 2.58 0 0 1 5.16 0z"/><path style="fill:#ff725e" d="M414.573 254.977s-.206.024-.605-.001a12.622 12.622 0 0 1-1.761-.235c-1.508-.311-3.834-.962-6.126-2.911-1.14-.964-2.183-2.302-3.01-3.915-.832-1.586-1.834-3.267-3.153-4.881-1.329-1.566-3.044-3.169-5.325-3.715-1.125-.272-2.347-.224-3.522.126-1.177.366-2.278 1.013-3.269 1.851-2.007 1.677-3.484 4.06-5.433 6.223-.975 1.074-2.109 2.121-3.537 2.751-1.422.615-3.073.805-4.651.382-1.612-.432-2.839-1.782-3.539-3.251-.731-1.482-1.136-3.093-1.527-4.703-.397-1.605-.719-3.269-1.404-4.773-.342-.742-.819-1.438-1.507-1.807-.704-.383-1.543-.468-2.381-.462-1.699.088-3.407.578-5.179.914-.889.158-1.795.316-2.732.311-.927.003-1.903-.108-2.778-.541-.912-.366-1.608-1.097-2.206-1.846a13.777 13.777 0 0 1-1.349-2.507c-.747-1.744-1.244-3.571-1.921-5.328-.352-.867-.723-1.736-1.246-2.495-.525-.751-1.207-1.382-2.044-1.702-.215-.062-.425-.141-.644-.194l-.68-.063a2.46 2.46 0 0 0-1.26.258c-.788.401-1.386 1.17-1.886 1.969-.976 1.647-1.623 3.522-2.188 5.416-.563 1.9-1.035 3.845-1.49 5.807-.753 3.248-1.425 6.488-2.261 9.659-.421 1.584-.874 3.154-1.45 4.681-.59 1.512-1.262 3.037-2.447 4.251-.602.582-1.426 1.037-2.325 1.031-.86.001-1.678-.306-2.381-.722-1.415-.853-2.457-2.106-3.346-3.386-1.785-2.581-2.931-5.455-4.041-8.203-1.129-2.721-2.403-5.414-4.512-7.259-2.065-1.833-5.033-2.515-7.573-1.848-1.283.322-2.493.895-3.604 1.586-1.125.671-2.164 1.455-3.146 2.275a41.95 41.95 0 0 0-5.252 5.283l-.01.013-.004.004a56.61 56.61 0 0 1-7.781 6.465c-2.638 1.817-5.303 3.309-7.969 4.318-2.659.984-5.335 1.566-7.801 1.3-2.449-.239-4.604-.907-6.498-1.572-3.786-1.374-6.565-2.855-8.439-3.859a54.843 54.843 0 0 1-2.105-1.207c-.468-.284-.695-.452-.695-.452s.253.126.732.389l2.136 1.143c1.892.962 4.686 2.399 8.463 3.725 1.888.642 4.034 1.283 6.434 1.497 2.395.243 5.021-.344 7.634-1.331 2.621-1.011 5.251-2.501 7.856-4.316a56.497 56.497 0 0 0 7.681-6.439l-.014.016a42.35 42.35 0 0 1 5.302-5.374c.994-.837 2.05-1.639 3.203-2.332 1.138-.712 2.388-1.313 3.747-1.659 2.727-.719 5.852 0 8.074 1.948 2.237 1.955 3.535 4.727 4.68 7.462 1.12 2.762 2.252 5.575 3.994 8.087.861 1.242 1.875 2.437 3.16 3.206.638.377 1.352.64 2.084.637.708-.001 1.36-.351 1.897-.863 1.053-1.075 1.728-2.553 2.297-4.03.563-1.494 1.011-3.048 1.428-4.62.829-3.149 1.5-6.386 2.254-9.641.457-1.968.931-3.923 1.501-5.844.574-1.916 1.224-3.82 2.255-5.56.535-.846 1.172-1.7 2.135-2.196a3.088 3.088 0 0 1 1.558-.321l.769.074c.251.059.498.149.746.224.978.374 1.759 1.11 2.326 1.927.568.826.948 1.729 1.31 2.621.688 1.795 1.182 3.62 1.907 5.313.714 1.67 1.636 3.363 3.252 4.052 1.576.762 3.44.493 5.156.195 1.742-.324 3.463-.821 5.267-.913.9-.004 1.84.085 2.671.538.845.46 1.377 1.275 1.739 2.063.724 1.609 1.034 3.28 1.428 4.883.384 1.604.781 3.185 1.472 4.594.671 1.404 1.767 2.601 3.212 2.996 1.428.39 2.993.224 4.308-.344 1.333-.58 2.426-1.571 3.385-2.62 1.922-2.109 3.42-4.508 5.504-6.236 1.029-.862 2.195-1.539 3.43-1.914 1.239-.363 2.544-.406 3.733-.11 2.413.599 4.158 2.274 5.499 3.877 1.329 1.654 2.325 3.36 3.148 4.966.802 1.601 1.799 2.907 2.907 3.869 2.222 1.939 4.506 2.624 5.995 2.97.756.176 1.345.247 1.74.294.393.042.598.048.598.061z"/></g><g><path style="fill:#263238" d="M275.011 210.548c0 .17-9.145.308-20.423.308-11.282 0-20.425-.138-20.425-.308 0-.17 9.143-.308 20.425-.308 11.278 0 20.423.138 20.423.308z"/></g></g><g><path style="fill:#f5f5f5" d="M444.432 193.306v98.138h104.426v-98.138z"/><path style="fill:#263238" d="M496.181 204.428c-17.795 0-32.22 14.426-32.22 32.221 0 17.795 14.426 32.22 32.22 32.22 17.795 0 32.22-14.425 32.22-32.22.001-17.795-14.425-32.221-32.22-32.221zm.486 51.527c-10.931 0-19.793-8.861-19.793-19.793 0-10.931 8.862-19.793 19.793-19.793s19.793 8.861 19.793 19.793c0 10.932-8.861 19.793-19.793 19.793z"/><path style="fill:#ff725e" d="M496.675 204.441c.001 3.428-.001 8.051-.003 11.929 10.929.003 19.788 8.863 19.788 19.793 0 2.093-.327 4.108-.929 6.001l11.677 3.167a32.213 32.213 0 0 0 1.193-8.682c.001-17.63-14.159-31.943-31.726-32.208z"/><path style="fill:#455a64" d="M476.875 236.163c0-8.06 4.82-14.989 11.733-18.077l-4.956-11.13c-11.57 4.889-19.69 16.342-19.69 29.693 0 .453.016.903.034 1.352h12.967a19.95 19.95 0 0 1-.088-1.838z"/><path style="fill:#ff725e" d="M496.667 255.955c-1.437 0-2.837-.157-4.187-.448-.497 2.872-1.438 8.436-2.177 12.817 1.907.352 3.87.545 5.878.545 14.785 0 27.236-9.962 31.027-23.538l-11.677-3.167c-2.542 7.997-10.025 13.791-18.864 13.791z"/><path d="M496.667 255.955c-1.437 0-2.837-.157-4.187-.448-.497 2.872-1.438 8.436-2.177 12.817 1.907.352 3.87.545 5.878.545 14.785 0 27.236-9.962 31.027-23.538l-11.677-3.167c-2.542 7.997-10.025 13.791-18.864 13.791z" style="opacity:.3"/><g><path style="fill:#263238" d="M492.392 237.765h-1.193v1.538h-1.652v-1.538h-3.944v-1.14l3.452-4.645h1.779l-3.201 4.404h1.967v-1.37h1.6v1.37h1.193v1.381zM492.892 235.641c0-2.416 1.339-3.786 3.138-3.786 1.81 0 3.138 1.37 3.138 3.786 0 2.417-1.328 3.787-3.138 3.787-1.799 0-3.138-1.37-3.138-3.787zm4.571 0c0-1.663-.586-2.354-1.433-2.354-.837 0-1.423.691-1.423 2.354 0 1.663.586 2.354 1.423 2.354.848 0 1.433-.69 1.433-2.354zM499.868 233.915c0-1.234.753-2.019 1.82-2.019 1.067 0 1.81.774 1.81 2.019s-.742 2.019-1.81 2.019c-1.067.001-1.82-.784-1.82-2.019zm2.584 0c0-.785-.304-1.161-.764-1.161-.45 0-.763.387-.763 1.161s.313 1.161.763 1.161c.46.001.764-.376.764-1.161zm3.598-1.935h1.244l-5 7.322h-1.245l5.001-7.322zm-1.203 5.387c0-1.234.753-2.019 1.81-2.019 1.067 0 1.82.784 1.82 2.019 0 1.234-.753 2.019-1.82 2.019-1.057 0-1.81-.784-1.81-2.019zm2.573 0c0-.774-.303-1.161-.764-1.161-.45 0-.764.377-.764 1.161s.314 1.161.764 1.161c.461.001.764-.387.764-1.161z"/></g><g><path style="fill:#263238" d="M522.843 276.999c0 .169-11.938.306-26.66.306-14.728 0-26.663-.137-26.663-.306 0-.169 11.935-.306 26.663-.306 14.722 0 26.66.137 26.66.306zM510.969 281.895c0 .169-6.621.306-14.787.306-8.168 0-14.788-.137-14.788-.306 0-.169 6.62-.306 14.788-.306 8.166 0 14.787.137 14.787.306z"/></g></g><g><path style="fill:#fafafa" d="M327.206 297.972h209.593v68.858H327.206z"/><path style="fill:#ebebeb" d="M519.121 314.26c0 .123-35.619.222-79.547.222-43.943 0-79.555-.099-79.555-.222s35.611-.222 79.555-.222c43.928 0 79.547.099 79.547.222zM519.121 322.408c0 .123-35.619.222-79.547.222-43.943 0-79.555-.099-79.555-.222s35.611-.222 79.555-.222c43.928-.001 79.547.099 79.547.222zM519.121 330.555c0 .123-35.619.222-79.547.222-43.943 0-79.555-.099-79.555-.222 0-.122 35.611-.222 79.555-.222 43.928 0 79.547.1 79.547.222zM519.121 338.703c0 .123-35.619.222-79.547.222-43.943 0-79.555-.099-79.555-.222s35.611-.222 79.555-.222c43.928 0 79.547.099 79.547.222zM519.121 346.851c0 .123-35.619.222-79.547.222-43.943 0-79.555-.099-79.555-.222s35.611-.222 79.555-.222c43.928 0 79.547.099 79.547.222z"/><path style="fill:#455a64" d="M505.266 337.361s-.11.126-.346.359c-.267.202-.675.519-1.337.736-1.28.437-3.616.461-5.807-.925-1.06-.714-1.977-1.753-2.733-2.988-.763-1.235-1.366-2.661-2.082-4.153-.726-1.476-1.622-3.06-3.114-4.335a7.182 7.182 0 0 0-2.702-1.43 8.23 8.23 0 0 0-3.327-.16c-2.287.332-4.485 1.426-6.348 2.917-1.895 1.483-3.561 3.31-5.6 4.965-2.008 1.652-4.632 3.073-7.685 3.275-1.512.083-3.1-.247-4.399-1.017-1.301-.77-2.282-1.882-3.064-3.062-1.582-2.367-2.383-5.12-4.439-7.281-.996-1.067-2.29-2.004-3.852-2.311-1.556-.329-3.241.061-4.524.942-1.302.869-2.285 2.099-2.974 3.431-.69 1.335-1.039 2.813-1.408 4.29-.364 1.48-.72 2.998-1.395 4.453-.328.73-.772 1.422-1.285 2.082-.555.629-1.156 1.24-1.879 1.734-1.407 1.031-3.095 1.729-4.853 2.101a13.284 13.284 0 0 1-5.354.068c-1.771-.311-3.343-1.126-4.728-2.023-1.397-.902-2.663-1.903-3.988-2.8-1.327-.878-2.726-1.707-4.298-2.029-1.557-.366-3.224-.144-4.603.518-1.386.666-2.516 1.673-3.434 2.77-.919 1.102-1.615 2.328-2.321 3.529-.703 1.203-1.408 2.405-2.298 3.496-.879 1.097-2 2.045-3.301 2.715-1.291.669-2.819 1.053-4.308.874-1.492-.167-2.799-.898-3.74-1.81-.953-.917-1.614-2-2.064-3.109-.445-1.112-.702-2.238-.941-3.334-.46-2.186-.909-4.312-2.213-6.004-1.215-1.692-3.052-3.029-5.114-3.297a6.482 6.482 0 0 0-2.945.318c-.906.316-1.689.808-2.365 1.351-2.686 2.23-3.978 4.923-5.97 6.483-1.886 1.619-3.923 2.367-5.34 2.327a5.06 5.06 0 0 1-1.557-.239 9.008 9.008 0 0 1-.491-.193c.013-.057.662.35 2.046.343 1.383.01 3.36-.744 5.201-2.361 1.941-1.548 3.189-4.237 5.915-6.541.689-.561 1.495-1.077 2.444-1.415a6.849 6.849 0 0 1 3.109-.351c2.194.276 4.11 1.672 5.371 3.408a9.964 9.964 0 0 1 1.485 2.895c.34 1.039.567 2.12.81 3.212.244 1.091.504 2.202.94 3.28.439 1.07 1.083 2.112 1.991 2.979.899.863 2.112 1.532 3.484 1.681 1.368.162 2.793-.193 4.02-.833a9.866 9.866 0 0 0 3.154-2.61c.861-1.061 1.555-2.245 2.254-3.45.704-1.202 1.403-2.443 2.352-3.588.945-1.134 2.115-2.187 3.59-2.899 1.467-.71 3.288-.955 4.956-.563 1.69.348 3.137 1.213 4.488 2.103 1.346.91 2.612 1.909 3.982 2.791 1.366.881 2.854 1.65 4.538 1.945 1.665.324 3.436.305 5.12-.067 1.686-.357 3.305-1.028 4.647-2.012.691-.472 1.261-1.053 1.789-1.65.485-.625.911-1.285 1.228-1.99.653-1.404 1.006-2.897 1.371-4.379.372-1.48.721-2.979 1.444-4.378.719-1.384 1.739-2.668 3.131-3.597 1.368-.943 3.239-1.381 4.94-1.015 1.716.341 3.088 1.354 4.122 2.463 2.13 2.258 2.931 5.047 4.468 7.344.76 1.153 1.699 2.211 2.914 2.934 1.216.721 2.683 1.032 4.114.958 2.893-.184 5.45-1.539 7.422-3.155 2.013-1.622 3.691-3.448 5.624-4.949 1.908-1.514 4.173-2.637 6.554-2.973a8.626 8.626 0 0 1 3.49.185 7.48 7.48 0 0 1 2.825 1.512c1.539 1.332 2.43 2.949 3.151 4.442.708 1.506 1.294 2.926 2.034 4.15.731 1.222 1.622 2.248 2.639 2.949 2.109 1.367 4.392 1.379 5.65.978 1.3-.431 1.686-1.054 1.719-1.01z"/><path style="fill:#ff725e" d="M515.331 335.46s-.184.019-.552.033c-.182-.006-.407-.047-.677-.08-.254-.081-.571-.131-.888-.278-1.323-.493-2.97-1.691-4.736-3.46a37.9 37.9 0 0 1-1.355-1.435c-.472-.507-.894-1.087-1.47-1.572-1.153-.971-2.806-1.7-4.683-1.849a7.538 7.538 0 0 0-2.857.312c-.938.302-1.788.84-2.547 1.49-1.532 1.307-2.683 3.049-4.189 4.697-.756.821-1.613 1.63-2.683 2.259-1.062.633-2.335 1.049-3.668 1.19-2.689.273-5.456-.368-8.076-1.31-2.64-.951-5.163-2.261-8.003-3.099-1.409-.43-2.896-.724-4.417-.768-1.518-.022-3.059.239-4.459.845-2.843 1.18-5.064 3.332-7.74 5.089a16.682 16.682 0 0 1-4.481 2.129c-1.634.495-3.378.734-5.134.771-3.517.054-7.103-.798-10.192-2.449-3.094-1.644-5.723-3.978-7.733-6.677-2.075-2.691-3.21-5.748-4.707-8.537-.758-1.391-1.616-2.74-2.737-3.883-1.127-1.136-2.493-2.093-4.032-2.7-1.53-.615-3.269-.817-4.86-.444-1.598.355-2.976 1.232-4.036 2.299-1.07 1.07-1.857 2.329-2.416 3.633-.557 1.311-.919 2.67-1.248 4.017-.332 1.348-.63 2.694-1.056 4a16.258 16.258 0 0 1-1.731 3.727c-1.459 2.328-3.499 4.281-5.839 5.715a18.695 18.695 0 0 1-7.618 2.672 18.322 18.322 0 0 1-7.533-.756c-4.612-1.437-7.865-4.546-9.082-7.724-.628-1.584-.944-3.111-1.397-4.471-.45-1.353-.99-2.585-1.812-3.492-1.668-1.824-3.878-2.453-5.253-2.335-1.421.116-1.969.688-1.993.628.002.039.527-.566 1.984-.717 1.411-.149 3.682.464 5.419 2.318.863.933 1.42 2.176 1.89 3.54.47 1.368.802 2.892 1.433 4.447 1.217 3.103 4.414 6.123 8.936 7.512a17.904 17.904 0 0 0 7.355.711c2.569-.32 5.157-1.203 7.425-2.633 2.282-1.407 4.272-3.324 5.69-5.602 1.474-2.267 2.091-4.919 2.721-7.625.328-1.353.689-2.73 1.259-4.077.574-1.345 1.382-2.646 2.497-3.766 1.104-1.115 2.564-2.055 4.282-2.438 1.712-.403 3.582-.182 5.191.464 1.622.639 3.041 1.634 4.211 2.812 1.169 1.192 2.042 2.569 2.813 3.98 1.52 2.833 2.64 5.845 4.675 8.483 1.974 2.651 4.551 4.936 7.569 6.542 3.012 1.611 6.497 2.439 9.918 2.391 1.707-.035 3.399-.265 4.981-.743a16.147 16.147 0 0 0 4.348-2.061c2.632-1.717 4.871-3.891 7.831-5.12 1.459-.629 3.091-.904 4.673-.876 1.586.049 3.118.358 4.553.799 2.887.861 5.428 2.189 8.019 3.128 2.581.939 5.286 1.565 7.864 1.31 1.279-.132 2.488-.522 3.505-1.123 1.024-.597 1.863-1.378 2.611-2.183 1.494-1.616 2.66-3.364 4.244-4.703.785-.665 1.678-1.225 2.669-1.537a7.879 7.879 0 0 1 2.99-.31c1.948.168 3.644.932 4.828 1.946.598.514 1.013 1.101 1.474 1.605.453.514.897.995 1.331 1.44 1.733 1.776 3.342 2.981 4.628 3.491 1.28.567 2.088.349 2.073.408z"/><path style="fill:#e0e0e0" d="M349.097 314.665c0 .123-.942.222-2.104.222-1.162 0-2.104-.099-2.104-.222s.942-.222 2.104-.222c1.162 0 2.104.099 2.104.222zM349.097 322.408c0 .123-.942.222-2.104.222-1.162 0-2.104-.099-2.104-.222s.942-.222 2.104-.222c1.162-.001 2.104.099 2.104.222zM349.097 330.15c0 .123-.942.222-2.104.222-1.162 0-2.104-.099-2.104-.222s.942-.222 2.104-.222c1.162 0 2.104.1 2.104.222zM349.097 337.893c0 .123-.942.222-2.104.222-1.162 0-2.104-.099-2.104-.222s.942-.222 2.104-.222c1.162 0 2.104.1 2.104.222zM349.097 345.636c0 .123-.942.222-2.104.222-1.162 0-2.104-.099-2.104-.222s.942-.222 2.104-.222c1.162 0 2.104.099 2.104.222zM368.435 355.588c0 .123-1.884.222-4.208.222-2.324 0-4.208-.099-4.208-.222s1.884-.222 4.208-.222c2.324 0 4.208.1 4.208.222zM405.532 355.588c0 .123-1.884.222-4.207.222-2.324 0-4.208-.099-4.208-.222s1.884-.222 4.208-.222c2.323 0 4.207.1 4.207.222zM442.628 355.588c0 .123-1.884.222-4.207.222-2.324 0-4.208-.099-4.208-.222s1.884-.222 4.208-.222c2.323 0 4.207.1 4.207.222zM479.725 355.588c0 .123-1.884.222-4.208.222-2.324 0-4.208-.099-4.208-.222s1.884-.222 4.208-.222c2.324 0 4.208.1 4.208.222zM516.823 355.588c0 .123-1.884.222-4.208.222-2.324 0-4.208-.099-4.208-.222s1.884-.222 4.208-.222c2.323 0 4.208.1 4.208.222z"/></g></g><g><path style="fill:#ff725e" d="M565.507 253.814s26.453 1.18 29.341 24.313c2.888 23.134-19.492 22.295-25.947 22.365-2.927.031-8.771.015-14.286-.013-11.698-.058-21.031-4.445-23.32-15.916a21.511 21.511 0 0 1-.429-4.087c-.072-12.435 9.265-28.711 34.641-26.662z"/><path style="fill:#263238" d="m540.9 280.839 33.882 2.403a6.446 6.446 0 0 0 .912-12.86l-33.882-2.403a6.446 6.446 0 1 0-.912 12.86z"/><path style="fill:#fff" d="M567.324 277.216a2.068 2.068 0 1 0 4.097-.57 2.068 2.068 0 0 0-4.097.57zM543.654 275.53a2.069 2.069 0 1 0 4.098-.57 2.069 2.069 0 0 0-4.098.57zM557.154 267.398c.06.015.327-.944.778-2.48.443-1.535 1.192-3.616 2.471-5.685 1.246-2.08 2.919-3.577 4.322-4.303 1.398-.747 2.403-.891 2.382-.969-.004-.025-.254-.007-.699.08a8.105 8.105 0 0 0-1.815.631c-1.484.679-3.263 2.211-4.54 4.347-1.304 2.108-2.028 4.261-2.401 5.823a34.854 34.854 0 0 0-.41 1.86c-.083.442-.115.69-.088.696zM560.919 300.504c.045-.057-.794-.666-1.891-1.897-1.088-1.225-2.396-3.147-3.081-5.562-.622-2.43-.869-4.722-.833-6.37.019-1.657.047-2.689-.015-2.692-.028-.002-.07.254-.121.717-.05.463-.112 1.134-.154 1.968-.11 1.675.09 4.002.728 6.49.707 2.493 2.098 4.449 3.262 5.646a12.492 12.492 0 0 0 1.486 1.316c.38.273.602.405.619.384z"/><path d="M537.294 295.249c2.752-1.906 4.852-1.836 8.355-2.499s7.083-.829 10.634-.909c8.212-.183 16.689.144 23.76 3.022 1.994.811 3.692 1.809 4.769 3.35 0 0-3.398 1.845-10.39 2.123-6.684.265-20.669.112-20.669.112s-6.257.058-11.634-2.25c-4.425-1.9-4.825-2.949-4.825-2.949z" style="opacity:.3"/><path style="fill:#fff" d="M532.837 273.583s-.119.414-.13 1.226a7.501 7.501 0 0 0 .799 3.433c.676 1.385 2.047 2.868 4.082 3.739 2.027.893 4.546 1.184 7.27 1.38l19.188 1.483 5.546.423c1.892.122 3.813.353 5.809.334 1.972-.014 4.114-.456 5.744-1.821 1.604-1.346 2.673-3.334 2.932-5.46.276-2.13-.326-4.315-1.559-5.994-1.226-1.69-3.03-2.886-4.969-3.421-.976-.285-1.975-.33-2.928-.424l-2.861-.263-5.539-.508-10.242-.934c-3.214-.235-6.178-.717-8.925-.88a28.298 28.298 0 0 0-3.923.011c-1.235.082-2.405.274-3.453.602-2.109.63-3.728 1.725-4.795 2.837-1.058 1.137-1.561 2.264-1.789 3.035-.135.383-.172.692-.212.895-.037.202-.052.306-.045.307.032.007.075-.421.335-1.179.251-.756.771-1.851 1.826-2.95 1.065-1.074 2.665-2.129 4.745-2.727 1.035-.312 2.177-.489 3.405-.561a28.235 28.235 0 0 1 3.886.018c2.724.18 5.691.679 8.904.928l10.241.972 5.54.523 2.861.269c.969.097 1.937.143 2.86.416 1.856.515 3.58 1.662 4.747 3.274 1.174 1.6 1.744 3.678 1.482 5.703-.245 2.024-1.269 3.924-2.785 5.196-1.533 1.284-3.558 1.716-5.491 1.733-1.948.022-3.882-.204-5.772-.323l-5.548-.409-19.195-1.395c-2.724-.177-5.209-.447-7.201-1.301-1.996-.831-3.346-2.257-4.03-3.6a7.624 7.624 0 0 1-.858-3.36c-.015-.805.073-1.224.048-1.227zM595.021 282c.026-.045-.498-.422-1.411-.926a22.587 22.587 0 0 0-3.737-1.616 22.511 22.511 0 0 0-3.967-.92c-1.034-.137-1.679-.145-1.685-.093-.017.13 2.539.414 5.523 1.404 2.988.975 5.213 2.265 5.277 2.151zM564.266 257.283c-.205-.096-.48.091-.467.316.013.226.306.38.499.263.193-.118.191-.449-.004-.564M561.005 263.828c-.205-.095-.48.091-.467.316.013.226.306.38.499.263.193-.118.191-.449-.004-.564M588.083 277.111c-.205-.095-.48.091-.467.316.013.226.306.38.499.263.193-.118.191-.449-.004-.564M593.575 279.138c-.205-.095-.48.091-.467.316.013.226.306.38.499.263.193-.118.191-.449-.004-.564"/><g style="opacity:.3"><path style="fill:#fff" d="M558.591 255.158c-.021.301 2.394.642 6.222 1.305 3.805.683 9.104 1.732 14.24 4.422 2.535 1.355 4.736 3.036 6.484 4.81 1.742 1.78 3.057 3.623 3.926 5.297 1.772 3.353 1.954 5.821 2.304 5.78.129-.008.235-.629.167-1.757-.06-1.127-.384-2.755-1.156-4.641-.764-1.888-2.058-3.982-3.865-5.98-1.811-1.992-4.155-3.86-6.898-5.325-2.74-1.435-5.537-2.377-8.111-2.979a45.985 45.985 0 0 0-6.904-1.067c-3.953-.304-6.392-.129-6.409.135z"/></g><g style="opacity:.3"><path style="fill:#fff" d="M588.684 288.778c.399.391 1.805-.425 2.681-2.113.882-1.686.746-3.305.197-3.409-.564-.117-1.278 1.059-2.019 2.459-.723 1.408-1.277 2.667-.859 3.063z"/></g><g><path style="fill:#fff" d="M552.745 275.981c-.036-.012-.175.701.261 1.734a4.121 4.121 0 0 0 1.173 1.544c.574.473 1.36.801 2.213.877.854.072 1.685-.117 2.331-.483a4.115 4.115 0 0 0 1.421-1.319c.607-.943.593-1.67.555-1.664-.072-.021-.166.662-.792 1.496a4.135 4.135 0 0 1-1.363 1.153c-.593.314-1.342.472-2.117.408-.774-.07-1.484-.354-2.015-.766a4.122 4.122 0 0 1-1.144-1.37c-.473-.929-.448-1.618-.523-1.61z"/></g><g><path style="fill:#ff725e" d="M532.423 308.715c-1.545.562.22 23.344 1.408 34.95.637 6.221 1.579 12.689 5.149 17.823 3.977 5.719 11.035 8.264 17.962 9.001 9.648 1.026 17.207-3.543 21.591-11.213 4.16-7.277 7.145-15.639 8.199-23.955 1.215-9.579 2.037-15.823 1.775-24.201.001 0-28.07-12.602-56.084-2.405z"/><path style="fill:#fff" d="M571.052 354.727c-.198-.109-.485.059-.487.285-.002.226.281.399.481.295.2-.105.22-.436.033-.563M560.924 355.066c-.198-.109-.484.059-.487.285-.002.226.281.399.481.295.2-.105.219-.436.033-.563M549.128 345.446c-.198-.109-.484.059-.487.285-.002.226.281.399.481.295.2-.105.219-.436.033-.563M552.315 319.326c-.198-.109-.484.059-.487.285-.002.226.281.399.481.295.2-.105.22-.436.033-.563M542.283 324.304c-.198-.109-.484.059-.487.285-.002.226.281.399.481.295.2-.105.219-.436.033-.563M582.282 350.908c-.198-.109-.484.059-.487.285-.002.226.281.399.481.295.2-.105.219-.436.033-.563M583.323 342.216c-.198-.109-.484.059-.487.285-.002.226.281.399.481.295.2-.105.22-.436.033-.563M583.485 334.403c-.198-.109-.484.059-.487.285-.002.226.281.399.481.295.2-.105.22-.436.033-.563M583.618 326.104c-.198-.109-.484.059-.487.285-.002.226.281.399.481.294.2-.105.22-.436.033-.563M535.995 322.738c-.198-.109-.484.059-.487.285-.002.226.281.399.481.295.2-.105.22-.436.033-.563M548.15 355.22c-.198-.109-.484.059-.487.285-.002.226.281.399.481.295.2-.105.22-.436.033-.563M547.637 363.438c-.198-.109-.484.059-.487.285-.002.226.281.399.481.295.2-.105.219-.436.033-.563M572.74 364.866c.01.01.149-.117.405-.369.257-.251.625-.632 1.069-1.15.887-1.025 2.12-2.629 2.983-4.938.436-1.147.753-2.46 1.04-3.858a164.607 164.607 0 0 0 2.519-14.825 165.921 165.921 0 0 0 1.237-18.977c.009-2.434-.03-4.403-.082-5.763l-.075-1.565c-.022-.358-.04-.545-.054-.545-.014 0-.024.189-.029.547l-.002 1.566c.003 1.359-.003 3.327-.048 5.756-.109 4.857-.436 11.57-1.354 18.931a182.85 182.85 0 0 1-2.444 14.805c-.274 1.405-.569 2.693-.98 3.828-.812 2.278-1.989 3.885-2.833 4.936-.422.53-.77.927-1.006 1.195-.237.27-.356.417-.346.426zM552.589 341.136c-.113-.005-.502 6.323-.868 14.132-.366 7.812-.571 14.147-.458 14.153.113.005.502-6.321.868-14.133.366-7.81.571-14.147.458-14.152zM561.853 304.948c-.023-.016-.208.2-.523.605-.314.405-.759.999-1.3 1.738a376.163 376.163 0 0 0-4.162 5.823l-.594.848-.073.104c-.033.033-.067.063-.084.131-.02.058-.039.12-.052.177l-.014.133c-.023.179-.028.347-.035.514a35.789 35.789 0 0 0 0 1.911c.027 1.214.08 2.304.129 3.219.051.915.103 1.655.148 2.166.045.511.081.792.109.792.061-.002.062-1.137.033-2.968l-.041-3.214a43.347 43.347 0 0 1 .023-1.889c.008-.161.015-.327.036-.48l.013-.118a.32.32 0 0 0 .017-.066c-.004-.04.091-.106.125-.179l.596-.847a377.358 377.358 0 0 0 4.063-5.892c.511-.76.919-1.38 1.193-1.813.275-.431.416-.679.393-.695z"/><path style="fill:#fff" d="M552.754 353.066c-.002.028.355.074 1.001.132.646.06 1.583.123 2.741.181 2.317.118 5.523.192 9.063.114 3.541-.08 6.741-.297 9.05-.517a71.247 71.247 0 0 0 2.73-.303c.643-.087.997-.148.994-.177-.003-.028-.362-.021-1.009.018l-2.738.173c-2.311.147-5.505.317-9.037.396-3.531.077-6.729.05-9.044.006l-2.743-.051c-.647-.008-1.006 0-1.008.028zM532.277 324c-.012.026.19.148.568.349a17.7 17.7 0 0 0 1.646.754c1.413.587 3.432 1.237 5.713 1.731a44.43 44.43 0 0 0 5.904.866c1.523.114 2.468.102 2.471.05.003-.062-.934-.152-2.442-.339a66.931 66.931 0 0 1-5.846-.978c-2.261-.489-4.27-1.089-5.697-1.601-1.429-.506-2.289-.891-2.317-.832z"/><path style="fill:#263238" d="M545.339 332.655c.372 5.092 4.802 8.919 9.894 8.546a9.245 9.245 0 1 0-9.894-8.546z"/><path style="fill:#fff" d="M547.84 332.472a6.737 6.737 0 1 0 13.438-.981 6.737 6.737 0 0 0-13.438.981z"/><g><path style="fill:#ff725e" d="M551.089 333.697c.026-.016.046-.415.063-1.111.017-.697.03-1.69.032-2.903l-.074.133 3.466-2.022-.194.003 3.497 1.965-.105-.176v.065l.001.066.002.132.004.262.008.52.017 1.02.037 1.946.094-.169-3.424 2.092.153-.002a128.406 128.406 0 0 0-2.571-1.35c-.62-.315-.98-.487-1.006-.471-.026.015.285.218.875.579.59.36 1.462.879 2.554 1.51l.075.043.078-.045 3.466-2.022.096-.056-.001-.113-.02-1.946-.013-1.02-.007-.52-.004-.262-.002-.132-.001-.066v-.065l-.106-.177-3.509-1.945-.099-.055-.095.058-3.424 2.092-.077.047.003.086c.037 1.261.08 2.275.117 2.965.037.69.068 1.059.094 1.044z"/></g><g style="opacity:.2"><path d="M588.508 311.12s-28.098-12.784-56.085-2.405c0 0 13.087 10.73 56.085 2.405z"/></g></g><path style="fill:#ff725e" d="M532.423 308.715s-16.888-13.587-19.858-12.569c-2.97 1.018-4.112 2.587-2.741 6.257 1.371 3.67 22.599 23.989 22.599 23.989v-17.677z"/><g><path style="fill:#263238" d="M533.08 334.692c-.036.003-.097-.358-.177-1.012a64.87 64.87 0 0 1-.264-2.778c-.185-2.349-.36-5.6-.454-9.193a234.525 234.525 0 0 1-.073-9.203c.015-1.177.042-2.13.072-2.789.031-.658.065-1.022.101-1.022.036 0 .07.364.102 1.022l.093 2.786.225 9.191.301 9.185.099 2.785c.018.659.011 1.025-.025 1.028z"/></g><g style="opacity:.2"><path d="M578.375 315.762c.842 8.811 3.793 18.486 6.98 26.743.57-2.529 1.058-4.96 1.377-7.184-.36-2.525-2.007-5.93-3.045-8.259l-5.032-11.293"/></g><g><path style="fill:#ff725e" d="M588.508 311.12s15.448 31.548 9.495 34.937c-8.462 4.817-20.159-32.911-20.159-32.911l5.476-1.088 5.188-.938z"/><path style="fill:#263238" d="M589.962 341.136c-.03.02-.285-.319-.72-.951a39.894 39.894 0 0 1-1.712-2.76c-1.379-2.372-3.071-5.77-4.676-9.634a114.566 114.566 0 0 1-3.638-10.07 64.097 64.097 0 0 1-.89-3.12c-.188-.743-.275-1.158-.24-1.168.034-.01.188.386.435 1.11l1.046 3.064a175.257 175.257 0 0 0 3.768 9.984c1.598 3.847 3.228 7.25 4.518 9.655a85.404 85.404 0 0 0 1.562 2.831c.38.663.577 1.039.547 1.059z"/></g></g><g><path style="fill:#263238" d="M60.016 375.773h109.362v76.128H60.016z"/><path style="fill:#455a64" d="M44.989 398.356h112.498v27.911H44.989z"/><path style="fill:#263238" d="M49.984 404.105h22.15v3.408h-22.15zM49.984 409.968h22.15v3.408h-22.15zM49.984 416.032h22.15v3.408h-22.15zM80.894 406.164a1.27 1.27 0 1 1-2.542 0 1.27 1.27 0 0 1 2.542 0zM86.501 406.164a1.27 1.27 0 1 1-2.542 0 1.27 1.27 0 0 1 2.542 0zM92.109 406.164a1.27 1.27 0 1 1-2.542 0 1.27 1.27 0 0 1 2.542 0zM97.716 406.164a1.27 1.27 0 1 1-2.542 0 1.27 1.27 0 0 1 2.542 0zM141.168 406.164a1.27 1.27 0 1 1-2.542 0 1.27 1.27 0 0 1 2.542 0zM146.886 406.164a1.27 1.27 0 1 1-2.542 0 1.27 1.27 0 0 1 2.542 0zM103.324 406.164a1.27 1.27 0 1 1-2.542 0 1.27 1.27 0 0 1 2.542 0zM130.861 406.164a1.27 1.27 0 1 1-2.542 0 1.27 1.27 0 0 1 2.542 0z"/><path style="fill:#f5f5f5" d="M108.931 406.164a1.27 1.27 0 1 1-2.542 0 1.27 1.27 0 0 1 2.542 0zM114.538 406.164a1.27 1.27 0 1 1-2.542 0 1.27 1.27 0 0 1 2.542 0zM125.915 406.164a1.27 1.27 0 1 1-2.542 0 1.27 1.27 0 0 1 2.542 0zM151.538 406.164a1.27 1.27 0 1 1-2.542 0 1.27 1.27 0 0 1 2.542 0z"/><path style="fill:#ff725e" d="M120.145 406.164a1.27 1.27 0 1 1-2.542 0 1.27 1.27 0 0 1 2.542 0zM136.2 406.164a1.27 1.27 0 1 1-2.542 0 1.27 1.27 0 0 1 2.542 0z"/><g><path style="fill:#263238" d="M148.997 412.289a1.27 1.27 0 1 1 2.542 0 1.27 1.27 0 0 1-2.542 0zM143.39 412.289a1.27 1.27 0 1 1 2.542 0 1.27 1.27 0 0 1-2.542 0zM137.782 412.289a1.27 1.27 0 1 1 2.542 0 1.27 1.27 0 0 1-2.542 0zM132.175 412.289a1.27 1.27 0 1 1 2.542 0 1.27 1.27 0 0 1-2.542 0zM88.723 412.289a1.27 1.27 0 1 1 2.542 0 1.27 1.27 0 0 1-2.542 0zM83.005 412.289a1.27 1.27 0 1 1 2.542 0 1.27 1.27 0 0 1-2.542 0zM126.568 412.289a1.27 1.27 0 1 1 2.542 0 1.27 1.27 0 0 1-2.542 0zM99.03 412.289a1.27 1.27 0 1 1 2.542 0 1.27 1.27 0 0 1-2.542 0z"/><path style="fill:#f5f5f5" d="M120.96 412.289a1.27 1.27 0 1 1 2.542 0 1.27 1.27 0 0 1-2.542 0zM115.353 412.289a1.27 1.27 0 1 1 2.542 0 1.27 1.27 0 0 1-2.542 0zM103.977 412.289a1.27 1.27 0 1 1 2.542 0 1.27 1.27 0 0 1-2.542 0zM78.353 412.289a1.27 1.27 0 1 1 2.542 0 1.27 1.27 0 0 1-2.542 0z"/><path style="fill:#ff725e" d="M109.746 412.289a1.27 1.27 0 1 1 2.542 0 1.27 1.27 0 0 1-2.542 0zM93.691 412.289a1.27 1.27 0 1 1 2.542 0 1.27 1.27 0 0 1-2.542 0z"/></g><g><path style="fill:#263238" d="M80.894 417.736a1.27 1.27 0 1 1-2.542 0 1.27 1.27 0 0 1 2.542 0z"/><circle style="fill:#263238" cx="85.231" cy="417.736" r="1.271"/><circle style="fill:#263238" cx="90.838" cy="417.736" r="1.271"/><circle style="fill:#263238" cx="96.446" cy="417.736" r="1.271"/><circle style="fill:#263238" cx="139.897" cy="417.736" r="1.271"/><circle style="fill:#263238" cx="145.615" cy="417.736" r="1.271"/><path style="fill:#263238" d="M103.324 417.736a1.27 1.27 0 1 1-2.542 0 1.27 1.27 0 0 1 2.542 0zM130.861 417.736a1.27 1.27 0 1 1-2.542 0 1.27 1.27 0 0 1 2.542 0z"/><circle style="fill:#f5f5f5" cx="107.66" cy="417.736" r="1.271"/><path style="fill:#f5f5f5" d="M114.538 417.736a1.27 1.27 0 1 1-2.542 0 1.27 1.27 0 0 1 2.542 0zM125.915 417.736a1.27 1.27 0 1 1-2.542 0 1.27 1.27 0 0 1 2.542 0zM151.538 417.736a1.27 1.27 0 1 1-2.542 0 1.27 1.27 0 0 1 2.542 0z"/><path style="fill:#ff725e" d="M120.145 417.736a1.27 1.27 0 1 1-2.542 0 1.27 1.27 0 0 1 2.542 0z"/><circle style="fill:#ff725e" cx="134.929" cy="417.736" r="1.271"/></g><g><path style="fill:#455a64" d="M44.989 432.799h112.498v27.911H44.989z"/></g><g><path style="fill:#263238" d="M80.616 440.329a1.27 1.27 0 1 1-2.542 0 1.27 1.27 0 0 1 2.542 0zM86.223 440.329a1.27 1.27 0 1 1-2.542 0 1.27 1.27 0 0 1 2.542 0zM91.83 440.329a1.27 1.27 0 1 1-2.542 0 1.27 1.27 0 0 1 2.542 0zM97.438 440.329a1.27 1.27 0 1 1-2.542 0 1.27 1.27 0 0 1 2.542 0zM140.889 440.329a1.27 1.27 0 1 1-2.542 0 1.27 1.27 0 0 1 2.542 0zM146.607 440.329a1.27 1.27 0 1 1-2.542 0 1.27 1.27 0 0 1 2.542 0zM103.045 440.329a1.27 1.27 0 1 1-2.542 0 1.27 1.27 0 0 1 2.542 0zM130.582 440.329a1.27 1.27 0 1 1-2.542 0 1.27 1.27 0 0 1 2.542 0z"/><path style="fill:#f5f5f5" d="M108.652 440.329a1.27 1.27 0 1 1-2.542 0 1.27 1.27 0 0 1 2.542 0zM114.259 440.329a1.27 1.27 0 1 1-2.542 0 1.27 1.27 0 0 1 2.542 0zM125.636 440.329a1.27 1.27 0 1 1-2.542 0 1.27 1.27 0 0 1 2.542 0zM151.26 440.329a1.27 1.27 0 1 1-2.542 0 1.27 1.27 0 0 1 2.542 0z"/><path style="fill:#ff725e" d="M119.867 440.329a1.27 1.27 0 1 1-2.542 0 1.27 1.27 0 0 1 2.542 0zM135.921 440.329a1.27 1.27 0 1 1-2.542 0 1.27 1.27 0 0 1 2.542 0z"/><g><path style="fill:#263238" d="M148.718 446.454a1.27 1.27 0 1 1 2.542 0 1.27 1.27 0 0 1-2.542 0z"/><circle style="fill:#263238" cx="144.382" cy="446.454" r="1.271"/><path style="fill:#263238" d="M137.504 446.454a1.27 1.27 0 1 1 2.542 0 1.27 1.27 0 0 1-2.542 0zM131.896 446.454a1.27 1.27 0 1 1 2.542 0 1.27 1.27 0 0 1-2.542 0zM88.445 446.454a1.27 1.27 0 1 1 2.542 0 1.27 1.27 0 0 1-2.542 0zM82.727 446.454a1.27 1.27 0 1 1 2.542 0 1.27 1.27 0 0 1-2.542 0z"/><circle style="fill:#263238" cx="127.56" cy="446.454" r="1.271"/><circle style="fill:#263238" cx="100.022" cy="446.454" r="1.271"/><path style="fill:#f5f5f5" d="M120.682 446.454a1.27 1.27 0 1 1 2.542 0 1.27 1.27 0 0 1-2.542 0zM115.075 446.454a1.27 1.27 0 1 1 2.542 0 1.27 1.27 0 0 1-2.542 0z"/><circle style="fill:#f5f5f5" cx="104.969" cy="446.454" r="1.271"/><path style="fill:#f5f5f5" d="M78.074 446.454a1.27 1.27 0 1 1 2.542 0 1.27 1.27 0 0 1-2.542 0z"/><path style="fill:#ff725e" d="M109.467 446.454a1.27 1.27 0 1 1 2.542 0 1.27 1.27 0 0 1-2.542 0zM93.412 446.454a1.27 1.27 0 1 1 2.542 0 1.27 1.27 0 0 1-2.542 0z"/></g><g><path style="fill:#263238" d="M80.616 451.901a1.27 1.27 0 1 1-2.542 0 1.27 1.27 0 0 1 2.542 0zM86.223 451.901a1.27 1.27 0 1 1-2.542 0 1.27 1.27 0 0 1 2.542 0zM91.83 451.901a1.27 1.27 0 1 1-2.542 0 1.27 1.27 0 0 1 2.542 0zM97.438 451.901a1.27 1.27 0 1 1-2.542 0 1.27 1.27 0 0 1 2.542 0zM140.889 451.901a1.27 1.27 0 1 1-2.542 0 1.27 1.27 0 0 1 2.542 0zM146.607 451.901a1.27 1.27 0 1 1-2.542 0 1.27 1.27 0 0 1 2.542 0zM103.045 451.901a1.27 1.27 0 1 1-2.542 0 1.27 1.27 0 0 1 2.542 0zM130.582 451.901a1.27 1.27 0 1 1-2.542 0 1.27 1.27 0 0 1 2.542 0z"/><path style="fill:#f5f5f5" d="M108.652 451.901a1.27 1.27 0 1 1-2.542 0 1.27 1.27 0 0 1 2.542 0zM114.259 451.901a1.27 1.27 0 1 1-2.542 0 1.27 1.27 0 0 1 2.542 0zM125.636 451.901a1.27 1.27 0 1 1-2.542 0 1.27 1.27 0 0 1 2.542 0zM151.26 451.901a1.27 1.27 0 1 1-2.542 0 1.27 1.27 0 0 1 2.542 0z"/><path style="fill:#ff725e" d="M119.867 451.901a1.27 1.27 0 1 1-2.542 0 1.27 1.27 0 0 1 2.542 0zM135.921 451.901a1.27 1.27 0 1 1-2.542 0 1.27 1.27 0 0 1 2.542 0z"/></g></g><g><path style="fill:#263238" d="M49.984 438.548h22.15v3.408h-22.15z"/></g><g><path style="fill:#263238" d="M49.984 444.411h22.15v3.408h-22.15z"/></g><g><path style="fill:#263238" d="M49.984 450.475h22.15v3.408h-22.15z"/></g><g><path style="fill:#263238" d="m181.268 426.221-23.781.046v-27.911l23.781-.045z"/></g><g><path style="fill:#263238" d="m181.268 460.447-23.781.045v-27.911l23.781-.045z"/></g><g><path style="fill:#263238" d="M50.799 381.837h22.15v3.408h-22.15z"/></g><g><path style="fill:#263238" d="m181.268 392.284-23.781.046v-28.124l23.781-.045z"/><path style="fill:#455a64" d="M45.804 364.161h112.498v27.911H45.804z"/><path style="fill:#263238" d="M50.799 369.91h22.15v3.408h-22.15zM50.799 375.773h22.15v3.408h-22.15zM81.709 371.969a1.27 1.27 0 1 1-2.542 0 1.27 1.27 0 0 1 2.542 0zM87.316 371.969a1.27 1.27 0 1 1-2.542 0 1.27 1.27 0 0 1 2.542 0zM92.923 371.969a1.27 1.27 0 1 1-2.542 0 1.27 1.27 0 0 1 2.542 0zM98.531 371.969a1.27 1.27 0 1 1-2.542 0 1.27 1.27 0 0 1 2.542 0zM141.982 371.969a1.27 1.27 0 1 1-2.542 0 1.27 1.27 0 0 1 2.542 0zM147.701 371.969a1.27 1.27 0 1 1-2.542 0 1.27 1.27 0 0 1 2.542 0zM104.138 371.969a1.27 1.27 0 1 1-2.542 0 1.27 1.27 0 0 1 2.542 0zM131.676 371.969a1.27 1.27 0 1 1-2.542 0 1.27 1.27 0 0 1 2.542 0z"/><path style="fill:#f5f5f5" d="M109.745 371.969a1.27 1.27 0 1 1-2.542 0 1.27 1.27 0 0 1 2.542 0zM115.353 371.969a1.27 1.27 0 1 1-2.542 0 1.27 1.27 0 0 1 2.542 0zM126.729 371.969a1.27 1.27 0 1 1-2.542 0 1.27 1.27 0 0 1 2.542 0zM152.353 371.969a1.27 1.27 0 1 1-2.542 0 1.27 1.27 0 0 1 2.542 0z"/><path style="fill:#ff725e" d="M120.96 371.969a1.27 1.27 0 1 1-2.542 0 1.27 1.27 0 0 1 2.542 0zM137.015 371.969a1.27 1.27 0 1 1-2.542 0 1.27 1.27 0 0 1 2.542 0z"/><g><path style="fill:#263238" d="M149.811 378.094a1.27 1.27 0 1 1 2.542 0 1.27 1.27 0 0 1-2.542 0z"/><circle style="fill:#263238" cx="145.475" cy="378.094" r="1.271"/><path style="fill:#263238" d="M138.597 378.094a1.27 1.27 0 1 1 2.542 0 1.27 1.27 0 0 1-2.542 0zM132.99 378.094a1.27 1.27 0 1 1 2.542 0 1.27 1.27 0 0 1-2.542 0zM89.538 378.094a1.27 1.27 0 1 1 2.542 0 1.27 1.27 0 0 1-2.542 0zM83.82 378.094a1.27 1.27 0 1 1 2.542 0 1.27 1.27 0 0 1-2.542 0zM127.382 378.094a1.27 1.27 0 1 1 2.542 0 1.27 1.27 0 0 1-2.542 0z"/><circle style="fill:#263238" cx="101.115" cy="378.094" r="1.271"/><path style="fill:#f5f5f5" d="M121.775 378.094a1.27 1.27 0 1 1 2.542 0 1.27 1.27 0 0 1-2.542 0z"/><circle style="fill:#f5f5f5" cx="117.438" cy="378.094" r="1.271"/><path style="fill:#f5f5f5" d="M104.791 378.094a1.27 1.27 0 1 1 2.542 0 1.27 1.27 0 0 1-2.542 0z"/><circle style="fill:#f5f5f5" cx="80.438" cy="378.094" r="1.271"/><path style="fill:#ff725e" d="M110.56 378.094a1.27 1.27 0 1 1 2.542 0 1.27 1.27 0 0 1-2.542 0zM94.506 378.094a1.27 1.27 0 1 1 2.542 0 1.27 1.27 0 0 1-2.542 0z"/></g><g><path style="fill:#263238" d="M81.709 383.541a1.27 1.27 0 1 1-2.542 0 1.27 1.27 0 0 1 2.542 0zM87.316 383.541a1.27 1.27 0 1 1-2.542 0 1.27 1.27 0 0 1 2.542 0zM92.923 383.541a1.27 1.27 0 1 1-2.542 0 1.27 1.27 0 0 1 2.542 0zM98.531 383.541a1.27 1.27 0 1 1-2.542 0 1.27 1.27 0 0 1 2.542 0zM141.982 383.541a1.27 1.27 0 1 1-2.542 0 1.27 1.27 0 0 1 2.542 0zM147.701 383.541a1.27 1.27 0 1 1-2.542 0 1.27 1.27 0 0 1 2.542 0zM104.138 383.541a1.27 1.27 0 1 1-2.542 0 1.27 1.27 0 0 1 2.542 0zM131.676 383.541a1.27 1.27 0 1 1-2.542 0 1.27 1.27 0 0 1 2.542 0z"/><path style="fill:#f5f5f5" d="M109.745 383.541a1.27 1.27 0 1 1-2.542 0 1.27 1.27 0 0 1 2.542 0zM115.353 383.541a1.27 1.27 0 1 1-2.542 0 1.27 1.27 0 0 1 2.542 0zM126.729 383.541a1.27 1.27 0 1 1-2.542 0 1.27 1.27 0 0 1 2.542 0zM152.353 383.541a1.27 1.27 0 1 1-2.542 0 1.27 1.27 0 0 1 2.542 0z"/><path style="fill:#ff725e" d="M120.96 383.541a1.27 1.27 0 1 1-2.542 0 1.27 1.27 0 0 1 2.542 0zM137.015 383.541a1.27 1.27 0 1 1-2.542 0 1.27 1.27 0 0 1 2.542 0z"/></g></g><g><path style="fill:#263238" d="M198.713 245.339s-.161.018-.475.027l-1.396.027-5.371.055-19.787.107-65.571.159.217-.263v2.964l-.064 81.287-.069 24.633-.041 6.697a780.62 780.62 0 0 1-.022 1.742c-.007.392-.022.593-.022.593s-.015-.201-.022-.593l-.022-1.742-.041-6.697-.069-24.633-.064-81.287v-3.227h65.788l19.787.059 5.371.042 1.396.024c.316.008.477.026.477.026z"/></g><path style="fill:#263238" d="M201.805 246.357a3.691 3.691 0 1 1-7.382 0 3.691 3.691 0 0 1 7.382 0z"/></g><g><path style="fill:#ff725e" d="m137.934 278.117 19.177-46.268c.875-2.111-.223-3.823-2.452-3.823h-3.858c-1.574 0-2.647-.867-2.749-2.221l-.128-1.701c-.102-1.354-1.177-2.221-2.753-2.221h-18.333c-1.429 0-3.043.714-4.245 1.878l-1.488 1.442c-1.201 1.164-2.814 1.878-4.242 1.878H93.512c-2.23 0-4.726 1.712-5.577 3.823l-19.011 47.214h69.01z"/><path d="m137.934 278.117 19.177-46.268c.875-2.111-.223-3.823-2.452-3.823h-3.858c-1.574 0-2.647-.867-2.749-2.221l-.128-1.701c-.102-1.354-1.177-2.221-2.753-2.221h-18.333c-1.429 0-3.043.714-4.245 1.878l-1.488 1.442c-1.201 1.164-2.814 1.878-4.242 1.878H93.512c-2.23 0-4.726 1.712-5.577 3.823l-19.011 47.214h69.01z" style="opacity:.3"/><path style="fill:#e0e0e0" d="m141.103 262.404 7.233-27.964c.476-1.841-.73-3.688-2.408-3.688H89.236c-1.121 0-2.106.85-2.414 2.083l-10.528 42.09c-.462 1.848.276 2.957 1.957 2.936l57.04.018c1.105-.014 2.072-.853 2.383-2.066l3.429-13.409z"/><path style="fill:#ebebeb" d="m137.186 276.852 3.081-44.038a2.7 2.7 0 0 0-2.694-2.889h-58.74v46.927h58.353z"/><path style="fill:#fafafa" d="m137.843 277.86-6.988-45.399c-.322-1.479-1.653-2.536-3.194-2.536H68.239c-2.347 0-3.928 2.358-3 4.475l12.831 41.547 59.773 1.913z"/><g><path style="fill:#ff725e" d="m137.934 278.097-14.411-42.519c-.6-1.771-2.206-2.956-4.008-2.956H58.256c-1.974 0-3.366 2.021-2.736 3.972l13.404 41.524 69.01-.021z"/></g></g><g><path style="fill:#263238" d="M707.017 460.492c0 .144-148.661.26-332.002.26-183.404 0-332.033-.117-332.033-.26s148.629-.26 332.033-.26c183.341 0 332.002.116 332.002.26z"/></g></svg>