<svg xmlns="http://www.w3.org/2000/svg" viewBox="0 0 500 500" style="enable-background:new 0 0 500 500" xml:space="preserve"><path style="fill:#ebebeb" d="M435.02 48.421c-.855.531-1.925.501-2.786-.02a16.105 16.105 0 0 0-1.455-.78c-.907-.428-1.521-1.3-1.552-2.302l-.106-3.427-11.161.348.105 3.425a2.653 2.653 0 0 1-1.402 2.407c-.486.265-.958.557-1.415.874a2.652 2.652 0 0 1-2.771.177l-3.013-1.616-5.279 9.844 3.013 1.616a2.65 2.65 0 0 1 1.385 2.407 15.34 15.34 0 0 0 .055 1.662 2.654 2.654 0 0 1-1.23 2.5l-2.911 1.807 5.886 9.489 2.927-1.813c.851-.527 1.915-.497 2.772.021a16.658 16.658 0 0 0 1.448.777c.91.43 1.526 1.305 1.556 2.31l.103 3.429 11.161-.347-.108-3.417a2.654 2.654 0 0 1 1.399-2.408c.487-.267.961-.56 1.42-.879a2.651 2.651 0 0 1 2.773-.179l3.012 1.615 5.279-9.844-3.012-1.615a2.653 2.653 0 0 1-1.385-2.409 15.73 15.73 0 0 0-.053-1.669 2.654 2.654 0 0 1 1.232-2.498l2.906-1.8-5.886-9.489-2.907 1.804zm-2.798 17.624c-2.387 4.451-7.938 6.127-12.39 3.74-4.452-2.387-6.119-7.934-3.732-12.386a9.14 9.14 0 0 1 12.378-3.736c4.452 2.388 6.132 7.931 3.744 12.382zM403.425 88.154c-.352.611-1.023.947-1.727.91a11.015 11.015 0 0 0-1.156 0c-.702.036-1.37-.299-1.721-.907l-1.2-2.08-6.776 3.909 1.199 2.08c.352.61.317 1.361-.068 1.951-.212.325-.407.661-.584 1.008a1.86 1.86 0 0 1-1.652 1.027h-2.395v7.825h2.395c.702 0 1.333.402 1.652 1.027.177.347.372.684.584 1.008.385.59.42 1.34.068 1.95l-1.199 2.079 6.776 3.91 1.207-2.089c.351-.607 1.018-.941 1.719-.905a12.234 12.234 0 0 0 1.152 0c.704-.036 1.374.3 1.726.911l1.199 2.083 6.775-3.91-1.198-2.074a1.862 1.862 0 0 1 .066-1.95c.213-.326.408-.664.585-1.013a1.859 1.859 0 0 1 1.653-1.029h2.395V96.05h-2.395a1.859 1.859 0 0 1-1.653-1.029 10.917 10.917 0 0 0-.585-1.013 1.86 1.86 0 0 1-.066-1.95l1.198-2.074-6.775-3.909-1.199 2.079zm4.108 11.807a6.408 6.408 0 1 1-12.816 0 6.403 6.403 0 0 1 6.405-6.405 6.409 6.409 0 0 1 6.411 6.405zM81.571 337.956c-.611-.352-.946-1.023-.91-1.727a11.015 11.015 0 0 0 0-1.156c-.036-.702.299-1.37.907-1.721l2.08-1.2-3.91-6.776-2.079 1.199a1.861 1.861 0 0 1-1.951-.068 10.826 10.826 0 0 0-1.008-.584 1.86 1.86 0 0 1-1.027-1.652v-2.395h-7.825v2.395c0 .702-.402 1.333-1.027 1.652-.347.177-.684.372-1.009.584-.59.386-1.34.42-1.95.068l-2.08-1.199-3.909 6.776 2.089 1.207c.607.351.941 1.018.905 1.719a11.015 11.015 0 0 0 0 1.152c.036.704-.3 1.374-.911 1.726l-2.083 1.199 3.909 6.775 2.074-1.198a1.862 1.862 0 0 1 1.95.066c.326.213.664.408 1.013.585a1.859 1.859 0 0 1 1.029 1.653v2.395h7.825v-2.395c0-.702.403-1.335 1.029-1.653.349-.177.687-.373 1.013-.585a1.86 1.86 0 0 1 1.95-.066l2.073 1.198 3.91-6.775-2.077-1.199zm-11.807 4.108a6.408 6.408 0 1 1 0-12.816 6.403 6.403 0 0 1 6.405 6.405 6.41 6.41 0 0 1-6.405 6.411zM270.312 396.852H457.01l3.883-76.607H266.428z"/><path style="fill:#dbdbdb" d="M448.161 355.312h-78.053l-1.463-26.596h81.225l-1.709 26.596zM371 354.37h76.277l1.587-24.711H369.64L371 354.37zM446.721 385.908h-73.556l-1.195-24.007h76.25l-1.499 24.007zm-72.66-.942h71.774l1.382-22.122H372.96l1.101 22.122z"/><path style="fill:#dbdbdb" d="M416.65 344.898h-13.115l-.827-6.414h14.77l-.828 6.414zm-12.287-.942h11.459l.584-4.529h-12.628l.585 4.529zM416.65 377.112h-13.115l-.827-6.415h14.77l-.828 6.415zm-12.287-.942h11.459l.584-4.53h-12.628l.585 4.53z"/><g><path style="fill:#dbdbdb" d="M356.351 355.312h-78.053l-1.464-26.596h81.226l-1.709 26.596zm-77.161-.942h76.277l1.587-24.711h-79.225l1.361 24.711zM354.91 385.908h-73.556l-1.195-24.007h76.25l-1.499 24.007zm-72.659-.942h71.774l1.382-22.122H281.15l1.101 22.122z"/><path style="fill:#dbdbdb" d="M324.84 344.898h-13.115l-.827-6.414h14.77l-.828 6.414zm-12.287-.942h11.459l.584-4.529h-12.628l.585 4.529zM324.84 377.112h-13.115l-.827-6.415h14.77l-.828 6.415zm-12.287-.942h11.459l.584-4.53h-12.628l.585 4.53z"/></g><g><path style="fill:#ebebeb" d="m287.055 396.851-1.173 8.346-2.358 16.769h-4.61v-25.115z"/><path style="fill:#dbdbdb" d="m287.055 396.851-1.173 8.346h-6.968v-8.346z"/></g><g><path style="fill:#ebebeb" d="m440.267 396.851 1.172 8.346 2.358 16.769h4.611v-25.115z"/><path style="fill:#dbdbdb" d="m440.267 396.851 1.172 8.346h6.969v-8.346z"/></g><g><circle style="opacity:.5;fill:#ebebeb" cx="120.663" cy="287.836" r="10.689"/><path style="fill:#ebebeb" d="M113.585 287.836a7.078 7.078 0 1 1 14.156 0 7.078 7.078 0 0 1-14.156 0z"/><circle style="opacity:.5;fill:#ebebeb" cx="228.667" cy="125.642" r="10.689"/><circle style="fill:#ebebeb" cx="228.667" cy="125.642" r="7.078"/><circle style="opacity:.5;fill:#ebebeb" cx="363.951" cy="173.567" r="10.689"/><circle style="fill:#ebebeb" cx="363.951" cy="173.567" r="7.078"/><circle style="opacity:.5;fill:#ebebeb" cx="366.131" cy="314.812" r="10.689"/><path style="fill:#ebebeb" d="M359.053 314.812a7.078 7.078 0 1 1 14.156 0 7.078 7.078 0 0 1-14.156 0z"/><circle style="opacity:.5;fill:#ebebeb" cx="127.752" cy="143.462" r="8.505"/><circle style="fill:#ebebeb" cx="127.752" cy="143.462" r="5.632"/><circle style="opacity:.5;fill:#ebebeb" cx="395.026" cy="278.198" r="5.632"/><path style="fill:#ebebeb" d="M391.297 278.198a3.729 3.729 0 1 1 7.458 0 3.729 3.729 0 0 1-7.458 0z"/><path style="opacity:.5;fill:#ebebeb" d="M129.042 195.083a5.631 5.631 0 0 1 5.632-5.632 5.632 5.632 0 1 1-5.632 5.632z"/><path style="fill:#ebebeb" d="M130.945 195.083a3.729 3.729 0 1 1 7.458 0 3.729 3.729 0 0 1-7.458 0z"/><path style="opacity:.5;fill:#ebebeb" d="M212.728 297.446a5.632 5.632 0 1 1 11.264 0 5.632 5.632 0 0 1-11.264 0z"/><path style="fill:#ebebeb" d="M214.63 297.446a3.729 3.729 0 1 1 7.458 0 3.729 3.729 0 0 1-7.458 0z"/><path style="opacity:.5;fill:#ebebeb" d="M197.737 187.573a5.632 5.632 0 1 1 11.264 0 5.632 5.632 0 0 1-11.264 0z"/><path style="fill:#ebebeb" d="M199.64 187.573a3.729 3.729 0 1 1 7.458 0 3.729 3.729 0 0 1-7.458 0z"/><path style="opacity:.5;fill:#ebebeb" d="M296.199 79.805a5.632 5.632 0 1 1 11.264 0 5.632 5.632 0 0 1-11.264 0z"/><path style="fill:#ebebeb" d="M298.102 79.805a3.729 3.729 0 1 1 7.458 0 3.729 3.729 0 0 1-7.458 0z"/><circle style="opacity:.5;fill:#ebebeb" cx="372.85" cy="117.971" r="5.632"/><path style="fill:#ebebeb" d="M369.121 117.971a3.729 3.729 0 1 1 7.458 0 3.729 3.729 0 0 1-7.458 0z"/><path style="opacity:.5;fill:#ebebeb" d="M252.214 338.154a5.632 5.632 0 1 1 11.264 0 5.632 5.632 0 0 1-11.264 0z"/><path style="fill:#ebebeb" d="M254.116 338.154a3.729 3.729 0 1 1 7.458 0 3.729 3.729 0 0 1-7.458 0z"/><path style="opacity:.5;fill:#ebebeb" d="M201.466 364.306a5.632 5.632 0 1 1 11.264 0 5.632 5.632 0 0 1-11.264 0z"/><path style="fill:#ebebeb" d="M203.369 364.306a3.729 3.729 0 1 1 7.458 0 3.729 3.729 0 0 1-7.458 0zM155.886 267.974a2.637 2.637 0 1 1 5.275.001 2.637 2.637 0 0 1-5.275-.001z"/><circle style="fill:#ebebeb" cx="337.758" cy="117.971" r="2.637"/><path style="fill:#ebebeb" d="M337.758 338.154a2.637 2.637 0 1 1 5.275.001 2.637 2.637 0 0 1-5.275-.001zM372.85 240.098a2.637 2.637 0 1 1 5.275.001 2.637 2.637 0 0 1-5.275-.001zM91.551 214.166a2.637 2.637 0 1 1 5.275.001 2.637 2.637 0 0 1-5.275-.001zM312.229 200.464a2.637 2.637 0 1 1 5.275.001 2.637 2.637 0 0 1-5.275-.001zM405.945 189.325a2.637 2.637 0 1 1 5.275.001 2.637 2.637 0 0 1-5.275-.001zM153.249 91.709a2.637 2.637 0 1 1 5.275.001 2.637 2.637 0 0 1-5.275-.001zM248.651 156.277a2.637 2.637 0 1 1 5.275.001 2.637 2.637 0 0 1-5.275-.001z"/><circle style="fill:#ebebeb" cx="256.592" cy="58.259" r="2.637"/><circle style="fill:#ebebeb" cx="282.103" cy="290.473" r="2.637"/><path style="fill:#ebebeb" d="M278.626 371.17a2.637 2.637 0 1 1 5.275.001 2.637 2.637 0 0 1-5.275-.001zM157.185 329.885a2.637 2.637 0 1 1 5.275.001 2.637 2.637 0 0 1-5.275-.001z"/><g><path style="fill:#ebebeb" d="m301.767 79.468.066.07 36.011 38.353 70.863 71.393-.009.058-13.561 88.905-.019.024-28.895 36.613-25.749 23.355-59.244 33.083-.06-.085-23.418-33.016-39.413-40.592-58.539 32.402-.062-.067-39.182-42.088-26.493-73.716.02-.044 33.59-70.758.059-.01 100.893-17.817 73.142-46.063zm106.692 109.897-70.783-71.312-35.947-38.285-73.042 45.989-100.856 17.81-33.518 70.605 26.453 73.602 39.08 41.965 58.536-32.4.062.064 39.486 40.669 23.369 32.945 59.041-32.965 25.714-23.326 28.863-36.575 13.542-88.786z"/><path style="fill:#ebebeb" d="m155.836 91.558.099.046 72.808 33.945.017.024 22.609 30.619 63.428 44.083 22.933-82.637.133.282 26.202 55.626 11.542 66.561-.01.029-35.127 98.153-.1-.023-73.848-16.911-8.608 16.92-.078-.007-98.128-8.277-.002-.105-.695-33.151-38.373-8.787.038-.229 38.225 3.775-.495-23.55.016-.028 44.736-80.204-68.583 7.497-.015-.113-6.927-51.657.018-.034 28.185-51.847zm72.755 34.177-72.655-33.874-28.064 51.623 6.903 51.47 68.806-7.521-.11.197-44.83 80.373.493 23.515 59.238 5.85 63.933-7.034-.098.191-15.576 30.617 73.69 16.875 35.047-97.93-11.528-66.485-26.053-55.299-22.853 82.35-.134-.094-63.605-44.214-22.604-30.61zm-69.686 165.993-36.431-3.597 36.531 8.365-.1-4.768zm107.492 29.361 15.506-30.477-63.53 6.987-59.233-5.848.101 4.799 107.156 24.539zm-.109.213L159.244 296.79l.692 32.988 97.841 8.253 8.511-16.729z"/><path style="fill:#ebebeb" d="m159.89 329.791 47.276 34.421-.136.188-47.276-34.421z"/><path style="fill:#ebebeb" d="m256.6 58.133.042.02L301.769 79.5l.824-.069-.564.207 70.908 38.249.016.033 35.711 71.311.426.151-.441.052-33.029 50.671 19.565 38.152-.113.049-60.734 26.544 6.229 33.595-.246-.201-28.692-23.469-29.798 13.023-.453 43.5-.126-.012-74.561-6.9.353-.182 50.748-26.153 23.808-10.405.39-37.416.187.153 29.49 24.122 22.41-9.794-19.347-104.346.123-.014 93.221-11.081-44.161-15.591-112.598-17.278-47.992 31.344-.058-.117-30.072-60.712-45.328 16.632-2.745 55.913 9.505-4.481.1.21-9.618 4.533-1.894 38.569 35.519 29.707-.154.081-38.039 19.957 2.437-49.639-29.001-24.256.164-.078 30.743-14.49 2.758-56.19.073-.026 45.377-16.65-17.383-35.095.156-.013L256.6 58.133zm44.707 21.405-44.722-21.155-99.741 33.13 144.463-11.975zm71.456 38.517-71.024-38.311-128.326 47.087 30.003 60.572 47.847-31.249.044.006 112.663 17.29 44.381 15.667-35.588-71.062zm-199.454 8.567 127.593-46.818-144.836 12.007 17.243 34.811zm221.558 151.52-19.514-38.051.037-.057 32.96-50.565-93.347 11.096 19.292 104.049 60.572-26.472zm-271.878-40.039 1.879-38.27-30.466 14.361 28.587 23.909zm35.326 29.849-35.117-29.371-2.409 49.058 37.526-19.687zm153.112 46.657-29.211-23.893-.383 36.827 29.594-12.934zm28.796 23.253-6.104-32.918-22.251 9.725 28.355 23.193zm-59.074 33.18.449-43.143-23.706 10.361-50.387 25.968 73.644 6.814z"/></g></g><g><circle transform="rotate(-13.094 80.313 86.082)" style="fill:#ebebeb" cx="80.297" cy="86.077" r="32.197"/><circle transform="rotate(-13.109 81.759 86.783)" style="fill:#dbdbdb" cx="81.772" cy="86.794" r="30.722"/><circle transform="rotate(-22.089 81.765 86.781)" style="fill:#fff" cx="81.772" cy="86.794" r="28.782"/><path style="opacity:.5;fill:#ebebeb" d="M109.902 80.686c-13.106 7.941-34.648 20.969-46.688 28.11a28.81 28.81 0 0 1-7.865-10.575l39.82-36.905c7.415 3.903 12.915 10.953 14.733 19.37zM110.534 87.799a28.561 28.561 0 0 1-1.902 9.353l-35.898 16.977a28.528 28.528 0 0 1-4.533-1.948 28507.569 28507.569 0 0 1 42.333-24.382z"/><path style="fill:#c7c7c7" d="M81.494 60.101h.556v4.363h-.556z"/><path transform="rotate(-29.998 69.51 65.56)" style="fill:#c7c7c7" d="M69.238 63.385h.557v4.363h-.557z"/><path transform="rotate(-59.994 60.546 74.537)" style="fill:#c7c7c7" d="M60.266 72.357h.556v4.363h-.556z"/><path style="fill:#c7c7c7" d="M55.079 86.516h4.362v.556h-4.362z"/><path transform="rotate(-30.006 60.539 99.043)" style="fill:#c7c7c7" d="M58.363 98.772h4.363v.556h-4.363z"/><path transform="rotate(-60.033 69.521 108.026)" style="fill:#c7c7c7" d="M67.335 107.744h4.362v.557h-4.362z"/><path style="fill:#c7c7c7" d="M81.494 109.124h.556v4.363h-.556z"/><path transform="rotate(-30 94.02 108.024)" style="fill:#c7c7c7" d="M93.749 105.841h.557v4.362h-.557z"/><path transform="rotate(-59.994 103 99.048)" style="fill:#c7c7c7" d="M102.722 96.868h.556v4.363h-.556z"/><path style="fill:#c7c7c7" d="M104.103 86.516h4.362v.556h-4.362z"/><path transform="rotate(-30.009 103.008 74.543)" style="fill:#c7c7c7" d="M100.819 74.26h4.363v.556h-4.363z"/><path transform="rotate(-60.033 94.026 65.567)" style="fill:#c7c7c7" d="M91.846 65.288h4.363v.557h-4.363z"/><g><path style="fill:#c7c7c7" d="m82.191 62.077.946 26.659-2.73-.033 1.042-26.635z"/><path style="fill:#a6a6a6" d="M98.797 77.497 80.86 88.945l-1.304-2.399 18.886-9.701z"/><circle style="fill:#c7c7c7" cx="81.772" cy="86.794" r=".932"/></g></g><g><ellipse style="fill:#ebebeb" cx="202.746" cy="451.918" rx="153.501" ry="18.45"/></g><g><path style="fill:#263238" d="m35.068 422.478 53.733-.243 53.733-.088L250 421.979l107.466.167 53.733.088 53.733.244-53.733.245-53.733.088-107.466.166-107.466-.167-53.733-.089z"/></g><g><path style="fill:#ffc727" d="M69.592 371.348c-.308-7.578-.184-15.17.312-22.737 1.024-15.608 3.594-31.094 7.122-46.323 1.986-8.572 4.432-17 6.981-25.418.077-.254.483-.183.412.082-7.881 29.676-14.347 60.301-13.902 91.15.125 8.633 1.124 17.113 1.944 25.692.022.23-.356.321-.408.085-1.626-7.341-2.156-15.033-2.461-22.531z"/><path style="fill:#ffc727" d="M84.42 276.953s11.939 30.304 9.266 37.427c-2.673 7.123-8.184 8.643-8.184 8.643s7.305 10.429 2.2 20.211c-5.105 9.782-16.447 9.32-17.2 20.41 0 0-.632-46.375 13.918-86.691z"/><path style="fill:#263238" d="M71.8 344.495a.232.232 0 0 1 .012-.159c1.676-20.605 5.332-41.147 11.581-60.962.018-.059.115-.04.098.021a438.885 438.885 0 0 0-6.269 26.738c1.55-1.597 3.578-2.515 5.699-3.178.04-.013.059.044.021.061-2.208.954-4.324 2.061-5.884 3.932a379.8 379.8 0 0 0-1.014 5.273c2.668-2.982 6.368-4.462 10.071-5.868.052-.02.08.06.029.081-3.856 1.57-7.697 3.592-10.31 6.915a350.483 350.483 0 0 0-2.398 15.138c1.95-2.038 4.358-3.408 7.119-4.08.083-.02.129.103.045.127-2.837.817-5.277 2.405-7.221 4.625-.014.016-.029.023-.044.034a342.614 342.614 0 0 0-.675 5.349c1.502-1.281 3.162-2.256 4.99-3.01.048-.02.075.056.027.076-1.857.79-3.527 1.93-4.998 3.308-.021.019-.042.017-.063.025a321.312 321.312 0 0 0-.569 5.096c2.737-3.299 6.122-5.685 10.126-7.23.078-.03.119.089.043.122-3.893 1.693-7.326 4.375-9.979 7.679a.223.223 0 0 1-.252.079 309.975 309.975 0 0 0-.681 7.836c-.003.036-.061.039-.059.003.151-2.677.338-5.355.555-8.031z"/><path style="fill:#263238" d="M81.393 303.943c2.071-1.423 4.702-2.03 7.173-2.236.059-.005.064.083.007.091-2.571.382-4.731 1.312-7.092 2.316-.104.044-.177-.109-.088-.171zM79.943 336.027c1.638-.983 3.507-1.539 5.385-1.842.065-.01.071.091.007.102-1.906.345-3.594 1.024-5.326 1.868-.074.037-.136-.085-.066-.128z"/><g><path style="fill:#ffc727" d="M38.206 314.875c4.979 3.5 9.757 7.537 13.819 12.08 4.329 4.841 7.487 10.337 9.692 16.435 4.517 12.495 6.994 26.03 7.22 39.308.127 7.444-.535 14.83-2.128 22.106-.058.264-.454.19-.413-.078a123.985 123.985 0 0 0-.216-38.641c-2.053-12.536-5.273-26.176-13.242-36.364-4.339-5.548-9.749-9.912-15.098-14.423-.283-.237.076-.627.366-.423z"/><path style="fill:#ffc727" d="M67.179 373.671s-4.101-6.905-10.073-12.876c-5.972-5.971-11.003-10.215-11.78-14.164-.776-3.949 5.983-6.858 5.983-6.858s-8.265 1.484-10.527-1.985c-2.261-3.469-3.353-23.559-3.353-23.559s15.037 10.735 22.042 25.784c7.006 15.048 7.708 33.658 7.708 33.658z"/><path style="fill:#263238" d="M42.632 319.379c6.327 6.214 12.694 12.836 16.42 21 1.277 2.799 2.364 5.701 3.321 8.659.003.005.002.009.005.014.192.594.387 1.186.568 1.784.018.03.028.063.03.098 1.842 6.097 3.144 12.402 4.271 18.561.007.04-.053.061-.061.02-.648-3.135-1.362-6.3-2.161-9.456a.23.23 0 0 1-.09-.018 13.186 13.186 0 0 0-3.946-1.002c-.09-.008-.083-.164.008-.16a14.79 14.79 0 0 1 3.903.712 153.12 153.12 0 0 0-2.41-8.48 41.91 41.91 0 0 0-8.918-1.166c-.03-.001-.036-.047-.004-.048 3.009-.14 5.838.119 8.769.744-.155-.48-.317-.957-.477-1.435-1.96-.447-3.929-.822-5.935-1.005-.036-.003-.033-.065.003-.064 1.964.053 3.899.259 5.811.706a104.085 104.085 0 0 0-2.683-7.132c-.811-1.923-1.776-3.749-2.839-5.512-1.608-.364-3.166-.711-4.814-.858-.046-.004-.041-.077.004-.08 1.495-.097 3.054.015 4.5.444a57.565 57.565 0 0 0-2.511-3.741h-.001c-3.372-.747-6.79-1.44-10.239-.792-.06.011-.082-.089-.023-.104 3.284-.864 6.543-.365 9.81.281a69.698 69.698 0 0 0-1.09-1.409c-2.07-.64-4.129-.95-6.3-.989-.044-.001-.052-.065-.006-.07a16.456 16.456 0 0 1 5.874.521c-2.788-3.464-5.867-6.716-8.911-9.934-.138-.149-.028-.236.122-.089z"/><path style="fill:#263238" d="M42.8 333.074c.99-.105 1.996-.216 2.991-.104.12.014.11.21-.011.213-.99.029-1.98-.045-2.97.009-.076.004-.086-.11-.01-.118zM53.622 352.564c1.58-.019 3.158.406 4.634.93.037.013.016.075-.022.066-1.531-.365-3.078-.512-4.624-.767-.126-.021-.12-.228.012-.229zM56.866 345.831c.641-.034 1.335.079 1.967.178.065.01.062.116-.006.117-.639.011-1.342.028-1.972-.092-.111-.022-.106-.197.011-.203z"/></g><g><path style="fill:#ffc727" d="M111.258 336.195c-4.839 1.682-9.638 3.845-13.975 6.582-4.622 2.917-8.448 6.635-11.642 11.061-6.544 9.068-11.676 19.449-14.928 30.143-1.823 5.995-2.994 12.125-3.387 18.382-.014.227.323.259.352.033a104.357 104.357 0 0 1 9.106-31.222c4.559-9.671 10.318-19.964 19.122-26.368 4.794-3.487 10.181-5.768 15.552-8.183.282-.127.081-.525-.2-.428z"/><path style="fill:#ffc727" d="M74.221 377.081s4.914-4.64 11.128-8.092c6.214-3.452 11.266-5.724 12.807-8.74 1.541-3.017-3.257-6.933-3.257-6.933s6.346 3.111 8.978.827c2.632-2.284 8.159-18.291 8.159-18.291s-14.65 5.212-23.798 15.772c-9.149 10.559-14.017 25.457-14.017 25.457z"/><path style="fill:#263238" d="M74.983 373.78c7.327-13.753 17.104-26.195 30.501-34.408.006-.004.012.005.006.009-3.527 2.247-6.777 4.84-9.806 7.673 2.712-.075 5.473.357 7.877 1.663.053.029.015.101-.04.082-2.68-.906-5.254-1.502-8.104-1.37-.039.002-.064-.018-.092-.034-.476.451-.945.909-1.409 1.372 1.41.06 2.836.26 4.209.559.037.008.026.065-.011.058-1.487-.287-2.937-.388-4.446-.367-2.455 2.467-4.742 5.106-6.91 7.846a7.024 7.024 0 0 1 2.943.214c.069.02.052.12-.021.111-1.068-.135-2.082-.117-3.142-.043-.401.51-.806 1.018-1.199 1.535a28.454 28.454 0 0 1 8.892.864c.043.011.031.078-.013.069a35.777 35.777 0 0 0-9.132-.593c-.374.496-.728 1.006-1.094 1.507 1.798-.055 3.54.17 5.293.606.067.017.048.121-.021.106-1.803-.411-3.636-.514-5.479-.427a148.112 148.112 0 0 0-4.537 6.638c.768-.158 1.575-.072 2.323.14.04.011.029.068-.012.064-.862-.101-1.667.01-2.514.119a175.983 175.983 0 0 0-3.775 6.146c-.102.173-.384.044-.287-.139z"/><path style="fill:#263238" d="M86.381 362.372c1.432-.123 2.888.102 4.257.521.039.012.03.071-.012.064-1.409-.26-2.805-.358-4.233-.434-.094-.006-.112-.143-.012-.151zM99.16 345.611c.648-.074 1.323.011 1.963.114.076.012.052.124-.022.116-.645-.069-1.282-.045-1.927-.064-.106-.003-.123-.153-.014-.166z"/></g><g><path style="fill:#455a64" d="M55.325 422.561h33.069l-4.715-34.541-1.205-8.856H61.245l-1.205 8.856z"/><path style="fill:#263238" d="M60.04 388.02h23.639l-1.205-8.856H61.245z"/><path transform="rotate(-180 71.86 379.842)" style="fill:#455a64" d="M58.209 376.092h27.3v7.501h-27.3z"/></g></g><g><path style="fill:#f7a9a0" d="M261.601 458.996c-2.158.697-63.685-.101-66.007-1.621-.892-.562-1.299-9.534-1.478-20.389a38.536 38.536 0 0 1-.002-.34c-.042-2.237-.071-4.54-.075-6.875a34.262 34.262 0 0 0-.012-.963l2.986-31.919 41.158.412-4.062 31.619-.047 1.252-.248 6.545-.024.673s23.414 10.839 25.792 12.779c2.359 1.934 4.178 8.14 2.019 8.827z"/><path style="fill:#ebebeb" d="M261.601 458.996c-2.158.697-63.685-.101-66.007-1.621-.892-.562-1.299-9.534-1.478-20.389a38.536 38.536 0 0 1-.002-.34c-.042-2.237-.071-4.54-.075-6.875a34.262 34.262 0 0 0-.012-.963l40.082.113-.047 1.252-.248 6.545-.024.673s23.414 10.839 25.792 12.779c2.359 1.933 4.178 8.139 2.019 8.826z"/><path style="fill:#ffc727" d="M261.606 458.992c-1.111.358-17.826.32-34.166-.009a1356.45 1356.45 0 0 1-9.666-.226c-11.652-.32-21.281-.8-22.175-1.384-.885-.555-1.29-9.28-1.468-19.935 0-.151-.009-.301-.009-.452 0-.113 0-.235-.009-.348h.047l39.653.075-.019.678s23.417 10.833 25.789 12.772c2.362 1.94 4.179 8.142 2.023 8.829z"/><path style="fill:#263238" d="M260.936 456.602c-10.368-.389-52.224-.98-62.502-.577-.084.003-.084.06-.001.065 10.268.61 52.127.862 62.501.682.218-.004.22-.162.002-.17zM238.23 436.888c-4.071-.815-9.071-.253-12.227 2.615-.122.111.037.283.17.243 4.043-1.217 7.814-1.983 12.034-2.343.298-.024.315-.456.023-.515zM241.153 438.702c-4.072-.815-9.071-.253-12.228 2.615-.122.111.038.283.17.243 4.043-1.217 7.814-1.983 12.035-2.342.298-.026.315-.458.023-.516zM244.076 440.516c-4.072-.815-9.071-.253-12.228 2.615-.123.111.037.283.17.243 4.043-1.217 7.814-1.983 12.035-2.342.298-.026.315-.458.023-.516z"/><path style="fill:#263238" d="M227.441 458.983a1356.45 1356.45 0 0 1-9.666-.226c-11.652-.32-21.281-.8-22.175-1.384-.885-.555-1.29-9.28-1.468-19.935 0-.151-.009-.301-.009-.452 0-.113 0-.235-.009-.348h.047c5.429 3.812 24.573 16.556 33.28 22.345z"/><g><path style="fill:#263238" d="M236.514 436.855h-44.312s8.923-103.495 8.575-105.302c-.442-2.315-3.059-12.791-6.541-26.476a7491.612 7491.612 0 0 0-3.492-13.638 18249.74 18249.74 0 0 0-10.118-39.192c-4.762-18.344-8.48-32.594-8.48-32.594H209.7s4.377 13.873 9.892 31.926c8.988 29.337 20.998 69.715 22.184 79.532 1.919 15.85-5.262 105.744-5.262 105.744z"/><path style="fill:#37474f" d="M234.551 429.295c-6.767-.141-4.823-.196-11.592-.261-3.312-.032-25.078-.222-28.172.291-.068.011-.068.126 0 .138 3.095.513 24.86.323 28.172.291 6.769-.065 4.824-.12 11.592-.261.127-.003.127-.196 0-.198zM209.114 325.228c-1.453-6.406-3.624-12.683-5.514-18.97a13831.599 13831.599 0 0 0-11.591-38.306 5781.87 5781.87 0 0 0-5.845-19.138c-.991-3.219-1.98-6.439-2.988-9.653-.986-3.145-2.108-6.263-2.998-9.436-.362-1.291-.56-.582-.096 1.057.934 3.305 1.857 6.614 2.821 9.91a6088.874 6088.874 0 0 0 5.762 19.577c3.841 12.982 7.735 25.949 11.624 38.917 1.95 6.501 3.913 12.999 5.866 19.5.933 3.107 1.846 6.231 2.395 9.433.572 3.34.603 6.717.391 10.092-.425 6.779-1.21 13.549-1.836 20.313l-1.882 20.334c-1.248 13.489-2.498 26.977-3.712 40.469a400.28 400.28 0 0 0-.435 5.132c-.044.573.822.529.882-.022 1.459-13.338 2.579-26.719 3.831-40.078 1.246-13.293 2.493-26.586 3.735-39.879.312-3.337.667-6.681.67-10.036.001-3.113-.392-6.183-1.08-9.216z"/></g><path style="fill:#37474f" d="M205.435 219.653c-2.607 20.17-7.577 57.988-11.2 85.424-8.471-33.243-22.09-85.424-22.09-85.424h33.29z"/><g><path style="fill:#f7a9a0" d="M214.659 459.589c-2.156.704-63.685.131-66.012-1.38-.894-.559-1.333-9.529-1.553-20.383l-.004-.34a399.56 399.56 0 0 1-.1-6.875 34.243 34.243 0 0 0-.015-.963c-.143-15.665.987-31.919.987-31.919l40.218.262-1.123 31.624-.043 1.252-.224 6.546-.022.673s23.453 10.754 25.839 12.685c2.367 1.923 4.209 8.123 2.052 8.818z"/><path style="fill:#ebebeb" d="M214.659 459.589c-2.156.704-63.685.131-66.012-1.38-.894-.559-1.333-9.529-1.553-20.383l-.004-.34a399.56 399.56 0 0 1-.1-6.875 34.243 34.243 0 0 0-.015-.963l40.082-.034-.043 1.252-.224 6.546-.022.673s23.453 10.754 25.839 12.685c2.367 1.924 4.209 8.124 2.052 8.819z"/><path style="fill:#ffc727" d="M214.659 459.589c-2.156.704-63.685.131-66.012-1.38-.894-.559-1.333-9.529-1.553-20.383l-.004-.34 39.7-.073-.022.673s23.453 10.754 25.839 12.685c2.367 1.923 4.209 8.123 2.052 8.818z"/><path style="fill:#263238" d="M213.985 457.197c-10.37-.351-52.227-.79-62.504-.349-.084.004-.084.06 0 .065 10.27.573 52.13.672 62.503.454.219-.005.22-.163.001-.17zM191.208 437.567c-4.074-.8-9.072-.22-12.218 2.659-.122.111.039.283.171.243 4.038-1.232 7.806-2.012 12.026-2.386.298-.027.313-.459.021-.516zM194.138 439.37c-4.074-.8-9.072-.22-12.218 2.659-.122.112.039.283.171.243 4.039-1.232 7.807-2.012 12.026-2.386.297-.027.313-.459.021-.516zM197.068 441.173c-4.075-.8-9.072-.22-12.218 2.659-.122.112.038.283.171.243 4.039-1.232 7.807-2.012 12.026-2.386.297-.027.312-.459.021-.516z"/><g><path style="fill:#263238" d="M208.485 219.653s-.866 17.967-4.979 32.199a58.853 58.853 0 0 1-1.073 3.445s-4.282 1.553-10.824 5.562c0 0-.433 14.457-.866 30.58-.48 18.024-.979 38.128-.875 42.392.376 15.953-1.995 103.674-1.995 103.674l-44.303.179s8.01-97.961 7.953-103.806c-.085-9.393 2.146-50.91 3.868-81.188 1.054-18.655 1.92-33.036 1.92-33.036h51.174z"/><path style="fill:#37474f" d="M186.354 429.624c-6.768-.112-4.824-.175-11.593-.212-3.313-.018-25.079-.115-28.171.411-.068.012-.068.127 0 .138 3.097.499 24.861.217 28.173.171 6.768-.094 4.824-.141 11.59-.311.129-.003.128-.195.001-.197zM161.034 226.073c-.815 24.717-1.68 49.436-2.785 74.142-1.109 24.791-2.604 49.573-4.678 74.303-1.159 13.816-2.251 33.251-3.742 47.036-.01.093.131.126.144.032 3.226-24.518 5.024-54.836 6.61-79.509 1.586-24.67 2.661-49.382 3.502-74.087.476-13.975.839-27.955 1.257-41.932.007-.2-.301-.182-.308.015z"/></g><g><path style="fill:#37474f" d="M204.275 254.226c-4.411 1.752-8.635 4.144-12.665 6.634-.158.098-.039.345.133.261 4.274-2.076 8.638-4.076 12.792-6.385.325-.181.078-.644-.26-.51z"/></g><path style="fill:#37474f" d="M204.523 238.982c-.293 1.575-.675 3.133-1.015 4.699-.319 1.468-.554 2.967-.942 4.418-.377 1.408-.976 2.699-2.058 3.703-.576.535-1.211 1.009-1.825 1.5-.331.264-.689.518-1.033.786.045-.208.081-.419.118-.634a268.337 268.337 0 0 0 .944-5.776c.399-2.613.767-5.253 1.313-7.84.022-.105-.136-.146-.163-.041-.651 2.563-1.37 5.099-1.936 7.684-.278 1.268-1.27 7.527-1.314 7.97-.046.458-.084.916-.1 1.376-.016.453-.106.96-.002 1.405.027.114.165.096.213.018l.007.005c.228-.399.285-.919.398-1.361.115-.447.216-.9.296-1.354.029-.164.052-.332.075-.499.616-.375 1.19-.87 1.767-1.287.621-.45 1.254-.888 1.842-1.383 1.125-.948 1.829-2.109 2.248-3.513.435-1.457.569-2.994.737-4.499.199-1.779.344-3.567.593-5.339.015-.102-.143-.146-.163-.038z"/></g><g><path style="fill:#f7a9a0" d="M184.629 173.295c6.12 10.19 32.229 32.192 41.427 32.716 6.653.379 29.744-17.876 35.943-24.294 5.981-6.192-15.719-23.023-19.482-19.631-5.313 4.788-16.931 18.581-19.501 19.02-1.803.308-12.908-4.9-30.136-14.72-9.534-5.436-11.905.826-8.251 6.909z"/><path style="fill:#f7a9a0" d="M250.288 152.404c3.702-2.087 7.781-4.778 12.182-5.464 4.4-.686 9.056 4.466 9.347 6.123.291 1.658.448 12.289-3.938 13.058-4.386.769-3.13-7.639-3.455-8.521-.325-.881-.695-2.016-1.507-1.786-.813.231-14.09 9.637-14.09 9.637l1.461-13.047z"/><path style="fill:#f7a9a0" d="M250.674 152.96c.248-.044 11.187-6.737 15.587-7.423 4.4-.686 9.056 4.466 9.347 6.123.29 1.658.448 12.289-3.938 13.058-4.386.769-3.13-7.639-3.455-8.521-.325-.881-.694-2.016-1.507-1.786-.813.231-14.09 9.637-14.09 9.637l-1.944-11.088z"/><path style="fill:#263238" d="M270.085 164.423c-.662-.599-.938-1.625-1.184-2.463-.269-.915-.358-1.878-.332-2.829.023-.827.225-1.68.11-2.505-.106-.763-.539-1.616-1.018-2.212-.447-.556-1.054-.233-1.573.06-.765.431-1.49.977-2.196 1.496-.765.562-1.518 1.143-2.274 1.717-.777.591-1.606 1.159-2.301 1.846-.052.051.005.149.075.11.72-.401 1.376-.918 2.05-1.391.764-.537 1.532-1.068 2.308-1.589.724-.487 1.423-1.013 2.154-1.487.259-.167.765-.564 1.095-.549.349.016.658.81.779 1.064.382.8.352 1.539.263 2.397a12.572 12.572 0 0 0-.032 2.484c.072.762.239 1.563.583 2.253.331.663.905 1.145 1.376 1.703.066.079.191-.038.117-.105z"/><path style="fill:#f7a9a0" d="M238.78 166.91s10.213-13.207 12.357-15.851c4.302-5.303 24.149-17.782 27.072-18.619 2.924-.838 5.07 5.082-8.327 13.969-7.061 4.684-7.654 9.302-7.083 11.704.571 2.402 3.681 6.519 7.744 5.693 4.063-.826 5.667-7.248 9.302-8.568 3.635-1.32 2.363 5.99.411 10.426s-6.183 8.554-9.481 10.497c-3.299 1.943-13.401 8.566-13.401 8.566L238.78 166.91z"/><path style="fill:#263238" d="M275.107 160.048c-1.328 1.46-2.8 3.307-4.81 3.738-2.078.445-3.674-.675-4.944-2.208-1.28-1.547-2.192-3.407-2.061-5.458.118-1.847.899-3.598 1.994-5.069 1.356-1.821 3.079-3.299 4.886-4.65.081-.06-.02-.175-.105-.118-1.732 1.169-7.155 4.585-7.419 9.951-.108 2.192.855 3.962 2.146 5.553 1.189 1.466 2.781 2.803 4.788 2.617 2.447-.227 4.179-2.553 5.655-4.32.065-.079-.061-.113-.13-.036z"/><g><path style="fill:#455a64" d="m242.083 162.464 16.818 30.343s-25.156 14.83-33.281 14.025c-8.124-.805-31.811-20.03-41.073-32.6-5.638-7.652-1.672-14.13 9.321-8.398 11.295 5.89 27.138 14.003 28.27 14.198 1.13.196 19.945-17.568 19.945-17.568z"/><path style="fill:#fff" d="M225.746 186.529c.29.656.543 1.328.642 2.071-.499-.56-.843-1.19-1.151-1.837-.289-.656-.542-1.329-.642-2.071.497.56.842 1.19 1.151 1.837zm21.429-8.626c.1.742.353 1.415.642 2.071.308.647.653 1.278 1.151 1.837-.099-.743-.352-1.415-.642-2.071-.309-.647-.654-1.277-1.151-1.837zm-46.104-4.878c.1.743.353 1.415.642 2.071.308.647.653 1.278 1.151 1.837-.099-.743-.352-1.416-.642-2.071-.309-.646-.653-1.277-1.151-1.837zm25.284 28.061c.742-.1 1.415-.353 2.071-.642.647-.308 1.277-.653 1.837-1.152-.743.099-1.416.352-2.071.642-.646.31-1.276.655-1.837 1.152zm24.816-8.663c.742-.1 1.415-.353 2.071-.642.647-.308 1.277-.653 1.837-1.151-.743.099-1.415.352-2.071.642-.647.308-1.277.653-1.837 1.151zm-11.253-23.827c.742-.1 1.415-.353 2.071-.642.647-.308 1.277-.653 1.837-1.151-.743.099-1.415.352-2.071.642-.646.308-1.276.653-1.837 1.151zm-27.846 13.215c-.454.596-.751 1.25-1.011 1.918-.24.675-.442 1.365-.485 2.113.455-.595.752-1.25 1.011-1.918.238-.675.44-1.365.485-2.113zm26.257 4.852c-.454.596-.751 1.25-1.011 1.918-.24.675-.442 1.365-.485 2.113.455-.596.752-1.25 1.011-1.918.239-.675.441-1.365.485-2.113zm-46.531-12.392c-.454.596-.751 1.25-1.011 1.918-.24.676-.442 1.365-.485 2.113.455-.596.752-1.25 1.011-1.918.239-.675.441-1.365.485-2.113zm8.538 14.247c-.596-.454-1.25-.751-1.918-1.011-.675-.24-1.365-.442-2.113-.485.595.455 1.25.752 1.918 1.011.675.239 1.365.441 2.113.485zm35.074-10.837c-.596-.454-1.25-.751-1.919-1.011-.675-.24-1.365-.442-2.113-.485.596.455 1.25.752 1.918 1.011.676.239 1.365.441 2.114.485zm-17.075 16.979c-.596-.454-1.25-.751-1.918-1.011-.676-.24-1.365-.442-2.113-.485.595.455 1.25.752 1.918 1.011.675.238 1.365.44 2.113.485zm26.44 4.323c-.596-.454-1.25-.751-1.918-1.011-.676-.24-1.365-.442-2.114-.485.595.455 1.25.752 1.918 1.01.676.24 1.366.442 2.114.486z"/><path style="fill:#263238" d="M243.773 182.075c-1.1-2.304-5.439-11.551-6.34-13.93-.015-.038.042-.074.065-.037 1.304 2.102 5.852 11.101 6.959 13.407 2.206 4.597 4.521 9.175 6.212 13.994.03.085-.095.168-.145.082-2.549-4.347-4.582-8.975-6.751-13.516zM184.545 174.232c7.511 10.187 24.489 24.747 34.976 30.324L187.35 163.68h-.011c-5.792-.483-7.113 4.685-2.794 10.552z"/></g><g><path style="fill:#455a64" d="M152.693 246.348c.162.158 65.078-4.284 65.621-4.992.759-.997-19.785-66.963-24.934-76.655-2.195-4.13-12.691-4.723-16.841-.821-10.389 9.77-17.619 41.361-19.139 50.833-2.525 15.607-5.285 31.063-4.707 31.635z"/><path style="fill:#fff" d="M184.797 184.575c.29.656.543 1.328.642 2.071-.499-.56-.843-1.19-1.151-1.837-.289-.656-.541-1.329-.642-2.071.496.56.841 1.19 1.151 1.837zm6.282 24.996c.1.742.353 1.415.642 2.071.308.647.653 1.278 1.152 1.837-.099-.743-.352-1.416-.642-2.071-.31-.646-.655-1.276-1.152-1.837zm7.365 29.2c.1.743.353 1.415.642 2.071.308.647.653 1.278 1.152 1.837-.099-.743-.352-1.416-.642-2.071-.31-.646-.655-1.276-1.152-1.837zm-30.014-35.613c.1.743.353 1.415.642 2.071.308.647.653 1.277 1.152 1.837-.099-.743-.352-1.416-.642-2.071-.31-.647-.655-1.277-1.152-1.837zm-9.456 19.048c.1.743.353 1.415.642 2.071.308.647.653 1.277 1.152 1.837-.099-.743-.352-1.416-.642-2.071-.309-.646-.654-1.277-1.152-1.837zm25.568 10.598c.1.742.353 1.415.642 2.071.308.647.653 1.278 1.152 1.837-.099-.743-.352-1.415-.642-2.071-.31-.647-.655-1.277-1.152-1.837zm19.248-34.569c.1.743.353 1.415.642 2.071.308.647.653 1.278 1.152 1.837-.099-.743-.352-1.416-.642-2.071-.309-.646-.654-1.276-1.152-1.837zm-27.902-3.426c.742-.1 1.415-.353 2.071-.642.647-.308 1.278-.653 1.837-1.151-.743.099-1.416.352-2.071.642-.647.308-1.277.653-1.837 1.151zm-5.894 23.73c.743-.1 1.415-.353 2.071-.642.647-.308 1.278-.653 1.837-1.151-.743.099-1.416.352-2.071.642-.646.308-1.276.653-1.837 1.151zm3.129 26.495c.387-.021.763-.054 1.15-.075.15-.064.29-.129.441-.193.645-.312 1.279-.656 1.837-1.15-.741.097-1.418.355-2.074.645a8.043 8.043 0 0 0-1.354.773zm24.263-22.388c.743-.1 1.415-.353 2.071-.642.647-.308 1.277-.653 1.837-1.151-.743.099-1.416.352-2.071.642-.646.308-1.276.653-1.837 1.151zM175.888 174.3c.742-.1 1.415-.353 2.071-.642.647-.308 1.277-.653 1.837-1.151-.743.099-1.416.352-2.071.642-.647.309-1.277.654-1.837 1.151zm-5.814 3.449c-.454.596-.751 1.25-1.011 1.918-.24.675-.442 1.365-.485 2.113.455-.596.752-1.25 1.011-1.918.239-.676.441-1.365.485-2.113zm-8.707 30.316c-.454.596-.751 1.25-1.011 1.919-.24.675-.442 1.365-.485 2.113.455-.595.752-1.25 1.011-1.918.238-.677.44-1.366.485-2.114zm.747 27.3c-.454.596-.751 1.25-1.011 1.918-.24.675-.442 1.365-.485 2.113.455-.596.752-1.25 1.011-1.919.239-.675.441-1.364.485-2.112zm30.883-40.115c-.454.596-.751 1.25-1.011 1.918-.24.675-.442 1.365-.485 2.113.455-.595.752-1.25 1.011-1.918.238-.675.44-1.365.485-2.113zm-9.462 24.524c-.454.596-.751 1.25-1.011 1.918-.24.676-.442 1.365-.485 2.113.456-.595.752-1.25 1.011-1.918.239-.675.44-1.365.485-2.113zm25.698 10c-.454.596-.751 1.25-1.01 1.918-.24.675-.442 1.365-.485 2.113.455-.595.752-1.25 1.011-1.918.238-.675.439-1.365.484-2.113zm-17.435-55.503c-.454.596-.751 1.25-1.011 1.918-.24.676-.442 1.365-.485 2.113.455-.596.752-1.25 1.011-1.918.239-.675.441-1.365.485-2.113zm8.538 14.247c-.596-.454-1.25-.751-1.918-1.011-.675-.24-1.365-.442-2.113-.485.595.455 1.25.752 1.918 1.011.675.239 1.365.441 2.113.485zm-26.175 42.752c-.596-.454-1.25-.751-1.918-1.011-.676-.24-1.365-.442-2.114-.485.596.455 1.25.752 1.918 1.011.676.239 1.366.44 2.114.485zm34.465-18.33c-.596-.454-1.25-.751-1.918-1.011-.676-.24-1.365-.442-2.113-.485.595.455 1.25.752 1.918 1.011.675.238 1.365.44 2.113.485zm-45.432-22.095c.505.333 1.053.58 1.612.795.677.236 1.365.441 2.117.484-.602-.451-1.246-.752-1.923-1.01-.559-.193-1.139-.376-1.751-.441a.723.723 0 0 0-.055.172zm31.125 40.425c-.596-.454-1.25-.751-1.918-1.011-.675-.24-1.365-.442-2.113-.485.595.455 1.25.752 1.918 1.011.676.239 1.365.44 2.113.485zm-9.777-26.617c-.596-.454-1.25-.751-1.918-1.011-.675-.24-1.365-.442-2.113-.485.595.455 1.25.752 1.918 1.011.675.239 1.365.441 2.113.485z"/></g><path style="fill:#263238" d="M193.777 165.758c-.007-.03-.052-.024-.048.008.384 2.933 1.082 9.746-3.565 9.648-1.872-.04-3.648-1.085-5.143-2.126-1.535-1.069-2.923-2.336-4.192-3.706-1.409-1.521-2.861-3.117-3.999-4.852-.048-.074-.159.014-.107.088 1.219 1.725 2.261 3.533 3.646 5.142 1.333 1.549 2.827 2.973 4.531 4.109 1.596 1.065 3.482 2.101 5.458 2.048 1.88-.049 3.165-1.3 3.596-3.068.565-2.324.345-4.984-.177-7.291z"/><g><path style="fill:#a6a6a6" d="m201.581 238.689 33.631 7.89 17.522-46.107-33.631-7.891z"/><path style="fill:#c7c7c7" d="m203.233 239.076 33.631 7.891 17.522-46.108-33.631-7.89z"/><path style="fill:#fff" d="M233.715 218.921c-.582 1.769-2.518 2.86-4.325 2.436-1.807-.424-2.799-2.202-2.217-3.971.582-1.77 2.518-2.86 4.325-2.436 1.806.424 2.799 2.202 2.217 3.971z"/><g><path style="fill:#f7a9a0" d="M170.26 170.393c-9.726 13.541-30.648 44.464-24.475 51.609 10.15 11.747 34.924 22.034 42.686 24.359 3.35 1.004 15.341-23.341 12.182-25.342-3.79-2.401-28.062-11.936-28.181-13.112-.131-1.291 4.414-17.944 5.906-31.088 1.855-16.312-4.06-12.075-8.118-6.426z"/><path style="fill:#f7a9a0" d="M188.452 219.315s10.208-2.993 16.976-4.637c3.776-.917 10.389-1.912 13.471-1.317 4.61.89 23.321 7.557 21.802 12.129-1.375 4.138-16.723-3.631-16.723-3.631s16.18 6.47 13.609 11.149c-2.572 4.678-18.745-6.406-18.745-6.406s16.475 7.021 13.061 11.426c-2.581 3.329-17.795-5.885-17.795-5.885s14.119 6.133 11.613 9.67c-2.77 3.909-17.347-3.714-17.347-3.714-7.885 7.92-14.727 8.975-19.901 8.262-1.207-.166-.021-27.046-.021-27.046z"/><path style="fill:#263238" d="M219.281 219.592c12.282 3.856 17.124 9.51 16.965 9.386-3.758-2.932-10.369-6.115-12.23-6.976-1.856-.858-2.914-1.48-4.771-2.341-.046-.02-.011-.083.036-.069zM215.297 225.923c5.933 1.448 12.118 5.005 14.057 6.564.156.126.067.16-.114.07-2.336-1.159-11.591-5.537-13.97-6.578-.038-.017-.011-.066.027-.056zM211.499 231.141c5.208 1.694 7.37 2.978 10.733 5.403.161.116.02.168-.161.074-3.534-1.863-6.293-3.35-10.619-5.345-.067-.032-.034-.158.047-.132z"/></g><g><path style="fill:#455a64" d="m193.188 217.254-13.664 29.14s-32.575-17.553-35.034-25.806c-2.46-8.253 19.692-44.527 26.42-51.928 6.728-7.401 8.914-4.368 8.723 4.076-.191 8.444-6.826 34.761-6.665 35.253.161.493 20.22 9.265 20.22 9.265z"/><path style="fill:#fff" d="M169.581 204.995c.29.656.543 1.328.642 2.071-.499-.56-.844-1.19-1.152-1.837-.288-.656-.541-1.329-.642-2.071.498.56.843 1.19 1.152 1.837zm-15.394-6.76c.1.743.353 1.415.642 2.071.308.647.653 1.278 1.152 1.837-.099-.743-.352-1.416-.642-2.071-.31-.646-.654-1.276-1.152-1.837zm4.787 23.971c.1.743.353 1.415.642 2.071.308.647.653 1.277 1.152 1.837-.099-.743-.352-1.416-.642-2.071-.309-.646-.654-1.277-1.152-1.837zm25.569 10.594c.087.641.282 1.224.515 1.788l.291-.622a6.534 6.534 0 0 0-.806-1.166zm-14.549-14.261c.743-.1 1.415-.353 2.071-.642.647-.308 1.278-.653 1.837-1.151-.743.099-1.416.352-2.071.642-.646.308-1.276.653-1.837 1.151zm5.194 25.434c.175.097.33.194.495.282.301-.194.593-.398.865-.641a5.74 5.74 0 0 0-1.36.359zm.7-69.673c.742-.1 1.415-.353 2.071-.642.647-.308 1.277-.653 1.837-1.151-.743.099-1.416.352-2.071.642-.647.309-1.277.654-1.837 1.151zm-5.814 3.449c-.454.596-.751 1.25-1.011 1.918-.24.675-.442 1.365-.485 2.113.455-.596.752-1.25 1.011-1.918.239-.676.441-1.365.485-2.113zm-8.707 30.316c-.454.596-.751 1.25-1.011 1.919-.24.675-.442 1.365-.485 2.113.455-.595.752-1.25 1.011-1.918.238-.677.44-1.366.485-2.114zm-11.013 10.772c-.454.596-.751 1.25-1.011 1.918-.24.675-.442 1.365-.485 2.113.455-.596.752-1.25 1.011-1.918.239-.676.441-1.366.485-2.113zm11.437 17.004c.078.058.165.107.243.165.039-.214.068-.427.078-.641a5.087 5.087 0 0 0-.321.476zm21.744-16.067c-.454.596-.751 1.25-1.011 1.918-.24.676-.442 1.365-.485 2.113.456-.595.752-1.25 1.011-1.918.239-.675.44-1.365.485-2.113zm-9.374 11.496c-.596-.454-1.25-.751-1.918-1.011-.676-.24-1.365-.442-2.114-.485.596.455 1.25.752 1.918 1.011.676.239 1.366.44 2.114.485zm-10.967-40.425c.505.333 1.053.58 1.612.795.677.236 1.365.441 2.117.484-.602-.451-1.246-.752-1.923-1.01-.559-.193-1.139-.376-1.751-.441a.723.723 0 0 0-.055.172zm-16.2 20.698c.505.333 1.053.58 1.612.795.677.236 1.365.441 2.117.483-.602-.451-1.246-.752-1.923-1.01-.559-.193-1.139-.376-1.752-.441-.021.055-.043.109-.054.173z"/><path style="fill:#263238" d="M175.392 195.559c.442-1.973.874-3.949 1.291-5.928.217-1.028.429-2.057.661-3.082.107-.472.21-.946.317-1.418.053-.233.13-.469.169-.706.142-.869.014-.099.236-.937.014-.054.104-.041.098.016-.057.545.056.327-.05.74-.079.309-.114.618-.161.934-.071.478-.149.955-.224 1.433a96.849 96.849 0 0 1-.518 2.927c-.024.128-.052.256-.077.384l.034-.106c.362-1.056.736-2.107 1.109-3.159.017-.047.085-.026.074.022a35.293 35.293 0 0 1-.89 3.225 29.087 29.087 0 0 1-.686 1.813c-.256 1.3-.506 2.601-.78 3.897-.848 4.014-1.722 8.052-2.889 11.987 1.705.778 3.446 1.479 5.149 2.264 1.709.787 3.407 1.598 5.107 2.405 1.698.806 3.399 1.608 5.083 2.444.803.399 1.599.814 2.399 1.221.87.443 1.693.985 2.57 1.407.09.043.008.172-.081.131-.913-.421-1.886-.723-2.81-1.124-.811-.352-1.627-.697-2.434-1.059-1.718-.77-3.424-1.57-5.13-2.367-1.705-.797-3.411-1.59-5.106-2.406-1.691-.814-3.341-1.713-5.028-2.532a.193.193 0 0 1-.106-.125c-.065-.05-.115-.122-.093-.226.839-4.041 1.863-8.046 2.766-12.075zM179.604 228.75c1.017-2.111 5.145-10.527 6.331-12.538.019-.033.077-.013.064.026-.755 2.14-4.586 10.565-5.601 12.681-2.023 4.219-3.971 8.505-6.45 12.483-.044.07-.174.029-.142-.057 1.647-4.321 3.793-8.434 5.798-12.595zM156.081 231.981c.745.428 1.451.954 2.156 1.445.735.512 1.474 1.017 2.21 1.528 1.444 1.003 2.892 2.042 4.427 2.902.086.048.005.18-.081.131-1.557-.894-3.14-1.72-4.65-2.696-1.438-.93-2.955-1.967-4.143-3.21-.054-.054.016-.137.081-.1z"/></g></g><g><path style="fill:#f7a9a0" d="M190.196 172.261c-3.302.555-9.243-5.239-11.181-9.411-.131-.287.483-3.168 1.065-6.705.344-2.148.677-4.547.823-6.759l13.648 4.283s-1.669 4.546-1.899 8.403c-.016.323-.004.624.036.914.002.042.011.093.01.152.167 1.742.689 8.585-2.502 9.123z"/><path style="fill:#263238" d="M192.685 162.988c0 .039.01.087.01.146a8.776 8.776 0 0 1-1.428-.01c-8.015-.709-9.258-10.657-9.443-13.446l3.41 1.069 9.317 2.924s-1.671 4.547-1.894 8.404c-.021.321-.011.622.028.913z"/><g><path style="fill:#263238" d="M195.18 126.93s4.942 1.237 6.5 5.837c1.557 4.6 1.219 9.719.846 10.022-.372.304-7.346-15.859-7.346-15.859z"/><path style="fill:#f7a9a0" d="M178.383 135.984c-.875 5.078 3.491 18.878 7.367 21.588 5.618 3.929 13.928 3.323 17.042-3.227 3.018-6.35-2.989-24.233-7.236-26.605-6.254-3.493-15.881.742-17.173 8.244z"/><path style="fill:#263238" d="M193.45 143.397c-.018-.033-.059.067-.046.105.319.922.529 2.031-.217 2.602-.023.017-.006.064.024.05.982-.465.689-1.935.239-2.757z"/><path style="fill:#263238" d="M192.316 142.684c-1.533.352-.716 3.391.704 3.065 1.397-.321.581-3.361-.704-3.065zM198.744 141.786c-.003-.038.086.025.095.064.223.949.638 1.999 1.574 2.083.029.003.039.051.007.055-1.079.132-1.617-1.267-1.676-2.202z"/><path style="fill:#263238" d="M199.321 140.577c1.483-.522 2.418 2.483 1.044 2.967-1.353.476-2.288-2.53-1.044-2.967zM190.743 141.616c.386-.215.706-.479 1.066-.731.406-.285.758-.47.945-.953.1-.259-.07-.63-.313-.75-.564-.281-1.148-.056-1.65.267-.545.351-.876.76-1.077 1.375-.195.597.52 1.076 1.029.792zM200.085 138.731c-.44.045-.853.012-1.292.011-.496-.001-.891.049-1.32-.24-.23-.155-.303-.556-.174-.794.301-.554.909-.703 1.506-.726.648-.025 1.154.121 1.671.51.501.378.189 1.18-.391 1.239zM194.469 152.109c.285.16.591.403.941.34.335-.061.679-.312.948-.509.027-.019.065.004.054.037-.147.427-.601.791-1.058.832-.446.04-.756-.272-.964-.634-.029-.05.037-.089.079-.066z"/><g><path style="fill:#263238" d="M194.701 149.025c.747.676 1.641.914 2.523.851a4.153 4.153 0 0 0 1.167-.257c.075-.022.149-.051.213-.084.067-.027.126-.051.198-.087.106-.046.141-.153.132-.261l-.002-.007c-.01-.034-.018-.062-.035-.094l-.002-.007-.024-.082c-.175-.73-.542-1.814-.542-1.814.301.061 1.814.306 1.691-.067-1.029-3.085-2.174-6.515-3.85-9.368-.051-.097-.202-.031-.166.07.872 3.004 2.267 5.834 3.191 8.838-.475-.048-1.259-.162-1.637-.053-.095.057.746 2.081.798 2.416 0 0 .004.014.003.036-1.176.483-2.193.362-3.595-.139-.082-.035-.14.049-.063.109z"/></g><g><path style="fill:#263238" d="M197.865 149.366s-.41 1.04-1.206 1.589c-.293.203-.63.343-1.022.344-.805.005-1.009-.68-1.03-1.308-.019-.516.094-.994.094-.994s1.374.733 3.164.369z"/><path style="fill:#ff98b9" d="M196.659 150.956c-.293.203-.63.343-1.022.344-.805.005-1.009-.68-1.03-1.308.829-.134 1.773.199 2.052.964z"/></g><g><path style="fill:#263238" d="M181.665 148.997c1.664-.047 1.867-5.169 1.767-7.078-.087-1.683-1.237-6.726-1.276-7.083-.039-.357 8.033 2.091 11.459-.305 3.426-2.396 4.813-6.667 4.327-8.276-.486-1.609-6.572-4.056-10.726-2.882-4.154 1.174-7.928 8.234-7.928 8.234s1.12-2.878.994-3.04c-.126-.162-2.408 1.784-2.258 3.828 0 0-.275-2.536-.49-2.513-.214.023-1.582 2.738-.601 4.113 0 0-1.677 2.857-1.135 5.183.542 2.325 3.911 9.875 5.867 9.819z"/><path style="fill:#263238" d="M196.048 132.822c-.976.923-1.936 1.899-3.157 2.499-1.319.649-2.869.786-4.321.729-1.485-.059-2.926-.386-4.314-.912-1.215-.461-2.378-1.12-3.628-1.475-.313-.089-.483.376-.248.558 2.324 1.791 5.704 2.8 8.614 2.745 3.062-.058 5.453-1.554 7.078-4.118.01-.015-.008-.041-.024-.026z"/></g><g><path style="fill:#f7a9a0" d="M182.856 147.115s-3.854-4.088-5.754-2.649c-1.9 1.439 1.464 7.691 4.023 8.239 2.559.547 3.112-1.812 3.112-1.812l-1.381-3.778z"/><path style="fill:#263238" d="M178.111 146.234c-.039.002-.039.058-.003.067 1.803.44 2.93 1.886 3.798 3.43-.599-.555-1.338-.799-2.094-.073-.04.038.013.101.06.084.675-.252 1.196-.204 1.749.285.391.346.692.813.998 1.234.102.141.365.019.281-.148a.67.67 0 0 0-.02-.037c-.276-2.177-2.408-4.966-4.769-4.842z"/></g></g></g><g><path style="fill:#fff" d="m192.751 162.899-3.385 8.157-10.064-10.485-2.923 3.294s9.772 16.586 9.843 15.843l3.458-7.025 4.819 4.97-.255-12.341-1.493-2.413z"/><path style="fill:#263238" d="M194.717 171.545c-.11-2.036-.164-4.09-.369-6.119-.007-.072-.119-.105-.138-.021-.43 1.96.033 9.745.003 11.61l-.021-.022c-.201-.215-4.469-4.376-4.513-4.311-.745 1.113-3.283 6.228-3.457 6.694-1.545-2.634-7.474-12.216-9.31-14.711-.053-.072-.164-.014-.123.069 1.36 2.779 9.202 15.679 9.325 15.645.083.066 3.235-6.235 3.617-7.427.72.904 5.022 5.593 5.041 5.291.124-2.039.056-4.659-.055-6.698z"/></g></g></g><g><circle transform="rotate(-81.79 390.483 136.023)" style="opacity:.5;fill:#ffc727" cx="390.501" cy="136.03" r="11.502"/><circle transform="rotate(-45.001 390.502 136.035)" style="fill:#ffc727" cx="390.501" cy="136.03" r="7.616"/><circle transform="rotate(-80.816 274.278 310.556)" style="opacity:.5;fill:#ffc727" cx="274.282" cy="310.562" r="11.502"/><circle transform="rotate(-76.761 274.29 310.57)" style="fill:#ffc727" cx="274.282" cy="310.562" r="7.616"/><circle transform="rotate(-80.828 285.38 125.65)" style="opacity:.5;fill:#ffc727" cx="285.374" cy="125.649" r="16.131"/><circle transform="rotate(-80.503 285.365 125.65)" style="fill:#ffc727" cx="285.374" cy="125.649" r="10.681"/><circle style="opacity:.5;fill:#ffc727" cx="195.642" cy="360.087" r="16.131"/><circle style="fill:#ffc727" cx="195.642" cy="360.087" r="10.681"/><circle style="opacity:.5;fill:#ffc727" cx="128.707" cy="258.991" r="11.502"/><circle style="fill:#ffc727" cx="128.707" cy="258.991" r="7.616"/><circle style="opacity:.5;fill:#ffc727" cx="126.362" cy="107.002" r="11.502"/><circle style="fill:#ffc727" cx="126.362" cy="107.002" r="7.616"/><circle style="opacity:.5;fill:#ffc727" cx="382.874" cy="291.386" r="9.152"/><path style="fill:#ffc727" d="M388.934 291.386a6.06 6.06 0 1 1-12.12 0 6.06 6.06 0 0 1 12.12 0z"/><path style="opacity:.5;fill:#ffc727" d="M101.329 146.401a6.06 6.06 0 1 1-12.12 0 6.06 6.06 0 0 1 12.12 0z"/><circle style="fill:#ffc727" cx="95.269" cy="146.401" r="4.013"/><path style="opacity:.5;fill:#ffc727" d="M381.485 235.839a6.06 6.06 0 1 1-12.12 0 6.06 6.06 0 0 1 12.12 0z"/><path style="fill:#ffc727" d="M379.438 235.839a4.013 4.013 0 1 1-8.027 0 4.013 4.013 0 0 1 8.027 0z"/><circle style="opacity:.5;fill:#ffc727" cx="301.505" cy="243.919" r="6.06"/><circle style="fill:#ffc727" cx="301.505" cy="243.919" r="4.013"/><path style="opacity:.5;fill:#ffc727" d="M125.192 318.816a6.06 6.06 0 1 1-12.12 0 6.06 6.06 0 0 1 12.12 0z"/><path style="fill:#ffc727" d="M123.144 318.816a4.013 4.013 0 1 1-8.027 0 4.013 4.013 0 0 1 8.027 0z"/><path style="opacity:.5;fill:#ffc727" d="M248.945 81.885a6.06 6.06 0 1 1-12.12 0 6.06 6.06 0 0 1 12.12 0z"/><path style="fill:#ffc727" d="M246.897 81.885a4.013 4.013 0 1 1-8.027 0 4.013 4.013 0 0 1 8.027 0z"/><path style="opacity:.5;fill:#ffc727" d="M303.552 53.743a6.06 6.06 0 1 1-12.12 0 6.06 6.06 0 0 1 12.12 0z"/><path style="fill:#ffc727" d="M301.505 53.743a4.013 4.013 0 1 1-8.027 0 4.013 4.013 0 0 1 8.027 0zM352.6 157.403c0 1.567-1.27 2.837-2.838 2.837a2.837 2.837 0 1 1 0-5.675 2.838 2.838 0 0 1 2.838 2.838zM159.73 318.816a2.837 2.837 0 1 1-5.674 0 2.837 2.837 0 0 1 5.674 0zM156.893 81.885a2.838 2.838 0 1 1-5.677-.001 2.838 2.838 0 0 1 5.677.001zM119.131 187.4a2.838 2.838 0 1 1-5.676 0 2.838 2.838 0 0 1 5.676 0zM421.828 215.304a2.838 2.838 0 1 1-5.675 0 2.838 2.838 0 0 1 5.675 0zM184.364 230.048a2.838 2.838 0 1 1-5.675 0 2.838 2.838 0 0 1 5.675 0z"/><circle style="fill:#ffc727" cx="80.681" cy="242.035" r="2.838"/><path style="fill:#ffc727" d="M355.437 347.076a2.838 2.838 0 1 1-5.675 0 2.838 2.838 0 0 1 5.675 0zM252.778 277.596a2.838 2.838 0 1 1-5.676 0 2.838 2.838 0 0 1 5.676 0zM247.07 383.071a2.838 2.838 0 1 1-5.676 0 2.838 2.838 0 0 1 5.676 0zM219.619 133.193a2.838 2.838 0 1 1-5.676 0 2.838 2.838 0 0 1 5.676 0zM220.522 46.357a2.838 2.838 0 1 1-5.675 0 2.838 2.838 0 0 1 5.675 0zM351.202 90.783a2.838 2.838 0 1 1-5.677-.001 2.838 2.838 0 0 1 5.677.001z"/><g><path style="fill:#ffc727" d="m195.622 360.248-.071-.075-38.749-41.271-76.253-76.824.009-.063 14.592-95.667.021-.026 31.093-39.398 27.707-25.132 63.751-35.599.065.092 25.2 35.528 42.41 43.68 62.993-34.867.066.072 42.162 45.29 28.508 79.324-.022.047-36.145 76.14-.064.011-108.568 19.172-78.705 49.566zM80.815 241.992l76.167 76.737 38.681 41.197 78.597-49.487 108.529-19.165 36.067-75.976-28.465-79.201-42.053-45.157-62.989 34.865-.066-.069-42.489-43.763-25.147-35.451-63.532 35.473-27.67 25.101-31.059 39.357-14.571 95.539z"/><path style="fill:#ffc727" d="m352.653 347.238-.106-.05-78.348-36.527-.019-.025-24.329-32.948-68.251-47.437-24.677 88.923-.144-.304-28.195-59.857-12.419-71.624.011-.031 37.799-105.619.108.024 79.466 18.197 9.263-18.207.084.007 105.592 8.907.002.113.748 35.672 41.292 9.455-.041.247-41.133-4.062.532 25.342-.017.03-48.139 86.305 73.8-8.067.017.121 7.454 55.586-.02.036-30.33 55.793zm-78.29-36.776 78.183 36.45 30.199-55.55-7.428-55.385-74.04 8.093.118-.211 48.24-86.487-.53-25.304-63.745-6.294-68.796 7.569.105-.206 16.761-32.946-79.296-18.159-37.712 105.379 12.405 71.542 28.035 59.506 24.591-88.614.145.101 68.443 47.577 24.322 32.939zm74.988-178.62 39.202 3.87-39.31-9.001.108 5.131zm-115.668-31.594-16.685 32.796 68.362-7.519 63.74 6.292-.108-5.164-115.309-26.405zm.116-.23 115.187 26.377-.745-35.497-105.284-8.881-9.158 18.001z"/><path style="fill:#ffc727" d="m348.291 90.884-50.873-37.04.147-.202 50.873 37.04z"/><path style="fill:#ffc727" d="m244.224 383.206-.045-.021-48.56-22.971-.888.074.607-.223-76.302-41.158-.018-.035-38.428-76.736-.459-.162.475-.056 35.54-54.525-21.052-41.054.122-.053 65.354-28.563-6.703-36.151.264.216 30.875 25.254 32.065-14.014.487-46.809.135.013 80.232 7.425-.38.196-54.607 28.143-25.619 11.197-.419 40.261-.201-.165-31.733-25.956-24.114 10.539 20.819 112.284-.133.016-100.309 11.924 47.519 16.777 121.164 18.593 51.643-33.728.063.126 32.359 65.331 48.776-17.897 2.954-60.166-10.228 4.822-.107-.227 10.35-4.878 2.038-41.503-38.221-31.966.166-.087 40.933-21.475-2.622 53.415 31.207 26.101-.177.083-33.082 15.593-2.968 60.464-.078.028-48.829 17.917 18.705 37.765-.168.014-108.402 36.008zm-48.108-23.033 48.124 22.764 107.328-35.65-155.452 12.886zm-76.89-41.447 76.426 41.225 138.088-50.669-32.285-65.18-51.486 33.626-.047-.007-121.233-18.605-47.756-16.859 38.293 76.469zm214.626-9.219-137.299 50.379 155.854-12.92-18.555-37.459zM95.441 146.462l20.998 40.945-.04.061-35.466 54.411 100.448-11.94-20.76-111.964-65.18 28.487zm292.558 43.084-2.021 41.182 32.783-15.453-30.762-25.729zm-38.013-32.119 37.788 31.605 2.592-52.789-40.38 21.184zm-164.76-50.206 31.433 25.71.412-39.629-31.845 13.919zM154.24 82.198l6.568 35.422 23.944-10.464-30.512-24.958zm63.568-35.703-.483 46.425 25.509-11.149 54.219-27.943-79.245-7.333z"/><path transform="rotate(-29.105 294.445 141.865)" style="fill:#ffc727" d="M294.331 123.163h.25v37.403h-.25z"/><path style="fill:#ffc727" d="m382.845 291.604-21.825-15.58.144-.203 21.826 15.58z"/><path transform="rotate(-79.66 200.823 336.308)" style="fill:#ffc727" d="M176.879 336.196h47.899v.25h-47.899z"/><path style="fill:#ffc727" d="M175.203 312.631h60.006v.25h-60.006z"/></g><g><path style="fill:#ffc727" d="M326.822 167.124c0 7.442-4.524 13.848-10.982 16.593l-7.045-16.593h18.027z"/><path style="fill:#ffc727" d="m306.49 165.886 7.045 16.593c-.017 0-.017.017-.035.017-.552.225-1.105.432-1.658.604a18.22 18.22 0 0 1-5.353.812c-1.865 0-3.66-.294-5.353-.812-5.646-1.761-10.101-6.216-11.845-11.862a18.257 18.257 0 0 1-.812-5.353c0-1.865.293-3.66.812-5.353a17.985 17.985 0 0 1 11.845-11.845c1.692-.518 3.488-.811 5.353-.811s3.66.294 5.353.811c5.663 1.744 10.101 6.199 11.862 11.845.518 1.692.811 3.488.811 5.353H306.49z"/><path style="fill:#a6a6a6" d="m306.49 165.886 7.045 16.593c-.017 0-.017.017-.035.017-.552.225-1.105.432-1.658.604a18.22 18.22 0 0 1-5.353.812c-1.865 0-3.66-.294-5.353-.812-5.612-1.778-10.066-6.25-11.845-11.862a18.257 18.257 0 0 1-.812-5.353c0-1.865.293-3.66.812-5.353a18.27 18.27 0 0 1 11.845-11.845c1.692-.518 3.488-.811 5.353-.811s3.66.294 5.353.811c5.612 1.779 10.084 6.233 11.862 11.845.518 1.692.811 3.488.811 5.353H306.49z"/><path style="fill:#455a64" d="m306.496 165.889-11.743 13.661a18.024 18.024 0 0 1-6.272-13.661c0-9.883 8.132-18.015 18.015-18.015 9.883 0 18.015 8.132 18.015 18.015h-18.015z"/><g><path style="fill:#ffc727" d="M332.032 258.632h3.94v20.023h-3.94zM338.805 261.96h3.94v16.695h-3.94zM345.577 268.029h3.94v10.626h-3.94zM352.35 261.667h3.94v16.988h-3.94zM359.122 264.457h3.94v14.198h-3.94zM365.895 255.841h3.94v22.814h-3.94z"/><path style="fill:#a6a6a6" d="m329.748 254.451.046 6.051.022 6.051.031 12.102-.1-.1c9.571-.028 19.142.012 28.713.02l7.984.022 7.08.059-7.08.059-7.984.022c-9.571.007-19.142.048-28.713.02h-.1v-.1l.032-12.102.022-6.051.047-6.053z"/><path style="fill:#a6a6a6" d="M328.878 255.841c.29-.087.579-.107.869-.112.29.004.58.024.869.112-.29.088-.579.108-.869.112a3.166 3.166 0 0 1-.869-.112zM328.878 258.243c.29-.087.579-.107.869-.112.29.004.58.024.869.112-.29.088-.579.108-.869.112a3.166 3.166 0 0 1-.869-.112zM328.878 260.645c.29-.087.579-.107.869-.112.29.004.58.024.869.112-.29.088-.579.108-.869.112a3.166 3.166 0 0 1-.869-.112zM328.878 263.047c.29-.087.579-.107.869-.112.29.004.58.024.869.112-.29.088-.579.108-.869.112a3.166 3.166 0 0 1-.869-.112zM328.878 265.449c.29-.087.579-.107.869-.112.29.004.58.024.869.112-.29.088-.579.108-.869.112a3.166 3.166 0 0 1-.869-.112zM328.878 267.851c.29-.087.579-.107.869-.112.29.004.58.024.869.112-.29.088-.579.108-.869.112a3.166 3.166 0 0 1-.869-.112zM328.878 270.253c.29-.087.579-.107.869-.112.29.004.58.024.869.112-.29.088-.579.108-.869.112a3.166 3.166 0 0 1-.869-.112zM328.878 272.655c.29-.087.579-.107.869-.112.29.004.58.024.869.112-.29.088-.579.108-.869.112a3.205 3.205 0 0 1-.869-.112zM328.878 275.056c.29-.087.579-.107.869-.112.29.004.58.024.869.112-.29.088-.579.108-.869.112a3.129 3.129 0 0 1-.869-.112z"/></g><g><path style="fill:#dbdbdb" d="M185.889 312.756c0 5.901-4.784 10.685-10.685 10.685-5.901 0-10.685-4.784-10.685-10.685 0-5.901 4.784-10.685 10.685-10.685 3.967 0 7.429 2.162 9.274 5.373a10.645 10.645 0 0 1 1.411 5.312z"/><path style="fill:#ffc727" d="m184.477 307.443-9.274 5.313V302.07c3.968 0 7.429 2.162 9.274 5.373z"/><circle transform="rotate(-80.804 175.21 312.77)" style="fill:#fff" cx="175.203" cy="312.756" r="7.39"/><path style="fill:#263238" d="M172.127 311.114h6.152v.868h-6.152z"/><path style="fill:#a6a6a6" d="M170.603 313.528h9.2v.868h-9.2z"/><g><path style="fill:#dbdbdb" d="M215.79 312.756c0 .531-.039 1.055-.118 1.565a10.68 10.68 0 0 1-10.568 9.12c-5.901 0-10.685-4.785-10.685-10.685s4.785-10.685 10.685-10.685a10.685 10.685 0 0 1 10.686 10.685z"/><path style="fill:#ffc727" d="M215.79 312.756c0 .531-.039 1.055-.118 1.565l-10.568-1.565v-10.685a10.685 10.685 0 0 1 10.686 10.685z"/><circle transform="rotate(-76.761 205.102 312.762)" style="fill:#fff" cx="205.103" cy="312.756" r="7.39"/><path style="fill:#263238" d="M202.027 311.114h6.152v.868h-6.152z"/><path style="fill:#a6a6a6" d="M200.503 313.528h9.2v.868h-9.2z"/></g><g><path style="fill:#dbdbdb" d="M245.895 312.756a10.684 10.684 0 0 1-10.685 10.686c-5.901 0-10.685-4.785-10.685-10.685 0-5.901 4.785-10.685 10.685-10.685 3.968 0 7.43 2.161 9.273 5.373a10.624 10.624 0 0 1 1.412 5.311z"/><path style="fill:#ffc727" d="M245.895 312.756c0 4.549-2.845 8.439-6.856 9.976l-3.829-9.976V302.07a10.677 10.677 0 0 1 10.685 10.686z"/><path style="fill:#fff" d="M242.6 312.756a7.39 7.39 0 1 1-14.781-.001 7.39 7.39 0 0 1 14.781.001z"/><path style="fill:#263238" d="M232.134 311.114h6.152v.868h-6.152z"/><path style="fill:#a6a6a6" d="M230.61 313.528h9.2v.868h-9.2z"/></g></g><g><path transform="rotate(-180 154.265 154.921)" style="fill:#ebebeb" d="M152.174 141.364h4.182v27.114h-4.182z"/><path transform="rotate(-180 154.265 158.178)" style="fill:#ffc727" d="M152.174 147.879h4.182v20.599h-4.182z"/><path transform="rotate(-180 147.976 154.921)" style="fill:#ebebeb" d="M145.885 141.364h4.182v27.114h-4.182z"/><path transform="rotate(-180 147.976 159.551)" style="fill:#455a64" d="M145.885 150.625h4.182v17.853h-4.182z"/><path transform="rotate(-180 141.687 154.921)" style="fill:#ebebeb" d="M139.596 141.364h4.182v27.114h-4.182z"/><path transform="rotate(-180 141.687 164.354)" style="fill:#ffc727" d="M139.596 160.229h4.182v8.249h-4.182z"/><path transform="rotate(-180 135.397 154.921)" style="fill:#ebebeb" d="M133.306 141.364h4.182v27.114h-4.182z"/><path transform="rotate(-180 135.397 157.162)" style="fill:#455a64" d="M133.306 145.845h4.182v22.633h-4.182z"/><g><path transform="rotate(-180 129.108 154.921)" style="fill:#ebebeb" d="M127.017 141.364h4.182v27.114h-4.182z"/><path transform="rotate(-180 129.108 156.265)" style="fill:#ffc727" d="M127.017 144.053h4.182v24.425h-4.182z"/></g><g><path transform="rotate(-180 122.819 154.921)" style="fill:#ebebeb" d="M120.728 141.364h4.182v27.114h-4.182z"/><path transform="rotate(-180 122.819 160.74)" style="fill:#455a64" d="M120.728 153.003h4.182v15.475h-4.182z"/></g><g><path style="fill:#ebebeb" d="m117.942 141.364.062 6.779.043 6.779.043 13.557-.148-.148 10.3-.007 10.3.018 10.3.049 10.3.088-10.3.088-10.3.049-10.3.018-10.3-.007h-.148v-.148l.044-13.557.043-6.779z"/><path style="fill:#ebebeb" d="M117.338 141.364c.208-.062.416-.077.623-.08.208.003.416.017.623.08a2.225 2.225 0 0 1-.623.08 2.216 2.216 0 0 1-.623-.08zM117.338 144.053c.208-.062.416-.077.623-.08.208.003.416.017.623.08a2.225 2.225 0 0 1-.623.08 2.253 2.253 0 0 1-.623-.08zM117.338 146.742c.208-.062.416-.077.623-.08.208.003.416.017.623.08a2.225 2.225 0 0 1-.623.08 2.292 2.292 0 0 1-.623-.08zM117.338 149.43c.208-.062.416-.077.623-.08.208.003.416.017.623.08a2.225 2.225 0 0 1-.623.08 2.253 2.253 0 0 1-.623-.08zM117.338 152.119c.208-.062.416-.077.623-.08.208.003.416.017.623.08a2.225 2.225 0 0 1-.623.08 2.292 2.292 0 0 1-.623-.08zM117.338 154.807c.208-.062.416-.077.623-.08.208.003.416.017.623.08a2.225 2.225 0 0 1-.623.08 2.216 2.216 0 0 1-.623-.08zM117.338 157.496c.208-.062.416-.077.623-.08.208.003.416.017.623.08a2.225 2.225 0 0 1-.623.08 2.292 2.292 0 0 1-.623-.08zM117.338 160.184c.208-.062.416-.077.623-.08.208.003.416.017.623.08a2.225 2.225 0 0 1-.623.08 2.216 2.216 0 0 1-.623-.08zM117.338 162.873c.208-.062.416-.077.623-.08.208.003.416.017.623.08a2.225 2.225 0 0 1-.623.08 2.253 2.253 0 0 1-.623-.08zM117.338 165.561c.208-.062.416-.077.623-.08.208.003.416.017.623.08a2.225 2.225 0 0 1-.623.08 2.216 2.216 0 0 1-.623-.08z"/></g></g></g><g><path style="fill:#ffc727" d="M394.215 183.469h27.941v14.452h-27.941z"/><path style="fill:#fff" d="M397.434 186.791h21.504v.585h-21.504zM397.434 189.199h21.504v.585h-21.504zM397.434 191.606h21.504v.586h-21.504zM397.434 194.013h21.504v.586h-21.504z"/><g><path style="fill:#ffc727" d="M94.331 283.246h27.941v14.452H94.331z"/><path style="fill:#fff" d="M97.549 286.569h21.504v.586H97.549zM97.549 288.976h21.504v.586H97.549zM97.549 291.384h21.504v.585H97.549zM97.549 293.791h21.504v.585H97.549z"/></g><g><path style="fill:#ffc727" d="M202.725 90.492h27.941v14.452h-27.941z"/><path style="fill:#fff" d="M205.943 93.814h21.504v.585h-21.504zM205.943 96.222h21.504v.585h-21.504zM205.943 98.629h21.504v.585h-21.504zM205.943 101.037h21.504v.586h-21.504z"/></g><g><path style="fill:#ffc727" d="M257.808 349.913h27.941v14.452h-27.941z"/><path style="fill:#fff" d="M261.027 353.235h21.504v.586h-21.504zM261.027 355.643h21.504v.586h-21.504zM261.027 358.05h21.504v.586h-21.504zM261.027 360.458h21.504v.586h-21.504z"/></g></g></g></svg>