<svg xmlns="http://www.w3.org/2000/svg" viewBox="0 0 500 500" style="enable-background:new 0 0 500 500" xml:space="preserve"><path style="fill:#ebebeb" d="M416.779 398.494h33.122v.25h-33.122zM322.527 401.208h8.693v.25h-8.693zM396.586 389.208h19.192v.25h-19.192zM52.459 390.888h43.193v.25H52.459zM104.556 390.888h6.333v.25h-6.333zM131.471 395.111h93.676v.25h-93.676zM237.014 337.8H43.915a5.715 5.715 0 0 1-5.708-5.708V60.66a5.715 5.715 0 0 1 5.708-5.708h193.099a5.715 5.715 0 0 1 5.707 5.708v271.432a5.715 5.715 0 0 1-5.707 5.708zM43.915 55.203a5.464 5.464 0 0 0-5.458 5.458v271.432a5.464 5.464 0 0 0 5.458 5.458h193.099a5.463 5.463 0 0 0 5.457-5.458V60.66a5.464 5.464 0 0 0-5.457-5.458H43.915zM453.31 337.8H260.212a5.714 5.714 0 0 1-5.707-5.708V60.66a5.715 5.715 0 0 1 5.707-5.708H453.31a5.714 5.714 0 0 1 5.708 5.708v271.432a5.714 5.714 0 0 1-5.708 5.708zM260.212 55.203a5.463 5.463 0 0 0-5.457 5.458v271.432a5.463 5.463 0 0 0 5.457 5.458H453.31a5.464 5.464 0 0 0 5.458-5.458V60.66a5.464 5.464 0 0 0-5.458-5.458H260.212zM0 382.398h500v.25H0z"/><g><path style="fill:#f0f0f0" d="M79.45 96.503h124.785v258.176H79.45z"/><path style="fill:#fafafa" d="M86.95 104.003h109.786V347.18H86.95z"/><path style="fill:#f5f5f5" d="M130.043 347.18h33l30.981-243.177h-33zM145.691 104.003 114.709 347.18h8l30.982-243.177z"/><g><path style="fill:#f5f5f5" d="M205.818 102.756H77.868l-2.7-6.3h133.35z"/><path style="fill:#f0f0f0" d="M205.818 106.405H77.868l-2.7-6.3h133.35z"/><path style="fill:#e6e6e6" d="M205.818 110.054H77.868l-2.7-6.3h133.35z"/><path style="fill:#e0e0e0" d="M205.818 113.704H77.868l-2.7-6.3h133.35z"/><path style="fill:#f0f0f0" d="M70.518 88.565h142.65v8.401H70.518z"/><path style="fill:#e0e0e0" d="M71.982 173.125a1.45 1.45 0 0 1-1.451-1.451V122.68a1.451 1.451 0 0 1 2.902 0v48.994a1.45 1.45 0 0 1-1.451 1.451z"/><path style="fill:#e0e0e0" d="M71.457 95.281h1.05v29.098h-1.05z"/></g><g><path style="fill:#f0f0f0" d="M295.764 96.503h124.785v258.176H295.764z"/><path style="fill:#fafafa" d="M303.264 104.003H413.05V347.18H303.264z"/><path style="fill:#f5f5f5" d="M346.357 347.18h33l30.981-243.177h-33zM362.005 104.003 331.024 347.18h8l30.981-243.177z"/><g><path style="fill:#f5f5f5" d="M422.132 102.756h-127.95l-2.7-6.3h133.35z"/><path style="fill:#f0f0f0" d="M422.132 106.405h-127.95l-2.7-6.3h133.35z"/><path style="fill:#e6e6e6" d="M422.132 110.054h-127.95l-2.7-6.3h133.35z"/><path style="fill:#e0e0e0" d="M422.132 113.704h-127.95l-2.7-6.3h133.35z"/><path style="fill:#f0f0f0" d="M286.832 88.565h142.65v8.401h-142.65z"/><path style="fill:#e0e0e0" d="M288.297 173.125a1.45 1.45 0 0 1-1.451-1.451V122.68a1.45 1.45 0 1 1 2.902 0v48.994a1.45 1.45 0 0 1-1.451 1.451z"/><path style="fill:#e0e0e0" d="M287.772 95.281h1.05v29.098h-1.05z"/></g></g></g><g><path style="fill:#e0e0e0" d="m401.517 284.582 5.56 72.866 3.383-.3-8.274-72.866zM431.498 294.757l-9.92 60.17-2.79-.496 12.176-59.972zM418.14 270.993l-1.754 88.178-3.395-.217 4.465-88.295z"/><path style="fill:#f0f0f0" d="M401.719 283.964c-3.825-.712-15.333 0-15.333 2.667s11.5-.333 10.5 2.333c-1 2.667-11.667 1.833-11.333 4.333s10.167-1.333 10 .333c-.167 1.667-8.5 4.167-6.833 6 1.667 1.833 7.667-4.303 7.667-1.901 0 2.401-4.366 6.764-1.667 7.401 4.238 1 3-7.469 4.5-7.401 1.5.068 1.56 7.104 4.107 6.735 2.547-.37-2.107-7.884-1.274-9.192.833-1.308 6.667 4.692 8.5 3.359 1.833-1.333-6.833-6.667-5.667-8.333 1.167-1.667 6.267 3.5 7.383.833 1.116-2.667-7.416-6.584-10.55-7.167z"/><path style="fill:#ebebeb" d="M418.252 275.762c3.452-1.794 12.082-9.442 10.44-11.543-1.642-2.101-8.856 7.344-9.71 4.627-.854-2.717 8.064-8.628 6.262-10.393-1.802-1.765-7.19 7.311-8.085 5.895-.895-1.416 4.132-8.517 1.69-8.935-2.442-.418-3.391 8.111-4.87 6.219-1.479-1.892-.725-8.019-3.244-6.858-3.955 1.822 2.236 7.733 1.012 8.603-1.224.87-5.604-4.637-7.383-2.777-1.779 1.86 6.515 4.914 6.664 6.458.149 1.544-8.142.408-8.766 2.588-.624 2.179 9.489 1.045 9.596 3.077.107 2.032-7.093 1.101-6.331 3.89.762 2.787 9.896.619 12.725-.851z"/><path style="fill:#e6e6e6" d="M418.923 273.21c3.825-.712 15.333 0 15.333 2.667s-11.5-.333-10.5 2.333c1 2.667 11.667 1.833 11.333 4.333-.333 2.5-10.167-1.333-10 .333.167 1.667 8.5 4.167 6.833 6-1.667 1.833-7.667-4.303-7.667-1.901 0 2.401 4.366 6.764 1.667 7.401-4.238 1-3-7.469-4.5-7.401-1.5.068-1.56 7.104-4.107 6.735-2.547-.37 2.107-7.884 1.274-9.192-.833-1.308-6.667 4.692-8.5 3.359-1.833-1.333 6.833-6.667 5.667-8.333-1.167-1.667-6.267 3.5-7.383.833-1.116-2.667 7.416-6.584 10.55-7.167z"/><path style="fill:#f5f5f5" d="M427.965 294.904c2.207-2.355 10.251-7.533 11.561-5.75 1.31 1.783-7.852 5.427-5.873 6.719 1.979 1.291 8.7-4.506 9.706-2.671 1.005 1.835-7.452 4.104-6.522 5.136.93 1.032 7.73-1.391 7.516.654-.214 2.045-7.239.89-6.06 2.495 1.18 1.605 6.242 2.377 4.75 4.129-2.342 2.751-5.675-3.52-6.645-2.737-.969.782 2.447 5.516.563 6.52-1.884 1.004-2.465-6.306-3.664-6.771-1.2-.465-2.152 6.412-4.032 6.421-1.881.009 1.293-7.814-.306-8.355-1.599-.541-2.47 5.419-4.526 4.185s1.723-8.045 3.532-9.975z"/><path style="fill:#e6e6e6" d="M403.809 307.005c-3.173-.429-12.721 0-12.721 1.606s9.541-.201 8.711 1.405c-.83 1.606-9.679 1.104-9.403 2.61.277 1.506 8.435-.803 8.297.201-.138 1.004-7.052 2.509-5.669 3.614 1.383 1.104 6.361-2.591 6.361-1.145 0 1.446-3.623 4.074-1.383 4.458 3.516.602 2.489-4.499 3.733-4.458 1.245.041 1.295 4.279 3.408 4.056 2.113-.223-1.749-4.748-1.057-5.536.691-.788 5.531 2.826 7.052 2.023 1.521-.803-5.669-4.015-4.701-5.019.968-1.004 5.199 2.108 6.126.502.925-1.607-6.154-3.966-8.754-4.317z"/><path style="fill:#ebebeb" d="M426.606 314.545c3.174-.429 12.721 0 12.721 1.606s-9.541-.201-8.711 1.405c.83 1.606 9.679 1.104 9.403 2.61-.276 1.506-8.435-.803-8.296.201.138 1.004 7.052 2.51 5.669 3.614s-6.361-2.591-6.361-1.145c0 1.446 3.623 4.074 1.383 4.458-3.516.602-2.489-4.499-3.733-4.458-1.245.041-1.295 4.279-3.408 4.056-2.113-.223 1.749-4.748 1.057-5.536-.691-.788-5.531 2.826-7.052 2.023-1.521-.803 5.669-4.015 4.701-5.019-.968-1.004-5.199 2.108-6.125.502-.927-1.607 6.151-3.966 8.752-4.317zM393.609 334.331l6 49.668h29.519l6-49.668z"/></g><g><ellipse style="fill:#f5f5f5" cx="245.178" cy="412.391" rx="193.889" ry="11.323"/></g><g><path style="fill:#407bff" d="M413.698 173.061c0 .402.153.731.457.987.305.256.747.473 1.324.649v-3.417c-.61.144-1.059.373-1.347.686a1.555 1.555 0 0 0-.434 1.095zM417.885 178.837v3.321c.578-.129 1.011-.338 1.3-.626.288-.29.433-.633.433-1.035 0-.401-.149-.73-.445-.987-.298-.257-.726-.481-1.288-.673z"/><path style="fill:#407bff" d="M416.489 158.769c-9.913 0-17.95 8.036-17.95 17.95 0 9.913 8.036 17.95 17.95 17.95 9.913 0 17.95-8.036 17.95-17.95s-8.036-17.95-17.95-17.95zm5.559 24.82c-.962.939-2.35 1.52-4.163 1.744v2.695h-2.407v-2.623a13.044 13.044 0 0 1-3.393-.626c-1.076-.353-1.942-.786-2.599-1.299l1.324-2.937c.609.45 1.324.827 2.142 1.131.818.305 1.66.498 2.527.578v-4.02c-1.139-.272-2.101-.577-2.888-.914a5.087 5.087 0 0 1-1.973-1.48c-.53-.649-.795-1.512-.795-2.587 0-1.331.485-2.474 1.456-3.429.971-.954 2.37-1.536 4.199-1.745v-2.672h2.407v2.624c1.973.16 3.602.65 4.885 1.468l-1.203 2.96c-1.204-.69-2.43-1.108-3.682-1.252v4.091c1.123.256 2.073.55 2.852.878a5 5 0 0 1 1.961 1.469c.529.65.794 1.504.794 2.563 0 1.317-.48 2.444-1.444 3.383z"/><g style="opacity:.6"><path style="fill:#fff" d="M413.698 173.061c0 .402.153.731.457.987.305.256.747.473 1.324.649v-3.417c-.61.144-1.059.373-1.347.686a1.555 1.555 0 0 0-.434 1.095zM417.885 178.837v3.321c.578-.129 1.011-.338 1.3-.626.288-.29.433-.633.433-1.035 0-.401-.149-.73-.445-.987-.298-.257-.726-.481-1.288-.673z"/><path style="fill:#fff" d="M416.489 158.769c-9.913 0-17.95 8.036-17.95 17.95 0 9.913 8.036 17.95 17.95 17.95 9.913 0 17.95-8.036 17.95-17.95s-8.036-17.95-17.95-17.95zm5.559 24.82c-.962.939-2.35 1.52-4.163 1.744v2.695h-2.407v-2.623a13.044 13.044 0 0 1-3.393-.626c-1.076-.353-1.942-.786-2.599-1.299l1.324-2.937c.609.45 1.324.827 2.142 1.131.818.305 1.66.498 2.527.578v-4.02c-1.139-.272-2.101-.577-2.888-.914a5.087 5.087 0 0 1-1.973-1.48c-.53-.649-.795-1.512-.795-2.587 0-1.331.485-2.474 1.456-3.429.971-.954 2.37-1.536 4.199-1.745v-2.672h2.407v2.624c1.973.16 3.602.65 4.885 1.468l-1.203 2.96c-1.204-.69-2.43-1.108-3.682-1.252v4.091c1.123.256 2.073.55 2.852.878a5 5 0 0 1 1.961 1.469c.529.65.794 1.504.794 2.563 0 1.317-.48 2.444-1.444 3.383z"/></g><path style="fill:#407bff" d="M62.274 235.236c0 .208.079.378.237.511.158.133.387.245.685.336v-1.769c-.316.075-.548.193-.697.355a.804.804 0 0 0-.225.567zM64.441 238.225v1.719c.299-.067.523-.175.673-.324a.734.734 0 0 0 .224-.536.648.648 0 0 0-.23-.511c-.154-.132-.376-.248-.667-.348z"/><path style="fill:#407bff" d="M63.719 227.838a9.29 9.29 0 0 0-9.29 9.29c0 5.131 4.159 9.29 9.29 9.29s9.29-4.159 9.29-9.29a9.29 9.29 0 0 0-9.29-9.29zm2.877 12.847c-.498.486-1.216.787-2.155.903v1.395h-1.246v-1.357a6.754 6.754 0 0 1-1.756-.324c-.557-.182-1.005-.407-1.345-.672l.685-1.52c.315.233.685.428 1.109.585.424.158.859.258 1.308.299v-2.081a9.367 9.367 0 0 1-1.494-.473 2.625 2.625 0 0 1-1.021-.766c-.274-.336-.411-.782-.411-1.339 0-.689.251-1.281.754-1.775s1.227-.795 2.174-.903v-1.383h1.246v1.358c1.021.083 1.864.336 2.528.76l-.623 1.532a4.96 4.96 0 0 0-1.906-.648v2.118a9.126 9.126 0 0 1 1.476.454c.402.17.741.423 1.015.76.274.336.411.779.411 1.326a2.368 2.368 0 0 1-.749 1.751z"/><g style="opacity:.6"><path style="fill:#fff" d="M62.274 235.236c0 .208.079.378.237.511.158.133.387.245.685.336v-1.769c-.316.075-.548.193-.697.355a.804.804 0 0 0-.225.567zM64.441 238.225v1.719c.299-.067.523-.175.673-.324a.734.734 0 0 0 .224-.536.648.648 0 0 0-.23-.511c-.154-.132-.376-.248-.667-.348z"/><path style="fill:#fff" d="M63.719 227.838a9.29 9.29 0 0 0-9.29 9.29c0 5.131 4.159 9.29 9.29 9.29s9.29-4.159 9.29-9.29a9.29 9.29 0 0 0-9.29-9.29zm2.877 12.847c-.498.486-1.216.787-2.155.903v1.395h-1.246v-1.357a6.754 6.754 0 0 1-1.756-.324c-.557-.182-1.005-.407-1.345-.672l.685-1.52c.315.233.685.428 1.109.585.424.158.859.258 1.308.299v-2.081a9.367 9.367 0 0 1-1.494-.473 2.625 2.625 0 0 1-1.021-.766c-.274-.336-.411-.782-.411-1.339 0-.689.251-1.281.754-1.775s1.227-.795 2.174-.903v-1.383h1.246v1.358c1.021.083 1.864.336 2.528.76l-.623 1.532a4.96 4.96 0 0 0-1.906-.648v2.118a9.126 9.126 0 0 1 1.476.454c.402.17.741.423 1.015.76.274.336.411.779.411 1.326a2.368 2.368 0 0 1-.749 1.751z"/></g><g><path style="fill:#407bff" d="M404.341 213.077c0 .259.099.471.295.637.197.165.482.305.854.419v-2.205c-.394.093-.683.241-.869.443-.187.202-.28.437-.28.706zM407.043 216.804v2.143c.373-.083.652-.218.839-.404a.914.914 0 0 0 .279-.668.807.807 0 0 0-.287-.637c-.193-.166-.469-.31-.831-.434z"/><path style="fill:#407bff" d="M406.142 203.857c-6.396 0-11.58 5.184-11.58 11.58 0 6.395 5.185 11.58 11.58 11.58 6.395 0 11.58-5.185 11.58-11.58 0-6.396-5.184-11.58-11.58-11.58zm3.586 16.013c-.621.606-1.516.981-2.686 1.125v1.739h-1.553v-1.692a8.414 8.414 0 0 1-2.189-.404c-.694-.227-1.253-.507-1.677-.838l.854-1.895c.393.29.854.533 1.382.73a6.355 6.355 0 0 0 1.63.373v-2.593c-.735-.176-1.356-.372-1.863-.59a3.271 3.271 0 0 1-1.273-.955c-.342-.419-.513-.975-.513-1.669 0-.859.313-1.596.939-2.212.626-.615 1.529-.991 2.709-1.125v-1.724h1.553v1.693c1.273.103 2.324.419 3.152.947l-.776 1.91c-.777-.445-1.568-.715-2.376-.808v2.639c.724.165 1.338.355 1.84.566.502.212.923.528 1.265.948.341.419.512.97.512 1.653.002.849-.308 1.576-.93 2.182z"/><g style="opacity:.6"><path style="fill:#fff" d="M404.341 213.077c0 .259.099.471.295.637.197.165.482.305.854.419v-2.205c-.394.093-.683.241-.869.443-.187.202-.28.437-.28.706zM407.043 216.804v2.143c.373-.083.652-.218.839-.404a.914.914 0 0 0 .279-.668.807.807 0 0 0-.287-.637c-.193-.166-.469-.31-.831-.434z"/><path style="fill:#fff" d="M406.142 203.857c-6.396 0-11.58 5.184-11.58 11.58 0 6.395 5.185 11.58 11.58 11.58 6.395 0 11.58-5.185 11.58-11.58 0-6.396-5.184-11.58-11.58-11.58zm3.586 16.013c-.621.606-1.516.981-2.686 1.125v1.739h-1.553v-1.692a8.414 8.414 0 0 1-2.189-.404c-.694-.227-1.253-.507-1.677-.838l.854-1.895c.393.29.854.533 1.382.73a6.355 6.355 0 0 0 1.63.373v-2.593c-.735-.176-1.356-.372-1.863-.59a3.271 3.271 0 0 1-1.273-.955c-.342-.419-.513-.975-.513-1.669 0-.859.313-1.596.939-2.212.626-.615 1.529-.991 2.709-1.125v-1.724h1.553v1.693c1.273.103 2.324.419 3.152.947l-.776 1.91c-.777-.445-1.568-.715-2.376-.808v2.639c.724.165 1.338.355 1.84.566.502.212.923.528 1.265.948.341.419.512.97.512 1.653.002.849-.308 1.576-.93 2.182z"/></g></g><g><path style="fill:#407bff" d="M76.15 266.618c0 .259.099.471.295.637.197.165.482.305.854.419v-2.205c-.394.093-.683.241-.869.442-.187.203-.28.439-.28.707zM78.852 270.345v2.143c.373-.083.652-.218.839-.404a.914.914 0 0 0 .279-.668.806.806 0 0 0-.287-.637c-.192-.166-.469-.31-.831-.434z"/><path style="fill:#407bff" d="M77.951 257.398c-6.396 0-11.58 5.185-11.58 11.58 0 6.396 5.185 11.58 11.58 11.58s11.58-5.185 11.58-11.58c.001-6.395-5.184-11.58-11.58-11.58zm3.587 16.013c-.621.606-1.516.981-2.686 1.125v1.739h-1.553v-1.692a8.421 8.421 0 0 1-2.189-.404c-.694-.227-1.253-.507-1.677-.838l.854-1.895c.393.29.854.534 1.382.73a6.355 6.355 0 0 0 1.63.373v-2.593c-.735-.176-1.356-.372-1.863-.59a3.28 3.28 0 0 1-1.273-.955c-.342-.419-.513-.975-.513-1.669 0-.859.313-1.596.939-2.212.627-.615 1.529-.991 2.709-1.125v-1.724h1.553v1.693c1.273.103 2.324.419 3.152.947l-.776 1.91c-.777-.445-1.568-.715-2.376-.808v2.639c.724.165 1.338.355 1.84.566.502.212.923.528 1.265.948.341.419.512.97.512 1.653.001.849-.309 1.576-.93 2.182z"/><g style="opacity:.6"><path style="fill:#fff" d="M76.15 266.618c0 .259.099.471.295.637.197.165.482.305.854.419v-2.205c-.394.093-.683.241-.869.442-.187.203-.28.439-.28.707zM78.852 270.345v2.143c.373-.083.652-.218.839-.404a.914.914 0 0 0 .279-.668.806.806 0 0 0-.287-.637c-.192-.166-.469-.31-.831-.434z"/><path style="fill:#fff" d="M77.951 257.398c-6.396 0-11.58 5.185-11.58 11.58 0 6.396 5.185 11.58 11.58 11.58s11.58-5.185 11.58-11.58c.001-6.395-5.184-11.58-11.58-11.58zm3.587 16.013c-.621.606-1.516.981-2.686 1.125v1.739h-1.553v-1.692a8.421 8.421 0 0 1-2.189-.404c-.694-.227-1.253-.507-1.677-.838l.854-1.895c.393.29.854.534 1.382.73a6.355 6.355 0 0 0 1.63.373v-2.593c-.735-.176-1.356-.372-1.863-.59a3.28 3.28 0 0 1-1.273-.955c-.342-.419-.513-.975-.513-1.669 0-.859.313-1.596.939-2.212.627-.615 1.529-.991 2.709-1.125v-1.724h1.553v1.693c1.273.103 2.324.419 3.152.947l-.776 1.91c-.777-.445-1.568-.715-2.376-.808v2.639c.724.165 1.338.355 1.84.566.502.212.923.528 1.265.948.341.419.512.97.512 1.653.001.849-.309 1.576-.93 2.182z"/></g></g><g><path style="fill:#407bff" d="M417.112 117.655a5.7 5.7 0 0 0-3.305-1.051h-92.398a5.742 5.742 0 0 0-5.742 5.742v13.751a5.7 5.7 0 0 0 .775 2.877c.493.845 2.976 3.317 3.611 3.778a5.695 5.695 0 0 0 3.356 1.087h92.398a5.742 5.742 0 0 0 5.742-5.742v-13.751a5.697 5.697 0 0 0-1.107-3.383c-.458-.624-2.674-2.843-3.33-3.308z"/><path style="opacity:.4;fill:#fff" d="M417.112 117.655a5.7 5.7 0 0 0-3.305-1.051h-92.398a5.742 5.742 0 0 0-5.742 5.742v13.751a5.7 5.7 0 0 0 .775 2.877c.493.845 2.976 3.317 3.611 3.778a5.695 5.695 0 0 0 3.356 1.087h92.398a5.742 5.742 0 0 0 5.742-5.742v-13.751a5.697 5.697 0 0 0-1.107-3.383c-.458-.624-2.674-2.843-3.33-3.308z"/><path style="opacity:.4;fill:#fff" d="M413.807 141.838h-92.398a5.74 5.74 0 0 1-5.741-5.742v-13.751a5.742 5.742 0 0 1 5.741-5.742h92.398a5.741 5.741 0 0 1 5.741 5.742v13.751a5.74 5.74 0 0 1-5.741 5.742z"/><path style="fill:#407bff" d="m329.393 120.96 2.443 4.949 5.461.793-3.952 3.853.933 5.44-4.885-2.569-4.885 2.569.933-5.44-3.952-3.853 5.461-.793zM348.791 120.96l2.442 4.949 5.462.793-3.952 3.853.933 5.44-4.885-2.569-4.886 2.569.934-5.44-3.953-3.853 5.462-.793zM368.188 120.96l2.443 4.949 5.462.793-3.952 3.853.932 5.44-4.885-2.569-4.885 2.569.933-5.44-3.952-3.853 5.462-.793zM387.586 120.96l2.443 4.949 5.461.793-3.952 3.853.933 5.44-4.885-2.569-4.885 2.569.933-5.44-3.952-3.853 5.461-.793zM406.984 120.96l2.442 4.949 5.462.793-3.952 3.853.933 5.44-4.885-2.569-4.885 2.569.933-5.44-3.953-3.853 5.462-.793z"/><g><path style="opacity:.9;fill:#fff" d="m329.393 120.96 2.443 4.949 5.461.793-3.952 3.853.933 5.44-4.885-2.569-4.885 2.569.933-5.44-3.952-3.853 5.461-.793zM348.791 120.96l2.442 4.949 5.462.793-3.952 3.853.933 5.44-4.885-2.569-4.886 2.569.934-5.44-3.953-3.853 5.462-.793zM368.188 120.96l2.443 4.949 5.462.793-3.952 3.853.932 5.44-4.885-2.569-4.885 2.569.933-5.44-3.952-3.853 5.462-.793zM387.586 120.96l2.443 4.949 5.461.793-3.952 3.853.933 5.44-4.885-2.569-4.885 2.569.933-5.44-3.952-3.853 5.461-.793zM406.984 120.96l2.442 4.949 5.462.793-3.952 3.853.933 5.44-4.885-2.569-4.885 2.569.933-5.44-3.953-3.853 5.462-.793z"/></g></g><g><path style="fill:#407bff" d="M267.83 269.275v-3.768c0-5.172-4.208-9.381-9.381-9.381s-9.381 4.208-9.381 9.381v3.768h-2.509v19.583h23.779v-19.583h-2.508zm-16.244-3.767a6.871 6.871 0 0 1 6.863-6.863 6.871 6.871 0 0 1 6.863 6.863v3.768h-13.726v-3.768zM259.703 279v3.157a1.254 1.254 0 0 1-2.508 0V279a2.32 2.32 0 0 1 .822-4.237 2.326 2.326 0 0 1 2.756 2.285 2.32 2.32 0 0 1-1.07 1.952z"/><path style="opacity:.6;fill:#fff" d="M267.83 269.275v-3.768c0-5.172-4.208-9.381-9.381-9.381s-9.381 4.208-9.381 9.381v3.768h-2.509v19.583h23.779v-19.583h-2.508zm-16.244-3.767a6.871 6.871 0 0 1 6.863-6.863 6.871 6.871 0 0 1 6.863 6.863v3.768h-13.726v-3.768zM259.703 279v3.157a1.254 1.254 0 0 1-2.508 0V279a2.32 2.32 0 0 1 .822-4.237 2.326 2.326 0 0 1 2.756 2.285 2.32 2.32 0 0 1-1.07 1.952z"/></g><g><circle style="fill:#407bff" cx="67.134" cy="166.504" r="3.415"/><path style="fill:#407bff" d="M95.031 166.504a3.415 3.415 0 1 1-6.83 0 3.415 3.415 0 0 1 6.83 0z"/><circle style="fill:#407bff" cx="116.099" cy="166.504" r="3.415"/><path style="fill:#407bff" d="M70.549 143.638a3.415 3.415 0 1 1-6.83 0 3.415 3.415 0 0 1 6.83 0zM95.031 143.638a3.415 3.415 0 1 1-6.83 0 3.415 3.415 0 0 1 6.83 0zM119.514 143.638a3.415 3.415 0 1 1-6.83 0 3.415 3.415 0 0 1 6.83 0z"/><circle style="fill:#407bff" cx="67.134" cy="120.773" r="3.415"/><path style="fill:#407bff" d="M95.031 120.773a3.415 3.415 0 1 1-6.83 0 3.415 3.415 0 0 1 6.83 0z"/><circle style="fill:#407bff" cx="116.099" cy="120.773" r="3.415"/><g style="opacity:.3"><circle style="fill:#fff" cx="67.134" cy="166.504" r="3.415"/><path style="fill:#fff" d="M95.031 166.504a3.415 3.415 0 1 1-6.83 0 3.415 3.415 0 0 1 6.83 0z"/><circle style="fill:#fff" cx="116.099" cy="166.504" r="3.415"/><path style="fill:#fff" d="M70.549 143.638a3.415 3.415 0 1 1-6.83 0 3.415 3.415 0 0 1 6.83 0zM95.031 143.638a3.415 3.415 0 1 1-6.83 0 3.415 3.415 0 0 1 6.83 0zM119.514 143.638a3.415 3.415 0 1 1-6.83 0 3.415 3.415 0 0 1 6.83 0z"/><circle style="fill:#fff" cx="67.134" cy="120.773" r="3.415"/><path style="fill:#fff" d="M95.031 120.773a3.415 3.415 0 1 1-6.83 0 3.415 3.415 0 0 1 6.83 0z"/><circle style="fill:#fff" cx="116.099" cy="120.773" r="3.415"/></g><g><path style="fill:#407bff" d="M116.099 166.504c0 .909-.737 1.646-1.646 1.646H67.945c-.813 0-1.53-.489-1.828-1.244a1.954 1.954 0 0 1 .487-2.157l45.322-42.33H68.779a1.645 1.645 0 1 1 0-3.291h46.509c.813 0 1.53.488 1.829 1.244a1.953 1.953 0 0 1-.487 2.157l-45.322 42.33h43.146a1.644 1.644 0 0 1 1.645 1.645z"/><g style="opacity:.6"><path style="fill:#fff" d="M116.099 166.504c0 .909-.737 1.646-1.646 1.646H67.945c-.813 0-1.53-.489-1.828-1.244a1.954 1.954 0 0 1 .487-2.157l45.322-42.33H68.779a1.645 1.645 0 1 1 0-3.291h46.509c.813 0 1.53.488 1.829 1.244a1.953 1.953 0 0 1-.487 2.157l-45.322 42.33h43.146a1.644 1.644 0 0 1 1.645 1.645z"/></g></g></g></g><g><path style="fill:#407bff" d="M297.589 354.945h72.219c8.125 0 14.711-6.586 14.711-14.711V167.621c0-8.124-6.586-14.711-14.711-14.711h-72.219c-8.124 0-14.71 6.586-14.711 14.711v172.613c0 8.124 6.586 14.711 14.711 14.711z"/><path style="fill:#263238" d="M301.339 354.945h72.219c8.125 0 14.711-6.586 14.711-14.711V167.621c0-8.124-6.586-14.711-14.711-14.711h-72.219c-8.124 0-14.71 6.586-14.711 14.711v172.613c0 8.124 6.586 14.711 14.711 14.711z"/><path style="fill:#407bff" d="M301.339 156.286h18.771c1.229 0 2.267.914 2.423 2.133l.075.588a5.966 5.966 0 0 0 5.917 5.21h17.846a5.966 5.966 0 0 0 5.917-5.21l.075-.588a2.443 2.443 0 0 1 2.423-2.133h18.771c6.26 0 11.335 5.075 11.335 11.335v172.613c0 6.26-5.075 11.336-11.336 11.336h-72.219c-6.26 0-11.336-5.075-11.336-11.336V167.621c.002-6.26 5.077-11.335 11.338-11.335z"/><path style="opacity:.8;fill:#fff" d="M301.339 156.286h18.771c1.229 0 2.267.914 2.423 2.133l.075.588a5.966 5.966 0 0 0 5.917 5.21h17.846a5.966 5.966 0 0 0 5.917-5.21l.075-.588a2.443 2.443 0 0 1 2.423-2.133h18.771c6.26 0 11.335 5.075 11.335 11.335v172.613c0 6.26-5.075 11.336-11.336 11.336h-72.219c-6.26 0-11.336-5.075-11.336-11.336V167.621c.002-6.26 5.077-11.335 11.338-11.335z"/><g style="opacity:.9"><path d="M341.816 158.198a1.434 1.434 0 1 0 2.868 0 1.434 1.434 0 0 0-2.868 0zM331.646 156.764h4.918a1.434 1.434 0 1 1 0 2.868h-4.918a1.433 1.433 0 1 1 0-2.868z"/></g><path style="fill:#407bff" d="M298.964 162.67h1.519v1.519h-1.519zM302.002 162.67v1.519h1.518l.001-1.519v-1.519h-1.519zM305.039 159.632V164.189h1.519V159.632zM370.35 159.734v1.114h-.743v2.228h.743v1.114h6.683v-4.455h-6.683zm2.97 3.341h-2.228v-2.228h2.228v2.228z"/><g><circle style="opacity:.9;fill:#fff" cx="337.219" cy="312.11" r="13.474"/><path style="fill:#407bff" d="m336.958 319.314-11.753-11.753a2.625 2.625 0 0 1 3.712-3.712l8.04 8.04 13.258-13.258a2.625 2.625 0 0 1 3.712 3.712l-16.969 16.971z"/></g></g><g><path style="opacity:.3" d="M379.392 287h-83.75a2.5 2.5 0 1 1 0-5h83.75a2.5 2.5 0 0 1 0 5z"/><path style="fill:#407bff" d="M139.74 237.333h84.656v47.084H139.74z"/><path style="opacity:.3;fill:#fff" d="M139.74 237.333h84.656v47.084H139.74z"/><path style="opacity:.8;fill:#fff" d="M220.598 277.01v-32.271a3.608 3.608 0 0 1-3.608-3.608h-69.843a3.608 3.608 0 0 1-3.608 3.608v32.271a3.608 3.608 0 0 1 3.608 3.608h69.843a3.608 3.608 0 0 1 3.608-3.608z"/><path style="fill:#407bff" d="M180.014 258.184c0 .295.112.538.336.726.224.189.549.348.974.478v-2.514c-.449.106-.779.274-.991.505a1.145 1.145 0 0 0-.319.805zM183.095 262.433v2.443c.425-.095.744-.248.956-.46.212-.213.318-.466.318-.762a.915.915 0 0 0-.328-.726c-.217-.189-.533-.354-.946-.495z"/><path style="fill:#407bff" d="M182.068 247.67c-7.293 0-13.205 5.912-13.205 13.205s5.912 13.205 13.205 13.205 13.205-5.912 13.205-13.205-5.912-13.205-13.205-13.205zm4.09 18.259c-.708.691-1.729 1.118-3.063 1.283v1.983h-1.771v-1.929a9.571 9.571 0 0 1-2.496-.461c-.791-.259-1.429-.578-1.912-.956l.974-2.16a6.38 6.38 0 0 0 1.576.832 7.21 7.21 0 0 0 1.859.425v-2.957c-.838-.2-1.546-.424-2.124-.673a3.737 3.737 0 0 1-1.451-1.089c-.39-.478-.585-1.112-.585-1.903 0-.979.357-1.82 1.071-2.523.714-.702 1.744-1.13 3.089-1.283v-1.965h1.771v1.93c1.452.118 2.65.478 3.594 1.08l-.885 2.178c-.886-.508-1.788-.815-2.709-.921v3.01c.826.189 1.525.405 2.098.646a3.683 3.683 0 0 1 1.443 1.081c.389.478.584 1.107.584 1.885-.001.967-.355 1.796-1.063 2.487z"/><g style="opacity:.3"><path style="fill:#fff" d="M180.014 258.184c0 .295.112.538.336.726.224.189.549.348.974.478v-2.514c-.449.106-.779.274-.991.505a1.145 1.145 0 0 0-.319.805zM183.095 262.433v2.443c.425-.095.744-.248.956-.46.212-.213.318-.466.318-.762a.915.915 0 0 0-.328-.726c-.217-.189-.533-.354-.946-.495z"/><path style="fill:#fff" d="M182.068 247.67c-7.293 0-13.205 5.912-13.205 13.205s5.912 13.205 13.205 13.205 13.205-5.912 13.205-13.205-5.912-13.205-13.205-13.205zm4.09 18.259c-.708.691-1.729 1.118-3.063 1.283v1.983h-1.771v-1.929a9.571 9.571 0 0 1-2.496-.461c-.791-.259-1.429-.578-1.912-.956l.974-2.16a6.38 6.38 0 0 0 1.576.832 7.21 7.21 0 0 0 1.859.425v-2.957c-.838-.2-1.546-.424-2.124-.673a3.737 3.737 0 0 1-1.451-1.089c-.39-.478-.585-1.112-.585-1.903 0-.979.357-1.82 1.071-2.523.714-.702 1.744-1.13 3.089-1.283v-1.965h1.771v1.93c1.452.118 2.65.478 3.594 1.08l-.885 2.178c-.886-.508-1.788-.815-2.709-.921v3.01c.826.189 1.525.405 2.098.646a3.683 3.683 0 0 1 1.443 1.081c.389.478.584 1.107.584 1.885-.001.967-.355 1.796-1.063 2.487z"/></g><path transform="rotate(-67.5 187.986 231.104)" style="fill:#407bff" d="M164.447 188.781h47.084v84.656h-47.084z"/><path transform="rotate(-67.5 187.986 231.104)" style="opacity:.3;fill:#fff" d="M164.447 188.781h47.084v84.656h-47.084z"/><path style="opacity:.8;fill:#fff" d="m158.567 201.457-12.349 29.814a3.608 3.608 0 0 1 1.953 4.714l64.526 26.728a3.608 3.608 0 0 1 4.714-1.953l12.349-29.814a3.609 3.609 0 0 1-1.953-4.714l-64.526-26.728a3.607 3.607 0 0 1-4.714 1.953z"/><g><path style="fill:#407bff" d="M188.857 234.381a.907.907 0 0 0-.033-.8c-.135-.26-.374-.532-.717-.814l-.962 2.323c.455.074.825.045 1.109-.087.285-.131.486-.339.603-.622zM187.637 229.276l.935-2.257c-.429-.075-.782-.055-1.06.059a1.043 1.043 0 0 0-.585.582.918.918 0 0 0 .025.796c.129.258.357.531.685.82z"/><path style="fill:#407bff" d="M182.936 243.309c6.738 2.791 14.462-.409 17.253-7.146 2.791-6.738-.409-14.462-7.146-17.253-6.738-2.791-14.462.409-17.253 7.146-2.792 6.737.408 14.462 7.146 17.253zm3.209-18.435c.919-.367 2.025-.372 3.321-.014l.759-1.832 1.636.678-.738 1.783a9.613 9.613 0 0 1 2.13 1.381c.632.542 1.099 1.081 1.401 1.615l-1.726 1.623a6.382 6.382 0 0 0-1.137-1.372 7.202 7.202 0 0 0-1.554-1.104l-1.132 2.732c.697.506 1.266.984 1.705 1.435.44.45.748.971.924 1.561.177.591.115 1.251-.188 1.982-.375.905-1.026 1.545-1.955 1.921-.929.375-2.044.377-3.345.003l-.752 1.816-1.636-.678.739-1.783c-1.296-.664-2.266-1.456-2.907-2.373l1.651-1.673c.624.808 1.34 1.437 2.15 1.888l1.152-2.781c-.691-.49-1.254-.958-1.691-1.4a3.672 3.672 0 0 1-.919-1.551c-.177-.59-.116-1.246.182-1.965.367-.894 1.011-1.525 1.93-1.892z"/><g style="opacity:.3"><path style="fill:#fff" d="M188.857 234.381a.907.907 0 0 0-.033-.8c-.135-.26-.374-.532-.717-.814l-.962 2.323c.455.074.825.045 1.109-.087.285-.131.486-.339.603-.622zM187.637 229.276l.935-2.257c-.429-.075-.782-.055-1.06.059a1.043 1.043 0 0 0-.585.582.918.918 0 0 0 .025.796c.129.258.357.531.685.82z"/><path style="fill:#fff" d="M182.936 243.309c6.738 2.791 14.462-.409 17.253-7.146 2.791-6.738-.409-14.462-7.146-17.253-6.738-2.791-14.462.409-17.253 7.146-2.792 6.737.408 14.462 7.146 17.253zm3.209-18.435c.919-.367 2.025-.372 3.321-.014l.759-1.832 1.636.678-.738 1.783a9.613 9.613 0 0 1 2.13 1.381c.632.542 1.099 1.081 1.401 1.615l-1.726 1.623a6.382 6.382 0 0 0-1.137-1.372 7.202 7.202 0 0 0-1.554-1.104l-1.132 2.732c.697.506 1.266.984 1.705 1.435.44.45.748.971.924 1.561.177.591.115 1.251-.188 1.982-.375.905-1.026 1.545-1.955 1.921-.929.375-2.044.377-3.345.003l-.752 1.816-1.636-.678.739-1.783c-1.296-.664-2.266-1.456-2.907-2.373l1.651-1.673c.624.808 1.34 1.437 2.15 1.888l1.152-2.781c-.691-.49-1.254-.958-1.691-1.4a3.672 3.672 0 0 1-.919-1.551c-.177-.59-.116-1.246.182-1.965.367-.894 1.011-1.525 1.93-1.892z"/></g></g><g><path transform="rotate(-45.001 204.849 205.878)" style="fill:#407bff" d="M181.308 163.547h47.084v84.656h-47.084z"/><path transform="rotate(-45.001 204.849 205.878)" style="opacity:.3;fill:#fff" d="M181.308 163.547h47.084v84.656h-47.084z"/><path style="opacity:.8;fill:#fff" d="m189.015 167.221-22.819 22.819a3.607 3.607 0 0 1 0 5.102l49.386 49.386a3.607 3.607 0 0 1 5.102 0l22.819-22.819a3.607 3.607 0 0 1 0-5.102l-49.386-49.386a3.607 3.607 0 0 1-5.102 0z"/><g><path style="fill:#407bff" d="M204.4 209.23a.907.907 0 0 0 .276-.751c-.025-.292-.142-.635-.351-1.026l-1.778 1.778c.392.242.745.357 1.057.344.314-.014.579-.129.796-.345zM205.226 204.047l1.728-1.728c-.368-.233-.701-.35-1.002-.351a1.042 1.042 0 0 0-.764.313.92.92 0 0 0-.282.745c.022.289.128.628.32 1.021z"/><path style="fill:#407bff" d="M195.513 215.212c5.157 5.157 13.518 5.157 18.674 0 5.157-5.157 5.157-13.518 0-18.674-5.157-5.157-13.518-5.157-18.675 0-5.156 5.156-5.156 13.517.001 18.674zm10.02-15.803c.989.012 2.013.432 3.073 1.258l1.402-1.402 1.252 1.252-1.364 1.364a9.614 9.614 0 0 1 1.439 2.091c.376.743.601 1.419.676 2.028l-2.216.839a6.363 6.363 0 0 0-.526-1.703 7.219 7.219 0 0 0-1.014-1.615l-2.091 2.091c.451.734.793 1.393 1.027 1.978.234.584.32 1.183.257 1.796-.062.613-.373 1.2-.932 1.759-.692.692-1.539 1.035-2.541 1.026-1.001-.009-2.032-.434-3.092-1.277l-1.39 1.39-1.252-1.252 1.365-1.365c-.943-1.11-1.536-2.212-1.778-3.305l2.166-.914c.267.985.688 1.84 1.264 2.567l2.128-2.128c-.451-.717-.793-1.365-1.027-1.941a3.684 3.684 0 0 1-.256-1.784c.063-.613.37-1.195.92-1.746.684-.684 1.52-1.02 2.51-1.007z"/><g style="opacity:.3"><path style="fill:#fff" d="M204.4 209.23a.907.907 0 0 0 .276-.751c-.025-.292-.142-.635-.351-1.026l-1.778 1.778c.392.242.745.357 1.057.344.314-.014.579-.129.796-.345zM205.226 204.047l1.728-1.728c-.368-.233-.701-.35-1.002-.351a1.042 1.042 0 0 0-.764.313.92.92 0 0 0-.282.745c.022.289.128.628.32 1.021z"/><path style="fill:#fff" d="M195.513 215.212c5.157 5.157 13.518 5.157 18.674 0 5.157-5.157 5.157-13.518 0-18.674-5.157-5.157-13.518-5.157-18.675 0-5.156 5.156-5.156 13.517.001 18.674zm10.02-15.803c.989.012 2.013.432 3.073 1.258l1.402-1.402 1.252 1.252-1.364 1.364a9.614 9.614 0 0 1 1.439 2.091c.376.743.601 1.419.676 2.028l-2.216.839a6.363 6.363 0 0 0-.526-1.703 7.219 7.219 0 0 0-1.014-1.615l-2.091 2.091c.451.734.793 1.393 1.027 1.978.234.584.32 1.183.257 1.796-.062.613-.373 1.2-.932 1.759-.692.692-1.539 1.035-2.541 1.026-1.001-.009-2.032-.434-3.092-1.277l-1.39 1.39-1.252-1.252 1.365-1.365c-.943-1.11-1.536-2.212-1.778-3.305l2.166-.914c.267.985.688 1.84 1.264 2.567l2.128-2.128c-.451-.717-.793-1.365-1.027-1.941a3.684 3.684 0 0 1-.256-1.784c.063-.613.37-1.195.92-1.746.684-.684 1.52-1.02 2.51-1.007z"/></g></g></g><g><path transform="rotate(-22.5 230.074 189.006)" style="fill:#407bff" d="M206.542 146.686h47.084v84.656h-47.084z"/><path transform="rotate(-22.5 230.074 189.006)" style="opacity:.3;fill:#fff" d="M206.542 146.686h47.084v84.656h-47.084z"/><path style="opacity:.8;fill:#fff" d="m230.247 147.242-29.814 12.349a3.609 3.609 0 0 1-1.953 4.714l26.728 64.526a3.608 3.608 0 0 1 4.714 1.952l29.814-12.349a3.608 3.608 0 0 1 1.953-4.714l-26.728-64.526a3.606 3.606 0 0 1-4.714-1.952z"/><g><path style="fill:#407bff" d="M228.384 191.941a.906.906 0 0 0 .542-.589c.089-.279.111-.641.069-1.083l-2.323.962c.27.374.551.615.845.722.295.11.584.105.867-.012zM231.131 187.469l2.257-.935c-.251-.356-.514-.592-.792-.707a1.042 1.042 0 0 0-.825-.003.92.92 0 0 0-.546.581c-.09.273-.121.628-.094 1.064z"/><path style="fill:#407bff" d="M217.884 194.067c2.791 6.738 10.515 9.937 17.253 7.146 6.738-2.791 9.937-10.515 7.146-17.253-2.791-6.738-10.515-9.937-17.253-7.146-6.737 2.791-9.936 10.515-7.146 17.253zm15.305-10.766c.909.39 1.695 1.169 2.358 2.338l1.832-.759.678 1.636-1.783.738c.29.825.467 1.652.53 2.482.063.83.012 1.541-.151 2.132l-2.369-.073c.134-.54.189-1.132.166-1.774a7.217 7.217 0 0 0-.319-1.88l-2.732 1.132c.136.851.199 1.591.191 2.22a3.746 3.746 0 0 1-.45 1.758c-.292.543-.804.966-1.535 1.269-.905.375-1.818.367-2.741-.024-.922-.391-1.711-1.179-2.368-2.363l-1.816.752-.678-1.636 1.783-.739c-.447-1.386-.573-2.631-.378-3.733l2.351-.016c-.13 1.012-.069 1.964.186 2.855l2.781-1.152c-.142-.835-.21-1.564-.206-2.186a3.684 3.684 0 0 1 .446-1.746c.293-.542.799-.963 1.518-1.261.895-.37 1.797-.36 2.706.03z"/><g style="opacity:.3"><path style="fill:#fff" d="M228.384 191.941a.906.906 0 0 0 .542-.589c.089-.279.111-.641.069-1.083l-2.323.962c.27.374.551.615.845.722.295.11.584.105.867-.012zM231.131 187.469l2.257-.935c-.251-.356-.514-.592-.792-.707a1.042 1.042 0 0 0-.825-.003.92.92 0 0 0-.546.581c-.09.273-.121.628-.094 1.064z"/><path style="fill:#fff" d="M217.884 194.067c2.791 6.738 10.515 9.937 17.253 7.146 6.738-2.791 9.937-10.515 7.146-17.253-2.791-6.738-10.515-9.937-17.253-7.146-6.737 2.791-9.936 10.515-7.146 17.253zm15.305-10.766c.909.39 1.695 1.169 2.358 2.338l1.832-.759.678 1.636-1.783.738c.29.825.467 1.652.53 2.482.063.83.012 1.541-.151 2.132l-2.369-.073c.134-.54.189-1.132.166-1.774a7.217 7.217 0 0 0-.319-1.88l-2.732 1.132c.136.851.199 1.591.191 2.22a3.746 3.746 0 0 1-.45 1.758c-.292.543-.804.966-1.535 1.269-.905.375-1.818.367-2.741-.024-.922-.391-1.711-1.179-2.368-2.363l-1.816.752-.678-1.636 1.783-.739c-.447-1.386-.573-2.631-.378-3.733l2.351-.016c-.13 1.012-.069 1.964.186 2.855l2.781-1.152c-.142-.835-.21-1.564-.206-2.186a3.684 3.684 0 0 1 .446-1.746c.293-.542.799-.963 1.518-1.261.895-.37 1.797-.36 2.706.03z"/></g></g></g><g><path style="fill:#407bff" d="M236.308 140.765h47.084v84.656h-47.084z"/><path style="opacity:.3;fill:#fff" d="M236.308 140.765h47.084v84.656h-47.084z"/><path style="opacity:.8;fill:#fff" d="M275.985 144.564h-32.271a3.608 3.608 0 0 1-3.608 3.608v69.843a3.608 3.608 0 0 1 3.608 3.608h32.271a3.608 3.608 0 0 1 3.608-3.608v-69.843a3.609 3.609 0 0 1-3.608-3.608z"/><g><path style="fill:#407bff" d="M257.159 185.147a.905.905 0 0 0 .726-.336c.189-.224.348-.549.478-.974h-2.514c.106.449.274.779.505.991.23.213.499.319.805.319zM261.408 182.066h2.443c-.095-.425-.248-.743-.461-.956a1.041 1.041 0 0 0-.762-.318.915.915 0 0 0-.726.328c-.187.218-.352.533-.494.946z"/><path style="fill:#407bff" d="M246.645 183.093c0 7.293 5.912 13.205 13.205 13.205s13.205-5.912 13.205-13.205-5.912-13.205-13.205-13.205-13.205 5.912-13.205 13.205zm18.26-4.089c.691.708 1.118 1.729 1.283 3.063h1.983v1.771h-1.929a9.612 9.612 0 0 1-.46 2.496c-.259.791-.578 1.429-.956 1.912l-2.16-.974a6.38 6.38 0 0 0 .832-1.576 7.21 7.21 0 0 0 .425-1.859h-2.957c-.2.838-.424 1.546-.673 2.124a3.746 3.746 0 0 1-1.088 1.452c-.478.39-1.112.585-1.903.585-.979 0-1.82-.357-2.523-1.071-.702-.714-1.13-1.744-1.283-3.089h-1.965v-1.771h1.93c.118-1.452.478-2.65 1.08-3.594l2.178.885c-.508.886-.815 1.788-.921 2.709h3.01c.189-.826.405-1.525.646-2.098a3.683 3.683 0 0 1 1.081-1.443c.478-.389 1.106-.584 1.885-.584.965-.001 1.794.353 2.485 1.062z"/><g style="opacity:.3"><path style="fill:#fff" d="M257.159 185.147a.905.905 0 0 0 .726-.336c.189-.224.348-.549.478-.974h-2.514c.106.449.274.779.505.991.23.213.499.319.805.319zM261.408 182.066h2.443c-.095-.425-.248-.743-.461-.956a1.041 1.041 0 0 0-.762-.318.915.915 0 0 0-.726.328c-.187.218-.352.533-.494.946z"/><path style="fill:#fff" d="M246.645 183.093c0 7.293 5.912 13.205 13.205 13.205s13.205-5.912 13.205-13.205-5.912-13.205-13.205-13.205-13.205 5.912-13.205 13.205zm18.26-4.089c.691.708 1.118 1.729 1.283 3.063h1.983v1.771h-1.929a9.612 9.612 0 0 1-.46 2.496c-.259.791-.578 1.429-.956 1.912l-2.16-.974a6.38 6.38 0 0 0 .832-1.576 7.21 7.21 0 0 0 .425-1.859h-2.957c-.2.838-.424 1.546-.673 2.124a3.746 3.746 0 0 1-1.088 1.452c-.478.39-1.112.585-1.903.585-.979 0-1.82-.357-2.523-1.071-.702-.714-1.13-1.744-1.283-3.089h-1.965v-1.771h1.93c.118-1.452.478-2.65 1.08-3.594l2.178.885c-.508.886-.815 1.788-.921 2.709h3.01c.189-.826.405-1.525.646-2.098a3.683 3.683 0 0 1 1.081-1.443c.478-.389 1.106-.584 1.885-.584.965-.001 1.794.353 2.485 1.062z"/></g></g></g><g><path transform="rotate(-67.5 289.61 189.009)" style="fill:#407bff" d="M247.288 165.472h84.656v47.084h-84.656z"/><path transform="rotate(-67.5 289.61 189.009)" style="opacity:.3;fill:#fff" d="M247.288 165.472h84.656v47.084h-84.656z"/><path style="opacity:.8;fill:#fff" d="m319.267 159.592-29.814-12.349a3.607 3.607 0 0 1-4.714 1.952l-26.728 64.526a3.607 3.607 0 0 1 1.952 4.714l29.814 12.35a3.609 3.609 0 0 1 4.714-1.953l26.728-64.526a3.609 3.609 0 0 1-1.952-4.714z"/><g><path style="fill:#407bff" d="M286.344 189.881c.273.113.54.102.8-.033s.532-.374.814-.717l-2.323-.962c-.074.455-.045.824.087 1.109.131.285.338.486.622.603zM291.448 188.661l2.257.935c.075-.429.055-.782-.06-1.06a1.04 1.04 0 0 0-.582-.585.918.918 0 0 0-.796.025c-.257.13-.53.358-.819.685z"/><path style="fill:#407bff" d="M277.416 183.96c-2.791 6.738.409 14.462 7.146 17.253 6.738 2.791 14.462-.409 17.253-7.146 2.791-6.738-.409-14.462-7.146-17.253-6.738-2.791-14.462.409-17.253 7.146zm18.434 3.21c.367.919.371 2.025.014 3.321l1.832.759-.678 1.636-1.782-.738a9.613 9.613 0 0 1-1.381 2.13c-.542.632-1.081 1.099-1.615 1.401l-1.623-1.726a6.382 6.382 0 0 0 1.372-1.137c.437-.47.806-.988 1.104-1.555l-2.732-1.132c-.506.697-.984 1.266-1.435 1.705a3.73 3.73 0 0 1-1.561.924c-.591.177-1.251.115-1.982-.188-.905-.375-1.545-1.026-1.921-1.955-.375-.928-.377-2.044-.003-3.345l-1.816-.752.678-1.636 1.783.739c.664-1.296 1.456-2.265 2.373-2.907l1.673 1.651c-.808.624-1.437 1.34-1.888 2.15l2.781 1.152c.49-.691.958-1.255 1.4-1.691a3.682 3.682 0 0 1 1.551-.919c.59-.177 1.246-.116 1.965.182.894.368 1.524 1.012 1.891 1.931z"/><g style="opacity:.3"><path style="fill:#fff" d="M286.344 189.881c.273.113.54.102.8-.033s.532-.374.814-.717l-2.323-.962c-.074.455-.045.824.087 1.109.131.285.338.486.622.603zM291.448 188.661l2.257.935c.075-.429.055-.782-.06-1.06a1.04 1.04 0 0 0-.582-.585.918.918 0 0 0-.796.025c-.257.13-.53.358-.819.685z"/><path style="fill:#fff" d="M277.416 183.96c-2.791 6.738.409 14.462 7.146 17.253 6.738 2.791 14.462-.409 17.253-7.146 2.791-6.738-.409-14.462-7.146-17.253-6.738-2.791-14.462.409-17.253 7.146zm18.434 3.21c.367.919.371 2.025.014 3.321l1.832.759-.678 1.636-1.782-.738a9.613 9.613 0 0 1-1.381 2.13c-.542.632-1.081 1.099-1.615 1.401l-1.623-1.726a6.382 6.382 0 0 0 1.372-1.137c.437-.47.806-.988 1.104-1.555l-2.732-1.132c-.506.697-.984 1.266-1.435 1.705a3.73 3.73 0 0 1-1.561.924c-.591.177-1.251.115-1.982-.188-.905-.375-1.545-1.026-1.921-1.955-.375-.928-.377-2.044-.003-3.345l-1.816-.752.678-1.636 1.783.739c.664-1.296 1.456-2.265 2.373-2.907l1.673 1.651c-.808.624-1.437 1.34-1.888 2.15l2.781 1.152c.49-.691.958-1.255 1.4-1.691a3.682 3.682 0 0 1 1.551-.919c.59-.177 1.246-.116 1.965.182.894.368 1.524 1.012 1.891 1.931z"/></g></g></g><g><path transform="rotate(-45.001 314.849 205.88)" style="fill:#407bff" d="M272.522 182.333h84.656v47.084h-84.656z"/><path transform="rotate(-45.001 314.849 205.88)" style="opacity:.3;fill:#fff" d="M272.522 182.333h84.656v47.084h-84.656z"/><path style="opacity:.8;fill:#fff" d="m353.504 190.04-22.819-22.819a3.607 3.607 0 0 1-5.102 0l-49.386 49.386a3.607 3.607 0 0 1 0 5.102l22.819 22.819a3.607 3.607 0 0 1 5.102 0l49.386-49.386a3.607 3.607 0 0 1 0-5.102z"/><g><path style="fill:#407bff" d="M311.495 205.424c.209.209.46.301.751.276.292-.025.635-.142 1.026-.351l-1.778-1.778c-.242.392-.357.745-.344 1.057.013.315.128.579.345.796zM316.678 206.251l1.728 1.728c.233-.368.35-.701.351-1.002a1.039 1.039 0 0 0-.314-.764.92.92 0 0 0-.745-.282c-.289.021-.628.127-1.02.32z"/><path style="fill:#407bff" d="M305.513 196.537c-5.157 5.157-5.157 13.518 0 18.674 5.157 5.157 13.518 5.157 18.674 0 5.157-5.157 5.157-13.518 0-18.675-5.157-5.156-13.518-5.156-18.674.001zm15.803 10.02c-.012.989-.432 2.013-1.258 3.073l1.402 1.402-1.252 1.252-1.364-1.364a9.614 9.614 0 0 1-2.091 1.439c-.743.376-1.419.601-2.028.676l-.839-2.216a6.363 6.363 0 0 0 1.703-.526 7.219 7.219 0 0 0 1.615-1.014l-2.091-2.091c-.734.451-1.393.793-1.978 1.026a3.736 3.736 0 0 1-1.796.257c-.613-.062-1.2-.373-1.759-.933-.692-.692-1.035-1.539-1.026-2.541.009-1.001.434-2.032 1.277-3.092l-1.39-1.39 1.252-1.252 1.365 1.365c1.11-.943 2.212-1.536 3.305-1.778l.914 2.166c-.985.267-1.84.688-2.567 1.264l2.128 2.128c.717-.451 1.365-.792 1.94-1.027a3.684 3.684 0 0 1 1.784-.256c.613.063 1.195.37 1.746.92.684.686 1.02 1.523 1.008 2.512z"/><g style="opacity:.3"><path style="fill:#fff" d="M311.495 205.424c.209.209.46.301.751.276.292-.025.635-.142 1.026-.351l-1.778-1.778c-.242.392-.357.745-.344 1.057.013.315.128.579.345.796zM316.678 206.251l1.728 1.728c.233-.368.35-.701.351-1.002a1.039 1.039 0 0 0-.314-.764.92.92 0 0 0-.745-.282c-.289.021-.628.127-1.02.32z"/><path style="fill:#fff" d="M305.513 196.537c-5.157 5.157-5.157 13.518 0 18.674 5.157 5.157 13.518 5.157 18.674 0 5.157-5.157 5.157-13.518 0-18.675-5.157-5.156-13.518-5.156-18.674.001zm15.803 10.02c-.012.989-.432 2.013-1.258 3.073l1.402 1.402-1.252 1.252-1.364-1.364a9.614 9.614 0 0 1-2.091 1.439c-.743.376-1.419.601-2.028.676l-.839-2.216a6.363 6.363 0 0 0 1.703-.526 7.219 7.219 0 0 0 1.615-1.014l-2.091-2.091c-.734.451-1.393.793-1.978 1.026a3.736 3.736 0 0 1-1.796.257c-.613-.062-1.2-.373-1.759-.933-.692-.692-1.035-1.539-1.026-2.541.009-1.001.434-2.032 1.277-3.092l-1.39-1.39 1.252-1.252 1.365 1.365c1.11-.943 2.212-1.536 3.305-1.778l.914 2.166c-.985.267-1.84.688-2.567 1.264l2.128 2.128c.717-.451 1.365-.792 1.94-1.027a3.684 3.684 0 0 1 1.784-.256c.613.063 1.195.37 1.746.92.684.686 1.02 1.523 1.008 2.512z"/></g></g></g><g><path transform="rotate(-22.5 331.695 231.1)" style="fill:#407bff" d="M289.383 207.567h84.656v47.084h-84.656z"/><path transform="rotate(-22.5 331.695 231.1)" style="opacity:.3;fill:#fff" d="M289.383 207.567h84.656v47.084h-84.656z"/><path style="opacity:.8;fill:#fff" d="m373.482 231.271-12.35-29.814a3.608 3.608 0 0 1-4.714-1.952l-64.526 26.728a3.608 3.608 0 0 1-1.952 4.714l12.349 29.814a3.608 3.608 0 0 1 4.714 1.953l64.526-26.728a3.61 3.61 0 0 1 1.953-4.715z"/><g><path style="fill:#407bff" d="M328.784 229.409a.904.904 0 0 0 .589.542c.279.089.641.111 1.082.069l-.962-2.323c-.374.27-.615.551-.722.845-.11.295-.105.584.013.867zM333.256 232.156l.935 2.257c.356-.251.592-.514.707-.792.114-.278.116-.552.003-.825a.92.92 0 0 0-.581-.546c-.274-.09-.628-.122-1.064-.094z"/><path style="fill:#407bff" d="M326.657 218.909c-6.738 2.791-9.937 10.515-7.146 17.253 2.791 6.738 10.515 9.937 17.253 7.146 6.738-2.791 9.937-10.515 7.146-17.253-2.79-6.737-10.515-9.937-17.253-7.146zm10.766 15.305c-.39.909-1.169 1.695-2.338 2.358l.759 1.832-1.636.678-.738-1.783a9.625 9.625 0 0 1-2.482.53c-.83.063-1.541.012-2.132-.151l.073-2.369c.54.134 1.132.189 1.774.166a7.216 7.216 0 0 0 1.88-.318l-1.132-2.732c-.851.135-1.591.199-2.22.191a3.746 3.746 0 0 1-1.758-.45c-.543-.292-.966-.804-1.269-1.535-.375-.905-.367-1.818.024-2.741.391-.922 1.179-1.711 2.363-2.368l-.752-1.816 1.636-.678.739 1.783c1.386-.446 2.631-.573 3.733-.378l.016 2.351c-1.012-.13-1.964-.069-2.855.186l1.152 2.781c.835-.142 1.564-.21 2.186-.206a3.684 3.684 0 0 1 1.746.446c.542.292.963.799 1.261 1.518.37.894.361 1.795-.03 2.705z"/><g style="opacity:.3"><path style="fill:#fff" d="M328.784 229.409a.904.904 0 0 0 .589.542c.279.089.641.111 1.082.069l-.962-2.323c-.374.27-.615.551-.722.845-.11.295-.105.584.013.867zM333.256 232.156l.935 2.257c.356-.251.592-.514.707-.792.114-.278.116-.552.003-.825a.92.92 0 0 0-.581-.546c-.274-.09-.628-.122-1.064-.094z"/><path style="fill:#fff" d="M326.657 218.909c-6.738 2.791-9.937 10.515-7.146 17.253 2.791 6.738 10.515 9.937 17.253 7.146 6.738-2.791 9.937-10.515 7.146-17.253-2.79-6.737-10.515-9.937-17.253-7.146zm10.766 15.305c-.39.909-1.169 1.695-2.338 2.358l.759 1.832-1.636.678-.738-1.783a9.625 9.625 0 0 1-2.482.53c-.83.063-1.541.012-2.132-.151l.073-2.369c.54.134 1.132.189 1.774.166a7.216 7.216 0 0 0 1.88-.318l-1.132-2.732c-.851.135-1.591.199-2.22.191a3.746 3.746 0 0 1-1.758-.45c-.543-.292-.966-.804-1.269-1.535-.375-.905-.367-1.818.024-2.741.391-.922 1.179-1.711 2.363-2.368l-.752-1.816 1.636-.678.739 1.783c1.386-.446 2.631-.573 3.733-.378l.016 2.351c-1.012-.13-1.964-.069-2.855.186l1.152 2.781c.835-.142 1.564-.21 2.186-.206a3.684 3.684 0 0 1 1.746.446c.542.292.963.799 1.261 1.518.37.894.361 1.795-.03 2.705z"/></g></g></g><g><path style="fill:#407bff" d="M295.303 237.333h84.656v47.084h-84.656z"/><path style="opacity:.8;fill:#fff" d="M376.161 277.01v-32.271a3.608 3.608 0 0 1-3.608-3.608H302.71a3.608 3.608 0 0 1-3.608 3.608v32.271a3.608 3.608 0 0 1 3.608 3.608h69.843a3.608 3.608 0 0 1 3.608-3.608z"/><g><path style="fill:#263238" d="M335.578 258.184c0 .295.112.538.336.726.224.189.549.348.974.478v-2.514c-.449.106-.779.274-.991.505a1.145 1.145 0 0 0-.319.805zM338.658 262.433v2.443c.425-.095.744-.248.956-.46.212-.213.318-.466.318-.762a.915.915 0 0 0-.328-.726c-.217-.189-.532-.354-.946-.495z"/><path style="fill:#263238" d="M337.632 247.67c-7.293 0-13.205 5.912-13.205 13.205s5.912 13.205 13.205 13.205 13.205-5.912 13.205-13.205c-.001-7.293-5.913-13.205-13.205-13.205zm4.089 18.259c-.708.691-1.729 1.118-3.063 1.283v1.983h-1.771v-1.929a9.571 9.571 0 0 1-2.496-.461c-.791-.259-1.429-.578-1.912-.956l.974-2.16a6.38 6.38 0 0 0 1.576.832 7.21 7.21 0 0 0 1.859.425v-2.957c-.838-.2-1.546-.424-2.124-.673a3.748 3.748 0 0 1-1.452-1.089c-.39-.478-.585-1.112-.585-1.903 0-.979.357-1.82 1.071-2.523.714-.702 1.744-1.13 3.089-1.283v-1.965h1.771v1.93c1.452.118 2.65.478 3.594 1.08l-.885 2.178c-.886-.508-1.788-.815-2.709-.921v3.01c.826.189 1.525.405 2.098.646a3.683 3.683 0 0 1 1.443 1.081c.389.478.584 1.107.584 1.885 0 .967-.353 1.796-1.062 2.487z"/></g></g><path style="fill:#407bff" d="M277.067 241.636a1.126 1.126 0 0 0-1.098 1.152l.041 1.696c-11.064-9.183-27.418-8.847-38.089 1.018-.463.428-.462 1.163-.016 1.609a1.132 1.132 0 0 0 1.573.016c9.835-9.064 24.882-9.372 35.076-.929l-1.877.046a1.126 1.126 0 0 0 .054 2.25l5.623-.137-.137-5.623a1.122 1.122 0 0 0-1.15-1.098z"/></g><g><path style="fill:#407bff" d="M218.34 354.557h-72.219c-8.124 0-14.711-6.586-14.711-14.711V167.233c0-8.124 6.586-14.711 14.711-14.711h72.219c8.124 0 14.711 6.586 14.711 14.711v172.613c0 8.125-6.586 14.711-14.711 14.711z"/><path style="fill:#263238" d="M214.59 354.557h-72.219c-8.124 0-14.711-6.586-14.711-14.711V167.233c0-8.124 6.586-14.711 14.711-14.711h72.219c8.124 0 14.711 6.586 14.711 14.711v172.613c0 8.125-6.586 14.711-14.711 14.711z"/><path style="fill:#407bff" d="M214.59 155.898h-18.771c-1.23 0-2.267.914-2.423 2.133l-.075.588a5.966 5.966 0 0 1-5.917 5.21h-17.846a5.965 5.965 0 0 1-5.917-5.21l-.075-.588a2.443 2.443 0 0 0-2.423-2.133h-18.771c-6.26 0-11.335 5.075-11.335 11.336v172.613c0 6.26 5.075 11.336 11.336 11.336h72.219c6.26 0 11.336-5.075 11.336-11.336V167.234c-.002-6.261-5.077-11.336-11.338-11.336z"/><path style="opacity:.8;fill:#fff" d="M214.59 155.898h-18.771c-1.23 0-2.267.914-2.423 2.133l-.075.588a5.966 5.966 0 0 1-5.917 5.21h-17.846a5.965 5.965 0 0 1-5.917-5.21l-.075-.588a2.443 2.443 0 0 0-2.423-2.133h-18.771c-6.26 0-11.335 5.075-11.335 11.336v172.613c0 6.26 5.075 11.336 11.336 11.336h72.219c6.26 0 11.336-5.075 11.336-11.336V167.234c-.002-6.261-5.077-11.336-11.338-11.336z"/><g style="opacity:.7"><path d="M174.113 157.811a1.434 1.434 0 1 1-2.868 0 1.434 1.434 0 0 1 2.868 0zM184.283 156.376h-4.918a1.434 1.434 0 1 0 0 2.868h4.918a1.434 1.434 0 1 0 0-2.868z"/></g><path style="fill:#407bff" d="M138.896 162.283h1.519v1.519h-1.519zM141.934 162.283v1.518h1.518v-1.518l.001-1.519h-1.519zM144.971 159.245v4.556h1.519v-4.556zM210.282 159.346v1.114h-.743v2.227h.742v1.114h6.682v-4.455h-6.681zm2.97 3.342h-2.227v-2.227h2.228l-.001 2.227z"/><g><path style="fill:#263238" d="M186.68 194.566h-2.25v-5.43a6.14 6.14 0 0 0-6.133-6.133 6.14 6.14 0 0 0-6.133 6.133v5.43h-2.25v-5.43c0-4.622 3.761-8.383 8.383-8.383 4.622 0 8.383 3.761 8.383 8.383v5.43z"/><path style="fill:#263238" d="M167.672 192.504v17.5h21.25v-17.5h-21.25zm11.746 8.69v2.821a1.12 1.12 0 0 1-2.24 0v-2.821a2.073 2.073 0 0 1 .735-3.787 2.079 2.079 0 0 1 2.463 2.042 2.079 2.079 0 0 1-.958 1.745z"/></g><g><path style="fill:#407bff" d="M193.108 272.08h-30.355a3.948 3.948 0 0 1-3.948-3.948v-17.605a3.947 3.947 0 0 1 3.948-3.947h30.355a3.947 3.947 0 0 1 3.947 3.947v17.605a3.947 3.947 0 0 1-3.947 3.948z"/><path style="fill:#263238" d="M158.805 250.953h38.25v6.775h-38.25z"/><g style="opacity:.6"><path style="fill:#fff" d="M179.808 268.978h-15.755a1.5 1.5 0 0 1 0-3h15.755a1.5 1.5 0 0 1 0 3zM191.359 268.978h-1.352a1.949 1.949 0 0 1-1.949-1.949v-1.352c0-1.077.873-1.949 1.949-1.949h1.352c1.077 0 1.949.873 1.949 1.949v1.352a1.95 1.95 0 0 1-1.949 1.949z"/></g></g><path style="opacity:.1;fill:#263238" d="M204.837 319.85v-20.347h-8.647v-19.505h5.086a3.715 3.715 0 0 0 3.711-3.71v-33.915a3.715 3.715 0 0 0-3.711-3.71h-45.959a3.715 3.715 0 0 0-3.711 3.71v33.915a3.715 3.715 0 0 0 3.711 3.71h5.086v15.568h-8.647v13.41a1.062 1.062 0 0 0 .6 1.942 1.064 1.064 0 0 0 .6-1.942v-12.21h8.647v-8.813h7.447v38.085a1.062 1.062 0 0 0 .6 1.942 1.064 1.064 0 0 0 .6-1.942v-39.285h-8.647v-6.755h16.093v62.915a1.062 1.062 0 0 0 .6 1.942 1.064 1.064 0 0 0 .6-1.942v-34.335h7.447v18.96a1.062 1.062 0 0 0 .6 1.942 1.064 1.064 0 0 0 .6-1.942v-20.159h-8.647v-27.38h16.094v6.755h-8.647v7.753a1.062 1.062 0 0 0 .6 1.942 1.064 1.064 0 0 0 .6-1.942v-6.553h7.447v22.689a1.062 1.062 0 0 0 .6 1.942 1.064 1.064 0 0 0 .6-1.942v-9.939h7.447v19.147a1.062 1.062 0 0 0 .6 1.942 1.064 1.064 0 0 0 .6-1.943zm-51.73-43.562v-33.915c0-1.219.992-2.21 2.211-2.21h45.959c1.219 0 2.211.992 2.211 2.21v33.915c0 1.219-.992 2.21-2.211 2.21h-45.959a2.213 2.213 0 0 1-2.211-2.21z"/><g><path style="fill:#263238" d="M140.138 227.394c-.415-.126-.744-.294-.986-.503l.372-.833c.236.187.526.34.87.458s.689.177 1.036.177c.429 0 .749-.069.961-.206.212-.138.318-.319.318-.544a.531.531 0 0 0-.178-.409 1.236 1.236 0 0 0-.45-.251 9.777 9.777 0 0 0-.742-.206 8.644 8.644 0 0 1-1.068-.313 1.77 1.77 0 0 1-.701-.491c-.195-.223-.293-.524-.293-.903 0-.319.086-.609.26-.87.173-.261.435-.469.784-.623.349-.154.777-.231 1.283-.231.352 0 .699.044 1.04.132.341.088.635.214.883.379l-.338.833a3.357 3.357 0 0 0-.792-.338 2.962 2.962 0 0 0-.8-.115c-.424 0-.739.071-.945.214a.663.663 0 0 0-.31.569c0 .165.059.3.178.404.118.104.268.187.449.247.182.061.429.129.743.206.429.099.781.202 1.056.31.275.107.51.27.705.491.195.22.293.517.293.891 0 .319-.087.607-.26.866-.173.258-.436.465-.788.619-.352.154-.781.231-1.287.231a4.49 4.49 0 0 1-1.293-.191zM149.16 226.602v.899h-4.332v-5.775h4.216v.899h-3.143v1.502h2.789v.882h-2.789v1.592h3.259zM151.424 227.2a2.818 2.818 0 0 1-1.105-1.06 2.936 2.936 0 0 1-.4-1.526c0-.566.135-1.075.404-1.526.27-.451.64-.805 1.11-1.06a3.25 3.25 0 0 1 1.58-.384c.473 0 .905.083 1.295.247.391.165.721.404.99.718l-.693.651a2.02 2.02 0 0 0-1.542-.676c-.396 0-.751.086-1.064.26a1.873 1.873 0 0 0-.734.722 2.072 2.072 0 0 0-.264 1.047c0 .391.088.74.264 1.048.176.308.421.549.734.722.313.173.668.26 1.064.26.61 0 1.124-.228 1.542-.685l.693.66c-.27.314-.601.553-.994.718a3.326 3.326 0 0 1-1.299.247 3.247 3.247 0 0 1-1.581-.383zM156.906 226.911c-.445-.448-.668-1.09-.668-1.926v-3.259h1.072v3.217c0 1.133.49 1.7 1.469 1.7.974 0 1.46-.566 1.46-1.7v-3.217h1.056v3.259c0 .836-.221 1.478-.664 1.926-.443.448-1.063.672-1.86.672s-1.419-.224-1.865-.672zM166.575 227.501l-1.18-1.691a2.073 2.073 0 0 1-.223.008h-1.303v1.683h-1.073v-5.775h2.376c.5 0 .936.082 1.308.247.372.165.656.401.854.71.198.308.297.674.297 1.097 0 .435-.106.809-.317 1.122a1.894 1.894 0 0 1-.912.701l1.328 1.898h-1.155zm-.388-4.57c-.242-.198-.597-.297-1.064-.297h-1.254v2.302h1.254c.467 0 .822-.1 1.064-.301.242-.201.363-.485.363-.854s-.121-.653-.363-.85zM173.159 226.602v.899h-4.332v-5.775h4.216v.899H169.9v1.502h2.789v.882H169.9v1.592h3.259zM180.315 221.974c.372.165.656.401.854.71.198.308.297.674.297 1.097 0 .418-.099.782-.297 1.093a1.886 1.886 0 0 1-.854.713c-.371.165-.807.248-1.308.248h-1.303v1.667h-1.073v-5.775h2.376c.501-.001.937.082 1.308.247zm-.293 2.656c.242-.198.363-.481.363-.85s-.121-.652-.363-.85c-.242-.198-.597-.297-1.064-.297h-1.254v2.294h1.254c.467 0 .822-.099 1.064-.297zM185.995 226.165h-2.888l-.569 1.336h-1.105l2.599-5.775h1.056l2.607 5.775h-1.122l-.578-1.336zm-.355-.842-1.089-2.524-1.081 2.524h2.17zM190.574 225.463v2.038h-1.073v-2.021l-2.269-3.753h1.146l1.691 2.813 1.708-2.813h1.056l-2.259 3.736zM198.758 227.501l-.008-3.828-1.898 3.168h-.479l-1.897-3.118v3.778h-1.023v-5.775h.883l2.294 3.828 2.252-3.828h.883l.008 5.775h-1.015zM205.663 226.602v.899h-4.332v-5.775h4.216v.899h-3.143v1.502h2.789v.882h-2.789v1.592h3.259zM211.991 221.726v5.775h-.883l-3.185-3.911v3.911h-1.064v-5.775h.883l3.185 3.911v-3.911h1.064zM214.713 222.633h-1.914v-.907h4.9v.907h-1.914v4.868h-1.073v-4.868z"/></g><g><path style="fill:#407bff" d="M198.023 131.219a1.5 1.5 0 0 1-1.5-1.5c0-2.85-7.619-9.554-18.042-9.554-10.042 0-18.043 6.861-18.043 9.554a1.5 1.5 0 1 1-3 0c0-4.843 9.63-12.554 21.043-12.554 11.616 0 21.042 7.597 21.042 12.554a1.5 1.5 0 0 1-1.5 1.5z"/><path style="fill:#407bff" d="M192.491 138.799a1.5 1.5 0 0 1-1.5-1.5c0-1.863-5.415-6.424-12.51-6.424-7.178 0-12.509 4.919-12.509 6.424a1.5 1.5 0 1 1-3 0c0-3.636 7.098-9.424 15.509-9.424 8.207 0 15.51 5.27 15.51 9.424a1.5 1.5 0 0 1-1.5 1.5z"/><path style="fill:#407bff" d="M170.002 146.407c-.829 0-1.498-.7-1.498-1.528 0-2.749 4.838-6.295 9.977-6.295 5.373 0 9.977 3.461 9.977 6.295a1.5 1.5 0 1 1-3 0c-.115-.833-3.014-3.295-6.977-3.295-3.961 0-6.803 2.544-6.981 3.351 0 .828-.67 1.472-1.498 1.472z"/></g></g><g><path style="fill:#407bff" d="M106.186 258.26s-8.244 35.034-8.741 78.839c-.497 43.805 4.271 66.676 4.271 66.676h8.94s3.178-36.823 2.575-55.946a80.764 80.764 0 0 0-.271-4.754c-.438-4.786-.236-9.602.678-14.32l4.442-22.92a52.525 52.525 0 0 1 3.218-10.483c.128-.302.259-.619.393-.95 2.852-7.046 6.913-20.601 4.226-36.141h-19.731z"/><path style="opacity:.1" d="M121.692 294.401a71.215 71.215 0 0 0 4.554-17.355c-.955-4.132-2.297-13.537-4.118-9.529-3.388 7.46-3.13 27.281-2.781 33.231a53.71 53.71 0 0 1 1.951-5.397c.129-.302.26-.619.394-.95z"/><path style="fill:#263238" d="m104.133 404.268 6.661.034a.62.62 0 0 1 .604.485l1.376 6.264a1.03 1.03 0 0 1-.993 1.259c-2.774-.055-5.241-.212-8.695-.216-4.076-.008-3.043.482-7.835.539-2.887.031-3.408-3.252-2.184-3.41 5.605-.692 7.226-2.399 9.392-4.4a2.486 2.486 0 0 1 1.674-.555z"/><path style="fill:#407bff" d="m100.184 401.448 1.043 3.576h10.504l.372-3.576z"/><path style="opacity:.5;fill:#fff" d="m100.184 401.448 1.043 3.576h10.504l.372-3.576z"/><path style="fill:#407bff" d="M120.49 258.26s1.303 62.747 17.637 145.59l9.182-.199s-1.687-46.543-4.263-65.6a98.803 98.803 0 0 0-.295-2.031c-.749-4.759-1.079-9.575-.889-14.389l.016-.421 1.266-32.089s.391-13.945-2.788-30.862H120.49z"/><path style="fill:#263238" d="m140.29 404.268 6.661.034a.62.62 0 0 1 .604.485l1.377 6.264a1.03 1.03 0 0 1-.993 1.259c-2.774-.055-5.241-.212-8.695-.216-4.076-.008-3.043.482-7.835.539-2.887.031-3.408-3.252-2.184-3.41 5.605-.692 7.226-2.399 9.392-4.4a2.482 2.482 0 0 1 1.673-.555z"/><path style="fill:#407bff" d="M100.591 211.634h-4.107c-.864 0-1.626-.701-1.702-1.565l-1.036-11.842a1.411 1.411 0 0 1 1.428-1.565h4.107c.864 0 1.626.701 1.702 1.565l1.036 11.842a1.411 1.411 0 0 1-1.428 1.565z"/><path style="fill:#263238" d="M100.094 211.634h-4.107c-.864 0-1.626-.701-1.702-1.565l-1.036-11.842a1.411 1.411 0 0 1 1.428-1.565h4.107c.864 0 1.626.701 1.702 1.565l1.036 11.842a1.411 1.411 0 0 1-1.428 1.565z"/><path style="opacity:.3;fill:#fff" d="M95.854 198.319a.817.817 0 0 1-.826.906c-.5 0-.941-.406-.985-.906a.817.817 0 0 1 .826-.906c.501 0 .942.406.985.906z"/><path style="opacity:.3" d="M95.356 198.319c.02.225-.147.407-.371.407s-.423-.182-.443-.407a.367.367 0 0 1 .371-.407c.225 0 .423.182.443.407z"/><path style="fill:#263238" d="M109.416 207.547a.673.673 0 0 0-1.157-.339c-1.602 1.742-5.056 5.942-8.132 12.68-4.172 9.138-16.688 13.31-12.913 19.072 3.774 5.761 19.072-10.529 21.952-14.999 2.336-3.626.883-13 .25-16.414z"/><path style="opacity:.6" d="M95.408 237.683c2.283-5.332 1.431-10.32.917-12.31-1.945 2.107-4.122 3.918-5.934 5.595l-2.755 5.335s-.017 1.593.208 3.325c1.64 1.261 4.47.177 7.564-1.945zM109.975 211.059l-2.164-.675s-3.236 6.72-4.958 20.912c2.913-2.924 5.333-5.814 6.313-7.336 1.75-2.715 1.374-8.655.809-12.901z"/><path style="fill:#407bff" d="M108.495 207.855c-1.281 3.546-2.756 13.745-2.735 37.163.004 5.03-.766 16.986-.766 16.986h36.653l5.187-53.886a1.678 1.678 0 0 0-1.671-1.839h-34.417a2.388 2.388 0 0 0-2.251 1.576z"/><path style="opacity:.5;fill:#fff" d="M108.495 207.855c-1.281 3.546-2.756 13.745-2.735 37.163.004 5.03-.766 16.986-.766 16.986h36.653l5.187-53.886a1.678 1.678 0 0 0-1.671-1.839h-34.417a2.388 2.388 0 0 0-2.251 1.576z"/><path style="fill:#263238" d="M126.461 204.817a16.423 16.423 0 0 1-3.31.07 14.387 14.387 0 0 0-1.059-.051c-2.982-.03-7.476.92-6.669 7.104 0 0 1.453-1.637 3.315-.39 0 0 1.564 5.307 2.719 6.872 0 0 6.295-4.172 8.195-5.736 1.9-1.564 4.619 1.118 4.619 1.118s5.971-9.793-6.148-9.131c-.519.028-1.073.076-1.662.144z"/><path style="fill:#ebb376" d="M125.79 205.571c-3.282.372-10.366-2.123-4.257 12.181 0 0 23.318-14.341 4.257-12.181z"/><path style="opacity:.1" d="m144.478 212.686-2.083 1.776s-1.78 10.592 1.791 21.17l1.947-20.226-1.655-2.72zM144.042 207.421s-3.587 2.334-3.239 11.672c0 0-3.604-8.741 3.239-11.672zM110.159 207.62s-3.477 7.202-2.384 19.916l2.384-19.916z"/><path style="fill:#ebb376" d="M129.59 191.219s.137 8.336 3.117 15.771c0 0-6.357 5.2-10.926 1.003 0 0 1.697-3.43.132-7.569-1.565-4.138 7.677-9.205 7.677-9.205z"/><path style="opacity:.1" d="M129.57 194.809h-2.583l-5.212 4.314c-.046.439-.023.875.138 1.3.616 1.63.723 3.145.631 4.389 7.396-.914 7.026-10.003 7.026-10.003z"/><path style="fill:#263238" d="M112.15 180.702c-3.576 2.315-2.516 8.127 1.212 10.517 1.062-6.658-1.212-10.517-1.212-10.517z"/><path style="opacity:.2;fill:#fff" d="M112.15 180.702c-3.576 2.315-2.516 8.127 1.212 10.517 1.062-6.658-1.212-10.517-1.212-10.517z"/><path style="fill:#ebb376" d="M128.547 184.522c1.342 6.126 2.443 9.63.32 13.68a8.148 8.148 0 0 1-14.431.168c-2.819-4.981-4.545-14.161.59-18.427a8.243 8.243 0 0 1 13.521 4.579z"/><path style="fill:#263238" d="M120.014 189.116c.144.486-.007.962-.331 1.038-.325.076-.682-.211-.826-.697-.144-.486.003-.97.339-1.042.335-.071.681.212.818.701zM114.548 190.882c.144.486 0 .959-.331 1.038-.332.079-.682-.211-.829-.704-.147-.493.007-.962.338-1.042.332-.079.682.212.822.708z"/><path style="fill:#d58745" d="M116.358 190.563a19.217 19.217 0 0 1-1.112 4.931c1.081.531 2.442-.286 2.442-.286l-1.33-4.645z"/><path style="fill:#263238" d="M121.197 186.783a.298.298 0 0 0 .129-.062.294.294 0 0 0-.05-.413l-.01-.008a2.892 2.892 0 0 0-2.676-.482.293.293 0 0 0-.17.379l.004.009a.293.293 0 0 0 .379.17l.009-.003a2.302 2.302 0 0 1 2.085.368c.082.073.2.089.3.042zM111.66 189.736a.289.289 0 0 0 .168-.221 2.491 2.491 0 0 1 1.241-1.824.302.302 0 0 0-.257-.537 3.066 3.066 0 0 0-1.561 2.259.294.294 0 0 0 .242.342.274.274 0 0 0 .167-.019zM120.133 197.351a5.022 5.022 0 0 1-.85.172.17.17 0 0 1-.196-.139l-.001-.006a.18.18 0 0 1 .159-.19 4.665 4.665 0 0 0 3.531-2.282.173.173 0 0 1 .311.15 4.802 4.802 0 0 1-2.954 2.295zM129.573 177.076s6.9 2.081.485 19.431l-1.556-6.747s-3.576 1.023-4.47-8.065l5.541-4.619z"/><path style="opacity:.2;fill:#fff" d="M129.573 177.076s6.9 2.081.485 19.431l-1.556-6.747s-3.576 1.023-4.47-8.065l5.541-4.619z"/><path style="fill:#ebb376" d="M132.251 188.869a5.56 5.56 0 0 1-1.553 3.751c-1.285 1.309-2.758.323-3.089-1.402-.298-1.565.014-4.116 1.639-4.769 1.624-.652 3.02.687 3.003 2.42z"/><path style="fill:#263238" d="M123.601 183.401c-3.898 3.046-13.253 2.389-15.937-1.341-2.932-4.076 1.472-7.527 5.454-8.77 1.105-.345 2.152.425 2.429 1.55a.779.779 0 0 0 .287.459s1.127-1.028 2.732-1.923c1.374-.766 2.992-.329 4.154.731.462.422 1.594.512 3.865-.255 4.708-1.59 5.345 3.231 3.214 4.523-1.707 1.034-4.626 3.798-6.198 5.026z"/><path style="fill:#ebb376" d="m144.464 258.26-4.172 5.96s-2.596-.634-3.477-.596c-.59.025-2.285.596-2.285.596l6.854 6.754 7.082-9.834-4.002-2.88z"/><path style="fill:#263238" d="M145.893 207.117c.545-.464 1.391-.27 1.695.379 2.533 5.42 12.497 27.475 11.195 36.33-1.49 10.132-12.367 21.903-12.367 21.903l-4.917-4.172s8.046-13.552 8.046-20.562c0-4.619-2.777-9.823-4.483-14.453-1.671-4.53-5.526-14.012.831-19.425z"/><path style="fill:#ebb376" d="m90.731 225.621 3.636-6.724s-1.956-2.821-2.213-3.915c-.347-1.477.323-6.06.323-6.06a1.576 1.576 0 0 1 1.412-1.483l2.858-.295a1.575 1.575 0 0 1 1.73 1.421s1.136 6.675.826 8.885c-.399 2.849-4.171 10.724-4.171 10.724l-4.401-2.553z"/><path style="fill:#263238" d="m91.882 222.037 5.563 2.023s-3.775 18.503-9.437 16.118c-5.662-2.384 3.874-18.141 3.874-18.141z"/><path style="fill:#407bff" d="m136.432 401.391 1.043 3.576h10.505l.372-3.576z"/><path style="opacity:.5;fill:#fff" d="m136.432 401.391 1.043 3.576h10.505l.372-3.576z"/></g></svg>