<svg xmlns="http://www.w3.org/2000/svg" viewBox="0 0 500 500" style="enable-background:new 0 0 500 500" xml:space="preserve"><path style="fill:#92e3a9" d="M330.486 47.673S250.251 17.78 172.414 62.776C94.578 107.771 56.149 198.559 23.084 271.255-9.982 343.951 10.497 418.579 70.772 453.25c60.275 34.671 100.353-14.81 184.288-16.184 83.936-1.374 106.669 11.119 175.744-36.239 69.076-47.358 80.255-161.121 24.246-246.11C399.042 69.729 330.486 47.673 330.486 47.673z"/><path style="opacity:.7;fill:#fff" d="M330.486 47.673S250.251 17.78 172.414 62.776C94.578 107.771 56.149 198.559 23.084 271.255-9.982 343.951 10.497 418.579 70.772 453.25c60.275 34.671 100.353-14.81 184.288-16.184 83.936-1.374 106.669 11.119 175.744-36.239 69.076-47.358 80.255-161.121 24.246-246.11C399.042 69.729 330.486 47.673 330.486 47.673z"/><g style="opacity:.3"><circle transform="rotate(-45.001 70.663 104.827)" style="fill:none;stroke:#000;stroke-miterlimit:10" cx="70.664" cy="104.826" r="36.284"/><circle style="fill:none;stroke:#000;stroke-miterlimit:10" cx="70.664" cy="104.826" r="33.808"/><path style="fill:none;stroke:#000;stroke-miterlimit:10" d="m77.096 114.978-6.433-10.152H42.947"/></g><g style="opacity:.3"><path style="fill:none;stroke:#000;stroke-miterlimit:10" d="M339.943 69.076h36.853v74.999h-36.853zM381.321 69.076h36.853v74.999h-36.853zM422.7 69.076h36.853v74.999H422.7zM339.943 147.954h36.853v74.999h-36.853zM381.321 147.954h36.853v74.999h-36.853zM422.7 147.954h36.853v74.999H422.7zM339.943 226.832h36.853v74.999h-36.853zM381.321 226.832h36.853v74.999h-36.853zM422.7 226.832h36.853v74.999H422.7zM339.943 305.71h36.853v74.999h-36.853zM381.321 305.71h36.853v74.999h-36.853zM422.7 305.71h36.853v74.999H422.7z"/></g><path style="fill:none;stroke:#263238;stroke-miterlimit:10" d="M25.944 388.509h466.764"/><path style="fill:#263238" d="m55.582 288.17-.002-.005a.085.085 0 0 1 .046-.11.085.085 0 0 1 .113.045c2.608 6.022 4.441 12.344 5.972 18.721 1.477 6.395 2.547 12.881 3.295 19.409l.467 4.906c.072.818.161 1.636.22 2.455l.134 2.461c.071 1.642.172 3.283.218 4.926L66 345.907l-.055 2.464c-.036.821-.095 1.64-.151 2.46-.124 1.639-.224 3.278-.374 4.913-.314 3.268-.805 6.519-1.311 9.756a.086.086 0 0 1-.086.073.086.086 0 0 1-.086-.087v-.005c.009-1.643.078-3.278.115-4.913.047-1.634.19-3.26.167-4.895-.008-1.634.035-3.263.053-4.893l.045-2.444-.043-2.444-.022-4.885-.132-4.882-.051-2.443c-.031-.814-.092-1.626-.137-2.439l-.3-4.879c-.571-6.493-1.463-12.963-2.764-19.358-1.298-6.39-2.903-12.753-5.286-18.836zM54.882 313.714a.088.088 0 0 1 .054-.108.086.086 0 0 1 .11.053c1.406 4.059 2.528 8.211 3.477 12.407.907 4.203 1.619 8.461 2.053 12.751.434 4.275.912 8.555.97 12.853.066 4.296-.002 8.598-.457 12.89a.087.087 0 0 1-.077.077.088.088 0 0 1-.096-.077c-.496-4.28-.799-8.549-1.095-12.816-.303-4.266-.344-8.543-.622-12.811-.258-4.254-.792-8.491-1.524-12.7-.717-4.211-1.612-8.405-2.793-12.519zM40.72 322.7a.087.087 0 0 1 .119-.027c3.545 2.244 6.706 5.071 9.469 8.256 1.358 1.616 2.62 3.308 3.702 5.148l.761 1.436.595 1.492c.215.495.365 1.004.52 1.512.153.509.324 1.016.462 1.528 1.063 4.104 1.768 8.287 1.959 12.491.171 4.202.091 8.41-.47 12.581a.09.09 0 0 1-.08.075.087.087 0 0 1-.093-.08l-1.079-12.454c-.43-4.117-.694-8.259-1.578-12.28-.112-.501-.257-.99-.383-1.487-.129-.496-.253-.994-.437-1.467l-.506-1.44-.651-1.359c-.959-1.799-2.132-3.52-3.393-5.152-2.529-3.264-5.504-6.239-8.891-8.654l-.005-.003a.087.087 0 0 1-.021-.116z"/><path style="fill:#263238" d="M47.574 338.701c1.93 1.246 3.221 3.206 4.306 5.176a30.676 30.676 0 0 1 2.413 6.342c.17.543.303 1.092.421 1.645l.391 1.656c.199 1.112.355 2.236.418 3.363.015 1.13.047 2.259-.029 3.385-.094 1.126-.222 2.25-.444 3.363a.095.095 0 0 1-.069.069.087.087 0 0 1-.103-.069 30.489 30.489 0 0 1-.597-3.311 87.642 87.642 0 0 1-.477-3.276 47.117 47.117 0 0 1-.388-3.263c-.152-1.079-.232-2.183-.468-3.25a29.453 29.453 0 0 0-1.847-6.282c-.84-1.999-1.934-3.991-3.615-5.4l-.013-.011a.085.085 0 0 1 .101-.137zM67.435 351.176c.466-5.529 1.378-11.002 2.24-16.473a659.762 659.762 0 0 1 2.818-16.371 655.51 655.51 0 0 1 3.293-16.276.087.087 0 0 1 .1-.067.085.085 0 0 1 .069.1 662.93 662.93 0 0 0-2.611 16.386 660.09 660.09 0 0 0-2.303 16.423c-.676 5.486-1.202 10.983-1.89 16.459l-2.022 16.458a.088.088 0 0 1-.082.077.086.086 0 0 1-.09-.083c-.063-1.387-.065-2.773-.099-4.164-.012-1.389.057-2.773.081-4.162.051-2.777.288-5.541.496-8.307zM70.75 351.096c.296-2.19.698-4.367 1.116-6.537l.776-3.228c.254-1.076.495-2.155.81-3.217a91.344 91.344 0 0 1 4.226-12.573l.663-1.521.737-1.488c.468-1.002 1.035-1.957 1.573-2.923 1.156-1.883 2.356-3.764 3.99-5.291a.085.085 0 0 1 .118.001.087.087 0 0 1 .002.122l-.008.009c-1.511 1.566-2.613 3.5-3.65 5.411-.481.983-.989 1.95-1.4 2.965l-.649 1.505-.576 1.536a90.249 90.249 0 0 0-3.684 12.577c-.504 2.127-.838 4.295-1.25 6.44l-.517 3.24c-.187 1.077-.418 2.147-.57 3.232-.345 2.162-.743 4.317-1.12 6.481a120.749 120.749 0 0 1-1.188 6.5.089.089 0 0 1-.085.071.086.086 0 0 1-.087-.086c-.009-2.209.042-4.419.154-6.626.128-2.206.389-4.401.619-6.6zM75.325 351.378a97.636 97.636 0 0 1 3.501-8.525c1.326-2.769 2.756-5.485 4.403-8.073.026-.036.078-.051.117-.028a.085.085 0 0 1 .03.118c-1.439 2.687-2.655 5.49-3.758 8.325-1.122 2.827-2.134 5.697-2.981 8.612-.865 2.912-1.484 5.88-2.259 8.805-.815 2.923-1.473 5.876-2.372 8.836a.09.09 0 0 1-.083.064.086.086 0 0 1-.088-.086 44.005 44.005 0 0 1 .86-9.198c.543-3.04 1.612-5.951 2.63-8.85zM75.515 361.041c.524-1.816 1.418-3.509 2.434-5.103.998-1.603 2.155-3.118 3.543-4.402.715-.619 1.445-1.215 2.253-1.699.796-.497 1.64-.917 2.556-1.155a.086.086 0 0 1 .056.162l-.01.004c-1.656.737-3.056 1.957-4.24 3.293-1.199 1.338-2.156 2.874-2.954 4.472-.839 1.588-1.272 3.344-2.002 4.979-.322.839-.642 1.683-1.014 2.521a21.305 21.305 0 0 1-1.111 2.554l-.002.005a.087.087 0 0 1-.075.047.088.088 0 0 1-.092-.085c-.04-.946.016-1.887.105-2.826.135-.928.331-1.85.553-2.767z"/><path style="fill:#92e3a9" d="M75.173 309.97s9.06-2.091 11.15-11.847c2.091-9.757-4.646-5.575 1.394-20.907s4.646-18.816 2.555-23.23c-2.091-4.414-3.252-3.02-5.111 2.788-1.858 5.807-8.595 14.867-11.15 31.825-2.555 16.958 1.162 21.371 1.162 21.371zM57.286 293.477s6.04-2.091 6.272-13.473c.232-11.383-4.414-9.06-5.111-23.23-.697-14.17-1.626-24.159-4.181-24.391-2.555-.232-9.292 6.969-11.615 22.765-2.323 15.796 3.02 26.249 7.666 30.896 4.646 4.646 6.969 7.433 6.969 7.433zM78.425 323.676s1.394-8.363 4.181-12.312c2.788-3.949 8.827-7.434 12.776-15.099 3.949-7.666 8.362-11.383 8.13-.465-.232 10.918-5.11 16.493-11.15 20.21-6.039 3.717-13.937 7.666-13.937 7.666zM80.981 338.078s5.575-10.686 13.705-18.584c8.13-7.898 14.635-11.847 12.312-7.898-2.323 3.949-5.111 3.717-9.06 10.686-3.949 6.969-2.787 12.079-8.363 16.029-5.575 3.949-8.594-.233-8.594-.233zM81.678 351.784c.232-.697.465-5.807 8.363-9.989 7.898-4.181 15.332-2.555 14.402-.465-.929 2.091-5.807 5.575-10.685 7.666-4.879 2.091-12.08 2.788-12.08 2.788zM57.751 324.141s3.484-4.414 1.626-13.705c-1.859-9.292-6.04-6.969-10.686-11.847-4.646-4.878-3.717-5.575-8.362-10.686-4.646-5.111-8.827-7.898-10.686-5.807-1.858 2.091.929 8.595 3.717 12.312 2.787 3.717 7.201 5.575 9.292 10.221s1.162 12.079 6.504 15.564c5.343 3.483 8.595 3.948 8.595 3.948zM46.136 326.696s-8.363-9.524-14.402-16.493c-6.04-6.969-8.363-12.312-8.595-7.666-.232 4.646-2.091 8.363 2.788 14.402 4.878 6.04 20.209 9.757 20.209 9.757zM50.55 342.028s.232-3.717-13.009-12.312c-13.241-8.595-18.816-10.221-17.422-6.737 1.394 3.484 7.201 6.969 13.473 13.241 6.272 6.272 16.958 5.808 16.958 5.808z"/><path style="fill:none;stroke:#263238;stroke-linecap:round;stroke-linejoin:round;stroke-miterlimit:10" d="M74.621 308.98s3.108-16.665 6.36-28.512c3.252-11.847 5.343-19.048 5.343-19.048M57.821 293.653s-5.645-18.062-7.504-28.98c-1.858-10.918.232-19.048 1.162-23.927M79.158 323.327s3.449-6.156 8.56-12.195c5.11-6.04 9.06-9.292 11.383-15.099M57.751 324.141s-1.858-11.151-6.272-16.958c-4.414-5.807-13.241-14.867-16.725-20.674M82.223 351.53s7.817-5.089 13.392-7.877"/><path style="fill:#263238;stroke:#263238;stroke-linecap:round;stroke-linejoin:round;stroke-miterlimit:10" d="M57.733 413.077a6.963 6.963 0 0 1-6.947-6.382c-1.155-13.795-3.578-44.791-2.327-46.317 5.119-6.242 27.171-6.242 32.289 0 1.251 1.525-1.172 32.522-2.327 46.316a6.965 6.965 0 0 1-6.947 6.382H57.733z"/><g><path style="fill:#263238;stroke:#263238;stroke-linecap:round;stroke-linejoin:round;stroke-miterlimit:10" d="M181.368 295.188h5.42v21.68h-5.42zM265.038 295.188h5.42v21.68h-5.42z"/><path style="fill:#ababab;stroke:#263238;stroke-linecap:round;stroke-linejoin:round;stroke-miterlimit:10" d="M263.941 326.195h-77.915v-94.619a7.21 7.21 0 0 1 7.209-7.209h63.498a7.209 7.209 0 0 1 7.209 7.209v94.619z"/><circle style="fill:#fff;stroke:#263238;stroke-linecap:round;stroke-linejoin:round;stroke-miterlimit:10" cx="189.498" cy="409.012" r="4.065"/><path style="fill:#fff;stroke:#263238;stroke-linecap:round;stroke-linejoin:round;stroke-miterlimit:10" d="M229.131 409.012a4.065 4.065 0 1 0-8.13 0 4.065 4.065 0 0 0 8.13 0zM264.699 409.012a4.065 4.065 0 1 0-8.13 0 4.065 4.065 0 0 0 8.13 0z"/><path style="fill:#263238;stroke:#263238;stroke-linecap:round;stroke-linejoin:round;stroke-miterlimit:10" d="M228.736 388.599v-66.977H221.6v66.545l-.26.182-36.923 14.905v4.403h5.759v-3.049l31.995-4.705.592 7.754h4.268l.588-7.704 31.661 4.655v3.049h5.758v-4.403z"/><path style="fill:#263238;stroke:#263238;stroke-linecap:round;stroke-linejoin:round;stroke-miterlimit:10" d="M213.65 329.028h22.666v8.028H213.65z"/><path style="fill:#ababab;stroke:#263238;stroke-linecap:round;stroke-linejoin:round;stroke-miterlimit:10" d="M267.578 329.5h-85.189a2.738 2.738 0 0 1-2.738-2.738v-12.468a2.738 2.738 0 0 1 2.738-2.738h85.189a2.738 2.738 0 0 1 2.738 2.738v12.468a2.738 2.738 0 0 1-2.738 2.738zM183.836 299.253h-6.63a2.274 2.274 0 0 1-2.274-2.274v-12.05a2.274 2.274 0 0 1 2.274-2.274h6.63a2.274 2.274 0 0 1 2.274 2.274v12.05a2.273 2.273 0 0 1-2.274 2.274zM272.418 299.253h-6.63a2.274 2.274 0 0 1-2.274-2.274v-12.05a2.274 2.274 0 0 1 2.274-2.274h6.63a2.274 2.274 0 0 1 2.274 2.274v12.05a2.273 2.273 0 0 1-2.274 2.274z"/></g><g><path transform="rotate(-180 223.107 297.405)" style="fill:#fff;stroke:#263238;stroke-linecap:round;stroke-linejoin:round;stroke-miterlimit:10" d="M102.856 285.704h240.5v23.402h-240.5z"/><path transform="rotate(-180 223.107 288.817)" style="fill:#263238;stroke:#263238;stroke-linecap:round;stroke-linejoin:round;stroke-miterlimit:10" d="M102.856 285.704h240.5v6.225h-240.5z"/><path style="fill:#fff;stroke:#263238;stroke-linecap:round;stroke-linejoin:round;stroke-miterlimit:10" d="M340.816 413.077h3.41l1.137-127.707h-5.684zM101.653 413.077h3.41L106.2 285.37h-5.684z"/><path transform="rotate(-180 223.08 284.936)" style="fill:#fff;stroke:#263238;stroke-linecap:round;stroke-linejoin:round;stroke-miterlimit:10" d="M97.348 282.295h251.463v5.282H97.348z"/><g><path transform="rotate(-180 230.67 281.051)" style="fill:#fff;stroke:#263238;stroke-linecap:round;stroke-linejoin:round;stroke-miterlimit:10" d="M192.84 279.49h75.662v3.124H192.84z"/><path transform="rotate(-180 297.012 237.646)" style="fill:#263238;stroke:#263238;stroke-linecap:round;stroke-linejoin:round;stroke-miterlimit:10" d="M251.497 206.975h91.03v61.342h-91.03z"/><path transform="rotate(-180 289.572 280.885)" style="fill:#ababab;stroke:#263238;stroke-linecap:round;stroke-linejoin:round;stroke-miterlimit:10" d="M271.149 279.156h36.845v3.457h-36.845z"/><path transform="rotate(-180 297.012 262.756)" style="fill:#ababab;stroke:#263238;stroke-linecap:round;stroke-linejoin:round;stroke-miterlimit:10" d="M286.03 242.899h21.964v39.714H286.03z"/></g></g><g><path style="fill:none;stroke:#263238;stroke-miterlimit:10" d="m217.688 74.018 10.261 2.565M234.361 53.498l2.993 6.84M295.066 74.018l-10.26 2.565M278.394 53.498l-2.993 6.84M257.019 44.52v8.55"/></g><g><path style="fill:#fff;stroke:#263238;stroke-miterlimit:10" d="m266.076 93.352-2.092-12.944s-1.046-8.76-1.046-11.636c0-2.877-1.046-3.138-1.438-2.615l-1.177.654s-.392-3.399-1.438-2.354c-1.046 1.046-1.177 2.484-1.177 2.484s-1.177 2.092-1.7 4.707c-.218 1.091-.39 2.841-.517 4.54l-.659-.879s-.392-4.315-.523-5.23-1.569.131-1.7 3.399c-.102 2.552 1.389 9.087 2.048 11.831-.352 2.936-.662 6.602-.218 8.304.785 3.007 2.353 4.968 2.876 5.753.523.785 3.661 9.283 3.661 9.283l9.414-4.184-4.314-11.113z"/><path style="fill:#fff;stroke:#263238;stroke-miterlimit:10" d="M262.546 88.122s-2.746-5.099-3.269-6.014c-.523-.915-3.661-4.707-4.445-6.799-.785-2.092-2.615.784-1.831 3.007.785 2.223 3.923 6.276 3.923 6.276s-1.046 3.53.392 6.537c1.438 3.007 4.315 4.315 4.315 4.315"/><path style="fill:none;stroke:#263238;stroke-miterlimit:10" d="M260.323 66.81s-.915 10.198-.523 14.121M257.708 66.941s-.915 8.106-.392 11.506"/><path style="fill:#92e3a9;stroke:#263238;stroke-miterlimit:10" d="M335.302 160.413s-16.107-5.61-17.193-5.61c-1.086 0-12.356-.808-12.356-.808l-13.343-6.974-21.5-43.649-12.669 6.153s4.525 23.347 8.144 36.197c3.62 12.85 7.75 20.25 7.75 20.25l28.772 21.409 1.448 1.991 30.947-28.959zM289.694 213.26s-5.973 26.062-5.973 39.997c0 13.936.362 17.555 1.267 18.098.905.543 11.221 2.353 12.126 2.172s3.62-1.086 3.62-1.086 13.212-62.62 14.66-70.403c1.448-7.782 3.439-24.795 3.439-24.795s-15.203 13.031-19.365 17.555c-4.163 4.525-3.801 4.706-5.611 8.144-1.81 3.441-4.163 10.318-4.163 10.318z"/><path style="fill:#fff;stroke:#263238;stroke-miterlimit:10" d="M296.589 412.325s-4.854 8.019-5.698 8.863c-.844.844-8.23 5.276-10.34 5.909-2.11.633-4.432 1.899-4.432 4.01 0 2.11 6.964 3.165 10.551 3.165 3.587 0 14.139-.633 15.405-.633s3.587-.211 4.643 0c1.055.211 6.331 1.055 7.808.422 1.477-.633 2.743-5.909 2.321-8.23-.422-2.321-1.688-7.597-1.688-7.597l-18.57-5.909zM361.163 420.344l-3.587 5.909s-4.725 4.248-7.386 5.909c-6.467 4.037 2.747 6.406 6.964 6.12 2.955-.201 8.441-.211 10.129-1.055 1.688-.844 8.652-5.487 11.395-7.597 2.743-2.11 2.954-4.432 2.532-7.175-.422-2.743-2.321-6.964-2.321-6.964s-11.184-3.587-14.35-1.055c-3.165 2.532-3.376 5.908-3.376 5.908z"/><path style="fill:#263238;stroke:#263238;stroke-miterlimit:10" d="m299.285 266.335-4.791 25.151s-8.384 52.457-8.144 54.374c.24 1.916 10.309 56.099 10.548 58.254s-2.156 4.312-2.156 4.312l.479 5.27s5.988 4.072 10.06 5.03c4.072.958 10.3 1.198 10.3 1.198s2.156-4.551 2.156-5.27c0-.719-1.437-5.509-1.437-6.228 0-.719-3.841-64.003-3.841-64.003l9.342-36.169s12.695 38.325 13.893 40.96c1.198 2.635 24.299 61.181 24.299 61.181s-2.156 2.874-1.437 5.03c.719 2.156 1.677 6.228 1.677 6.228s5.27-5.988 7.905-4.072c2.635 1.916 3.114 4.072 3.114 4.072l8.384-3.353s.719-3.354.24-5.03c-.479-1.677-1.677.479-1.677-5.749s-8.25-43.456-9.927-49.205c-1.677-5.749-8.623-16.528-8.623-16.528l-3.114-57.966v-13.414l-57.25-4.073z"/><path style="fill:#fff;stroke:#263238;stroke-miterlimit:10" d="M339.572 163.334s-6.179-1.956-8.696-.838c-2.517 1.119-23.252 23.127-23.531 24.526-.28 1.398-10.561 70.279-12.24 75.592-1.678 5.314 7.551 12.025 7.551 12.025l5.593 2.517 4.754-5.593-.28 6.712s14.542.28 19.017-.28c4.475-.559 21.814-5.034 21.814-5.034s3.636-60.407 3.915-61.526c.28-1.119 3.076-39.432 3.076-39.432l-5.314-3.356-15.659-5.313z"/><path style="fill:#fff;stroke:#263238;stroke-miterlimit:10" d="m339.489 180.056 3.911 7.821s11.36-12.291 12.663-15.27c1.303-2.98 2.421-3.166 1.676-5.028-.745-1.862-2.607-3.724-2.607-3.724s-17.319-.559-19.553.559c-2.235 1.117-8.38 15.084-8.753 16.015l-.372.931 11.732-2.049 1.303.745z"/><path style="fill:#92e3a9;stroke:#263238;stroke-miterlimit:10" d="M334.216 164.938s-38.369 35.654-40.359 38.007c-1.991 2.353-4.163 10.316-4.163 10.316s3.439-15.203 4.706-17.555c1.267-2.353 28.414-30.224 28.414-30.224l7.239-5.068 7.42 1.81-3.257 2.714z"/><path style="fill:#fff;stroke:#263238;stroke-miterlimit:10" d="M338.371 116.926s-7.635 8.008-7.449 9.497c.186 1.49-.186 3.538-.186 3.538s-8.008 6.518-8.753 6.704c-.745.186-.745 1.49-.186 2.607.559 1.117 1.49 1.303 1.862 2.235.372.931.186 3.538-1.304 8.753-1.49 5.214-2.235 5.959-.745 6.89 1.49.931 12.291 4.656 12.291 4.656s.372 15.643 1.117 17.878c.745 2.235 4.469.372 4.469.372l15.643-14.898v-2.607l12.291-14.712s3.352-12.105-.372-17.878c-3.725-5.773-23.278-13.967-23.837-14.153-.558-.186-3.165-.558-4.841 1.118z"/><path style="fill:#263238;stroke:#263238;stroke-miterlimit:10" d="M351.966 112.27s3.166-1.862 1.117-2.793-4.283-.186-4.842 0c-.559.186.559-5.587-2.607-3.911s-7.263 5.773-8.194 8.566c-.931 2.793 1.862 8.194 4.283 8.566 2.421.373 7.821 2.235 7.821 2.235s1.49 1.117.559 3.166c-.931 2.049-6.332 6.145-5.587 7.263.745 1.117 2.607 3.724 2.607 3.724s-1.862 3.352-1.49 4.283c.372.931 1.49 1.304 1.49 1.304s3.352-2.049 6.145-1.304 1.676 5.4.559 7.449c-1.117 2.048-2.607 4.469-2.607 4.469s3.166 7.263 3.911 7.263 9.87-9.125 13.781-13.222c3.911-4.097 5.587-11.173 4.656-17.133-.931-5.959-10.801-13.967-13.967-15.829-3.166-1.861-7.635-4.096-7.635-4.096z"/><path style="fill:none;stroke:#263238;stroke-miterlimit:10" d="M325.708 133.128c-1.676-1.117-.372-6.332 1.117-6.89 1.49-.559 3.911 3.725 3.911 3.725s8.008 6.145 8.194 7.263c.186 1.117-4.283 4.469-6.704 4.656-2.421.186-3.352.186-3.352-3.352s1.304-5.959 1.304-5.959M338.93 137.224l10.056 6.891M334.088 129.962s3.724.372 5.214 3.724M325.336 146.163s3.352 1.49 7.263 0M351.221 155.288s-3.911.931-5.773 0"/><path style="fill:#263238;stroke:#263238;stroke-miterlimit:10" d="m333.902 161.806 7.076-.372-6.89 6.517z"/><path style="fill:#92e3a9;stroke:#263238;stroke-miterlimit:10" d="M357.739 167.579s-3.749 6.447-7.4 19.322c-3.651 12.876-7.495 51.887-7.495 56.115 0 4.228 9.801 54.962 10.57 56.884.769 1.922 5.573 2.114 5.573 2.114s14.221-9.609 14.99-12.299c.769-2.69-9.032-47.852-9.032-47.852s17.872-58.421 16.719-59.19c-1.154-.768-23.925-15.094-23.925-15.094z"/><path style="fill:none;stroke:#263238;stroke-miterlimit:10" d="M364.367 174.026s-11.915 47.659-14.797 55.923c-2.883 8.264-6.726 13.068-6.726 13.068"/><g><path style="fill:#fff;stroke:#263238;stroke-miterlimit:10" d="M360.391 293.782s-1.798 2.766-2.766 3.872c-.968 1.106-3.595 2.351-2.351 3.181 1.245.83 4.564-.691 5.393-1.936l-.276-5.117z"/><path style="fill:#fff;stroke:#263238;stroke-miterlimit:10" d="M367.925 283.049s-7.257 6.999-7.672 7.69c-.415.691-.83 6.5-.83 8.159 0 1.66 1.106 2.628 1.659 2.766.553.138 1.66.138 1.66.138l1.798-.277s1.659-.138 3.319.277c1.659.415 4.978.415 5.808-.415.83-.83 1.659-2.904 1.659-2.904s.968-1.106 1.245-2.766c.277-1.659 1.936-9.957 1.936-9.957s-11.76-4.04-10.582-2.711z"/><path style="fill:none;stroke:#263238;stroke-miterlimit:10" d="m362.742 301.803 1.245-7.744M366.338 301.388l1.383-6.638M370.487 301.665l1.244-6.223"/><path style="fill:#92e3a9;stroke:#263238;stroke-miterlimit:10" d="M381.663 182.673s19.591 43.331 22.281 50.057c2.69 6.726.577 9.165 0 10.895-.577 1.73-22.759 43.652-22.759 43.652l-13.26-4.228 13.661-43.947-10.108-19.147 10.185-37.282z"/></g></g><g><path style="fill:#fff;stroke:#263238;stroke-miterlimit:10" d="M275.292 107.09s.134-5.244 1.076-8.338c.941-3.093.269-4.438-.404-4.169-.672.269-1.479.403-1.883 2.824-.403 2.421-.538 3.631-.538 5.11.001 1.48 1.749 4.573 1.749 4.573z"/><path style="fill:#fff;stroke:#263238;stroke-miterlimit:10" d="M260.763 91.809c.241-.422 1.77 1.226 2.83 2.204-.421-.865-.53-.913-1.211-2.388-.807-1.748-.659-2.758-.538-3.227.359-1.399 3.234 1.713 4.07 3.329-.428-1.296-1.313-4-1.515-4.808-.269-1.076-.134-2.555.672-3.093.807-.538 2.017 2.286 2.017 2.286s1.748.807 2.421 2.152l4.572 9.144.403 6.455 4.169 15.868 9.682 13.448-10.681 5.187-6.263-14.869s-1.614-1.345-2.824-3.228c-.882-1.371-1.69-6.448-2.169-10.562a18.958 18.958 0 0 1-.823-3.143c-.395-2.288-1.104-7.653-1.104-7.653s-2.051-2.446-3.156-4.103c-.65-.977-.867-2.447-.552-2.999z"/><path style="fill:none;stroke:#263238;stroke-miterlimit:10" d="M266.148 92.432s1.838 2.884 2.505 4.506c.552 1.341 1.026 3.314 1.026 3.314M267.089 86.112s3.496 8.203 4.303 9.413c.807 1.21 1.21 3.765 1.21 4.438M263.594 94.013s2.614 2.451 2.929 3.161c.316.71 1.341 4.576 1.341 4.576"/><path style="fill:#fff;stroke:#263238;stroke-miterlimit:10" d="M348.312 367.335s1.363 18.915-.511 28.117c-1.875 9.202-8.691 22.835-9.372 24.709-.682 1.875-6.475 22.835-6.305 23.686.17.852 4.26 8.18 3.749 11.758-.511 3.579-1.363 4.601-2.897 4.942-1.534.341-8.861.17-13.803 4.26s-12.269 3.238-14.825 3.067c-2.556-.17-9.202-.17-9.543-1.534-.341-1.363 3.578-4.431 5.623-5.283 2.045-.852 7.498-5.453 9.031-6.987 1.534-1.534 7.327-9.032 8.52-11.928 1.193-2.897 4.601-47.202 5.623-54.019 1.023-6.816 1.704-14.485 1.534-18.745-.17-4.26.852-6.646.852-6.646l22.324 4.603z"/><path style="fill:#92e3a9;stroke:#263238;stroke-miterlimit:10" d="M300.428 461.058c.757-.315 1.983-1.146 3.303-2.144 1.428.642 3.432 1.463 4.365 1.463 1.534 0 12.781-7.498 16.7-9.713 3.175-1.795 7.69-2.247 9.291-2.354 1.042 2.475 2.055 5.406 1.785 7.296-.511 3.579-1.363 4.601-2.897 4.942-1.534.341-8.861.17-13.803 4.26s-12.269 3.238-14.825 3.067c-2.556-.17-9.202-.17-9.543-1.534-.34-1.364 3.579-4.431 5.624-5.283z"/><path style="fill:#fff;stroke:#263238;stroke-miterlimit:10" d="M404.093 362.307s6.01 10.417 8.614 20.634c2.604 10.217 2.204 53.889 2.604 54.69.401.801 4.007 9.215 5.81 12.821s6.21 9.015 6.21 10.618c0 1.603-3.205 1.603-3.806 1.603h-11.018s-3.005-1.002-3.606-2.204c-.601-1.202-1.002-6.411-2.404-8.013-1.402-1.603-4.808-5.81-5.008-8.013-.2-2.204 1.202-9.015 1.202-10.618 0-1.603-4.407-19.432-5.81-24.04-1.402-4.608-8.414-16.627-9.215-26.644s-1.603-14.424-1.603-14.424l18.03-6.41z"/><g><path style="fill:#92e3a9;stroke:#263238;stroke-miterlimit:10" d="M411.028 435.449c2.267.664 4.263 3.065 5.383 4.644 1.312 2.977 3.45 7.839 4.71 10.359 1.803 3.606 6.21 9.015 6.21 10.618 0 1.603-3.205 1.603-3.806 1.603h-11.018s-3.005-1.002-3.606-2.204c-.601-1.202-1.002-6.411-2.404-8.013-1.402-1.603-4.808-5.81-5.008-8.013-.119-1.309.327-4.24.709-6.743.622-.625 3.975-3.672 8.83-2.251z"/><path style="fill:#263238;stroke:#263238;stroke-miterlimit:10" d="M423.525 462.672h-11.018s-3.005-1.002-3.606-2.204c-.601-1.202-1.002-6.411-2.404-8.013-1.181-1.35-3.777-4.544-4.688-6.836l.538-.568s5.393-4.341 9.339-1.973c3.946 2.368 4.999 7.892 7.498 10.655 2.499 2.762 6.692 4.807 8.147 7.336 0 1.603-3.205 1.603-3.806 1.603z"/></g><g><path style="fill:#92e3a9;stroke:#263238;stroke-miterlimit:10" d="M407.865 200.991s6.241 34.159 6.428 35.283 5.245 17.794 4.495 21.54c-.749 3.746-16.295 35.4-16.295 35.4s-3.933-6.556-4.495-6.93c-.562-.375 1.498-31.654 1.498-31.654l-6.181-20.041s-.041-20.43 2.628-24.344c2.669-3.916 10.854-11.211 11.922-9.254z"/><path style="fill:none;stroke:#263238;stroke-miterlimit:10" d="M395.298 238.846s8.858-2.266 13.802-7.21M399.417 245.85s6.798 4.326 13.802 4.326"/><path style="fill:#fff;stroke:#263238;stroke-miterlimit:10" d="M409.754 278.19c-3.76 7.893-7.262 15.024-7.262 15.024s-3.933-6.556-4.495-6.93c-.205-.137-.06-4.402.206-9.754 4.528 3.108 8.641 2.735 11.551 1.66z"/></g><path style="fill:#263238;stroke:#263238;stroke-miterlimit:10" d="M391.847 259.502s8.737 22.517 12.143 31.331c3.406 8.815 3.91 55.847 3.91 55.847l-1.002 17.629s-19.632 9.215-42.069 8.214c-22.437-1.002-41.669-7.412-41.669-7.412s.097-40.822 5.105-54.445 8.614-27.445 8.614-27.445l1.68-21.115 53.288-2.604z"/><g><path style="fill:#92e3a9;stroke:#263238;stroke-miterlimit:10" d="M402.883 212.023c-.356.89-9.006 29.12-9.006 29.12s-2.06 6.743-2.248 7.492c-.187.749.375 9.553.562 10.302.187.749 1.563-1.246 1.001 1.376s-2.997 2.81-4.495 3.559c-1.498.749-12.924 4.87-24.911 4.683-11.987-.187-25.473-2.622-25.473-2.622s-2.06-3.746-2.435-5.432c-.375-1.686.685-5.497.685-5.497l-5.032-40.312s-20.848-27.558-23.695-29.515c-2.847-1.957-6.584-4.804-7.651-5.694-1.068-.89-2.135-2.669-2.847-4.626-.712-1.957-19.681-36.492-19.681-36.492s4.804-5.16 6.05-5.516c1.245-.356 4.092-.712 4.092-.712l24.663 27.595s4.804 2.313 5.872 2.847c1.068.534.89 3.559.89 3.559l7.503 3.359 25.171 7.951 12.018 2.903s33.986 12.812 36.121 13.879c2.135 1.068 8.007 4.982 7.829 6.762-.178 1.779-3.381 9.075-3.381 9.075"/><path style="fill:none;stroke:#263238;stroke-miterlimit:10" d="M351.272 237.054c5.478 7.334 12.803 16.184 19.005 20.385M343.117 225.41s2.589 4.023 6.443 9.321M377.16 255.866a28.223 28.223 0 0 0 2.856 1.76M364.283 244.328s5.335 5.78 10.868 10.061M314.774 167.027s-8.185 9.431-8.007 6.584c.178-2.847-.712-2.847 1.957-4.982"/></g><g><path style="fill:#fff;stroke:#263238;stroke-miterlimit:10" d="M363.159 130.273s-9.987 5.95-10.837 7.862c-.85 1.912-1.275 6.587-2.337 7.65-1.063 1.063-7.225 2.55-7.012 4.037.213 1.487 2.55 5.95 2.55 5.95s-.425 14.237-.425 15.3 1.275 1.7 2.55 1.912c1.275.213 4.25 1.062 4.25 1.062v3.4s8.287 2.762 9.137 2.762 6.375.425 6.375.425 11.262-7.437 14.875-18.062c3.612-10.625 0-18.912-4.037-23.799-4.04-4.886-15.089-8.499-15.089-8.499z"/><path style="fill:#263238;stroke:#263238;stroke-miterlimit:10" d="M364.859 158.96s7.012-5.737 8.712-1.063c1.7 4.675.212 7.225-1.912 8.075-2.125.85-7.225 2.55-7.225 2.55s-4.887 11.262-5.312 15.937c-.425 4.675-3.4 8.287-1.913 11.475 1.487 3.188 3.612 4.462 14.025 5.525 10.412 1.063 22.273-.468 29.71-3.655 7.437-3.187 6.414-14.407 4.927-16.957-1.488-2.55-8.5-11.475-8.287-16.15.212-4.675 6.589-11.873 2.063-24.821-4-11.444-23.525-18.528-28.837-17.89s-9.987 0-9.987 3.4.212 6.8 3.825 11.475 1.488 8.287.638 9.137-3.612 3.612-3.187 7.012c.422 3.4 2.76 5.95 2.76 5.95z"/><path style="fill:none;stroke:#263238;stroke-miterlimit:10" d="M352.58 160.221s-.736 3.192-5.647 2.21M355.772 143.28s-.491-2.333-2.946-2.333"/><path style="fill:#263238" d="M351.552 146.02c-.484.971-.582 1.905-.218 2.087.364.182 1.052-.458 1.536-1.429.484-.971.582-1.905.218-2.086-.364-.182-1.051.458-1.536 1.428z"/></g></g><g><path style="fill:#fff;stroke:#263238;stroke-miterlimit:10" d="M148.612 136.117s.552-1.103-1.103-2.758-9.011-6.253-11.218-7.724c-2.207-1.471-4.781-6.069-13.609-.736-8.827 5.333-14.712 14.896-15.815 21.7-1.103 6.804 3.31 15.08 11.586 19.677s14.712 5.333 14.712 5.333l.92 1.655 26.114-3.862s4.23-4.414 3.678-6.988-5.149-11.218-5.149-11.218 2.942-4.414 2.023-5.701c-.921-1.286-12.139-9.378-12.139-9.378z"/><path style="fill:#263238;stroke:#263238;stroke-miterlimit:10" d="M137.762 158.369s-3.678 1.287-5.149 1.839-5.701-.736-7.54-4.414c-1.839-3.678.92-7.54 2.942-7.908 2.023-.368 3.678.92 4.781.736 1.103-.184 1.103-1.471 1.287-2.575.184-1.103-2.942-3.126-2.942-3.126s4.23-4.597 5.333-6.62c1.103-2.023-7.54-4.046-7.908-5.701-.368-1.655 7.724-4.965 7.724-4.965-2.207-1.471-4.781-6.069-13.609-.736-8.827 5.333-14.712 14.896-15.815 21.7-1.103 6.804 3.31 15.08 11.586 19.677 5.423 3.013 10.042 4.362 12.592 4.938l1.936-1.076s.92-1.103 3.126-4.414c2.207-3.309 1.656-7.355 1.656-7.355z"/><path style="fill:none;stroke:#263238;stroke-miterlimit:10" d="M147.324 135.381s-2.391-.368-4.23 2.942M158.726 154.875s-3.494 1.471-8.092-2.575"/><path style="fill:#263238" d="M148.31 140.77c.64 1.27.717 2.522.173 2.796s-1.504-.533-2.144-1.803c-.64-1.27-.717-2.522-.173-2.796s1.504.533 2.144 1.803z"/><path style="fill:#92e3a9;stroke:#263238;stroke-miterlimit:10" d="M156.335 171.058s-21.884-1.839-23.171.552c-1.287 2.391-1.103 7.172-1.103 7.172l24.091-5.517.183-2.207z"/><path style="fill:#fff;stroke:#263238;stroke-miterlimit:10" d="M191.947 160.725s44.726-48.812 44.997-49.52c.271-.708 1.623-16.475 1.756-17.571.132-1.095-.216-2.805 1.1-4.498s3.833-5.649 3.833-5.649 1.991-4.205 2.649-5.051c.658-.847 2.296-2.13 3.363-3.298 1.067-1.167 2.661-2.086 3.507-1.428.847.658 1.247 3.419 1.247 3.419s1.116.016 1.465 1.725-2.399 10.639-2.509 11.552c-.11.913-.944 9.333-1.928 14.401s-2.521 8.587-4.042 10.44c-1.521 1.854-17.714 25.457-21.78 29.967-4.065 4.51-20.155 32.52-20.155 32.52l-13.503-17.009z"/><path style="fill:none;stroke:#263238;stroke-miterlimit:10" d="M242.535 85.502s-2.23 6.24-2.334 7.095l-.673 5.56M247.399 77.584s-2.886 8.07-3.212 9.332c-.326 1.262-.619 2.963-.619 2.963M254.397 77.129s-.865 2.846-2.168 5.726c-1.303 2.88-2.469 8.207-2.5 8.464M251.457 74.17s-3.386 8.617-3.87 10.467c-.484 1.851-1.134 5.07-1.357 5.477"/><path style="fill:#263238;stroke:#263238;stroke-miterlimit:10" d="m180.111 191.043 27.219 75.013-6.122 8.562-6.43-12.021-5.06-25.615z"/><g><path style="fill:#fff;stroke:#263238;stroke-miterlimit:10" d="M121.394 246.375s-2.701 10.805-.831 12.259c1.87 1.454 18.908 6.649 19.323 6.026.416-.623.208-7.48-.208-9.35-.415-1.87-3.532-4.363-3.532-4.363l-14.752-4.572z"/><path style="fill:#92e3a9;stroke:#263238;stroke-miterlimit:10" d="M126.173 215s-5.402 27.427-4.987 28.466c.415 1.039 14.337 2.701 14.337 2.701L126.173 215z"/><path style="fill:#92e3a9;stroke:#263238;stroke-miterlimit:10" d="M120.147 238.271s-1.662 8.727.416 9.766c2.078 1.039 14.545 4.363 15.584 2.909 1.039-1.454-.416-7.688-.416-7.688s-14.545-6.649-15.584-4.987z"/></g><g><path style="fill:#fff;stroke:#263238;stroke-miterlimit:10" d="M178.03 443.139s6.765 5.074 8.698 5.557c1.933.483 8.698 2.658 9.423 3.866.725 1.208 0 5.074-.967 6.524-.966 1.45-14.739 3.624-21.262 2.899-6.524-.725-20.779 2.658-22.229-1.933-1.45-4.591.967-11.356.967-11.356s21.021-4.59 25.37-5.557z"/><path style="fill:#fff;stroke:#263238;stroke-miterlimit:10" d="M191.077 457.878c-2.658.725-13.289 1.208-25.853 1.691-7.999.308-12.071-1.244-13.981-2.413.034 1.004.166 1.992.451 2.896 1.45 4.591 15.705 1.208 22.229 1.933 6.524.725 20.296-1.45 21.262-2.9.384-.576.729-1.536.96-2.557-1.714.452-3.748.99-5.068 1.35zM89.356 428.642s-5.799 12.081-4.832 14.739c.966 2.658 3.866 3.141 6.524 4.107s9.423.725 11.356 1.933c1.933 1.208 11.114 5.316 15.463 6.04 4.349.725 8.94-1.208 9.423-3.141.483-1.933-7.007-7.732-9.906-9.665-2.899-1.933-7.49-8.698-7.49-8.698l-20.538-5.315z"/><path style="fill:#fff;stroke:#263238;stroke-miterlimit:10" d="M99.021 446.28c-5.378-1.291-12.845-4.489-14.423-5.177-.2.987-.251 1.791-.074 2.278.966 2.658 3.866 3.141 6.524 4.107 2.658.966 9.423.725 11.356 1.933 1.933 1.208 11.114 5.316 15.463 6.04 4.349.725 8.94-1.208 9.423-3.141.096-.385-.133-.927-.57-1.557-2.017 1.222-4.767 2.63-6.921 2.765-3.865.243-14.737-5.798-20.778-7.248z"/><path style="fill:#263238;stroke:#263238;stroke-miterlimit:10" d="M137.21 275.513s-5.329 20.505-5.57 26.304c-.242 5.799.242 11.598.242 11.598s-3.866 2.899-3.141 5.315c.725 2.416 1.933 4.108 1.933 4.108s-9.181 35.034-10.39 36.726c-1.208 1.691-14.014 21.504-17.396 28.269-3.383 6.765-11.356 35.011-11.356 35.011s-1.691 1.691-1.933 3.383c-.242 1.691-.725 4.591-.725 4.591s2.658 5.316 9.906 6.282c7.248.966 11.114-.483 11.114-.483s1.208-1.691 1.691-4.108c.483-2.416 1.208-6.282 1.208-6.282l13.531-23.437 22.47-41.293 6.765-19.329s3.141 28.511 2.899 29.719c-.242 1.208-6.524 22.931-6.524 33.562 0 10.631.725 32.86.725 32.86s-1.933 3.383-1.45 5.315l.483 1.933.967 3.141s9.423-.242 13.772-.966c4.349-.725 11.598-4.591 11.598-4.591s.725-3.383 0-4.591c-.725-1.208-1.691-2.416-1.933-3.624-.242-1.208-.967-4.107-.242-7.49s8.215-54.099 11.114-66.905c2.899-12.806 3.624-54.122 3.383-61.612-.242-7.49-1.208-12.806-1.208-12.806l.483-8.698s-13.53-5.799-25.128-6.524c-11.598-.725-25.611 1.45-25.611 1.45l-1.677 3.172z"/><path style="fill:none;stroke:#8f8f8f;stroke-miterlimit:10" d="m141.787 314.622 8.94 14.497 3.866 11.356M158.35 314.239c1.688-1.5 3.361-3.111 3.975-3.724 1.208-1.208 2.899-17.88 3.141-18.605M140.579 294.085s0 12.564 1.45 15.222c1.45 2.658 10.873 8.457 12.322 7.973"/><path style="fill:none;stroke:#263238;stroke-miterlimit:10" d="M143.237 288.528s13.047-2.175 21.504.725"/><path style="fill:none;stroke:#8f8f8f;stroke-miterlimit:10" d="M175.522 352.719c.32 7.09.607 17.074-.15 19.65-1.208 4.107-1.933 4.832-2.658 6.765-.725 1.933.242 4.107-.242 5.316-.483 1.208-1.933 22.447-3.141 28.005-1.208 5.557-1.45 17.638-1.45 17.638M179.721 281.038s-1.691 21.262-2.416 28.027c-.725 6.765-3.141 17.155-2.899 21.504s.725 14.739.725 14.739.059.934.143 2.458"/><path style="fill:none;stroke:#263238;stroke-miterlimit:10" d="M168.365 433.233v5.557s1.933.483 1.45 2.416c-.483 1.933-2.175 3.383-2.175 3.383"/></g><path style="fill:#92e3a9;stroke:#263238;stroke-miterlimit:10" d="M132.061 178.782s-7.908 8.643-9.931 18.574c-2.023 9.931 4.781 23.355 4.781 23.355l11.402 42.113s-3.31 2.575-3.494 4.781.736 7.356 2.391 7.908c1.655.552 27.401.368 27.401.368s25.562 4.597 26.114 4.597 3.494-2.575 3.494-5.517-.552-7.172-.736-9.011c-.184-1.839-7.54-50.205-8.275-53.515s-.999-16.387-.999-16.387l15.405-11.425 2.633-3.386-11.777-19.023s-18.87 4.614-19.79 5.35c-.92.735-38.619 11.218-38.619 11.218z"/><path style="fill:#92e3a9;stroke:#263238;stroke-miterlimit:10" d="M186.122 164.466s12.452 22.624 13.205 22.53c.752-.094 7.667-5.185 8.164-6.237.498-1.051-.333-3.375-.333-3.375s-12.954-16.943-14.122-18.01c-1.168-1.067-2.512-.674-2.965.012-.454.687-4.785 1.274-3.949 5.08z"/><path style="fill:none;stroke:#263238;stroke-miterlimit:10" d="m184.209 196.048-24.219 18.081M155.872 241.298c-1.246 2.171-2.539 4.176-3.867 5.923M168.329 212.044s-2.95 11.205-10.834 26.287M159.553 242.189s-8.946 13.419-13.139 17.053"/></g></svg>