<svg xmlns="http://www.w3.org/2000/svg" viewBox="0 0 750 500" style="enable-background:new 0 0 750 500" xml:space="preserve"><path style="fill:#e0e0e0" d="M433.831 221.857a1.555 1.555 0 0 1-.015-.234l-.016-.66-.036-2.533-.083-9.444.151.151-48.65.097c.11-.11-.25.247.245-.248v3.293l-.001 3.248-.004 6.331-.242-.242 34.671.11 10.234.069 2.767.032.724.016c.164.003.25.008.255.014.005.005-.071.01-.225.016l-.694.015-2.715.032-10.178.069-34.84.11-.242.001v-.243l-.004-6.331-.001-3.248V208.985c.496-.496.139-.137.251-.248l48.65.097h.152l-.001.151-.083 9.534-.037 2.499-.016.634c-.007.141-.012.21-.017.205zM527.406 87.242a1.555 1.555 0 0 1-.015-.234l-.016-.66-.036-2.533-.083-9.444.151.151-48.65.097c.11-.11-.25.247.245-.247v3.293l-.001 3.248-.004 6.331-.242-.242 34.671.11 10.234.069 2.767.032.724.016c.163.002.25.007.255.013.005.005-.071.01-.225.016l-.694.016-2.715.032-10.178.069-34.84.11-.242.001v-.243l-.004-6.331-.001-3.248V74.371c.496-.496.139-.138.251-.248l48.65.097h.152l-.001.151-.083 9.534-.037 2.499-.016.634c-.007.14-.012.209-.017.204zM707.83 280.045a1.555 1.555 0 0 1-.015-.234l-.016-.66-.037-2.533-.083-9.444.151.151-48.65.097c.11-.11-.25.247.245-.248v3.293l-.001 3.248-.004 6.331-.242-.242 34.671.11 10.234.069 2.767.032.724.016c.164.003.25.009.256.014.005.005-.071.01-.225.016l-.694.016-2.715.032-10.178.069-34.84.11-.242.001v-.243l-.004-6.331-.001-3.248V267.174c.496-.496.139-.137.251-.248l48.65.097h.152l-.001.151-.083 9.534-.037 2.499-.016.634c-.007.14-.012.209-.017.204z"/><path style="fill:#e0e0e0" d="M714.426 267.174a1.506 1.506 0 0 1-.019-.245l-.019-.682-.044-2.581-.096-9.363.178.178-29.23.07c-.223.221.299-.302.246-.247v1.685l-.001 1.669-.002 3.276-.009 6.241-.236-.236 20.911.112 6.091.065 1.643.03c.377.009.578.018.587.028.01.01-.172.019-.531.029l-1.594.03-6.037.065-21.07.112-.236.001v-.237l-.009-6.241-.002-3.276-.001-1.669V254.303c-.054.052.47-.471.25-.249l29.23.07.18.001-.002.178-.096 9.472-.044 2.541c-.013.575-.025.87-.038.858z"/><path style="fill:#f5f5f5" d="m254.554 424.621-11.025 4.729.741-65.255c.345-7.806-3.249-11.139-5.201-13.359-17.705-20.132-44.116-5.53-44.348 14.887l-.662 58.311-10.713-.122 1.065-61.019c.078-6.875 5.418-18.796 10.808-23.065 29.797-23.603 60.29.786 59.997 26.582l-.662 58.311z"/><path style="fill:#e0e0e0" d="M254.554 424.621s-.008-.401-.005-1.166l.019-3.385.102-12.973.18-20.484.121-12.776c-.042-4.513.408-9.331-.516-14.266-.855-4.931-2.934-9.889-6.136-14.309-.408-.547-.799-1.112-1.225-1.653l-1.382-1.552c-.88-1.085-1.993-1.96-3.009-2.948-.517-.486-1.117-.879-1.675-1.326-.581-.417-1.111-.913-1.741-1.27-1.234-.75-2.432-1.589-3.78-2.186-2.591-1.404-5.479-2.269-8.416-3.015l-2.257-.37-1.135-.186c-.382-.039-.767-.051-1.152-.078l-2.318-.142c-.776-.013-1.555.05-2.337.072-6.262.218-12.596 2.359-18.081 6.023-2.744 1.848-5.197 4.157-7.404 6.716-2.158 2.611-3.921 5.571-5.329 8.726-1.355 3.187-2.188 6.606-2.621 10.104-.299 3.507-.219 7.113-.288 10.726l-.503 44.798-.07 6.117-.248-.254 10.713.122-.253.247.392-33.97.19-16.289.093-7.948c.067-2.65.492-5.265 1.293-7.744 1.682-4.927 4.824-9.24 8.861-12.194.514-.354.987-.768 1.532-1.069l1.6-.947c1.115-.528 2.204-1.115 3.375-1.477 1.138-.455 2.33-.708 3.503-.997.591-.123 1.193-.179 1.786-.271l.891-.125.896-.036c2.386-.194 4.75.128 7.024.588 2.27.532 4.419 1.385 6.421 2.45 3.938 2.231 7.241 5.374 9.403 9.066 1.159 1.803 1.909 3.788 2.574 5.743.527 1.998.943 4.004.987 6.007l.056 1.491a14679.377 14679.377 0 0 1-.054 4.366l-.071 5.63-.259 20.223-.386 28.07-.073-.074 8.078.134 1.977.039c.435.01.657.022.657.022s-.204.007-.633.007l-1.96-.005-8.121-.05h-.074l.001-.074.251-28.072.201-20.224a14110.855 14110.855 0 0 0 .102-9.997l-.059-1.47c-.046-1.973-.462-3.948-.984-5.915-.66-1.923-1.4-3.877-2.546-5.649-2.135-3.631-5.392-6.718-9.268-8.907-1.97-1.044-4.085-1.88-6.317-2.4-2.236-.448-4.56-.763-6.905-.568l-.881.036-.875.125c-.583.092-1.174.147-1.754.269-1.152.286-2.323.534-3.44.984-1.15.356-2.218.935-3.313 1.454l-1.571.932c-.536.296-.999.704-1.503 1.052-3.962 2.905-7.042 7.145-8.688 11.98-.784 2.434-1.197 4.997-1.262 7.602l-.087 7.948-.18 16.289-.38 33.97-.003.25-.25-.003-10.713-.121-.251-.003.003-.251.07-6.117.514-44.798c.072-3.62-.01-7.194.296-10.771.44-3.546 1.288-7.012 2.663-10.241 1.429-3.198 3.219-6.196 5.407-8.839 2.238-2.591 4.725-4.927 7.507-6.797 5.559-3.707 11.98-5.867 18.319-6.081.792-.021 1.581-.083 2.366-.069l2.689.168 1.479.168 2.247.371 1.037.219c2.797.729 5.534 1.59 8.005 2.932 1.362.607 2.574 1.457 3.821 2.218.636.363 1.172.865 1.759 1.287.564.453 1.169.852 1.692 1.344 1.027 1 2.149 1.889 3.037 2.986l1.394 1.572c.43.547.825 1.119 1.236 1.673 3.229 4.474 5.318 9.489 6.171 14.472.923 4.997.456 9.839.485 14.363l-.169 12.82-.285 20.511-.192 12.936-.057 3.353c-.015.754-.031 1.131-.031 1.131z"/><path style="fill:#e0e0e0" d="m267.502 468.897-97.296-1.105.932-82.067 96.953 1.101a3.745 3.745 0 0 1 3.702 3.787l-.85 74.922a3.403 3.403 0 0 1-3.441 3.362z"/><path style="fill:#ebebeb" d="m254.063 468.744-84.25-.956a4.2 4.2 0 0 1-4.152-4.247l.838-73.804a4.063 4.063 0 0 1 4.11-4.017l85.293.968a4.063 4.063 0 0 1 4.017 4.11l-.829 73.033a4.97 4.97 0 0 1-5.027 4.913z"/><path style="fill:#e0e0e0" d="M225.854 420.153c.073-6.445-5.189-11.708-11.68-11.587-6.056.112-11.117 5.173-11.236 11.229-.104 5.28 3.394 9.734 8.207 11.165l-7.656 15.724 19.747.587-5.84-16.239c4.814-1.314 8.398-5.642 8.458-10.879z"/><path style="fill:#fafafa" d="M259.18 461.094c-.139-.002-.028-14.294.248-31.918.275-17.63.611-31.916.75-31.914.138.002.028 14.291-.248 31.921-.276 17.624-.611 31.913-.75 31.911z"/><path style="fill:#fff" d="M238.344 388.975c0 .139-12.576.275-28.085.305-15.515.03-28.089-.058-28.089-.197 0-.138 12.573-.275 28.088-.305 15.509-.03 28.086.058 28.086.197zM202.496 426.058c-.027.015-.206-.233-.467-.72-.262-.485-.584-1.223-.857-2.176-.557-1.886-.799-4.751.185-7.657.988-2.905 2.925-5.031 4.515-6.188.798-.589 1.501-.979 2.005-1.204.503-.227.796-.315.808-.287.043.085-1.093.55-2.595 1.771-1.494 1.199-3.31 3.282-4.258 6.07-.944 2.789-.772 5.546-.316 7.407.447 1.883 1.065 2.943.98 2.984z"/><g><path style="fill:#fff" d="M206.962 431.54c-.073.118-.746-.169-1.502-.639-.757-.471-1.311-.948-1.237-1.066.073-.118.746.169 1.503.64.756.47 1.31.947 1.236 1.065z"/></g><g><path style="fill:#fff" d="M216.518 333.173c.002.044-.69.095-1.93.252-1.24.153-3.025.471-5.162 1.106-4.251 1.231-9.975 4.083-14.494 9.201-4.514 5.126-6.627 11.163-7.315 15.534-.362 2.2-.454 4.011-.45 5.26 0 1.249.036 1.943-.008 1.946-.017.001-.044-.17-.079-.499-.026-.329-.099-.815-.109-1.443-.063-1.256-.025-3.086.295-5.319.606-4.434 2.696-10.595 7.289-15.811 4.599-5.209 10.449-8.054 14.772-9.21 2.175-.598 3.986-.865 5.24-.959.625-.07 1.116-.057 1.446-.073.33-.007.504-.002.505.015z"/></g><g><path style="fill:#fff" d="M186.643 375.317c-.139-.003-.223-1.339-.188-2.985s.175-2.977.314-2.974c.138.003.223 1.339.188 2.985-.035 1.645-.175 2.977-.314 2.974z"/></g><g><path style="fill:#f5f5f5" d="M199.621 96.771h48.653v12.871h-48.653z"/><path style="fill:#e0e0e0" d="M227.701 123.199a1.555 1.555 0 0 1-.015-.234l-.016-.66-.037-2.533-.083-9.444.151.151-48.65.097c.11-.11-.25.247.245-.248v3.293l-.001 3.248-.004 6.331-.242-.242 34.671.11 10.234.069 2.767.032.724.016c.164.004.251.009.256.014.005.005-.071.01-.225.016l-.694.016-2.715.032-10.178.069-34.84.11-.242.001v-.243l-.004-6.331-.001-3.248V110.328c.496-.496.139-.137.251-.248l48.65.097h.152l-.001.151-.083 9.534-.037 2.499-.016.634c-.007.14-.012.209-.017.204z"/></g><g><path style="fill:#f5f5f5" d="M652.01 63.172h48.653v12.871H652.01z"/><path style="fill:#e0e0e0" d="M680.09 89.6a1.555 1.555 0 0 1-.015-.234l-.016-.66-.036-2.533-.083-9.444.151.151-48.65.097c.11-.11-.25.247.245-.248v3.293l-.001 3.248-.004 6.331-.242-.242 34.671.11 10.234.069 2.767.032.724.016c.163.003.25.008.255.014.005.005-.071.01-.225.016l-.694.016-2.715.032-10.178.069-34.84.11-.242.001v-.243l-.004-6.331-.001-3.248V76.728c.496-.496.139-.137.251-.248l48.65.097h.152l-.001.151-.083 9.534-.037 2.499-.016.634a1.022 1.022 0 0 1-.017.205z"/></g><g><path style="fill:#f5f5f5" d="M374.559 319.031h48.653v12.871h-48.653z"/><path style="fill:#e0e0e0" d="M402.639 345.459a1.555 1.555 0 0 1-.015-.234l-.016-.66-.036-2.533-.083-9.444.151.151-48.65.097c.11-.11-.25.247.245-.247v3.293l-.001 3.248-.004 6.331-.242-.242 34.671.11 10.234.069 2.767.032.724.016c.163.002.25.007.255.013.005.005-.071.01-.225.016l-.694.016-2.715.032-10.178.069-34.84.11-.242.001v-.243l-.004-6.331-.001-3.248V332.588c.496-.496.139-.138.251-.248l48.65.097h.152l-.001.151-.083 9.534-.037 2.499-.016.634c-.007.14-.012.209-.017.204z"/></g><g><path style="fill:#e0e0e0" d="M104.258 76.612a1.555 1.555 0 0 1-.015-.234l-.016-.66-.037-2.533-.083-9.444.151.151-48.65.097c.11-.11-.25.247.245-.247v3.293l-.001 3.248-.004 6.331-.242-.242 34.671.11 10.234.069 2.767.032.724.016c.164.002.251.007.256.013.005.005-.071.01-.225.016l-.694.015-2.715.032-10.178.069-34.84.11-.242.001v-.243l-.004-6.331-.001-3.248v-3.292c.496-.496.139-.138.251-.248l48.65.097h.152l-.001.151-.083 9.534-.037 2.499-.016.634c-.007.14-.012.209-.017.204z"/></g><g><path style="fill:#e0e0e0" d="M589.411 447.73a1.555 1.555 0 0 1-.015-.234l-.016-.66-.036-2.533-.083-9.444.151.151-48.65.097c.11-.11-.25.247.245-.247v3.293l-.001 3.248-.004 6.331-.242-.242 34.671.11 10.234.069 2.767.032.724.016c.164.003.25.008.255.013.005.005-.071.01-.225.016l-.694.016-2.715.032-10.178.069-34.84.11-.242.001v-.243l-.004-6.331-.001-3.248V434.859c.496-.496.139-.138.251-.248l48.65.097h.152l-.001.151-.083 9.534-.037 2.499-.016.634c-.006.14-.011.209-.017.204z"/></g><g><path style="fill:#e0e0e0" d="M394.362 58.128a1.555 1.555 0 0 1-.015-.234l-.016-.66-.037-2.533-.083-9.444.151.151-48.65.097c.11-.11-.25.247.245-.248v3.293l-.001 3.248-.004 6.331-.242-.242 34.671.11 10.234.069 2.767.032.724.015c.164.004.251.01.256.015.005.005-.071.011-.225.016l-.694.016-2.715.032-10.178.069-34.84.11-.242.001v-.243l-.004-6.331-.001-3.248V45.257c.496-.496.139-.138.251-.248l48.65.097h.152l-.001.151-.083 9.534-.037 2.499-.016.634c-.007.14-.012.209-.017.204z"/><path style="fill:#e0e0e0" d="M400.959 45.257a1.506 1.506 0 0 1-.019-.245l-.019-.682-.044-2.581-.096-9.363.178.178-29.23.07c-.223.221.299-.302.246-.247v1.682l-.001 1.669-.002 3.276-.009 6.241-.236-.236 20.911.112 6.091.065 1.643.03c.377.011.577.021.587.031.01.01-.172.019-.531.029l-1.594.03-6.038.065-21.07.112-.236.001v-.237l-.009-6.241-.002-3.276-.001-1.669V32.387c-.054.052.47-.471.25-.249l29.23.07h.18l-.002.178-.096 9.472-.044 2.541c-.013.575-.025.87-.037.858z"/></g><g><path style="fill:#e0e0e0" d="M87.362 365.025a1.555 1.555 0 0 1-.015-.234l-.016-.66-.037-2.533-.083-9.444.151.151-48.65.097c.11-.11-.25.247.245-.248v3.292l-.001 3.248-.004 6.331-.242-.242 34.671.11 10.234.069 2.767.032.724.016c.165.004.251.009.256.015.005.005-.071.01-.225.016l-.694.016-2.715.032-10.178.069-34.84.11-.242.001v-.243l-.004-6.331-.001-3.248v-3.292c.496-.496.139-.138.251-.248l48.65.097h.152l-.001.151-.083 9.534-.037 2.499-.016.634a.997.997 0 0 1-.017.203z"/><path style="fill:#e0e0e0" d="M93.959 352.154a1.506 1.506 0 0 1-.019-.245l-.019-.682-.044-2.581-.096-9.363.178.178-29.23.07c-.223.221.299-.302.246-.247v1.682l-.001 1.669-.002 3.276-.009 6.241-.236-.236 20.911.112 6.091.065 1.643.03c.376.011.577.021.587.031.01.01-.172.019-.531.029l-1.594.03-6.037.065-21.07.112-.236.001v-.237l-.009-6.241-.002-3.276-.001-1.669V339.286c-.054.052.47-.471.25-.249l29.23.07h.18l-.002.178-.096 9.472-.044 2.541c-.014.573-.026.868-.038.856z"/></g><g><path style="fill:#e0e0e0" d="M240.559 259.193a1.555 1.555 0 0 1-.015-.234l-.016-.66-.037-2.533-.083-9.444.151.151-48.65.097c.11-.11-.25.247.245-.248v3.293l-.001 3.248-.004 6.331-.242-.242 34.671.11 10.234.069 2.767.032.724.016c.164.003.25.008.256.014.005.005-.071.01-.225.016l-.694.016-2.715.032-10.178.069-34.84.11-.242.001v-.243l-.004-6.331-.001-3.248V246.322c.496-.496.139-.137.251-.248l48.65.097h.152l-.001.151-.083 9.534-.037 2.499-.016.634c-.007.14-.012.209-.017.204z"/><path style="fill:#e0e0e0" d="M247.155 246.322a1.506 1.506 0 0 1-.019-.245l-.019-.682-.044-2.581-.096-9.363.178.178-29.23.07c-.223.221.299-.302.246-.247v1.683l-.001 1.669-.002 3.276-.009 6.241-.236-.236 20.911.112 6.091.065 1.643.03c.377.01.577.02.587.03.01.01-.172.019-.531.029l-1.594.03-6.038.065-21.07.112-.236.001v-.237a58824.99 58824.99 0 0 1-.011-9.517l-.001-1.669V233.453c-.054.052.47-.471.25-.249l29.23.07.18.001-.002.178-.096 9.472-.044 2.541c-.012.572-.024.868-.037.856z"/></g><g><path style="fill:#fff" d="M57.64 468.89h636.719"/><path style="fill:#263238" d="M694.359 468.89c0 .144-142.546.26-318.344.26-175.859 0-318.375-.117-318.375-.26 0-.144 142.515-.26 318.375-.26 175.799 0 318.344.116 318.344.26z"/></g><g><path style="fill:#fff" d="M456.374 126.896h227.005v291.337H456.374z"/><path style="fill:#263238" d="m683.379 418.234-.234-291.337.234.234-226.98.026h-.025l.26-.26-.045 291.337-.215-.215 227.005.215-227.005.215h-.215v-.216l-.045-291.337v-.26H456.399l226.98.026h.234v.234l-.234 291.338z"/><path style="fill:#ebebeb" d="M659.945 269.544H480.509a1.454 1.454 0 0 1-1.454-1.454v-28.591c0-.803.651-1.454 1.454-1.454h179.436c.803 0 1.454.651 1.454 1.454v28.591c0 .803-.651 1.454-1.454 1.454zM660.124 312.805H480.687a1.454 1.454 0 0 1-1.454-1.454V282.76c0-.803.651-1.454 1.454-1.454h179.436c.803 0 1.454.651 1.454 1.454v28.591a1.453 1.453 0 0 1-1.453 1.454z"/><path style="fill:#263238" d="M498.968 251.978c0 1.581-1.145 2.539-3.039 2.539h-1.8v2.206h-1.041v-7.285h2.841c1.895 0 3.039.958 3.039 2.54zm-1.041 0c0-1.041-.697-1.634-2.029-1.634h-1.769v3.268h1.769c1.332 0 2.029-.594 2.029-1.634zM504.667 253.393v3.33h-.946v-.728c-.333.499-.947.791-1.812.791-1.248 0-2.039-.666-2.039-1.624 0-.884.572-1.612 2.217-1.612h1.581v-.198c0-.843-.488-1.332-1.478-1.332-.655 0-1.321.229-1.748.593l-.416-.749c.572-.458 1.395-.708 2.278-.708 1.51 0 2.363.728 2.363 2.237zm-.999 1.644v-.77h-1.54c-.988 0-1.27.385-1.27.854 0 .551.458.895 1.218.895.749-.001 1.343-.345 1.592-.979zM505.819 256.14l.416-.791c.469.333 1.218.572 1.936.572.926 0 1.312-.28 1.312-.749 0-1.238-3.486-.166-3.486-2.362 0-.988.885-1.654 2.3-1.654.718 0 1.529.187 2.009.5l-.427.791c-.5-.323-1.052-.438-1.593-.438-.874 0-1.301.323-1.301.76 0 1.301 3.497.239 3.497 2.383 0 .999-.916 1.634-2.384 1.634-.916-.001-1.821-.282-2.279-.646zM511.03 256.14l.416-.791c.469.333 1.218.572 1.936.572.926 0 1.312-.28 1.312-.749 0-1.238-3.486-.166-3.486-2.362 0-.988.885-1.654 2.3-1.654.718 0 1.529.187 2.009.5l-.427.791c-.5-.323-1.052-.438-1.593-.438-.874 0-1.301.323-1.301.76 0 1.301 3.497.239 3.497 2.383 0 .999-.916 1.634-2.384 1.634-.916-.001-1.821-.282-2.279-.646zM525.179 251.207l-2.06 5.516h-.957l-1.593-4.184-1.612 4.184h-.958l-2.05-5.516h.947l1.603 4.392 1.665-4.392h.843l1.634 4.412 1.645-4.412h.893zM525.518 253.965c0-1.644 1.217-2.81 2.872-2.81 1.654 0 2.861 1.166 2.861 2.81 0 1.645-1.207 2.82-2.861 2.82-1.655 0-2.872-1.175-2.872-2.82zm4.724 0c0-1.176-.79-1.936-1.852-1.936-1.061 0-1.863.76-1.863 1.936s.802 1.946 1.863 1.946c1.062 0 1.852-.77 1.852-1.946zM535.598 251.156v.968c-.083-.01-.156-.01-.229-.01-1.071 0-1.737.655-1.737 1.863v2.747h-.999v-5.516h.957v.926c.353-.645 1.04-.978 2.008-.978zM541.975 249.001v7.722h-.958v-.874c-.447.624-1.154.937-1.967.937-1.612 0-2.788-1.135-2.788-2.82 0-1.686 1.176-2.81 2.788-2.81.781 0 1.468.292 1.926.884v-3.039h.999zm-.989 4.964c0-1.176-.801-1.936-1.852-1.936-1.062 0-1.863.76-1.863 1.936s.802 1.946 1.863 1.946c1.051 0 1.852-.77 1.852-1.946z"/><g><path style="fill:#263238" d="M492.496 298.378c0-2.154 1.644-3.725 3.86-3.725 1.124 0 2.103.385 2.769 1.135l-.677.655c-.563-.593-1.249-.863-2.05-.863-1.645 0-2.862 1.186-2.862 2.799s1.218 2.8 2.862 2.8c.801 0 1.487-.281 2.05-.875l.677.656c-.666.749-1.645 1.145-2.779 1.145-2.207-.001-3.85-1.572-3.85-3.727zM499.724 299.263c0-1.645 1.217-2.81 2.872-2.81 1.654 0 2.861 1.165 2.861 2.81s-1.207 2.82-2.861 2.82c-1.655 0-2.872-1.175-2.872-2.82zm4.725 0c0-1.176-.791-1.935-1.853-1.935-1.061 0-1.863.76-1.863 1.935s.802 1.946 1.863 1.946c1.062 0 1.853-.77 1.853-1.946zM512.073 298.847v3.174h-.999v-3.06c0-1.082-.541-1.613-1.488-1.613-1.062 0-1.748.635-1.748 1.832v2.841h-.999v-5.516h.957v.832c.406-.561 1.113-.884 1.987-.884 1.343 0 2.29.77 2.29 2.394zM515.888 294.237c.427 0 .843.104 1.124.322l-.302.76a1.298 1.298 0 0 0-.771-.26c-.593 0-.895.333-.895.968v.478h1.603v.822h-1.582v4.693h-.999v-4.693h-.937v-.822h.937v-.489c.001-1.071.646-1.779 1.822-1.779zm2.363.561c0-.364.291-.655.676-.655.386 0 .677.281.677.635a.654.654 0 0 1-.677.666c-.385 0-.676-.282-.676-.646zm.176 1.707h.999v5.516h-.999v-5.516zM524.293 296.453v.968c-.084-.011-.156-.011-.229-.011-1.071 0-1.737.655-1.737 1.863v2.747h-.999v-5.516h.957v.926c.352-.644 1.04-.977 2.008-.977zM534.675 298.847v3.174h-.999v-3.06c0-1.082-.521-1.613-1.426-1.613-.999 0-1.654.635-1.654 1.832v2.841h-.999v-3.06c0-1.082-.521-1.613-1.426-1.613-.999 0-1.654.635-1.654 1.832v2.841h-.999v-5.516h.957v.822c.396-.563 1.072-.874 1.904-.874.843 0 1.551.333 1.915 1.02.416-.624 1.186-1.02 2.123-1.02 1.342 0 2.258.77 2.258 2.394zM545.336 297.276c0 1.581-1.144 2.539-3.039 2.539h-1.8v2.206h-1.041v-7.285h2.841c1.894 0 3.039.958 3.039 2.54zm-1.041 0c0-1.041-.697-1.635-2.029-1.635h-1.769v3.269h1.769c1.331-.001 2.029-.594 2.029-1.634zM551.034 298.691v3.33h-.946v-.729c-.333.499-.947.791-1.811.791-1.248 0-2.039-.666-2.039-1.624 0-.884.572-1.612 2.217-1.612h1.581v-.198c0-.843-.488-1.332-1.477-1.332-.655 0-1.321.229-1.748.594l-.416-.75c.572-.458 1.394-.707 2.278-.707 1.508-.001 2.361.728 2.361 2.237zm-.999 1.643v-.77h-1.54c-.988 0-1.27.385-1.27.854 0 .551.458.895 1.218.895.749 0 1.343-.344 1.592-.979zM552.186 301.438l.416-.791c.469.333 1.218.572 1.935.572.926 0 1.312-.28 1.312-.749 0-1.238-3.486-.167-3.486-2.362 0-.988.885-1.654 2.3-1.654.718 0 1.529.187 2.009.499l-.427.791c-.5-.322-1.052-.438-1.593-.438-.874 0-1.301.323-1.301.76 0 1.301 3.497.239 3.497 2.384 0 .999-.916 1.634-2.384 1.634-.915-.001-1.82-.282-2.278-.646zM557.396 301.438l.416-.791c.469.333 1.218.572 1.936.572.926 0 1.312-.28 1.312-.749 0-1.238-3.486-.167-3.486-2.362 0-.988.885-1.654 2.3-1.654.718 0 1.529.187 2.009.499l-.427.791c-.5-.322-1.052-.438-1.593-.438-.874 0-1.301.323-1.301.76 0 1.301 3.497.239 3.497 2.384 0 .999-.916 1.634-2.384 1.634-.916-.001-1.821-.282-2.279-.646zM571.547 296.505l-2.06 5.516h-.957l-1.593-4.184-1.612 4.184h-.958l-2.05-5.516h.947l1.603 4.392 1.665-4.392h.843l1.634 4.412 1.644-4.412h.894zM571.885 299.263c0-1.645 1.217-2.81 2.872-2.81 1.654 0 2.861 1.165 2.861 2.81s-1.207 2.82-2.861 2.82c-1.655 0-2.872-1.175-2.872-2.82zm4.724 0c0-1.176-.79-1.935-1.852-1.935s-1.863.76-1.863 1.935.802 1.946 1.863 1.946c1.062 0 1.852-.77 1.852-1.946zM581.966 296.453v.968c-.083-.011-.156-.011-.229-.011-1.071 0-1.737.655-1.737 1.863v2.747h-1v-5.516h.957v.926c.353-.644 1.041-.977 2.009-.977zM588.342 294.299v7.722h-.958v-.874c-.447.624-1.154.937-1.967.937-1.612 0-2.788-1.135-2.788-2.82 0-1.685 1.176-2.81 2.788-2.81.781 0 1.468.291 1.926.884V294.3h.999zm-.989 4.964c0-1.176-.801-1.935-1.852-1.935-1.062 0-1.863.76-1.863 1.935s.802 1.946 1.863 1.946c1.051 0 1.852-.77 1.852-1.946z"/></g><g><path style="fill:#ff725e" d="M659.065 361.593H479.629a1.454 1.454 0 0 1-1.454-1.454v-28.591c0-.803.651-1.454 1.454-1.454h179.436c.803 0 1.454.651 1.454 1.454v28.591a1.453 1.453 0 0 1-1.454 1.454z"/></g><g><path style="fill:#fff" d="M546.789 346.083c0-2.216 1.696-3.788 4.007-3.788 1.343 0 2.425.489 3.132 1.374l-1.311 1.186c-.458-.552-1.019-.854-1.717-.854-1.197 0-2.029.833-2.029 2.081 0 1.249.832 2.082 2.029 2.082.697 0 1.259-.302 1.717-.854l1.311 1.187c-.707.884-1.789 1.373-3.132 1.373-2.311.001-4.007-1.57-4.007-3.787zM560.755 346.5v3.226h-1.978v-2.903c0-.811-.354-1.155-.926-1.155-.635 0-1.124.396-1.124 1.332v2.727h-1.978v-7.722h1.978v2.602c.437-.405 1.03-.614 1.696-.614 1.322-.002 2.332.758 2.332 2.507zM567.278 346.593v3.133h-1.842v-.728c-.28.541-.843.822-1.665.822-1.353 0-2.102-.76-2.102-1.738 0-1.04.76-1.686 2.508-1.686h1.124c-.031-.572-.417-.895-1.197-.895-.541 0-1.144.186-1.529.488l-.666-1.342c.645-.427 1.603-.656 2.487-.656 1.831 0 2.882.813 2.882 2.602zm-1.977 1.322v-.489h-.854c-.635 0-.864.229-.864.572 0 .333.271.572.739.572.438.001.823-.207.979-.655zM574.531 346.5v3.226h-1.977v-2.903c0-.811-.354-1.155-.926-1.155-.635 0-1.124.396-1.124 1.332v2.727h-1.978v-5.641h1.884v.614c.447-.469 1.082-.708 1.79-.708 1.321-.001 2.331.759 2.331 2.508zM581.92 344.085v4.61c0 2.134-1.207 3.143-3.31 3.143-1.082 0-2.112-.25-2.8-.738l.719-1.385c.468.375 1.238.603 1.904.603 1.062 0 1.509-.478 1.509-1.363v-.187c-.385.447-.957.666-1.676.666-1.498 0-2.768-1.061-2.768-2.727 0-1.655 1.27-2.717 2.768-2.717.78 0 1.385.25 1.769.781v-.688h1.885zm-1.958 2.623c0-.688-.52-1.146-1.227-1.146-.708 0-1.238.458-1.238 1.146 0 .686.53 1.155 1.238 1.155.707.001 1.227-.468 1.227-1.155zM588.922 347.406h-4.101c.167.572.655.905 1.384.905.552 0 .916-.156 1.301-.489l1.041 1.082c-.541.604-1.332.916-2.404.916-2.008 0-3.309-1.238-3.309-2.925 0-1.695 1.321-2.903 3.101-2.903 1.665 0 3.019 1.062 3.019 2.925 0 .145-.022.332-.032.489zm-4.131-1.041h2.31c-.104-.593-.541-.968-1.155-.968s-1.041.375-1.155.968z"/></g><g><path style="fill:#263238" d="M552.378 193.377h-1.668v2.872h-3.058V185.44h4.941c2.949 0 4.803 1.529 4.803 3.999 0 1.591-.772 2.764-2.116 3.413l2.332 3.397h-3.273l-1.961-2.872zm.03-5.528h-1.698v3.166h1.698c1.267 0 1.899-.587 1.899-1.575 0-1.004-.633-1.591-1.899-1.591zM567.45 192.806h-6.084c.247.849.973 1.343 2.054 1.343.818 0 1.359-.231 1.931-.725l1.544 1.606c-.803.895-1.977 1.359-3.567 1.359-2.98 0-4.91-1.838-4.91-4.339 0-2.517 1.961-4.308 4.602-4.308 2.471 0 4.479 1.575 4.479 4.339-.002.215-.033.493-.049.725zm-6.13-1.544h3.428c-.154-.88-.803-1.436-1.714-1.436-.911 0-1.544.555-1.714 1.436zM568.193 195.524l.88-2.008c.773.479 1.899.773 2.918.773.988 0 1.313-.216 1.313-.571 0-1.127-4.941.154-4.941-3.197 0-1.575 1.451-2.779 4.076-2.779 1.174 0 2.471.247 3.305.71l-.88 1.992a4.909 4.909 0 0 0-2.409-.618c-.988 0-1.344.278-1.344.587 0 1.158 4.926-.093 4.926 3.227 0 1.544-1.42 2.749-4.138 2.749-1.421 0-2.888-.356-3.706-.865zM585.813 192.806h-6.084c.247.849.973 1.343 2.054 1.343.818 0 1.359-.231 1.931-.725l1.544 1.606c-.803.895-1.977 1.359-3.567 1.359-2.98 0-4.91-1.838-4.91-4.339 0-2.517 1.961-4.308 4.602-4.308 2.471 0 4.479 1.575 4.479 4.339-.002.215-.033.493-.049.725zm-6.13-1.544h3.428c-.154-.88-.803-1.436-1.714-1.436s-1.544.555-1.714 1.436zM592.995 195.91c-.509.324-1.266.479-2.038.479-2.146 0-3.397-1.05-3.397-3.197v-2.811h-1.22v-2.192h1.22v-2.177h2.935v2.177h1.915v2.192h-1.915v2.78c0 .618.354.958.88.958.324 0 .648-.093.896-.263l.724 2.054z"/></g><g><path style="fill:#263238" d="M515.898 209.711v3.876h-3.058v-3.922l-4.123-6.887h3.228l2.563 4.293 2.563-4.293h2.965l-4.138 6.933zM519.219 209.387c0-2.517 1.992-4.308 4.726-4.308 2.764 0 4.725 1.791 4.725 4.308 0 2.532-1.961 4.339-4.725 4.339-2.733 0-4.726-1.807-4.726-4.339zm6.486 0c0-1.266-.757-1.976-1.76-1.976-.988 0-1.761.71-1.761 1.976 0 1.282.772 2.007 1.761 2.007 1.003 0 1.76-.725 1.76-2.007zM538.832 205.218v8.37h-2.795v-.896c-.634.695-1.529 1.035-2.486 1.035-2.054 0-3.552-1.174-3.552-3.83v-4.679h2.934v4.2c0 1.297.51 1.807 1.39 1.807.865 0 1.575-.571 1.575-1.977v-4.03h2.934zM546.323 205.079v2.64a5.324 5.324 0 0 0-.664-.046c-1.189 0-2.008.602-2.008 2.069v3.845h-2.934v-8.37h2.795v1.004c.602-.756 1.575-1.142 2.811-1.142zM561.936 206.777c0 2.455-1.854 3.984-4.803 3.984h-1.884v2.826h-3.058v-10.81h4.941c2.951.001 4.804 1.53 4.804 4zm-3.089 0c0-1.003-.633-1.59-1.899-1.59h-1.698v3.166h1.698c1.266-.001 1.899-.588 1.899-1.576zM571.047 208.939v4.648h-2.732v-1.081c-.417.803-1.251 1.22-2.471 1.22-2.008 0-3.12-1.127-3.12-2.579 0-1.544 1.128-2.501 3.722-2.501h1.668c-.047-.849-.618-1.328-1.775-1.328-.804 0-1.699.278-2.271.726l-.988-1.992c.957-.633 2.378-.973 3.69-.973 2.718 0 4.277 1.204 4.277 3.86zm-2.933 1.961v-.726h-1.267c-.941 0-1.281.34-1.281.849 0 .494.401.85 1.097.85.648 0 1.22-.309 1.451-.973zM572.239 212.862l.88-2.008c.773.479 1.899.772 2.919.772.988 0 1.313-.216 1.313-.571 0-1.127-4.941.154-4.941-3.197 0-1.575 1.451-2.779 4.076-2.779 1.174 0 2.471.247 3.305.71l-.88 1.992a4.909 4.909 0 0 0-2.409-.618c-.988 0-1.344.278-1.344.587 0 1.158 4.926-.093 4.926 3.227 0 1.544-1.42 2.749-4.138 2.749-1.422 0-2.889-.355-3.707-.864zM580.686 212.862l.88-2.008c.772.479 1.899.772 2.919.772.988 0 1.313-.216 1.313-.571 0-1.127-4.941.154-4.941-3.197 0-1.575 1.451-2.779 4.076-2.779 1.174 0 2.471.247 3.305.71l-.88 1.992a4.909 4.909 0 0 0-2.409-.618c-.988 0-1.344.278-1.344.587 0 1.158 4.926-.093 4.926 3.227 0 1.544-1.42 2.749-4.138 2.749-1.422 0-2.888-.355-3.707-.864zM603.51 205.218l-2.98 8.37h-2.841l-1.575-4.555-1.637 4.555h-2.842l-2.979-8.37h2.779l1.714 5.065 1.775-5.065h2.502l1.729 5.111 1.776-5.111h2.579zM603.652 209.387c0-2.517 1.992-4.308 4.726-4.308 2.764 0 4.725 1.791 4.725 4.308 0 2.532-1.961 4.339-4.725 4.339-2.734 0-4.726-1.807-4.726-4.339zm6.485 0c0-1.266-.757-1.976-1.76-1.976-.988 0-1.761.71-1.761 1.976 0 1.282.773 2.007 1.761 2.007 1.003 0 1.76-.725 1.76-2.007zM620.067 205.079v2.64a5.297 5.297 0 0 0-.663-.046c-1.189 0-2.008.602-2.008 2.069v3.845h-2.934v-8.37h2.795v1.004c.602-.756 1.576-1.142 2.81-1.142zM630.091 202.129v11.458h-2.796v-.834c-.556.664-1.374.973-2.455.973-2.285 0-4.123-1.668-4.123-4.339 0-2.656 1.838-4.308 4.123-4.308.973 0 1.761.278 2.316.865v-3.814h2.935zm-2.887 7.258c0-1.266-.757-1.976-1.745-1.976-1.004 0-1.761.71-1.761 1.976 0 1.282.757 2.007 1.761 2.007.988 0 1.745-.725 1.745-2.007z"/></g><g><path style="fill:#e0e0e0" d="m600.17 137.831-7.898-1.646 10.027-48.108c.454-2.179-.255-5.432-1.559-7.237-12.588-17.426-33.072-10.345-36.209 4.707l-8.96 42.989-7.898-1.646 10.091-48.416c1.056-5.068 4.322-9.422 8.925-11.794 25.445-13.112 46.795 7.272 42.441 28.162l-8.96 42.989z"/><path style="fill:#263238" d="M600.17 137.831s.053-.298.166-.862l.506-2.498 1.96-9.571 3.109-15.109 1.946-9.423c.624-3.34 1.657-6.835 1.691-10.616.084-3.768-.731-7.733-2.455-11.464-.222-.463-.429-.938-.665-1.399l-.796-1.348c-.493-.929-1.188-1.738-1.795-2.615-.312-.434-.698-.812-1.045-1.223-.369-.392-.689-.836-1.102-1.191-.803-.733-1.566-1.528-2.476-2.165-1.711-1.414-3.719-2.473-5.781-3.451l-1.614-.601-.811-.303c-.277-.084-.559-.149-.84-.225l-1.692-.442c-.571-.122-1.157-.189-1.737-.287-4.658-.749-9.65-.086-14.235 1.824-2.296.967-4.444 2.317-6.446 3.887-1.974 1.616-3.706 3.547-5.205 5.674-1.464 2.158-2.576 4.563-3.404 7.085-.73 2.548-1.195 5.224-1.771 7.883a608018.839 608018.839 0 0 1-7.82 37.536l-.146-.223 7.898 1.646-.223.146 5.224-25.043 2.507-12.008 1.223-5.859a20.68 20.68 0 0 1 2.08-5.534c1.958-3.396 4.907-6.127 8.318-7.723.432-.187.841-.424 1.287-.567l1.32-.467c.901-.228 1.79-.504 2.708-.601.907-.171 1.824-.185 2.733-.228.454-.005.907.041 1.359.059l.676.037.667.104c1.791.203 3.491.785 5.104 1.455 1.6.723 3.064 1.666 4.388 2.743 2.586 2.221 4.57 5.023 5.631 8.065.595 1.501.86 3.076 1.068 4.617.099 1.553.115 3.096-.143 4.582l-.176 1.11-.227 1.082-.447 2.135-.87 4.15-3.129 14.905-4.363 20.685-.043-.065 5.949 1.273 1.455.316c.322.072.484.112.484.112s-.151-.025-.468-.087l-1.448-.289-5.993-1.216-.054-.011.011-.055 4.263-20.705 3.086-14.914.86-4.152.443-2.136.224-1.083.17-1.095c.252-1.465.232-2.984.133-4.514-.208-1.517-.472-3.068-1.06-4.544-1.05-2.993-3.008-5.747-5.554-7.928a19.74 19.74 0 0 0-4.319-2.69c-1.587-.656-3.258-1.227-5.019-1.423l-.656-.102-.665-.035c-.444-.017-.889-.062-1.335-.056-.893.044-1.794.057-2.685.227-.901.096-1.775.369-2.659.593l-1.296.461c-.439.141-.84.375-1.264.559-3.349 1.571-6.241 4.256-8.16 7.59a20.335 20.335 0 0 0-2.037 5.434l-1.219 5.86-2.499 12.01-5.215 25.045-.038.184-.185-.038-7.898-1.646-.185-.039.039-.185.94-4.51 6.887-33.026c.579-2.665 1.038-5.317 1.783-7.916.841-2.556 1.97-4.994 3.456-7.18 1.52-2.155 3.278-4.11 5.279-5.746 2.03-1.589 4.208-2.954 6.534-3.932 4.646-1.931 9.704-2.595 14.419-1.832.588.1 1.18.168 1.758.293l1.963.515 1.068.339 1.607.601.734.312c1.96.945 3.858 1.978 5.489 3.329.918.647 1.69 1.451 2.501 2.194.417.361.741.809 1.113 1.207.351.417.74.799 1.055 1.239.614.888 1.314 1.708 1.81 2.648l.802 1.364c.238.467.447.946.67 1.416 1.736 3.775 2.551 7.784 2.457 11.589-.044 3.826-1.093 7.336-1.729 10.683l-1.987 9.448-3.19 15.114-2.021 9.53-.529 2.469c-.12.556-.187.832-.187.832z"/><path style="fill:#455a64" d="m602.484 172.256-70.908-14.779 12.61-60.503 70.572 14.709a3.744 3.744 0 0 1 2.901 4.429l-11.152 53.508a3.4 3.4 0 0 1-4.023 2.636z"/><path d="m602.154 172.235-70.536-14.701 12.61-60.503 70.201 14.631a4.125 4.125 0 0 1 3.196 4.879l-10.997 52.765a3.783 3.783 0 0 1-4.474 2.929z" style="opacity:.3"/><path style="fill:#455a64" d="m592.196 170.112-59.895-12.483a4.2 4.2 0 0 1-3.255-4.968l10.924-52.413a4.063 4.063 0 0 1 4.807-3.149l60.916 12.696a4.063 4.063 0 0 1 3.149 4.807l-10.766 51.658a4.97 4.97 0 0 1-5.88 3.852z"/><path d="M579.613 130.361a8.629 8.629 0 0 0-6.947-10.258c-4.491-.797-8.965 2.208-9.934 6.665-.844 3.886 1.094 7.686 4.442 9.442l-7.941 10.506 14.506 3.302-1.956-12.847c3.749-.272 7.026-2.949 7.83-6.81z" style="opacity:.3"/><path style="fill:#263238" d="M598.29 165.453c-.102-.022 2.056-10.566 4.82-23.548 2.765-12.987 5.088-23.493 5.19-23.471.102.022-2.056 10.563-4.82 23.55-2.764 12.982-5.087 23.491-5.19 23.469z"/><g><path style="fill:#fff" d="M593.371 109.138c-.02.103-9.332-1.623-20.796-3.854-11.468-2.232-20.746-4.123-20.726-4.226.02-.102 9.33 1.623 20.798 3.855 11.465 2.231 20.744 4.123 20.724 4.225z"/></g><g><path style="fill:#fff" d="M561.497 131.331c-.022.007-.118-.202-.24-.6a8.361 8.361 0 0 1-.317-1.732c-.138-1.474.1-3.627 1.249-5.631 1.152-2.003 2.892-3.293 4.235-3.917a8.339 8.339 0 0 1 1.656-.598c.405-.095.634-.117.639-.095.019.069-.887.247-2.174.932-1.278.669-2.922 1.944-4.028 3.866-1.102 1.923-1.376 3.986-1.31 5.427.056 1.457.359 2.33.29 2.348z"/></g><g><path style="fill:#fff" d="M564.001 136.03c-.071.076-.527-.233-1.017-.691-.491-.458-.831-.891-.759-.967.071-.076.527.233 1.017.691.49.458.83.891.759.967z"/></g><g><path style="fill:#fff" d="M585.35 64.737c-.005.033-.524-.03-1.463-.094a24.342 24.342 0 0 0-3.975.067c-3.32.292-7.963 1.568-12.046 4.693-4.08 3.132-6.518 7.286-7.662 10.416a24.318 24.318 0 0 0-1.097 3.821c-.182.923-.256 1.441-.289 1.437-.013-.001-.008-.132.014-.38.029-.247.045-.616.13-1.082.135-.937.429-2.284.991-3.887 1.092-3.188 3.531-7.437 7.683-10.624 4.154-3.181 8.89-4.433 12.252-4.659 1.694-.126 3.071-.06 4.011.053.472.039.833.12 1.079.156.247.041.374.07.372.083z"/></g><g><path style="fill:#fff" d="M557.154 91.537c-.102-.022.03-1.022.295-2.233s.562-2.175.664-2.152c.102.022-.03 1.022-.295 2.233-.264 1.21-.562 2.174-.664 2.152z"/></g></g></g><g><path style="fill:#455a64" d="m60.422 413.598-17.975 24.413 30.259 22.519c1.974-3.023-9.362-20.476-9.362-20.476l12.158-15.169-15.08-11.287z"/><path style="fill:#fff" d="M54.964 431.78c-.705-.276-1.599.082-1.904.774-.304.693.051 1.606.751 1.894.7.288 1.787-.108 2.012-.831.225-.723-.251-1.772-1-1.883"/><path style="fill:#263238" d="m42.407 438.06 1.913-2.623 28.271 22.764s.901 1.595.037 2.424L42.407 438.06zM63.95 440.265c-.115.144-.903-.339-1.984-.405-1.079-.094-1.93.267-2.022.107-.115-.13.763-.849 2.07-.747 1.306.092 2.069.933 1.936 1.045zM66.147 443.939c-.073.169-.9-.056-1.867.195-.974.223-1.604.805-1.746.689-.156-.08.386-1.022 1.594-1.311 1.205-.301 2.12.284 2.019.427zM65.122 449.079c-.158-.068.186-.96 1.168-1.487.978-.534 1.913-.335 1.883-.165-.007.184-.779.284-1.578.729-.809.426-1.315 1.018-1.473.923zM66.337 436.5c-.162.089-.688-.62-1.566-1.185-.866-.583-1.725-.786-1.707-.97-.006-.171 1.035-.245 2.06.434 1.029.673 1.372 1.659 1.213 1.721z"/><g><path style="fill:#263238" d="M133.576 311.456c.548 3.061 1.399 29.092 1.95 42.819.551 13.728-.82 20.489-2.388 23.562-1.569 3.073-60.782 46.715-65.289 57.164l-14.957-12.089s21.957-39.498 31.382-46.669c9.425-7.171 27.421-13.773 27.421-13.773l-5.122-75.195 24.587-1.34 2.416 25.521z"/></g><g><path style="fill:#455a64" d="m78.55 437.728-.262 30.315 37.715.519c-.171-3.606-19.583-11.108-19.583-11.108l.965-19.417-18.835-.309z"/><path style="fill:#fff" d="M84.78 455.66c-.733.189-1.248 1.003-1.089 1.743.159.74.982 1.271 1.718 1.095.735-.177 1.385-1.134 1.143-1.852-.241-.717-1.242-1.288-1.913-.94"/><path style="fill:#263238" d="m78.283 468.107.013-3.246 36.248 1.883s1.664.765 1.45 1.943l-37.711-.58zM97.033 457.272c-.009.184-.931.255-1.845.835-.93.556-1.407 1.347-1.576 1.272-.169-.038.121-1.135 1.24-1.818 1.113-.693 2.223-.458 2.181-.289zM100.966 458.962c.04.179-.762.481-1.398 1.252-.659.752-.828 1.592-1.011 1.581-.173.027-.286-1.054.523-1.997.8-.949 1.885-1.012 1.886-.836zM103.148 463.728c-.168.037-.412-.887.075-1.889.48-1.006 1.354-1.392 1.43-1.237.102.153-.465.686-.852 1.515-.406.819-.47 1.595-.653 1.611zM96.762 452.822c-.08.167-.921-.099-1.963-.043-1.043.035-1.858.373-1.952.214-.105-.135.695-.805 1.924-.855 1.227-.057 2.083.541 1.991.684z"/><g><path style="fill:#263238" d="M136.3 282.827c0 1.775 2.868 46.578-11.777 78.974 0 0-5.074 10.136-5.962 14.573-.888 4.438-19.879 77.904-19.879 77.904l-21.898-.799s-3.506-36.813.044-58.115 10.033-18.816 10.033-32.574-3.268-42.29-3.268-42.29-4.784-7.795-6.414-22.9c-1.325-12.274 4.448-25.419 4.448-25.419l5.715-10.113 48.308-2.532.65 23.291z"/></g><g><path style="fill:#455a64" d="M136.3 282.827s.006-.516-.012-1.524l-.095-4.48-.426-17.288-.003-.119-.119.006-48.312 2.455-.105.005-.052.092-5.726 10.107-.006.011-.004.008a65.04 65.04 0 0 0-3.443 11.082c-.859 3.887-1.336 7.986-1.206 12.187.267 4.195.95 8.431 1.966 12.693 1.061 4.245 2.414 8.534 4.63 12.565l-.034-.099a801.961 801.961 0 0 1 2.245 23.152c.321 3.979.606 8.016.803 12.107.1 2.045.173 4.104.189 6.173.036 1.038-.041 2.065-.06 3.102-.107 1.027-.158 2.068-.384 3.081-.361 2.044-1.097 4.006-2.073 5.872-.97 1.87-2.058 3.72-2.97 5.674-1.86 3.899-3.063 8.115-3.934 12.402-1.744 8.602-2.096 17.542-2.193 26.544-.038 11.896.563 23.57 1.543 34.868l.02.231.234.009 21.898.794.209.008.052-.202c6.344-24.611 12.266-47.611 17.483-68.293l1.898-7.654c.321-1.267.534-2.53.924-3.726a52.902 52.902 0 0 1 1.29-3.549c.938-2.32 1.95-4.569 2.983-6.761l.782-1.631c.272-.533.528-1.081.74-1.64l1.345-3.287c3.453-8.727 5.486-17.2 6.916-24.934 2.802-15.508 3.173-28.127 3.302-36.735.055-8.625-.295-13.306-.295-13.306s-.005.293.007.868l.066 2.554c.062 2.248.095 5.576.043 9.884-.185 8.6-.608 21.206-3.45 36.677-1.448 7.713-3.499 16.164-6.956 24.845l-1.344 3.267a16.381 16.381 0 0 1-.739 1.63l-.787 1.634a132.012 132.012 0 0 0-3.005 6.778 52.881 52.881 0 0 0-1.307 3.579c-.402 1.23-.62 2.51-.938 3.752l-1.909 7.646-17.551 68.273.261-.194-21.897-.805.254.24c-.974-11.275-1.573-22.944-1.535-34.815.097-8.985.448-17.898 2.179-26.441.865-4.263 2.055-8.434 3.89-12.284.901-1.932 1.978-3.764 2.96-5.66.989-1.891 1.751-3.923 2.119-6.015.23-1.04.282-2.098.39-3.145.019-1.049.095-2.101.059-3.138-.017-2.08-.092-4.145-.193-6.194a376.938 376.938 0 0 0-.813-12.123 794.429 794.429 0 0 0-2.269-23.166l-.005-.047-.029-.053c-2.165-3.928-3.535-8.218-4.588-12.424-1.015-4.224-1.701-8.463-1.971-12.6-.134-4.15.33-8.216 1.178-12.077a64.636 64.636 0 0 1 3.397-11.008l-.009.018 5.704-10.119-.157.097 48.304-2.608-.122-.113.538 17.284.155 4.479c.035 1.008.07 1.524.07 1.524z"/></g></g><g><path style="fill:#455a64" d="M120.589 191.069s-13.046-2.302-11.786 14.431c.755 10.019 3.696 27.157 5.326 38.115.563 3.786 1.799 10.569 6.808 14.549l35.9 24.846 11.33-13.546-32.056-30.537-5.038-30.199-10.484-17.659z"/><path style="fill:#263238" d="M122.116 130.774c4.143 3.264 6.508 8.659 6.1 13.918-.198 2.554-.902 5.47.759 7.42 1.645 1.93 4.875 1.875 6.452 3.861 1.856 2.339.302 5.819.966 8.73.624 2.732 3.506 4.746 6.286 4.392a23.055 23.055 0 0 1-11.436 4.962l-3.2-4.108c1.213 1.438.891 3.73-.284 5.2-1.175 1.469-2.988 2.27-4.781 2.839-8.567 2.717-18.386 1.121-25.651-4.169"/><path style="fill:#263238" d="M74.092 153.344c.64-1.958 1.714-3.773 2.144-5.788.925-4.33-1.184-9.204.916-13.102 1.495-2.775 4.681-4.133 7.693-5.061 3.012-.927 6.245-1.714 8.491-3.925 1.647-1.621 2.585-3.854 4.226-5.481 2.34-2.319 5.794-3.104 9.082-3.306 3.376-.207 6.867.117 9.904 1.607 3.036 1.49 5.558 4.288 6.099 7.627.264 1.628.064 3.334.577 4.902.564 1.723 1.918 3.064 2.753 4.675 1.764 3.402.808 7.984-2.169 10.398l-23.18 29.941c-4.869 1.839-16.668-.385-20.431-3.981-3.763-3.597-7.721-13.558-6.105-18.506z"/><path style="fill:#ffbf9d" d="M123.196 142.086c-.955-6.798-6.125-14.831-12.876-13.588l-20.84 7.005c-2.051.378-.583 3.722-.382 5.798l4.531 46.998c-.034.01-2.815 2.01-3.82 1.624-.261-.1-.495.193-.337.423 2.503 3.634 14.317 19.521 26.493 14.671 2.72-1.084-.284-9.654.034-12.83l-.362-8.112c-.27-4.141-.4-5.838-.395-5.799 0 0 8.615-2.12 9.548-13.645.466-5.73-.532-14.992-1.594-22.545z"/><path style="fill:#263238" d="M121.745 152.549c.087.769-.493 1.476-1.295 1.581-.8.105-1.52-.431-1.606-1.201-.086-.769.493-1.477 1.293-1.582.802-.105 1.522.433 1.608 1.202zM107.554 153.438c.087.769-.493 1.477-1.295 1.581-.8.105-1.52-.432-1.606-1.201-.086-.769.493-1.477 1.293-1.582.801-.105 1.521.433 1.608 1.202zM122.269 147.734c-.159.268-1.518-.592-3.218-.344-1.703.219-2.793 1.414-3.015 1.198-.108-.094.024-.555.496-1.093.463-.534 1.306-1.109 2.367-1.256 1.061-.144 2.023.182 2.608.573.596.392.841.801.762.922zM106.994 148.995c-.201.246-1.538-.724-3.367-.646-1.829.05-3.127 1.112-3.336.88-.102-.103.09-.54.657-1.019.555-.478 1.516-.958 2.657-.999 1.141-.039 2.12.373 2.693.812.582.439.794.861.696.972zM112.728 159.766c-.014-.089.95-.333 2.517-.657.398-.072.772-.181.818-.46.072-.297-.129-.716-.359-1.169l-1.421-2.964c-1.982-4.223-3.45-7.709-3.279-7.787.171-.079 1.916 3.281 3.898 7.505l1.373 2.986c.187.444.488.941.329 1.559-.085.308-.363.548-.615.637-.251.098-.477.12-.674.147-1.586.209-2.573.292-2.587.203z"/><path style="fill:#ff9a6c" d="M115.243 178.277s-7.622 1.083-15.561-2.896c0 0 4.447 7.696 15.761 5.755l-.2-2.859zM107.935 164.352c.213-.365.441-.746.806-.959.402-.234.902-.223 1.36-.137.666.125 1.323.406 1.78.906.457.5.68 1.244.449 1.881-.176.657-1.157 1.017-1.827 1.135-.67.118-1.365-.078-1.958-.412-.498-.28-.976-.727-1.002-1.297-.018-.4.19-.771.392-1.117z"/><path style="fill:#263238" d="M108.257 162.14c.254-.034.389 1.671 1.942 2.769 1.55 1.103 3.354.771 3.386 1.009.032.105-.38.363-1.145.442a4.262 4.262 0 0 1-2.819-.745c-.948-.674-1.407-1.635-1.519-2.33-.12-.709.038-1.146.155-1.145zM106.856 142.845c-.122.439-1.706.357-3.533.721-1.834.327-3.279.981-3.553.617-.123-.175.105-.597.674-1.057.564-.458 1.485-.924 2.582-1.133 1.097-.206 2.124-.108 2.816.113.698.222 1.065.531 1.014.739zM121.3 141.984c-.288.381-1.554.106-3.043.203-1.492.051-2.729.451-3.048.1-.141-.171.03-.544.554-.924.517-.378 1.402-.723 2.427-.775 1.024-.05 1.935.205 2.48.531.555.326.756.68.63.865z"/><path style="fill:#263238" d="M84.871 137.141c1.051-1.618 2.941-2.451 4.741-3.145a104.91 104.91 0 0 1 24.137-6.147c1.028 1.694.078 3.999-1.473 5.232-1.55 1.233-3.543 1.72-5.399 2.414-1.856.694-3.758 1.763-4.523 3.591-.813 1.944-.127 4.247-.841 6.229-1.229 3.411-5.989 4.511-7.198 7.928-.915 2.585.582 5.337.957 8.053.424 3.078-.716 6.332-2.968 8.472-1.776 1.688-4.208 2.635-6.654 2.682l-1.694-29.362c-.118-2.038-.196-4.234.915-5.947z"/><path style="fill:#263238" d="M65.154 161.866c1.546-1.385 3.484-2.584 4.1-4.566.897-2.887-1.421-6.28.072-8.909 1.362-2.398 5.374-2.277 6.64-4.726.989-1.913-.147-3.606.229-5.287.376-1.68 2.761-3.154 4.47-2.953l13.366 19.372c1.242 6.498 2.49 9.958 1.095 13.759-.765 2.085-1.763 4.118-2.063 6.319-.3 2.201.263 4.695 2.062 5.996-7.991.626-15.481-3.556-22.402-7.6l-7.325-4.28c-.762-.446-1.556-.921-2.013-1.677-1.073-1.776.223-4.063 1.769-5.448z"/><path style="fill:#455a64" d="M72.523 171.313s.284.106.854.164a7.283 7.283 0 0 0 2.489-.176 7.707 7.707 0 0 0 3.472-1.869c1.142-1.058 2.062-2.709 2.286-4.671a7.814 7.814 0 0 0-.262-3.065c-.308-1.042-.886-2.009-1.484-2.97-.59-.963-1.234-1.951-1.531-3.082-.294-1.111-.296-2.432.428-3.389.727-.974 2.078-1.212 3.33-1.717.631-.252 1.282-.643 1.704-1.262.422-.617.564-1.377.55-2.096-.017-1.463-.641-2.801-.909-4.163-.137-.682-.186-1.388-.013-2.041a2.85 2.85 0 0 1 1.153-1.621c1.154-.824 2.626-.955 4.043-1.08 1.425-.102 2.915-.424 4.119-1.212a7.758 7.758 0 0 0 2.819-3.056c.62-1.241.844-2.573 1.041-3.83.193-1.261.366-2.487.783-3.593.418-1.101 1.091-2.056 1.88-2.833 1.612-1.534 3.647-2.35 5.529-2.504 1.894-.16 3.613.342 4.95 1.031a10.947 10.947 0 0 1 3.078 2.344c1.441 1.597 1.843 2.765 1.903 2.727.007-.003-.019-.073-.076-.207-.062-.132-.137-.338-.277-.586-.259-.507-.703-1.231-1.415-2.054a10.885 10.885 0 0 0-3.093-2.455c-1.359-.728-3.123-1.273-5.096-1.128-1.955.139-4.074.963-5.771 2.553-.83.806-1.547 1.806-1.995 2.966-.445 1.16-.626 2.417-.825 3.671-.2 1.252-.428 2.537-1.013 3.696a7.323 7.323 0 0 1-2.663 2.869c-1.144.739-2.5 1.033-3.923 1.138-1.402.126-2.978.245-4.269 1.162a3.318 3.318 0 0 0-1.332 1.881c-.199.758-.135 1.533.008 2.25.293 1.442.895 2.737.907 4.082.014.661-.115 1.316-.466 1.833-.352.517-.903.863-1.503 1.105-.597.252-1.239.425-1.858.687-.615.253-1.232.624-1.643 1.181-.836 1.131-.797 2.575-.482 3.753.331 1.217 1.005 2.223 1.599 3.181.605.955 1.168 1.887 1.468 2.87.299.983.372 1.986.278 2.925-.194 1.885-1.056 3.483-2.139 4.519a7.634 7.634 0 0 1-3.337 1.881c-2.087.533-3.302.107-3.296.191z"/><path style="fill:#263238" d="M61.863 157.541s-.16.196-.264.653c-.105.449-.092 1.191.343 1.982.224.385.551.785 1.023 1.075a3.187 3.187 0 0 0 1.707.455c1.272.014 2.771-.753 3.5-2.223a5.36 5.36 0 0 0 .57-2.436c-.001-.882-.228-1.777-.562-2.641-.634-1.729-1.785-3.414-1.81-5.436-.022-.979.208-2.043.927-2.747.712-.722 1.812-.898 2.905-.907 1.095-.037 2.289.103 3.46-.359a3.006 3.006 0 0 0 1.423-1.198c.335-.537.51-1.15.584-1.763.147-1.246-.144-2.425-.289-3.553a7.812 7.812 0 0 1 .185-3.293c.587-2.102 1.995-3.868 3.72-4.881 1.732-1.045 3.736-1.157 5.542-1.266 1.818-.096 3.574-.21 5.059-.798a10.528 10.528 0 0 0 3.581-2.253 10.442 10.442 0 0 0 1.962-2.519c.847-1.548.951-2.536.951-2.536-.056-.021-.227.953-1.108 2.445a10.65 10.65 0 0 1-1.982 2.419 10.408 10.408 0 0 1-3.517 2.134c-1.438.547-3.141.642-4.966.721-1.805.094-3.884.183-5.738 1.281-1.828 1.062-3.314 2.908-3.942 5.129a8.27 8.27 0 0 0-.205 3.477c.151 1.156.424 2.305.286 3.437-.114 1.126-.697 2.199-1.722 2.589-1.009.408-2.17.297-3.293.331-1.109.012-2.368.193-3.209 1.048-.841.838-1.07 2.027-1.043 3.073.021 1.066.337 2.081.732 2.977.387.906.819 1.747 1.148 2.587.332.837.553 1.683.563 2.505a5.019 5.019 0 0 1-.504 2.284c-.658 1.372-2.024 2.096-3.212 2.112a2.969 2.969 0 0 1-1.588-.385 2.89 2.89 0 0 1-.981-.977c-.434-.733-.479-1.437-.407-1.874.069-.445.195-.659.171-.669zM146.089 162.315c-.074-.005.433.766-.026 2.09-.23.622-.751 1.381-1.661 1.685-.885.303-2.118.069-2.933-.801-.408-.427-.645-1.023-.687-1.674-.043-.65.086-1.339.306-2.023.425-1.353 1.29-2.825 1.158-4.589-.096-1.711-.964-3.461-2.431-4.619a7.577 7.577 0 0 0-2.491-1.312c-.917-.295-1.896-.361-2.846-.409-.954-.049-1.892-.075-2.763-.289-.866-.208-1.652-.651-2.151-1.337-.5-.683-.72-1.533-.778-2.365-.06-.839.042-1.663.207-2.465.327-1.597.806-3.149.717-4.676a7.088 7.088 0 0 0-1.428-3.883c-.773-1.037-1.773-1.671-2.604-2.2-.843-.528-1.561-.984-2.082-1.439-1.068-.902-1.252-1.719-1.31-1.683-.007.003.004.05.034.14.035.088.068.229.16.392.157.337.471.806.995 1.286.516.488 1.235.975 2.061 1.522.821.551 1.766 1.182 2.482 2.179a6.795 6.795 0 0 1 1.306 3.704c.07 1.438-.403 2.944-.751 4.572-.174.815-.29 1.689-.23 2.581.058.886.286 1.822.853 2.605.565.787 1.473 1.294 2.407 1.516.94.231 1.902.254 2.852.304.95.048 1.874.111 2.733.387a7.141 7.141 0 0 1 2.342 1.225c1.373 1.076 2.186 2.7 2.288 4.29.141 1.613-.66 3.025-1.098 4.447-.221.716-.353 1.45-.296 2.166.052.712.336 1.399.806 1.872.932.957 2.28 1.179 3.258.822 1.004-.366 1.529-1.205 1.748-1.871a2.942 2.942 0 0 0 .077-1.627c-.102-.363-.224-.523-.224-.523z"/><g><path style="fill:#455a64" d="M136.527 240.644v-11.067c1.238-6.204.651-13.564-2.234-19.238-1.682-3.308-5.536-8.579-6.941-10.553l-11.016-14.285c-6.058 4.411-15.544 1.223-23.683-1.741 0 0-8.041 4.448-11.782 8.633-3.928 4.396 9.505 59.447 9.505 59.447-6.088 12.179-13.945 22.971-15.137 34.095l63.6 2.451-2.704-29.161.392-18.581z"/></g><g><path style="fill:#263238" d="M135.651 259.537c-.036-.002-.051-.445-.049-1.246l.038-3.389.183-11.179c.083-4.368.197-8.322.336-11.182.067-1.43.139-2.587.204-3.386.065-.799.118-1.239.154-1.237.036.002.051.445.049 1.246l-.038 3.389-.183 11.181c-.083 4.366-.197 8.32-.336 11.181-.067 1.43-.139 2.587-.204 3.386s-.118 1.238-.154 1.236z"/></g></g><g><path style="fill:#ffbf9d" d="M164.701 269.6s6.194.336 10.038 2.741c3.844 2.406 10.006 6.136 12.552 10.773 1.169 2.128-2.163 2.579-3.808 1.342s-4.163-3.563-5.413-3.849l-1.25-.286s2.511 5.591 3.807 7.555c1.296 1.964 2.416 5.322-1.462 5.475 0 0-2.616 3.4-5.256.881 0 0-2.061 3.085-5.381-1.193 0 0-1.933 2.446-2.74 1.514-.807-.932-3.449-2.423-4.221-5.479-.772-3.056-4.015-10.49-4.015-10.49l7.149-8.984z"/></g><g><path style="fill:#ffbf9d" d="M303.509 183.664c.694.009 29.085-2.981 29.085-2.981s2.403-11.545 2.276-14.545c-.127-3-2.152-22.85-2.152-22.85l10.634-5.03s14.211 47.921 11.104 51.906-8.929 7.544-9.429 7.565c-.5.021-27.506 11.988-46.302 5.769-18.796-6.219 4.784-19.834 4.784-19.834z"/><path style="fill:#455a64" d="M278.631 209.532c4.183 4.146 11.383 7.595 23.394 4.596 23.765-5.934 41.571-10.955 48.656-14.801 7.085-3.845 4.32-20.78 4.916-21.549 1.796-2.317-.174-7.302-2.73-8.076-7.266-2.201-19.922-1.334-20.555-.67-3.734 3.915-.328 8.68-.328 8.68l-31.333 4.104s-5.45-.371-11.511.737"/><path style="fill:#263238" d="M289.14 182.553s.253-.066.752-.162c.498-.096 1.242-.22 2.219-.344a51.14 51.14 0 0 1 8.548-.358l-.025.001 31.321-4.198-.151.348c-.965-1.483-1.584-3.267-1.442-5.146.066-.935.396-1.855.897-2.662.227-.424.564-.767.864-1.14.1-.085.284-.177.408-.22l.358-.089c.24-.063.471-.084.707-.128 3.755-.481 7.664-.499 11.684-.246 2.008.141 4.046.382 6.078.838.507.116 1.01.263 1.518.393.53.171 1.035.459 1.434.835.817.743 1.372 1.708 1.766 2.721.38 1.02.563 2.137.414 3.258-.109.553-.274 1.118-.629 1.592-.093.098-.081.372-.094.632l.009.797c.075 2.149.174 4.339.118 6.546-.094 3.141-.369 6.306-1.49 9.223-.561 1.44-1.38 2.838-2.605 3.826-.601.52-1.312.844-1.975 1.177-.666.354-1.362.626-2.036.94-2.733 1.173-5.487 2.127-8.193 3.025-2.707.896-5.376 1.71-7.987 2.475-10.452 3.043-19.958 5.428-27.94 7.418-1.988.514-3.92.93-5.76 1.197-1.847.217-3.603.368-5.246.279-3.288-.094-6.075-.849-8.185-1.777a18.933 18.933 0 0 1-4.5-2.801c-.932-.779-1.343-1.271-1.343-1.271.025-.027.461.441 1.41 1.19.944.747 2.409 1.79 4.514 2.697 2.101.889 4.861 1.607 8.114 1.672 1.625.075 3.363-.089 5.191-.316 1.826-.279 3.725-.699 5.717-1.226 7.969-2.035 17.463-4.456 27.894-7.521 2.606-.77 5.269-1.588 7.966-2.487 2.696-.9 5.441-1.855 8.148-3.021.666-.311 1.357-.583 2.01-.931.667-.336 1.336-.642 1.877-1.117 1.128-.91 1.909-2.227 2.448-3.617 1.082-2.812 1.361-5.937 1.452-9.046.056-2.188-.042-4.355-.117-6.519l-.009-.82c.001-.138.008-.279.021-.426.015-.085.012-.141.044-.249.021-.06.048-.119.078-.173l.049-.08c.297-.392.44-.88.538-1.368.133-.999-.029-2.044-.386-2.999-.366-.948-.893-1.855-1.626-2.52a3.31 3.31 0 0 0-1.238-.726c-.497-.128-.987-.272-1.485-.386-1.993-.45-4.01-.692-6.001-.835-3.978-.258-7.892-.245-11.576.217-.224.041-.461.063-.672.12l-.321.078c-.089.041-.127.044-.208.093-.28.35-.599.67-.808 1.062-.466.747-.774 1.59-.837 2.456-.144 1.73.448 3.464 1.344 4.849l.197.304-.348.044-31.345 4.01-.012.001-.014-.001c-3.672-.19-6.565.041-8.516.238-.977.102-1.723.205-2.224.278-.502.075-.763.096-.763.096z"/></g><g><path style="fill:#ff725e" d="m449.223 62.523 1.095 1.966c3.216 5.778 1.139 13.069-4.638 16.285L204.314 215.125l-12.741-22.889L432.939 57.885c5.778-3.216 13.068-1.14 16.284 4.638z"/><path style="fill:#ff725e" d="m394.619 31.042 29.557 53.099-17.473 9.726-29.557-53.1a2.237 2.237 0 0 1 .866-3.042l13.564-7.55a2.237 2.237 0 0 1 3.043.867zM366.034 59.421l21.535 38.689a3.244 3.244 0 0 1-1.257 4.412l-11.804 6.571a3.244 3.244 0 0 1-4.412-1.257l-21.535-38.689a3.244 3.244 0 0 1 1.257-4.412l11.804-6.571a3.244 3.244 0 0 1 4.412 1.257z"/><path transform="scale(-1) rotate(60.898 121.303 -659.692)" style="fill:#ff725e" d="M374.109 55.78h27.417v31.057h-27.417z"/><path style="fill:#263238" d="M429.391 59.858c.07.126-47.297 26.625-105.785 59.181-58.507 32.567-105.978 58.857-106.048 58.731-.07-.126 47.287-26.619 105.795-59.186 58.487-32.556 105.968-58.852 106.038-58.726z"/><path style="fill:#ff725e" d="M106.564 259.41c17.792 31.964 55.325 45.013 83.831 29.146s37.192-54.643 19.4-86.607-55.325-45.013-83.831-29.146c-28.507 15.867-37.192 54.642-19.4 86.607zm87.784-48.863c12.467 22.398 6.381 49.569-13.594 60.688s-46.275 1.975-58.743-20.423c-12.467-22.398-6.381-49.569 13.594-60.688s46.275-1.975 58.743 20.423zM244.635 162.361l13.172 23.665a6.517 6.517 0 0 1-2.525 8.864l-1.07.596a6.517 6.517 0 0 1-8.864-2.525l-13.173-23.665a6.517 6.517 0 0 1 2.525-8.864l1.07-.596a6.518 6.518 0 0 1 8.865 2.525zM269.931 148.28l13.173 23.665a6.517 6.517 0 0 1-2.525 8.864l-1.07.596a6.517 6.517 0 0 1-8.864-2.525l-13.173-23.665a6.517 6.517 0 0 1 2.525-8.864l1.07-.596a6.518 6.518 0 0 1 8.864 2.525z"/><path style="fill:#263238" d="M244.36 161.952c.126-.069 3.184 5.298 6.829 11.985 3.646 6.69 6.499 12.167 6.373 12.236-.126.069-3.184-5.297-6.83-11.986-3.645-6.688-6.499-12.166-6.372-12.235zM232.752 170.254c.126-.07 3.11 5.052 6.665 11.438 3.556 6.389 6.336 11.623 6.211 11.693-.126.07-3.109-5.051-6.666-11.44-3.554-6.386-6.335-11.621-6.21-11.691zM269.812 148.066c.126-.07 3.235 5.276 6.943 11.938 3.71 6.665 6.615 12.123 6.489 12.193-.126.07-3.234-5.275-6.944-11.939-3.709-6.663-6.614-12.122-6.488-12.192zM257.597 155.441c.126-.069 3.169 5.242 6.797 11.86 3.628 6.621 6.467 12.042 6.34 12.112-.126.069-3.169-5.24-6.797-11.861-3.627-6.619-6.466-12.042-6.34-12.111z"/></g><g><path style="fill:#263238" d="M330.131 119.372c2.3.267 4.664-1.418 5.161-3.68.497-2.262-.942-4.783-3.142-5.505 1.434-1.464 1.797-3.868.859-5.691-.937-1.822-3.105-2.924-5.13-2.608-.08-2.022-1.285-3.962-3.06-4.932-1.776-.969-4.06-.933-5.803.093-2.23-1.92-5.833-2-8.146-.179-1.964-.367-4.109.675-5.035 2.446-.926 1.771-.557 4.126.865 5.53"/><path style="fill:#ffbf9d" d="m309.844 101.532 1.038.003c10.451.031 19.125 8.081 19.934 18.501.752 9.691 1.458 20.407 1.379 25.605-.165 10.762-10.935 12.403-10.935 12.403l.871 12.933-26.117-.888-2.168-46.901c-.931-11.178 4.799-21.036 15.998-21.656z"/><path style="fill:#ff9a6c" d="M321.349 158.029s-6.874.393-14.089-4.17c0 0 3.462 8.147 14.204 7.211l-.115-3.041z"/><path style="fill:#263238" d="M324.909 130.145c.026.812-.639 1.503-1.487 1.546-.846.043-1.554-.579-1.58-1.39-.026-.812.639-1.504 1.485-1.547.847-.043 1.555.58 1.582 1.391zM328.486 125.295c-.191.2-1.352-.665-3.007-.666-1.652-.024-2.869.823-3.047.62-.088-.09.107-.451.637-.834.521-.382 1.41-.752 2.44-.744 1.03.009 1.895.391 2.393.78.508.391.679.754.584.844zM309.987 129.433c.026.811-.639 1.503-1.487 1.546-.846.043-1.554-.578-1.58-1.391-.026-.811.64-1.504 1.485-1.547.848-.043 1.556.58 1.582 1.392zM312.229 125.554c-.191.2-1.354-.665-3.007-.666-1.651-.024-2.868.823-3.047.619-.088-.09.105-.451.637-.834.521-.382 1.409-.752 2.44-.744 1.03.009 1.896.391 2.393.78.505.392.677.756.584.845zM318.194 137.837c-.008-.094 1.021-.269 2.688-.477.422-.042.822-.125.894-.413.1-.305-.075-.76-.278-1.253l-1.239-3.22c-1.721-4.584-2.964-8.352-2.779-8.42.186-.067 1.73 3.593 3.45 8.177l1.187 3.238c.158.481.432 1.026.214 1.658-.115.315-.425.544-.696.615-.271.082-.509.086-.717.097-1.678.088-2.718.092-2.724-.002zM313.683 119.195c-.219.419-1.635-.04-3.38-.102-1.743-.101-3.215.223-3.373-.213-.068-.208.243-.583.873-.917.625-.334 1.574-.59 2.62-.542 1.046.05 1.952.393 2.525.783.577.389.832.791.735.991zM328.587 118.475c-.35.375-1.713-.02-3.355-.043-1.64-.071-3.032.243-3.351-.151-.14-.191.08-.567.688-.921.6-.352 1.601-.639 2.729-.607 1.128.033 2.104.377 2.674.763.58.389.77.777.615.959z"/><path style="fill:#263238" d="M329.796 115.098s-2.818-6.749-6.063-8.331c-3.929-1.916-5.636 2.397-9.382 1.338-3.747-1.059-7.497-2.897-11.337-.011-4.204 3.16-2.246 5.392-2.519 10.166-1.109 19.357-4.661 24.821-5.639 15.699-.107-.999-2.877-1.802-3.275-6.024-.516-5.475-.707-12.122.527-16.002 1.04-3.271 2.913-5.527 6.268-8.011 5.296-3.921 12.554-3.983 17.482-3.472 4.926.509 14.413 6.21 13.938 14.648z"/><path style="fill:#ffbf9d" d="M295.542 133.667c-.063-1.661-1.49-2.977-3.146-2.825-2.008.185-4.245 1.318-4.125 5.466.213 7.359 7.557 5.627 7.563 5.416.005-.143-.175-4.978-.292-8.057z"/><path style="fill:#ff9a6c" d="M294.154 139.002c-.033-.023-.126.094-.34.199a1.28 1.28 0 0 1-.958.047c-.786-.262-1.476-1.478-1.55-2.803a4.239 4.239 0 0 1 .306-1.846c.209-.545.546-.931.936-1.012a.653.653 0 0 1 .767.329c.105.203.062.351.102.363.021.018.154-.128.086-.43a.824.824 0 0 0-.303-.453.973.973 0 0 0-.714-.167c-.566.055-1.062.592-1.306 1.179a4.354 4.354 0 0 0-.385 2.064c.09 1.482.889 2.847 1.962 3.124.522.12.949-.048 1.167-.228.222-.188.256-.354.23-.366z"/><g><path style="fill:#263238" d="M295.729 119.412c.954.655 1.961 1.331 3.112 1.448 1.151.118 2.47-.54 2.667-1.68.089-.512-.035-1.107.303-1.501.403-.471 1.144-.321 1.76-.254 2.138.233 4.645-2.122 5.196-4.201.543.818 1.737 1.069 2.565.539.827-.53 1.129-.833 1.778-1.571.648-.738 1.557-1.397 2.529-1.256.544.079 1.052.404 1.599.357.967-.083 1.442-1.213 1.591-2.172.149-.958.266-2.077 1.086-2.596.76-.481 1.742-.199 2.631-.065.889.134 2.038-.072 2.268-.941.121-.456-.073-.937-.325-1.336-1.14-1.807-3.636-2.616-5.62-1.821-.712-2.433-2.98-4.333-5.501-4.606-2.521-.274-5.144 1.094-6.362 3.318-1.551-1.416-3.809-2.015-5.857-1.554-2.049.461-3.832 1.969-4.628 3.912-1.789-.476-3.831.21-4.969 1.669-1.138 1.459-1.306 3.607-.409 5.226-1.325.752-2.461 2.062-2.493 3.585-.032 1.523 1.447 3.045 2.918 2.649-.597 1.184-.119 2.795 1.028 3.461 1.147.666 2.783.283 3.515-.823"/></g><g><path style="fill:#455a64" d="M319.411 104.532c.006 0 .005.046-.002.135-.01.088-.016.222-.048.393-.069.34-.207.842-.539 1.416a5.273 5.273 0 0 1-1.637 1.735 4.9 4.9 0 0 1-3.016.85l.125-.163c.227.63.162 1.385-.154 2.031-.299.657-.768 1.239-1.265 1.806-.254.272-.475.592-.826.842-.341.24-.749.378-1.167.429-.83.104-1.766-.156-2.366-.856l.275-.078c-.192 1.462-1.028 2.923-2.352 3.811-.701.503-1.567.81-2.419.784-.852-.011-1.642-.263-2.379-.53l.197-.086a5.802 5.802 0 0 1-1.748 2.266c-.726.573-1.693.907-2.565.69-1.735-.373-2.883-1.821-3.111-3.181l.166.078c-.863.467-1.788.509-2.529.364a4.114 4.114 0 0 1-1.761-.792 3.554 3.554 0 0 1-.819-.902c-.137-.243-.194-.377-.185-.381.037-.03.242.56 1.079 1.184.418.298.994.598 1.718.715.714.124 1.59.063 2.387-.384l.138-.078.029.156c.229 1.269 1.335 2.621 2.944 2.948.791.188 1.641-.111 2.329-.653a5.529 5.529 0 0 0 1.643-2.15l.059-.136.139.05c.725.26 1.489.497 2.276.505.788.019 1.565-.253 2.233-.73 1.251-.84 2.036-2.207 2.224-3.592l.047-.348.229.27c.506.599 1.343.847 2.089.755a2.28 2.28 0 0 0 1.035-.372c.29-.198.521-.514.779-.789.496-.557.952-1.117 1.237-1.728.3-.604.359-1.268.165-1.838l-.059-.176.185.013c1.122.079 2.138-.28 2.89-.77a5.23 5.23 0 0 0 1.626-1.641c.671-1.11.652-1.889.704-1.872z"/></g><g><path style="fill:#263238" d="M318.165 143.333c-.051-.273-1.846.17-3.502-1.049-1.659-1.216-1.933-3.179-2.187-3.131-.119.003-.243.513-.064 1.326.17.799.712 1.892 1.724 2.639 1.014.743 2.157.887 2.908.765.767-.119 1.162-.43 1.121-.55z"/></g><g><path style="fill:#455a64" d="m373.626 423.116 7.105 24.194s26.978.904 28.726 5.247l-46.417 15.46-12.616-37.243 23.202-7.658z"/><path style="fill:#e0e0e0" d="M365.708 450.079c-.817.545-1.101 1.761-.59 2.6.51.838 1.745 1.138 2.572.607.826-.53 1.212-1.98.61-2.756-.601-.776-2.07-1.048-2.745-.335"/><path style="fill:#263238" d="M406.84 450.813s2.366.211 2.617 1.744l-46.417 15.46-1.125-3.804 44.925-13.4"/><path style="fill:#fff" d="M381.404 446.823c.068.229-1.031.709-1.904 1.809-.901 1.078-1.149 2.251-1.388 2.23-.224.026-.337-1.442.743-2.755 1.069-1.323 2.529-1.508 2.549-1.284zM386.943 447.215c.125.202-.728.915-1.179 2.13-.486 1.202-.335 2.303-.564 2.368-.201.107-.8-1.168-.211-2.668.576-1.506 1.877-2.045 1.954-1.83zM391.649 452.121c-.19.117-.882-.91-.714-2.345.158-1.437 1.064-2.282 1.223-2.125.19.144-.276 1.039-.396 2.219-.149 1.176.105 2.153-.113 2.251zM379.173 441.488c-.026.238-1.17.272-2.422.786-1.263.488-2.116 1.25-2.299 1.095-.186-.12.508-1.284 1.992-1.868 1.478-.595 2.781-.227 2.729-.013z"/><g><path style="fill:#455a64" d="m265.29 423.328-10.107 23.102s20.087 18.032 18.635 22.483l-45.496-17.988 14.271-36.641 22.697 9.044z"/><path style="fill:#e0e0e0" d="M241.895 438.896c-.976-.107-1.975.642-2.123 1.613-.147.97.606 1.994 1.58 2.118.973.125 2.201-.738 2.239-1.719.038-.981-.913-2.134-1.888-2.021"/><path style="fill:#263238" d="M272.935 465.894s1.677 1.682.884 3.018l-45.496-17.988 1.583-3.637 43.029 18.607"/><path style="fill:#fff" d="M256.012 446.489c-.095.219-1.246-.119-2.621.163-1.383.246-2.327.986-2.497.817-.188-.124.669-1.321 2.34-1.633 1.669-.328 2.907.469 2.778.653zM260.004 450.35c-.034.235-1.146.233-2.272.874-1.145.608-1.737 1.549-1.954 1.452-.223-.047.138-1.409 1.553-2.18 1.408-.784 2.752-.36 2.673-.146zM260.456 457.133c-.22-.033-.091-1.265.961-2.256 1.045-.999 2.282-1.065 2.302-.842.053.233-.879.618-1.73 1.445-.869.806-1.303 1.718-1.533 1.653zM257.732 440.969c-.173.166-1.071-.544-2.361-.955-1.281-.438-2.425-.403-2.465-.639-.065-.212 1.214-.657 2.726-.151 1.515.494 2.278 1.614 2.1 1.745z"/></g><g><path style="fill:#263238" d="m282.325 296.428-15.943 64.659s-28.753 48.403-33.619 72.619l26.302 10.345s19.127-46.649 24.736-55.211a68.507 68.507 0 0 1 8.662-10.667c2.092-2.099 3.614-4.697 4.364-7.564l12.07-46.133-26.572-28.048z"/></g><g><path style="fill:#263238" d="M275.534 286.095s2.217 17.311 18.882 24.987l35.121 57.198s2.758 18.597 8.058 34.274c5.26 15.559 15.855 45.864 15.855 45.864l28.889-10.797-18.411-62.944-3.013-21.829-28.664-72.953-24.619-14.762-32.098 20.962z"/><path style="fill:#455a64" d="M275.534 286.095s.172-.126.527-.365l1.593-1.061 6.238-4.117 23.661-15.541.076-.05.078.047 24.639 14.728.054.032.023.059 28.719 72.931.011.027.004.029 3.021 21.828-.008-.036 15.785 53.935 2.634 9.007.068.232-.227.085-28.89 10.793-.246.092-.085-.247-14.412-41.735c-1.149-3.309-2.28-6.586-3.22-9.869a207.91 207.91 0 0 1-2.555-9.755 253.287 253.287 0 0 1-3.699-18.832l.03.081-35.051-57.241.058.051a32.769 32.769 0 0 1-11.034-8.385c-2.629-3.082-4.284-6.127-5.394-8.655a35.335 35.335 0 0 1-2.006-5.96 20.503 20.503 0 0 1-.321-1.573c-.06-.351-.071-.535-.071-.535l.106.53c.072.351.175.878.356 1.562a36.76 36.76 0 0 0 2.065 5.92c1.126 2.509 2.793 5.528 5.421 8.577a32.636 32.636 0 0 0 10.989 8.276l.037.017.021.035 35.191 57.155.023.037.007.045a253.616 253.616 0 0 0 3.718 18.789c.767 3.212 1.611 6.46 2.56 9.728.941 3.272 2.07 6.534 3.224 9.847l14.439 41.72-.331-.155 28.887-10.8-.159.317-2.635-9.007-15.769-53.94-.005-.018-.003-.018-3.004-21.83.014.056-28.61-72.974.077.091-24.598-14.796.154-.003-23.69 15.382-6.297 4.069-1.628 1.042c-.364.231-.56.346-.56.346z"/></g><g><path style="fill:#455a64" d="M290.957 162.52s-8.416 6.484-12.509 13.721c-4.901 8.665-5.428 21.523-5.582 41.477-.143 18.466 2.618 23.593 1.551 30.549-2.085 13.592-3.636 59.205-3.636 59.205s26.968-10.371 32.238-14.952l5.27-4.581 33.788 11.166-6.819-41.516-4.676-51.752-5.991-27.451-1.047-10.768-28.948-11.711-3.639 6.613z"/></g><g><path style="fill:#263238" d="M322.532 167.031c.353.065-.833 2.434-2.916 5.914l-.085.142-.159-.062c-2.935-1.136-6.812-2.568-11.052-4.114-4.782-1.743-9.1-3.361-12.191-4.622a111.887 111.887 0 0 1-3.638-1.545c-.85-.386-1.313-.616-1.299-.649.014-.033.503.133 1.376.461l3.695 1.39 12.236 4.476c4.242 1.547 8.109 3.024 11.022 4.233l-.243.08c2.162-3.43 3.451-5.683 3.254-5.704z"/></g></g><g><path style="fill:#ffbf9d" d="M357.446 145.435s-2.135-3.327-4.161-6.399c-2.025-3.072-5.075-4.572-5.564-6.181-.488-1.609-3.182-8.721-3.613-10.493-.602-2.478-.516-5.219-.516-5.219s2.207-.947 3.27 2.218c.638 1.9 2.674 8.351 3.113 8.667.439.317 1.048-.147 1.048-.147s-2.259-6.205-2.357-7.375c-.098-1.17.313-8.925.313-8.925s1.609-.489 2.659 1.486c1.05 1.975 1.089 7.01 1.089 7.01l1.588 5.583-.551-5.523.8-10.144s2.524.23 3.196 2.973c.672 2.743-.216 6.56.235 7.376.452.817.935 5.712.935 5.712s.549-11.906 1.817-12.248c1.268-.342 2.317.925 2.135 3.327s-.228 7.474.431 9.717c.659 2.243 7.43 10.957 6.871 14.835-.559 3.877-.621 6.98-.621 6.98h-11.641l-.476-3.23z"/><path style="fill:#ffbf9d" d="M316.762 175.415c.649.245 28.361 7.105 28.361 7.105s6.191-10.036 7.094-12.9c.903-2.864 5.759-22.217 5.759-22.217l11.712-1.107s-2.961 49.896-7.24 52.584c-4.278 2.688-10.965 4.051-11.442 3.901-.477-.15-29.945 1.902-45.499-10.347-15.552-12.251 11.255-17.019 11.255-17.019z"/><path d="M296.897 201.822s3.977 5.043 11.331 6.663c7.354 1.62 22.997 4.482 22.997 4.482l-.764-7.677-34.046-3.644" style="opacity:.3"/><path style="fill:#455a64" d="M284.561 191.262c2.521 5.323 8.115 11.018 20.43 12.289 24.365 2.516 42.816 3.859 50.788 2.657 7.971-1.202 11.139-18.066 11.962-18.586 2.478-1.566 2.324-6.924.184-8.523-6.082-4.545-18.277-8.04-19.098-7.631-4.844 2.409-3.265 8.049-3.265 8.049l-30.858-6.814s-4.998-2.205-11.074-3.228"/><path style="fill:#263238" d="M303.63 169.476s.261.024.762.104c.501.08 1.243.216 2.204.433a51.124 51.124 0 0 1 8.159 2.575l-.024-.008 30.878 6.722-.261.276c-.402-1.723-.376-3.611.397-5.33.38-.856 1.004-1.61 1.75-2.197.358-.321.791-.529 1.201-.778.123-.045.327-.07.458-.068l.366.038c.247.022.471.081.709.12 3.694.827 7.376 2.142 11.07 3.749 1.84.817 3.674 1.737 5.429 2.858.437.282.861.591 1.294.887.44.341.816.784 1.064 1.274.515.977.709 2.073.733 3.16.01 1.088-.199 2.201-.72 3.205-.291.483-.639.958-1.134 1.283-.121.06-.202.322-.303.563l-.263.752c-.661 2.046-1.314 4.139-2.118 6.194-1.158 2.922-2.495 5.803-4.543 8.164-1.018 1.163-2.265 2.198-3.753 2.71-.742.285-1.521.347-2.258.434-.747.105-1.493.125-2.235.191-2.969.172-5.884.131-8.733.053-2.85-.079-5.637-.223-8.353-.394-10.864-.699-20.613-1.695-28.796-2.543-2.044-.194-4.002-.461-5.823-.837-1.81-.426-3.513-.881-5.027-1.525-3.059-1.208-5.423-2.868-7.091-4.459a18.914 18.914 0 0 1-3.277-4.167c-.611-1.05-.83-1.652-.83-1.652.033-.017.284.572.92 1.599a19.71 19.71 0 0 0 3.326 4.073c1.673 1.552 4.023 3.166 7.059 4.336 1.503.624 3.193 1.062 4.988 1.471 1.812.36 3.74.611 5.792.794 8.186.801 17.937 1.759 28.788 2.43 2.713.164 5.495.302 8.337.376 2.841.072 5.747.109 8.689-.065.732-.066 1.475-.086 2.207-.191.742-.088 1.475-.149 2.145-.41 1.371-.471 2.553-1.444 3.534-2.567 1.975-2.276 3.302-5.118 4.446-8.01.798-2.038 1.444-4.109 2.111-6.169l.271-.773c.048-.13.103-.259.165-.393.043-.074.059-.128.126-.219.04-.049.086-.095.132-.136l.074-.058c.412-.268.713-.678.972-1.103.465-.894.669-1.932.659-2.951-.021-1.016-.208-2.048-.67-2.923a3.32 3.32 0 0 0-.916-1.105c-.423-.29-.836-.592-1.264-.869-1.721-1.102-3.535-2.017-5.358-2.829-3.653-1.598-7.337-2.919-10.958-3.739-.224-.037-.455-.097-.673-.116l-.328-.036c-.097.008-.135-.002-.227.017-.382.234-.792.426-1.122.723-.693.544-1.269 1.231-1.624 2.024-.725 1.578-.759 3.41-.388 5.016l.081.353-.342-.077-30.837-6.906-.012-.003-.013-.005c-3.388-1.43-6.187-2.198-8.087-2.677a53.51 53.51 0 0 0-2.185-.496c-.497-.104-.75-.173-.75-.173z"/><g><path style="fill:#263238" d="M355.778 189.17c-.025.056-.814-.217-1.994-.867-1.179-.646-2.728-1.708-4.207-3.143a20.8 20.8 0 0 1-3.278-4.103c-.692-1.155-1-1.93-.944-1.958.147-.09 1.669 2.882 4.585 5.687 2.886 2.837 5.921 4.235 5.838 4.384z"/></g></g></g><g><path style="fill:#ffbf9d" d="M138.223 271.526s6.194.336 10.038 2.741c3.844 2.405 10.006 6.136 12.552 10.773 1.169 2.128-2.163 2.579-3.808 1.342-1.645-1.236-4.163-3.562-5.413-3.849l-1.25-.286s2.511 5.591 3.807 7.555c1.296 1.964 2.416 5.321-1.462 5.475 0 0-2.616 3.4-5.256.881 0 0-2.061 3.085-5.381-1.193 0 0-1.933 2.446-2.74 1.514-.807-.932-3.449-2.423-4.221-5.479-.772-3.056-4.015-10.49-4.015-10.49l7.149-8.984z"/><path style="fill:#455a64" d="M85.463 189.975s-4.837 1.311-7.792 5.852c-2.383 3.662-3.109 10.048-2.431 14.725 1.441 9.943 6.006 26.741 8.567 37.519.885 3.724 2.696 10.376 8.028 13.913l37.885 22.719 10.13-15.035-34.542-28.149-6.825-38.582-13.02-12.962z"/><path style="fill:#263238" d="M78.911 227.917c.008-.002.05.132.123.395l.312 1.172 1.157 4.528 4.189 16.749c.904 3.501 2.978 7.098 6.236 9.882 1.595 1.428 3.573 2.472 5.538 3.682l6.093 3.673 27.293 16.483-.35.077 3.645-5.411 6.486-9.623.05.344-34.238-28.187-.052-.043-.015-.064c-2.262-9.515-3.904-17.303-4.934-22.721a204.11 204.11 0 0 1-1.107-6.262l-.241-1.641c-.051-.37-.063-.563-.063-.563s.051.186.121.553l.297 1.63c.267 1.431.659 3.539 1.212 6.239 1.096 5.4 2.795 13.173 5.102 22.669l-.067-.107 34.312 28.097.182.149-.131.195-6.482 9.625-3.646 5.41-.138.205-.212-.128-27.266-16.527-6.082-3.693c-1.947-1.209-3.951-2.276-5.581-3.746-3.311-2.854-5.409-6.539-6.306-10.109l-4.035-16.793-1.066-4.55-.264-1.184c-.055-.265-.08-.403-.072-.405z"/><g><path style="fill:#263238" d="M79.534 195.328c-.01-.031.259-.158.769-.324a13.194 13.194 0 0 1 2.215-.501c1.88-.257 4.675-.301 7.391 1 2.662 1.358 4.48 3.425 5.522 5.03.516.815.85 1.527 1.008 2.043.168.512.204.81.176.817-.09.03-.387-1.126-1.489-2.654-1.084-1.505-2.909-3.477-5.446-4.768-2.569-1.235-5.269-1.263-7.119-1.102-1.875.18-3.002.548-3.027.459z"/></g></g></g></svg>