<svg xmlns="http://www.w3.org/2000/svg" viewBox="0 0 750 500" style="enable-background:new 0 0 750 500" xml:space="preserve"><path transform="rotate(-180 394.414 444.802)" style="fill:#ebebeb" d="M371.605 411.467h45.618v66.67h-45.618z"/><path style="fill:#c7c7c7" d="M417.223 411.467h17.246v66.67h-17.246z"/><path transform="rotate(-180 484.077 422.506)" style="fill:#ebebeb" d="M461.268 366.875h45.619v111.262h-45.619z"/><path style="fill:#c7c7c7" d="M506.887 366.875h17.246v111.262h-17.246z"/><path transform="rotate(-180 573.74 394.48)" style="fill:#ebebeb" d="M550.932 310.822h45.619v167.315h-45.619z"/><path style="fill:#c7c7c7" d="M596.55 310.822h17.246v167.315H596.55z"/><path transform="rotate(-180 663.404 360.745)" style="fill:#ebebeb" d="M640.595 243.354h45.619v234.783h-45.619z"/><path style="fill:#c7c7c7" d="M686.214 243.354h17.246v234.783h-17.246z"/><g><path style="fill:#ebebeb" d="M298.976 42.415 270.62 97.804l-7.977-12.346-94.548 61.128-17.837-27.584 94.538-61.119-7.976-12.346zM114.592 142.065l17.828 27.585-2.399 1.551-17.838-27.584zM127.08 133.984l17.838 27.585-8.167 5.283-17.828-27.585zM144.68 122.609l17.838 27.585-12.612 8.157-17.838-27.594z"/><g><path style="fill:#dbdbdb" d="m242.983 332.597-18.321 35.78-5.155-7.968-61.047 39.466-11.525-17.81 61.057-39.476-5.145-7.968zM143.334 384.397l11.515 17.811-8.138 5.272-11.525-17.82z"/><path transform="rotate(-32.87 135.076 402.36)" style="fill:#dbdbdb" d="M131.95 391.743h6.279v21.217h-6.279z"/><path style="fill:#dbdbdb" d="m123.894 396.956 11.526 17.821-1.555 1.001-11.515-17.821z"/></g><g><path transform="rotate(-32.881 298.546 264.227)" style="fill:none;stroke:#ebebeb;stroke-miterlimit:10" d="M296.464 240.674h4.106v47.083h-4.106z"/><path style="fill:none;stroke:#ebebeb;stroke-miterlimit:10" d="m551.742 100.506-40.648 79.392-11.437-17.691-135.511 87.609-25.555-39.543 135.499-87.598-11.438-17.691zM305.372 231.749l25.566 39.544-11.707 7.558-25.567-39.532zM330.586 215.445l25.567 39.544-18.079 11.684-25.555-39.543z"/></g></g><g><path style="fill:none;stroke:#ebebeb;stroke-miterlimit:10" d="M291.312 384.047c1.225 1.975 1.157 4.445-.045 6.435a37.002 37.002 0 0 0-1.801 3.358c-.989 2.094-3.002 3.513-5.316 3.585l-7.914.246.801 25.775 7.909-.243c2.321-.071 4.447 1.199 5.56 3.237a35.63 35.63 0 0 0 2.019 3.268c1.319 1.9 1.503 4.362.41 6.4l-3.732 6.959 22.733 12.192 3.732-6.959c1.093-2.038 3.245-3.248 5.558-3.199a35.875 35.875 0 0 0 3.84-.126c2.313-.201 4.548.867 5.773 2.84l4.173 6.724 21.914-13.593-4.188-6.76c-1.218-1.966-1.148-4.424.047-6.403a37.982 37.982 0 0 0 1.795-3.345c.992-2.101 3.013-3.524 5.335-3.594l7.92-.239-.801-25.775-7.891.25c-2.32.073-4.447-1.194-5.561-3.231a36.06 36.06 0 0 0-2.031-3.279c-1.323-1.9-1.507-4.364-.413-6.405l3.73-6.956-22.734-12.192-3.731 6.957c-1.094 2.04-3.249 3.25-5.564 3.199a36.138 36.138 0 0 0-3.855.122c-2.313.198-4.545-.872-5.768-2.845l-4.158-6.712-21.914 13.593 4.168 6.716zm40.702 6.46c10.28 5.513 14.15 18.333 8.637 28.613-5.513 10.281-18.324 14.132-28.604 8.618-10.28-5.513-14.141-18.305-8.628-28.585 5.514-10.28 18.315-14.16 28.595-8.646zM604.258 65.774c1.225 1.975 1.157 4.446-.045 6.435a37.002 37.002 0 0 0-1.802 3.358c-.989 2.094-3.002 3.513-5.316 3.585l-7.913.246.801 25.775 7.909-.243c2.321-.071 4.447 1.199 5.56 3.237a35.63 35.63 0 0 0 2.019 3.268c1.319 1.9 1.503 4.362.41 6.4l-3.732 6.959 22.733 12.192 3.732-6.959c1.093-2.039 3.245-3.248 5.558-3.2a35.875 35.875 0 0 0 3.84-.126c2.313-.201 4.548.867 5.773 2.84l4.173 6.724 21.914-13.593-4.188-6.76c-1.218-1.966-1.148-4.424.047-6.403a37.432 37.432 0 0 0 1.795-3.346c.992-2.101 3.013-3.524 5.335-3.594l7.92-.239-.801-25.775-7.891.25c-2.32.073-4.447-1.194-5.561-3.231a36.06 36.06 0 0 0-2.031-3.279c-1.323-1.9-1.507-4.364-.413-6.405l3.731-6.956-22.735-12.192-3.731 6.957c-1.094 2.04-3.249 3.25-5.564 3.199a36.146 36.146 0 0 0-3.855.122c-2.313.198-4.545-.872-5.768-2.846l-4.158-6.711-21.914 13.593 4.168 6.718zm40.703 6.46c10.28 5.513 14.15 18.333 8.637 28.613-5.513 10.281-18.324 14.132-28.604 8.618-10.28-5.513-14.141-18.305-8.628-28.585 5.513-10.28 18.314-14.16 28.595-8.646z"/><path style="fill:#ebebeb" d="M667.442 148.114c.755.436 1.171 1.265 1.126 2.136a14.038 14.038 0 0 0 0 1.429c.044.868-.37 1.694-1.122 2.128l-2.573 1.484 4.835 8.38 2.572-1.483a2.301 2.301 0 0 1 2.413.085c.401.262.818.504 1.247.723a2.299 2.299 0 0 1 1.27 2.044v2.963h9.678v-2.963a2.3 2.3 0 0 1 1.27-2.044c.43-.219.846-.46 1.247-.723a2.3 2.3 0 0 1 2.412-.085l2.572 1.483 4.835-8.38-2.583-1.493c-.751-.434-1.164-1.259-1.12-2.126a14.038 14.038 0 0 0 0-1.424c-.045-.871.371-1.699 1.127-2.135l2.576-1.483-4.835-8.38-2.565 1.482a2.3 2.3 0 0 1-2.412-.082 13.407 13.407 0 0 0-1.253-.724 2.299 2.299 0 0 1-1.272-2.044v-2.962h-9.678v2.962c0 .869-.498 1.651-1.272 2.044-.431.219-.85.461-1.253.724a2.3 2.3 0 0 1-2.412.082l-2.565-1.482-4.835 8.38 2.57 1.484zm14.604-5.081c4.377 0 7.93 3.552 7.93 7.929s-3.553 7.922-7.93 7.922-7.922-3.545-7.922-7.922 3.545-7.929 7.922-7.929zM391.927 257.392c.755.436 1.171 1.265 1.126 2.136a14.038 14.038 0 0 0 0 1.43c.044.868-.37 1.694-1.122 2.128l-2.573 1.484 4.835 8.38 2.572-1.483a2.301 2.301 0 0 1 2.413.085c.401.262.818.504 1.247.723a2.298 2.298 0 0 1 1.27 2.043v2.963h9.678v-2.963c0-.868.497-1.649 1.27-2.043a13.3 13.3 0 0 0 1.247-.723 2.3 2.3 0 0 1 2.412-.085l2.572 1.483 4.835-8.38-2.583-1.492c-.751-.434-1.164-1.259-1.12-2.126a14.038 14.038 0 0 0 0-1.424c-.045-.871.371-1.699 1.127-2.135l2.576-1.483-4.835-8.38-2.565 1.482a2.3 2.3 0 0 1-2.412-.082 13.407 13.407 0 0 0-1.253-.724 2.299 2.299 0 0 1-1.272-2.044V243.2h-9.678v2.962c0 .869-.498 1.651-1.272 2.044-.431.219-.85.461-1.253.724a2.297 2.297 0 0 1-2.411.082l-2.565-1.482-4.835 8.38 2.569 1.482zm14.604-5.081a7.933 7.933 0 0 1 7.93 7.929c0 4.377-3.553 7.922-7.93 7.922a7.92 7.92 0 0 1-7.922-7.922c0-4.377 3.545-7.929 7.922-7.929zM53.343 207.771c.755.436 1.171 1.265 1.126 2.136a14.038 14.038 0 0 0 0 1.43c.044.868-.37 1.694-1.122 2.128l-2.573 1.484 4.835 8.38 2.572-1.483a2.3 2.3 0 0 1 2.412.085c.401.262.818.504 1.247.722a2.299 2.299 0 0 1 1.27 2.044v2.962h9.678v-2.962a2.3 2.3 0 0 1 1.27-2.044c.429-.219.846-.46 1.248-.722a2.3 2.3 0 0 1 2.412-.085l2.572 1.483 4.835-8.38-2.583-1.493c-.751-.434-1.164-1.259-1.12-2.126a14.038 14.038 0 0 0 0-1.424c-.045-.871.371-1.7 1.126-2.135l2.576-1.483-4.835-8.38-2.565 1.482a2.3 2.3 0 0 1-2.412-.082 13.407 13.407 0 0 0-1.253-.724 2.298 2.298 0 0 1-1.272-2.044v-2.962h-9.678v2.962c0 .869-.498 1.651-1.272 2.044-.432.219-.85.461-1.253.724a2.3 2.3 0 0 1-2.412.082l-2.565-1.482-4.835 8.38 2.571 1.483zm14.604-5.081c4.377 0 7.93 3.552 7.93 7.929s-3.553 7.922-7.93 7.922-7.922-3.545-7.922-7.922 3.545-7.929 7.922-7.929z"/></g><g><path style="fill:#263238" d="M46.54 478.137c210.433-.612 446.488-.617 656.919 0-210.432.617-446.487.612-656.919 0z"/></g><g><path style="fill:#ffc727" d="M646.194 295.377 513.197 398.964l-104.834 1.26-64.039 47.658H251.6l-45.488 30.258H52.192l180.522-86.83 93.419-.101 63.818-42.309 96.954.777 133.022-85.478z"/><path style="fill:#ffc727" d="m655.702 329.718 42.106-102.52-109.842 14.781z"/></g><g><path style="fill:#ffc4c0" d="M461.333 90.115c-18.333 6.383-34.24 13.369-35.166 17.665-1.753 8.126-.059 30.377 3.078 40.124.922 2.863 23.066-4.757 22.084-7.82-1.186-3.701-6.457-23.992-6.46-24.382-.005-.836 16.682-15.474 21.078-18.693 8.063-5.903 4.338-10.011-4.614-6.894z"/><path style="fill:#ffc4c0" d="M427.548 140.947c-.043 2.503.773 13.989 1.715 17.135.942 3.146 4.309 12.002 6.791 11.525 2.482-.477 1.704-3.148 1.704-3.148s2.014 3.514 4.469 2.807c2.455-.708 1.107-4.824 1.107-4.824s2.331 3.459 4.73 2.578c2.398-.881.35-4.793.35-4.793s1.984 3.262 3.655 1.704c2.009-1.873-2.328-7.473-3.107-11.024-.177-.807-2.423-16.6-2.423-16.6l-18.991 4.64z"/><path style="fill:#263238" d="M448.583 162.565c-3.18-4.126-3.857-6.481-4.337-11.586-.009-.1-.16-.108-.159-.003.014 5.042.438 8.118 4.304 11.753.189.178.343.033.192-.164zM443.592 164.765c-2.928-4.573-3.686-7.121-4.581-12.431-.013-.075-.141-.062-.135.015.442 5.283.936 8.342 4.462 12.527.16.19.388.098.254-.111zM437.721 166.187c-2.515-4.633-3.466-7.39-3.673-12.657-.005-.124-.187-.129-.194-.004-.311 5.391.85 8.841 3.719 12.722.194.265.306.23.148-.061z"/><g><path style="fill:#ffc4c0" d="M446.917 133.104s4.867 4.349 6.583 6.731c1.716 2.382 4.846 13.614 2.459 14.428-3.083 1.051-6.167-5.077-7.285-8.276 0 0-7.129 2.437-10.294-1.482-3.164-3.92 8.537-11.401 8.537-11.401z"/><path style="fill:#263238" d="M455.017 154.273c-3.502-1.07-4.699-5.363-6.016-8.385-.1-.23-.321-.23-.481-.119-3.056.822-7.606 1.091-10.161-1.06-.075-.063-.175.034-.108.108 2.427 2.679 6.919 2.779 10.209 1.665 1.302 3.12 2.691 7.374 6.549 7.826.022.002.031-.028.008-.035z"/></g><g><path style="fill:#ffc727" d="m450.276 135.25-24.215 4.956s-4.061-28.733-.6-33.106c3.462-4.373 21.095-13.217 34.383-17.799 11.07-3.817 15.14 1.519 5.949 8.87-11.154 8.921-19.457 17.184-19.428 17.574s3.911 19.505 3.911 19.505z"/><path style="fill:#263238" d="M448.006 129.432c.074-.02.046-.143-.03-.132-6.864.995-13.678 2.486-20.39 4.222-.074.019-.046.144.03.132 6.849-1.07 13.695-2.411 20.39-4.222z"/><path style="opacity:.1" d="M465.79 98.175c-11.13 8.9-19.42 17.15-19.42 17.57.02.39 3.91 19.51 3.91 19.51l-24.22 4.95s-.72-5.07-1.29-11.28l40.81-40.87c6.43-.36 7.56 4.23.21 10.12z"/></g><g><path style="fill:#ffc4c0" d="M581.412 289.292c-1.512 1.442-52.891 25.397-55.426 25.065-.965-.109-15.002-49.044-15.002-49.044l31.875-13.721 6.828 30.898s23.768-.373 26.517.285c2.732.66 6.725 5.083 5.208 6.517z"/><path style="fill:#ebebeb" d="M581.412 289.287c-1.513 1.451-52.885 25.404-55.428 25.069-.468-.053-3.201-12.459-8.146-23.442l31.134-14.828.713 6.405s23.764-.373 26.518.281c2.735.662 6.722 5.089 5.209 6.515z"/><path style="fill:#ffc727" d="M582.267 289.147c-1.53 1.48-53.69 26.269-56.275 25.949-.984-.104-8.107-17.842-8.155-17.937l31.802-15.281.258.577s24.209-.558 27.016.092c2.788.652 6.889 5.127 5.354 6.6z"/><path style="opacity:.3" d="M582.267 289.147c-1.53 1.48-53.69 26.269-56.275 25.949-.984-.104-8.107-17.842-8.155-17.937l31.802-15.281.258.577s24.209-.558 27.016.092c2.788.652 6.889 5.127 5.354 6.6z"/><path style="fill:#263238" d="M580.716 287.405c-8.895 3.963-44.399 20.785-52.891 25.379-.069.037-.046.085.026.055 8.902-3.735 44.269-20.845 52.933-25.29.183-.094.12-.228-.068-.144zM553.431 280.194c-3.767.999-7.746 3.541-9.218 7.263-.057.144.149.223.244.135 2.902-2.698 5.762-4.904 9.168-6.953.241-.146.076-.516-.194-.445zM556.644 280.512c-3.767.999-7.747 3.541-9.219 7.262-.057.144.149.223.244.135 2.902-2.698 5.762-4.904 9.169-6.953.24-.144.076-.515-.194-.444zM559.857 280.83c-3.767.999-7.747 3.541-9.219 7.263-.057.144.149.223.244.134 2.902-2.698 5.762-4.904 9.168-6.953.241-.144.077-.515-.193-.444z"/><g><path style="fill:#37474f" d="m552.185 276.996-39.538 18.682s-14.731-83.943-15.709-87.202c-.382-1.274-38.249-12.972-52.609-22.795-19.136-13.089-11.555-42.526-11.555-42.526h44.657s.791 11.603 3.259 14.132c2.996 3.07 45.59 11.645 50.342 23.968 6.85 17.759 21.153 95.741 21.153 95.741z"/><path style="fill:#263238" d="M545.719 268.676c-5.422 2.308-3.907 1.552-9.296 3.934-2.638 1.166-19.959 8.847-22.181 10.466-.049.036.002.148.061.135 2.68-.618 19.832-8.67 22.441-9.898 5.331-2.51 3.767-1.861 9.063-4.445.1-.047.014-.235-.088-.192zM437.362 145.455c.687 10.033 2.615 27.428 10.76 34.09 4.139 3.198 8.894 5.499 13.586 7.789 9.485 4.529 19.261 8.382 28.982 12.391 3.238 1.358 6.491 2.652 9.652 4.279.773.454 1.68.819 2.208 1.598a.968.968 0 0 1 .1.286l.466 2.602c3.566 20.499 7.901 46.866 11.107 67.451-3.832-20.499-8.452-46.775-12.055-67.282l-.473-2.571c.026-.002-.068-.116-.218-.239-3.439-2.214-7.402-3.552-11.159-5.227-6.468-2.694-12.97-5.33-19.4-8.141-7.969-3.603-16.211-7.045-23.22-12.41-8.371-7.035-9.836-24.257-10.336-34.616z"/><path style="opacity:.2" d="m478.1 149.105-10.34 48c-8.98-3.62-17.93-7.66-23.43-11.42-19.14-13.09-11.55-42.53-11.55-42.53h44.65s.19 2.8.67 5.95z"/></g><g><path style="fill:#ffc4c0" d="M456.262 349.126c-1.993.625-58.67-.573-60.797-1.99-.818-.525-1.125-8.793-1.209-18.795v-.313c-.022-2.061 9.107-33.375 9.107-33.375l36.081.414-8.614 33.325-.027.62s21.489 10.162 23.665 11.967c2.159 1.799 3.789 7.53 1.794 8.147z"/><path style="fill:#ebebeb" d="M456.257 349.123c-1.982.632-58.662-.569-60.795-1.989-.816-.527-1.119-8.793-1.203-18.796.003-.1-.007-.208-.004-.307-.004-.539 1.72-7.26 1.72-7.26l36.573.952-1.712 6.671-.035.623s21.497 10.161 23.668 11.959c2.16 1.8 3.784 7.534 1.788 8.147z"/><path style="fill:#ffc727" d="M456.818 349.243c-2.033.632-59.768-.727-61.931-2.176-.832-.536-1.124-8.961-1.185-19.15l.001-.319 37.258.461-.029.632s21.867 10.405 24.079 12.249c2.194 1.837 3.84 7.68 1.807 8.303z"/><path style="opacity:.3" d="M456.818 349.243c-2.033.632-59.768-.727-61.931-2.176-.832-.536-1.124-8.961-1.185-19.15l.001-.319 37.258.461-.029.632s21.867 10.405 24.079 12.249c2.194 1.837 3.84 7.68 1.807 8.303z"/><path style="fill:#263238" d="M456.217 346.989c-9.727-.468-49.002-1.438-58.653-1.162-.079.002-.08.056-.001.061 9.631.675 48.913 1.326 58.651 1.26.205-.001.209-.149.003-.159zM435.104 328.263c-3.813-.805-8.511-.327-11.502 2.333-.116.103.032.266.157.23 3.806-1.102 7.353-1.784 11.318-2.079.28-.021.3-.426.027-.484zM437.829 329.994c-3.813-.805-8.511-.327-11.502 2.333-.116.103.033.266.157.23 3.807-1.102 7.353-1.784 11.318-2.079.28-.021.3-.426.027-.484zM440.554 331.725c-3.813-.805-8.511-.327-11.501 2.332-.116.103.032.266.157.23 3.807-1.102 7.353-1.784 11.318-2.079.279-.02.299-.425.026-.483z"/><g><path style="fill:#37474f" d="M480.394 143.156s.273 21.039-5.98 29.492c-.361.488-4.71 2.162-5.513 3.048 0 0-6.808 49.44-10.273 67.022-4.573 23.21-25.116 84.279-25.116 84.279l-41.214-.488s27.648-85.831 27.842-87.344c1.102-8.584 6.004-58.03 5.508-59.51-1.246-3.72-1.743-6.54-1.511-10.595.592-10.362 5.638-25.904 5.638-25.904h50.619z"/><path style="fill:#263238" d="M433.292 318.676c-6.128-.229-4.366-.265-10.496-.413-3-.072-22.712-.524-25.522-.009-.062.011-.064.135-.002.148 2.796.586 22.514.631 25.514.634 6.132.007 4.371-.074 10.503-.148.115-.002.118-.208.003-.212zM474.414 172.648c-4.268 1.469-8.387 3.555-12.326 5.74-.155.086-.053.326.115.254 4.152-1.783 8.386-3.489 12.435-5.499.318-.157.104-.607-.224-.495zM475.734 144.157c-.011-.143-.264-.175-.262-.02.034 4.93-.281 9.266-.696 13.873-.193 2.139-1.913 13.959-5.622 13.097-.621-.144-.938-.755-1.035-1.691-.117-1.125.306-2.506.493-3.625.412-2.474.742-4.956.955-7.456.396-4.665.416-9.331-.151-13.982-.018-.153-.239-.141-.239.014.005 6.459-.163 12.905-1.129 19.302-.464 3.074-2.013 7.703 1.203 8.176 3.276.482 5.393-7.271 5.793-9.392 1.113-5.92 1.157-12.309.69-18.296z"/><path style="fill:#263238" d="M469.252 171.425c-.335.794-.605 1.62-.834 2.45-.178.645-.42 1.341-.347 2.014.014.13.187.143.257.055.435-.551.619-1.306.862-1.959.282-.758.581-1.51.841-2.276.172-.509-.573-.774-.779-.284zM436.489 160.121c.902-.152 2.22.163 6.126-.106 1.079-.074 2.151-.283 3.206-.523 1.053-.24 2.125-.511 2.978-1.208 1.438-1.175 2.527-3.06 3.396-4.676.955-1.775 1.924-3.8 2.377-5.772.028-.121.204-.063.183.055-.205 1.142-.319 2.282-.621 3.412-.283 1.062-.694 2.096-1.14 3.099-.834 1.873-1.808 3.883-3.487 5.148-1.762 1.327-4.219 1.575-6.353 1.724-1.235.086-6.077-.044-6.728-.736-.117-.123-.109-.389.063-.417z"/><g><path style="fill:#263238" d="M433.377 145.455c-1.488 7.852-3.149 15.711-3.784 23.683-.017.71-.067 1.457.142 2.063.889 2.836 1.281 5.727 1.678 8.628-1.02 11.442-3.682 40.556-4.621 51.624-.248 2.884-.488 5.682-.661 8.63-.563 2.912-1.425 5.622-2.221 8.401-6.635 22.043-14.068 43.817-21.534 65.586 3.544-11.127 12.287-38.627 15.618-49.35 2.475-8.199 5.331-16.436 7.197-24.774.145-2.793.385-5.729.617-8.576a3126.582 3126.582 0 0 1 4.934-51.465c-.352-2.866-.717-5.785-1.538-8.524-.248-.789-.163-1.536-.142-2.271.759-7.988 2.658-15.823 4.315-23.655z"/></g></g></g></g><g><path style="fill:#ffc727" d="M481.985 155.069s-55.532-6.045-55.731-6.426c-.539-1.037 24.287-53.553 40.125-62.202 2.897-1.582 10.445 1.501 11.922 3.663 3.87 5.661 4.548 64.341 3.684 64.965z"/><path style="fill:#263238" d="M476.495 95.432c-.128 4.786-.349 9.567-.584 14.346-.233 4.78-.543 9.555-.81 14.332-.336 4.773-.636 9.549-1.006 14.32l-.573 7.155c-.222 2.383-.415 4.768-.662 7.15.055-2.394.165-4.784.247-7.176l.336-7.171c.235-4.78.542-9.555.811-14.332.338-4.773.635-9.549 1.008-14.32.37-4.77.755-9.54 1.233-14.304zM479.098 110.311a.898.898 0 1 1-1.793-.08.898.898 0 0 1 1.793.08zM478.328 119.523a.898.898 0 1 1-1.793-.08.898.898 0 0 1 1.793.08zM477.558 128.736a.898.898 0 1 1-1.793-.08.898.898 0 0 1 1.793.08zM476.788 137.948a.898.898 0 1 1-1.793-.08.898.898 0 0 1 1.793.08zM476.018 147.161a.898.898 0 1 1-1.793-.08.898.898 0 0 1 1.793.08z"/><g><path style="fill:#ffc4c0" d="M474.07 96.38c-3.013-.097-6.701-5.741-7.671-9.767-.065-.276.99-2.711 2.132-5.729.686-1.835 1.406-3.893 1.928-5.819l11.285 6.207s-2.281 3.716-3.17 7.079a4.515 4.515 0 0 0-.131.813c-.006.037-.007.084-.018.136-.161 1.567-1.442 7.172-4.355 7.08z"/><path style="fill:#263238" d="M470.994 75.359c-.275 2.507-.778 11.619 6.174 13.672.448.128.864.219 1.257.271a.503.503 0 0 0 .017-.139c.017-.262.061-.532.131-.811.894-3.362 3.176-7.079 3.176-7.079l-10.755-5.914z"/><g><path style="fill:#ffc4c0" d="M466.662 65.649c-.899 4.558 2.734 17.092 6.168 19.62 4.978 3.665 12.482 3.3 15.432-2.536 2.86-5.657-2.164-21.908-5.94-24.139-5.561-3.285-14.331.322-15.66 7.055z"/><path style="opacity:.1;fill:#263238" d="M488.264 82.736c-2.949 5.832-10.454 6.2-15.434 2.531-1.389-1.024-2.815-3.696-3.96-6.81l2.218-5.35s1.93 3.567 3.72 4.499c3.2 1.666 7.914.569 9.031-2.173l1.454-.169s2.576 1.567 3.507-1.054c.497 3.425.444 6.593-.536 8.526z"/><path style="fill:#263238" d="M468.521 76.616c1.945.127 2.643-1.657 2.875-2.902.231-1.245-1.631-8.15-1.096-10.056.534-1.905 2.248-3.259 3.854-3.128 1.606.131 4.72 1.319 5.816.983 1.095-.336.115-2.417.892-2.579 1.711-.358 4.4 3.484 5.1 5.296 0 0-1.442-8.315-10.522-6.99-8.113 1.183-9.024 6.909-9.217 9.464-.371 4.894 2.298 9.912 2.298 9.912z"/><path style="fill:#ffc4c0" d="M471.149 75.422s-3.384-3.769-5.129-2.514c-1.744 1.256 1.151 6.965 3.446 7.514 2.295.549 2.845-1.565 2.845-1.565l-1.162-3.435z"/><path style="fill:#263238" d="M466.891 74.524c-.036.001-.036.051-.004.06 1.615.436 2.6 1.764 3.348 3.175-.527-.514-1.189-.75-1.885-.112-.036.034.01.092.052.077.614-.212 1.082-.158 1.57.295.345.321.606.748.873 1.134.089.129.328.025.256-.127a.539.539 0 0 0-.017-.034c-.201-1.967-2.061-4.527-4.193-4.468z"/><g><path style="fill:#263238" d="M479.629 71.698c-.016-.03-.055.059-.044.093.267.838.433 1.842-.253 2.34-.021.015-.007.057.021.045.896-.395.663-1.727.276-2.478z"/><path style="fill:#263238" d="M478.622 71.03c-1.389.284-.72 3.041.568 2.779 1.267-.259.597-3.017-.568-2.779zM484.607 70.637c-.001-.034.077.024.084.059.181.861.532 1.816 1.373 1.912.026.003.034.046.005.049-.975.097-1.429-1.176-1.462-2.02z"/><path style="fill:#263238" d="M485.153 69.56c1.349-.438 2.125 2.292.876 2.697-1.229.399-2.006-2.33-.876-2.697zM477.57 70.773c.388-.09.731-.237 1.106-.366.423-.145.775-.217 1.057-.589.151-.199.097-.563-.083-.728-.418-.385-.98-.336-1.497-.182-.56.167-.949.439-1.277.921-.318.468.182 1.062.694.944zM485.625 67.438c-.397.03-.769-.008-1.165-.018-.447-.012-.804.025-1.185-.245-.204-.145-.261-.508-.139-.719.284-.492.835-.614 1.373-.621.584-.008 1.037.135 1.495.497.444.349.145 1.066-.379 1.106zM480.627 79.814c.253.15.524.376.84.327.303-.047.619-.266.866-.438.024-.017.059.005.048.035-.142.382-.559.701-.972.727-.403.026-.675-.261-.855-.592-.025-.047.036-.081.073-.059z"/><g><path style="fill:#263238" d="M481.076 77.004c.658.625 1.46.86 2.256.823a3.751 3.751 0 0 0 1.058-.206c.068-.018.135-.043.194-.072.061-.023.115-.044.18-.074.096-.039.131-.134.125-.233l-.002-.006a.458.458 0 0 0-.029-.086l-.001-.007-.02-.074c-.142-.662-.448-1.647-.448-1.647.27.062 1.629.316 1.526-.023-.861-2.803-1.818-5.92-3.266-8.528-.043-.088-.181-.032-.151.06.72 2.727 1.915 5.309 2.683 8.036-.427-.054-1.132-.174-1.474-.083-.087.05.627 1.893.667 2.195 0 0 .003.012.002.033-1.071.41-1.984.278-3.237-.203-.077-.034-.131.04-.063.095z"/></g><g><path style="fill:#263238" d="M483.932 77.657s-.444.876-1.185 1.291a1.561 1.561 0 0 1-.922.217c-.704-.062-.827-.678-.793-1.228.026-.452.164-.862.164-.862s1.141.754 2.736.582z"/><path style="fill:#f291b8" d="M482.747 78.948a1.561 1.561 0 0 1-.922.217c-.704-.062-.827-.678-.793-1.228.735-.049 1.534.319 1.715 1.011z"/></g></g></g><g><path style="fill:#ffc727" d="m478.426 89.299-2.319 5.793-9.421-9.677-2.726 2.824s8.084 15.136 8.175 14.477l4.191-6.163 3.257 4.642.305-9.302-1.462-2.594z"/><path style="fill:#263238" d="M480.005 95.764c-.022-1.817.078-1.95-.029-3.765-.004-.065-.103-.099-.122-.024-.456 1.73-.406 6.981-.502 8.641l-.018-.02c-.171-.199-2.968-4.099-3.009-4.043-.705.964-4.005 5.46-4.178 5.869-1.278-2.404-6.2-11.158-7.742-13.449-.044-.066-.145-.019-.112.057 1.107 2.526 7.611 14.307 7.721 14.281.071.061 3.963-5.468 4.347-6.515.608.832 3.415 5.205 3.443 4.936.187-1.812.223-4.148.201-5.968z"/></g></g><g><path transform="rotate(-71.114 561.842 128.531)" style="fill:#ffc727" d="M527.716 107.006h68.319v43.049h-68.319z"/><path transform="rotate(-71.114 561.842 128.531)" style="opacity:.3" d="M527.716 107.006h68.319v43.049h-68.319z"/><path transform="rotate(-71.114 551.069 124.844)" style="opacity:.1" d="M516.941 114.708h68.319v20.272h-68.319z"/><path transform="rotate(-71.114 544.994 122.77)" style="fill:#ffc727" d="M509.252 112.724h71.55v20.093h-71.55z"/><path transform="rotate(-71.114 544.994 122.77)" style="opacity:.3" d="M509.252 112.724h71.55v20.093h-71.55z"/><path style="fill:#263238" d="m531.85 107.72 6.903 2.362-1.068 3.12-3.926-1.343-4.073 11.902 3.927 1.343-1.068 3.121-6.902-2.361z"/><path transform="rotate(-71.114 546.856 148.37)" style="fill:#263238" d="M544.554 143.574h4.664v9.596h-4.664z"/><path transform="rotate(-71.114 562.146 103.673)" style="fill:#263238" d="M559.848 98.873h4.663v9.597h-4.663z"/><g><path style="fill:#ffc4c0" d="M460.999 98.978c7.374 18.799 17.376 32.654 21.511 33.652 4.833 1.166 27.586-2.023 34.99-6.234 2.615-1.487-3.751-22.71-6.756-21.563-3.631 1.386-22.303 8.859-22.693 8.883-.835.051-15.37-13.953-19.237-17.938-6.457-6.652-11.087-5.144-7.815 3.2z"/><path style="fill:#ffc4c0" d="M534.072 101.649c1.315 1.998-.25 3.919-.25 3.919s1.759.746 2.469 2.438c.814 1.938-1.869 4.064-1.869 4.064s1.624 1.124 2.194 2.987c.592 1.933-1.808 4.464-1.808 4.464s.937 1.878.275 3.842c-1.132 3.358-6.396 4.61-9.735 5.441-3.339.83-13.587.058-15.554.109l-5.513-21.383s13.912-7.982 17.977-8.401c3.424-.353 10.338.276 11.814 2.52z"/><path style="fill:#263238" d="M533.586 105.262c-3.73-.498-7.404.133-11.108.556-.082.009-.067.138.016.128 3.678-.463 7.401-.189 11.09-.505.102-.008.103-.166.002-.179zM534.282 111.808c-.847-.087-1.721.105-2.554.243-.897.148-1.791.312-2.683.489-1.785.355-3.563.751-5.327 1.199-.078.02-.067.145.016.128a129.693 129.693 0 0 1 8.053-1.343c.836-.116 1.729-.168 2.525-.468.118-.045.098-.235-.03-.248zM534.733 119.534c-.733-.105-1.574.183-2.288.341-.81.179-1.621.353-2.433.523-1.624.34-3.248.678-4.882.961-.081.014-.066.142.016.128 1.662-.278 3.328-.535 4.988-.828.815-.144 1.629-.293 2.443-.446.691-.13 1.571-.214 2.177-.598.033-.022.016-.076-.021-.081z"/></g><g><path style="fill:#ffc727" d="m503.227 106.858 7.2 24.442s-24.093 4.86-28.941 2.103c-4.848-2.758-14.999-17.775-19.804-30.984-4.805-13.209-.093-14.83 9.951-4.675 10.044 10.155 16.084 15.197 16.465 15.109.381-.088 15.129-5.995 15.129-5.995z"/><path style="fill:#263238" d="M497.864 110.782c-.027-.072-.147-.033-.129.041 1.591 6.751 3.671 13.409 5.987 19.943.026.072.147.033.129-.042-1.664-6.728-3.598-13.431-5.987-19.942zM503.227 106.858a1676.318 1676.318 0 0 1-15.165 6.238c-6.256-5.14-12.385-10.521-17.596-16.739 5.564 5.817 11.631 11.131 17.766 16.332l-.211-.033c3.776-1.47 11.41-4.377 15.206-5.798zM461.501 103.121c2.974 5.937 6.134 11.796 9.623 17.445 1.732 2.828 3.582 5.59 5.66 8.167 2.047 2.522 4.467 5.204 7.929 5.428-3.491-.029-6.117-2.683-8.226-5.181-2.158-2.553-4.016-5.332-5.787-8.151-3.463-5.687-6.566-11.594-9.199-17.708z"/><path style="fill:#263238" d="M461.321 104.25c.675 1.046 1.383 2.014 2.115 3.024-.975-.768-1.75-1.833-2.115-3.024z"/></g></g></g></g><g><path style="fill:#f7a9a0" d="M295.813 392.394c-1.069-.054-15.578-.309-29.534-5.922-13.13-5.281-27.471-12.054-28.195-13.051-.582-.771 22.926-50.453 22.926-50.453l34.056 14.265-15.889 32.308-.239.569s2.33 2.79 7.511 7.77c.925.889 11.269 6.3 11.864 7.329 1.392 2.421-.426 7.298-2.5 7.185z"/><path style="fill:#263238" d="M295.818 392.393c-1.068-.055-15.577-.308-29.535-5.914-13.138-5.286-27.482-12.056-28.196-13.064-.184-.236 1.922-5.114 4.919-11.745 8.068 4.959 33.274 18.789 37.161 20.079 4.474 1.505 11.276 3.577 11.095 1.713-.15-1.624-3.72-4.688-4.615-5.419 1.715 1.231 11.108 6.187 11.66 7.17 1.395 2.41-.422 7.292-2.489 7.18zM331.449 185.317s-2.315 23.701-8.228 27.93c0 0-4.694 60.903-9.571 76.134-6.918 21.607-28.947 73.354-28.947 73.354l-36.682-15.764s31.217-65.32 31.639-66.615c1.395-4.283 6.138-70.27 5.962-71.652-2.275-17.84 8.861-31.409 8.861-31.409l36.966 8.022z"/><path style="fill:#37474f" d="M284.93 352.227c-4.615-2.167-3.251-1.631-7.897-3.73-2.273-1.027-17.221-7.76-19.559-8.229-.052-.01-.097.094-.055.125 1.933 1.397 17.03 7.786 19.329 8.756 4.697 1.981 3.377 1.345 8.103 3.258.089.035.165-.139.079-.18zM273.183 343.923c7.069-15.879 14.252-31.716 20.826-47.806 1.524-4.049 3.466-7.972 3.708-12.348 1.777-19.366 4.601-54.218 6.211-73.618-.781-1.621-1.217-4.65-1.143-6.804.242-7.009 3.018-13.701 6.439-19.726-4.128 7.858-8.076 17.653-4.876 26.463-1.657 21.919-3.804 52.13-6.008 73.751-.257 4.376-2.269 8.455-3.821 12.487-6.647 16.074-13.937 31.866-21.336 47.601z"/><path style="opacity:.2" d="m317.88 264.235-23.402-86.942 36.966 8.028s-2.305 23.692-8.219 27.931c0 .001-2.367 27.478-5.345 50.983z"/><g><path style="fill:#f7a9a0" d="M377.307 354.491c-2.234.2-61.422-14.016-63.33-15.99-.738-.737 20.334-49.48 20.334-49.48l35.035 7.964-14.15 30.583s20.221 15.575 22.092 17.966c1.854 2.381 2.253 8.767.019 8.957z"/><path style="fill:#263238" d="M377.31 354.492c-.984.088-12.958-2.608-26.244-5.823l-2.635-.646a769.82 769.82 0 0 1-6.818-1.678 290.75 290.75 0 0 0-2.632-.667l-.042-.007c-.87-.225-1.74-.449-2.591-.66a319.991 319.991 0 0 1-3.87-.993c-.818-.216-1.625-.431-2.414-.632l-.031-.005c-.787-.211-1.563-.421-2.31-.615l-.031-.005c-1.135-.299-2.218-.59-3.247-.883-.695-.186-1.38-.37-2.031-.56a143.53 143.53 0 0 1-3.463-1.002c-.52-.147-1.007-.3-1.453-.446-1.116-.349-2.006-.651-2.606-.897-.491-.196-.805-.363-.915-.477-.258-.254 1.181-6.613 4.861-14.629 5.413 2.668 14.263 6.949 29.744 12.966 25.453 9.895 19.248.994 15.333-2.447-.036-.038-.075-.065-.111-.103.247.189.503.39.747.589.038.028.087.057.123.095l1.362 1.081c.492.388.993.788 1.483 1.186.822.654 1.645 1.308 2.426 1.955.795.628 1.548 1.25 2.263 1.844.423.355.837.699 1.233 1.018.198.16.384.328.572.486.254.211.508.422.741.63.525.446.983.85 1.373 1.211.094.079.188.158.27.245.418.387.719.701.888.91 1.857 2.378 2.252 8.761.025 8.959z"/><g><path style="fill:#263238" d="m359.09 324.092-36.851-9.625s24.45-53.24 24.214-56.268c-.092-1.183-35.784-29.071-49.876-45-11.196-12.656-2.095-35.904-2.095-35.904l36.966 8.021s-.784 2.562.441 5.289c1.998 4.452 52.314 43.925 54.167 56.329 2.327 15.571-26.966 77.158-26.966 77.158z"/><path style="fill:#37474f" d="M315.593 186.85c-.57 2.14-.963 4.497-.303 6.652 1.518 3.438 4.3 6.142 6.778 8.915 4.116 4.387 8.465 8.555 12.83 12.701 7.727 7.376 18.793 17.431 26.025 25.097 2.054 2.254 4.163 4.438 5.654 7.149.389.678.568 1.596.483 2.356-1.053 8.267-4.624 15.998-7.568 23.712-4.574 11.155-9.577 22.121-14.816 32.969 4.977-10.966 9.802-22.008 14.264-33.191 2.843-7.689 6.383-15.343 7.402-23.522.059-.756-.056-1.342-.415-1.997-1.424-2.573-3.572-4.781-5.547-6.97-12.426-13.081-26.323-24.776-38.579-38.06-2.436-2.835-5.185-5.611-6.646-9.113-.626-2.198-.178-4.551.438-6.698zM358.839 314.797c-4.927-1.441-3.488-1.118-8.435-2.487-2.421-.67-18.335-5.052-20.733-5.16-.053-.002-.082.108-.035.132 2.141 1.087 18.149 5.107 20.586 5.716 4.98 1.244 3.568.816 8.566 1.988.095.022.143-.161.051-.189z"/></g></g><g><path style="fill:#263238" d="M320.235 109.558s6.877-5.824 14.048-2.145 6.982 20.257 7.436 25.152c.453 4.895 4.369 6.678-.874 10.363-5.243 3.685-11.996 4.208-18.674 3.142-6.678-1.066-11.352-4.597-11.972-7.701-.38-1.9 1.293-3.471 1.941-6.47.382-1.764-1.113-22.478 8.095-22.341z"/><path style="fill:#263238" d="M310.324 134.652c.334-2.04 1.126-3.92 1.359-5.999.228-2.035.192-4.089.266-6.133.189-5.233 1.686-13.17 8.426-12.788.132.007.127.202-.005.204-7.608.138-7.967 9.224-8.13 14.899-.075 2.607-.271 5.103-.991 7.617-1.009 3.521-.967 6.701 1.58 9.583.056.064-.037.153-.096.091-1.908-2.03-2.865-4.691-2.409-7.474zM321.566 109.518c3.751-2.418 8.098-4.327 12.538-2.425 3.844 1.646 6.013 5.563 6.894 9.418 1.229 5.38.313 11.012 1.739 16.363.503 1.889 1.991 3.973 1.667 6.012-.289 1.815-1.782 2.271-3.421 2.491-.087.012-.123-.117-.034-.132 3.994-.684 3.13-3.463 2.119-6.151-.71-1.888-1.131-3.811-1.356-5.809-.447-3.973-.181-8.008-.929-11.951-.726-3.831-2.501-7.757-6.152-9.7-4.572-2.433-8.992-.399-13.023 1.959-.048.026-.087-.046-.042-.075z"/><path style="fill:#f7a9a0" d="M326.281 150.481c5.876 19.323 17.565 35.623 23.545 36.379 8.58 1.084 30.7-3.703 40.566-7.725 2.898-1.182-6.753-23.554-9.853-22.294-3.746 1.522-25.634 8.981-26.039 9.014-.867.072-16.115-16.477-19.801-20.785-6.761-7.899-11.614-5.099-8.418 5.411z"/><path style="fill:#f7a9a0" d="M402.552 174.175c-3.991 2.999-14.55 5.94-17.37 5.67-2.82-.271-8.417-18.057-6.758-20.444 1.659-2.387 15.877-11.443 20.968-11.287 5.091.157 7.294 22.954 3.16 26.061z"/><path style="fill:#f7a9a0" d="M391.512 149.446c-.987 2.454 2.47 2.212 2.47 2.212s-4.892 1.547-4.931 4.47c-.03 2.817 4.135 2.379 4.434 2.351-.258.084-4.716 1.622-4.453 4.564.276 3.057 4.382 1.898 4.647 1.822-.219.156-3.076 2.266-2.368 4.455 1.219 3.761 8.674-1.432 11.799-.737 0 0-.574 5.43-.557 5.591 0 0 7.194-4.796 7.897-9.063.37-2.25-1.653-3.039-1.653-3.039s2.491-1.29 2.357-3.612c-.072-1.192-2.043-2.137-2.043-2.137s1.951-1.116 1.703-3.175c-.193-1.643-2.139-2.336-2.139-2.336s1.376-1.941.634-3.556c-1.493-3.259-15.679-3.062-17.797 2.19z"/><path style="fill:#263238" d="M408.381 150.656c.047.003.061-.062.013-.073-4.681-1.073-10.153-.819-14.6 1.069-.146.062-.109.326.065.288 4.956-1.069 9.439-1.623 14.522-1.284zM409.179 156.294c.055.004.062-.087.004-.1-4.829-1.08-10.985-.623-15.855 2.156-.167.095-.221.348-.021.253 3.379-1.603 11.298-2.638 15.872-2.309zM393.406 165.177c4.773-2.484 9.861-3.189 15.192-3.161.069 0 .063-.098.005-.114-2.604-.724-6.004-.387-8.627.098-2.512.465-4.686 1.39-6.657 3.01-.077.063-.015.22.087.167z"/><path style="fill:#263238" d="M393.982 151.658c-.911.39-1.793.848-2.609 1.391-.801.545-1.578 1.207-1.959 2.038-.185.411-.235.859-.103 1.273.138.42.37.825.692 1.115.636.596 1.633.762 2.489.66l2.153-.255-1.934.989c-.844.432-1.675 1.006-2.328 1.685-.654.676-1.126 1.523-1.049 2.373.063.889.6 1.584 1.463 1.751.845.2 1.86.053 2.739-.217l2.456-.755-2.064 1.51a8.391 8.391 0 0 0-1.545 1.463c-.435.548-.785 1.174-.829 1.801-.046.615.246 1.261.764 1.542.541.303 1.293.312 2.005.251 1.453-.144 2.894-.601 4.344-.984.726-.197 1.454-.396 2.193-.561.733-.149 1.506-.315 2.25-.145-.753-.092-1.482.152-2.198.346-.716.218-1.422.47-2.131.722-1.417.504-2.849.996-4.385 1.236-.764.092-1.595.165-2.414-.224-.842-.408-1.274-1.36-1.215-2.232.056-.889.49-1.633.968-2.262a9.17 9.17 0 0 1 1.696-1.655l.391.755c-1.036.328-2.092.522-3.233.289-.561-.117-1.139-.43-1.521-.922-.386-.493-.561-1.069-.602-1.65-.079-1.209.586-2.262 1.328-3.005.765-.763 1.63-1.34 2.59-1.814l.219.734c-1.093.092-2.228-.175-3.034-.979-.394-.4-.641-.896-.784-1.423-.146-.543-.047-1.141.2-1.617.514-.963 1.395-1.551 2.25-2.055a13.272 13.272 0 0 1 2.747-1.169z"/><g><path style="fill:#f7a9a0" d="M380.574 157.432s10.555-18.36 15.71-10.718c1.532 2.271 5.111 13.424 2.885 14.186-2.874.984-5.238-3.392-6.285-6.375 0 0-2.711 6.75-7.974 6.264-3.301-.304-4.336-3.357-4.336-3.357z"/><path style="fill:#263238" d="M395.815 146.107c.739.788 1.251 1.761 1.728 2.726.476.972.857 1.986 1.197 3.012.656 2.064 1.242 4.124 1.538 6.31.066.549.11 1.112.014 1.722a2.28 2.28 0 0 1-.346.921 1.605 1.605 0 0 1-.367.4 1.676 1.676 0 0 1-.476.249c-.648.232-1.316.137-1.888-.079-.567-.236-1.047-.589-1.473-.978-.842-.791-1.446-1.742-1.948-2.719-.515-.975-.902-1.995-1.263-3.019l.703.007a13.094 13.094 0 0 1-1.219 2.165 12.127 12.127 0 0 1-1.591 1.883 8.352 8.352 0 0 1-2.014 1.411 6.351 6.351 0 0 1-2.336.66 7.166 7.166 0 0 0 2.209-.889c.676-.412 1.268-.943 1.803-1.517a11.595 11.595 0 0 0 1.415-1.882c.405-.668.768-1.388 1.031-2.097l.335-.903.369.909c.397.979.789 1.963 1.308 2.869.505.907 1.069 1.796 1.807 2.464.709.657 1.671 1.146 2.451.869.706-.183.731-1.361.629-2.359-.098-1.035-.307-2.081-.516-3.124a48.912 48.912 0 0 0-.716-3.113c-.59-2.032-1.18-4.116-2.384-5.898z"/></g><g><path style="fill:#263238" d="m376.896 157.367 8.454 27.098s-33.25 5.947-38.059 2.7c-4.81-3.246-16.864-20.325-20.797-34.41-3.932-14.085 1.015-16.786 10.625-5.452 9.611 11.334 15.82 16.573 16.223 16.512.402-.061 23.554-6.448 23.554-6.448z"/><path style="fill:#455a64" d="m376.896 157.367 8.454 27.098s-33.25 5.947-38.059 2.7c-4.81-3.246-16.864-20.325-20.797-34.41-3.932-14.085 1.015-16.786 10.625-5.452 9.611 11.334 15.82 16.573 16.223 16.512.402-.061 23.554-6.448 23.554-6.448z"/><path style="fill:#263238" d="M371.702 162.032c-.028-.075-.153-.033-.134.044 1.71 7.011 3.927 13.921 6.39 20.7.027.075.154.033.134-.044-1.786-6.988-3.852-13.946-6.39-20.7z"/><path style="opacity:.1" d="M358.62 187.952c-5.34.35-9.79.25-11.33-.79-4.81-3.24-16.86-20.32-20.8-34.41-2.76-9.89-1.14-14.17 3.4-11.9l28.73 47.1z"/></g><g><path style="fill:#263238" d="M327.632 170.991c-1.824.055-3.66.179-5.465.538-.898.178-1.784.402-2.67.648-.442.122-.884.228-1.329.331-.457.106-.946.199-1.411.176-.042-.002-.047.069-.006.073.45.053.882.102 1.337.086a8.518 8.518 0 0 0 1.296-.162c.912-.171 1.818-.39 2.729-.571 1.837-.367 3.674-.732 5.528-.949.084-.009.077-.173-.009-.17zM331.949 173.186a35.496 35.496 0 0 0-4.471-.629 23.576 23.576 0 0 0-2.256-.041c-.36.008-.721.024-1.081.045-.396.023-.792.105-1.188.122-.041.002-.048.074-.005.073.374-.003.748.064 1.121.086.374.022.749.041 1.124.062.75.044 1.499.096 2.25.132a114.3 114.3 0 0 1 4.496.289c.081.008.086-.123.01-.139z"/><g><path style="fill:#ebebeb" d="m289.779 178.041 46.366 10.362-.772-14.682s5.061-4.281 4.6-11.714c-.268-4.326-4.297-11.568-6.737-16.138-5.945-11.132-13.7-8.254-16.396-6.262-10.294 7.608-27.061 38.434-27.061 38.434z"/><path style="fill:#455a64" d="M320.981 137.676s2.064 13.057 3.275 16.192c1.21 3.136 5.438 9.173 5.438 9.173s2.081-7.023 2.317-11.23-2.034-10.748-2.034-10.748.86.576 2.058 2.435c3.111 4.826 8.331 14.135 8.249 19.752-.099 6.799-4.374 10.486-4.374 10.486l1.792 17.819-5.372.688-3.276-4.41-1.443 4.295-41.314-13.724 8.594-10.391s13.604-21.18 18.153-25.488c5.208-4.931 7.937-4.849 7.937-4.849z"/><path style="fill:#263238" d="M323.095 170.333c2.019.256 4.043.582 6.005 1.134.976.275 1.932.593 2.887.933.476.169.955.322 1.436.473.495.155 1.026.301 1.546.33.047.003.044.073-.003.073-.507.002-.991.002-1.495-.063a10.6 10.6 0 0 1-1.419-.303c-.992-.269-1.972-.585-2.961-.864-1.996-.564-3.992-1.127-6.025-1.546-.094-.019-.067-.179.029-.167zM318.034 172.013a44.64 44.64 0 0 1 5.042-.123c.842.03 1.675.109 2.511.21.399.048.797.104 1.195.164.437.066.866.191 1.304.251.046.006.044.078-.003.073-.414-.044-.838-.02-1.255-.039-.419-.02-.837-.043-1.256-.063-.838-.04-1.676-.071-2.514-.12a145.484 145.484 0 0 0-5.028-.214c-.092-.003-.082-.132.004-.139z"/></g></g><g><path style="fill:#f7a9a0" d="M321.256 139.693c.024.883 4.644 8.761 8.595 8.089 1.463-.249.64-6.137.64-6.137l3.262-7.254-8.296-8.016c0 .001-4.206 12.944-4.201 13.318z"/><path style="fill:#263238" d="M323.907 131.216c1.044 5.71 4.868 8.813 6.766 10.025l3.082-6.848-8.296-8.018-1.552 4.841z"/><g><path style="fill:#f7a9a0" d="M343.338 120.241c2.903 12.7-4.376 15.873-7.115 16.496-2.487.566-11.026 2.175-15.226-10.157-4.2-12.332.787-17.697 6.406-19.291 5.619-1.595 13.032.251 15.935 12.952z"/><path style="fill:#263238" d="M340.331 117.613c-.305.038-.594.022-.9.029-.345.007-.62.049-.923-.145-.163-.104-.22-.382-.134-.55.201-.391.621-.505 1.037-.53.451-.028.805.066 1.172.328.355.254.151.818-.252.868zM332.132 121.019c.307-.02.587-.09.889-.141.341-.058.618-.069.879-.316.14-.133.144-.417.028-.565-.271-.346-.705-.379-1.118-.326-.448.057-.779.216-1.089.542-.301.317.006.833.411.806zM334.598 122.593c-.015-.031-.056.059-.046.093.258.849.411 1.865-.287 2.359-.022.015-.007.057.02.046.911-.388.694-1.735.313-2.498z"/><path style="fill:#263238" d="M333.592 121.905c-1.406.267-.769 3.06.534 2.812 1.282-.244.644-3.036-.534-2.812z"/><path style="fill:#263238" d="M333.077 122.177c-.208.214-.383.547-.671.643-.332.111-.656-.122-.943-.353-.03-.024-.048.006-.04.043.114.537.445 1.039 1.037.988.54-.046.807-.606.818-1.174.003-.105-.117-.233-.201-.147zM339.435 121.176c-.001-.035.077.026.084.062.163.872.497 1.844 1.344 1.959.026.003.033.048.003.05-.986.077-1.417-1.218-1.431-2.071z"/><path style="fill:#263238" d="M340.009 120.101c1.371-.413 2.095 2.358.825 2.741-1.249.376-1.973-2.395-.825-2.741z"/><path style="fill:#263238" d="M340.635 120.132c.257.09.544.3.81.249.309-.059.454-.417.573-.756.012-.035.04-.017.051.019.153.526.122 1.123-.36 1.358-.44.214-.9-.151-1.164-.646-.05-.091-.014-.26.09-.224zM336.215 129.76c.238.178.486.433.809.417.31-.015.65-.201.916-.347.026-.015.059.011.044.04-.183.368-.635.643-1.052.627-.408-.016-.651-.334-.796-.685-.021-.051.044-.078.079-.052z"/><g><path style="fill:#263238" d="M339.234 125.734s.43 1.267.548 1.881c.011.057-.133.113-.339.165-.009.005-.014.01-.024.005-1.052.377-2.215.213-3.044-.545-.054-.052.012-.13.075-.103.923.438 1.847.42 2.812.252.011-.178-.809-2.145-.713-2.171.33-.093 1.035.008 1.455.048-.819-2.665-2.058-5.177-2.834-7.842-.026-.096.108-.151.153-.071 1.485 2.541 2.495 5.587 3.411 8.317.118.34-1.234.122-1.5.064z"/></g><g><path style="fill:#263238" d="M333.029 108.938s.832 1.867.394 3.385c-.9 3.121-4.499 2.928-5.498 4.268-.936 1.256-.181 3.416-1.012 4.656-1.15 1.715-3.143 1.45-3.209 2.489-.065 1.039-.202 4.334-1.405 4.948-1.203.613-10.521-19.628 6.188-21.681 0 0 2.125-1.307 5.952-.098 4.225 1.335 6.982 7.501 6.982 7.501s-.098-.074-.748-.484c-.918-.579-1.336-1.185-1.999-1.548-1.041-.571-1.502-.215-2.577-.761-1.637-.834-3.068-2.675-3.068-2.675z"/><path style="fill:#263238" d="M332.624 108.058c.394.789.704 1.621.905 2.471.206.84.308 1.739.054 2.537-.262.779-.932 1.39-1.66 1.8-.742.422-1.598.647-2.392 1.128-.385.253-.756.57-.975 1.022-.214.445-.252.92-.277 1.362-.035.884-.076 1.757-.54 2.459a2.898 2.898 0 0 1-2.071 1.303c-.836.139-1.799.054-2.555.557.794-.44 1.697-.279 2.581-.355.906-.063 1.773-.568 2.308-1.324.571-.769.601-1.762.653-2.615.029-.433.079-.86.256-1.211.169-.345.492-.626.84-.845.707-.447 1.572-.694 2.357-1.15a4.518 4.518 0 0 0 1.076-.845c.307-.33.595-.732.704-1.192.242-.91.084-1.835-.164-2.685a11.354 11.354 0 0 0-1.1-2.417z"/><path style="fill:#263238" d="M333.067 108.765c.29.77.694 1.493 1.183 2.167.483.674 1.157 1.265 1.968 1.565.407.155.847.197 1.222.26.359.066.754.22.996.457.266.273.534.627.884.866.351.239.751.388 1.155.445-.381-.148-.744-.331-1.029-.606-.304-.257-.506-.586-.776-.924-.316-.369-.731-.508-1.153-.621-.423-.088-.801-.121-1.156-.265-.723-.273-1.334-.778-1.851-1.388-.528-.603-.991-1.273-1.443-1.956z"/></g><g><path style="fill:#f7a9a0" d="M323.636 126.876s-3.561-3.455-5.181-2.11c-1.62 1.345 1.594 6.728 3.874 7.11 2.28.382 2.675-1.721 2.675-1.721l-1.368-3.279z"/><path style="fill:#263238" d="M319.414 126.286c-.035.003-.032.053 0 .059 1.608.317 2.659 1.549 3.486 2.877-.55-.466-1.212-.652-1.85.018-.033.035.016.089.056.072.586-.249 1.047-.228 1.554.182.359.29.643.69.93 1.05.095.12.323.002.242-.141l-.019-.032c-.329-1.91-2.32-4.287-4.399-4.085z"/></g></g></g><g><path transform="rotate(-55.764 258.578 228.154)" style="fill:#ffc727" d="M237.071 193.989h43.049v68.319h-43.049z"/><path transform="rotate(-55.764 258.578 228.154)" style="opacity:.3" d="M237.071 193.989h43.049v68.319h-43.049z"/><path transform="rotate(-55.764 264.986 218.74)" style="opacity:.1" d="M254.867 184.574h20.272v68.319h-20.272z"/><path transform="rotate(34.241 268.59 213.402)" style="fill:#ffc727" d="M232.837 203.38h71.55v20.092h-71.55z"/><path transform="rotate(34.241 268.59 213.402)" style="opacity:.3" d="M232.837 203.38h71.55v20.092h-71.55z"/><path style="fill:#263238" d="m286.613 204.704-4.105 6.031-2.727-1.856 2.335-3.43-10.399-7.078-2.335 3.43-2.727-1.856 4.104-6.03z"/><path transform="rotate(34.239 243.453 208.451)" style="fill:#263238" d="M241.098 203.642h4.664v9.596h-4.664z"/><path transform="rotate(34.239 282.512 235.033)" style="fill:#263238" d="M280.156 230.225h4.663v9.597h-4.663z"/><g><path style="fill:#f7a9a0" d="M313.8 138.696c-20.543 3.623-35.163 7.414-37.166 11.457-3.69 7.449-5.799 29.682-5.176 35.443.323 2.991 23.837 2.721 23.527-.48-.376-3.869-1.754-24.671-1.674-25.054.172-.818 16.64-10.309 21.506-12.983 8.124-4.466 7.809-9.94-1.017-8.383z"/><path style="fill:#f7a9a0" d="M291.879 208.454c-2.276.74-3.713-1.278-3.713-1.278s-1.185 1.498-3.005 1.735c-2.084.272-3.424-2.878-3.424-2.878s-1.514 1.268-3.461 1.325c-2.021.059-3.826-2.926-3.826-2.926s-2.059.406-3.778-.752c-2.938-1.98-2.752-7.389-2.669-10.828.083-3.439 3.541-13.117 4.013-15.028l22.079.344s4.014 15.53 3.342 19.56c-.567 3.396-3.004 9.896-5.558 10.726z"/><path style="fill:#263238" d="M288.523 207.029c1.468-3.465 1.832-7.176 2.405-10.859.013-.082-.116-.101-.128-.018-.527 3.67-1.777 7.187-2.449 10.828-.019.1.133.142.172.049zM282.027 205.967c.308-.794.354-1.687.442-2.527.095-.904.173-1.809.239-2.717.13-1.816.219-3.635.254-5.454.002-.081-.121-.103-.128-.019a129.368 129.368 0 0 1-.837 8.122c-.11.837-.296 1.712-.217 2.559.012.125.2.156.247.036zM274.457 204.357c.296-.679.24-1.566.277-2.296.042-.828.089-1.657.14-2.484.102-1.656.206-3.311.366-4.962.008-.082-.119-.102-.127-.019-.171 1.677-.365 3.351-.522 5.029-.077.824-.149 1.649-.217 2.473-.058.701-.209 1.572 0 2.257.011.038.068.035.083.002z"/></g><g><path style="fill:#455a64" d="m294.993 180.386-24.728-.105s1.857-27.817 5.8-31.762c3.943-3.945 19.947-7.82 34.237-10.075 13.884-2.191 14.325 3.836 1.874 10.834-12.452 6.997-18.029 10.668-18.045 11.059-.017.389.862 20.049.862 20.049z"/><path style="fill:#263238" d="M292.934 174.832c.075-.004.075-.13 0-.135-6.771-.508-13.603-.523-20.39-.275-.075.003-.075.131 0 .135 6.774.432 13.603.599 20.39.275zM294.993 180.386c-.292-4.999-.834-15.043-1.074-20.042-.006-.133-.027-.104.091-.183 6.307-4.353 12.819-8.479 19.812-11.643-6.739 3.631-13.207 7.744-19.57 11.99l.091-.183c.189 4.996.512 15.065.65 20.061z"/></g></g><g><path style="fill:#263238" d="M320.726 137.918c-1.132 3.131-2.329 6.235-3.535 9.336l-.111-.302c1.793.889 3.564 1.82 5.347 2.728l.302.154-.202.277c-.819 1.126-1.629 2.258-2.468 3.37l-.005-.361c1.638 2.156 3.314 4.285 4.922 6.465a311.95 311.95 0 0 1 4.805 6.555 309.258 309.258 0 0 1-5.158-6.281c-1.713-2.098-3.359-4.249-5.042-6.371l-.139-.175.134-.187c.811-1.132 1.651-2.242 2.482-3.359l.1.43c-1.766-.941-3.544-1.859-5.299-2.82l-.194-.106.083-.196c1.298-3.065 2.605-6.124 3.978-9.157z"/><path style="fill:#263238" d="M330.813 141.983a130.781 130.781 0 0 1 2.19 3.572c.786 1.333 1.596 2.651 2.355 3.999l.156.277-.301.111-2.218.816.145-.43c.641.977 1.294 1.946 1.915 2.937l.084.134-.057.139c-.863 2.108-1.683 4.234-2.583 6.327a222.728 222.728 0 0 1-2.719 6.274 222.79 222.79 0 0 1 2.304-6.438c.775-2.143 1.63-4.255 2.441-6.384l.027.273c-.651-.971-1.269-1.963-1.899-2.947l-.198-.31.344-.12 2.231-.78-.144.387c-.758-1.348-1.465-2.725-2.196-4.088-.728-1.365-1.187-2.363-1.877-3.749zM329.781 166.138c.059 1.122.128 2.244.154 3.366.044 1.122.061 2.244.074 3.367v.016l-.003.02c-.416 2.407-.418 12.542-.952 14.927.354-2.419.105-12.599.577-14.996l-.003.036c.001-1.122.005-2.245.036-3.368.014-1.123.07-2.245.117-3.368zM328.559 168.862a.8.8 0 0 1-.785.646.82.82 0 0 1-.594-.279.835.835 0 0 1-.172-.688.83.83 0 0 1 .43-.564.812.812 0 0 1 .657-.021.802.802 0 0 1 .464.906zm0 0a.529.529 0 0 0-.128-.456.503.503 0 0 0-.399-.146c-.276.036-.388.255-.421.407-.031.152-.016.4.225.541a.507.507 0 0 0 .425.023.533.533 0 0 0 .298-.369zM328.065 175.977a.8.8 0 0 1-.785.646.82.82 0 0 1-.594-.279.838.838 0 0 1-.173-.688.83.83 0 0 1 .43-.564.816.816 0 0 1 .657-.021.802.802 0 0 1 .465.906zm0 0a.529.529 0 0 0-.128-.456.503.503 0 0 0-.399-.146c-.277.036-.388.255-.421.407-.031.152-.016.4.225.541a.507.507 0 0 0 .425.023.533.533 0 0 0 .298-.369zM328.256 182.606a.799.799 0 0 1-.785.646.823.823 0 0 1-.595-.279.831.831 0 0 1-.172-.688.83.83 0 0 1 .43-.564.816.816 0 0 1 .657-.021.801.801 0 0 1 .465.906zm0 0a.529.529 0 0 0-.128-.456.503.503 0 0 0-.399-.146c-.277.036-.388.255-.421.407-.031.152-.016.4.225.542a.507.507 0 0 0 .425.023.532.532 0 0 0 .298-.37z"/></g></g></g><g><path style="fill:#d3766a" d="M229.421 393.674c-1.462 1.339-50.638 23.213-53.041 22.862-.912-.128-4.515-7.104-8.63-15.658-.889-1.847-8.284-35.651-8.284-35.651l32.709-12.049 7.239 33.505s22.574.046 25.167.714c2.584.673 6.302 4.938 4.84 6.277z"/><path style="fill:#ebebeb" d="M165.995 394.17s1.536 6.252 1.755 6.703c4.116 8.556 7.718 15.529 8.633 15.663 2.402.351 51.582-21.523 53.038-22.859 1.466-1.342-2.251-5.607-4.838-6.273-2.593-.677-25.164-.718-25.164-.718l-1.21-6.596-32.214 14.08z"/><path style="fill:#ffc727" d="M230.41 393.452c-1.498 1.392-52.049 24.326-54.529 23.983-.941-.125-4.93-8.773-9.239-17.563l32.187-14.658.694 1.231c5.487.186 23.581.005 25.848.571 2.67.674 6.537 5.044 5.039 6.436z"/><path style="opacity:.4" d="M230.41 393.452c-1.498 1.392-52.049 24.326-54.529 23.983-.941-.125-4.93-8.773-9.239-17.563l32.187-14.658.694 1.231c5.487.186 23.581.005 25.848.571 2.67.674 6.537 5.044 5.039 6.436z"/><path style="fill:#263238" d="M228.768 391.759c-8.568 3.636-42.784 19.112-50.977 23.358-.067.034-.046.081.024.053 8.571-3.419 42.66-19.171 51.016-23.272.176-.087.117-.216-.063-.139zM221.295 386.673c-2.047.83-3.578 2.675-4.13 4.369-.531 1.628-.698 3.654.159 5.384.025.05.118.009.102-.047-1.021-3.536.674-7.817 3.918-9.6.065-.036.021-.135-.049-.106zM203.079 385.823c-3.413 1.492-6.802 4.473-7.651 8.203-.033.145.173.189.25.092 2.349-2.972 4.729-5.472 7.649-7.904.205-.171-.004-.498-.248-.391zM206.16 385.656c-3.413 1.492-6.802 4.473-7.652 8.203-.033.144.173.189.25.091 2.349-2.971 4.729-5.472 7.649-7.904.207-.171-.003-.497-.247-.39zM209.241 385.489c-3.413 1.492-6.802 4.473-7.651 8.203-.033.145.173.189.25.091 2.349-2.971 4.729-5.471 7.649-7.903.206-.172-.003-.498-.248-.391zM212.323 385.322c-3.413 1.492-6.802 4.473-7.651 8.203-.033.145.173.189.25.092 2.349-2.971 4.729-5.471 7.649-7.904.205-.172-.004-.498-.248-.391z"/><path style="fill:#263238" d="M202.638 375.11c-2.363-.645-3.894 1.728-4.282 3.686-.628 3.172-.284 7.062.853 10.071.028.074.096.078.15.049.183.21.562.284.734-.003 1.657-2.766 3.771-5.518 4.53-8.709.443-1.864.249-4.484-1.985-5.094zm-.891 9.096c-.782 1.38-1.627 2.713-2.357 4.122-.161-1.965-.406-3.913-.369-5.893.018-.945.054-1.915.201-2.85.229-1.455 2.271-5.8 4.283-2.263 1.109 1.951-.826 5.239-1.758 6.884z"/><path style="fill:#263238" d="M191.352 393.948c3.159-.886 5.823-3.109 8.521-4.875.28-.183.191-.559-.027-.734.027-.055.02-.123-.055-.148-3.053-1.016-6.953-1.204-10.097-.449-1.941.467-4.251 2.092-3.512 4.427.7 2.208 3.326 2.296 5.17 1.779zm-2.923-1.002c-3.615-1.868.645-4.084 2.09-4.37.928-.184 1.896-.259 2.839-.315 1.977-.117 3.933.05 5.903.132-1.378.786-2.677 1.684-4.025 2.521-1.606.997-4.814 3.062-6.807 2.032z"/><g><path style="fill:#37474f" d="M79.087 272.474s-5.544 22.11 4.667 34.056c13.263 15.519 59.779 17.791 61.758 20.474 4.665 6.324 19.392 69.691 19.392 69.691l34.121-13.317s-13.072-62.714-23.191-79.097c-6.631-10.736-46.669-16.815-54.821-21.619-1.43-.843-2.966-10.188-2.966-10.188h-38.96z"/><path style="fill:#263238" d="M194.48 373.275c-5.61 2.42-22.655 9.609-29.784 13.595-.054.031-.01.126.05.109 2.727-.752 24.298-10.904 29.806-13.548.103-.049.034-.202-.072-.156zM83.88 274.347c-1.1 9.642-1.504 26.068 8.672 30.989 7.362 3.543 15.433 5.29 23.347 7.202 9.562 2.219 19.237 3.933 28.803 6.16 2.773.801 5.838 1.102 8.266 2.768 2.243 3.028 3.002 6.825 4.197 10.324 4.561 15.726 7.968 31.759 11.18 47.805-3.604-15.948-7.086-31.955-11.737-47.636-1.167-3.374-1.987-7.124-4.102-10.026-2.331-1.477-5.318-1.808-7.966-2.542-9.577-2.144-19.218-4.014-28.777-6.269-7.924-1.968-16.03-3.777-23.415-7.392-10.423-5.134-9.741-21.529-8.468-31.383z"/></g><path style="opacity:.2" d="m116.572 272.475-5.707 47.244c-11.045-2.838-21.773-6.936-27.111-13.186-10.215-11.947-4.672-34.058-4.672-34.058h37.49z"/><g><path style="fill:#d3766a" d="M72.867 478.109c-.757-.005-14.204.553-15.347-.486-11.581-10.526-27.777-38.071-28.099-39.454-.218-.866 12.182-10.926 12.247-10.996 1.282-1.394 18.676-28.062 18.676-28.062l23.41 23.396-17.815 27.923-.408.398s.928 7.775 3.306 14.897c.33.987 4.627 5.269 4.911 6.088.941 2.715.167 6.303-.881 6.296z"/><path style="fill:#ebebeb" d="M72.871 478.106c-.766-.005-14.208.556-15.354-.488-11.58-10.522-27.777-38.064-28.1-39.453-.219-.866 12.183-10.92 12.247-10.991.318-.34 1.658-3.708 4.069-5.88l23.152 24.516-2.951 4.622-.408.393s.935 7.78 3.307 14.903c.335.984 4.628 5.266 4.91 6.088.946 2.71.173 6.298-.872 6.29z"/><g><path style="fill:#ffc727" d="M73.389 478.317c-.436.291-15.226.301-16.197-.588-9.273-8.495-28.403-38.194-28.594-39.881-.105-.881 6.546-6.813 13.886-11.797l23.238 24.819s1.376 9.682 3.217 14.879c.419 1.182 4.641 5.097 5.021 5.96 1.166 2.648.056 6.19-.571 6.608z"/><path style="opacity:.4" d="M73.389 478.317c-.436.291-15.226.301-16.197-.588-9.273-8.495-28.403-38.194-28.594-39.881-.105-.881 6.546-6.813 13.886-11.797l23.238 24.819s1.376 9.682 3.217 14.879c.419 1.182 4.641 5.097 5.021 5.96 1.166 2.648.056 6.19-.571 6.608z"/><path style="fill:#263238" d="M72.326 470.573c-2.109-1.418-4.815-1.76-6.74-1.28-1.849.461-3.826 1.494-4.859 3.307-.03.052.07.116.11.068 2.59-3.024 7.65-3.959 11.423-1.987.076.039.138-.06.066-.108zM41.394 435.461c-2.454-3.037-7.178.771-4.72 3.814 2.454 3.037 7.178-.772 4.72-3.814zM67.072 454.847c-2.048-2.815-5.449-5.308-9.024-5.333-.139-.001-.138.196-.033.247 3.184 1.546 5.944 3.215 8.75 5.391.198.153.454-.103.307-.305zM67.844 457.625c-2.048-2.815-5.449-5.308-9.024-5.333-.138-.001-.138.196-.033.247 3.184 1.546 5.944 3.215 8.75 5.391.198.153.454-.103.307-.305zM68.617 460.404c-2.047-2.815-5.45-5.308-9.024-5.333-.139-.001-.138.196-.033.247 3.184 1.546 5.944 3.215 8.75 5.391.197.153.453-.104.307-.305zM69.389 463.182c-2.048-2.815-5.45-5.308-9.024-5.333-.138-.001-.138.196-.033.247 3.184 1.546 5.944 3.215 8.751 5.391.197.153.452-.104.306-.305z"/><path style="fill:#263238" d="M73.526 476.295c-4.056-.569-8.208-.513-12.28-.941l-1.428-.15c-.521-.055-1.036-.048-1.427-.44-.68-.684-1.223-1.574-1.805-2.343a1057.25 1057.25 0 0 1-3.614-4.806c-4.827-6.447-9.554-12.967-14.235-19.519-1.322-1.85-2.656-3.692-3.979-5.541-1.328-1.854-2.776-3.617-4.11-5.465-.048-.066-.156-.004-.11.067 1.122 1.738 2.132 3.545 3.288 5.263 1.155 1.717 2.308 3.438 3.491 5.136a625.133 625.133 0 0 0 7.149 10.042 796.805 796.805 0 0 0 7.324 9.919 748.98 748.98 0 0 0 3.755 4.954c.609.797 1.214 1.596 1.831 2.387.522.668 1.011 1.021 1.868 1.11 4.708.489 9.517.407 14.243.677.195.01.238-.322.039-.35zM77.122 451.836c.073-2.34-2.474-3.235-4.38-3.16-3.088.122-6.628 1.309-9.172 3.036-.062.043-.051.107-.012.15-.155.217-.139.586.166.682 2.94.924 5.969 2.277 9.105 2.271 1.831-.002 4.224-.766 4.293-2.979zm-8.654 1.198c-1.457-.419-2.884-.908-4.357-1.273 1.79-.587 3.546-1.249 5.395-1.656.882-.194 1.792-.376 2.694-.448 1.403-.112 5.897.82 3.057 3.477-1.564 1.467-5.052.4-6.789-.1z"/><path style="fill:#263238" d="M57.098 445.542c1.527 2.739 4.187 4.721 6.43 6.835.233.219.563.053.676-.188.057.013.118-.008.125-.084.264-3.064-.43-6.732-1.832-9.486-.866-1.701-2.891-3.485-4.897-2.279-1.897 1.142-1.394 3.603-.502 5.202zm.279-2.94c.931-3.776 3.939-.31 4.528.969.378.822.663 1.705.925 2.569.549 1.812.829 3.668 1.192 5.517-1.038-1.106-2.161-2.113-3.239-3.18-1.285-1.272-3.919-3.794-3.406-5.875z"/></g><g><path style="fill:#37474f" d="M67.141 451.389 40.85 423.068s37.25-51.539 37.691-56.612c.392-4.494-11.298-49.697-11.74-61.131-.264-6.816 3.67-21.87 9.421-32.851h41.825s-.061 22.607-3.819 27.616c-1.117 1.49-7.534 2.738-7.534 2.738s11.459 56.995 8.23 72.797c-2.809 13.756-47.783 75.764-47.783 75.764z"/><path style="fill:#263238" d="M70.661 442.492c-3.685-3.914-2.567-2.848-6.3-6.717-1.827-1.893-13.842-14.322-15.885-15.759-.045-.032-.117.039-.086.084 1.407 2.064 13.658 14.26 15.524 16.114 3.813 3.789 2.764 2.656 6.624 6.397.073.072.192-.046.123-.119zM114.695 299.879c-4.404 1.094-8.703 2.799-12.828 4.616-.162.071-.077.312.097.255 4.31-1.409 8.697-2.736 12.92-4.373.332-.128.149-.582-.189-.498z"/><path style="fill:#263238" d="M109.591 298.288a19.074 19.074 0 0 0-1.021 2.315c-.227.613-.522 1.27-.498 1.929.005.128.178.153.254.073.478-.502.719-1.22 1.012-1.837.34-.714.696-1.421 1.014-2.145.213-.478-.517-.794-.761-.335z"/><path style="fill:#263238" d="M116.574 281.369c.002-.092-.186-.129-.197-.031-.33 3.121-.881 5.842-1.527 8.727-.3 1.339-2.453 8.695-5.194 7.887-.459-.135-.654-.545-.66-1.144-.007-.72.413-1.563.634-2.258a51.342 51.342 0 0 0 1.259-4.649c.637-2.923.988-5.874.895-8.856-.003-.098-.171-.106-.182-.008-.462 4.086-1.055 8.152-2.246 12.131-.573 1.912-2.077 4.73.319 5.257 2.441.537 4.601-4.218 5.056-5.531 1.27-3.665 1.764-7.704 1.843-11.525zM91.282 288.659c2.178-1.821 5.128-8.654 5.226-8.655.462-.001-1.621 7.381-4.603 9.652-2.346 1.787-10.003 1.85-10.557 1.316-.099-.094 7.546-.316 9.934-2.313z"/><g><path style="fill:#263238" d="M80.093 274.914c-2.915 9.141-5.994 18.353-7.347 27.872-.429 3.191.432 6.347.962 9.479 3.474 18.111 8.172 36.023 11.414 54.188.099.814.341 1.734.054 2.525-1.18 3.066-2.909 5.747-4.518 8.57-4.928 8.279-10.156 16.372-15.396 24.453a1682.464 1682.464 0 0 1-10.697 16.017c6.951-10.792 13.885-21.599 20.641-32.513 2.512-4.101 5.017-8.211 7.321-12.431.767-1.695 2.206-3.485 2.112-5.346-.675-4.848-2.545-12.792-3.527-17.665-2.639-12.563-5.449-25.093-7.826-37.719-.511-3.164-1.363-6.376-.885-9.598 1.471-9.538 4.661-18.704 7.692-27.832z"/></g></g></g><g><path style="fill:#d3766a" d="M116.854 217.062c6.634-3.432 26-13.812 27.083-14.749 1.084-.937 21.815-20.439 24.698-23.841 2.034-2.4 15.953 16.519 14.062 18.508-4.427 4.656-17.793 17.16-24.643 21.587-5.603 3.621-32.903 8.15-41.002 8.577-8.065.426-11.101-4.441-.198-10.082z"/><path style="fill:#d3766a" d="M191.684 189.499c-2.479 3.969-10.722 10.102-13.28 10.816-2.558.715-13.451-12.953-12.805-15.601.646-2.647 10.026-15.363 14.532-16.942 4.505-1.58 14.121 17.615 11.553 21.727z"/><path style="fill:#d3766a" d="M173.689 171.595c1.177 2.181 2.906 1.102 2.906 1.102s-3.757 3.002-2.805 5.572c.924 2.474 4.419.686 4.671.561-.197.161-3.577 3.01-2.355 5.493 1.272 2.58 4.472.183 4.678.027-.139.21-1.926 3.019-.569 4.695 2.334 2.879 7.103-4.178 10.07-4.624 0 0 1.329 4.943 1.398 5.078 0 0 4.674-6.621 3.849-10.59-.435-2.092-2.471-2.1-2.471-2.1s1.743-1.968.843-3.954c-.465-1.018-2.507-1.18-2.507-1.18s1.33-1.634.419-3.351c-.723-1.372-2.659-1.322-2.659-1.322s8.318-6.803 6.787-9.192c-2.637-4.115-19.615 11.437-21.722 10.977-1.045-.228-1.045 1.857-.533 2.808z"/><path style="fill:#263238" d="M188.85 166.964c.042-.013.032-.075-.013-.069-4.456.64-9.156 2.708-12.408 5.859-.107.104-.253.779-.127.671 3.168-2.706 7.989-5.043 12.548-6.461zM191.449 171.625c.05-.015.025-.098-.03-.089-4.588.684-9.817 3.16-13.139 7.233-.114.14-.076.379.067.229 2.414-2.542 8.991-6.117 13.102-7.373zM180.65 184.714c3.336-3.782 7.549-6.115 12.221-7.889.061-.023.022-.107-.034-.101-2.522.245-5.382 1.686-7.512 2.995-2.04 1.255-3.63 2.796-4.807 4.878-.046.081.061.198.132.117z"/><path style="fill:#263238" d="M176.512 172.681c-.128.124.417.197.294.326-1.336 1.403-3.606 4.03-2.711 5.376.72 1.077 2.666.857 3.381.48l1.797-.95-1.358 1.517c-.593.662-1.125 1.445-1.468 2.259-.344.812-.471 1.712-.117 2.429.355.756 1.059 1.183 1.87 1.038.807-.11 1.645-.581 2.323-1.114l1.893-1.489-1.296 2.017a7.863 7.863 0 0 0-.858 1.801c-.196.626-.291 1.291-.118 1.854.167.553.641 1.02 1.189 1.091.576.083 1.236-.163 1.838-.457 1.222-.615 2.328-1.502 3.467-2.325.568-.417 1.138-.837 1.729-1.23.591-.378 1.211-.783 1.919-.885-.689.174-1.245.633-1.806 1.044-.553.432-1.085.891-1.62 1.35-1.069.919-2.156 1.832-3.418 2.56-.637.338-1.34.682-2.187.618-.874-.073-1.573-.76-1.816-1.542-.251-.797-.122-1.594.084-2.305.221-.72.526-1.374.925-2.019l.597.528c-.796.636-1.654 1.162-2.73 1.343-.53.087-1.141.008-1.641-.294-.503-.301-.851-.746-1.083-1.241-.477-1.031-.251-2.176.148-3.076.412-.925.974-1.722 1.653-2.46l.439.568c-.925.449-3.074.932-4.4-.598-1.43-2.25 2.347-5.642 3.081-6.214z"/><g><path style="fill:#d3766a" d="M165.599 184.715s.226-12.938 3.199-16.148c2.974-3.21 12.518-1.422 15.894-.214 4.659 1.666 2.995 4.839.421 5.569-2.981.846-7.683.58-8.01.567 0 0 3.264 6.847.272 11.491-2.992 4.644-11.776-1.265-11.776-1.265z"/><path style="fill:#263238" d="M177.819 166.905c1.963.095 3.922.332 5.833.814 1.423.375 3.12.831 4.012 2.193 2.489 5.249-7.501 5.57-10.635 5.015l.456-.666c.472.876.786 1.755 1.022 2.68.721 2.724.555 5.703-.688 8.243.249-.891.49-1.777.556-2.689.311-2.98-.522-6.026-2.086-8.544 2.16.292 4.399.305 6.577-.06 2.496-.206 6.293-1.952 3.188-4.459-2.43-1.461-5.457-1.917-8.235-2.527z"/></g><g><path style="fill:#455a64" d="m180.632 201.214-16.995-19.923s-19.223 20.448-20.909 21.16c-1.686.712-24.805 12.807-30.318 16.245-5.512 3.438-6.19 9.614 7.54 8.584 13.73-1.03 30.3-5.077 36.012-6.792 4.602-1.383 24.67-19.274 24.67-19.274z"/><path style="fill:#263238" d="M180.628 201.211s-20.066 17.892-24.668 19.28c-4.086 1.225-13.738 3.645-23.934 5.297-4.043.661-8.169 1.202-12.076 1.494-13.731 1.026-13.052-5.152-7.538-8.586.644-.4 1.52-.919 2.578-1.523 8.017-4.576 26.245-14.094 27.741-14.719 1.684-.719 20.906-21.159 20.906-21.159l16.991 19.916z"/><path style="fill:#263238" d="M180.63 201.21s-20.07 17.89-24.67 19.28c-3.97 1.19-13.17 3.51-23.03 5.15l-.9.15c-4.05.66-8.17 1.2-12.08 1.49-13.73 1.03-13.05-5.15-7.54-8.58.65-.4 1.52-.92 2.58-1.53 1.77-1.01 4.03-2.26 6.51-3.6 8.74-4.74 20.07-10.63 21.23-11.12 1.69-.72 20.91-21.16 20.91-21.16l16.99 19.92z"/><path style="fill:#37474f" d="M174.558 204.002c-.68-.643-5.891-7.146-6.993-8.584-1.103-1.439-5.664-7.273-6.677-8.853-.045-.07.042-.148.101-.086 1.286 1.354 5.904 7.226 7.056 8.668 1.152 1.441 6.166 7.991 6.618 8.787.038.068-.058.112-.105.068z"/><path style="opacity:.1" d="m132.93 225.64-.9.15c-4.05.66-8.17 1.2-12.08 1.49-13.73 1.03-13.05-5.15-7.54-8.58.65-.4 1.52-.92 2.58-1.53 1.77-1.01 4.03-2.26 6.51-3.6l11.43 12.07z"/></g><g><path style="fill:#263238" d="M73.533 272.965c.096.167 53.676 10.961 53.676 10.961s1.522-3.968 1.76-13.346c.426-16.744-.819-44.478-4.901-53.136-1.592-3.378-8.811-9.113-17.66-2.579-8.212 6.063-22.196 31.131-29.199 46.324-3.551 7.701-3.676 11.776-3.676 11.776z"/></g><g><path transform="rotate(-34.147 153.357 313.69)" style="fill:#ffc727" d="M119.227 292.188h68.319v43.049h-68.319z"/><path transform="rotate(-34.147 153.357 313.69)" style="opacity:.3" d="M119.227 292.188h68.319v43.049h-68.319z"/><path transform="rotate(-34.147 146.966 304.264)" style="opacity:.1" d="M112.835 294.151h68.319v20.272h-68.319z"/><path transform="rotate(-34.147 143.362 298.955)" style="fill:#ffc727" d="M107.615 288.931h71.55v20.092h-71.55z"/><path transform="rotate(-34.147 143.362 298.955)" style="opacity:.3" d="M107.615 288.931h71.55v20.092h-71.55z"/><path style="fill:#263238" d="m141.913 279.029 4.094 6.037-2.73 1.852-2.328-3.435-10.412 7.06 2.329 3.435-2.73 1.851-4.094-6.037z"/><path transform="rotate(-34.147 129.45 320.525)" style="fill:#263238" d="M127.145 315.752h4.664v9.596h-4.664z"/><path transform="rotate(-34.147 168.555 294.018)" style="fill:#263238" d="M166.248 289.235h4.663v9.597h-4.663z"/><g><path style="fill:#d3766a" d="M101.863 220.479c-10.017 17.533-14.536 34.014-12.719 37.86 2.123 4.495 18.877 20.218 26.8 23.343 2.798 1.104 15.336-17.165 12.558-18.786-3.357-1.959-20.888-11.815-21.151-12.103-.563-.618 1.228-20.723 1.906-26.234 1.131-9.201-2.948-11.861-7.394-4.08z"/><path style="fill:#d3766a" d="M145.612 279.069c-.732 2.278-3.209 2.263-3.209 2.263s.522 1.838-.351 3.452c-.999 1.849-4.337 1.093-4.337 1.093s.143 1.969-.95 3.582c-1.134 1.674-4.611 1.391-4.611 1.391s-.875 1.908-2.82 2.624c-3.325 1.224-7.603-2.091-10.343-4.17-2.741-2.08-8.566-10.546-9.84-12.046l13.197-17.705s14.943 5.83 17.818 8.733c2.421 2.447 6.267 8.226 5.446 10.783z"/><path style="fill:#263238" d="M142.493 280.957c-1.951-3.218-4.748-5.684-7.399-8.303-.059-.058-.15.035-.09.093 2.667 2.575 4.789 5.646 7.348 8.321.071.074.194-.024.141-.111zM137.831 285.605c-.464-.714-1.161-1.274-1.791-1.837a85.263 85.263 0 0 0-2.063-1.783 104.851 104.851 0 0 0-4.275-3.397c-.064-.048-.155.038-.09.093a127.823 127.823 0 0 1 4.101 3.577c.67.612 1.335 1.231 1.996 1.853.615.579 1.215 1.241 1.948 1.673.109.063.244-.072.174-.179zM132.096 290.801c-.378-.637-1.13-1.111-1.7-1.568a223.957 223.957 0 0 1-1.933-1.567c-1.283-1.052-2.565-2.104-3.81-3.2-.062-.054-.152.037-.09.092 1.259 1.12 2.504 2.257 3.773 3.366.623.545 1.25 1.086 1.879 1.623.535.457 1.152 1.089 1.831 1.32.038.014.069-.034.05-.066z"/></g><g><path style="fill:#263238" d="m122.209 258.312-14.521 20.937s-18.896-15.717-19.789-21.223c-.893-5.506 4.437-22.83 11.712-34.857 7.275-12.027 11.492-9.373 9.882 4.819-1.61 14.192-1.749 22.059-1.442 22.3.308.242 14.158 8.024 14.158 8.024z"/><path style="fill:#37474f" d="M115.789 256.596c.04-.066-.066-.135-.113-.074-4.26 5.473-8.141 11.269-11.778 17.171-.04.065.067.135.113.074 4.198-5.517 8.205-11.227 11.778-17.171z"/><path style="fill:#37474f" d="M98.95 223.469c-4.203 8.892-12.239 25.263-10.715 34.91 1.374 3.833 4.602 6.75 7.36 9.665 2.795 2.821 6.094 5.736 9.079 8.388.937.91 2.303 1.881 2.985 2.796l1.491-1.968-1.434 2.011-.023.032-.035-.033c-4.097-3.639-8.441-7.065-12.354-10.93-3.694-3.838-8.709-8.106-7.754-14.017 1.331-10.983 6.402-21.13 11.4-30.854zM122.209 258.312a1666.03 1666.03 0 0 1-14.37-7.899c.08-8.096.427-16.245 2.002-24.203-1.144 7.659-1.191 16.94-1.685 23.895a1628.744 1628.744 0 0 1 14.053 8.207z"/><path style="fill:#37474f" d="M109.209 230.574c.283-.894.614-1.716.976-2.578-.029.934-.396 1.849-.976 2.578z"/></g></g><g><path style="fill:#d3766a" d="M119.784 222.922c-2.378-.105-6.908-4.969-8.497-8.872-.108-.268.583-2.877 1.271-6.087.41-1.95.821-4.13 1.052-6.147l12.297 4.523s-1.728 4.085-2.11 7.604a4.532 4.532 0 0 0-.008.838c0 .039.006.086.003.139.078 1.601-.284 8.165-4.008 8.002z"/><path style="fill:#263238" d="M123.789 214.782c-.003.037.003.085.008.141a8.71 8.71 0 0 1-1.316-.083c-7.311-1.004-8.1-10.234-8.177-12.762l11.608 4.26s-1.731 4.086-2.114 7.601a5.832 5.832 0 0 0-.009.843z"/><path style="fill:#d3766a" d="M109.296 189.775c-.616 4.68 3.882 17.152 7.527 19.492 5.285 3.392 12.869 2.536 15.481-3.573 2.532-5.921-3.617-22.072-7.59-24.088-5.851-2.97-14.508 1.257-15.418 8.169z"/><path style="fill:#263238" d="M123.229 195.578c-.018-.03-.052.063-.039.097.319.834.544 1.844-.122 2.389-.021.017-.004.058.023.045.887-.454.574-1.791.138-2.531z"/><path style="fill:#263238" d="M122.17 194.958c-1.393.367-.556 3.126.735 2.786 1.27-.335.433-3.094-.735-2.786zM128.137 193.993c-.003-.035.079.02.089.055.232.863.643 1.812 1.502 1.861.027.002.038.045.008.05-.984.153-1.517-1.112-1.599-1.966z"/><path style="fill:#263238" d="M128.629 192.869c1.343-.521 2.286 2.203 1.043 2.685-1.224.475-2.168-2.249-1.043-2.685zM120.888 194.223c.347-.209.632-.459.954-.701.363-.273.681-.453.837-.9.084-.24-.083-.574-.308-.678-.525-.241-1.053-.017-1.503.293-.489.337-.78.722-.945 1.291-.162.553.507.97.965.695zM129.35 191.807c-.401.053-.78.036-1.183.048-.454.014-.814.071-1.215-.181-.216-.135-.294-.5-.182-.722.26-.516.812-.67 1.357-.709.592-.042 1.06.077 1.544.418.471.331.209 1.075-.321 1.146zM124.852 203.758c.265.138.553.352.871.284.305-.065.613-.305.853-.494.024-.019.06.002.05.033-.122.395-.527.742-.944.793-.407.05-.7-.227-.901-.552-.028-.046.032-.084.071-.064z"/><g><path style="fill:#263238" d="M124.974 200.927c.703.597 1.53.789 2.335.705.36-.035.721-.132 1.061-.27.069-.023.135-.051.193-.084.06-.027.114-.051.179-.085.095-.045.125-.144.113-.243l-.002-.006c-.01-.031-.018-.056-.035-.085l-.002-.006-.024-.075a24.549 24.549 0 0 0-.549-1.645c.277.047 1.67.227 1.546-.111-1.034-2.794-2.183-5.901-3.801-8.463-.049-.087-.186-.022-.149.069.887 2.724 2.247 5.275 3.181 7.997-.436-.03-1.158-.111-1.5 0-.085.055.744 1.884.802 2.188 0 0 .004.012.004.033-1.063.477-1.997.396-3.296-.021-.078-.029-.129.05-.056.102z"/></g><g><path style="fill:#263238" d="M112.949 202.248c2.199-1.119.214-6.987.214-6.987s2.502-2.082 1.567-7.718c0 0 3.788 4.554 12.978.053 0 0-.229-2.461-2.439-4.755 0 0 1.801 1.473 4.221 4.328 0 0-.485-8.778-8.273-9.218-3.097-.175-7.137 1.487-12.319 6.759 0 0-2.506-3.331-3.055-2.588-.549.743 2.058 3.761 2.058 3.761s-3.045.106-3.308.843c-.226.633 2.664.406 2.664.406s-3.74 2.806-1.351 7.413c2.193 4.226 5.955 8.256 7.043 7.703z"/><path style="fill:#263238" d="M107.996 186.801c-2.513.778-4.118 3.366-3.618 5.966.278 1.442 1.137 2.802 2.025 3.946.972 1.252 2.147 2.241 3.395 3.205.069.053.141-.064.071-.116-1.137-.85-2.098-1.966-2.919-3.121-.772-1.086-1.552-2.315-1.937-3.601-.764-2.551.599-5.158 3.035-6.141.078-.031.028-.163-.052-.138zM115.273 178.532c-1.504.906-2.883 2.101-4.097 3.366-1.162 1.211-2.252 2.529-2.95 4.067-.035.078.066.145.116.071 1.784-2.652 4.31-4.846 6.913-6.677 2.435-1.712 5.635-2.824 8.461-1.343.046.024.088-.041.043-.07-2.641-1.665-5.963-.935-8.486.586z"/></g><g><path style="fill:#d3766a" d="M114.935 199.986s-3.676-3.602-5.363-2.215c-1.687 1.386 1.619 6.986 3.982 7.394 2.362.408 2.783-1.771 2.783-1.771l-1.402-3.408z"/><path style="fill:#263238" d="M110.559 199.352c-.036.004-.034.054-.001.061 1.666.337 2.75 1.62 3.6 3.001-.568-.487-1.254-.683-1.919.009-.035.037.016.092.057.075.609-.255 1.087-.231 1.611.197.371.303.663.719.959 1.093.098.125.335.004.252-.146l-.019-.034c-.33-1.98-2.383-4.455-4.54-4.256z"/></g><g><path style="fill:#ebebeb" d="m123.833 216.09-2.713 5.942-9.368-10.587-2.991 2.817s7.699 16.229 7.827 15.544l4.689-6.235 3.174 5.015.782-9.711-1.4-2.785z"/><path style="fill:#263238" d="M125.163 222.929c.067-1.901.178-2.035.158-3.938-.001-.068-.102-.108-.127-.031-.563 1.786-.772 7.279-.955 9.01l-.018-.022c-.169-.216-2.899-4.434-2.945-4.377-.785.972-4.459 5.51-4.66 5.928-1.216-2.577-5.928-11.975-7.426-14.447-.043-.071-.151-.027-.12.054 1.032 2.696 7.245 15.338 7.363 15.316.072.068 4.416-5.52 4.87-6.596.594.9 3.312 5.612 3.354 5.332.284-1.885.438-4.325.506-6.229z"/></g></g></g></g><g><path style="fill:#fff" d="M533.189 42.91c0 11.757-9.536 21.293-21.293 21.293a21.16 21.16 0 0 1-12.685-4.199l-10.431 2.663 4.342-9.713a21.124 21.124 0 0 1-2.519-10.044c0-11.757 9.536-21.292 21.293-21.292 11.757-.001 21.293 9.535 21.293 21.292z"/><path style="fill:#263238" d="M533.189 42.91c.187 12.273-10.94 22.525-23.146 21.449a21.523 21.523 0 0 1-11.044-4.069l.301.059-10.41 2.743-.88.232.37-.837 4.304-9.73.016.425c-4.924-8.745-2.526-20.574 5.249-26.837 13.98-11.535 35.236-1.551 35.24 16.565zm0 0c.059-13.603-13.251-23.982-26.401-20.366-12.966 3.237-19.647 18.456-13.241 30.181l.112.212-.096.213-4.381 9.695-.509-.604 10.451-2.583.169-.042.133.101c13.827 10.469 33.679.498 33.763-16.807z"/><path style="fill:#ffc727" d="m509.132 56.526-9.543-9.659 3.206-3.167 5.574 5.642 11.581-18.155 3.8 2.423z"/></g><g><path style="fill:#ffc727" d="M408.978 441.151h239.956v37.272H408.978z"/><path style="opacity:.3;fill:#fff" d="M408.978 441.151h240.096v5.859H408.978z"/><g style="opacity:.1"><path d="M414.382 448.625c72.807-.46 154.481-.635 227.289-.48-72.808.463-154.481.633-227.289.48zM414.402 456.115c72.807-.46 154.481-.634 227.289-.48-72.807.462-154.481.632-227.289.48zM414.423 463.604c72.807-.46 154.481-.634 227.289-.48-72.808.462-154.481.632-227.289.48zM414.443 471.093c72.807-.46 154.481-.635 227.289-.48-72.807.463-154.481.633-227.289.48z"/></g><path transform="rotate(-90.155 658.575 459.545)" style="fill:#a6a6a6" d="M638.116 454.196h40.908v10.705h-40.908z"/><path transform="rotate(-90.155 646.738 459.578)" style="fill:#a6a6a6" d="M626.283 454.228h40.908v10.706h-40.908z"/><g><path style="fill:#ffc727" d="m408.892 441.152-26.772 14.079-8.844 4.616 8.87 4.65 26.847 13.926 5.41-3.762s-5.34-3.594-5.422-3.676l5.402-3.786s-5.34-3.594-5.423-3.676l5.402-3.705s-5.34-3.676-5.422-3.758l5.403-3.705s-5.34-3.676-5.423-3.758l5.402-3.704c0-.001-5.348-3.659-5.43-3.741z"/><path style="opacity:.7;fill:#fff" d="m408.892 441.152-26.772 14.079-8.844 4.616 8.87 4.65 26.847 13.926 5.41-3.762s-5.34-3.594-5.422-3.676l5.402-3.786s-5.34-3.594-5.423-3.676l5.402-3.705s-5.34-3.676-5.422-3.758l5.403-3.705s-5.34-3.676-5.423-3.758l5.402-3.704c0-.001-5.348-3.659-5.43-3.741z"/><path style="fill:#263238" d="m382.119 455.231-8.844 4.616 8.87 4.65z"/></g><path style="fill:#ff9abb" d="M680.452 478.453H663.87v-37.777h16.582a5.07 5.07 0 0 1 5.071 5.071v27.636c0 2.8-2.27 5.07-5.071 5.07z"/><path style="opacity:.3;fill:#fff" d="M685.516 448.24v6.204c0-4.176-3.385-7.576-7.561-7.576h-14.078v-6.189h14.078a7.56 7.56 0 0 1 7.561 7.561z"/></g></svg>