<svg xmlns="http://www.w3.org/2000/svg" viewBox="0 0 500 500" style="enable-background:new 0 0 500 500" xml:space="preserve"><path style="fill:#e6e6e6" d="M0 382.398h500v.25H0zM427.325 391.055h18.527v.25h-18.527zM394.586 391.055h26.155v.25h-26.155zM330.03 391.305h19.359v.25H330.03zM41.576 389.029h43.193v.25H41.576zM26.339 389.029h6.333v.25h-6.333zM101.972 396.556h62.978v.25h-62.978zM237.014 337.8H43.915a5.715 5.715 0 0 1-5.708-5.708V60.66a5.715 5.715 0 0 1 5.708-5.708h193.099a5.715 5.715 0 0 1 5.707 5.708v271.432a5.715 5.715 0 0 1-5.707 5.708zM43.915 55.203a5.464 5.464 0 0 0-5.458 5.458v271.432a5.464 5.464 0 0 0 5.458 5.458h193.099a5.463 5.463 0 0 0 5.457-5.458V60.66a5.464 5.464 0 0 0-5.457-5.458H43.915zM453.31 337.8H260.212a5.715 5.715 0 0 1-5.707-5.708V60.66a5.715 5.715 0 0 1 5.707-5.708H453.31a5.714 5.714 0 0 1 5.708 5.708v271.432a5.714 5.714 0 0 1-5.708 5.708zM260.212 55.203a5.463 5.463 0 0 0-5.457 5.458v271.432a5.463 5.463 0 0 0 5.457 5.458H453.31a5.464 5.464 0 0 0 5.458-5.458V60.66a5.464 5.464 0 0 0-5.458-5.458H260.212z"/><g><path style="fill:#e0e0e0" d="M285.318 85.564h135.699v129.559H285.318z"/><path style="fill:#f5f5f5" d="M288.334 85.564h135.699v129.559H288.334z"/><path transform="rotate(90 356.184 150.344)" style="fill:#fff" d="M297.484 87.907h117.399V212.78H297.484z"/><path transform="rotate(90 417.48 150.344)" style="fill:#e0e0e0" d="M358.781 149.204H476.18v2.28H358.781z"/><path style="fill:#f5f5f5" d="M290.573 172.553h131.221v8.163H290.573z"/><path style="fill:#e6e6e6" d="M226.473 319.25h26.784v59.386h-26.784zM231.616 378.636h117.917v3.763H231.616z"/><path transform="rotate(-180 303.967 348.943)" style="fill:#fafafa" d="M253.257 319.25h101.418v59.386H253.257z"/><path transform="rotate(-180 303.967 336.298)" style="fill:#e6e6e6" d="M263.788 326.559h80.357v19.476h-80.357z"/><path transform="rotate(-180 303.967 361.587)" style="fill:#e6e6e6" d="M263.788 351.849h80.357v19.476h-80.357z"/><path style="fill:#fafafa" d="M316.011 337.633h-24.089c-.649 0-1.18-.531-1.18-1.18v-.311c0-.649.531-1.18 1.18-1.18h24.089c.649 0 1.18.531 1.18 1.18v.311c0 .649-.531 1.18-1.18 1.18zM316.011 362.923h-24.089c-.649 0-1.18-.531-1.18-1.18v-.311c0-.649.531-1.18 1.18-1.18h24.089c.649 0 1.18.531 1.18 1.18v.311c0 .649-.531 1.18-1.18 1.18z"/><g><path style="fill:#e6e6e6" d="M62.373 256.417h27.318v118.475H62.373zM67.618 374.892h134.719v7.507H67.618z"/><path transform="rotate(-180 148.636 315.654)" style="fill:#fafafa" d="M89.691 256.417h117.891v118.475H89.691z"/><path transform="rotate(-180 148.636 290.427)" style="fill:#e6e6e6" d="M100.431 270.999h96.411v38.855h-96.411z"/><path transform="rotate(-180 148.636 340.88)" style="fill:#e6e6e6" d="M100.431 321.453h96.411v38.855h-96.411z"/><path style="fill:#fafafa" d="M159.46 293.091h-21.647a2.672 2.672 0 0 1-2.664-2.664 2.672 2.672 0 0 1 2.664-2.664h21.647a2.672 2.672 0 0 1 2.664 2.664 2.672 2.672 0 0 1-2.664 2.664zM159.46 343.545h-21.647a2.672 2.672 0 0 1-2.664-2.664 2.672 2.672 0 0 1 2.664-2.664h21.647a2.672 2.672 0 0 1 2.664 2.664 2.672 2.672 0 0 1-2.664 2.664z"/></g><g><path style="fill:#fafafa" d="M314.99 309.826s-20.122-34.688 7.794-62.3c0 0 7.286 4.749 7.174 11.133-.112 6.384-7.803 8-6.15 13.327 1.653 5.328 8.914 10.555 4.148 14.96s.768 8.325.446 13.722c-.323 5.396-13.412 9.158-13.412 9.158z"/><path style="fill:#e6e6e6" d="M285.583 299.917s.688 19.333 27.063 19.333 27.063-19.333 27.063-19.333h-54.126z"/><path style="fill:#e6e6e6" d="M316.516 312.997s8.157-39.263-27.042-56.664c0 0-5.417 6.804-3.298 12.827 2.119 6.023 9.927 5.131 10.039 10.708.112 5.577-5.131 12.827.781 15.504 5.912 2.677 1.896 8.143 3.904 13.162 2.008 5.021 15.616 4.463 15.616 4.463z"/></g><g><path style="fill:#f0f0f0" d="M156.05 145.839s.688 11.62 27.063 11.62 27.063-11.62 27.063-11.62H156.05z"/><path style="fill:#f5f5f5" d="m84.53 165.918-4.334 28.889h4.334l26.563-28.889z"/><path style="fill:#e0e0e0" d="M80.196 165.918v28.889l26.563-28.889z"/><path style="fill:#f5f5f5" d="m188.696 165.918-4.333 28.889h4.333l26.563-28.889z"/><path style="fill:#e0e0e0" d="M184.363 165.918v28.889l26.563-28.889z"/><g><path transform="rotate(-180 75.14 161.966)" style="fill:#e0e0e0" d="M60.696 157.459h28.889v9.015H60.696z"/><path style="fill:#f5f5f5" d="M89.585 157.459h143.63v9.015H89.585z"/></g><g><path style="fill:#e0e0e0" d="M119.104 120.442c7.465 1.03 12.085-15.196-4.405-28.935.891 15.905-8.61 27.14 4.405 28.935z"/><path style="fill:#e0e0e0" d="M124.585 141.695c10.824-7.586 3.416-34.099-30.086-32.178 14.496 19.516 11.215 45.404 30.086 32.178z"/><path style="fill:#e0e0e0" d="M120.766 141.517c-7.196-7.749 3.046-27.248 28.931-20.127-14.612 12.835-16.386 33.637-28.931 20.127z"/><path style="fill:#f5f5f5" d="M129.993 130.217c2.488-3.03 5.429-6.439 4.715-10.04-.738-3.635-2.494-6.287-1.077-10.123 1.698-4.599 1.368-10.091-1.501-9.632-2.864.462-6.088 3.824-6.001 8.283.052 4.316-2.768 5.694-5.421 7.992-2.644 2.278-3.679 5.646-4.154 8.96-.837 5.226-7.601 4.235-9.4 8.777-1.853 4.377 1.848 10.215 7.771 11.557 5.944 1.346 10.141 2.178 14.178-2.44 4.105-4.912-2.789-8.993.89-13.334z"/><path style="fill:#e6e6e6" d="M109.622 157.459h22.245l1.679-14.793h-25.604z"/><path transform="rotate(-180 120.745 143.678)" style="fill:#e6e6e6" d="M106.285 142.045h28.92v3.265h-28.92z"/></g></g><g><path style="fill:#f5f5f5" d="M157.705 240.482h24.163v15.935h-24.163z"/><path transform="rotate(-180 148.636 248.45)" style="fill:#e0e0e0" d="M139.568 240.482h18.136v15.935h-18.136z"/></g><g><path style="fill:#f5f5f5" d="M122.12 232h10.36v24.417h-10.36z"/><path transform="rotate(-180 118.232 244.208)" style="fill:#e0e0e0" d="M114.344 232h7.776v24.417h-7.776z"/></g></g><g><ellipse style="fill:#f5f5f5" cx="250" cy="416.238" rx="193.889" ry="11.323"/></g><g><path style="fill:#407bff" d="M157.179 231.825c1.203.521 2.418.87 3.622 1.011a10.955 10.955 0 0 0 7.325-1.7c3.434-2.216 5.515-6.106 5.179-9.681a.7.7 0 0 0-.708-.636c-8.652-.112-14.057 4.961-16.265 7.576-.941-4-1.768-8.23-2.373-12.581 2.002 1.409 3.889 2.222 5.692 2.434a7.994 7.994 0 0 0 2.563-.105c4.474-.92 8.04-5.718 11.228-10.765a.772.772 0 0 0 .099-.622.688.688 0 0 0-.402-.451c-8.147-3.392-16.786 3.95-19.546 6.607-.415-3.647-.66-7.356-.675-11.063 1.871.578 3.664.976 5.35 1.175 4.388.516 8.08-.249 10.721-2.281 3.131-2.409 4.581-6.393 4.195-11.521-.032-.417-.406-.702-.836-.641-9.279 1.342-16.414 7.285-19.383 10.151.021-.66.041-1.319.078-1.977a.768.768 0 0 0-.134-.462c-.364-2.875-1.579-5.069-3.544-6.342-2.322-1.508-5.585-1.713-9.693-.611a.871.871 0 0 0-.559.467.745.745 0 0 0 .019.688c.171.295 3.758 6.354 10.085 7.098a11.1 11.1 0 0 0 2.064.043 87.102 87.102 0 0 0-.079 5.482c-2.527-2.188-8.085-5.825-16.181-4.632a.867.867 0 0 0-.568.342.788.788 0 0 0-.147.622c1.26 6.191 4.313 10.355 8.165 11.138.171.035.349.064.536.086 1.989.234 4.863-.355 8.338-3.669.242 4.277.748 8.516 1.433 12.621-3.358-2.168-11.07-6.135-17.933-2.283-.381.214-.542.673-.363 1.034 2.787 5.64 5.833 8.583 9.312 8.992l.088.01c2.898.305 6.021-1.128 9.509-4.362.788 4.085 1.725 8 2.724 11.643-3.236-2.711-7.379-2.828-12.781-.398a.86.86 0 0 0-.484.578.71.71 0 0 0 .189.678c.23.225 4.16 3.98 8.979 4.547 1.725.203 3.564-.009 5.389-.932 3.491 11.501 7.165 19.366 7.239 19.523.118.25.355.404.621.436.17.02.351-.01.521-.098.437-.223.634-.737.44-1.148-.086-.182-5.186-11.105-9.049-26.021z"/><path d="M157.179 231.825c1.203.521 2.418.87 3.622 1.011a10.955 10.955 0 0 0 7.325-1.7c3.434-2.216 5.515-6.106 5.179-9.681a.7.7 0 0 0-.708-.636c-8.652-.112-14.057 4.961-16.265 7.576-.941-4-1.768-8.23-2.373-12.581 2.002 1.409 3.889 2.222 5.692 2.434a7.994 7.994 0 0 0 2.563-.105c4.474-.92 8.04-5.718 11.228-10.765a.772.772 0 0 0 .099-.622.688.688 0 0 0-.402-.451c-8.147-3.392-16.786 3.95-19.546 6.607-.415-3.647-.66-7.356-.675-11.063 1.871.578 3.664.976 5.35 1.175 4.388.516 8.08-.249 10.721-2.281 3.131-2.409 4.581-6.393 4.195-11.521-.032-.417-.406-.702-.836-.641-9.279 1.342-16.414 7.285-19.383 10.151.021-.66.041-1.319.078-1.977a.768.768 0 0 0-.134-.462c-.364-2.875-1.579-5.069-3.544-6.342-2.322-1.508-5.585-1.713-9.693-.611a.871.871 0 0 0-.559.467.745.745 0 0 0 .019.688c.171.295 3.758 6.354 10.085 7.098a11.1 11.1 0 0 0 2.064.043 87.102 87.102 0 0 0-.079 5.482c-2.527-2.188-8.085-5.825-16.181-4.632a.867.867 0 0 0-.568.342.788.788 0 0 0-.147.622c1.26 6.191 4.313 10.355 8.165 11.138.171.035.349.064.536.086 1.989.234 4.863-.355 8.338-3.669.242 4.277.748 8.516 1.433 12.621-3.358-2.168-11.07-6.135-17.933-2.283-.381.214-.542.673-.363 1.034 2.787 5.64 5.833 8.583 9.312 8.992l.088.01c2.898.305 6.021-1.128 9.509-4.362.788 4.085 1.725 8 2.724 11.643-3.236-2.711-7.379-2.828-12.781-.398a.86.86 0 0 0-.484.578.71.71 0 0 0 .189.678c.23.225 4.16 3.98 8.979 4.547 1.725.203 3.564-.009 5.389-.932 3.491 11.501 7.165 19.366 7.239 19.523.118.25.355.404.621.436.17.02.351-.01.521-.098.437-.223.634-.737.44-1.148-.086-.182-5.186-11.105-9.049-26.021z" style="opacity:.6"/></g><g><path style="fill:#407bff" d="M417.844 371.629H176.05c-3.955 0-7.191-3.236-7.191-7.191V215.524c0-3.955 3.236-7.191 7.191-7.191h241.794c3.955 0 7.191 3.236 7.191 7.191v148.915c0 3.955-3.236 7.19-7.191 7.19z"/><path style="opacity:.6" d="M417.844 371.629H176.05c-3.955 0-7.191-3.236-7.191-7.191V215.524c0-3.955 3.236-7.191 7.191-7.191h241.794c3.955 0 7.191 3.236 7.191 7.191v148.915c0 3.955-3.236 7.19-7.191 7.19z"/><path style="fill:#407bff" d="M329.719 416.238h-59.823c5.86-22.1 2.353-45.906-10.521-68.006h59.823c12.874 22.1 16.381 45.906 10.521 68.006z"/><path style="fill:#407bff" d="M326.596 416.238h-59.823c5.86-22.1 2.353-45.906-10.521-68.006h59.823c12.874 22.1 16.381 45.906 10.521 68.006z"/><path style="fill:#407bff" d="M328.635 379.971h-60.473c-1.926-10.72-5.895-21.416-11.909-31.74h60.473c6.013 10.324 9.983 21.02 11.909 31.74z"/><g style="opacity:.4"><path d="M329.719 416.238h-59.823c5.86-22.1 2.353-45.906-10.521-68.006h59.823c12.874 22.1 16.381 45.906 10.521 68.006z"/><path d="M326.596 416.238h-59.823c5.86-22.1 2.353-45.906-10.521-68.006h59.823c12.874 22.1 16.381 45.906 10.521 68.006z"/><path d="M328.635 379.971h-60.473c-1.926-10.72-5.895-21.416-11.909-31.74h60.473c6.013 10.324 9.983 21.02 11.909 31.74z"/></g><path style="fill:#407bff" d="M326.596 416.238h-59.823c5.86-22.1 2.353-45.906-10.521-68.006h59.823c12.874 22.1 16.381 45.906 10.521 68.006z"/><path style="opacity:.2" d="M326.596 416.238h-59.823c5.86-22.1 2.353-45.906-10.521-68.006h59.823c12.874 22.1 16.381 45.906 10.521 68.006z"/><path style="opacity:.2" d="M327.946 379.971h-59.897c-1.908-10.72-5.839-21.416-11.796-31.74h59.897c5.956 10.324 9.888 21.02 11.796 31.74z"/><path style="fill:#407bff" d="M414.447 371.629H172.652c-3.955 0-7.191-3.236-7.191-7.191V215.524c0-3.955 3.236-7.191 7.191-7.191h241.794c3.955 0 7.191 3.236 7.191 7.191v148.915c0 3.955-3.235 7.19-7.19 7.19z"/><path style="opacity:.3" d="M414.447 371.629H172.652c-3.955 0-7.191-3.236-7.191-7.191V215.524c0-3.955 3.236-7.191 7.191-7.191h241.794c3.955 0 7.191 3.236 7.191 7.191v148.915c0 3.955-3.235 7.19-7.19 7.19z"/><path style="fill:#407bff" d="M315.496 411.509h-68.293a4.729 4.729 0 0 0-4.729 4.729h77.751a4.729 4.729 0 0 0-4.729-4.729z"/><path style="opacity:.3" d="M315.496 411.509h-68.293a4.729 4.729 0 0 0-4.729 4.729h77.751a4.729 4.729 0 0 0-4.729-4.729z"/><path style="fill:#407bff" d="M165.462 216.597h256.176v131.635H165.462z"/><path style="opacity:.84;fill:#fafafa" d="M165.375 216.597h256.176v131.635H165.375z"/><g><path style="opacity:.23;fill:#407bff" d="M211.821 333.412h172.598a2.846 2.846 0 0 0 2.838-2.838V229.613a2.846 2.846 0 0 0-2.838-2.838H211.821a2.846 2.846 0 0 0-2.838 2.838v100.961a2.848 2.848 0 0 0 2.838 2.838z"/><path style="opacity:.67;fill:#fafafa" d="M386.502 234.113v96.461a2.846 2.846 0 0 1-2.838 2.838H211.067a2.846 2.846 0 0 1-2.838-2.838v-96.461h178.273z"/><path style="opacity:.41;fill:#fff" d="M208.753 237.886h177.225v91.752H208.753z"/><path style="opacity:.19;fill:#407bff" d="M349.792 301.228c-12.986 0-23.552-10.565-23.552-23.552s10.566-23.551 23.552-23.551 23.551 10.564 23.551 23.551-10.564 23.552-23.551 23.552zm0-46.852c-12.849 0-23.302 10.453-23.302 23.301 0 12.849 10.453 23.302 23.302 23.302 12.848 0 23.301-10.453 23.301-23.302 0-12.848-10.453-23.301-23.301-23.301z"/><path style="opacity:.19;fill:#407bff" d="M310.197 301.228c-12.986 0-23.552-10.565-23.552-23.552s10.566-23.551 23.552-23.551 23.551 10.564 23.551 23.551-10.565 23.552-23.551 23.552zm0-46.852c-12.849 0-23.302 10.453-23.302 23.301 0 12.849 10.453 23.302 23.302 23.302 12.848 0 23.301-10.453 23.301-23.302-.001-12.848-10.454-23.301-23.301-23.301zM373.218 314.388H234.181a.125.125 0 0 1-.125-.125v-3.878c0-.069.056-.125.125-.125h139.037c.069 0 .125.056.125.125v3.878c0 .07-.056.125-.125.125zm-138.912-.25h138.787v-3.628H234.306v3.628z"/><path style="opacity:.19;fill:#407bff" d="M380.969 321.15H213.762a.125.125 0 0 1-.125-.125V246.5c0-.069.056-.125.125-.125h167.207c.069 0 .125.056.125.125v74.525a.125.125 0 0 1-.125.125zm-167.082-.25h166.957v-74.275H213.887V320.9z"/><path style="fill:#fff" d="M378.767 230.465a1.509 1.509 0 1 0 3.018 0 1.509 1.509 0 0 0-3.018 0z"/><circle style="fill:#fff" cx="374.928" cy="230.465" r="1.509"/><circle style="fill:#fff" cx="369.58" cy="230.465" r="1.509"/><path style="fill:#407bff" d="M208.229 233.924h178.273v.377H208.229z"/></g><path style="opacity:.47;fill:#fafafa" d="m233.925 216.597-23.524 131.635h23.293l23.523-131.635zM262.9 216.597l-23.523 131.635h11.646l23.523-131.635z"/><path style="opacity:.4;fill:#fff" d="m393.057 216.597-23.524 131.635h5.823l23.524-131.635zM382.807 216.597l-23.524 131.635h5.823l23.524-131.635z"/><g><path style="fill:#407bff" d="M331.765 411.509h-12.229a4.729 4.729 0 0 0-4.729 4.729h21.687a4.729 4.729 0 0 0-4.729-4.729z"/><path style="opacity:.4" d="M331.765 411.509h-12.229a4.729 4.729 0 0 0-4.729 4.729h21.687a4.729 4.729 0 0 0-4.729-4.729z"/></g><g><path style="fill:#407bff" d="M298.448 360.229a4.899 4.899 0 1 1-9.797 0 4.899 4.899 0 0 1 9.797 0z"/><path style="opacity:.5" d="M298.448 360.229a4.899 4.899 0 1 1-9.797 0 4.899 4.899 0 0 1 9.797 0z"/></g></g><g><path style="fill:#407bff" d="M251.682 399.345c-.693-23.95-.63-169.934.756-181.923l1.888-2.613s-.862 2.326-1.079 43.355-.487 135.085-.256 141.182h-1.309z"/><path style="fill:#407bff" d="M262.915 310.548c8.013-13.323 16.757-22.792 23.093-27.964 6.336-5.172-10.278 28.617-16.774 41.208-6.496 12.592-14.509 26.51-17.09 38.267-.501-23.95 2.758-38.188 10.771-51.511zM252.301 219.105c1.634-15.144-.584-29.135 7.656-46.867 8.241-17.732 14.513-31.647 22.464-38.119 1.91-1.555-4.622 29.266-12.207 46.625-5.352 12.251-7.075 21.043-12.756 29.256-1.33 1.924-5.157 9.105-5.157 9.105zM252.259 299.879c1.664-18.686 3.165-36.684 13.889-63.276 2.614-6.482 26.797-51.766 33.108-56.666 3.097-2.405-7.719 27.687-18.273 53.047-7.913 19.014-11.191 24.434-19.989 46.478-3.468 8.686-8.735 20.417-8.735 20.417zM238.18 207.653c-8.998-12.197-17.702-20.436-24.089-24.738-6.387-4.302 11.028 25.658 19.357 38.734 8.329 13.077 15.93 24.427 19.39 35.77-1.663-23.866-5.66-37.569-14.658-49.766zM252.259 332.963c-1.699-12.98-5.201-28.27-10.202-39.592s-12.695-28.685-18.819-34.575c-1.471-1.415 6.403 32.356 11.457 41.337 5.053 8.98 8.764 17.443 11.945 22.533 1.058 1.694 5.619 10.297 5.619 10.297z"/><path style="opacity:.5;fill:#fff" d="M251.682 399.345c-.693-23.95-.63-169.934.756-181.923l1.888-2.613s-.862 2.326-1.079 43.355-.487 135.085-.256 141.182h-1.309z"/><path style="opacity:.5;fill:#fff" d="M262.915 310.548c8.013-13.323 16.757-22.792 23.093-27.964 6.336-5.172-10.278 28.617-16.774 41.208-6.496 12.592-14.509 26.51-17.09 38.267-.501-23.95 2.758-38.188 10.771-51.511zM252.301 219.105c1.634-15.144-.584-29.135 7.656-46.867 8.241-17.732 14.513-31.647 22.464-38.119 1.91-1.555-4.622 29.266-12.207 46.625-5.352 12.251-7.075 21.043-12.756 29.256-1.33 1.924-5.157 9.105-5.157 9.105zM252.259 299.879c1.664-18.686 3.165-36.684 13.889-63.276 2.614-6.482 26.797-51.766 33.108-56.666 3.097-2.405-7.719 27.687-18.273 53.047-7.913 19.014-11.191 24.434-19.989 46.478-3.468 8.686-8.735 20.417-8.735 20.417zM238.18 207.653c-8.998-12.197-17.702-20.436-24.089-24.738-6.387-4.302 11.028 25.658 19.357 38.734 8.329 13.077 15.93 24.427 19.39 35.77-1.663-23.866-5.66-37.569-14.658-49.766zM252.259 332.963c-1.699-12.98-5.201-28.27-10.202-39.592s-12.695-28.685-18.819-34.575c-1.471-1.415 6.403 32.356 11.457 41.337 5.053 8.98 8.764 17.443 11.945 22.533 1.058 1.694 5.619 10.297 5.619 10.297z"/><g><path style="fill:#263238" d="M271.298 416.238h-37.899l-2.86-21.78h43.619z"/><path style="fill:#263238" d="M276.983 396.996h-49.269l-1.411-7.349h52.091z"/></g></g><g><path style="fill:#407bff" d="M229.947 416.238H117.191c-3.842 0-6.985-3.143-6.985-6.985V238.551c0-3.842 3.143-6.985 6.985-6.985h112.756c3.842 0 6.985 3.143 6.985 6.985v170.702c0 3.842-3.143 6.985-6.985 6.985z"/><path style="opacity:.6" d="M229.947 416.238H117.191c-3.842 0-6.985-3.143-6.985-6.985V238.551c0-3.842 3.143-6.985 6.985-6.985h112.756c3.842 0 6.985 3.143 6.985 6.985v170.702c0 3.842-3.143 6.985-6.985 6.985z"/><path style="fill:#407bff" d="M226.599 416.238H113.843c-3.842 0-6.985-3.143-6.985-6.985V238.551c0-3.842 3.143-6.985 6.985-6.985h112.756c3.842 0 6.985 3.143 6.985 6.985v170.702c0 3.842-3.143 6.985-6.985 6.985z"/><path style="opacity:.3" d="M226.599 416.238H113.843c-3.842 0-6.985-3.143-6.985-6.985V238.551c0-3.842 3.143-6.985 6.985-6.985h112.756c3.842 0 6.985 3.143 6.985 6.985v170.702c0 3.842-3.143 6.985-6.985 6.985z"/><path style="fill:#fafafa" d="M106.857 239.594h126.726v160.304H106.857z"/><path style="opacity:.1;fill:#407bff" d="M106.857 239.594h126.726v160.304H106.857z"/><path style="opacity:.48;fill:#fafafa" d="m151.789 239.985-29 160.304h22.151l29-160.304zM180.518 239.594l-29 160.304h11.076l29-160.304z"/><g><circle style="fill:#407bff" cx="170.221" cy="407.966" r="4.759"/><circle style="opacity:.5" cx="170.221" cy="407.966" r="4.759"/></g><g><path style="fill:#407bff" d="M171.32 235.26a1.1 1.1 0 1 1-2.2 0 1.1 1.1 0 0 1 2.2 0z"/><path style="opacity:.5" d="M171.32 235.26a1.1 1.1 0 1 1-2.2 0 1.1 1.1 0 0 1 2.2 0z"/></g></g><g><path style="fill:#407bff" d="m328.512 204.039 7.625-1.426c.533-.1.825-.605.65-1.124l-6.007-17.772c-.175-.518-.754-.861-1.287-.761l-7.625 1.426c-.533.1-.825.605-.65 1.124l6.007 17.772c.176.518.755.861 1.287.761z"/><path style="opacity:.6" d="m328.512 204.039 7.625-1.426c.533-.1.825-.605.65-1.124l-6.007-17.772c-.175-.518-.754-.861-1.287-.761l-7.625 1.426c-.533.1-.825.605-.65 1.124l6.007 17.772c.176.518.755.861 1.287.761z"/><path style="fill:#407bff" d="m329.449 203.864 7.625-1.426c.533-.1.825-.605.65-1.124l-6.007-17.772c-.175-.519-.754-.861-1.287-.762l-7.625 1.426c-.533.1-.825.605-.65 1.124l6.007 17.772c.176.519.755.862 1.287.762z"/><path style="opacity:.3" d="m329.449 203.864 7.625-1.426c.533-.1.825-.605.65-1.124l-6.007-17.772c-.175-.519-.754-.861-1.287-.762l-7.625 1.426c-.533.1-.825.605-.65 1.124l6.007 17.772c.176.519.755.862 1.287.762z"/><path style="fill:#fafafa" d="m327.752 201.889 9.562-1.789-5.389-15.942-9.561 1.789z"/><path style="opacity:.14;fill:#407bff" d="m327.752 201.889 9.562-1.789-5.389-15.942-9.561 1.789z"/><path style="fill:#e58a7b" d="m322.364 192.838.744-1.742 7.206 8.09-6.235.482z"/><g><circle style="fill:#407bff" cx="199.347" cy="114.667" r="15.432"/><path style="fill:#407bff" d="M199.347 132.958c-1.061 0-2.123-.091-3.157-.271l.172-.985c1.965.343 4.033.341 6.003-.006l.173.985a18.59 18.59 0 0 1-3.191.277zm-9.127-2.436a18.343 18.343 0 0 1-4.868-4.076l.765-.645a17.32 17.32 0 0 0 4.603 3.855l-.5.866zm18.283-.018-.501-.865a17.339 17.339 0 0 0 4.595-3.862l.766.643a18.312 18.312 0 0 1-4.86 4.084zm-26.338-9.548c-.732-2-1.105-4.104-1.109-6.251l1-.002a17.208 17.208 0 0 0 1.049 5.909l-.94.344zm34.376-.035-.939-.342a17.248 17.248 0 0 0 1.037-5.913l.684-.05.316.04c0 2.159-.37 4.263-1.098 6.265zm-33.46-12.134-.941-.34a18.218 18.218 0 0 1 3.166-5.505l.767.642a17.194 17.194 0 0 0-2.992 5.203zm32.497-.098a17.25 17.25 0 0 0-3.023-5.184l.764-.646a18.238 18.238 0 0 1 3.198 5.483l-.939.347zm-24.917-8.977-.503-.864a18.121 18.121 0 0 1 5.961-2.188l.175.984a17.132 17.132 0 0 0-5.633 2.068zm17.282-.052a17.137 17.137 0 0 0-5.646-2.034l.169-.985a18.15 18.15 0 0 1 5.975 2.152l-.498.867zM316.395 192.691h3v1h-3zM310.385 193.691h-6.01v-1h6.01v1zm-12.088-.724a20.043 20.043 0 0 1-5.597-2.522l.545-.838a19.032 19.032 0 0 0 5.317 2.396l-.265.964zm-10.172-6.613a20.12 20.12 0 0 1-3.137-5.274l.928-.374a19.1 19.1 0 0 0 2.98 5.013l-.771.635zm-4.53-11.252a20.257 20.257 0 0 1 .465-6.119l.975.227a19.233 19.233 0 0 0-.442 5.816l-.998.076zm3.616-11.303-.859-.511a20.199 20.199 0 0 1 3.902-4.738l.666.745a19.207 19.207 0 0 0-3.709 4.504zm8.597-7.685-.412-.911a19.996 19.996 0 0 1 5.916-1.637l.115.993c-1.946.227-3.837.75-5.619 1.555zm24.241-1.685h-.656v-1h.656c1.75 0 3.483-.236 5.153-.701l.268.963c-1.757.489-3.58.738-5.421.738zm-6.666 0h-6.01v-1h6.01v1zm17.676-3.276-.547-.837a19.201 19.201 0 0 0 4.34-3.899l.773.634a20.216 20.216 0 0 1-4.566 4.102zm7.688-9.384-.928-.371a19.061 19.061 0 0 0 1.309-5.683l.998.073a20.012 20.012 0 0 1-1.379 5.981zm-.075-11.87a19.011 19.011 0 0 0-2.191-5.405l.859-.513a20.011 20.011 0 0 1 2.305 5.689l-.973.229zm-5.911-9.898a19.159 19.159 0 0 0-4.896-3.17l.408-.912a20.134 20.134 0 0 1 5.151 3.334l-.663.748zm-10.52-4.711a19.388 19.388 0 0 0-2.18-.124H316.292v-1h3.756c.808-.005 1.542.044 2.306.13l-.113.994zm-11.958-.124h-6.01v-1h6.01v1zm-12.019 0h-6.011v-1h6.011v1zm-12.021 0h-6.01v-1h6.01v1zm-12.019 0h-6.011v-1h6.011v1zm-12.021 0h-6.01v-1h6.01v1zm-12.02 0h-6.01v-1h6.01v1zm-12.02 0h-6.01v-1h6.01v1zM223.058 114.166h3v1h-3zM198.928 136.224h.837v2.51h-.837zM94.983 302.279h-.837v-5.025h.837v5.025zm0-10.051h-.837v-5.025h.837v5.025zm91.266-2.573c-.981 0-1.959-.105-2.907-.314l.18-.816c1.571.344 3.242.386 4.834.12l.138.824c-.737.124-1.492.186-2.245.186zm-51.539-.024-.052-.836a12.59 12.59 0 0 0 4.678-1.216l.361.754a13.419 13.419 0 0 1-4.987 1.298zm-5.111-.66a13.465 13.465 0 0 1-4.49-2.529l.542-.637a12.603 12.603 0 0 0 4.212 2.371l-.264.795zm63.721-1.311-.439-.713a12.675 12.675 0 0 0 3.564-3.269l.672.498a13.513 13.513 0 0 1-3.797 3.484zm-14.706-.366a13.51 13.51 0 0 1-3.62-3.667l.696-.465a12.683 12.683 0 0 0 3.396 3.442l-.472.69zm-34.78-2.034-.617-.564a12.615 12.615 0 0 0 2.524-4.124l.784.293a13.45 13.45 0 0 1-2.691 4.395zm-21.948-2.841a13.353 13.353 0 0 1-1.479-4.937l.833-.082c.16 1.627.626 3.185 1.386 4.63l-.74.389zm-26.903-.242h-.837v-5.026h.837v5.026zm104.354-2.652-.811-.209c.267-1.032.401-2.102.401-3.177v-1.708h.837v1.708a13.51 13.51 0 0 1-.427 3.386zm-26.328-.656a13.573 13.573 0 0 1-.276-2.73v-2.361h.837v2.361c-.001.861.087 1.723.258 2.562l-.819.168zm-25.635-3.079h-.837v-5.025h.837v5.025zm-26.195-3.372h-.837v-5.026h.837v5.026zm-26.196-.293h-.837v-5.026h.837v5.026zm104.782-2.72h-.837v-5.025h.837v5.025zm-26.195-.652h-.837v-3.542c0-.478-.027-.96-.08-1.434l.831-.094c.057.504.086 1.018.086 1.527v3.543zm-26.196-3.015h-.837v-.527c0-1.563.264-3.094.785-4.551l.788.281a12.638 12.638 0 0 0-.736 4.27v.527zm-27.327-3.259a12.574 12.574 0 0 0-1.923-4.436l.689-.473a13.382 13.382 0 0 1 2.051 4.729l-.817.18zm-24.705-.278-.813-.197a13.391 13.391 0 0 1 2.156-4.681l.679.488a12.578 12.578 0 0 0-2.022 4.39zm104.423-2.847h-.837v-5.026h.837v5.026zm-28.562-.188a12.679 12.679 0 0 0-3.074-3.733l.533-.645a13.526 13.526 0 0 1 3.276 3.977l-.735.401zm-20.625-2.38-.625-.557a13.492 13.492 0 0 1 4.095-3.131l.372.75a12.653 12.653 0 0 0-3.842 2.938zm-35.897-2.137a12.512 12.512 0 0 0-4.461-1.859l.167-.82a13.391 13.391 0 0 1 4.758 1.982l-.464.697zm-13.798-.154-.448-.707a13.403 13.403 0 0 1 4.801-1.875l.149.822c-1.605.292-3.12.884-4.502 1.76zm63.001-1.376a12.637 12.637 0 0 0-4.803-.551l-.063-.834c.342-.026.688-.039 1.036-.039h.01c1.39 0 2.76.211 4.073.627l-.253.797zm35.881-3.817h-.837v-5.026h.837v5.026zm0-10.051h-.837v-5.026h.837v5.026zm0-10.052h-.837v-5.026h.837v5.026zm0-10.052h-.837v-5.026h.837v5.026zm0-10.052h-.837v-5.026h.837v5.026zm0-10.051h-.837v-5.026h.837v5.026zm0-10.052h-.837v-5.026h.837v5.026zm0-10.052h-.837v-5.026h.837v5.026zm0-10.051h-.837v-5.026h.837v5.026zm0-10.052h-.837v-5.026h.837v5.026zm0-10.052h-.837v-5.026h.837v5.026zM94.146 307.41h.837v2.51h-.837z"/><path style="fill:#fff" d="M197.463 122.188c-.384 0-.768-.146-1.061-.439l-5.24-5.24a1.5 1.5 0 1 1 2.121-2.121l4.18 4.18 7.947-7.947a1.5 1.5 0 1 1 2.121 2.121l-9.007 9.007a1.495 1.495 0 0 1-1.061.439z"/><g><path style="fill:#e58a7b" d="M385.5 152.11c-.974 4.97-3.176 15.037.301 18.354 0 0-1.359 5.042-10.594 5.042-10.155 0-4.853-5.041-4.853-5.041 5.543-1.324 5.4-5.436 4.434-9.298l10.712-9.057z"/><path style="fill:#407bff" d="M365.276 172.17c.025-.751 1.146-1.519 2.803-2.125.895-.327 1.764-1.576 3.109-1.801 1.024-.171 2.294.685 3.57.593 1.071-.076 2.19-1.12 3.434-1.128 1.095-.007 2.237 1.014 3.461 1.068.758.033 1.521-.917 2.156-.857.776.073 1.332 1.154 1.941 1.258.81.139 1.718-.667 2.273-.488.881.283 1 1.466 1.389 1.785 1.118.917 2.016 1.775.984 1.936-2.466.385-2.568-1.018-5.064-1.042-2.494-.024-2.504.976-4.998.952-2.496-.024-2.487-1.024-4.983-1.048-2.498-.024-2.464.69-4.949.949-2.554.267-2.66.345-5.126-.052z"/><path d="M365.276 172.17c.025-.751 1.146-1.519 2.803-2.125.895-.327 1.764-1.576 3.109-1.801 1.024-.171 2.294.685 3.57.593 1.071-.076 2.19-1.12 3.434-1.128 1.095-.007 2.237 1.014 3.461 1.068.758.033 1.521-.917 2.156-.857.776.073 1.332 1.154 1.941 1.258.81.139 1.718-.667 2.273-.488.881.283 1 1.466 1.389 1.785 1.118.917 2.016 1.775.984 1.936-2.466.385-2.568-1.018-5.064-1.042-2.494-.024-2.504.976-4.998.952-2.496-.024-2.487-1.024-4.983-1.048-2.498-.024-2.464.69-4.949.949-2.554.267-2.66.345-5.126-.052z" style="opacity:.6"/><path style="fill:#e58a7b" d="M403.661 181.229c1.302 2.754 2.321 5.384 3.347 8.121.994 2.723 1.858 5.496 2.659 8.295.816 2.794 1.457 5.657 1.981 8.552.247 1.454.491 2.908.655 4.389.097.735.187 1.472.235 2.223l.175 2.301c.062 2.266-.449 3.996-1.026 5.566-.593 1.562-1.297 2.96-2.043 4.297-1.499 2.662-3.21 5.05-4.982 7.355-3.605 4.57-7.433 8.763-11.657 12.698l-3.111-2.884c1.65-2.179 3.331-4.421 4.911-6.678a118.964 118.964 0 0 0 4.59-6.831c1.447-2.295 2.79-4.638 3.887-6.959.542-1.158 1.013-2.319 1.336-3.413.32-1.079.486-2.135.403-2.685l-.248-1.891a27.891 27.891 0 0 0-.309-1.954c-.211-1.303-.5-2.607-.79-3.91-.313-1.301-.629-2.603-1.004-3.897a99.136 99.136 0 0 0-1.116-3.89c-.796-2.586-1.7-5.148-2.647-7.696-.923-2.531-1.99-5.12-3.007-7.483l7.761-3.626z"/><path style="fill:#407bff" d="M400.248 172.367c3.48.763 7.196 13.281 7.196 13.281l-13.704 8.743s-4.298-10.038-2.635-14.362c1.732-4.502 5.03-8.563 9.143-7.662z"/><path style="opacity:.6;fill:#fff" d="M400.248 172.367c3.48.763 7.196 13.281 7.196 13.281l-13.704 8.743s-4.298-10.038-2.635-14.362c1.732-4.502 5.03-8.563 9.143-7.662z"/><path style="opacity:.28;fill:#407bff" d="m398.39 176.63-4.68 17.68c.02.05.03.08.03.08l5.48-3.5-.83-14.26z"/><path style="fill:#407bff" d="M356.195 172.61s-3.99 1.406 4.003 50.555h34.019c-.571-13.846-.587-22.383 6.03-50.798 0 0-7.128-1.551-14.446-1.903-5.725-.276-10.415-.459-15.448.001-6.634.605-14.158 2.145-14.158 2.145z"/><path style="opacity:.6;fill:#fff" d="M356.195 172.61s-3.99 1.406 4.003 50.555h34.019c-.571-13.846-.587-22.383 6.03-50.798 0 0-7.128-1.551-14.446-1.903-5.725-.276-10.415-.459-15.448.001-6.634.605-14.158 2.145-14.158 2.145z"/><path style="fill:#e58a7b" d="m391.502 241.024-8.1-2.44 3.377 7.82s5.354.513 7.284-2.386l-2.561-2.994z"/><path style="fill:#e58a7b" d="m376.84 241.139 3.182 6.394 6.757-1.13-3.377-7.82zM412.931 411.729h-8.376l-2.693-19.398h8.376zM374.873 411.729h-8.376l-.559-19.398h8.376z"/><path style="fill:#cf6f64" d="m365.939 392.336.287 9.999h8.38l-.287-9.999zM410.241 392.336h-8.38l1.392 9.999h8.38z"/><path style="fill:#407bff" d="M369.182 223.165s4.861 57.491 9.905 89.892c4.074 26.17 22.143 87.342 22.143 87.342h11.422s-9.415-59.077-11.482-84.961c-5.233-65.498 3.945-77.089-6.953-92.272h-25.035z"/><path style="opacity:.6" d="M369.182 223.165s4.861 57.491 9.905 89.892c4.074 26.17 22.143 87.342 22.143 87.342h11.422s-9.415-59.077-11.482-84.961c-5.233-65.498 3.945-77.089-6.953-92.272h-25.035z"/><path style="opacity:.4" d="M379.56 245.78s-4.68 14.58-4.61 35.61c.81 7.11 1.67 14.17 2.55 20.71 2.68-6.15 7.609-23.878 2.06-56.32z"/><path style="fill:#407bff" d="M360.198 223.165s-6.607 64.524-6.058 90.068c.571 26.569 10.307 87.165 10.307 87.165h11.326s-1.792-59.044-.791-85.138c1.091-28.447 10.127-92.096 10.127-92.096h-24.911z"/><path style="opacity:.6" d="M360.198 223.165s-6.607 64.524-6.058 90.068c.571 26.569 10.307 87.165 10.307 87.165h11.326s-1.792-59.044-.791-85.138c1.091-28.447 10.127-92.096 10.127-92.096h-24.911z"/><path style="fill:#407bff" d="M401.168 412.222c-.645 0-1.239-.11-1.597-.437-.28-.256-.391-.61-.328-1.054.047-.335.241-.488.395-.558.975-.438 3.518 1.2 3.806 1.389a.198.198 0 0 1-.063.359c-.593.14-1.44.301-2.213.301zm-1.114-1.732a.61.61 0 0 0-.252.045c-.065.029-.143.084-.166.251-.044.311.022.542.203.706.424.387 1.52.438 2.979.147-.898-.544-2.121-1.149-2.764-1.149z"/><path style="fill:#407bff" d="M403.334 411.927a.213.213 0 0 1-.098-.025c-.799-.454-2.321-2.261-2.133-3.205.036-.181.171-.493.667-.554.318-.04.599.052.84.266.911.807.922 3.218.922 3.32a.199.199 0 0 1-.198.198zm-1.425-3.396c-.03 0-.06.002-.091.006-.253.03-.307.143-.326.237-.114.574.835 1.933 1.631 2.568-.046-.803-.232-2.157-.775-2.638a.65.65 0 0 0-.439-.173zM363.064 412.223c-.833 0-1.601-.129-2.031-.516-.273-.245-.394-.57-.357-.966a.638.638 0 0 1 .336-.527c1.031-.563 4.365 1.143 4.742 1.339a.198.198 0 0 1-.052.37c-.713.142-1.716.3-2.638.3zm-1.492-1.734a.781.781 0 0 0-.37.072c-.082.045-.122.111-.132.215-.023.268.051.476.229.636.508.458 1.889.537 3.742.228-1.148-.551-2.675-1.151-3.469-1.151z"/><path style="fill:#407bff" d="M365.662 411.927a.199.199 0 0 1-.082-.018c-.998-.451-2.973-2.258-2.817-3.206.036-.226.195-.505.744-.56.406-.042.776.074 1.099.343 1.053.877 1.247 3.132 1.254 3.227a.196.196 0 0 1-.198.214zm-1.996-3.396c-.039 0-.078.002-.119.006-.361.037-.385.182-.393.229-.093.569 1.247 1.99 2.265 2.607-.098-.656-.377-2.009-1.067-2.584a1.042 1.042 0 0 0-.686-.258z"/><path style="fill:#263238" d="M365.367 143.297a.396.396 0 0 1-.352-.129c-1.168-1.305-2.585-1.119-2.645-1.111a.397.397 0 0 1-.118-.786c.092-.014 1.898-.261 3.354 1.367a.396.396 0 0 1-.031.56.381.381 0 0 1-.208.099z"/><path style="fill:#df5753" d="M363.633 148.273s-.722 3.042-1.772 4.61c1.001.697 2.448.105 2.448.105l-.676-4.715z"/><path style="fill:#263238" d="M364.067 147.038c.096.669-.181 1.262-.618 1.325s-.869-.429-.965-1.097c-.096-.669.181-1.262.618-1.324.437-.064.869.427.965 1.096z"/><path style="fill:#263238" d="m363.3 145.95-1.673-.232c0-.001 1.005 1.136 1.673.232zM404.035 410.759h9.41c.342 0 .62.238.669.572l1.072 7.445c.111.772-.553 1.503-1.343 1.49-3.281-.056-4.862-.249-9-.249-2.546 0-6.266.264-9.781.264-3.439 0-3.703-3.477-2.239-3.791 6.564-1.412 7.601-3.359 9.813-5.216a2.182 2.182 0 0 1 1.399-.515zM366.21 410.759h9.41c.342 0 .62.238.668.572l1.072 7.445c.111.772-.553 1.503-1.343 1.49-3.281-.056-4.862-.249-9-.249-2.546 0-7.812.264-11.328.264-3.439 0-3.703-3.477-2.239-3.791 6.564-1.412 9.148-3.359 11.359-5.216a2.19 2.19 0 0 1 1.401-.515z"/><path style="opacity:.28;fill:#407bff" d="M355.21 180.55v.2c.1 5.59.87 14.99 3.19 30.82l4.74-18.55-7.93-12.47z"/><path style="fill:#e58a7b" d="M361.944 183.42a233.236 233.236 0 0 1-3.264 14.071c-1.215 4.668-2.541 9.305-4.201 13.965l-.647 1.75-.714 1.767c-.09.226-.3.742-.566 1.211a7.808 7.808 0 0 1-1.01 1.434c-.82.952-2.14 1.781-3.416 2.054-1.286.307-2.406.204-3.336.021-.94-.19-1.717-.485-2.43-.803-1.416-.643-2.562-1.42-3.639-2.211-2.141-1.587-3.913-3.374-5.626-5.172a48.31 48.31 0 0 1-2.438-2.792 50.877 50.877 0 0 1-2.27-2.943l3.174-2.814c3.477 2.976 7.163 6.038 10.851 8.143.907.519 1.83.943 2.618 1.202.771.291 1.462.208 1.189.158-.118-.011-.396.131-.444.182-.035.015-.034.018-.02-.046.016-.054.024-.095.138-.426l.53-1.579.494-1.632c1.299-4.387 2.413-8.958 3.51-13.522l3.132-13.758 8.385 1.74z"/><path style="fill:#e58a7b" d="m328.662 206.151-4.583-6.483 6.235-.482s3.518 4.069 2.271 7.32l-3.923-.355z"/><path style="fill:#e58a7b" d="m328.282 198.002 1.314-.815.611-3.066 1.012 1.261.748 7.211zM386.224 141.516c.674 8.286 1.136 11.778-2.407 16.589-5.33 7.237-15.655 6.252-18.791-1.665-2.823-7.126-3.451-19.479 4.12-23.901 7.458-4.357 16.403.691 17.078 8.977z"/><path style="fill:#263238" d="M367.714 131.608c-6.216 3.076-4.578 8.941-4.578 8.941s6.511-2.811 6.772 7.625c.189 7.525-4.968 17.685-4.968 17.685s12.07 2.5 29.435-2.82c7.365-2.257 4.031-46.618-26.661-31.431z"/><path style="fill:#263238" d="M367.092 136.223c-1.178 2.839-.876 8.461 3.775 7.855 4.651-.606 3.292-5.288 3.292-5.288l-7.067-2.567z"/><path style="fill:#e58a7b" d="M372.265 147.438c.076 1.722-.651 3.318-1.624 4.347-1.464 1.548-3.288.503-3.796-1.451-.457-1.758-.247-4.683 1.663-5.503 1.881-.808 3.67.639 3.757 2.607z"/><path style="fill:#407bff" d="M413.504 400.773h-13.058l-1.39-4.551 14.897.348z"/><g><path style="fill:#407bff" d="M390.1 225.021h.923c.184 0 .324-.095.311-.21l-.433-3.956c-.013-.116-.173-.211-.357-.211h-.923c-.184 0-.324.095-.311.211l.433 3.956c.012.115.173.21.357.21zM367.736 225.021h.923c.184 0 .324-.095.311-.21l-.433-3.956c-.013-.116-.173-.211-.357-.211h-.923c-.184 0-.324.095-.311.211l.433 3.956c.013.115.173.21.357.21z"/></g><path style="fill:#407bff" d="M376.639 400.773h-13.058l-.942-3.898 14.486-.653z"/><g><path style="fill:#407bff" d="m394.727 221.169 1.534 3.045c.119.236-.161.477-.554.477H360.03c-.307 0-.561-.15-.58-.343l-.307-3.045c-.021-.211.245-.39.58-.39h34.45c.253 0 .477.103.554.256z"/><path style="opacity:.1" d="m394.727 221.169 1.534 3.045c.119.236-.161.477-.554.477H360.03c-.307 0-.561-.15-.58-.343l-.307-3.045c-.021-.211.245-.39.58-.39h34.45c.253 0 .477.103.554.256z"/></g><g><path style="opacity:.6" d="M390.1 225.021h.923c.184 0 .324-.095.311-.21l-.433-3.956c-.013-.116-.173-.211-.357-.211h-.923c-.184 0-.324.095-.311.211l.433 3.956c.012.115.173.21.357.21zM367.736 225.021h.923c.184 0 .324-.095.311-.21l-.433-3.956c-.013-.116-.173-.211-.357-.211h-.923c-.184 0-.324.095-.311.211l.433 3.956c.013.115.173.21.357.21z"/></g><g><path style="fill:#407bff" d="M356.195 172.61c-3.452.879-5.867 15.086-5.867 15.086l13.318 9.057s5.317-16.919 2.661-20.715c-2.766-3.953-5.074-4.711-10.112-3.428z"/><path style="opacity:.6;fill:#fff" d="M356.195 172.61c-3.452.879-5.867 15.086-5.867 15.086l13.318 9.057s5.317-16.919 2.661-20.715c-2.766-3.953-5.074-4.711-10.112-3.428z"/></g></g></g></g><g><path style="fill:#407bff" d="M167.262 355.83c.009-.031-.002-.065.003-.098.278-1.609.516-3.235.712-4.873 2.83 3.152 5.295 3.948 7.055 3.948.195 0 .382-.01.56-.027 3.446-.337 6.362-3.719 7.803-9.045.054-.2.015-.424-.106-.616s-.314-.333-.529-.387c-7.005-1.77-12.066.859-14.431 2.552.118-1.542.188-3.088.212-4.635a9.912 9.912 0 0 0 1.692.152c5.695 0 9.231-5.073 9.398-5.319a.712.712 0 0 0 .059-.663.897.897 0 0 0-.513-.508c-3.563-1.344-6.45-1.46-8.586-.345-1.319.69-2.307 1.852-2.934 3.397-1.691-3.671-6.186-10.678-16.417-12.652a.684.684 0 0 0-.588.143.655.655 0 0 0-.22.55c.361 5.169 1.322 11.487 5.582 14.501 1.615 1.143 3.535 1.714 5.798 1.714 1.564 0 3.304-.289 5.208-.835-.074 3.706-.429 7.412-.997 11.04-2.369-2.682-8.401-8.662-16.635-10.722-.411-.106-.792.134-.846.535-.611 4.446.446 8.057 3.055 10.443 2.151 1.966 5.253 2.97 9.015 2.97 1.542 0 3.2-.178 4.944-.518a111.436 111.436 0 0 1-2.033 8.872c-2.593-2.06-10.082-7.266-17.217-5.093a.626.626 0 0 0-.416.396.753.753 0 0 0 .06.61c2.644 4.923 5.278 7.655 8.287 8.596a8.08 8.08 0 0 0 2.424.369c1.828 0 3.795-.606 5.988-1.821a140.185 140.185 0 0 1-3.582 10.438c-1.999-1.892-7.266-5.772-15.473-3.975-.362.08-.571.423-.49.802.662 3.067 3.208 5.989 6.335 7.271.867.356 2.1.711 3.568.711 1.373 0 2.952-.326 4.624-1.238-2.884 6.91-5.327 11.304-5.387 11.41-.192.342-.046.809.324 1.045a.835.835 0 0 0 .442.133.65.65 0 0 0 .578-.325c.067-.12 3.119-5.616 6.449-14.01a.634.634 0 0 0 .094-.237c.369-.936.741-1.905 1.113-2.909 2.406 2.785 5.332 4.319 8.276 4.319.317 0 .634-.017.95-.053 3.398-.384 6.236-2.845 6.899-5.985.072-.343-.12-.72-.459-.896-6.45-3.369-11.809-1.848-14.527-.57.79-2.294 1.557-4.721 2.269-7.247a.658.658 0 0 0 .095-.338v-.001c.197-.708.39-1.422.577-2.144 2.889 3.138 5.556 4.673 8.125 4.673h.009c3.125-.004 5.994-2.309 8.771-7.048.195-.331.065-.791-.291-1.036-5.807-3.988-12.753-1.272-15.855.329.433-1.873.823-3.783 1.16-5.72.004-.011.015-.018.019-.03z"/><path style="opacity:.3" d="M167.262 355.83c.009-.031-.002-.065.003-.098.278-1.609.516-3.235.712-4.873 2.83 3.152 5.295 3.948 7.055 3.948.195 0 .382-.01.56-.027 3.446-.337 6.362-3.719 7.803-9.045.054-.2.015-.424-.106-.616s-.314-.333-.529-.387c-7.005-1.77-12.066.859-14.431 2.552.118-1.542.188-3.088.212-4.635a9.912 9.912 0 0 0 1.692.152c5.695 0 9.231-5.073 9.398-5.319a.712.712 0 0 0 .059-.663.897.897 0 0 0-.513-.508c-3.563-1.344-6.45-1.46-8.586-.345-1.319.69-2.307 1.852-2.934 3.397-1.691-3.671-6.186-10.678-16.417-12.652a.684.684 0 0 0-.588.143.655.655 0 0 0-.22.55c.361 5.169 1.322 11.487 5.582 14.501 1.615 1.143 3.535 1.714 5.798 1.714 1.564 0 3.304-.289 5.208-.835-.074 3.706-.429 7.412-.997 11.04-2.369-2.682-8.401-8.662-16.635-10.722-.411-.106-.792.134-.846.535-.611 4.446.446 8.057 3.055 10.443 2.151 1.966 5.253 2.97 9.015 2.97 1.542 0 3.2-.178 4.944-.518a111.436 111.436 0 0 1-2.033 8.872c-2.593-2.06-10.082-7.266-17.217-5.093a.626.626 0 0 0-.416.396.753.753 0 0 0 .06.61c2.644 4.923 5.278 7.655 8.287 8.596a8.08 8.08 0 0 0 2.424.369c1.828 0 3.795-.606 5.988-1.821a140.185 140.185 0 0 1-3.582 10.438c-1.999-1.892-7.266-5.772-15.473-3.975-.362.08-.571.423-.49.802.662 3.067 3.208 5.989 6.335 7.271.867.356 2.1.711 3.568.711 1.373 0 2.952-.326 4.624-1.238-2.884 6.91-5.327 11.304-5.387 11.41-.192.342-.046.809.324 1.045a.835.835 0 0 0 .442.133.65.65 0 0 0 .578-.325c.067-.12 3.119-5.616 6.449-14.01a.634.634 0 0 0 .094-.237c.369-.936.741-1.905 1.113-2.909 2.406 2.785 5.332 4.319 8.276 4.319.317 0 .634-.017.95-.053 3.398-.384 6.236-2.845 6.899-5.985.072-.343-.12-.72-.459-.896-6.45-3.369-11.809-1.848-14.527-.57.79-2.294 1.557-4.721 2.269-7.247a.658.658 0 0 0 .095-.338v-.001c.197-.708.39-1.422.577-2.144 2.889 3.138 5.556 4.673 8.125 4.673h.009c3.125-.004 5.994-2.309 8.771-7.048.195-.331.065-.791-.291-1.036-5.807-3.988-12.753-1.272-15.855.329.433-1.873.823-3.783 1.16-5.72.004-.011.015-.018.019-.03z"/><path style="fill:#407bff" d="M130.951 376.104c1.125.338 2.243.521 3.33.521 2.324 0 4.51-.767 6.342-2.28 2.824-2.332 4.27-6.013 3.597-9.16a.628.628 0 0 0-.697-.492c-7.713.806-11.994 5.888-13.685 8.446a123.77 123.77 0 0 1-3.429-10.95c1.93 1.045 3.694 1.571 5.322 1.571a7.18 7.18 0 0 0 2.271-.362c3.886-1.287 6.558-5.931 8.868-10.757a.691.691 0 0 0 .023-.564.616.616 0 0 0-.405-.359c-7.607-2.167-14.529 5.273-16.707 7.927a91.39 91.39 0 0 1-1.759-9.776c1.726.318 3.364.486 4.885.486 3.96 0 7.167-1.068 9.304-3.152 2.535-2.472 3.409-6.17 2.528-10.694-.072-.367-.435-.582-.811-.483-8.119 2.166-13.848 8.203-16.191 11.065-.05-.589-.102-1.179-.137-1.768a.681.681 0 0 0-.168-.397c-.625-2.521-1.936-4.347-3.819-5.275-2.225-1.1-5.151-.94-8.692.471a.78.78 0 0 0-.449.474.666.666 0 0 0 .089.611c.183.245 4.01 5.263 9.72 5.263.594 0 1.209-.059 1.841-.178.116 1.632.285 3.263.503 4.888-2.478-1.683-7.806-4.339-14.889-2.429a.777.777 0 0 0-.469.364.707.707 0 0 0-.066.569c1.77 5.379 4.923 8.766 8.434 9.06.156.013.318.02.486.02 1.795 0 4.292-.825 7.038-4.139a104.998 104.998 0 0 0 2.596 11.084c-3.216-1.578-10.496-4.303-16.202-.155-.317.23-.412.655-.215.959 3.071 4.729 6.09 7.029 9.23 7.029l.079-.001c2.612-.032 5.241-1.634 8.008-4.878a139.383 139.383 0 0 0 3.644 10.079c-3.164-2.075-6.865-1.745-11.418.984a.769.769 0 0 0-.37.566.637.637 0 0 0 .239.584c.229.176 4.12 3.108 8.469 3.108 1.556 0 3.172-.382 4.699-1.394 4.312 9.872 8.405 16.488 8.488 16.62.132.21.358.323.598.323a.81.81 0 0 0 .454-.142c.366-.244.487-.723.271-1.068-.096-.156-5.779-9.345-10.778-22.219z"/><path style="opacity:.5;fill:#fff" d="M130.951 376.104c1.125.338 2.243.521 3.33.521 2.324 0 4.51-.767 6.342-2.28 2.824-2.332 4.27-6.013 3.597-9.16a.628.628 0 0 0-.697-.492c-7.713.806-11.994 5.888-13.685 8.446a123.77 123.77 0 0 1-3.429-10.95c1.93 1.045 3.694 1.571 5.322 1.571a7.18 7.18 0 0 0 2.271-.362c3.886-1.287 6.558-5.931 8.868-10.757a.691.691 0 0 0 .023-.564.616.616 0 0 0-.405-.359c-7.607-2.167-14.529 5.273-16.707 7.927a91.39 91.39 0 0 1-1.759-9.776c1.726.318 3.364.486 4.885.486 3.96 0 7.167-1.068 9.304-3.152 2.535-2.472 3.409-6.17 2.528-10.694-.072-.367-.435-.582-.811-.483-8.119 2.166-13.848 8.203-16.191 11.065-.05-.589-.102-1.179-.137-1.768a.681.681 0 0 0-.168-.397c-.625-2.521-1.936-4.347-3.819-5.275-2.225-1.1-5.151-.94-8.692.471a.78.78 0 0 0-.449.474.666.666 0 0 0 .089.611c.183.245 4.01 5.263 9.72 5.263.594 0 1.209-.059 1.841-.178.116 1.632.285 3.263.503 4.888-2.478-1.683-7.806-4.339-14.889-2.429a.777.777 0 0 0-.469.364.707.707 0 0 0-.066.569c1.77 5.379 4.923 8.766 8.434 9.06.156.013.318.02.486.02 1.795 0 4.292-.825 7.038-4.139a104.998 104.998 0 0 0 2.596 11.084c-3.216-1.578-10.496-4.303-16.202-.155-.317.23-.412.655-.215.959 3.071 4.729 6.09 7.029 9.23 7.029l.079-.001c2.612-.032 5.241-1.634 8.008-4.878a139.383 139.383 0 0 0 3.644 10.079c-3.164-2.075-6.865-1.745-11.418.984a.769.769 0 0 0-.37.566.637.637 0 0 0 .239.584c.229.176 4.12 3.108 8.469 3.108 1.556 0 3.172-.382 4.699-1.394 4.312 9.872 8.405 16.488 8.488 16.62.132.21.358.323.598.323a.81.81 0 0 0 .454-.142c.366-.244.487-.723.271-1.068-.096-.156-5.779-9.345-10.778-22.219z"/><g><path style="fill:#263238" d="M158.499 416.238h-23.824l-1.798-24.63h27.421z"/><path style="fill:#263238" d="M131.101 389.947h30.972v4.171h-30.972z"/></g></g><g><path style="fill:#407bff" d="M148.012 416.238H93.008c-3.842 0-6.985-3.143-6.985-6.985V277.552c0-3.842 3.143-6.985 6.985-6.985h55.005c3.842 0 6.985 3.143 6.985 6.985v131.701c0 3.842-3.144 6.985-6.986 6.985z"/><path style="opacity:.6" d="M148.012 416.238H93.008c-3.842 0-6.985-3.143-6.985-6.985V277.552c0-3.842 3.143-6.985 6.985-6.985h55.005c3.842 0 6.985 3.143 6.985 6.985v131.701c0 3.842-3.144 6.985-6.986 6.985z"/><path style="fill:#407bff" d="M144.664 416.238H89.659c-3.842 0-6.985-3.143-6.985-6.985V277.552c0-3.842 3.143-6.985 6.985-6.985h55.005c3.842 0 6.985 3.143 6.985 6.985v131.701c0 3.842-3.143 6.985-6.985 6.985z"/><path style="opacity:.3" d="M144.664 416.238H89.659c-3.842 0-6.985-3.143-6.985-6.985V277.552c0-3.842 3.143-6.985 6.985-6.985h55.005c3.842 0 6.985 3.143 6.985 6.985v131.701c0 3.842-3.143 6.985-6.985 6.985z"/><path style="fill:#fafafa" d="M82.674 278.595h68.975v125.184H82.674z"/><path style="opacity:.18;fill:#407bff" d="M82.707 278.334h68.975v125.184H82.707z"/><path style="opacity:.4;fill:#fff" d="M107.705 278.595 85.334 403.778h22.151l22.371-125.183zM135.26 278.595l-22.37 125.183h11.075l22.371-125.183z"/><g><path style="fill:#407bff" d="M120.27 409.567a3.11 3.11 0 1 1-6.218 0 3.11 3.11 0 0 1 6.218 0z"/><path style="opacity:.5" d="M120.27 409.567a3.11 3.11 0 1 1-6.218 0 3.11 3.11 0 0 1 6.218 0z"/></g><g><circle style="fill:#407bff" cx="125.311" cy="274.261" r="1.099"/><path style="fill:#407bff" d="M120.816 275.361h-11.804a1.102 1.102 0 0 1-1.099-1.099c0-.605.495-1.099 1.099-1.099h11.804c.605 0 1.1.495 1.1 1.099s-.495 1.099-1.1 1.099z"/><circle style="opacity:.5" cx="125.311" cy="274.261" r="1.099"/><path style="opacity:.5" d="M120.816 275.361h-11.804a1.102 1.102 0 0 1-1.099-1.099c0-.605.495-1.099 1.099-1.099h11.804c.605 0 1.1.495 1.1 1.099s-.495 1.099-1.1 1.099z"/></g></g></svg>