<svg xmlns="http://www.w3.org/2000/svg" viewBox="0 0 500 500" style="enable-background:new 0 0 500 500" xml:space="preserve"><path style="fill:#c6ff00" d="M320.639 80.393c-19.153 11.386-34.409 28.267-52.574 41.172-23.134 16.436-50.44 26.034-77.972 32.911-34.299 8.567-72.444 14.84-95.514 41.628-19.839 23.036-23.336 56.378-18.275 86.356 23.429 138.777 246.858 130.959 317.336 39.484 37.522-48.7 110.417-202.221 30.962-246.924-3.546-1.995-7.326-3.596-11.177-4.898-29.418-9.95-66.164-5.555-92.786 10.271z"/><path style="opacity:.7;fill:#fff" d="M320.639 80.393c-19.153 11.386-34.409 28.267-52.574 41.172-23.134 16.436-50.44 26.034-77.972 32.911-34.299 8.567-72.444 14.84-95.514 41.628-19.839 23.036-23.336 56.378-18.275 86.356 23.429 138.777 246.858 130.959 317.336 39.484 37.522-48.7 110.417-202.221 30.962-246.924-3.546-1.995-7.326-3.596-11.177-4.898-29.418-9.95-66.164-5.555-92.786 10.271z"/><path style="fill:#c6ff00" d="M418.648 339.481s2.405-2.925 2.535-3.128c1.481-2.375 2.949-7.806.933-10.235a3.7 3.7 0 0 0-5.519-.02c-1.531 1.583-1.707 4.307-1.38 6.371.37 2.434 3.42 7.007 3.431 7.012z"/><path style="fill:#c6ff00" d="m442.452 328.225-.329-.226c-2.709-1.578-7.833.807-9.921 2.676-.179.167-2.662 3.032-2.662 3.032l.054.024c-.805.37-1.655.784-2.616 1.241-1.699.882-3.665 1.866-5.701 3.092a64.876 64.876 0 0 0-6.401 4.278 48.72 48.72 0 0 0-6.392 5.742l1.464-3.269c.807-2.676.785-8.332-1.794-10.113a3.693 3.693 0 0 0-5.121 1.07c-.075.11-.144.235-.214.361-1.063 1.936-.501 4.613.352 6.521.965 2.153 4.795 5.538 5.105 5.807a65.269 65.269 0 0 0-5.372 6.93 120.12 120.12 0 0 0-2.783 4.321l.657-1.466c.807-2.676.796-8.327-1.783-10.108a3.722 3.722 0 0 0-5.142 1.087l-.193.344c-1.063 1.936-.512 4.608.341 6.516.853 1.908 4.081 4.892 4.939 5.654l-1.035 1.701c-1.621 2.716-3.242 5.433-4.909 8.05-.595.92-1.201 1.809-1.808 2.698l.564-1.26c.812-2.687.79-8.343-1.789-10.124a3.722 3.722 0 0 0-5.142 1.087l-.193.344c-1.068 1.947-.512 4.608.347 6.531.859 1.924 3.759 4.591 4.783 5.506-.649.896-1.298 1.792-1.971 2.625-.477.569-.889 1.14-1.388 1.673-.499.533-.977 1.075-1.45 1.606-.965.989-1.949 2.022-2.905 2.963-.659.657-1.315 1.276-1.959 1.9.595-.92 1.727-2.721 1.8-2.884a14.37 14.37 0 0 0 1.106-7.185 4.7 4.7 0 0 0 .281-.774 3.711 3.711 0 0 0-2.461-4.636c-.129-.032-.253-.074-.387-.095-3.1-.502-7.023 3.569-8.296 6.063a109.12 109.12 0 0 0-1.102 2.897c.137-.656.269-1.301.395-1.988.252-1.348.471-2.71.707-4.169.098-.713.184-1.43.282-2.143.097-.713.134-1.492.197-2.245.123-1.731.16-3.501.164-5.286 1.203.226 5.404.947 7.445.466 2.041-.481 4.499-1.662 5.383-3.691a3.72 3.72 0 0 0-1.729-4.96c-.12-.053-.239-.107-.363-.15-2.986-.959-7.491 2.46-9.125 4.74-.068.152-1.096 1.895-1.625 2.871-.003-1.07-.006-2.141-.057-3.22-.123-3.132-.337-6.292-.552-9.452l-.176-2.895c.419.083 5.419 1.058 7.708.519 2.041-.481 4.493-1.677 5.387-3.702a3.71 3.71 0 0 0-1.823-4.924 3.265 3.265 0 0 0-.794-.264c-2.986-.96-7.48 2.465-9.12 4.729-.088.195-1.541 2.713-1.875 3.372-.122-2.115-.228-4.235-.243-6.328-.046-2.837.11-5.661.444-8.472.174.078 5.395 1.113 7.746.522 2.041-.481 4.499-1.662 5.382-3.691a3.726 3.726 0 0 0-1.745-4.954c-.12-.053-.239-.107-.363-.15-2.986-.96-7.48 2.465-9.109 4.734-.073.163-1.201 2.07-1.699 3.007l-.152-.068a47.261 47.261 0 0 1 1.939-8.259 60.962 60.962 0 0 1 1.572-4.238c.95.295 5.314 1.585 7.481 1.317s4.649-1.151 5.755-3.068a3.726 3.726 0 0 0-1.198-5.126 2.071 2.071 0 0 0-.333-.188c-2.867-1.284-7.707 1.633-9.585 3.7-.063.141-1.012 1.385-1.66 2.308l.803-1.792c.973-2.172 1.999-4.085 2.924-5.77a71.323 71.323 0 0 1 1.508-2.61c1.083-.206 5.441-1.057 7.2-2.277 1.759-1.22 3.594-3.163 3.708-5.367a3.708 3.708 0 0 0-3.372-4c-.15-.015-.283-.009-.426-.009-3.13.176-6.138 4.97-6.804 7.71-.097.217-.592 3.972-.495 4.016a68.588 68.588 0 0 0-1.503 2.482c-.957 1.671-2.032 3.575-3.059 5.723a97.956 97.956 0 0 0-1.112 2.396 64.706 64.706 0 0 0-1.856 4.697 47.678 47.678 0 0 0-2.176 8.322l-.044.098c-.124-.916-.583-3.443-.644-3.626-.807-2.682-3.937-7.396-7.088-7.464a3.708 3.708 0 0 0-3.675 3.752c-.005.128 0 .261.022.388.277 2.119 2.187 4.083 3.955 5.201 2.031 1.288 7.056 1.974 7.459 2.037a65.385 65.385 0 0 0-.651 8.731c-.023 1.711.007 3.419.054 5.148a28.99 28.99 0 0 0-.296-1.58c-.807-2.682-3.942-7.385-7.093-7.453-2.055.018-3.704 1.692-3.681 3.736.001.144.007.277.023.414.185 2.208 2.076 4.098 3.883 5.246 1.807 1.148 6.102 1.834 7.263 1.949.028.665.046 1.324.079 1.978.135 3.164.296 6.326.343 9.424.026 1.107.002 2.178-.01 3.255-.131-.697-.236-1.279-.241-1.412-.807-2.682-3.942-7.385-7.093-7.453a3.685 3.685 0 0 0-3.693 3.705c.002.17.004.341.032.51.185 2.208 2.071 4.109 3.883 5.246 1.812 1.137 5.722 1.78 7.035 1.964-.049 1.099-.103 2.21-.169 3.288-.081.733-.109 1.438-.238 2.162-.129.725-.211 1.431-.319 2.139-.256 1.358-.506 2.759-.791 4.066-.19.919-.387 1.796-.579 2.661-.009-1.086-.062-3.209-.086-3.389-.396-2.785-2.786-7.898-5.872-8.432a3.716 3.716 0 0 0-4.201 3.556c-.151 2.201 1.476 4.39 3.048 5.772 1.737 1.508 6.437 2.948 7.016 3.142a232.787 232.787 0 0 1-.999 4.181 196.176 196.176 0 0 1-3.117 10.978c-.098.334-.201.653-.301.934l1.886.884c.139-.368.222-.787.362-1.246a197.25 197.25 0 0 0 2.902-11.165c.347-1.474.674-3.049 1.01-4.672 1.579.055 3.155.031 4.732-.084.756 2.242 3.671 5.777 4.053 6.235a174.318 174.318 0 0 1-3.135 2.924c-3.491 3.195-6.478 5.73-8.658 7.453-.335.254-.639.496-.912.726l2.196 1.036.124-.101c2.112-1.805 5.133-4.416 8.589-7.706 1.09-1.037 2.268-2.153 3.416-3.347.489.363 4.489 3.223 6.746 3.686 2.058.413 4.777.367 6.441-1.105a3.714 3.714 0 0 0 .491-5.23c-.074-.098-.173-.195-.263-.287-2.306-2.128-7.826-.897-10.265.474-.145.091-1.608 1.144-2.522 1.817.475-.478.921-.891 1.425-1.435.965-.989 1.891-2.009 2.899-3.096.462-.536.939-1.079 1.411-1.637.472-.558.925-1.163 1.396-1.748a73.158 73.158 0 0 0 3.06-4.328c.866.831 3.98 3.777 5.954 4.492 1.975.715 4.714 1.12 6.559-.087a3.697 3.697 0 0 0 1.329-5.063c-.069-.109-.137-.218-.217-.332-1.953-2.452-7.589-2.095-10.209-1.078-.168.055-1.961.973-2.94 1.499.585-.898 1.165-1.786 1.727-2.721 1.628-2.674 3.193-5.441 4.749-8.187.486-.852.973-1.677 1.464-2.513.295.302 3.925 3.87 6.144 4.681 1.959.721 4.719 1.109 6.559-.087a3.718 3.718 0 0 0 1.317-5.095 2.731 2.731 0 0 0-.2-.311c-1.968-2.446-7.589-2.095-10.22-1.083-.204.078-2.765 1.369-3.408 1.786 1.072-1.841 2.15-3.666 3.301-5.419a66.401 66.401 0 0 1 5.045-6.867c.145.143 3.916 3.892 6.177 4.723 1.964.71 4.664 1.085 6.563-.098a3.706 3.706 0 0 0 1.275-5.088 2.013 2.013 0 0 0-.216-.332c-1.953-2.452-7.589-2.095-10.22-1.083-.173.066-2.138 1.076-3.07 1.585l-.107-.139a47.341 47.341 0 0 1 6.213-5.836c1.221-.979 2.446-1.851 3.652-2.68.63.777 3.553 4.264 5.485 5.221 1.932.956 4.505 1.587 6.497.602a3.705 3.705 0 0 0 1.842-4.899l-.191-.359c-1.679-2.656-7.32-2.9-10.033-2.199-.147.038-1.572.6-2.663.998.554-.365 1.114-.74 1.654-1.072 2.002-1.268 3.918-2.313 5.611-3.211.985-.511 1.872-.948 2.721-1.389 1.01.452 5.113 2.121 7.258 2.077 2.145-.043 4.744-.665 6.073-2.496a3.738 3.738 0 0 0-.648-5.215z"/><path style="fill:#c6ff00" d="M368.325 315.625c1.654 1.81 6.73 3.953 6.73 3.953s.373-3.744.388-4.011c-.05-2.8-1.844-8.167-4.849-9.056a3.725 3.725 0 0 0-4.628 3.026c-.401 2.178.956 4.533 2.359 6.088z"/><path style="opacity:.5;fill:#c6ff00;enable-background:new" d="m442.452 328.225-.329-.226c-2.709-1.578-7.833.807-9.921 2.676-.179.167-2.662 3.032-2.662 3.032l.054.024c-.805.37-1.655.784-2.616 1.241-1.699.882-3.665 1.866-5.701 3.092a64.876 64.876 0 0 0-6.401 4.278 48.72 48.72 0 0 0-6.392 5.742l1.464-3.269c.807-2.676.785-8.332-1.794-10.113a3.693 3.693 0 0 0-5.121 1.07c-.075.11-.144.235-.214.361-1.063 1.936-.501 4.613.352 6.521.965 2.153 4.795 5.538 5.105 5.807a65.269 65.269 0 0 0-5.372 6.93 120.12 120.12 0 0 0-2.783 4.321l.657-1.466c.807-2.676.796-8.327-1.783-10.108a3.722 3.722 0 0 0-5.142 1.087l-.193.344c-1.063 1.936-.512 4.608.341 6.516.853 1.908 4.081 4.892 4.939 5.654l-1.035 1.701c-1.621 2.716-3.242 5.433-4.909 8.05-.595.92-1.201 1.809-1.808 2.698l.564-1.26c.812-2.687.79-8.343-1.789-10.124a3.722 3.722 0 0 0-5.142 1.087l-.193.344c-1.068 1.947-.512 4.608.347 6.531.859 1.924 3.759 4.591 4.783 5.506-.649.896-1.298 1.792-1.971 2.625-.477.569-.889 1.14-1.388 1.673-.499.533-.977 1.075-1.45 1.606-.965.989-1.949 2.022-2.905 2.963-.659.657-1.315 1.276-1.959 1.9.595-.92 1.727-2.721 1.8-2.884a14.37 14.37 0 0 0 1.106-7.185 4.7 4.7 0 0 0 .281-.774 3.711 3.711 0 0 0-2.461-4.636c-.129-.032-.253-.074-.387-.095-3.1-.502-7.023 3.569-8.296 6.063a109.12 109.12 0 0 0-1.102 2.897c.137-.656.269-1.301.395-1.988.252-1.348.471-2.71.707-4.169.098-.713.184-1.43.282-2.143.097-.713.134-1.492.197-2.245.123-1.731.16-3.501.164-5.286 1.203.226 5.404.947 7.445.466 2.041-.481 4.499-1.662 5.383-3.691a3.72 3.72 0 0 0-1.729-4.96c-.12-.053-.239-.107-.363-.15-2.986-.959-7.491 2.46-9.125 4.74-.068.152-1.096 1.895-1.625 2.871-.003-1.07-.006-2.141-.057-3.22-.123-3.132-.337-6.292-.552-9.452l-.176-2.895c.419.083 5.419 1.058 7.708.519 2.041-.481 4.493-1.677 5.387-3.702a3.71 3.71 0 0 0-1.823-4.924 3.265 3.265 0 0 0-.794-.264c-2.986-.96-7.48 2.465-9.12 4.729-.088.195-1.541 2.713-1.875 3.372-.122-2.115-.228-4.235-.243-6.328-.046-2.837.11-5.661.444-8.472.174.078 5.395 1.113 7.746.522 2.041-.481 4.499-1.662 5.382-3.691a3.726 3.726 0 0 0-1.745-4.954c-.12-.053-.239-.107-.363-.15-2.986-.96-7.48 2.465-9.109 4.734-.073.163-1.201 2.07-1.699 3.007l-.152-.068a47.261 47.261 0 0 1 1.939-8.259 60.962 60.962 0 0 1 1.572-4.238c.95.295 5.314 1.585 7.481 1.317s4.649-1.151 5.755-3.068a3.726 3.726 0 0 0-1.198-5.126 2.071 2.071 0 0 0-.333-.188c-2.867-1.284-7.707 1.633-9.585 3.7-.063.141-1.012 1.385-1.66 2.308l.803-1.792c.973-2.172 1.999-4.085 2.924-5.77a71.323 71.323 0 0 1 1.508-2.61c1.083-.206 5.441-1.057 7.2-2.277 1.759-1.22 3.594-3.163 3.708-5.367a3.708 3.708 0 0 0-3.372-4c-.15-.015-.283-.009-.426-.009-3.13.176-6.138 4.97-6.804 7.71-.097.217-.592 3.972-.495 4.016a68.588 68.588 0 0 0-1.503 2.482c-.957 1.671-2.032 3.575-3.059 5.723a97.956 97.956 0 0 0-1.112 2.396 64.706 64.706 0 0 0-1.856 4.697 47.678 47.678 0 0 0-2.176 8.322l-.044.098c-.124-.916-.583-3.443-.644-3.626-.807-2.682-3.937-7.396-7.088-7.464a3.708 3.708 0 0 0-3.675 3.752c-.005.128 0 .261.022.388.277 2.119 2.187 4.083 3.955 5.201 2.031 1.288 7.056 1.974 7.459 2.037a65.385 65.385 0 0 0-.651 8.731c-.023 1.711.007 3.419.054 5.148a28.99 28.99 0 0 0-.296-1.58c-.807-2.682-3.942-7.385-7.093-7.453-2.055.018-3.704 1.692-3.681 3.736.001.144.007.277.023.414.185 2.208 2.076 4.098 3.883 5.246 1.807 1.148 6.102 1.834 7.263 1.949.028.665.046 1.324.079 1.978.135 3.164.296 6.326.343 9.424.026 1.107.002 2.178-.01 3.255-.131-.697-.236-1.279-.241-1.412-.807-2.682-3.942-7.385-7.093-7.453a3.685 3.685 0 0 0-3.693 3.705c.002.17.004.341.032.51.185 2.208 2.071 4.109 3.883 5.246 1.812 1.137 5.722 1.78 7.035 1.964-.049 1.099-.103 2.21-.169 3.288-.081.733-.109 1.438-.238 2.162-.129.725-.211 1.431-.319 2.139-.256 1.358-.506 2.759-.791 4.066-.19.919-.387 1.796-.579 2.661-.009-1.086-.062-3.209-.086-3.389-.396-2.785-2.786-7.898-5.872-8.432a3.716 3.716 0 0 0-4.201 3.556c-.151 2.201 1.476 4.39 3.048 5.772 1.737 1.508 6.437 2.948 7.016 3.142a232.787 232.787 0 0 1-.999 4.181 196.176 196.176 0 0 1-3.117 10.978c-.098.334-.201.653-.301.934l1.886.884c.139-.368.222-.787.362-1.246a197.25 197.25 0 0 0 2.902-11.165c.347-1.474.674-3.049 1.01-4.672 1.579.055 3.155.031 4.732-.084.756 2.242 3.671 5.777 4.053 6.235a174.318 174.318 0 0 1-3.135 2.924c-3.491 3.195-6.478 5.73-8.658 7.453-.335.254-.639.496-.912.726l2.196 1.036.124-.101c2.112-1.805 5.133-4.416 8.589-7.706 1.09-1.037 2.268-2.153 3.416-3.347.489.363 4.489 3.223 6.746 3.686 2.058.413 4.777.367 6.441-1.105a3.714 3.714 0 0 0 .491-5.23c-.074-.098-.173-.195-.263-.287-2.306-2.128-7.826-.897-10.265.474-.145.091-1.608 1.144-2.522 1.817.475-.478.921-.891 1.425-1.435.965-.989 1.891-2.009 2.899-3.096.462-.536.939-1.079 1.411-1.637.472-.558.925-1.163 1.396-1.748a73.158 73.158 0 0 0 3.06-4.328c.866.831 3.98 3.777 5.954 4.492 1.975.715 4.714 1.12 6.559-.087a3.697 3.697 0 0 0 1.329-5.063c-.069-.109-.137-.218-.217-.332-1.953-2.452-7.589-2.095-10.209-1.078-.168.055-1.961.973-2.94 1.499.585-.898 1.165-1.786 1.727-2.721 1.628-2.674 3.193-5.441 4.749-8.187.486-.852.973-1.677 1.464-2.513.295.302 3.925 3.87 6.144 4.681 1.959.721 4.719 1.109 6.559-.087a3.718 3.718 0 0 0 1.317-5.095 2.731 2.731 0 0 0-.2-.311c-1.968-2.446-7.589-2.095-10.22-1.083-.204.078-2.765 1.369-3.408 1.786 1.072-1.841 2.15-3.666 3.301-5.419a66.401 66.401 0 0 1 5.045-6.867c.145.143 3.916 3.892 6.177 4.723 1.964.71 4.664 1.085 6.563-.098a3.706 3.706 0 0 0 1.275-5.088 2.013 2.013 0 0 0-.216-.332c-1.953-2.452-7.589-2.095-10.22-1.083-.173.066-2.138 1.076-3.07 1.585l-.107-.139a47.341 47.341 0 0 1 6.213-5.836c1.221-.979 2.446-1.851 3.652-2.68.63.777 3.553 4.264 5.485 5.221 1.932.956 4.505 1.587 6.497.602a3.705 3.705 0 0 0 1.842-4.899l-.191-.359c-1.679-2.656-7.32-2.9-10.033-2.199-.147.038-1.572.6-2.663.998.554-.365 1.114-.74 1.654-1.072 2.002-1.268 3.918-2.313 5.611-3.211.985-.511 1.872-.948 2.721-1.389 1.01.452 5.113 2.121 7.258 2.077 2.145-.043 4.744-.665 6.073-2.496a3.738 3.738 0 0 0-.648-5.215z"/><path style="opacity:.3;fill:#c6ff00;enable-background:new" d="M418.648 339.481s2.405-2.925 2.535-3.128c1.481-2.375 2.949-7.806.933-10.235a3.7 3.7 0 0 0-5.519-.02c-1.531 1.583-1.707 4.307-1.38 6.371.37 2.434 3.42 7.007 3.431 7.012zM368.325 315.625c1.654 1.81 6.73 3.953 6.73 3.953s.373-3.744.388-4.011c-.05-2.8-1.844-8.167-4.849-9.056a3.725 3.725 0 0 0-4.628 3.026c-.401 2.178.956 4.533 2.359 6.088z"/><g><path style="fill:#c6ff00" d="M130.024 338.688s-.355-3.512-.404-3.731c-.598-2.539-3.227-7.076-6.157-7.337a3.448 3.448 0 0 0-3.637 3.637c.042 2.052 1.728 3.957 3.308 5.096 1.852 1.353 6.88 2.339 6.89 2.335z"/><path style="fill:#c6ff00" d="M138.209 315.552a46.88 46.88 0 0 0-.365.07c-2.823.755-4.609 5.711-4.745 8.319-.007.228.258 3.752.258 3.752l.052-.02c-.284.775-.568 1.61-.897 2.545-.532 1.703-1.172 3.649-1.698 5.801a60.738 60.738 0 0 0-1.374 7.043 45.439 45.439 0 0 0-.399 7.999l-1.201-3.115c-1.24-2.291-4.996-5.99-7.867-5.454a3.442 3.442 0 0 0-2.655 4.09c.023.122.061.25.098.378.583 1.974 2.722 3.36 4.544 4.048 2.058.776 6.811.464 7.193.436a60.92 60.92 0 0 0 1.056 8.103c.304 1.559.657 3.122 1.031 4.678l-.538-1.397c-1.24-2.291-4.985-5.994-7.857-5.458a3.468 3.468 0 0 0-2.657 4.115l.101.353c.583 1.974 2.712 3.364 4.534 4.052 1.822.688 5.915.513 6.983.446l.445 1.802c.732 2.856 1.465 5.711 2.101 8.533.218.997.408 1.982.597 2.967l-.463-1.2c-1.244-2.302-4.999-6-7.871-5.464a3.468 3.468 0 0 0-2.657 4.115l.101.354c.587 1.984 2.712 3.364 4.548 4.059 1.837.694 5.505.528 6.783.452.167 1.017.333 2.035.442 3.027.064.689.171 1.337.195 2.017.024.68.07 1.352.111 2.014.021 1.288.058 2.616.052 3.867.002.867-.019 1.707-.03 2.543-.218-.997-.666-2.929-.725-3.084a13.39 13.39 0 0 0-4.026-5.449 4.476 4.476 0 0 0-.327-.694 3.458 3.458 0 0 0-4.682-1.416c-.106.065-.216.119-.317.194-2.368 1.721-2.25 6.989-1.437 9.469a103 103 0 0 0 1.192 2.631 70.88 70.88 0 0 0-1.056-1.566c-.726-1.051-1.483-2.091-2.293-3.205-.407-.532-.825-1.061-1.232-1.593-.407-.532-.899-1.068-1.356-1.605-1.064-1.218-2.211-2.405-3.388-3.579.939-.647 4.175-2.953 5.196-4.618 1.022-1.666 1.855-4.067 1.093-5.984a3.466 3.466 0 0 0-4.416-2.113c-.114.044-.228.088-.338.142-2.595 1.345-3.291 6.57-2.856 9.148.056.145.533 1.97.832 2.96-.71-.701-1.42-1.402-2.167-2.076-2.152-1.975-4.383-3.908-6.614-5.842l-2.031-1.784c.33-.223 4.258-2.89 5.404-4.758 1.022-1.666 1.841-4.073 1.089-5.994a3.458 3.458 0 0 0-4.454-2.027 3.037 3.037 0 0 0-.696.352c-2.596 1.345-3.281 6.566-2.86 9.138.072.186.782 2.8.999 3.454-1.479-1.308-2.951-2.63-4.345-3.995a58.765 58.765 0 0 1-5.312-5.856c.166-.064 4.278-2.838 5.431-4.78 1.022-1.666 1.855-4.067 1.093-5.984a3.474 3.474 0 0 0-4.423-2.099c-.114.044-.228.088-.337.142-2.596 1.345-3.281 6.566-2.85 9.134.06.155.581 2.153.874 3.098l-.145.056a43.979 43.979 0 0 1-4.19-6.705 56.695 56.695 0 0 1-1.771-3.822c.819-.435 4.537-2.474 5.783-4.084 1.246-1.609 2.291-3.831 1.75-5.821a3.473 3.473 0 0 0-4.178-2.573 1.896 1.896 0 0 0-.343.097c-2.732 1.053-3.98 6.17-3.846 8.769.052.134.252 1.579.437 2.613l-.658-1.707c-.798-2.07-1.389-4.005-1.897-5.723a66.651 66.651 0 0 1-.736-2.711c.575-.852 2.873-4.293 3.221-6.258.348-1.965.268-4.454-1.116-5.977a3.457 3.457 0 0 0-4.86-.397c-.108.089-.192.181-.286.276-1.939 2.186-.743 7.323.632 9.562.08.207 2.238 3 2.331 2.964.185.82.401 1.688.655 2.624.477 1.73 1.031 3.691 1.777 5.781.274.774.559 1.543.855 2.309a60.526 60.526 0 0 0 1.888 4.312 44.43 44.43 0 0 0 4.076 6.903l.036.093c-.688-.519-2.66-1.875-2.822-1.955-2.304-1.228-7.477-2.252-9.591-.213a3.456 3.456 0 0 0 .068 4.894c.081.088.173.171.271.24 1.583 1.208 4.137 1.234 6.037.799 2.185-.498 5.939-3.371 6.244-3.596a60.963 60.963 0 0 0 5.348 6.164 118.499 118.499 0 0 0 3.441 3.345 26.404 26.404 0 0 0-1.24-.841c-2.304-1.228-7.473-2.242-9.587-.203a3.452 3.452 0 0 0 .054 4.888c.096.094.187.177.289.257 1.582 1.328 4.074 1.318 6.02.877 1.946-.441 5.219-2.832 6.058-3.524.458.418.906.839 1.36 1.247 2.181 1.988 4.379 3.958 6.458 5.961.749.71 1.442 1.429 2.146 2.144-.547-.371-1.001-.684-1.092-.767-2.304-1.228-7.473-2.242-9.587-.203a3.435 3.435 0 0 0 .025 4.875c.114.111.228.221.359.313 1.581 1.328 4.078 1.328 6.019.877 1.942-.451 4.935-2.616 5.918-3.363.695.754 1.394 1.519 2.064 2.271.432.535.879 1.016 1.274 1.577s.808 1.079 1.205 1.615c.73 1.062 1.493 2.146 2.17 3.193.483.729.934 1.435 1.38 2.13-.724-.707-2.163-2.066-2.298-2.169-2.102-1.567-7.053-3.343-9.433-1.653a3.463 3.463 0 0 0-.406 5.113c1.356 1.545 3.873 1.906 5.819 1.774 2.138-.159 6.177-2.322 6.685-2.577a219.397 219.397 0 0 1 2.11 3.406 181.489 181.489 0 0 1 5.214 9.27c.157.284.3.562.42.813l1.823-.667c-.152-.333-.375-.664-.586-1.058a183.542 183.542 0 0 0-5.48-9.25 165.9 165.9 0 0 0-2.427-3.736 40.784 40.784 0 0 0 3.051-3.185c1.979.972 6.232 1.365 6.785 1.414a164.531 164.531 0 0 1-.124 3.994c-.179 4.407-.463 8.047-.755 10.62-.052.389-.092.749-.119 1.08l2.127-.772a7.4 7.4 0 0 0 .014-.148c.193-2.583.45-6.295.542-10.74.03-1.402.065-2.914.029-4.457.561-.086 5.079-.853 6.868-2.042 1.624-1.09 3.379-2.919 3.498-4.986a3.462 3.462 0 0 0-3.137-3.759c-.113-.016-.243-.013-.362-.015-2.922.128-5.732 4.587-6.426 7.101-.035.156-.299 1.815-.454 2.861-.005-.628.015-1.194-.014-1.885-.021-1.287-.087-2.569-.144-3.95-.052-.658-.097-1.33-.156-2.008-.059-.678-.162-1.376-.24-2.071a67.76 67.76 0 0 0-.854-4.865c1.119-.027 5.112-.152 6.881-.989 1.769-.837 3.836-2.382 4.248-4.396a3.447 3.447 0 0 0-2.476-4.204c-.117-.026-.234-.052-.362-.074-2.904-.319-6.369 3.644-7.416 6.044-.074.147-.644 1.936-.939 2.929-.21-.977-.416-1.943-.666-2.929-.7-2.832-1.502-5.685-2.297-8.516-.244-.88-.47-1.744-.7-2.618.393.003 5.137-.055 7.13-.99 1.763-.822 3.832-2.393 4.249-4.395a3.465 3.465 0 0 0-2.505-4.216 2.651 2.651 0 0 0-.337-.072c-2.91-.304-6.369 3.644-7.426 6.049-.083.186-.91 2.728-1.056 3.426-.514-1.918-1.013-3.829-1.417-5.741a62.119 62.119 0 0 1-1.23-7.846c.189-.002 5.145-.034 7.18-.985 1.759-.833 3.78-2.373 4.244-4.406a3.453 3.453 0 0 0-2.528-4.184 1.894 1.894 0 0 0-.362-.075c-2.904-.318-6.369 3.644-7.427 6.049-.07.158-.692 2.121-.967 3.071l-.162-.021a44.097 44.097 0 0 1 .219-7.941c.154-1.45.382-2.833.625-4.175.928.094 5.154.45 7.055-.2 1.901-.65 4.007-1.937 4.665-3.902a3.453 3.453 0 0 0-2.031-4.435 50.11 50.11 0 0 1-.363-.11c-2.859-.633-6.724 2.937-8.042 5.192-.072.123-.636 1.434-1.089 2.417.123-.606.242-1.223.377-1.798.476-2.156 1.042-4.11 1.56-5.819.309-.987.602-1.86.868-2.712.962-.371 4.76-1.99 6.139-3.437s2.675-3.575 2.337-5.655a3.476 3.476 0 0 0-3.869-3.003z"/><path style="fill:#c6ff00" d="M81.203 356.309c2.283.094 7.034-1.856 7.034-1.856s-2.232-2.705-2.398-2.891c-1.885-1.805-6.613-4.142-9.174-2.739a3.47 3.47 0 0 0-1.037 5.047c1.177 1.698 3.626 2.347 5.575 2.439z"/><path style="opacity:.5;fill:#c6ff00;enable-background:new" d="M138.209 315.552a46.88 46.88 0 0 0-.365.07c-2.823.755-4.609 5.711-4.745 8.319-.007.228.258 3.752.258 3.752l.052-.02c-.284.775-.568 1.61-.897 2.545-.532 1.703-1.172 3.649-1.698 5.801a60.738 60.738 0 0 0-1.374 7.043 45.439 45.439 0 0 0-.399 7.999l-1.201-3.115c-1.24-2.291-4.996-5.99-7.867-5.454a3.442 3.442 0 0 0-2.655 4.09c.023.122.061.25.098.378.583 1.974 2.722 3.36 4.544 4.048 2.058.776 6.811.464 7.193.436a60.92 60.92 0 0 0 1.056 8.103c.304 1.559.657 3.122 1.031 4.678l-.538-1.397c-1.24-2.291-4.985-5.994-7.857-5.458a3.468 3.468 0 0 0-2.657 4.115l.101.353c.583 1.974 2.712 3.364 4.534 4.052 1.822.688 5.915.513 6.983.446l.445 1.802c.732 2.856 1.465 5.711 2.101 8.533.218.997.408 1.982.597 2.967l-.463-1.2c-1.244-2.302-4.999-6-7.871-5.464a3.468 3.468 0 0 0-2.657 4.115l.101.354c.587 1.984 2.712 3.364 4.548 4.059 1.837.694 5.505.528 6.783.452.167 1.017.333 2.035.442 3.027.064.689.171 1.337.195 2.017.024.68.07 1.352.111 2.014.021 1.288.058 2.616.052 3.867.002.867-.019 1.707-.03 2.543-.218-.997-.666-2.929-.725-3.084a13.39 13.39 0 0 0-4.026-5.449 4.476 4.476 0 0 0-.327-.694 3.458 3.458 0 0 0-4.682-1.416c-.106.065-.216.119-.317.194-2.368 1.721-2.25 6.989-1.437 9.469a103 103 0 0 0 1.192 2.631 70.88 70.88 0 0 0-1.056-1.566c-.726-1.051-1.483-2.091-2.293-3.205-.407-.532-.825-1.061-1.232-1.593-.407-.532-.899-1.068-1.356-1.605-1.064-1.218-2.211-2.405-3.388-3.579.939-.647 4.175-2.953 5.196-4.618 1.022-1.666 1.855-4.067 1.093-5.984a3.466 3.466 0 0 0-4.416-2.113c-.114.044-.228.088-.338.142-2.595 1.345-3.291 6.57-2.856 9.148.056.145.533 1.97.832 2.96-.71-.701-1.42-1.402-2.167-2.076-2.152-1.975-4.383-3.908-6.614-5.842l-2.031-1.784c.33-.223 4.258-2.89 5.404-4.758 1.022-1.666 1.841-4.073 1.089-5.994a3.458 3.458 0 0 0-4.454-2.027 3.037 3.037 0 0 0-.696.352c-2.596 1.345-3.281 6.566-2.86 9.138.072.186.782 2.8.999 3.454-1.479-1.308-2.951-2.63-4.345-3.995a58.765 58.765 0 0 1-5.312-5.856c.166-.064 4.278-2.838 5.431-4.78 1.022-1.666 1.855-4.067 1.093-5.984a3.474 3.474 0 0 0-4.423-2.099c-.114.044-.228.088-.337.142-2.596 1.345-3.281 6.566-2.85 9.134.06.155.581 2.153.874 3.098l-.145.056a43.979 43.979 0 0 1-4.19-6.705 56.695 56.695 0 0 1-1.771-3.822c.819-.435 4.537-2.474 5.783-4.084 1.246-1.609 2.291-3.831 1.75-5.821a3.473 3.473 0 0 0-4.178-2.573 1.896 1.896 0 0 0-.343.097c-2.732 1.053-3.98 6.17-3.846 8.769.052.134.252 1.579.437 2.613l-.658-1.707c-.798-2.07-1.389-4.005-1.897-5.723a66.651 66.651 0 0 1-.736-2.711c.575-.852 2.873-4.293 3.221-6.258.348-1.965.268-4.454-1.116-5.977a3.457 3.457 0 0 0-4.86-.397c-.108.089-.192.181-.286.276-1.939 2.186-.743 7.323.632 9.562.08.207 2.238 3 2.331 2.964.185.82.401 1.688.655 2.624.477 1.73 1.031 3.691 1.777 5.781.274.774.559 1.543.855 2.309a60.526 60.526 0 0 0 1.888 4.312 44.43 44.43 0 0 0 4.076 6.903l.036.093c-.688-.519-2.66-1.875-2.822-1.955-2.304-1.228-7.477-2.252-9.591-.213a3.456 3.456 0 0 0 .068 4.894c.081.088.173.171.271.24 1.583 1.208 4.137 1.234 6.037.799 2.185-.498 5.939-3.371 6.244-3.596a60.963 60.963 0 0 0 5.348 6.164 118.499 118.499 0 0 0 3.441 3.345 26.404 26.404 0 0 0-1.24-.841c-2.304-1.228-7.473-2.242-9.587-.203a3.452 3.452 0 0 0 .054 4.888c.096.094.187.177.289.257 1.582 1.328 4.074 1.318 6.02.877 1.946-.441 5.219-2.832 6.058-3.524.458.418.906.839 1.36 1.247 2.181 1.988 4.379 3.958 6.458 5.961.749.71 1.442 1.429 2.146 2.144-.547-.371-1.001-.684-1.092-.767-2.304-1.228-7.473-2.242-9.587-.203a3.435 3.435 0 0 0 .025 4.875c.114.111.228.221.359.313 1.581 1.328 4.078 1.328 6.019.877 1.942-.451 4.935-2.616 5.918-3.363.695.754 1.394 1.519 2.064 2.271.432.535.879 1.016 1.274 1.577s.808 1.079 1.205 1.615c.73 1.062 1.493 2.146 2.17 3.193.483.729.934 1.435 1.38 2.13-.724-.707-2.163-2.066-2.298-2.169-2.102-1.567-7.053-3.343-9.433-1.653a3.463 3.463 0 0 0-.406 5.113c1.356 1.545 3.873 1.906 5.819 1.774 2.138-.159 6.177-2.322 6.685-2.577a219.397 219.397 0 0 1 2.11 3.406 181.489 181.489 0 0 1 5.214 9.27c.157.284.3.562.42.813l1.823-.667c-.152-.333-.375-.664-.586-1.058a183.542 183.542 0 0 0-5.48-9.25 165.9 165.9 0 0 0-2.427-3.736 40.784 40.784 0 0 0 3.051-3.185c1.979.972 6.232 1.365 6.785 1.414a164.531 164.531 0 0 1-.124 3.994c-.179 4.407-.463 8.047-.755 10.62-.052.389-.092.749-.119 1.08l2.127-.772a7.4 7.4 0 0 0 .014-.148c.193-2.583.45-6.295.542-10.74.03-1.402.065-2.914.029-4.457.561-.086 5.079-.853 6.868-2.042 1.624-1.09 3.379-2.919 3.498-4.986a3.462 3.462 0 0 0-3.137-3.759c-.113-.016-.243-.013-.362-.015-2.922.128-5.732 4.587-6.426 7.101-.035.156-.299 1.815-.454 2.861-.005-.628.015-1.194-.014-1.885-.021-1.287-.087-2.569-.144-3.95-.052-.658-.097-1.33-.156-2.008-.059-.678-.162-1.376-.24-2.071a67.76 67.76 0 0 0-.854-4.865c1.119-.027 5.112-.152 6.881-.989 1.769-.837 3.836-2.382 4.248-4.396a3.447 3.447 0 0 0-2.476-4.204c-.117-.026-.234-.052-.362-.074-2.904-.319-6.369 3.644-7.416 6.044-.074.147-.644 1.936-.939 2.929-.21-.977-.416-1.943-.666-2.929-.7-2.832-1.502-5.685-2.297-8.516-.244-.88-.47-1.744-.7-2.618.393.003 5.137-.055 7.13-.99 1.763-.822 3.832-2.393 4.249-4.395a3.465 3.465 0 0 0-2.505-4.216 2.651 2.651 0 0 0-.337-.072c-2.91-.304-6.369 3.644-7.426 6.049-.083.186-.91 2.728-1.056 3.426-.514-1.918-1.013-3.829-1.417-5.741a62.119 62.119 0 0 1-1.23-7.846c.189-.002 5.145-.034 7.18-.985 1.759-.833 3.78-2.373 4.244-4.406a3.453 3.453 0 0 0-2.528-4.184 1.894 1.894 0 0 0-.362-.075c-2.904-.318-6.369 3.644-7.427 6.049-.07.158-.692 2.121-.967 3.071l-.162-.021a44.097 44.097 0 0 1 .219-7.941c.154-1.45.382-2.833.625-4.175.928.094 5.154.45 7.055-.2 1.901-.65 4.007-1.937 4.665-3.902a3.453 3.453 0 0 0-2.031-4.435 50.11 50.11 0 0 1-.363-.11c-2.859-.633-6.724 2.937-8.042 5.192-.072.123-.636 1.434-1.089 2.417.123-.606.242-1.223.377-1.798.476-2.156 1.042-4.11 1.56-5.819.309-.987.602-1.86.868-2.712.962-.371 4.76-1.99 6.139-3.437s2.675-3.575 2.337-5.655a3.476 3.476 0 0 0-3.869-3.003z"/><path style="opacity:.3;fill:#c6ff00;enable-background:new" d="M130.024 338.688s-.355-3.512-.404-3.731c-.598-2.539-3.227-7.076-6.157-7.337a3.448 3.448 0 0 0-3.637 3.637c.042 2.052 1.728 3.957 3.308 5.096 1.852 1.353 6.88 2.339 6.89 2.335zM81.203 356.309c2.283.094 7.034-1.856 7.034-1.856s-2.232-2.705-2.398-2.891c-1.885-1.805-6.613-4.142-9.174-2.739a3.47 3.47 0 0 0-1.037 5.047c1.177 1.698 3.626 2.347 5.575 2.439z"/></g><g><ellipse style="fill:#c6ff00" cx="250" cy="412.74" rx="172.116" ry="22.968"/><ellipse style="opacity:.5;fill:#fff" cx="250" cy="412.74" rx="172.116" ry="22.968"/></g><g><path style="fill:#c6ff00" d="M448.497 195.602s-6.119 28.16-14.146 41.495l-9.172-3.232-4.556 3.817-19.394 16.292s-29.341-9.78-34.792-19.334c-5.451-9.554 2.111-22.137 2.111-22.137l19.155-46.099.167-.095 8.23-4.389s1.491-.191 3.745-.346c.775-.06 1.646-.107 2.576-.143 4.592-.191 10.651-.072 14.599 1.419 7.085 2.672 12.917 1.682 12.917 1.682s8.206 10.997 13.299 18.654c5.106 7.669 5.261 12.416 5.261 12.416z"/><path style="fill:#fff" d="M341.225 284.072s-6.598 17.45-7.638 27.841c-1.039 10.391 11.776 28.055 11.776 28.055s-6.2 11.084-4.139 14.547c2.061 3.464 8.054-5.196 10.946-16.626 2.892-11.43-2.304-27.016-2.304-27.016s8.478-12.007 8.915-17.26c.438-5.252-17.556-9.541-17.556-9.541z"/><path style="fill:none;stroke:#263238;stroke-linecap:round;stroke-linejoin:round;stroke-miterlimit:10" d="M341.354 284.072s-6.708 17.45-7.765 27.841c-1.056 10.391 11.973 28.055 11.973 28.055s-6.303 11.084-4.208 14.547c2.095 3.464 8.189-5.196 11.128-16.626 2.94-11.43-2.342-27.016-2.342-27.016s8.619-12.007 9.064-17.26c.443-5.252-17.85-9.541-17.85-9.541z"/><path style="fill:#263238" d="M343.555 342.461s-1.7-3.116-.708-3.966c.992-.85 4.674 1.275 5.241 2.833.567 1.558 3.391-.947 3.391-.947l1.631-5.861s1.635 3.833 1.777 5.533c.142 1.7-2.999 4.919-3.4 8.924-.472 4.714-6.232 9.349-9.632 8.924-3.399-.425-1.416-10.624 1.7-15.44z"/><path style="fill:none;stroke:#fff;stroke-linecap:round;stroke-linejoin:round;stroke-miterlimit:10" d="M353.889 339.313c-1.936 2.769-3.354 5.578-4.735 8.661-.854 1.909-1.174 4.031-2.786 5.365-1.508 1.249-3.228 1.983-5.144 2.386"/><path style="opacity:.1" d="m420.623 237.681-19.394 16.292s-29.341-9.78-34.792-19.334c-5.451-9.554 2.111-22.137 2.111-22.137l19.155-46.099.167-.095c3.996-1.133 8.003-3.375 11.975-4.735.906-.31 1.801-.585 2.695-.775-.036.215-.083.417-.119.632-3.483 19.084.489 39.431 10.902 55.795 2.087 3.28 2.886 7.228 4.496 10.758 1.002 2.206 2.016 4.449 2.493 6.822.192.944.287 1.91.311 2.876z"/><path style="fill:#fff" d="M419.402 170.179s.556 3.921 6.325 4.66c5.769.739 8.975-3.617 8.975-3.617s-.971-4.821.065-10.256c1.036-5.434 2.662-7.066 2.662-7.066s6.704.079 7.108-5.161c.404-5.24-6.167-8.099-8.334-5.875-2.166 2.223-5.025-5.872-5.025-5.872l-7.669-4.424-5.63-5.046-4.375 4.226s-1.44 5.003-1.787 7.399-1.965 6.634-1.945 8.719c.02 2.085.599 13.592 1.898 17.211 1.299 3.619 4.686 4.638 6.21 4.352 1.523-.286 1.522.75 1.522.75zM359.503 396.961c-.703-3.594-.112-7.761 1.529-12.138 2.849-7.596 5.405-57.288 12.627-62.987 4.659-3.677 16.176 1.266 16.176 1.266s.633 6.647 0 17.409c-.633 10.762-20.24 46.212-20.407 49.377-.03.577.401 1.522 1.108 2.719l-11.033 4.354z"/><path style="fill:none;stroke:#263238;stroke-linecap:round;stroke-linejoin:round;stroke-miterlimit:10" d="M359.503 396.961c-.703-3.594-.112-7.761 1.529-12.138 2.849-7.596 5.405-57.288 12.627-62.987 4.659-3.677 16.176 1.266 16.176 1.266s.633 6.647 0 17.409c-.633 10.762-20.24 46.212-20.407 49.377-.03.577.401 1.522 1.108 2.719l-11.033 4.354z"/><path style="fill:#263238" d="M359.874 388.594s-2.473 7.501-2.079 11.779c.394 4.278 3.495 1.944 9.599 9.032 6.103 7.088 11.647 7.787 13.616 6.409 1.969-1.378.808-4.956-5.387-15.441-6.195-10.485-3.906-5.889-3.906-5.889s1.264-4.374-1.124-4.992c-3.46-.897-5.513 4.134-7.678 4.134-2.166-.001-3.041-5.032-3.041-5.032z"/><path style="fill:none;stroke:#fff;stroke-linecap:round;stroke-linejoin:round;stroke-miterlimit:10" d="M358.494 398.31c.502.775 1.197 1.453 1.946 1.992 1.498 1.077 3.245 1.759 4.786 2.773 1.986 1.306 3.572 3.119 5.244 4.807a56.201 56.201 0 0 0 3.64 3.364c.997.843 2.049 1.665 3.281 2.098 1.232.433 2.687.422 3.756-.328"/><path style="fill:none;stroke:#263238;stroke-linecap:round;stroke-linejoin:round;stroke-miterlimit:10" d="M419.43 126.269c-2.741 2.165-5.701 4.641-6.801 8.09-1.094 3.432-.793 7.294-2.219 10.639-.99 2.322-.57 5.599-.429 8.053.219 3.84.773 7.678 1.548 11.443.577 2.807 1.763 4.573 4.733 4.923 2.911.343 6.121-1.169 8.642-2.475 4.062-2.104 8.887-8.813 11.299-12.809 3.2-.758 9.31-.372 8.201-6.495s-5.727-3.142-7.018-1.383"/><path style="fill:none;stroke:#263238;stroke-linecap:round;stroke-linejoin:round;stroke-miterlimit:10" d="M421.303 144.026c1.573-1.666 3.204-1.152 5.084-.019M417.26 145.099c.41 2.361-.158 4.899-1.616 6.808-.404.529-.89 1.059-.952 1.722-.069.74.419 1.415.956 1.928M417.124 159.809c2.421.212 3.789-.363 5.074-2.224"/><path style="fill:#263238" d="M423.771 148.46c-.075.852-.478 1.513-.902 1.476-.423-.037-.706-.758-.631-1.611.075-.852.478-1.513.902-1.476.423.038.706.759.631 1.611zM414.606 147.249c-.075.853-.478 1.513-.902 1.476-.423-.037-.706-.758-.631-1.611.075-.852.479-1.513.902-1.476.423.038.706.759.631 1.611z"/><path style="fill:none;stroke:#263238;stroke-linecap:round;stroke-linejoin:round;stroke-miterlimit:10" d="M412.088 142.721s1.492-1.277 2.893.254M436.203 154.132c-1.021 3.304-1.378 6.133-1.767 9.569-.284 2.508-.391 5.085.266 7.521-1.536 2.496-5.483 3.933-8.403 3.685-1.648-.14-3.312-.579-4.646-1.556-1.335-.977-2.295-2.554-2.249-4.208"/><path style="fill:#263238" d="M366.033 231.785s17.556 17.938 36.639 20.991c0 0 5.343 9.541 2.672 18.701-2.672 9.16-12.977 48.852-12.977 48.852l-19.465-2.29v-48.471s-6.466 16.457-12.434 24.503l-19.244-10c.001.001 6.489-37.401 24.809-52.286z"/><path style="fill:none;stroke:#fff;stroke-linecap:round;stroke-linejoin:round;stroke-miterlimit:10" d="m366.436 255.729 5.847 6.682.62 7.158"/><path style="fill:#263238" d="M369.67 307.536s-1.063 6.14 1.266 15.669c0 0 13.551 3.6 21.809 1.059 0 0 4.023-8.47 4.658-11.857.001-.001-13.331-7.835-27.733-4.871zM337.905 288.056s9.105 7.199 20.539 9.316c0 0 5.823-4.023 7.993-6.776 0 0-12.439-12.493-27.049-12.493l-1.483 9.953z"/><path style="fill:none;stroke:#263238;stroke-linecap:round;stroke-linejoin:round;stroke-miterlimit:10" d="M421.677 206.083s2.933-11.163 12.678-13.809"/><path style="fill:#263238" d="M437.672 145.718c-.914.72-.647 2.266-1.343 3.199-.627.841-1.538 1.395-2.59 1.474-.094.007-.196.008-.272-.047-.081-.059-.109-.166-.13-.264-.305-1.479-.055-3.008-.052-4.518.006-2.496-1.018-3.668-2.712-5.27-1.318-1.247-1.274-3.454-2.527-4.766-.892-.934-2.268-1.223-3.559-1.268-1.291-.046-2.601.102-3.866-.165-2.384-.501-4.181-2.42-4.709-4.997-1.994 1.596-3.717 6.961-3.717 6.961l-1.256-1.093c-3.041-2.837-3.618-7.879-1.518-11.482 2.139-3.671 6.688-5.657 10.896-5.069 2.8.391 5.403 1.781 8.218 2.032 3.432.305 6.999-1.097 10.269-.012 3.26 1.082 5.292 4.379 6.256 7.677.963 3.297 1.14 6.79 2.173 10.066.343 1.087.781 2.155.925 3.285.334 2.613-1.107 5.363-3.446 6.575.002 0-.946-7.117-7.04-2.318z"/><path style="opacity:.2;fill:none;stroke:#fff;stroke-linecap:round;stroke-linejoin:round;stroke-miterlimit:10" d="M412.235 131.92c-1.293-1.906-1.698-4.453-.818-6.581s3.122-3.689 5.42-3.537c2.318.154 4.226 1.861 5.689 3.665s2.735 3.841 4.666 5.132c2.116 1.414 4.77 1.758 7.029 2.93 3.543 1.839 5.854 5.829 5.685 9.817M426.476 124.046c.982 1.81 3.014 2.783 4.996 3.343 1.982.56 4.073.84 5.893 1.802 2.81 1.485 4.663 4.624 4.603 7.802"/><path style="fill:#fff;stroke:#263238;stroke-miterlimit:10" d="m407.621 143.076-74.857 180.355a7.4 7.4 0 0 1-9.672 3.998l-97.928-40.645a7.404 7.404 0 0 1-3.998-9.672l74.857-180.355a7.404 7.404 0 0 1 9.672-3.998l97.928 40.645a7.4 7.4 0 0 1 3.998 9.672z"/><path style="fill:#c6ff00" d="m380.163 147.923-3.572 8.607a5.094 5.094 0 0 1-6.652 2.75l-58.779-24.396a5.088 5.088 0 0 1-3.106-5.28c.048-.462.165-.926.351-1.374l3.572-8.607a5.096 5.096 0 0 1 6.659-2.753l58.779 24.397a5.093 5.093 0 0 1 2.748 6.656z"/><path style="fill:#263238" d="m338.251 131.083-2.978 7.175-1.333-.553 1.276-3.075-3.711-1.54-1.276 3.075-1.333-.553 2.978-7.175 1.333.553-1.23 2.962 3.711 1.54 1.23-2.962 1.333.553zM343.168 138.808l-4.295-1.783c-.178.863.275 1.652 1.229 2.048.615.255 1.177.26 1.733.022l.359 1.074c-.734.38-1.631.368-2.574-.023-1.835-.762-2.535-2.434-1.858-4.064.676-1.63 2.361-2.301 3.991-1.624 1.599.664 2.304 2.266 1.593 3.978a5.8 5.8 0 0 1-.178.372zm-3.952-2.638 3.106 1.289c.225-.832-.154-1.626-.995-1.975-.83-.344-1.656-.062-2.111.686zM346.61 134.048l1.281.532-3.157 7.606-1.281-.532 3.157-7.606zM349.573 135.277l1.281.532-3.157 7.606-1.281-.532 3.157-7.606zM350.063 141.189c.681-1.64 2.392-2.288 4.073-1.59 1.702.706 2.441 2.371 1.76 4.011-.681 1.64-2.385 2.302-4.087 1.596-1.682-.698-2.427-2.377-1.746-4.017zm4.541 1.884c.434-1.046.014-2.001-.919-2.388-.923-.383-1.896-.006-2.33 1.039-.434 1.046-.013 2.001.909 2.384.932.388 1.906.011 2.34-1.035zM356.056 146.032c.183-.441.676-.645 1.158-.445.472.196.665.685.482 1.125a.855.855 0 0 1-1.142.463c-.481-.199-.681-.703-.498-1.143zm2.748-6.418 1.517.63-2.247 4.691-1.015-.421 1.745-4.9z"/><g><path transform="rotate(22.542 326.992 180.914)" style="fill:#263238" d="M286.499 178.452H367.4v4.906h-80.901z"/><path transform="rotate(22.542 322.154 192.571)" style="fill:#263238" d="M281.661 190.108h80.901v4.906h-80.901z"/><path transform="rotate(22.542 317.316 204.23)" style="fill:#263238" d="M276.823 201.765h80.901v4.906h-80.901z"/><path transform="rotate(22.542 312.478 215.888)" style="fill:#263238" d="M271.985 213.421h80.901v4.906h-80.901z"/><path transform="rotate(22.542 307.64 227.545)" style="fill:#263238" d="M267.147 225.078h80.901v4.906h-80.901z"/><path transform="rotate(22.542 302.802 239.204)" style="fill:#263238" d="M262.309 236.734h80.901v4.906h-80.901z"/></g><path style="fill:#c6ff00;stroke:#263238;stroke-miterlimit:10" d="m353.174 274.256-20.41 49.175a7.4 7.4 0 0 1-9.672 3.998l-70.144-29.114c4.356-5.191 10.304-9.047 16.934-10.523 10.267-2.281 21.98.497 30.771-5.28 7.093-4.656 10.56-13.988 18.352-17.346 3.922-1.687 8.397-1.575 12.582-.745 7.529 1.492 15.223 5.186 21.587 9.835zM306.602 112.544c-2.714 1.988-4.476 4.998-5.953 8.013-3.476 7.108-5.78 14.74-9.307 21.82-3.53 7.073-8.579 13.797-15.749 17.132a20.51 20.51 0 0 1-6.346 1.757l26.775-64.51a7.404 7.404 0 0 1 9.672-3.998l17.101 7.098c-1.384 6.187-10.85 8.782-16.193 12.688z"/><path style="opacity:.1" d="m380.163 147.923-3.572 8.607a5.094 5.094 0 0 1-6.652 2.75l-58.779-24.396a5.088 5.088 0 0 1-3.106-5.28c3.061.038 6.853 2.613 9.378 3.642a275.118 275.118 0 0 0 12.395 4.738c13.096 4.647 27.467 8.316 40.728 4.169 1.546-.484 3.086-1.09 4.518-1.859l2.342.972a5.094 5.094 0 0 1 2.748 6.657z"/><path style="fill:none;stroke:#263238;stroke-miterlimit:10" d="m380.163 147.923-3.572 8.607a5.094 5.094 0 0 1-6.652 2.75l-58.779-24.396a5.088 5.088 0 0 1-3.106-5.28c.048-.462.165-.926.351-1.374l3.572-8.607a5.096 5.096 0 0 1 6.659-2.753l58.779 24.397a5.093 5.093 0 0 1 2.748 6.656z"/><g><path style="fill:#fff" d="M426.507 235.432s-14.642 10.881-19.462 14.367c0 0-23.566-15.07-31.92-22.896-8.353-7.826-11.991-10.563-12.518-19.437 0 0-12.397 1.327-13.701-1.354 0 0 2.03-1.331 5.306-1.514 0 0-5.767-1.663-5.786-3.773l11.566-.635s-13.026-1.954-12.88-3.152c.145-1.198 16.02-3.059 20.278 0 0 0 5.123 9.033 7.222 15.135 0 0 15.9 14.27 32.433 17.542l5.996-6.399 13.466 12.116z"/><path style="fill:none;stroke:#263238;stroke-linecap:round;stroke-linejoin:round;stroke-miterlimit:10" d="m413.04 223.315-5.996 6.399s-21.051-5.504-32.433-17.542c0 0-4.781-12.039-7.222-15.135-2.441-3.096-21.261-1.376-20.278 0 .983 1.376 11.582 3.593 11.582 3.593"/><path style="fill:none;stroke:#263238;stroke-linecap:round;stroke-linejoin:round;stroke-miterlimit:10" d="M426.507 234.847s-9.917 9.622-19.462 14.951c0 0-24.373-13.671-36.422-27.573l-1.09-.746a15.965 15.965 0 0 1-6.926-14.014h0a18.985 18.985 0 0 1-13.139-.748c-.269-.118-.579-.312-.562-.605.012-.208.191-.364.366-.478 1.351-.88 3.329-.965 4.94-1.037 3.018-.134 5.791-.984 8.764-.445M363.933 200.729l-4.005-.076-10.788-.204c-.299-.006-.7.077-.713.376-.006.138.083.259.172.364.842.997 1.991 1.679 3.125 2.325.644.367 1.302.733 2.005.956"/></g><path style="fill:none;stroke:#fff;stroke-linecap:round;stroke-linejoin:round;stroke-miterlimit:10" d="M397.404 252.764s-2.649 15.943 7.94 18.714M374.664 307.229s9.83-.655 17.53 3.22M362.41 287.158s-2.276-1.748-5.568-3.68"/><path style="fill:none;stroke:#263238;stroke-linecap:round;stroke-linejoin:round;stroke-miterlimit:10" d="M400.016 161.397c3.15-.263 7.695-.263 10.931.526M434.355 169.465s11.315 14.82 14.144 26.136c0 0-4.713 27.033-14.144 41.492 0 0-11.708-.314-22.985-16.66 0 0 6.07-10.059 15.785-20.746M402.672 252.776l3.42-2.977"/><path style="fill:#263238" d="M419.661 169.659s2.684 3.385 6.846 2.108c4.162-1.277 7.848-14.772 7.848-14.772s-7.007 10.153-14.694 12.664z"/></g><g><path style="fill:#263238" d="M320.022 147.403v248.659c0 5.59-4.533 10.122-10.122 10.122H185.952a10.1 10.1 0 0 1-6.127-2.065 10.11 10.11 0 0 1-3.995-8.057V147.403c0-5.59 4.533-10.122 10.122-10.122H309.9c5.589 0 10.122 4.532 10.122 10.122z"/><path style="fill:#263238" d="M324.17 147.403v248.659c0 5.59-4.533 10.122-10.122 10.122H190.1a10.1 10.1 0 0 1-6.127-2.065 10.11 10.11 0 0 1-3.995-8.057V147.403c0-5.59 4.533-10.122 10.122-10.122h123.948c5.589 0 10.122 4.532 10.122 10.122z"/><path style="fill:none;stroke:#fff;stroke-width:2;stroke-linecap:round;stroke-linejoin:round;stroke-miterlimit:10" d="M231.84 148.387h33.501"/><path style="opacity:.1;fill:#fff" d="M320.022 147.403v248.659c0 5.59-4.533 10.122-10.122 10.122H185.952a10.1 10.1 0 0 1-6.127-2.065L288.024 137.28H309.9c5.589.001 10.122 4.533 10.122 10.123z"/><path style="fill:none;stroke:#263238;stroke-miterlimit:10" d="M320.022 147.403v248.659c0 5.59-4.533 10.122-10.122 10.122H185.952a10.1 10.1 0 0 1-6.127-2.065 10.11 10.11 0 0 1-3.995-8.057V147.403c0-5.59 4.533-10.122 10.122-10.122H309.9c5.589 0 10.122 4.532 10.122 10.122z"/><path style="fill:#fff;stroke:#263238;stroke-miterlimit:10" d="M299.092 383.453H196.953c-7.077 0-12.814-5.737-12.814-12.814V167.613c0-7.077 5.737-12.814 12.814-12.814h102.139c7.077 0 12.814 5.737 12.814 12.814v203.025c0 7.077-5.737 12.815-12.814 12.815z"/><path style="fill:#263238" d="M253.589 395.513a6.052 6.052 0 1 1-12.104 0 6.052 6.052 0 0 1 12.104 0zM289.327 400.983v-10.941l10.941 5.471zM196.435 390.651h9.932v9.932h-9.932zM284.411 215.174l-1.565-3.444-4.162.727-.295 3.794a16.472 16.472 0 0 0-3.591 1.897l-3.306-1.952-2.937 2.965 1.98 3.324a16.681 16.681 0 0 0-2.597 6.354l-3.794.921v4.19l3.821.967a16.324 16.324 0 0 0 1.197 3.766l-2.587 2.993 2.394 3.435 3.683-1.409a17.283 17.283 0 0 0 3.121 2.403l-.405 3.941 3.932 1.436 2.219-3.269c.912.158 1.836.238 2.762.239.396 0 .792 0 1.179-.046l1.915 3.435 4.052-1.087-.055-3.886a16.817 16.817 0 0 0 3.398-2.136l3.49 1.676 2.689-3.204-2.228-3.112a16.248 16.248 0 0 0 1.584-3.748l3.757-.626.359-4.171-3.545-1.261a16.67 16.67 0 0 0-.921-4.015l2.679-2.633-2.099-3.628-3.61.994a16.406 16.406 0 0 0-3.039-2.762l.681-3.683-3.794-1.768-2.385 2.891c-1.299-.33-2.635-.5-3.977-.508zm-.073 6.197c5.777 0 10.46 4.683 10.46 10.46s-4.683 10.46-10.46 10.46-10.46-4.683-10.46-10.46 4.682-10.46 10.46-10.46z"/><path style="fill:#c6ff00;stroke:#263238;stroke-miterlimit:10" d="m286.208 212.929-1.565-3.444-4.162.727-.295 3.794a16.495 16.495 0 0 0-3.591 1.897l-3.306-1.952-2.937 2.965 1.98 3.324a16.697 16.697 0 0 0-2.597 6.354l-3.794.921v4.19l3.821.967a16.324 16.324 0 0 0 1.197 3.766l-2.588 2.993 2.394 3.435 3.683-1.409a17.255 17.255 0 0 0 3.122 2.403l-.405 3.941 3.932 1.436 2.219-3.269c.912.158 1.837.238 2.762.239.396 0 .792 0 1.179-.046l1.915 3.435 4.051-1.087-.055-3.886a16.817 16.817 0 0 0 3.398-2.136l3.49 1.676 2.689-3.204-2.228-3.112a16.248 16.248 0 0 0 1.584-3.748l3.757-.626.359-4.171-3.545-1.262a16.67 16.67 0 0 0-.921-4.015l2.68-2.633-2.1-3.628-3.609.995a16.437 16.437 0 0 0-3.039-2.762l.681-3.683-3.794-1.768-2.385 2.891a16.468 16.468 0 0 0-3.977-.508zm-.074 6.197c5.777 0 10.46 4.683 10.46 10.46 0 5.777-4.683 10.46-10.46 10.46-5.777 0-10.46-4.683-10.46-10.46 0-5.777 4.683-10.46 10.46-10.46z"/><path style="fill:#263238" d="m223.879 179.566-2.505-5.511-6.66 1.164-.472 6.071a26.444 26.444 0 0 0-5.747 3.036l-5.29-3.124-4.701 4.745 3.168 5.32a26.686 26.686 0 0 0-4.155 10.167l-6.071 1.474v6.705l6.115 1.547a26.085 26.085 0 0 0 1.916 6.027l-4.141 4.789 3.831 5.496 5.894-2.255a27.652 27.652 0 0 0 4.995 3.846l-.648 6.307 6.292 2.299 3.551-5.231c1.46.253 2.939.381 4.421.383.634 0 1.267 0 1.886-.074l3.065 5.496 6.484-1.739-.088-6.218a26.842 26.842 0 0 0 5.437-3.419l5.585 2.682 4.303-5.128-3.566-4.981a26.032 26.032 0 0 0 2.535-5.997l6.012-1.002.575-6.675-5.673-2.019a26.698 26.698 0 0 0-1.474-6.425l4.288-4.214-3.36-5.806-5.776 1.591a26.346 26.346 0 0 0-4.863-4.421l1.09-5.894-6.071-2.829-3.816 4.627a26.6 26.6 0 0 0-6.366-.81zm-.118 15.477c6.174 0 11.18 5.005 11.18 11.18 0 6.174-5.005 11.179-11.18 11.179-6.174 0-11.18-5.005-11.18-11.179 0-6.175 5.006-11.18 11.18-11.18zM274.559 321.576l-1.873-4.121-4.98.871-.353 4.539a19.738 19.738 0 0 0-4.297 2.27l-3.956-2.336-3.515 3.548 2.369 3.978a19.96 19.96 0 0 0-3.107 7.603l-4.54 1.102v5.013l4.573 1.157a19.536 19.536 0 0 0 1.432 4.507l-3.096 3.581 2.865 4.11 4.407-1.686a20.676 20.676 0 0 0 3.735 2.876l-.485 4.716 4.705 1.719 2.655-3.912c1.092.189 2.198.285 3.306.286.474 0 .948 0 1.41-.055l2.292 4.11 4.848-1.3-.066-4.65a20.037 20.037 0 0 0 4.066-2.556l4.176 2.005 3.217-3.834-2.666-3.724a19.444 19.444 0 0 0 1.895-4.484l4.495-.749.43-4.991-4.242-1.509a20.005 20.005 0 0 0-1.102-4.804l3.206-3.151-2.512-4.341-4.319 1.19a19.718 19.718 0 0 0-3.636-3.306l.815-4.407-4.54-2.115-2.854 3.46a19.624 19.624 0 0 0-4.758-.61zm-.088 11.573a8.36 8.36 0 1 1-8.359 8.359 8.358 8.358 0 0 1 8.359-8.359z"/><path style="fill:#c6ff00;stroke:#263238;stroke-miterlimit:10" d="m276.326 318.585-1.873-4.121-4.98.87-.353 4.54a19.738 19.738 0 0 0-4.297 2.27l-3.956-2.336-3.515 3.548 2.369 3.978a19.976 19.976 0 0 0-3.107 7.603l-4.54 1.102v5.013l4.573 1.157a19.536 19.536 0 0 0 1.432 4.507l-3.096 3.581 2.865 4.11 4.407-1.686a20.676 20.676 0 0 0 3.735 2.876l-.485 4.716 4.705 1.719 2.655-3.911c1.092.189 2.198.285 3.306.286.474 0 .948 0 1.41-.055l2.292 4.11 4.848-1.3-.066-4.65a20.037 20.037 0 0 0 4.066-2.556l4.176 2.005 3.217-3.834-2.666-3.724a19.444 19.444 0 0 0 1.895-4.484l4.496-.749.43-4.991-4.242-1.509a20.005 20.005 0 0 0-1.102-4.804l3.206-3.151-2.512-4.341-4.319 1.19a19.718 19.718 0 0 0-3.636-3.306l.815-4.407-4.54-2.116-2.854 3.46a19.645 19.645 0 0 0-4.759-.61zm-.089 11.573a8.36 8.36 0 1 1 0 16.718 8.36 8.36 0 0 1 0-16.718z"/><path style="fill:#263238" d="M309.968 286.197v-6.262c-5.688-.981-9.504-6.387-8.523-12.075.751-4.359 4.165-8.832 8.523-9.584v-8.682l-3.849.681-.295 3.785a16.593 16.593 0 0 0-3.591 1.906l-3.306-1.961-2.965 2.956 1.961 3.333a16.59 16.59 0 0 0-2.597 6.354l-3.794.921v4.19l3.821.921a16.606 16.606 0 0 0 1.197 3.775l-2.597 2.993 2.403 3.425 3.683-1.409c.941.923 1.989 1.73 3.121 2.403l-.405 3.95 3.932 1.427 2.219-3.26c.38.139.721.176 1.062.213zM221.067 257.684l-3.745-4.54-5.957 2.776 1.07 5.783a25.828 25.828 0 0 0-4.771 4.338l-5.668-1.561-3.297 5.697 4.207 4.135a26.24 26.24 0 0 0-1.446 6.304l-5.567 1.981.564 6.55 5.899.983a25.528 25.528 0 0 0 2.487 5.885l-3.499 4.887 4.222 5.032 5.48-2.632a26.356 26.356 0 0 0 5.335 3.355l-.087 6.102 6.362 1.706 3.007-5.393c.607.072 1.229.072 1.851.072a25.541 25.541 0 0 0 4.338-.376l3.485 5.133 6.174-2.256-.636-6.188a27.15 27.15 0 0 0 4.902-3.774l5.783 2.212 3.759-5.393-4.063-4.699a25.638 25.638 0 0 0 1.88-5.914l6-1.518v-6.579l-5.957-1.446a26.214 26.214 0 0 0-4.077-9.977l3.109-5.22-4.612-4.656-5.191 3.065a25.98 25.98 0 0 0-5.639-2.979l-.463-5.957-6.535-1.142-2.458 5.408c-2.107.013-4.204.28-6.246.796zm6.361 8.936c9.072 0 16.425 7.354 16.425 16.425 0 9.072-7.354 16.425-16.425 16.425s-16.425-7.354-16.425-16.425c0-9.071 7.354-16.425 16.425-16.425z"/><path style="fill:#c6ff00;stroke:#263238;stroke-miterlimit:10" d="m217.828 255.87-3.745-4.54-5.957 2.776 1.07 5.783a25.828 25.828 0 0 0-4.771 4.338l-5.668-1.562-3.297 5.697 4.208 4.135a26.24 26.24 0 0 0-1.446 6.304l-5.567 1.981.564 6.55 5.899.983a25.528 25.528 0 0 0 2.487 5.885l-3.499 4.887 4.222 5.032 5.48-2.632a26.356 26.356 0 0 0 5.335 3.355l-.087 6.102 6.362 1.706 3.007-5.393c.607.072 1.229.072 1.851.072a25.541 25.541 0 0 0 4.338-.376l3.485 5.133 6.174-2.256-.636-6.188a27.15 27.15 0 0 0 4.902-3.774l5.784 2.212 3.759-5.393-4.063-4.699a25.638 25.638 0 0 0 1.88-5.914l6-1.518v-6.579l-5.957-1.446a26.214 26.214 0 0 0-4.077-9.977l3.109-5.22-4.612-4.656-5.191 3.065a25.933 25.933 0 0 0-5.639-2.978l-.463-5.957-6.535-1.142-2.458 5.408c-2.108.012-4.205.28-6.248.796zm6.362 8.936c9.072 0 16.425 7.354 16.425 16.425 0 9.072-7.354 16.425-16.425 16.425-9.071 0-16.425-7.354-16.425-16.425 0-9.071 7.354-16.425 16.425-16.425z"/><path style="fill:#263238" d="m185.801 367.266 3.485 5.118 6.174-2.241-.636-6.203a25.864 25.864 0 0 0 4.902-3.774l5.784 2.212 3.774-5.379-4.077-4.699a26.073 26.073 0 0 0 1.88-5.928l6.001-1.446v-6.579l-5.957-1.446a26.03 26.03 0 0 0-4.077-9.977l3.08-5.234-4.656-4.641-5.191 3.08a26.033 26.033 0 0 0-5.639-2.993l-.463-5.943-6.044-1.07v15.298a16.41 16.41 0 0 1 13.384 13.384c1.54 8.932-4.452 17.421-13.384 18.96v9.832c.532-.057 1.067-.114 1.66-.331z"/><path style="fill:#c6ff00;stroke:#263238;stroke-miterlimit:10" d="m185.801 363.377 3.485 5.118 6.174-2.241-.636-6.203a25.864 25.864 0 0 0 4.902-3.774l5.784 2.212 3.774-5.379-4.077-4.699a26.073 26.073 0 0 0 1.88-5.928l6.001-1.446v-6.579l-5.957-1.446a26.03 26.03 0 0 0-4.077-9.977l3.08-5.234-4.656-4.641-5.191 3.08a26.077 26.077 0 0 0-5.639-2.993l-.463-5.943-6.044-1.07v15.298a16.41 16.41 0 0 1 13.384 13.384c1.54 8.932-4.452 17.421-13.384 18.96v9.832c.532-.057 1.067-.115 1.66-.331zM222.082 177.131l-2.505-5.511-6.66 1.164-.472 6.071a26.444 26.444 0 0 0-5.747 3.036l-5.29-3.124-4.701 4.745 3.168 5.32a26.692 26.692 0 0 0-4.155 10.167l-6.071 1.474v6.705l6.115 1.547a26.085 26.085 0 0 0 1.916 6.027l-4.141 4.789 3.831 5.496 5.894-2.255a27.697 27.697 0 0 0 4.995 3.846l-.648 6.307 6.292 2.299 3.551-5.231c1.46.253 2.939.382 4.421.383.634 0 1.267 0 1.886-.074l3.065 5.496 6.484-1.739-.088-6.218a26.842 26.842 0 0 0 5.437-3.419l5.585 2.682 4.303-5.128-3.566-4.981a26.032 26.032 0 0 0 2.535-5.997l6.012-1.002.575-6.675-5.673-2.019a26.698 26.698 0 0 0-1.474-6.425l4.288-4.214-3.36-5.806-5.776 1.591a26.346 26.346 0 0 0-4.863-4.421l1.09-5.894-6.071-2.829-3.816 4.627a26.587 26.587 0 0 0-6.366-.81zm-.118 15.477c6.174 0 11.179 5.005 11.179 11.179s-5.005 11.18-11.179 11.18-11.18-5.005-11.18-11.18 5.006-11.179 11.18-11.179zM311.906 284.603v-6.261a10.452 10.452 0 0 1 0-20.599v-9.742l-3.849.681-.295 3.785a16.593 16.593 0 0 0-3.591 1.906l-3.306-1.961-2.965 2.956 1.961 3.333a16.59 16.59 0 0 0-2.597 6.354l-3.794.921v4.19l3.821.921a16.606 16.606 0 0 0 1.197 3.775l-2.597 2.993 2.403 3.425 3.683-1.409c.941.923 1.989 1.73 3.121 2.403l-.405 3.95 3.932 1.427 2.219-3.26c.381.138.722.175 1.062.212z"/><circle style="fill:none;stroke:#fff;stroke-miterlimit:10" cx="221.876" cy="203.788" r="16.218"/><circle style="fill:none;stroke:#fff;stroke-miterlimit:10" cx="223.761" cy="281.231" r="21.212"/><circle style="fill:none;stroke:#263238;stroke-miterlimit:10" cx="276.171" cy="338.462" r="12.806"/></g><g><path style="fill:#263238" d="M92.671 167.011c3.2 2.158 6.788 3.838 9.467 6.617 3.145 3.263 4.745 7.816 4.968 12.343.223 4.527-.841 9.039-2.456 13.273-.954 2.5-2.154 4.999-4.157 6.774-1.888 1.673-4.35 2.569-6.825 3.064-4.828.966-9.88.524-14.598-.885-4.159-1.242-8.162-3.28-11.163-6.415-2.389-2.496-4.061-5.591-5.428-8.764-2.118-4.917-3.577-10.136-4.089-15.465-.494-5.15-.105-10.339.284-15.498l.965-12.774c.175-2.318-.093-8.329 2.838-9.29 2.417-.792 6.171 3.226 7.798 4.687 5.097 4.58 9.253 10.074 13.983 15.01 2.576 2.688 5.32 5.237 8.413 7.323z"/><path style="fill:#c6ff00" d="M78.851 185.993s11.913.876 17.942-2.87c6.029-3.747 19.699 11.53 19.699 11.53l-4.713 79.94s-11.977 2.533-19.372-.987c-7.395-3.519-11.027-3.349-12.802-7.569-1.775-4.22-1.802-11.233-9.443-17.337-7.642-6.104-7.648-9.279-10.014-13.132-2.366-3.853-10.008-9.214-10.535-13.473-.527-4.26.264-14.988.264-14.988l14.596-11.365c-.002 0 3.578-12.615 14.378-9.749z"/><path style="opacity:.1" d="M88.171 197.368a64.315 64.315 0 0 0 3.292 15.428 39.15 39.15 0 0 0-18.113 4.986 70.212 70.212 0 0 0 15.694 16.908 10.208 10.208 0 0 1 5.668-3.632c.864-.203 1.756-.293 2.598-.574.799-.266 1.532-.698 2.238-1.158 7.838-5.099 12.915-14.2 13.136-23.549.131-5.517-1.329-10.989-3.607-16.015-1.854-4.091-4.683-8.266-9.04-9.356-2.271-.568-4.666-.209-6.948.31-1.782.405-4.399.74-5.95 1.738-2.415 1.555-1.74 1.04-.94 3.706 1.132 3.776 1.628 7.268 1.972 11.208z"/><path style="fill:#fff" d="M71.019 147.476s6.299 10.892 8.141 16.201c1.842 5.309 1.428 11.255 1.053 13.393 0 0 .355 3.672 2.733 8.242l3.867.68s5.347 11.225 5.671 27.786c0 0-9.123-11.539-15.444-14.559-6.321-3.021-5.022-2.686-5.022-2.686s-5.163-9.099-7.861-11.887c-2.698-2.787-14.369 6.294-14.369 6.294l-12.144-19.393 5.991-11.297 8.132-6.309 7.958-6.467h11.294z"/><path style="fill:#fff;stroke:#263238;stroke-miterlimit:10" d="M119.375 421.361c3.967 5.152 9.979 8.685 16.41 9.645 1.511.225 3.425.104 4.059-1.286.279-.612.217-1.32.105-1.983-1.457-8.659-9.741-14.293-14.18-21.868-1.255-2.142-2.922-7.666-5.656-7.274-1.241.178-4.688 3.949-5.314 5.16-2.663 5.16 1.441 13.535 4.576 17.606z"/><path style="fill:#fff;stroke:#263238;stroke-miterlimit:10" d="M114.8 403.755s.67 9.498 6.713 15.038c6.043 5.54 7.664 8.655 18.437 8.944M146.989 386.385s-1.893 10.786 2.208 16.218 8.202 4.269 14.827 5.481c4.397.805 8.062 3.949 12.74 2.789 4.195-1.04 1.58-4.081-.418-5.753-4.405-3.686-9.611-6.317-14.055-9.971-7.732-6.358-6.377-11.971-6.377-11.971l-8.925 3.207z"/><path style="fill:none;stroke:#263238;stroke-miterlimit:10" d="M147.747 399.89c1.776 1.15 2.755 2.634 4.605 3.663 2.655 1.476 5.876 1.261 8.899 1.553a25.29 25.29 0 0 1 5.23 1.073c1.845.587 3.642 1.392 5.563 1.627a9.705 9.705 0 0 0 5.465-.937"/><path style="fill:#263238" d="M93.573 273.624s-7.848 26.292 0 53.761.392 44.343 17.659 78.484c0 0 8.081 6.671 13.655-3.139 0 0-1.584-38.065-4.284-47.09-2.7-9.026 8.892-28.725 5.058-47.522-3.834-18.797-12.075-34.493-12.075-34.493s-12.95 2.745-20.013-.001zM132.212 337.928s5.745 38.207 12.927 52.57c0 0 8.331 6.033 13.502-1.724 0 0 .575-63.486-4.596-68.37-5.171-4.883-21.833 17.524-21.833 17.524z"/><path style="fill:#fff" d="m222.169 88.535 33.97 224.724a8.62 8.62 0 0 1-7.235 9.812l-122.016 18.444a8.588 8.588 0 0 1-6.286-1.498 8.596 8.596 0 0 1-3.526-5.737l-33.97-224.724a8.62 8.62 0 0 1 7.235-9.812L212.357 81.3a8.623 8.623 0 0 1 9.812 7.235z"/><path transform="rotate(-8.598 203.917 106.257)" style="fill:#263238" d="M195.892 105.588h16.164v1.388h-16.164z"/><path transform="rotate(-8.598 203.33 102.315)" style="fill:#263238" d="M195.296 101.641h16.164v1.389h-16.164z"/><path transform="rotate(-8.598 202.733 98.368)" style="fill:#263238" d="M194.699 97.694h16.164v1.388h-16.164z"/><path style="fill:#c6ff00" d="m218.866 250.819 1.621 10.724a5.92 5.92 0 0 1-4.972 6.743l-73.241 11.071a5.927 5.927 0 0 1-6.75-4.971l-1.621-10.724a5.932 5.932 0 0 1 4.978-6.751l73.241-11.071a5.927 5.927 0 0 1 6.744 4.979z"/><path style="fill:#263238" d="m165.024 261.272-1.137 6.621-1.243.188-2.264-4.431-.88 4.905-1.252.189-3.043-5.989 1.216-.185 2.292 4.556.905-5.039 1.081-.163 2.323 4.578.884-5.063 1.118-.167zM170.661 264.777l-3.774.57c.241.682.894 1.045 1.732.918.541-.082.939-.317 1.228-.721l.709.603c-.355.578-.99.951-1.818 1.076-1.613.244-2.814-.634-3.031-2.066-.216-1.433.683-2.618 2.115-2.834 1.405-.213 2.58.614 2.807 2.117.013.091.025.229.032.337zm-3.896-.175 2.729-.413c-.195-.68-.798-1.076-1.537-.964-.729.11-1.19.658-1.192 1.377zM171.061 259.973l1.126-.171 1.011 6.684-1.126.171-1.011-6.684zM173.915 263.917c-.218-1.441.709-2.622 2.232-2.852.936-.142 1.743.133 2.222.806l-.788.636a1.378 1.378 0 0 0-1.299-.485c-.828.126-1.372.797-1.232 1.725.142.938.857 1.409 1.687 1.283a1.37 1.37 0 0 0 1.097-.847l.941.373c-.26.777-.947 1.295-1.883 1.437-1.523.229-2.76-.635-2.977-2.076zM179.077 263.137c-.218-1.441.709-2.623 2.187-2.846 1.495-.226 2.721.63 2.938 2.071.218 1.441-.699 2.629-2.194 2.855-1.477.224-2.713-.639-2.931-2.08zm3.991-.604c-.139-.919-.84-1.411-1.66-1.287-.81.122-1.335.8-1.196 1.719s.839 1.411 1.65 1.289c.821-.124 1.345-.802 1.206-1.721zM193.275 260.632l.417 2.756-1.126.17-.395-2.612c-.129-.855-.588-1.209-1.273-1.105-.739.111-1.179.674-1.034 1.629l.369 2.441-1.126.17-.395-2.611c-.129-.855-.588-1.21-1.273-1.107-.747.113-1.179.675-1.034 1.63l.369 2.441-1.126.17-.727-4.81 1.071-.162.093.612c.295-.487.818-.806 1.476-.905.703-.107 1.327.066 1.743.557.312-.554.914-.958 1.68-1.074 1.162-.175 2.072.36 2.291 1.81zM199.375 260.436l-3.774.571c.241.682.895 1.044 1.732.917.54-.081.938-.317 1.227-.721l.708.603c-.355.578-.99.95-1.818 1.075-1.613.244-2.814-.633-3.031-2.065-.217-1.433.683-2.618 2.115-2.835 1.405-.213 2.58.615 2.807 2.117.015.093.027.23.034.338zm-3.896-.175 2.729-.413c-.195-.68-.798-1.076-1.537-.964-.729.11-1.19.658-1.192 1.377z"/><path transform="rotate(-8.598 181.94 292.786)" style="fill:#263238" d="M124.012 291.814h115.95v2.075h-115.95z"/><path transform="rotate(-8.598 182.782 298.358)" style="fill:#263238" d="M124.855 297.389h115.95v2.075h-115.95z"/><path transform="rotate(-8.598 183.624 303.931)" style="fill:#263238" d="M125.697 302.963h115.95v2.075h-115.95z"/><path transform="rotate(-8.598 184.468 309.506)" style="fill:#263238" d="M126.54 308.538h115.95v2.075H126.54z"/><path style="opacity:.1" d="m218.866 250.819 1.621 10.724a5.92 5.92 0 0 1-4.972 6.743l-73.241 11.071a5.927 5.927 0 0 1-6.75-4.971l-.018-.12c13.481.152 60.547-1.291 75.678-28.285l.937-.142a5.929 5.929 0 0 1 6.745 4.98z"/><path style="fill:none;stroke:#263238;stroke-linecap:round;stroke-linejoin:round;stroke-miterlimit:10" d="m218.866 250.819 1.621 10.724a5.92 5.92 0 0 1-4.972 6.743l-73.241 11.071a5.927 5.927 0 0 1-6.75-4.971l-1.621-10.724a5.932 5.932 0 0 1 4.978-6.751l73.241-11.071a5.927 5.927 0 0 1 6.744 4.979z"/><path style="fill:#263238" d="M166.108 234.34a1.778 1.778 0 1 1-3.516.532 1.778 1.778 0 0 1 3.516-.532zM174.503 233.071a1.778 1.778 0 1 1-3.516.532 1.778 1.778 0 0 1 3.516-.532zM182.899 231.802a1.778 1.778 0 1 1-3.516.532 1.778 1.778 0 0 1 3.516-.532z"/><path style="fill:#fff;stroke:#263238;stroke-miterlimit:10" d="m156.701 113.428-55.501 8.39a3.74 3.74 0 0 1-4.257-3.139l-.179-1.185a3.74 3.74 0 0 1 3.139-4.257l55.501-8.39a3.74 3.74 0 0 1 4.257 3.139l.179 1.185a3.74 3.74 0 0 1-3.139 4.257z"/><path style="fill:none;stroke:#263238;stroke-linecap:round;stroke-linejoin:round;stroke-miterlimit:10" d="m102.749 119.48-.646-4.279"/><path transform="rotate(-8.598 164.362 177.645)" style="fill:#c6ff00" d="M106.521 128.332h115.763v98.704H106.521z"/><path transform="rotate(-8.598 164.362 177.645)" style="opacity:.5;fill:#fff" d="M106.521 128.332h115.763v98.704H106.521z"/><path transform="rotate(-8.598 164.362 177.645)" style="fill:none;stroke:#263238;stroke-miterlimit:10" d="M106.521 128.332h115.763v98.704H106.521z"/><circle transform="rotate(-53.928 196.851 145.579)" style="fill:#c6ff00;stroke:#263238;stroke-miterlimit:10" cx="196.866" cy="145.586" r="11.179"/><g><path style="fill:#c6ff00" d="m220.824 163.678 8.186 54.153-114.463 17.303-5.119-33.861c3.498-7.948 8.708-17.209 14.795-19.904 11.283-4.99 22.893 28.271 44.311 22.843 21.418-5.428 25.41-40.293 52.29-40.534z"/><path style="opacity:.1" d="m220.824 163.678 8.186 54.153-114.463 17.303-5.119-33.861c3.498-7.948 8.708-17.209 14.795-19.904 11.283-4.99 22.893 28.271 44.311 22.843 21.418-5.428 25.41-40.293 52.29-40.534z"/><path style="fill:none;stroke:#263238;stroke-miterlimit:10" d="m220.824 163.678 8.186 54.153-114.463 17.303-5.119-33.861c3.498-7.948 8.708-17.209 14.795-19.904 11.283-4.99 22.893 28.271 44.311 22.843 21.418-5.428 25.41-40.293 52.29-40.534z"/></g><path style="opacity:.1" d="m222.169 88.535 33.97 224.724a8.62 8.62 0 0 1-7.235 9.812l-122.016 18.444a8.588 8.588 0 0 1-6.286-1.498c27.189-24.11 112.901-112.124 100.457-254.592a8.501 8.501 0 0 1 1.11 3.11z"/><path style="fill:none;stroke:#263238;stroke-miterlimit:10" d="m222.169 88.535 33.97 224.724a8.62 8.62 0 0 1-7.235 9.812l-122.016 18.444a8.588 8.588 0 0 1-6.286-1.498 8.596 8.596 0 0 1-3.526-5.737l-33.97-224.724a8.62 8.62 0 0 1 7.235-9.812L212.357 81.3a8.623 8.623 0 0 1 9.812 7.235z"/><path style="fill:none;stroke:#263238;stroke-linecap:round;stroke-linejoin:round;stroke-miterlimit:10" d="M72.28 149.322s6.608 13.014 8.262 17.774c1.653 4.759-.035 12.618-4.186 16.157-4.151 3.539-8.803 3.314-13.968.757-5.163-2.555-10.402-6.452-10.407-6.456-.104-.077-.927.085-1.078.083-1.019-.014-5.037-1.563-6.4-4.09-3.376-6.264 4.075-4.03 5.58-2.997"/><path style="fill:none;stroke:#263238;stroke-linecap:round;stroke-linejoin:round;stroke-miterlimit:10" d="M71.019 162.664a8.704 8.704 0 0 0 3.363 3.916c.601.375 1.286.714 1.603 1.348.336.672.147 1.512-.281 2.13-.428.618-1.058 1.061-1.674 1.491M68.207 176.546s2.351 1.148 4.724.046"/><path style="fill:#263238" d="M66.71 166.218c.413.874.443 1.726.065 1.905-.377.178-1.018-.385-1.431-1.259-.413-.873-.443-1.726-.065-1.905.377-.178 1.018.385 1.431 1.259zM74.329 161.09c.413.874.443 1.726.065 1.905-.377.178-1.018-.385-1.431-1.258-.413-.874-.443-1.726-.065-1.905.376-.179 1.017.384 1.431 1.258z"/><path style="fill:none;stroke:#263238;stroke-linecap:round;stroke-linejoin:round;stroke-miterlimit:10" d="M64.471 161.186s-3.153.009-3.909 3.833M70.103 157.799s1.132-2.533 3.233-1.035"/><path style="fill:#263238" d="M49.518 170.24c.182.133 9.626-4.881 10.728-19.089 0 0 5.418 4.136 14.239.692 0 0-7.255-14.952-17.883-12.89-10.628 2.062-19.888 9.087-20.25 21.534-.257 8.854 1.606 17.662 1.684 26.518.04 4.482-.253 9.038-1.595 13.341-2.249 7.213-7.333 12.04-5.147 20.19 1.617 6.027 6.959 13.001 13.407 12.161 2.717-.354 8.953-1.941 9.993-3.193-2.182-3.247-3.14-6.227-3.224-7.409-.519-7.316 1.175-10.109 1.175-10.109l16.926-19.541-4.707-7.386-12.884-7.505s-5.34.612-8.273-6.005c-.547-3.927 5.811-1.309 5.811-1.309z"/><path style="fill:none;stroke:#263238;stroke-linecap:round;stroke-linejoin:round;stroke-miterlimit:10" d="M89.389 235.568s-12.887-9.854-18.581-20.789M96.793 231.489c-.344-.92-1.683-1.011-2.531-.515-.848.496-1.415 1.356-2.188 1.962-.575.451-1.268.764-1.741 1.322-.52.614-.702 1.438-.837 2.231a33.007 33.007 0 0 0-.14 10.161M85.453 246.649a27.96 27.96 0 0 1 1.906-7.603M102.098 249.564c1.116.927 1.138 2.875.045 3.828-.412.359-.928.574-1.387.872-1.414.92-2.188 2.565-3.477 3.654-1.778 1.503-4.753 1.626-6.316-.1-1.315-1.453-1.642-4.541-1.574-6.499"/><path style="fill:none;stroke:#263238;stroke-linecap:round;stroke-linejoin:round;stroke-miterlimit:10" d="M90.199 257.9c-8.388.992-35.503-28.397-35.503-28.397-4.049-4.96-4.129-12.594-1.109-18.267 2.891-5.431 8.596-8.831 11.936-13.998M65.585 185.683c2.411 3.102 4.26 5.986 5.223 9.795M80.214 177.07c-.028 4.115 1.734 7.576 4.684 10.496"/><path style="fill:none;stroke:#263238;stroke-linecap:round;stroke-linejoin:round;stroke-miterlimit:10" d="M67.193 194.258c-1.995 2.075-1.156 6.39 1.353 7.802 2.659 1.497 6.047.169 9.012.89.405.098.816.245 1.111.538.527.524.551 1.352.569 2.095.038 1.568.311 3.339 1.598 4.234.79.549 1.797.641 2.734.86 5.112 1.193 8.548 4.323 11.151 8.882"/><path style="fill:none;stroke:#263238;stroke-linecap:round;stroke-linejoin:round;stroke-miterlimit:10" d="M70.161 195.742c11.713 4.658 21.259 14.489 25.571 26.334M59.603 234.774c2.969 9.712 13.926 14.456 17.32 24.028.863 2.434 1.222 5.104 2.682 7.234 1.866 2.723 5.148 4.034 8.238 5.198 2.102.792 4.534 2.566 6.636 3.358M104.3 275.071c-2.636-.335-4.685-2.41-6.326-4.5-1.64-2.09-3.197-4.404-5.569-5.603M83.151 185.586c3.691.68 6.968.386 10.48-.939"/><path style="fill:none;stroke:#263238;stroke-linecap:round;stroke-linejoin:round;stroke-miterlimit:10" d="M87.212 185.993c2.877 8.767 5.873 19.451 5.219 28.786"/><g><path style="fill:#fff" d="M94.721 233.189s.398 11.983 5.649 17.112c0 0 12.957-12.834 18.482-20.768 5.525-7.934 11.684-17.349 13.486-23.934s-2.789-8.361-2.789-8.361-1.377-3.742-2.787-3.317c-1.41.424-3.75 7.287-3.75 7.287s-1.467-3.538-4.374 1.627c-2.907 5.164-4.301 7.521-2.295 12.216l-11.42 11.142-10.202 6.996z"/><path style="fill:none;stroke:#263238;stroke-linecap:round;stroke-linejoin:round;stroke-miterlimit:10" d="M121.392 205.532s2.467-6.821 0-5.349c-2.467 1.473-4.79 5.494-5.66 7.816-.871 2.322.612 7.052.612 7.052-6.171 8.228-15.84 14.588-21.622 18.138"/><path style="fill:none;stroke:#263238;stroke-linecap:round;stroke-linejoin:round;stroke-miterlimit:10" d="M121.702 204.604s3.463-9.522 5.06-10.683 1.596 2.612 1.596 2.612 2.467 1.183 2.903 2.623c.435 1.44 1.596 2.509 1.306 5.458-.29 2.949-7.681 16.013-7.681 16.013-2.416 5.133-14.795 20.375-24.516 29.674"/><path style="fill:none;stroke:#263238;stroke-linecap:round;stroke-linejoin:round;stroke-miterlimit:10" d="M128.358 196.533s-.578 4.306-1.06 5.63"/></g><path style="fill:none;stroke:#263238;stroke-linecap:round;stroke-linejoin:round;stroke-miterlimit:10" d="M95.027 232.867c-.508.336-.563 1.048-.547 1.657.174 6.296 2.603 12.507 6.748 17.249"/><path style="opacity:.2;fill:none;stroke:#fff;stroke-linecap:round;stroke-linejoin:round;stroke-miterlimit:10" d="M42.365 173.188a59.615 59.615 0 0 1 1.774 21.768c-.583 5.621-1.968 11.189-1.781 16.837.187 5.648 2.306 11.651 7.099 14.645M46.881 165.08a114.326 114.326 0 0 0 7.898-17.051M43.324 164.12c2.443-5.848 1.926-12.539 3.914-18.556"/><path style="fill:#263238" d="M67.572 185.762s6.683 3.153 10.048 1.805 1.95-8.834 1.95-8.834-3.366 8.429-11.998 7.029z"/></g></svg>